<svg width="40" height="40" viewBox="0 0 40 40" fill="none" xmlns="http://www.w3.org/2000/svg">
<mask id="mask0_293_156" style="mask-type:alpha" maskUnits="userSpaceOnUse" x="0" y="0" width="40" height="40">
<rect width="40" height="40" fill="#D9D9D9"/>
</mask>
<g mask="url(#mask0_293_156)">
<path d="M12.208 27.875H21.458V18.125H11.708V27.375C11.708 27.5137 11.7567 27.6317 11.854 27.729C11.9513 27.8263 12.0693 27.875 12.208 27.875ZM11.708 16.042H33.333V6.79199C33.333 6.65266 33.2777 6.52766 33.167 6.41699C33.0557 6.30566 32.9307 6.24999 32.792 6.24999H12.208C12.0693 6.24999 11.9513 6.30566 11.854 6.41699C11.7567 6.52766 11.708 6.65266 11.708 6.79199V16.042ZM23.542 27.875H32.792C32.9307 27.875 33.0557 27.8263 33.167 27.729C33.2777 27.6317 33.333 27.5137 33.333 27.375V18.125H23.542V27.875ZM12.208 29.958C11.486 29.958 10.875 29.708 10.375 29.208C9.87501 28.708 9.62501 28.097 9.62501 27.375V6.79199C9.62501 6.06933 9.87501 5.45133 10.375 4.93799C10.875 4.42399 11.486 4.16699 12.208 4.16699H32.792C33.514 4.16699 34.132 4.42399 34.646 4.93799C35.16 5.45133 35.417 6.06933 35.417 6.79199V27.375C35.417 28.097 35.16 28.708 34.646 29.208C34.132 29.708 33.514 29.958 32.792 29.958H12.208ZM7.20801 35C6.48601 35 5.86801 34.743 5.35401 34.229C4.84001 33.715 4.58301 33.097 4.58301 32.375V9.70799H6.66701V32.375C6.66701 32.5137 6.72234 32.6387 6.83301 32.75C6.94434 32.8613 7.06934 32.917 7.20801 32.917H29.875V35H7.20801Z" fill="#000C24"/>
</g>
</svg>
