<svg width="158" height="150" viewBox="0 0 158 150" fill="none" xmlns="http://www.w3.org/2000/svg">
<g clip-path="url(#clip0_293_275)">
<path d="M7.36203 145.978C7.36203 147.835 5.86236 149.339 4.01048 149.339C2.15861 149.339 0.658936 147.835 0.658936 145.978C0.658936 144.121 2.15861 142.617 4.01048 142.617C5.86236 142.617 7.36203 144.121 7.36203 145.978Z" stroke="#F7C600" stroke-width="1.18" stroke-linecap="round" stroke-linejoin="round"/>
<path d="M25.4377 149.339C27.2887 149.339 28.7893 147.834 28.7893 145.978C28.7893 144.122 27.2887 142.617 25.4377 142.617C23.5867 142.617 22.0862 144.122 22.0862 145.978C22.0862 147.834 23.5867 149.339 25.4377 149.339Z" stroke="#F7C600" stroke-width="1.18" stroke-linecap="round" stroke-linejoin="round"/>
<path d="M46.865 149.339C48.716 149.339 50.2165 147.834 50.2165 145.978C50.2165 144.122 48.716 142.617 46.865 142.617C45.014 142.617 43.5134 144.122 43.5134 145.978C43.5134 147.834 45.014 149.339 46.865 149.339Z" stroke="#F7C600" stroke-width="1.18" stroke-linecap="round" stroke-linejoin="round"/>
<path d="M68.292 149.339C70.143 149.339 71.6435 147.834 71.6435 145.978C71.6435 144.122 70.143 142.617 68.292 142.617C66.441 142.617 64.9404 144.122 64.9404 145.978C64.9404 147.834 66.441 149.339 68.292 149.339Z" stroke="#F7C600" stroke-width="1.18" stroke-linecap="round" stroke-linejoin="round"/>
<path d="M89.708 149.339C91.559 149.339 93.0595 147.834 93.0595 145.978C93.0595 144.122 91.559 142.617 89.708 142.617C87.857 142.617 86.3564 144.122 86.3564 145.978C86.3564 147.834 87.857 149.339 89.708 149.339Z" stroke="#F7C600" stroke-width="1.18" stroke-linecap="round" stroke-linejoin="round"/>
<path d="M111.135 149.339C112.986 149.339 114.487 147.834 114.487 145.978C114.487 144.122 112.986 142.617 111.135 142.617C109.284 142.617 107.783 144.122 107.783 145.978C107.783 147.834 109.284 149.339 111.135 149.339Z" stroke="#F7C600" stroke-width="1.18" stroke-linecap="round" stroke-linejoin="round"/>
<path d="M132.562 149.339C134.413 149.339 135.914 147.834 135.914 145.978C135.914 144.122 134.413 142.617 132.562 142.617C130.711 142.617 129.211 144.122 129.211 145.978C129.211 147.834 130.711 149.339 132.562 149.339Z" stroke="#F7C600" stroke-width="1.18" stroke-linecap="round" stroke-linejoin="round"/>
<path d="M157.33 145.978C157.33 147.835 155.83 149.339 153.978 149.339C152.126 149.339 150.626 147.835 150.626 145.978C150.626 144.121 152.126 142.617 153.978 142.617C155.83 142.617 157.33 144.121 157.33 145.978Z" stroke="#F7C600" stroke-width="1.18" stroke-linecap="round" stroke-linejoin="round"/>
<path d="M7.36203 125.697C7.36203 127.554 5.86236 129.058 4.01048 129.058C2.15861 129.058 0.658936 127.554 0.658936 125.697C0.658936 123.84 2.15861 122.336 4.01048 122.336C5.86236 122.336 7.36203 123.84 7.36203 125.697Z" stroke="#F7C600" stroke-width="1.18" stroke-linecap="round" stroke-linejoin="round"/>
<path d="M25.4377 129.058C27.2887 129.058 28.7893 127.553 28.7893 125.697C28.7893 123.841 27.2887 122.336 25.4377 122.336C23.5867 122.336 22.0862 123.841 22.0862 125.697C22.0862 127.553 23.5867 129.058 25.4377 129.058Z" stroke="#F7C600" stroke-width="1.18" stroke-linecap="round" stroke-linejoin="round"/>
<path d="M46.865 129.058C48.716 129.058 50.2165 127.553 50.2165 125.697C50.2165 123.841 48.716 122.336 46.865 122.336C45.014 122.336 43.5134 123.841 43.5134 125.697C43.5134 127.553 45.014 129.058 46.865 129.058Z" stroke="#F7C600" stroke-width="1.18" stroke-linecap="round" stroke-linejoin="round"/>
<path d="M68.292 129.058C70.143 129.058 71.6435 127.553 71.6435 125.697C71.6435 123.841 70.143 122.336 68.292 122.336C66.441 122.336 64.9404 123.841 64.9404 125.697C64.9404 127.553 66.441 129.058 68.292 129.058Z" stroke="#F7C600" stroke-width="1.18" stroke-linecap="round" stroke-linejoin="round"/>
<path d="M89.708 129.058C91.559 129.058 93.0595 127.553 93.0595 125.697C93.0595 123.841 91.559 122.336 89.708 122.336C87.857 122.336 86.3564 123.841 86.3564 125.697C86.3564 127.553 87.857 129.058 89.708 129.058Z" stroke="#F7C600" stroke-width="1.18" stroke-linecap="round" stroke-linejoin="round"/>
<path d="M111.135 129.058C112.986 129.058 114.487 127.553 114.487 125.697C114.487 123.841 112.986 122.336 111.135 122.336C109.284 122.336 107.783 123.841 107.783 125.697C107.783 127.553 109.284 129.058 111.135 129.058Z" stroke="#F7C600" stroke-width="1.18" stroke-linecap="round" stroke-linejoin="round"/>
<path d="M132.562 129.058C134.413 129.058 135.914 127.553 135.914 125.697C135.914 123.841 134.413 122.336 132.562 122.336C130.711 122.336 129.211 123.841 129.211 125.697C129.211 127.553 130.711 129.058 132.562 129.058Z" stroke="#F7C600" stroke-width="1.18" stroke-linecap="round" stroke-linejoin="round"/>
<path d="M157.33 125.697C157.33 127.554 155.83 129.058 153.978 129.058C152.126 129.058 150.626 127.554 150.626 125.697C150.626 123.84 152.126 122.336 153.978 122.336C155.83 122.336 157.33 123.84 157.33 125.697Z" stroke="#F7C600" stroke-width="1.18" stroke-linecap="round" stroke-linejoin="round"/>
<path d="M7.36203 105.416C7.36203 107.273 5.86236 108.777 4.01048 108.777C2.15861 108.777 0.658936 107.273 0.658936 105.416C0.658936 103.559 2.15861 102.055 4.01048 102.055C5.86236 102.055 7.36203 103.559 7.36203 105.416Z" stroke="#F7C600" stroke-width="1.18" stroke-linecap="round" stroke-linejoin="round"/>
<path d="M25.4377 108.777C27.2887 108.777 28.7893 107.272 28.7893 105.416C28.7893 103.56 27.2887 102.055 25.4377 102.055C23.5867 102.055 22.0862 103.56 22.0862 105.416C22.0862 107.272 23.5867 108.777 25.4377 108.777Z" stroke="#F7C600" stroke-width="1.18" stroke-linecap="round" stroke-linejoin="round"/>
<path d="M46.865 108.777C48.716 108.777 50.2165 107.272 50.2165 105.416C50.2165 103.56 48.716 102.055 46.865 102.055C45.014 102.055 43.5134 103.56 43.5134 105.416C43.5134 107.272 45.014 108.777 46.865 108.777Z" stroke="#F7C600" stroke-width="1.18" stroke-linecap="round" stroke-linejoin="round"/>
<path d="M68.292 108.777C70.143 108.777 71.6435 107.272 71.6435 105.416C71.6435 103.56 70.143 102.055 68.292 102.055C66.441 102.055 64.9404 103.56 64.9404 105.416C64.9404 107.272 66.441 108.777 68.292 108.777Z" stroke="#F7C600" stroke-width="1.18" stroke-linecap="round" stroke-linejoin="round"/>
<path d="M89.708 108.777C91.559 108.777 93.0595 107.272 93.0595 105.416C93.0595 103.56 91.559 102.055 89.708 102.055C87.857 102.055 86.3564 103.56 86.3564 105.416C86.3564 107.272 87.857 108.777 89.708 108.777Z" stroke="#F7C600" stroke-width="1.18" stroke-linecap="round" stroke-linejoin="round"/>
<path d="M111.135 108.777C112.986 108.777 114.487 107.272 114.487 105.416C114.487 103.56 112.986 102.055 111.135 102.055C109.284 102.055 107.783 103.56 107.783 105.416C107.783 107.272 109.284 108.777 111.135 108.777Z" stroke="#F7C600" stroke-width="1.18" stroke-linecap="round" stroke-linejoin="round"/>
<path d="M132.562 108.777C134.413 108.777 135.914 107.272 135.914 105.416C135.914 103.56 134.413 102.055 132.562 102.055C130.711 102.055 129.211 103.56 129.211 105.416C129.211 107.272 130.711 108.777 132.562 108.777Z" stroke="#F7C600" stroke-width="1.18" stroke-linecap="round" stroke-linejoin="round"/>
<path d="M157.33 105.416C157.33 107.273 155.83 108.777 153.978 108.777C152.126 108.777 150.626 107.273 150.626 105.416C150.626 103.559 152.126 102.055 153.978 102.055C155.83 102.055 157.33 103.559 157.33 105.416Z" stroke="#F7C600" stroke-width="1.18" stroke-linecap="round" stroke-linejoin="round"/>
<path d="M7.36203 85.1462C7.36203 87.0034 5.86236 88.5074 4.01048 88.5074C2.15861 88.5074 0.658936 87.0034 0.658936 85.1462C0.658936 83.289 2.15861 81.785 4.01048 81.785C5.86236 81.785 7.36203 83.289 7.36203 85.1462Z" stroke="#F7C600" stroke-width="1.18" stroke-linecap="round" stroke-linejoin="round"/>
<path d="M28.7893 85.1462C28.7893 87.0034 27.2896 88.5074 25.4377 88.5074C23.5859 88.5074 22.0862 87.0034 22.0862 85.1462C22.0862 83.289 23.5859 81.785 25.4377 81.785C27.2896 81.785 28.7893 83.289 28.7893 85.1462Z" stroke="#F7C600" stroke-width="1.18" stroke-linecap="round" stroke-linejoin="round"/>
<path d="M50.2165 85.1462C50.2165 87.0034 48.7169 88.5074 46.865 88.5074C45.0131 88.5074 43.5134 87.0034 43.5134 85.1462C43.5134 83.289 45.0131 81.785 46.865 81.785C48.7169 81.785 50.2165 83.289 50.2165 85.1462Z" stroke="#F7C600" stroke-width="1.18" stroke-linecap="round" stroke-linejoin="round"/>
<path d="M71.6323 85.1462C71.6323 87.0034 70.1326 88.5074 68.2807 88.5074C66.4289 88.5074 64.9292 87.0034 64.9292 85.1462C64.9292 83.289 66.4289 81.785 68.2807 81.785C70.1326 81.785 71.6323 83.289 71.6323 85.1462Z" stroke="#F7C600" stroke-width="1.18" stroke-linecap="round" stroke-linejoin="round"/>
<path d="M93.0595 85.1462C93.0595 87.0034 91.5599 88.5074 89.708 88.5074C87.8561 88.5074 86.3564 87.0034 86.3564 85.1462C86.3564 83.289 87.8561 81.785 89.708 81.785C91.5599 81.785 93.0595 83.289 93.0595 85.1462Z" stroke="#F7C600" stroke-width="1.18" stroke-linecap="round" stroke-linejoin="round"/>
<path d="M114.487 85.1462C114.487 87.0034 112.987 88.5074 111.135 88.5074C109.283 88.5074 107.783 87.0034 107.783 85.1462C107.783 83.289 109.283 81.785 111.135 81.785C112.987 81.785 114.487 83.289 114.487 85.1462Z" stroke="#F7C600" stroke-width="1.18" stroke-linecap="round" stroke-linejoin="round"/>
<path d="M135.903 85.1462C135.903 87.0034 134.403 88.5074 132.551 88.5074C130.699 88.5074 129.199 87.0034 129.199 85.1462C129.199 83.289 130.699 81.785 132.551 81.785C134.403 81.785 135.903 83.289 135.903 85.1462Z" stroke="#F7C600" stroke-width="1.18" stroke-linecap="round" stroke-linejoin="round"/>
<path d="M157.33 85.1462C157.33 87.0034 155.83 88.5074 153.978 88.5074C152.126 88.5074 150.626 87.0034 150.626 85.1462C150.626 83.289 152.126 81.785 153.978 81.785C155.83 81.785 157.33 83.289 157.33 85.1462Z" stroke="#F7C600" stroke-width="1.18" stroke-linecap="round" stroke-linejoin="round"/>
<path d="M7.36203 64.8652C7.36203 66.7224 5.86236 68.2263 4.01048 68.2263C2.15861 68.2263 0.658936 66.7224 0.658936 64.8652C0.658936 63.008 2.15861 61.504 4.01048 61.504C5.86236 61.504 7.36203 63.008 7.36203 64.8652Z" stroke="#F7C600" stroke-width="1.18" stroke-linecap="round" stroke-linejoin="round"/>
<path d="M28.7893 64.8652C28.7893 66.7224 27.2896 68.2263 25.4377 68.2263C23.5859 68.2263 22.0862 66.7224 22.0862 64.8652C22.0862 63.008 23.5859 61.504 25.4377 61.504C27.2896 61.504 28.7893 63.008 28.7893 64.8652Z" stroke="#F7C600" stroke-width="1.18" stroke-linecap="round" stroke-linejoin="round"/>
<path d="M50.2165 64.8652C50.2165 66.7224 48.7169 68.2263 46.865 68.2263C45.0131 68.2263 43.5134 66.7224 43.5134 64.8652C43.5134 63.008 45.0131 61.504 46.865 61.504C48.7169 61.504 50.2165 63.008 50.2165 64.8652Z" stroke="#F7C600" stroke-width="1.18" stroke-linecap="round" stroke-linejoin="round"/>
<path d="M71.6323 64.8652C71.6323 66.7224 70.1326 68.2263 68.2807 68.2263C66.4289 68.2263 64.9292 66.7224 64.9292 64.8652C64.9292 63.008 66.4289 61.504 68.2807 61.504C70.1326 61.504 71.6323 63.008 71.6323 64.8652Z" stroke="#F7C600" stroke-width="1.18" stroke-linecap="round" stroke-linejoin="round"/>
<path d="M93.0595 64.8652C93.0595 66.7224 91.5599 68.2263 89.708 68.2263C87.8561 68.2263 86.3564 66.7224 86.3564 64.8652C86.3564 63.008 87.8561 61.504 89.708 61.504C91.5599 61.504 93.0595 63.008 93.0595 64.8652Z" stroke="#F7C600" stroke-width="1.18" stroke-linecap="round" stroke-linejoin="round"/>
<path d="M114.487 64.8652C114.487 66.7224 112.987 68.2263 111.135 68.2263C109.283 68.2263 107.783 66.7224 107.783 64.8652C107.783 63.008 109.283 61.504 111.135 61.504C112.987 61.504 114.487 63.008 114.487 64.8652Z" stroke="#F7C600" stroke-width="1.18" stroke-linecap="round" stroke-linejoin="round"/>
<path d="M135.903 64.8652C135.903 66.7224 134.403 68.2263 132.551 68.2263C130.699 68.2263 129.199 66.7224 129.199 64.8652C129.199 63.008 130.699 61.504 132.551 61.504C134.403 61.504 135.903 63.008 135.903 64.8652Z" stroke="#F7C600" stroke-width="1.18" stroke-linecap="round" stroke-linejoin="round"/>
<path d="M157.33 64.8652C157.33 66.7224 155.83 68.2263 153.978 68.2263C152.126 68.2263 150.626 66.7224 150.626 64.8652C150.626 63.008 152.126 61.504 153.978 61.504C155.83 61.504 157.33 63.008 157.33 64.8652Z" stroke="#F7C600" stroke-width="1.18" stroke-linecap="round" stroke-linejoin="round"/>
<path d="M7.36203 44.5841C7.36203 46.4413 5.86236 47.9453 4.01048 47.9453C2.15861 47.9453 0.658936 46.4413 0.658936 44.5841C0.658936 42.727 2.15861 41.223 4.01048 41.223C5.86236 41.223 7.36203 42.727 7.36203 44.5841Z" stroke="#F7C600" stroke-width="1.18" stroke-linecap="round" stroke-linejoin="round"/>
<path d="M28.7893 44.5841C28.7893 46.4413 27.2896 47.9453 25.4377 47.9453C23.5859 47.9453 22.0862 46.4413 22.0862 44.5841C22.0862 42.727 23.5859 41.223 25.4377 41.223C27.2896 41.223 28.7893 42.727 28.7893 44.5841Z" stroke="#F7C600" stroke-width="1.18" stroke-linecap="round" stroke-linejoin="round"/>
<path d="M50.2165 44.5841C50.2165 46.4413 48.7169 47.9453 46.865 47.9453C45.0131 47.9453 43.5134 46.4413 43.5134 44.5841C43.5134 42.727 45.0131 41.223 46.865 41.223C48.7169 41.223 50.2165 42.727 50.2165 44.5841Z" stroke="#F7C600" stroke-width="1.18" stroke-linecap="round" stroke-linejoin="round"/>
<path d="M71.6323 44.5841C71.6323 46.4413 70.1326 47.9453 68.2807 47.9453C66.4289 47.9453 64.9292 46.4413 64.9292 44.5841C64.9292 42.727 66.4289 41.223 68.2807 41.223C70.1326 41.223 71.6323 42.727 71.6323 44.5841Z" stroke="#F7C600" stroke-width="1.18" stroke-linecap="round" stroke-linejoin="round"/>
<path d="M93.0595 44.5841C93.0595 46.4413 91.5599 47.9453 89.708 47.9453C87.8561 47.9453 86.3564 46.4413 86.3564 44.5841C86.3564 42.727 87.8561 41.223 89.708 41.223C91.5599 41.223 93.0595 42.727 93.0595 44.5841Z" stroke="#F7C600" stroke-width="1.18" stroke-linecap="round" stroke-linejoin="round"/>
<path d="M114.487 44.5841C114.487 46.4413 112.987 47.9453 111.135 47.9453C109.283 47.9453 107.783 46.4413 107.783 44.5841C107.783 42.727 109.283 41.223 111.135 41.223C112.987 41.223 114.487 42.727 114.487 44.5841Z" stroke="#F7C600" stroke-width="1.18" stroke-linecap="round" stroke-linejoin="round"/>
<path d="M135.903 44.5841C135.903 46.4413 134.403 47.9453 132.551 47.9453C130.699 47.9453 129.199 46.4413 129.199 44.5841C129.199 42.727 130.699 41.223 132.551 41.223C134.403 41.223 135.903 42.727 135.903 44.5841Z" stroke="#F7C600" stroke-width="1.18" stroke-linecap="round" stroke-linejoin="round"/>
<path d="M157.33 44.5841C157.33 46.4413 155.83 47.9453 153.978 47.9453C152.126 47.9453 150.626 46.4413 150.626 44.5841C150.626 42.727 152.126 41.223 153.978 41.223C155.83 41.223 157.33 42.727 157.33 44.5841Z" stroke="#F7C600" stroke-width="1.18" stroke-linecap="round" stroke-linejoin="round"/>
<path d="M7.36203 24.3031C7.36203 26.1603 5.86236 27.6643 4.01048 27.6643C2.15861 27.6643 0.658936 26.1603 0.658936 24.3031C0.658936 22.4459 2.15861 20.9419 4.01048 20.9419C5.86236 20.9419 7.36203 22.4459 7.36203 24.3031Z" stroke="#F7C600" stroke-width="1.18" stroke-linecap="round" stroke-linejoin="round"/>
<path d="M25.4377 27.6643C27.2887 27.6643 28.7893 26.1594 28.7893 24.3031C28.7893 22.4467 27.2887 20.9419 25.4377 20.9419C23.5867 20.9419 22.0862 22.4467 22.0862 24.3031C22.0862 26.1594 23.5867 27.6643 25.4377 27.6643Z" stroke="#F7C600" stroke-width="1.18" stroke-linecap="round" stroke-linejoin="round"/>
<path d="M46.865 27.6643C48.716 27.6643 50.2165 26.1594 50.2165 24.3031C50.2165 22.4467 48.716 20.9419 46.865 20.9419C45.014 20.9419 43.5134 22.4467 43.5134 24.3031C43.5134 26.1594 45.014 27.6643 46.865 27.6643Z" stroke="#F7C600" stroke-width="1.18" stroke-linecap="round" stroke-linejoin="round"/>
<path d="M68.292 27.6643C70.143 27.6643 71.6435 26.1594 71.6435 24.3031C71.6435 22.4467 70.143 20.9419 68.292 20.9419C66.441 20.9419 64.9404 22.4467 64.9404 24.3031C64.9404 26.1594 66.441 27.6643 68.292 27.6643Z" stroke="#F7C600" stroke-width="1.18" stroke-linecap="round" stroke-linejoin="round"/>
<path d="M89.708 27.6643C91.559 27.6643 93.0595 26.1594 93.0595 24.3031C93.0595 22.4467 91.559 20.9419 89.708 20.9419C87.857 20.9419 86.3564 22.4467 86.3564 24.3031C86.3564 26.1594 87.857 27.6643 89.708 27.6643Z" stroke="#F7C600" stroke-width="1.18" stroke-linecap="round" stroke-linejoin="round"/>
<path d="M111.135 27.6643C112.986 27.6643 114.487 26.1594 114.487 24.3031C114.487 22.4467 112.986 20.9419 111.135 20.9419C109.284 20.9419 107.783 22.4467 107.783 24.3031C107.783 26.1594 109.284 27.6643 111.135 27.6643Z" stroke="#F7C600" stroke-width="1.18" stroke-linecap="round" stroke-linejoin="round"/>
<path d="M132.562 27.6643C134.413 27.6643 135.914 26.1594 135.914 24.3031C135.914 22.4467 134.413 20.9419 132.562 20.9419C130.711 20.9419 129.211 22.4467 129.211 24.3031C129.211 26.1594 130.711 27.6643 132.562 27.6643Z" stroke="#F7C600" stroke-width="1.18" stroke-linecap="round" stroke-linejoin="round"/>
<path d="M157.33 24.3031C157.33 26.1603 155.83 27.6643 153.978 27.6643C152.126 27.6643 150.626 26.1603 150.626 24.3031C150.626 22.4459 152.126 20.9419 153.978 20.9419C155.83 20.9419 157.33 22.4459 157.33 24.3031Z" stroke="#F7C600" stroke-width="1.18" stroke-linecap="round" stroke-linejoin="round"/>
<path d="M7.36215 4.03343C7.36215 5.89062 5.86247 7.39461 4.0106 7.39461C2.15873 7.39461 0.67041 5.87923 0.67041 4.03343C0.67041 2.18762 2.17009 0.672241 4.02196 0.672241C5.87383 0.672241 7.37351 2.17623 7.37351 4.03343H7.36215Z" stroke="#F7C600" stroke-width="1.18" stroke-linecap="round" stroke-linejoin="round"/>
<path d="M25.4377 7.39461C27.2887 7.39461 28.7893 5.88976 28.7893 4.03343C28.7893 2.1771 27.2887 0.672241 25.4377 0.672241C23.5867 0.672241 22.0862 2.1771 22.0862 4.03343C22.0862 5.88976 23.5867 7.39461 25.4377 7.39461Z" stroke="#F7C600" stroke-width="1.18" stroke-linecap="round" stroke-linejoin="round"/>
<path d="M46.865 7.39461C48.716 7.39461 50.2165 5.88976 50.2165 4.03343C50.2165 2.1771 48.716 0.672241 46.865 0.672241C45.014 0.672241 43.5134 2.1771 43.5134 4.03343C43.5134 5.88976 45.014 7.39461 46.865 7.39461Z" stroke="#F7C600" stroke-width="1.18" stroke-linecap="round" stroke-linejoin="round"/>
<path d="M68.2922 7.39461C70.1432 7.39461 71.6438 5.88976 71.6438 4.03343C71.6438 2.1771 70.1432 0.672241 68.2922 0.672241C66.4412 0.672241 64.9407 2.1771 64.9407 4.03343C64.9407 5.88976 66.4412 7.39461 68.2922 7.39461Z" stroke="#F7C600" stroke-width="1.18" stroke-linecap="round" stroke-linejoin="round"/>
<path d="M89.708 7.39461C91.559 7.39461 93.0595 5.88976 93.0595 4.03343C93.0595 2.1771 91.559 0.672241 89.708 0.672241C87.857 0.672241 86.3564 2.1771 86.3564 4.03343C86.3564 5.88976 87.857 7.39461 89.708 7.39461Z" stroke="#F7C600" stroke-width="1.18" stroke-linecap="round" stroke-linejoin="round"/>
<path d="M111.135 7.39461C112.986 7.39461 114.487 5.88976 114.487 4.03343C114.487 2.1771 112.986 0.672241 111.135 0.672241C109.284 0.672241 107.784 2.1771 107.784 4.03343C107.784 5.88976 109.284 7.39461 111.135 7.39461Z" stroke="#F7C600" stroke-width="1.18" stroke-linecap="round" stroke-linejoin="round"/>
<path d="M132.562 7.39461C134.413 7.39461 135.914 5.88976 135.914 4.03343C135.914 2.1771 134.413 0.672241 132.562 0.672241C130.711 0.672241 129.211 2.1771 129.211 4.03343C129.211 5.88976 130.711 7.39461 132.562 7.39461Z" stroke="#F7C600" stroke-width="1.18" stroke-linecap="round" stroke-linejoin="round"/>
<path d="M157.33 4.03343C157.33 5.89062 155.83 7.39461 153.978 7.39461C152.126 7.39461 150.627 5.89062 150.627 4.03343C150.627 2.17623 152.126 0.672241 153.978 0.672241C155.83 0.672241 157.33 2.17623 157.33 4.03343Z" stroke="#F7C600" stroke-width="1.18" stroke-linecap="round" stroke-linejoin="round"/>
</g>
<defs>
<clipPath id="clip0_293_275">
<rect width="158" height="150" fill="white"/>
</clipPath>
</defs>
</svg>
