<svg width="146" height="60" viewBox="0 0 146 60" fill="none" xmlns="http://www.w3.org/2000/svg">
<g clip-path="url(#clip0_185_115)">
<path d="M77.1391 0H0V46.5568H77.1391V0Z" fill="#439FD9"/>
<path d="M52.3245 19.9859V26.5709H59.142C57.7843 30.5317 54.0498 33.3852 49.6655 33.3852C44.138 33.3852 39.6424 28.8505 39.6424 23.2784C39.6424 17.7064 44.1396 13.1717 49.6655 13.1717H52.3261V6.58502H49.6655C40.5373 6.58502 33.1103 14.074 33.1103 23.2784C33.1103 28.8521 28.6131 33.3852 23.0871 33.3852C17.5612 33.3852 13.064 28.8505 13.064 23.2784H6.53027C6.53027 32.4828 13.9573 39.9718 23.0855 39.9718C28.5228 39.9718 33.3554 37.3151 36.3755 33.2226C39.3957 37.3151 44.2283 39.9718 49.6655 39.9718C55.8381 39.9718 61.2302 36.5476 64.0778 31.4861V39.9718H70.6083V19.9859H52.3261H52.3245Z" fill="#F7C600"/>
<path d="M0 59.5574L0.374094 58.6063C0.925559 58.8225 1.36415 58.9266 2.04623 58.9266C2.82183 58.9266 3.37329 58.681 3.37329 58.0973C3.37329 56.7966 0.196722 57.1267 0.196722 54.8943C0.196722 53.6878 1.28998 53.1415 2.41226 53.1415C3.34749 53.1415 3.83285 53.3399 4.30046 53.5464L3.93604 54.4601C3.48778 54.3187 3.09433 54.187 2.45096 54.187C1.76888 54.187 1.44155 54.4504 1.44155 54.8748C1.44155 55.9966 4.65682 55.9202 4.65682 58.0404C4.65682 59.4355 3.40393 59.9997 2.0688 59.9997C1.03198 59.9997 0.451492 59.8013 0.00322494 59.5574H0Z" fill="#000C24"/>
<path d="M8.72852 53.2345H9.99914V56.0522H13.1209V53.2345H14.3915V59.8959H13.1209V57.0506H9.99914V59.8959H8.72852V53.2345Z" fill="#000C24"/>
<path d="M18.8945 53.2345H20.1652V59.8959H18.8945V53.2345Z" fill="#000C24"/>
<path d="M24.6709 53.2345H29.0068V54.2523H25.9415V56.2408H28.8004V57.2018H25.9415V59.8976H24.6709V53.2361V53.2345Z" fill="#000C24"/>
<path d="M34.3429 54.2621H32.2031V53.2345H37.7629V54.2621H35.6232V59.8976H34.3429V54.2621Z" fill="#000C24"/>
<path d="M41.4727 53.2345H42.7433V59.8959H41.4727V53.2345Z" fill="#000C24"/>
<path d="M47.2471 53.2345H48.8079L51.6959 58.3513L51.6588 57.5692V53.2345H52.9391V59.8959H51.3041L48.4822 54.8832L48.5193 55.6929V59.8959H47.2487V53.2345H47.2471Z" fill="#000C24"/>
<path d="M57.0417 56.6083C57.0417 54.319 58.3123 53.1402 60.6213 53.1402C61.6485 53.1402 62.1532 53.3386 62.574 53.5174L62.229 54.4783C61.7146 54.3369 61.3873 54.2149 60.6117 54.2149C59.3588 54.2149 58.351 54.8653 58.351 56.514C58.351 58.1627 59.4346 58.9171 60.752 58.9171C61.0325 58.9171 61.247 58.8797 61.4244 58.8602V56.6083H62.695V59.6423C62.0129 59.8878 61.4244 60 60.5826 60C58.3961 60 57.04 58.7838 57.04 56.6083H57.0417Z" fill="#000C24"/>
<path d="M72.002 53.2345H73.2726V56.0522H76.3943V53.2345H77.665V59.8959H76.3943V57.0506H73.2726V59.8959H72.002V53.2345Z" fill="#000C24"/>
<path d="M84.01 53.2345H85.6644L87.9541 59.8959H86.627L85.8982 57.7383H83.5246L82.7119 59.8959H81.4316L84.0116 53.2345H84.01ZM85.5886 56.7872L84.7856 54.054L83.8794 56.7872H85.5902H85.5886Z" fill="#000C24"/>
<path d="M91.7109 53.2345H94.1216C95.5422 53.2345 96.5145 54.054 96.5145 55.4962C96.5145 56.7595 95.5422 57.8147 93.6362 57.8147H93.188V56.8067H93.6927C94.7021 56.8067 95.1971 56.3173 95.1971 55.5352C95.1971 54.7531 94.8424 54.254 93.9168 54.254H92.9912V59.8976H91.7109V53.2361V53.2345Z" fill="#000C24"/>
<path d="M100.346 53.2345H102.756C104.177 53.2345 105.149 54.054 105.149 55.4962C105.149 56.7595 104.177 57.8147 102.271 57.8147H101.823V56.8067H102.327C103.337 56.8067 103.832 56.3173 103.832 55.5352C103.832 54.7531 103.477 54.254 102.552 54.254H101.626V59.8976H100.346V53.2361V53.2345Z" fill="#000C24"/>
<path d="M108.98 53.2345H110.251V59.8959H108.98V53.2345Z" fill="#000C24"/>
<path d="M114.755 53.2345H116.316L119.204 58.3513L119.167 57.5692V53.2345H120.447V59.8959H118.812L115.99 54.8832L116.027 55.6929V59.8959H114.756V53.2345H114.755Z" fill="#000C24"/>
<path d="M124.95 53.2345H129.043V54.2523H126.221V56.0717H128.838V57.0327H126.221V58.8797H129.259V59.8976H124.95V53.2361V53.2345Z" fill="#000C24"/>
<path d="M132.866 59.5577L133.24 58.6066C133.792 58.8228 134.23 58.9269 134.912 58.9269C135.688 58.9269 136.239 58.6814 136.239 58.0976C136.239 56.7969 133.063 57.127 133.063 54.8946C133.063 53.6881 134.156 53.1418 135.278 53.1418C136.212 53.1418 136.699 53.3402 137.167 53.5467L136.802 54.4604C136.354 54.319 135.961 54.1873 135.317 54.1873C134.635 54.1873 134.308 54.4507 134.308 54.8751C134.308 55.9969 137.523 55.9205 137.523 58.0407C137.523 59.4358 136.27 60 134.935 60C133.898 60 133.318 59.8016 132.869 59.5577H132.866Z" fill="#000C24"/>
<path d="M141.023 59.5577L141.398 58.6066C141.949 58.8228 142.388 58.9269 143.07 58.9269C143.845 58.9269 144.397 58.6814 144.397 58.0976C144.397 56.7969 141.22 57.127 141.22 54.8946C141.22 53.6881 142.313 53.1418 143.436 53.1418C144.371 53.1418 144.856 53.3402 145.324 53.5467L144.959 54.4604C144.511 54.319 144.118 54.1873 143.474 54.1873C142.792 54.1873 142.465 54.4507 142.465 54.8751C142.465 55.9969 145.68 55.9205 145.68 58.0407C145.68 59.4358 144.427 60 143.092 60C142.055 60 141.475 59.8016 141.027 59.5577H141.023Z" fill="#000C24"/>
<path d="M90.9148 20.168L93.0287 14.4968L94.9411 20.168H98.9029L102.866 6.58502H99.3593L96.8793 15.8805L93.9059 6.58502H90.2762L91.5194 10.2027L89.2733 16.0024L87.2286 6.58502H83.6699L86.89 20.168H90.9148Z" fill="#000C24"/>
<path d="M107.705 14.8773H112.318V20.168H115.869V6.58502H112.318V11.8238H107.705V6.58502H104.154V20.168H107.705V14.8773Z" fill="#000C24"/>
<path d="M122.263 6.58502H118.712V20.1664H122.263V6.58502Z" fill="#000C24"/>
<path d="M127.607 20.168H131.174V9.69217H135.153V6.58502H123.629V9.69217H127.607V20.168Z" fill="#000C24"/>
<path d="M140.069 17.0788V14.8431H144.932V11.8579H140.069V9.67591H145.315V6.58502H136.519V20.168H145.714V17.0788H140.069Z" fill="#000C24"/>
<path d="M92.5837 36.5525C92.387 36.5736 92.1693 36.5915 91.9274 36.5915C90.7632 36.5915 88.0575 36.2143 88.0575 32.7234C88.0575 29.6862 90.0199 29.0488 91.6678 29.0488C92.8546 29.0488 93.4109 29.2065 94.1817 29.4244C94.2897 29.4553 94.401 29.4862 94.5171 29.5187L95.0443 29.6634L96.0666 26.8229L95.5474 26.6018C94.6219 26.2083 93.6302 25.8539 91.6856 25.8539C87.0126 25.8539 84.4375 28.3562 84.4375 32.899C84.4375 37.4419 87.1206 39.8043 91.6162 39.8043C93.1819 39.8043 94.3381 39.6076 95.7409 39.1036L96.136 38.9621V32.3007H92.5853V36.5541L92.5837 36.5525Z" fill="#000C24"/>
<path d="M102.163 26.0279H98.6123V39.6092H107.495V36.4858H102.163V26.0279Z" fill="#000C24"/>
<path d="M114.563 25.836C110.192 25.836 107.368 28.5676 107.368 32.7934C107.368 37.0191 109.935 39.8206 114.234 39.8206C118.533 39.8206 121.395 37.1411 121.395 32.8275C121.395 28.5139 118.841 25.8344 114.565 25.8344L114.563 25.836ZM117.791 32.8112C117.791 34.5916 117.183 36.7135 114.286 36.7135C111.388 36.7135 110.954 33.9591 110.954 32.7755C110.954 31.3447 111.403 28.9432 114.408 28.9432C117.414 28.9432 117.793 31.6487 117.793 32.8112H117.791Z" fill="#000C24"/>
<path d="M128.121 35.3786L125.143 26.0279H121.354L126.059 39.6092H129.996L135.255 26.0279H131.575L128.121 35.3786Z" fill="#000C24"/>
<path d="M139.844 34.2843H144.707V31.3007H139.844V29.1171H145.089V26.0279H136.293V39.6092H145.489V36.52H139.844V34.2843Z" fill="#000C24"/>
</g>
<defs>
<clipPath id="clip0_185_115">
<rect width="145.714" height="60" fill="white"/>
</clipPath>
</defs>
</svg>
