<svg width="140" height="132" viewBox="0 0 140 132" fill="none" xmlns="http://www.w3.org/2000/svg">
<g clip-path="url(#clip0_538_1111)">
<path d="M6.48008 128.12C6.48008 129.75 5.16008 131.07 3.53008 131.07C1.90008 131.07 0.580078 129.75 0.580078 128.12C0.580078 126.49 1.90008 125.17 3.53008 125.17C5.16008 125.17 6.48008 126.49 6.48008 128.12Z" stroke="#C9E3F4" stroke-width="1.18" stroke-linecap="round" stroke-linejoin="round"/>
<path d="M22.3902 131.07C24.0194 131.07 25.3402 129.749 25.3402 128.12C25.3402 126.491 24.0194 125.17 22.3902 125.17C20.7609 125.17 19.4402 126.491 19.4402 128.12C19.4402 129.749 20.7609 131.07 22.3902 131.07Z" stroke="#C9E3F4" stroke-width="1.18" stroke-linecap="round" stroke-linejoin="round"/>
<path d="M41.25 131.07C42.8793 131.07 44.2001 129.749 44.2001 128.12C44.2001 126.491 42.8793 125.17 41.25 125.17C39.6208 125.17 38.3 126.491 38.3 128.12C38.3 129.749 39.6208 131.07 41.25 131.07Z" stroke="#C9E3F4" stroke-width="1.18" stroke-linecap="round" stroke-linejoin="round"/>
<path d="M60.1102 131.07C61.7394 131.07 63.0602 129.749 63.0602 128.12C63.0602 126.491 61.7394 125.17 60.1102 125.17C58.4809 125.17 57.1602 126.491 57.1602 128.12C57.1602 129.749 58.4809 131.07 60.1102 131.07Z" stroke="#C9E3F4" stroke-width="1.18" stroke-linecap="round" stroke-linejoin="round"/>
<path d="M78.96 131.07C80.5892 131.07 81.91 129.749 81.91 128.12C81.91 126.491 80.5892 125.17 78.96 125.17C77.3308 125.17 76.01 126.491 76.01 128.12C76.01 129.749 77.3308 131.07 78.96 131.07Z" stroke="#C9E3F4" stroke-width="1.18" stroke-linecap="round" stroke-linejoin="round"/>
<path d="M97.8201 131.07C99.4494 131.07 100.77 129.749 100.77 128.12C100.77 126.491 99.4494 125.17 97.8201 125.17C96.1909 125.17 94.8701 126.491 94.8701 128.12C94.8701 129.749 96.1909 131.07 97.8201 131.07Z" stroke="#C9E3F4" stroke-width="1.18" stroke-linecap="round" stroke-linejoin="round"/>
<path d="M116.68 131.07C118.309 131.07 119.63 129.749 119.63 128.12C119.63 126.491 118.309 125.17 116.68 125.17C115.051 125.17 113.73 126.491 113.73 128.12C113.73 129.749 115.051 131.07 116.68 131.07Z" stroke="#C9E3F4" stroke-width="1.18" stroke-linecap="round" stroke-linejoin="round"/>
<path d="M138.48 128.12C138.48 129.75 137.16 131.07 135.53 131.07C133.9 131.07 132.58 129.75 132.58 128.12C132.58 126.49 133.9 125.17 135.53 125.17C137.16 125.17 138.48 126.49 138.48 128.12Z" stroke="#C9E3F4" stroke-width="1.18" stroke-linecap="round" stroke-linejoin="round"/>
<path d="M6.48008 110.32C6.48008 111.95 5.16008 113.27 3.53008 113.27C1.90008 113.27 0.580078 111.95 0.580078 110.32C0.580078 108.69 1.90008 107.37 3.53008 107.37C5.16008 107.37 6.48008 108.69 6.48008 110.32Z" stroke="#C9E3F4" stroke-width="1.18" stroke-linecap="round" stroke-linejoin="round"/>
<path d="M22.3902 113.27C24.0194 113.27 25.3402 111.949 25.3402 110.32C25.3402 108.691 24.0194 107.37 22.3902 107.37C20.7609 107.37 19.4402 108.691 19.4402 110.32C19.4402 111.949 20.7609 113.27 22.3902 113.27Z" stroke="#C9E3F4" stroke-width="1.18" stroke-linecap="round" stroke-linejoin="round"/>
<path d="M41.25 113.27C42.8793 113.27 44.2001 111.949 44.2001 110.32C44.2001 108.691 42.8793 107.37 41.25 107.37C39.6208 107.37 38.3 108.691 38.3 110.32C38.3 111.949 39.6208 113.27 41.25 113.27Z" stroke="#C9E3F4" stroke-width="1.18" stroke-linecap="round" stroke-linejoin="round"/>
<path d="M60.1102 113.27C61.7394 113.27 63.0602 111.949 63.0602 110.32C63.0602 108.691 61.7394 107.37 60.1102 107.37C58.4809 107.37 57.1602 108.691 57.1602 110.32C57.1602 111.949 58.4809 113.27 60.1102 113.27Z" stroke="#C9E3F4" stroke-width="1.18" stroke-linecap="round" stroke-linejoin="round"/>
<path d="M78.96 113.27C80.5892 113.27 81.91 111.949 81.91 110.32C81.91 108.691 80.5892 107.37 78.96 107.37C77.3308 107.37 76.01 108.691 76.01 110.32C76.01 111.949 77.3308 113.27 78.96 113.27Z" stroke="#C9E3F4" stroke-width="1.18" stroke-linecap="round" stroke-linejoin="round"/>
<path d="M97.8201 113.27C99.4494 113.27 100.77 111.949 100.77 110.32C100.77 108.691 99.4494 107.37 97.8201 107.37C96.1909 107.37 94.8701 108.691 94.8701 110.32C94.8701 111.949 96.1909 113.27 97.8201 113.27Z" stroke="#C9E3F4" stroke-width="1.18" stroke-linecap="round" stroke-linejoin="round"/>
<path d="M116.68 113.27C118.309 113.27 119.63 111.949 119.63 110.32C119.63 108.691 118.309 107.37 116.68 107.37C115.051 107.37 113.73 108.691 113.73 110.32C113.73 111.949 115.051 113.27 116.68 113.27Z" stroke="#C9E3F4" stroke-width="1.18" stroke-linecap="round" stroke-linejoin="round"/>
<path d="M138.48 110.32C138.48 111.95 137.16 113.27 135.53 113.27C133.9 113.27 132.58 111.95 132.58 110.32C132.58 108.69 133.9 107.37 135.53 107.37C137.16 107.37 138.48 108.69 138.48 110.32Z" stroke="#C9E3F4" stroke-width="1.18" stroke-linecap="round" stroke-linejoin="round"/>
<path d="M6.48008 92.5198C6.48008 94.1498 5.16008 95.4698 3.53008 95.4698C1.90008 95.4698 0.580078 94.1498 0.580078 92.5198C0.580078 90.8898 1.90008 89.5698 3.53008 89.5698C5.16008 89.5698 6.48008 90.8898 6.48008 92.5198Z" stroke="#C9E3F4" stroke-width="1.18" stroke-linecap="round" stroke-linejoin="round"/>
<path d="M22.3902 95.4698C24.0194 95.4698 25.3402 94.1491 25.3402 92.5198C25.3402 90.8906 24.0194 89.5698 22.3902 89.5698C20.7609 89.5698 19.4402 90.8906 19.4402 92.5198C19.4402 94.1491 20.7609 95.4698 22.3902 95.4698Z" stroke="#C9E3F4" stroke-width="1.18" stroke-linecap="round" stroke-linejoin="round"/>
<path d="M41.25 95.4698C42.8793 95.4698 44.2001 94.1491 44.2001 92.5198C44.2001 90.8906 42.8793 89.5698 41.25 89.5698C39.6208 89.5698 38.3 90.8906 38.3 92.5198C38.3 94.1491 39.6208 95.4698 41.25 95.4698Z" stroke="#C9E3F4" stroke-width="1.18" stroke-linecap="round" stroke-linejoin="round"/>
<path d="M60.1102 95.4698C61.7394 95.4698 63.0602 94.1491 63.0602 92.5198C63.0602 90.8906 61.7394 89.5698 60.1102 89.5698C58.4809 89.5698 57.1602 90.8906 57.1602 92.5198C57.1602 94.1491 58.4809 95.4698 60.1102 95.4698Z" stroke="#C9E3F4" stroke-width="1.18" stroke-linecap="round" stroke-linejoin="round"/>
<path d="M78.96 95.4698C80.5892 95.4698 81.91 94.1491 81.91 92.5198C81.91 90.8906 80.5892 89.5698 78.96 89.5698C77.3308 89.5698 76.01 90.8906 76.01 92.5198C76.01 94.1491 77.3308 95.4698 78.96 95.4698Z" stroke="#C9E3F4" stroke-width="1.18" stroke-linecap="round" stroke-linejoin="round"/>
<path d="M97.8201 95.4698C99.4494 95.4698 100.77 94.1491 100.77 92.5198C100.77 90.8906 99.4494 89.5698 97.8201 89.5698C96.1909 89.5698 94.8701 90.8906 94.8701 92.5198C94.8701 94.1491 96.1909 95.4698 97.8201 95.4698Z" stroke="#C9E3F4" stroke-width="1.18" stroke-linecap="round" stroke-linejoin="round"/>
<path d="M116.68 95.4698C118.309 95.4698 119.63 94.1491 119.63 92.5198C119.63 90.8906 118.309 89.5698 116.68 89.5698C115.051 89.5698 113.73 90.8906 113.73 92.5198C113.73 94.1491 115.051 95.4698 116.68 95.4698Z" stroke="#C9E3F4" stroke-width="1.18" stroke-linecap="round" stroke-linejoin="round"/>
<path d="M138.48 92.5198C138.48 94.1498 137.16 95.4698 135.53 95.4698C133.9 95.4698 132.58 94.1498 132.58 92.5198C132.58 90.8898 133.9 89.5698 135.53 89.5698C137.16 89.5698 138.48 90.8898 138.48 92.5198Z" stroke="#C9E3F4" stroke-width="1.18" stroke-linecap="round" stroke-linejoin="round"/>
<path d="M6.48008 74.7298C6.48008 76.3598 5.16008 77.6798 3.53008 77.6798C1.90008 77.6798 0.580078 76.3598 0.580078 74.7298C0.580078 73.0998 1.90008 71.7798 3.53008 71.7798C5.16008 71.7798 6.48008 73.0998 6.48008 74.7298Z" stroke="#C9E3F4" stroke-width="1.18" stroke-linecap="round" stroke-linejoin="round"/>
<path d="M25.3402 74.7298C25.3402 76.3598 24.0202 77.6798 22.3902 77.6798C20.7602 77.6798 19.4402 76.3598 19.4402 74.7298C19.4402 73.0998 20.7602 71.7798 22.3902 71.7798C24.0202 71.7798 25.3402 73.0998 25.3402 74.7298Z" stroke="#C9E3F4" stroke-width="1.18" stroke-linecap="round" stroke-linejoin="round"/>
<path d="M44.2001 74.7298C44.2001 76.3598 42.88 77.6798 41.25 77.6798C39.62 77.6798 38.3 76.3598 38.3 74.7298C38.3 73.0998 39.62 71.7798 41.25 71.7798C42.88 71.7798 44.2001 73.0998 44.2001 74.7298Z" stroke="#C9E3F4" stroke-width="1.18" stroke-linecap="round" stroke-linejoin="round"/>
<path d="M63.0501 74.7298C63.0501 76.3598 61.7301 77.6798 60.1001 77.6798C58.4701 77.6798 57.1501 76.3598 57.1501 74.7298C57.1501 73.0998 58.4701 71.7798 60.1001 71.7798C61.7301 71.7798 63.0501 73.0998 63.0501 74.7298Z" stroke="#C9E3F4" stroke-width="1.18" stroke-linecap="round" stroke-linejoin="round"/>
<path d="M81.91 74.7298C81.91 76.3598 80.59 77.6798 78.96 77.6798C77.33 77.6798 76.01 76.3598 76.01 74.7298C76.01 73.0998 77.33 71.7798 78.96 71.7798C80.59 71.7798 81.91 73.0998 81.91 74.7298Z" stroke="#C9E3F4" stroke-width="1.18" stroke-linecap="round" stroke-linejoin="round"/>
<path d="M100.77 74.7298C100.77 76.3598 99.4501 77.6798 97.8201 77.6798C96.1901 77.6798 94.8701 76.3598 94.8701 74.7298C94.8701 73.0998 96.1901 71.7798 97.8201 71.7798C99.4501 71.7798 100.77 73.0998 100.77 74.7298Z" stroke="#C9E3F4" stroke-width="1.18" stroke-linecap="round" stroke-linejoin="round"/>
<path d="M119.62 74.7298C119.62 76.3598 118.3 77.6798 116.67 77.6798C115.04 77.6798 113.72 76.3598 113.72 74.7298C113.72 73.0998 115.04 71.7798 116.67 71.7798C118.3 71.7798 119.62 73.0998 119.62 74.7298Z" stroke="#C9E3F4" stroke-width="1.18" stroke-linecap="round" stroke-linejoin="round"/>
<path d="M138.48 74.7298C138.48 76.3598 137.16 77.6798 135.53 77.6798C133.9 77.6798 132.58 76.3598 132.58 74.7298C132.58 73.0998 133.9 71.7798 135.53 71.7798C137.16 71.7798 138.48 73.0998 138.48 74.7298Z" stroke="#C9E3F4" stroke-width="1.18" stroke-linecap="round" stroke-linejoin="round"/>
<path d="M6.48008 56.93C6.48008 58.56 5.16008 59.88 3.53008 59.88C1.90008 59.88 0.580078 58.56 0.580078 56.93C0.580078 55.3 1.90008 53.98 3.53008 53.98C5.16008 53.98 6.48008 55.3 6.48008 56.93Z" stroke="#C9E3F4" stroke-width="1.18" stroke-linecap="round" stroke-linejoin="round"/>
<path d="M25.3402 56.93C25.3402 58.56 24.0202 59.88 22.3902 59.88C20.7602 59.88 19.4402 58.56 19.4402 56.93C19.4402 55.3 20.7602 53.98 22.3902 53.98C24.0202 53.98 25.3402 55.3 25.3402 56.93Z" stroke="#C9E3F4" stroke-width="1.18" stroke-linecap="round" stroke-linejoin="round"/>
<path d="M44.2001 56.93C44.2001 58.56 42.88 59.88 41.25 59.88C39.62 59.88 38.3 58.56 38.3 56.93C38.3 55.3 39.62 53.98 41.25 53.98C42.88 53.98 44.2001 55.3 44.2001 56.93Z" stroke="#C9E3F4" stroke-width="1.18" stroke-linecap="round" stroke-linejoin="round"/>
<path d="M63.0501 56.93C63.0501 58.56 61.7301 59.88 60.1001 59.88C58.4701 59.88 57.1501 58.56 57.1501 56.93C57.1501 55.3 58.4701 53.98 60.1001 53.98C61.7301 53.98 63.0501 55.3 63.0501 56.93Z" stroke="#C9E3F4" stroke-width="1.18" stroke-linecap="round" stroke-linejoin="round"/>
<path d="M81.91 56.93C81.91 58.56 80.59 59.88 78.96 59.88C77.33 59.88 76.01 58.56 76.01 56.93C76.01 55.3 77.33 53.98 78.96 53.98C80.59 53.98 81.91 55.3 81.91 56.93Z" stroke="#C9E3F4" stroke-width="1.18" stroke-linecap="round" stroke-linejoin="round"/>
<path d="M100.77 56.93C100.77 58.56 99.4501 59.88 97.8201 59.88C96.1901 59.88 94.8701 58.56 94.8701 56.93C94.8701 55.3 96.1901 53.98 97.8201 53.98C99.4501 53.98 100.77 55.3 100.77 56.93Z" stroke="#C9E3F4" stroke-width="1.18" stroke-linecap="round" stroke-linejoin="round"/>
<path d="M119.62 56.93C119.62 58.56 118.3 59.88 116.67 59.88C115.04 59.88 113.72 58.56 113.72 56.93C113.72 55.3 115.04 53.98 116.67 53.98C118.3 53.98 119.62 55.3 119.62 56.93Z" stroke="#C9E3F4" stroke-width="1.18" stroke-linecap="round" stroke-linejoin="round"/>
<path d="M138.48 56.93C138.48 58.56 137.16 59.88 135.53 59.88C133.9 59.88 132.58 58.56 132.58 56.93C132.58 55.3 133.9 53.98 135.53 53.98C137.16 53.98 138.48 55.3 138.48 56.93Z" stroke="#C9E3F4" stroke-width="1.18" stroke-linecap="round" stroke-linejoin="round"/>
<path d="M6.48008 39.1302C6.48008 40.7602 5.16008 42.0802 3.53008 42.0802C1.90008 42.0802 0.580078 40.7602 0.580078 39.1302C0.580078 37.5002 1.90008 36.1802 3.53008 36.1802C5.16008 36.1802 6.48008 37.5002 6.48008 39.1302Z" stroke="#C9E3F4" stroke-width="1.18" stroke-linecap="round" stroke-linejoin="round"/>
<path d="M25.3402 39.1302C25.3402 40.7602 24.0202 42.0802 22.3902 42.0802C20.7602 42.0802 19.4402 40.7602 19.4402 39.1302C19.4402 37.5002 20.7602 36.1802 22.3902 36.1802C24.0202 36.1802 25.3402 37.5002 25.3402 39.1302Z" stroke="#C9E3F4" stroke-width="1.18" stroke-linecap="round" stroke-linejoin="round"/>
<path d="M44.2001 39.1302C44.2001 40.7602 42.88 42.0802 41.25 42.0802C39.62 42.0802 38.3 40.7602 38.3 39.1302C38.3 37.5002 39.62 36.1802 41.25 36.1802C42.88 36.1802 44.2001 37.5002 44.2001 39.1302Z" stroke="#C9E3F4" stroke-width="1.18" stroke-linecap="round" stroke-linejoin="round"/>
<path d="M63.0501 39.1302C63.0501 40.7602 61.7301 42.0802 60.1001 42.0802C58.4701 42.0802 57.1501 40.7602 57.1501 39.1302C57.1501 37.5002 58.4701 36.1802 60.1001 36.1802C61.7301 36.1802 63.0501 37.5002 63.0501 39.1302Z" stroke="#C9E3F4" stroke-width="1.18" stroke-linecap="round" stroke-linejoin="round"/>
<path d="M81.91 39.1302C81.91 40.7602 80.59 42.0802 78.96 42.0802C77.33 42.0802 76.01 40.7602 76.01 39.1302C76.01 37.5002 77.33 36.1802 78.96 36.1802C80.59 36.1802 81.91 37.5002 81.91 39.1302Z" stroke="#C9E3F4" stroke-width="1.18" stroke-linecap="round" stroke-linejoin="round"/>
<path d="M100.77 39.1302C100.77 40.7602 99.4501 42.0802 97.8201 42.0802C96.1901 42.0802 94.8701 40.7602 94.8701 39.1302C94.8701 37.5002 96.1901 36.1802 97.8201 36.1802C99.4501 36.1802 100.77 37.5002 100.77 39.1302Z" stroke="#C9E3F4" stroke-width="1.18" stroke-linecap="round" stroke-linejoin="round"/>
<path d="M119.62 39.1302C119.62 40.7602 118.3 42.0802 116.67 42.0802C115.04 42.0802 113.72 40.7602 113.72 39.1302C113.72 37.5002 115.04 36.1802 116.67 36.1802C118.3 36.1802 119.62 37.5002 119.62 39.1302Z" stroke="#C9E3F4" stroke-width="1.18" stroke-linecap="round" stroke-linejoin="round"/>
<path d="M138.48 39.1302C138.48 40.7602 137.16 42.0802 135.53 42.0802C133.9 42.0802 132.58 40.7602 132.58 39.1302C132.58 37.5002 133.9 36.1802 135.53 36.1802C137.16 36.1802 138.48 37.5002 138.48 39.1302Z" stroke="#C9E3F4" stroke-width="1.18" stroke-linecap="round" stroke-linejoin="round"/>
<path d="M6.48008 21.3299C6.48008 22.9599 5.16008 24.2799 3.53008 24.2799C1.90008 24.2799 0.580078 22.9599 0.580078 21.3299C0.580078 19.6999 1.90008 18.3799 3.53008 18.3799C5.16008 18.3799 6.48008 19.6999 6.48008 21.3299Z" stroke="#C9E3F4" stroke-width="1.18" stroke-linecap="round" stroke-linejoin="round"/>
<path d="M22.3902 24.2799C24.0194 24.2799 25.3402 22.9591 25.3402 21.3299C25.3402 19.7006 24.0194 18.3799 22.3902 18.3799C20.7609 18.3799 19.4402 19.7006 19.4402 21.3299C19.4402 22.9591 20.7609 24.2799 22.3902 24.2799Z" stroke="#C9E3F4" stroke-width="1.18" stroke-linecap="round" stroke-linejoin="round"/>
<path d="M41.25 24.2799C42.8793 24.2799 44.2001 22.9591 44.2001 21.3299C44.2001 19.7006 42.8793 18.3799 41.25 18.3799C39.6208 18.3799 38.3 19.7006 38.3 21.3299C38.3 22.9591 39.6208 24.2799 41.25 24.2799Z" stroke="#C9E3F4" stroke-width="1.18" stroke-linecap="round" stroke-linejoin="round"/>
<path d="M60.1102 24.2799C61.7394 24.2799 63.0602 22.9591 63.0602 21.3299C63.0602 19.7006 61.7394 18.3799 60.1102 18.3799C58.4809 18.3799 57.1602 19.7006 57.1602 21.3299C57.1602 22.9591 58.4809 24.2799 60.1102 24.2799Z" stroke="#C9E3F4" stroke-width="1.18" stroke-linecap="round" stroke-linejoin="round"/>
<path d="M78.96 24.2799C80.5892 24.2799 81.91 22.9591 81.91 21.3299C81.91 19.7006 80.5892 18.3799 78.96 18.3799C77.3308 18.3799 76.01 19.7006 76.01 21.3299C76.01 22.9591 77.3308 24.2799 78.96 24.2799Z" stroke="#C9E3F4" stroke-width="1.18" stroke-linecap="round" stroke-linejoin="round"/>
<path d="M97.8201 24.2799C99.4494 24.2799 100.77 22.9591 100.77 21.3299C100.77 19.7006 99.4494 18.3799 97.8201 18.3799C96.1909 18.3799 94.8701 19.7006 94.8701 21.3299C94.8701 22.9591 96.1909 24.2799 97.8201 24.2799Z" stroke="#C9E3F4" stroke-width="1.18" stroke-linecap="round" stroke-linejoin="round"/>
<path d="M116.68 24.2799C118.309 24.2799 119.63 22.9591 119.63 21.3299C119.63 19.7006 118.309 18.3799 116.68 18.3799C115.051 18.3799 113.73 19.7006 113.73 21.3299C113.73 22.9591 115.051 24.2799 116.68 24.2799Z" stroke="#C9E3F4" stroke-width="1.18" stroke-linecap="round" stroke-linejoin="round"/>
<path d="M138.48 21.3299C138.48 22.9599 137.16 24.2799 135.53 24.2799C133.9 24.2799 132.58 22.9599 132.58 21.3299C132.58 19.6999 133.9 18.3799 135.53 18.3799C137.16 18.3799 138.48 19.6999 138.48 21.3299Z" stroke="#C9E3F4" stroke-width="1.18" stroke-linecap="round" stroke-linejoin="round"/>
<path d="M6.48009 3.53984C6.48009 5.16984 5.16009 6.48984 3.53009 6.48984C1.90009 6.48984 0.590088 5.15984 0.590088 3.53984C0.590088 1.91984 1.91009 0.589844 3.54009 0.589844C5.17009 0.589844 6.49009 1.90984 6.49009 3.53984H6.48009Z" stroke="#C9E3F4" stroke-width="1.18" stroke-linecap="round" stroke-linejoin="round"/>
<path d="M22.3902 6.48984C24.0194 6.48984 25.3402 5.16908 25.3402 3.53984C25.3402 1.9106 24.0194 0.589844 22.3902 0.589844C20.7609 0.589844 19.4402 1.9106 19.4402 3.53984C19.4402 5.16908 20.7609 6.48984 22.3902 6.48984Z" stroke="#C9E3F4" stroke-width="1.18" stroke-linecap="round" stroke-linejoin="round"/>
<path d="M41.25 6.48984C42.8793 6.48984 44.2001 5.16908 44.2001 3.53984C44.2001 1.9106 42.8793 0.589844 41.25 0.589844C39.6208 0.589844 38.3 1.9106 38.3 3.53984C38.3 5.16908 39.6208 6.48984 41.25 6.48984Z" stroke="#C9E3F4" stroke-width="1.18" stroke-linecap="round" stroke-linejoin="round"/>
<path d="M60.1102 6.48984C61.7394 6.48984 63.0602 5.16908 63.0602 3.53984C63.0602 1.9106 61.7394 0.589844 60.1102 0.589844C58.4809 0.589844 57.1602 1.9106 57.1602 3.53984C57.1602 5.16908 58.4809 6.48984 60.1102 6.48984Z" stroke="#C9E3F4" stroke-width="1.18" stroke-linecap="round" stroke-linejoin="round"/>
<path d="M78.96 6.48984C80.5892 6.48984 81.91 5.16908 81.91 3.53984C81.91 1.9106 80.5892 0.589844 78.96 0.589844C77.3308 0.589844 76.01 1.9106 76.01 3.53984C76.01 5.16908 77.3308 6.48984 78.96 6.48984Z" stroke="#C9E3F4" stroke-width="1.18" stroke-linecap="round" stroke-linejoin="round"/>
<path d="M97.8201 6.48984C99.4494 6.48984 100.77 5.16908 100.77 3.53984C100.77 1.9106 99.4494 0.589844 97.8201 0.589844C96.1909 0.589844 94.8701 1.9106 94.8701 3.53984C94.8701 5.16908 96.1909 6.48984 97.8201 6.48984Z" stroke="#C9E3F4" stroke-width="1.18" stroke-linecap="round" stroke-linejoin="round"/>
<path d="M116.68 6.48984C118.309 6.48984 119.63 5.16908 119.63 3.53984C119.63 1.9106 118.309 0.589844 116.68 0.589844C115.051 0.589844 113.73 1.9106 113.73 3.53984C113.73 5.16908 115.051 6.48984 116.68 6.48984Z" stroke="#C9E3F4" stroke-width="1.18" stroke-linecap="round" stroke-linejoin="round"/>
<path d="M138.48 3.53984C138.48 5.16984 137.16 6.48984 135.53 6.48984C133.9 6.48984 132.58 5.16984 132.58 3.53984C132.58 1.90984 133.9 0.589844 135.53 0.589844C137.16 0.589844 138.48 1.90984 138.48 3.53984Z" stroke="#C9E3F4" stroke-width="1.18" stroke-linecap="round" stroke-linejoin="round"/>
</g>
<defs>
<clipPath id="clip0_538_1111">
<rect width="139.07" height="131.65" fill="white"/>
</clipPath>
</defs>
</svg>
