<svg width="146" height="60" viewBox="0 0 146 60" fill="none" xmlns="http://www.w3.org/2000/svg">
<g clip-path="url(#clip0_566_15)">
<path d="M77.1391 0H0V46.5568H77.1391V0Z" fill="#439FD9"/>
<path d="M52.3245 19.9859V26.5709H59.142C57.7843 30.5316 54.0498 33.3851 49.6655 33.3851C44.138 33.3851 39.6424 28.8504 39.6424 23.2784C39.6424 17.7063 44.1396 13.1716 49.6655 13.1716H52.3261V6.58496H49.6655C40.5373 6.58496 33.1103 14.074 33.1103 23.2784C33.1103 28.852 28.6131 33.3851 23.0871 33.3851C17.5612 33.3851 13.064 28.8504 13.064 23.2784H6.53027C6.53027 32.4827 13.9573 39.9718 23.0855 39.9718C28.5228 39.9718 33.3554 37.315 36.3755 33.2225C39.3957 37.315 44.2283 39.9718 49.6655 39.9718C55.8381 39.9718 61.2302 36.5476 64.0778 31.486V39.9718H70.6083V19.9859H52.3261H52.3245Z" fill="#F7C600"/>
<path d="M0 59.5573L0.374094 58.6061C0.925559 58.8224 1.36415 58.9264 2.04623 58.9264C2.82183 58.9264 3.37329 58.6809 3.37329 58.0972C3.37329 56.7964 0.196722 57.1265 0.196722 54.8941C0.196722 53.6877 1.28998 53.1414 2.41226 53.1414C3.34749 53.1414 3.83285 53.3397 4.30046 53.5462L3.93604 54.46C3.48778 54.3185 3.09433 54.1868 2.45096 54.1868C1.76888 54.1868 1.44155 54.4502 1.44155 54.8746C1.44155 55.9965 4.65682 55.9201 4.65682 58.0403C4.65682 59.4353 3.40393 59.9995 2.0688 59.9995C1.03198 59.9995 0.451492 59.8012 0.00322494 59.5573H0Z" fill="#000C24"/>
<path d="M8.72852 53.2344H9.99914V56.0521H13.1209V53.2344H14.3915V59.8958H13.1209V57.0504H9.99914V59.8958H8.72852V53.2344Z" fill="#000C24"/>
<path d="M18.8945 53.2344H20.1652V59.8958H18.8945V53.2344Z" fill="#000C24"/>
<path d="M24.6709 53.2344H29.0068V54.2522H25.9415V56.2407H28.8004V57.2016H25.9415V59.8974H24.6709V53.236V53.2344Z" fill="#000C24"/>
<path d="M34.3429 54.262H32.2031V53.2344H37.7629V54.262H35.6232V59.8974H34.3429V54.262Z" fill="#000C24"/>
<path d="M41.4727 53.2344H42.7433V59.8958H41.4727V53.2344Z" fill="#000C24"/>
<path d="M47.2471 53.2344H48.8079L51.6959 58.3512L51.6588 57.5691V53.2344H52.9391V59.8958H51.3041L48.4822 54.8831L48.5193 55.6928V59.8958H47.2487V53.2344H47.2471Z" fill="#000C24"/>
<path d="M57.0417 56.6082C57.0417 54.3189 58.3123 53.1401 60.6213 53.1401C61.6485 53.1401 62.1532 53.3385 62.574 53.5174L62.229 54.4783C61.7146 54.3368 61.3873 54.2149 60.6117 54.2149C59.3588 54.2149 58.351 54.8652 58.351 56.5139C58.351 58.1626 59.4346 58.9171 60.752 58.9171C61.0325 58.9171 61.247 58.8797 61.4244 58.8602V56.6082H62.695V59.6422C62.0129 59.8877 61.4244 59.9999 60.5826 59.9999C58.3961 59.9999 57.04 58.7837 57.04 56.6082H57.0417Z" fill="#000C24"/>
<path d="M72.002 53.2344H73.2726V56.0521H76.3943V53.2344H77.665V59.8958H76.3943V57.0504H73.2726V59.8958H72.002V53.2344Z" fill="#000C24"/>
<path d="M84.01 53.2344H85.6644L87.9541 59.8958H86.627L85.8982 57.7382H83.5246L82.7119 59.8958H81.4316L84.0116 53.2344H84.01ZM85.5886 56.787L84.7856 54.0538L83.8794 56.787H85.5902H85.5886Z" fill="#000C24"/>
<path d="M91.7109 53.2344H94.1216C95.5422 53.2344 96.5145 54.0538 96.5145 55.496C96.5145 56.7594 95.5422 57.8146 93.6362 57.8146H93.188V56.8065H93.6927C94.7021 56.8065 95.1971 56.3171 95.1971 55.5351C95.1971 54.753 94.8424 54.2538 93.9168 54.2538H92.9912V59.8974H91.7109V53.236V53.2344Z" fill="#000C24"/>
<path d="M100.346 53.2344H102.756C104.177 53.2344 105.149 54.0538 105.149 55.496C105.149 56.7594 104.177 57.8146 102.271 57.8146H101.823V56.8065H102.327C103.337 56.8065 103.832 56.3171 103.832 55.5351C103.832 54.753 103.477 54.2538 102.552 54.2538H101.626V59.8974H100.346V53.236V53.2344Z" fill="#000C24"/>
<path d="M108.98 53.2344H110.251V59.8958H108.98V53.2344Z" fill="#000C24"/>
<path d="M114.755 53.2344H116.316L119.204 58.3512L119.167 57.5691V53.2344H120.447V59.8958H118.812L115.99 54.8831L116.027 55.6928V59.8958H114.756V53.2344H114.755Z" fill="#000C24"/>
<path d="M124.95 53.2344H129.043V54.2522H126.221V56.0716H128.838V57.0325H126.221V58.8796H129.259V59.8974H124.95V53.236V53.2344Z" fill="#000C24"/>
<path d="M132.866 59.5578L133.24 58.6066C133.792 58.8228 134.23 58.9269 134.912 58.9269C135.688 58.9269 136.239 58.6814 136.239 58.0977C136.239 56.7969 133.063 57.127 133.063 54.8946C133.063 53.6882 134.156 53.1418 135.278 53.1418C136.212 53.1418 136.699 53.3402 137.167 53.5467L136.802 54.4605C136.354 54.319 135.961 54.1873 135.317 54.1873C134.635 54.1873 134.308 54.4507 134.308 54.8751C134.308 55.997 137.523 55.9206 137.523 58.0408C137.523 59.4358 136.27 60 134.935 60C133.898 60 133.318 59.8016 132.869 59.5578H132.866Z" fill="#000C24"/>
<path d="M141.023 59.5578L141.398 58.6066C141.949 58.8228 142.388 58.9269 143.07 58.9269C143.845 58.9269 144.397 58.6814 144.397 58.0977C144.397 56.7969 141.22 57.127 141.22 54.8946C141.22 53.6882 142.313 53.1418 143.436 53.1418C144.371 53.1418 144.856 53.3402 145.324 53.5467L144.959 54.4605C144.511 54.319 144.118 54.1873 143.474 54.1873C142.792 54.1873 142.465 54.4507 142.465 54.8751C142.465 55.997 145.68 55.9206 145.68 58.0408C145.68 59.4358 144.427 60 143.092 60C142.055 60 141.475 59.8016 141.027 59.5578H141.023Z" fill="#000C24"/>
<path d="M90.9148 20.168L93.0287 14.4967L94.9411 20.168H98.9029L102.866 6.58496H99.3593L96.8793 15.8804L93.9059 6.58496H90.2762L91.5194 10.2027L89.2733 16.0023L87.2286 6.58496H83.6699L86.89 20.168H90.9148Z" fill="#000C24"/>
<path d="M107.705 14.8772H112.318V20.168H115.869V6.58496H112.318V11.8237H107.705V6.58496H104.154V20.168H107.705V14.8772Z" fill="#000C24"/>
<path d="M122.263 6.58496H118.712V20.1663H122.263V6.58496Z" fill="#000C24"/>
<path d="M127.607 20.168H131.174V9.69211H135.153V6.58496H123.629V9.69211H127.607V20.168Z" fill="#000C24"/>
<path d="M140.069 17.0787V14.8431H144.932V11.8578H140.069V9.67585H145.315V6.58496H136.519V20.168H145.714V17.0787H140.069Z" fill="#000C24"/>
<path d="M92.5837 36.5524C92.387 36.5735 92.1693 36.5914 91.9274 36.5914C90.7632 36.5914 88.0575 36.2142 88.0575 32.7233C88.0575 29.6861 90.0199 29.0487 91.6678 29.0487C92.8546 29.0487 93.4109 29.2064 94.1817 29.4243C94.2897 29.4552 94.401 29.4861 94.5171 29.5186L95.0443 29.6633L96.0666 26.8228L95.5474 26.6017C94.6219 26.2082 93.6302 25.8538 91.6856 25.8538C87.0126 25.8538 84.4375 28.3561 84.4375 32.8989C84.4375 37.4417 87.1206 39.8042 91.6162 39.8042C93.1819 39.8042 94.3381 39.6075 95.7409 39.1034L96.136 38.962V32.3006H92.5853V36.554L92.5837 36.5524Z" fill="#000C24"/>
<path d="M102.163 26.0278H98.6123V39.6092H107.495V36.4858H102.163V26.0278Z" fill="#000C24"/>
<path d="M114.563 25.8359C110.192 25.8359 107.368 28.5674 107.368 32.7932C107.368 37.019 109.935 39.8205 114.234 39.8205C118.533 39.8205 121.395 37.1409 121.395 32.8273C121.395 28.5138 118.841 25.8342 114.565 25.8342L114.563 25.8359ZM117.791 32.8111C117.791 34.5915 117.183 36.7133 114.286 36.7133C111.388 36.7133 110.954 33.959 110.954 32.7753C110.954 31.3445 111.403 28.943 114.408 28.943C117.414 28.943 117.793 31.6485 117.793 32.8111H117.791Z" fill="#000C24"/>
<path d="M128.121 35.3785L125.143 26.0278H121.354L126.059 39.6092H129.996L135.255 26.0278H131.575L128.121 35.3785Z" fill="#000C24"/>
<path d="M139.844 34.2843H144.707V31.3007H139.844V29.1171H145.089V26.0278H136.293V39.6092H145.489V36.5199H139.844V34.2843Z" fill="#000C24"/>
</g>
<defs>
<clipPath id="clip0_566_15">
<rect width="145.714" height="60" fill="white"/>
</clipPath>
</defs>
</svg>
