<svg width="135" height="120" viewBox="0 0 135 120" fill="none" xmlns="http://www.w3.org/2000/svg">
<g clip-path="url(#clip0_228_2)">
<path d="M124.256 38.2315C125.189 37.8234 126.953 45.1549 126.953 45.1549C126.953 45.1549 133.73 44.6302 134.299 45.7087C134.896 46.8748 128.745 50.7227 128.745 50.7227C128.745 50.7227 131.252 58.1125 130.465 58.5497C129.285 59.2056 124.271 54.4249 124.271 54.4249C124.271 54.4249 118.951 58.9579 118.076 58.5497C117.624 58.3311 120.015 50.9559 120.015 50.9559C120.015 50.9559 114.155 47.2537 114.52 46.2772C114.855 45.3735 121.589 45.4901 121.589 45.4901C121.589 45.4901 123.061 38.7562 124.285 38.2315H124.256Z" fill="#F7C600"/>
<path d="M130.217 59.089C128.774 59.089 126.02 56.7715 124.227 55.0953C120.729 58.0395 118.572 59.3513 117.828 59.0015C117.406 58.7974 116.997 58.608 119.388 51.1599C118.878 50.8246 117.814 50.125 116.793 49.3671C114.199 47.4431 113.791 46.6706 114.009 46.1022C114.17 45.6649 114.622 45.2131 118.105 45.0528C119.33 44.9945 120.539 44.9945 121.151 44.9945C121.662 42.7353 122.813 38.3189 124.037 37.7796C124.227 37.6921 124.446 37.7067 124.635 37.8087C125.626 38.3043 126.763 42.4729 127.302 44.6446C129.984 44.4552 134.109 44.3677 134.707 45.5046C135.363 46.7581 132.214 49.1193 129.314 50.9558C131.806 58.3748 131.019 58.812 130.684 59.0015C130.553 59.0744 130.392 59.1035 130.217 59.1035V59.089ZM124.241 53.9292C124.358 53.9292 124.489 53.973 124.577 54.0604C126.894 56.2613 129.372 58.0687 130.101 58.1124C130.188 57.2524 129.241 53.7835 128.25 50.883C128.177 50.6643 128.25 50.4311 128.454 50.2999C131.296 48.5217 133.716 46.5395 133.818 45.9127C133.38 45.5192 130.276 45.3734 126.967 45.6358C126.734 45.6504 126.501 45.49 126.442 45.2568C125.786 42.5603 124.824 39.4703 124.3 38.7707C123.731 39.3975 122.74 42.3417 122.026 45.5775C121.982 45.8107 121.764 45.971 121.53 45.971C118.834 45.9273 115.7 46.1022 114.986 46.4374C115.365 47.1371 117.916 49.0464 120.233 50.5186C120.423 50.6352 120.51 50.8684 120.437 51.087C119.563 53.8126 118.688 56.8443 118.499 57.9812C119.49 57.5585 121.909 55.7366 123.906 54.0458C123.994 53.973 124.11 53.9292 124.227 53.9292H124.241Z" fill="#000C24"/>
<path d="M90.747 103.646C91.5778 103.646 92.4232 103.617 93.2685 103.53C96.0087 103.267 97.9035 102.466 99.055 101.081C101.096 98.6324 100.177 95.076 98.2679 92.9917C97.0144 91.607 92.7584 90.4118 87.3217 88.9834C85.4269 88.4879 83.7945 88.0506 83.022 87.7445C82.643 87.5988 82.2349 87.7737 82.0746 88.1526C81.9288 88.5316 82.1037 88.9397 82.4827 89.1C83.3281 89.4353 85.0042 89.8725 86.9428 90.3827C90.6012 91.3447 96.1253 92.8022 97.1894 93.9682C98.7052 95.6299 99.4048 98.3992 97.9327 100.148C97.0436 101.227 95.4694 101.854 93.1228 102.072C88.1525 102.553 83.0949 101.387 78.2121 100.265C77.2647 100.046 76.3173 99.8276 75.3698 99.6235C69.6125 98.37 62.9224 97.4226 57.0047 99.9005C56.6403 100.061 56.4654 100.483 56.6112 100.848C56.7715 101.212 57.1942 101.387 57.5586 101.241C63.1119 98.9239 69.5105 99.8422 75.0492 101.052C75.9966 101.256 76.9294 101.475 77.8768 101.693C82.06 102.655 86.3743 103.646 90.7324 103.646H90.747Z" fill="#000C24"/>
<path d="M99.6234 97.51C99.6234 97.51 99.7255 97.51 99.7838 97.4954C100.804 97.2768 101.62 97.131 102.334 97.0144C106.328 96.3148 106.445 96.1691 112.727 88.6627C113.791 87.3946 115.03 85.9079 116.502 84.1734C120.131 79.8882 124.606 79.1449 126.501 79.9903C127.361 80.3692 127.725 81.0251 127.594 81.9434C127.536 82.3369 127.812 82.7013 128.206 82.7596C128.6 82.8179 128.964 82.541 129.022 82.1474C129.241 80.5879 128.541 79.3198 127.098 78.6639C124.3 77.4104 119.169 78.7805 115.394 83.226C113.922 84.9605 112.683 86.4472 111.619 87.7153C107.587 92.5446 104.414 95.1585 102.101 95.5569C101.402 95.6735 100.542 95.8338 99.4923 96.0525C99.0987 96.1399 98.8509 96.5189 98.9384 96.9124C99.0113 97.2476 99.3174 97.4808 99.6526 97.4808L99.6234 97.51Z" fill="#000C24"/>
<path d="M92.9479 92.0296C93.0645 92.0296 93.1957 92.0005 93.3123 91.9276C94.9885 90.9802 97.0145 90.3243 99.1716 89.6538C102.903 88.4732 107.144 87.1323 110.395 83.7653C111.342 82.7742 112.027 81.9143 112.683 81.0834C114.024 79.3927 115.176 77.9206 118.28 75.9966C118.615 75.7925 118.732 75.3407 118.513 75.0055C118.309 74.6702 117.857 74.5536 117.522 74.7723C114.199 76.8274 112.916 78.4599 111.546 80.1943C110.905 80.996 110.264 81.8268 109.36 82.7596C106.357 85.8642 102.48 87.0886 98.7344 88.2692C96.5043 88.9688 94.3909 89.6393 92.5835 90.6741C92.2337 90.8782 92.1171 91.3154 92.3066 91.6653C92.4378 91.8985 92.6855 92.0296 92.9333 92.0296H92.9479Z" fill="#000C24"/>
<path d="M6.50067 74.0143C13.7155 74.8888 19.2542 71.8863 25.58 75.3115C34.1358 79.932 35.5496 79.7133 39.864 78.8825C46.627 77.5707 51.9616 76.2298 58.6955 78.2704C62.1645 79.3198 66.5517 81.8705 69.6854 83.6341C75.9383 87.176 75.5302 86.593 79.6988 87.9485C84.8585 86.6221 90.8636 84.9459 95.6298 82.3515C101.781 78.9991 107.961 75.0492 109.783 74.0435C114.607 71.4199 115.904 73.8686 117.916 75.3844C120.452 73.8103 126.734 73.7811 126.18 78.4015C126.005 79.8008 128.119 79.174 128.293 82.0308C128.6 86.8262 116.968 98.0056 107.494 104.929C98.5157 109.083 83.5904 116.531 70.7786 119.155C64.8609 120.364 40.5636 111.226 25.8132 105.541C17.1699 102.218 13.9925 106.591 5.32006 102.903C2.23006 100.09 -0.59759 73.1252 6.51525 73.9997L6.50067 74.0143Z" fill="white"/>
<path d="M69.5251 120C70.0498 120 70.5162 119.956 70.9098 119.883C82.3807 117.537 95.7464 111.255 104.579 107.101C105.716 106.561 106.795 106.066 107.786 105.599C107.829 105.585 107.873 105.556 107.902 105.527C116.881 98.9821 129.357 87.3509 129.008 81.9871C128.876 79.9903 127.914 79.3344 127.273 78.9117C126.88 78.6493 126.88 78.6348 126.894 78.489C127.157 76.3173 126.107 75.1658 125.189 74.5682C123.221 73.3147 119.971 73.5333 117.974 74.5099C117.799 74.3641 117.624 74.2184 117.449 74.0581C115.788 72.6005 113.907 70.9535 109.418 73.4022C108.762 73.7665 107.553 74.4953 106.037 75.4136C103.165 77.1481 99.2445 79.5384 95.2654 81.6956C90.7907 84.1443 85.15 85.7768 79.6988 87.176C78.8826 86.9136 78.2558 86.7242 77.7019 86.5638C75.6176 85.9517 74.8451 85.7184 70.0207 82.9928L69.4522 82.6722C66.4059 80.9377 62.2228 78.5765 58.885 77.5708C52.5009 75.6322 47.2683 76.6671 41.2195 77.8623C40.7239 77.9643 40.2138 78.0663 39.7036 78.1538C35.5642 78.9554 34.3253 79.2032 25.9007 74.6557C21.8049 72.4402 18.059 72.79 14.1091 73.1544C11.7187 73.373 9.25544 73.6062 6.57355 73.271C5.45124 73.1398 3.87709 73.4896 2.75477 75.9237C-0.306079 82.5993 2.09888 100.964 4.80992 103.442C4.86822 103.501 4.9411 103.544 5.01397 103.573C9.60525 105.527 12.7536 105.293 15.7998 105.075C18.7004 104.856 21.4551 104.667 25.5217 106.226C42.4001 112.727 62.2373 119.985 69.5105 119.985L69.5251 120ZM107.115 104.317C106.139 104.769 105.075 105.264 103.967 105.789C95.1925 109.914 81.9288 116.137 70.6182 118.455C64.5403 119.694 36.5845 108.937 26.061 104.885C21.6883 103.194 18.6421 103.428 15.7124 103.632C12.739 103.85 9.92591 104.054 5.72817 102.305C3.70218 100.09 1.1952 82.8762 4.09572 76.5359C4.9994 74.5536 6.06341 74.6848 6.41322 74.7285C9.25544 75.0783 11.8062 74.8451 14.2694 74.6119C18.1611 74.2475 21.528 73.9415 25.2448 75.9383C33.7714 80.5296 35.331 80.4858 40.0097 79.5822C40.5199 79.4801 41.03 79.3781 41.5256 79.2761C47.6327 78.0663 52.4426 77.1189 58.4769 78.9408C61.6689 79.9028 65.7646 82.2349 68.7526 83.9257L69.321 84.2463C74.2913 87.0594 75.1075 87.3072 77.3084 87.9485C77.8914 88.1234 78.5765 88.3275 79.4656 88.619C79.5968 88.6627 79.7425 88.6627 79.8737 88.619C85.4707 87.176 91.3009 85.4998 95.9796 82.9491C99.9733 80.7628 103.923 78.3724 106.809 76.6233C108.31 75.7051 109.506 74.9909 110.132 74.6411C113.733 72.6734 114.957 73.752 116.502 75.1221C116.808 75.399 117.129 75.6759 117.478 75.9383C117.712 76.1132 118.047 76.1278 118.295 75.982C119.811 75.0492 122.813 74.7577 124.416 75.778C125.262 76.3173 125.597 77.1335 125.466 78.2995C125.335 79.3344 126.02 79.8008 126.486 80.1069C127.011 80.4567 127.506 80.7919 127.594 82.0746C127.871 86.2286 117.245 96.9124 107.144 104.302L107.115 104.317Z" fill="#000C24"/>
<path d="M84.9168 101.3C88.1234 101.3 90.7033 100.527 92.6564 98.1805C94.7844 95.6298 93.3123 93.356 91.5924 91.4757C90.3389 90.0911 86.0828 88.8959 80.6462 87.4529C78.7514 86.9573 77.1189 86.5201 76.3464 86.214C75.9674 86.0682 75.5593 86.2431 75.399 86.6221C75.2532 87.0011 75.4281 87.4092 75.8071 87.5695C76.6525 87.9047 78.3287 88.342 80.2672 88.8522C83.9257 89.8141 89.4498 91.2717 90.5138 92.4377C92.4815 94.5803 92.7293 95.7901 91.5341 97.2331C88.5169 100.862 83.5321 100.017 75.982 98.7489C71.3179 97.9618 65.5022 96.9707 58.8558 96.9707C58.4623 96.9707 58.127 97.2914 58.127 97.6995C58.127 98.1076 58.4477 98.4282 58.8558 98.4282C65.3856 98.4282 70.8952 99.3611 75.7488 100.177C79.2324 100.76 82.2932 101.285 84.9168 101.285V101.3Z" fill="#000C24"/>
<path d="M35.2581 70.5745C30.1858 70.0789 22.6357 69.3939 17.5197 69.3502C15.0711 69.3356 11.5146 69.8312 8.89105 70.2538C6.58813 70.6328 4.63501 72.2944 3.77506 74.6265C1.69076 80.2381 -0.670467 91.7381 1.73449 109.549C2.06972 112.071 3.32322 115.831 5.42209 117.435C8.07483 119.475 29.1947 119.548 33.7714 116.954C32.5179 110.847 30.696 103.282 32.9115 84.7565C33.4216 80.515 36.8323 70.7203 35.2581 70.5745Z" fill="#F7C600"/>
<path d="M18.2631 119.665C24.7492 119.665 31.6142 119.009 34.1358 117.595C34.4127 117.435 34.5585 117.129 34.4856 116.822L34.3253 116.079C33.0718 110.045 31.5122 102.524 33.6257 84.8439C33.8006 83.3134 34.3982 80.9668 34.9666 78.7076C36.2492 73.5916 36.7448 71.2449 36.0889 70.3121C35.8994 70.0498 35.6225 69.8894 35.3164 69.8603C29.6465 69.3064 22.5046 68.6651 17.5197 68.6359C15.0128 68.6068 11.3835 69.1315 8.77445 69.5542C6.22374 69.9769 4.03741 71.828 3.09001 74.3932C1.57415 78.4452 -1.64703 90.0182 1.00571 109.666C1.29722 111.867 2.47784 116.123 4.97024 118.032C6.35491 119.096 12.1268 119.679 18.2485 119.679L18.2631 119.665ZM32.9552 116.56C27.7663 118.79 8.24973 118.688 5.87392 116.866C4.11029 115.511 2.82765 112.115 2.46326 109.462C-0.145753 90.1348 2.98798 78.8388 4.4601 74.8888C5.2326 72.8191 6.98166 71.3178 9.02223 70.968C11.5729 70.5453 15.1002 70.0498 17.5197 70.0643C22.388 70.1081 29.355 70.7202 34.952 71.2595C35.1124 72.2506 34.1941 75.8945 33.5819 78.3432C32.9989 80.6607 32.4013 83.0511 32.2118 84.669C30.0692 102.582 31.658 110.22 32.926 116.371L32.9698 116.56H32.9552Z" fill="#000C24"/>
<path d="M21.5863 75.3844C23.7289 74.9617 25.7986 76.3318 26.2359 78.4453C26.6586 80.5587 25.2885 82.6284 23.1459 83.0511C21.0033 83.4738 18.9336 82.1037 18.4963 79.9903C18.0736 77.8768 19.4437 75.8071 21.5863 75.3844Z" fill="white"/>
<path d="M22.3588 83.8528C22.6649 83.8528 22.971 83.8237 23.2771 83.7654C24.5014 83.5176 25.5654 82.818 26.2505 81.7685C26.9355 80.7337 27.1687 79.5094 26.9355 78.2996C26.4254 75.7926 23.9621 74.1747 21.4405 74.6703C20.2162 74.9181 19.1522 75.6177 18.4671 76.6671C17.7821 77.702 17.5489 78.9263 17.7821 80.1361C18.2339 82.337 20.1871 83.8528 22.3588 83.8528ZM22.3588 76.0404C23.8601 76.0404 25.201 77.0898 25.5071 78.5911C25.682 79.4219 25.5071 80.2673 25.0407 80.9669C24.5597 81.6811 23.8309 82.1621 22.9855 82.337C21.2511 82.6868 19.5457 81.5645 19.1959 79.8446C19.021 79.0138 19.1959 78.1684 19.6623 77.4688C20.1433 76.7546 20.8721 76.259 21.7175 76.0987C21.9361 76.055 22.1402 76.0404 22.3588 76.0404Z" fill="#000C24"/>
<path d="M6.96709 114.243C6.96709 114.243 7.01081 114.243 7.03996 114.243C7.17114 114.199 7.24402 114.068 7.20029 113.937C5.97595 109.826 5.34921 105.57 5.33463 101.256C5.33463 101.125 5.2326 101.008 5.08685 101.008C4.95567 101.008 4.83907 101.11 4.83907 101.256C4.85364 105.614 5.48039 109.928 6.7193 114.082C6.74845 114.184 6.85048 114.257 6.95251 114.257L6.96709 114.243Z" fill="#000C24"/>
<path d="M10.4652 114.767C10.4652 114.767 10.5381 114.767 10.5672 114.738C10.6838 114.68 10.7421 114.534 10.6838 114.418C10.0134 113.033 9.56153 111.561 9.3429 110.016C9.32832 109.885 9.19714 109.797 9.06596 109.812C8.93478 109.826 8.84733 109.957 8.8619 110.089C9.09511 111.677 9.56153 113.208 10.2466 114.622C10.2903 114.709 10.3778 114.753 10.4652 114.753V114.767Z" fill="#000C24"/>
<path d="M90.3826 99.9585C90.4846 99.9585 90.5867 99.944 90.6741 99.9002C99.4777 95.9211 107.509 91.1404 113.893 86.0827C114.243 85.8057 114.665 85.4413 115.132 85.0478C117.959 82.6429 122.696 78.62 126.18 79.8881C126.559 80.0193 126.967 79.8298 127.113 79.4508C127.244 79.0719 127.055 78.6637 126.676 78.518C122.405 76.9584 117.26 81.3165 114.184 83.9255C113.733 84.319 113.324 84.6543 112.975 84.9312C106.693 89.916 98.7635 94.6385 90.0619 98.5739C89.6976 98.7342 89.5372 99.1715 89.6976 99.5358C89.8142 99.7982 90.0765 99.9585 90.3534 99.9585H90.3826Z" fill="#000C24"/>
<path d="M90.3826 92.015C90.3826 92.015 90.4846 92.015 90.5429 92.0004C97.5537 90.4409 104.885 85.1791 110.774 80.9522C113.776 78.795 116.371 76.944 118.382 75.9382C118.747 75.7633 118.892 75.3261 118.703 74.9617C118.528 74.5973 118.091 74.4516 117.726 74.641C115.613 75.6905 112.975 77.5853 109.928 79.7716C104.142 83.9256 96.9416 89.0853 90.2223 90.5866C89.8287 90.6741 89.581 91.0676 89.6684 91.4466C89.7413 91.7818 90.0474 92.015 90.368 92.015H90.3826Z" fill="#000C24"/>
<g opacity="0.13">
<path d="M5.15973 112.916C5.26175 113.004 5.43666 113.164 5.55326 113.266C5.68444 113.353 5.87392 113.456 5.99053 113.514C6.25289 113.63 6.34034 113.689 5.93223 113.485C7.11284 114.097 10.9316 114.782 12.2871 114.899C17.855 115.511 22.4754 115.161 26.8918 114.111C28.874 113.791 29.5882 113.674 30.4773 113.601C31.1187 113.601 31.8183 113.339 32.4159 113.674C34.1066 114.315 33.9172 117.056 32.1827 117.508C28.67 118.309 27.8392 118.178 24.5306 118.572C19.9393 119.067 15.3043 119.125 10.7421 118.338C7.91449 117.93 4.60586 116.677 3.97911 115.758C3.41067 115.307 2.68189 114.826 2.71104 113.98C2.66732 112.683 4.31435 111.954 5.1743 112.916H5.15973Z" fill="#000C24"/>
</g>
<g opacity="0.13">
<path d="M32.1535 106.211C32.7366 105.118 34.1212 105.133 35.0395 105.745H35.0832C35.0832 105.745 35.0832 105.76 35.1124 105.774C37.1675 106.445 39.2372 107.013 41.2778 107.698C44.018 108.66 49.4255 110.744 53.6232 112.013C54.9788 112.596 59.7012 114.272 62.6017 114.913C66.0561 115.729 68.5194 115.933 72.6588 115.977C73.8832 115.904 76.4339 115.379 77.1335 115.365C77.0315 115.365 77.046 115.365 77.1335 115.365C77.1335 115.365 77.2792 115.336 77.3521 115.336C77.2647 115.336 77.2064 115.35 77.1626 115.365C77.2209 115.365 77.2938 115.35 77.3667 115.336C77.7311 115.234 78.1246 115.292 78.4453 115.481C79.4801 116.079 79.2761 117.857 78.1101 118.149C76.3318 118.805 74.4808 119.155 72.5859 119.227C70.8515 119.359 69.117 119.359 67.3971 119.067C67.5428 119.082 67.674 119.111 67.8198 119.125C62.9078 118.732 58.2145 117.114 53.5212 115.627C52.1365 115.365 48.0117 113.849 45.2715 112.931C41.9045 111.852 38.5522 110.759 35.2581 109.476C34.9812 109.36 34.1795 109.127 34.1795 109.083C34.1504 109.083 34.1358 109.083 34.1066 109.083C32.6199 109.068 31.3373 107.8 32.1244 106.211H32.1535Z" fill="#000C24"/>
</g>
<path d="M31.7891 46.4959C32.2847 46.2918 33.2758 49.892 33.2758 49.892C33.2758 49.892 36.9051 49.5713 37.2112 50.1106C37.5465 50.6791 34.267 52.6322 34.267 52.6322C34.267 52.6322 35.6516 56.2615 35.2435 56.4801C34.6168 56.8154 31.8912 54.4979 31.8912 54.4979C31.8912 54.4979 29.0635 56.7716 28.5971 56.5821C28.3493 56.4801 29.5882 52.8217 29.5882 52.8217C29.5882 52.8217 26.4254 51.0435 26.6148 50.5625C26.7898 50.1106 30.4045 50.1252 30.4045 50.1252C30.4045 50.1252 31.1478 46.802 31.8037 46.5251L31.7891 46.4959Z" fill="white"/>
<path d="M28.6408 56.9027C28.5534 56.9027 28.5097 56.8881 28.4659 56.8735C28.1598 56.7424 27.9412 56.6549 29.1801 52.9527C26.0172 51.1454 26.2067 50.6352 26.2942 50.4166C26.3671 50.2271 26.542 49.7753 30.1275 49.7607C30.4045 48.6092 30.9875 46.4666 31.658 46.1897C31.7746 46.1314 31.9203 46.146 32.0369 46.2043C32.5616 46.4666 33.1592 48.2886 33.5236 49.5421C35.8994 49.3526 37.2404 49.4983 37.5027 49.9502C37.6193 50.1542 37.9837 50.781 34.6751 52.7778C36.0452 56.4217 35.6225 56.6549 35.3893 56.7715C34.7188 57.1213 32.9843 55.8387 31.8766 54.9204C29.7048 56.6549 28.9323 56.9173 28.6263 56.9173L28.6408 56.9027ZM31.8912 54.1479C31.964 54.1479 32.0515 54.1771 32.1098 54.2208C33.2758 55.2119 34.5293 56.0427 34.9812 56.1448C34.952 55.62 34.4565 54.0459 33.9463 52.7341C33.888 52.5883 33.9463 52.4134 34.0921 52.326C35.433 51.5243 36.6282 50.6352 36.8614 50.2563C36.4096 50.0814 34.7334 50.0959 33.305 50.2125C33.1447 50.2125 32.9989 50.1251 32.9552 49.9648C32.6199 48.7258 32.1098 47.2974 31.8329 46.8893C31.5414 47.2829 31.0604 48.6675 30.7251 50.1542C30.696 50.3146 30.5502 50.4166 30.4045 50.4166C30.3753 50.4166 30.3607 50.4166 30.3316 50.4166C29.0344 50.4166 27.5622 50.504 27.0375 50.6498C27.4019 51.0433 28.6408 51.8596 29.7631 52.4863C29.9089 52.5592 29.9672 52.7341 29.9235 52.8798C29.5154 54.075 29.1072 55.4597 28.9615 56.1156C29.5445 55.8241 30.7251 54.9787 31.7017 54.1916C31.76 54.1479 31.8329 54.1188 31.9057 54.1188L31.8912 54.1479Z" fill="#000C24"/>
<path d="M40.7385 5.05785C40.7385 2.66747 42.677 0.714355 45.082 0.714355C47.4869 0.714355 49.4255 2.6529 49.4255 5.05785C49.4255 7.46281 47.4869 9.40135 45.082 9.40135C42.677 9.40135 40.7385 7.46281 40.7385 5.05785Z" fill="white"/>
<path d="M45.082 10.13C42.2835 10.13 40.0243 7.85626 40.0243 5.07234C40.0243 2.28842 42.2981 0.0146484 45.082 0.0146484C47.8659 0.0146484 50.1397 2.28842 50.1397 5.07234C50.1397 7.85626 47.8659 10.13 45.082 10.13ZM45.082 1.45762C43.0851 1.45762 41.4673 3.0755 41.4673 5.07234C41.4673 7.06919 43.0851 8.68706 45.082 8.68706C47.0788 8.68706 48.6967 7.06919 48.6967 5.07234C48.6967 3.0755 47.0788 1.45762 45.082 1.45762Z" fill="#000C24"/>
<path d="M94.799 24.3995C94.799 24.1225 94.6678 23.9331 94.4783 23.8165C94.5512 23.4666 94.42 23.0585 94.0119 22.8982C88.7793 20.741 83.5467 18.5693 78.3141 16.4121C78.0517 16.3101 77.8039 16.3975 77.6436 16.5724C77.4687 16.4996 77.2792 16.4996 77.0752 16.6016C67.3387 20.9742 60.8235 29.6904 52.4426 35.9578C52.0928 36.2202 52.0636 36.6283 52.2094 36.9344C52.0782 37.051 51.9908 37.2259 51.9908 37.4445C52.1074 43.6391 52.9965 49.6588 54.6726 55.6056C54.7892 56.0137 55.1391 56.1449 55.4597 56.1012C55.5617 56.1303 55.6638 56.1303 55.7658 56.1012C55.8533 56.2469 55.999 56.3635 56.2176 56.3927C68.8983 58.5498 81.6227 60.3135 94.4054 61.7127C94.799 61.7564 95.1488 61.3338 95.1342 60.9839C95.0176 48.7843 94.901 36.5992 94.7844 24.414L94.799 24.3995ZM93.3851 24.1954C93.3851 24.1954 93.356 24.2683 93.356 24.2974C93.1519 24.2537 92.9333 24.2974 92.7292 24.4578L82.8616 32.4306C81.5061 27.7664 80.2818 23.0585 79.174 18.3361L93.3851 24.21V24.1954ZM64.9192 29.224C70.2101 31.1042 75.6176 32.518 81.1709 33.4654C81.4041 33.5091 81.5936 33.4363 81.7393 33.3342L67.6303 44.7177C67.6303 44.7177 67.6303 44.674 67.6303 44.6448L64.9192 29.2094V29.224ZM77.5853 17.9717C78.6785 22.6796 79.9028 27.3583 81.2292 32.0079C75.4573 30.9876 69.8166 29.4863 64.307 27.4603C68.3445 23.7727 72.5422 20.2892 77.5853 17.9717ZM63.2868 28.3932L66.0124 43.8869C62.0041 41.2925 57.821 38.975 53.4629 36.9927C56.9173 34.3837 60.0802 31.352 63.2722 28.3932H63.2868ZM55.8387 54.2792C54.4686 49.1487 53.6815 43.9306 53.5066 38.6251C57.9084 40.6803 62.1061 43.0269 66.1436 45.7088C66.1727 45.7671 66.1873 45.8254 66.231 45.8837L55.8387 54.2792ZM57.1651 55.0663C60.6194 52.2824 64.0738 49.4985 67.5282 46.7C75.4864 51.2767 83.5321 55.6785 91.6798 59.9199C80.136 58.6227 68.636 57.0048 57.1651 55.0663ZM68.7526 45.7088C73.2855 42.0358 77.8331 38.3774 82.3661 34.7043C84.1589 38.6543 85.9225 42.6043 87.657 46.5834C88.4878 48.4782 89.304 50.373 90.1202 52.2824C90.6158 53.4193 92.7001 57.034 92.9625 58.9434C84.8002 54.7019 76.7254 50.3001 68.7526 45.7088ZM93.6184 56.7862C92.6126 54.3958 91.5924 52.0054 90.5721 49.6296C88.2837 44.3242 85.9225 39.0333 83.5321 33.7569C86.8116 31.1188 90.0765 28.4806 93.3414 25.8279L93.6329 56.8299C93.6329 56.8299 93.6184 56.7862 93.6038 56.7716L93.6184 56.7862Z" fill="#000C24"/>
<path d="M82.9782 46.4522C81.7831 45.6068 80.5733 44.7469 79.3781 43.9015C78.8971 43.5517 78.2558 44.2513 78.7513 44.6011C79.9465 45.4465 81.1563 46.3064 82.3515 47.1518C82.8325 47.5016 83.4738 46.802 82.9782 46.4522Z" fill="#439FD9"/>
<path d="M71.4199 52.0637C70.181 51.6993 68.9566 51.3203 67.7177 50.9559C67.1347 50.781 66.8869 51.6847 67.4699 51.8596C68.7088 52.224 69.9332 52.603 71.1721 52.9674C71.7551 53.1423 72.0029 52.2386 71.4199 52.0637Z" fill="#439FD9"/>
<path opacity="0.13" d="M95.1488 60.9694C95.1488 61.3338 94.8135 61.7419 94.42 61.6982C81.6373 60.3135 68.9129 58.5353 56.2322 56.3781C56.0136 56.3344 55.8678 56.2324 55.7804 56.0866C55.6784 56.1158 55.5618 56.1158 55.4743 56.0866C55.1391 56.1303 54.8038 55.9991 54.6872 55.591C52.9965 49.6297 52.1219 43.61 52.0053 37.43C52.0053 37.2113 52.0928 37.0364 52.224 36.9198C52.0782 36.5992 52.1074 36.1911 52.4572 35.9433C52.8216 35.6663 53.186 35.3894 53.5503 35.0979C53.7544 40.8989 54.6289 46.5542 56.2031 52.1512C56.3197 52.5593 56.6695 52.6905 56.9902 52.6468C57.0922 52.6759 57.1942 52.6759 57.2962 52.6468C57.3837 52.7925 57.5294 52.9091 57.7481 52.9383C70.1664 55.0517 82.6284 56.7862 95.1342 58.1709C95.1488 59.1037 95.1634 60.0366 95.1634 60.9694H95.1488Z" fill="#000C24"/>
<path d="M97.131 20.8867C96.7229 20.6535 96.2565 21.2365 96.6792 21.4843C97.5974 22.0236 97.8598 23.2625 97.1748 24.0933C96.8687 24.4723 97.4663 24.9241 97.7724 24.5452C98.6906 23.4229 98.4137 21.6155 97.1456 20.8722L97.131 20.8867Z" fill="#439FD9"/>
<path d="M99.434 18.5984C98.9967 18.3944 98.7052 19.094 99.1424 19.298C100.848 20.0851 101.766 21.8779 101.445 23.7144C101.358 24.1954 102.101 24.2974 102.189 23.8164C102.568 21.6447 101.431 19.5167 99.434 18.5984Z" fill="#439FD9"/>
</g>
<defs>
<clipPath id="clip0_228_2">
<rect width="134.809" height="120" fill="white"/>
</clipPath>
</defs>
</svg>
