<svg width="200" height="82" viewBox="0 0 200 82" fill="none" xmlns="http://www.w3.org/2000/svg">
<g clip-path="url(#clip0_566_298)">
<path d="M105.877 0H0V63.3111H105.877V0Z" fill="#439FD9"/>
<path d="M71.8187 27.178V36.1328H81.1761C79.3126 41.5189 74.1868 45.3993 68.1691 45.3993C60.5823 45.3993 54.4119 39.2327 54.4119 31.6554C54.4119 24.0781 60.5845 17.9115 68.1691 17.9115H71.8209V8.95459H68.1691C55.6402 8.95459 45.4462 19.1387 45.4462 31.6554C45.4462 39.2349 39.2736 45.3993 31.689 45.3993C24.1043 45.3993 17.9317 39.2327 17.9317 31.6554H8.96387C8.96387 44.1721 19.1579 54.3562 31.6868 54.3562C39.1497 54.3562 45.7826 50.7434 49.9279 45.1782C54.0733 50.7434 60.7062 54.3562 68.1691 54.3562C76.6412 54.3562 84.0422 49.6998 87.9507 42.8168V54.3562H96.9141V27.178H71.8209H71.8187Z" fill="#F7C600"/>
<path d="M0 80.9909L0.513462 79.6974C1.27038 79.9915 1.87236 80.133 2.80855 80.133C3.8731 80.133 4.63001 79.7992 4.63001 79.0054C4.63001 77.2365 0.27001 77.6854 0.27001 74.6496C0.27001 73.009 1.77056 72.2661 3.31094 72.2661C4.5946 72.2661 5.26077 72.5359 5.9026 72.8167L5.40241 74.0593C4.78715 73.8669 4.24713 73.6878 3.36406 73.6878C2.42788 73.6878 1.9786 74.046 1.9786 74.6231C1.9786 76.1487 6.39171 76.0448 6.39171 78.928C6.39171 80.8251 4.67206 81.5923 2.83953 81.5923C1.41645 81.5923 0.619695 81.3226 0.00442639 80.9909H0Z" fill="white"/>
<path d="M11.9805 72.3921H13.7245V76.2238H18.0092V72.3921H19.7532V81.4507H18.0092V77.5814H13.7245V81.4507H11.9805V72.3921Z" fill="white"/>
<path d="M25.9346 72.3921H27.6786V81.4507H25.9346V72.3921Z" fill="white"/>
<path d="M33.8623 72.3921H39.8136V73.7762H35.6063V76.4803H39.5303V77.787H35.6063V81.453H33.8623V72.3943V72.3921Z" fill="white"/>
<path d="M47.1371 73.7895H44.2002V72.3921H51.8313V73.7895H48.8944V81.453H47.1371V73.7895Z" fill="white"/>
<path d="M56.9238 72.3921H58.6678V81.4507H56.9238V72.3921Z" fill="white"/>
<path d="M64.8486 72.3921H66.991L70.9548 79.3503L70.9039 78.2867V72.3921H72.6612V81.4507H70.417L66.5439 74.6341L66.5948 75.7352V81.4507H64.8508V72.3921H64.8486Z" fill="white"/>
<path d="M78.2923 76.9798C78.2923 73.8667 80.0363 72.2637 83.2056 72.2637C84.6154 72.2637 85.3081 72.5334 85.8857 72.7766L85.4121 74.0834C84.7061 73.891 84.2568 73.7252 83.1923 73.7252C81.4726 73.7252 80.0894 74.6096 80.0894 76.8516C80.0894 79.0936 81.5766 80.1195 83.3848 80.1195C83.7699 80.1195 84.0643 80.0687 84.3077 80.0421V76.9798H86.0517V81.1057C85.1155 81.4395 84.3077 81.5921 83.1524 81.5921C80.1513 81.5921 78.29 79.9382 78.29 76.9798H78.2923Z" fill="white"/>
<path d="M98.8262 72.3921H100.57V76.2238H104.855V72.3921H106.599V81.4507H104.855V77.5814H100.57V81.4507H98.8262V72.3921Z" fill="white"/>
<path d="M115.307 72.3921H117.578L120.721 81.4507H118.899L117.899 78.5167H114.641L113.526 81.4507H111.769L115.31 72.3921H115.307ZM117.474 77.2232L116.372 73.5065L115.128 77.2232H117.476H117.474Z" fill="white"/>
<path d="M125.878 72.3921H129.187C131.136 72.3921 132.471 73.5065 132.471 75.4677C132.471 77.1856 131.136 78.6206 128.52 78.6206H127.905V77.2498H128.598C129.983 77.2498 130.663 76.5842 130.663 75.5207C130.663 74.4572 130.176 73.7784 128.906 73.7784H127.635V81.453H125.878V72.3943V72.3921Z" fill="white"/>
<path d="M137.729 72.3921H141.038C142.988 72.3921 144.323 73.5065 144.323 75.4677C144.323 77.1856 142.988 78.6206 140.372 78.6206H139.757V77.2498H140.45C141.835 77.2498 142.514 76.5842 142.514 75.5207C142.514 74.4572 142.028 73.7784 140.757 73.7784H139.487V81.453H137.729V72.3943V72.3921Z" fill="white"/>
<path d="M149.581 72.3921H151.325V81.4507H149.581V72.3921Z" fill="white"/>
<path d="M157.507 72.3921H159.649L163.613 79.3503L163.562 78.2867V72.3921H165.319V81.4507H163.075L159.202 74.6341L159.253 75.7352V81.4507H157.509V72.3921H157.507Z" fill="white"/>
<path d="M171.501 72.3921H177.118V73.7762H173.245V76.2504H176.837V77.5571H173.245V80.0688H177.415V81.453H171.501V72.3943V72.3921Z" fill="white"/>
<path d="M182.365 80.9909L182.879 79.6974C183.636 79.9915 184.238 80.133 185.174 80.133C186.238 80.133 186.995 79.7992 186.995 79.0054C186.995 77.2365 182.635 77.6854 182.635 74.6496C182.635 73.009 184.136 72.2661 185.676 72.2661C186.958 72.2661 187.626 72.5359 188.268 72.8167L187.768 74.0593C187.152 73.8669 186.612 73.6878 185.729 73.6878C184.793 73.6878 184.344 74.046 184.344 74.6231C184.344 76.1487 188.757 76.0448 188.757 78.928C188.757 80.8251 187.037 81.5923 185.205 81.5923C183.782 81.5923 182.985 81.3226 182.37 80.9909H182.365Z" fill="white"/>
<path d="M193.562 80.9909L194.075 79.6974C194.832 79.9915 195.434 80.133 196.37 80.133C197.435 80.133 198.192 79.7992 198.192 79.0054C198.192 77.2365 193.832 77.6854 193.832 74.6496C193.832 73.009 195.332 72.2661 196.872 72.2661C198.156 72.2661 198.822 72.5359 199.464 72.8167L198.964 74.0593C198.349 73.8669 197.809 73.6878 196.926 73.6878C195.989 73.6878 195.54 74.046 195.54 74.6231C195.54 76.1487 199.953 76.0448 199.953 78.928C199.953 80.8251 198.234 81.5923 196.401 81.5923C194.978 81.5923 194.181 81.3226 193.566 80.9909H193.562Z" fill="white"/>
<path d="M124.785 27.4257L127.686 19.7135L130.311 27.4257H135.749L141.189 8.95459H136.375L132.971 21.5951L128.89 8.95459H123.908L125.615 13.8742L122.532 21.761L119.725 8.95459H114.841L119.261 27.4257H124.785Z" fill="white"/>
<path d="M147.83 20.2309H154.162V27.4257H159.036V8.95459H154.162V16.0786H147.83V8.95459H142.957V27.4257H147.83V20.2309Z" fill="white"/>
<path d="M167.812 8.95459H162.938V27.4235H167.812V8.95459Z" fill="white"/>
<path d="M175.146 27.4257H180.042V13.1799H185.504V8.95459H169.687V13.1799H175.146V27.4257Z" fill="white"/>
<path d="M192.251 23.2247V20.1845H198.926V16.125H192.251V13.1578H199.451V8.95459H187.378V27.4257H200V23.2247H192.251Z" fill="white"/>
<path d="M127.076 49.7064C126.806 49.7351 126.507 49.7595 126.175 49.7595C124.577 49.7595 120.863 49.2465 120.863 44.4994C120.863 40.3692 123.557 39.5024 125.819 39.5024C127.447 39.5024 128.211 39.7169 129.269 40.0132C129.417 40.0552 129.57 40.0972 129.729 40.1414L130.453 40.3382L131.856 36.4755L131.143 36.1748C129.873 35.6397 128.512 35.1577 125.843 35.1577C119.429 35.1577 115.895 38.5605 115.895 44.7382C115.895 50.9158 119.577 54.1285 125.748 54.1285C127.897 54.1285 129.484 53.861 131.409 53.1755L131.951 52.9832V43.9245H127.078V49.7086L127.076 49.7064Z" fill="white"/>
<path d="M140.224 35.3945H135.351V53.8634H147.543V49.616H140.224V35.3945Z" fill="white"/>
<path d="M157.243 35.1336C151.243 35.1336 147.368 38.8481 147.368 44.5946C147.368 50.3411 150.892 54.1508 156.792 54.1508C162.692 54.1508 166.621 50.507 166.621 44.6411C166.621 38.7752 163.115 35.1313 157.246 35.1313L157.243 35.1336ZM161.674 44.6189C161.674 47.04 160.84 49.9255 156.863 49.9255C152.886 49.9255 152.29 46.1799 152.29 44.5703C152.29 42.6246 152.906 39.3589 157.031 39.3589C161.156 39.3589 161.676 43.0381 161.676 44.6189H161.674Z" fill="white"/>
<path d="M175.852 48.1103L171.764 35.3945H166.563L173.022 53.8634H178.426L185.643 35.3945H180.593L175.852 48.1103Z" fill="white"/>
<path d="M191.942 46.6222H198.617V42.565H191.942V39.5955H199.141V35.3945H187.068V53.8634H199.69V49.6624H191.942V46.6222Z" fill="white"/>
</g>
<defs>
<clipPath id="clip0_566_298">
<rect width="200" height="81.592" fill="white"/>
</clipPath>
</defs>
</svg>
