<svg width="112" height="118" viewBox="0 0 112 118" fill="none" xmlns="http://www.w3.org/2000/svg">
<g clip-path="url(#clip0_293_18)">
<path d="M109.038 5.46132C107.65 5.46132 106.525 4.33897 106.525 2.95449C106.525 1.57001 107.65 0.447662 109.038 0.447662C110.426 0.447662 111.551 1.57001 111.551 2.95449C111.551 4.33897 110.426 5.46132 109.038 5.46132Z" stroke="#BCBCBC" stroke-width="0.5" stroke-linecap="round" stroke-linejoin="round"/>
<path d="M109.038 21.4692C110.42 21.4692 111.551 20.3412 111.551 18.9624C111.551 17.5836 110.42 16.4556 109.038 16.4556C107.656 16.4556 106.525 17.5836 106.525 18.9624C106.525 20.3412 107.656 21.4692 109.038 21.4692Z" stroke="#BCBCBC" stroke-width="0.5" stroke-linecap="round" stroke-linejoin="round"/>
<path d="M109.038 37.495C107.65 37.495 106.525 36.3727 106.525 34.9882C106.525 33.6037 107.65 32.4814 109.038 32.4814C110.426 32.4814 111.551 33.6037 111.551 34.9882C111.551 36.3727 110.426 37.495 109.038 37.495Z" stroke="#BCBCBC" stroke-width="0.5" stroke-linecap="round" stroke-linejoin="round"/>
<path d="M109.038 53.5029C107.65 53.5029 106.525 52.3805 106.525 50.9961C106.525 49.6116 107.65 48.4892 109.038 48.4892C110.426 48.4892 111.551 49.6116 111.551 50.9961C111.551 52.3805 110.426 53.5029 109.038 53.5029Z" stroke="#BCBCBC" stroke-width="0.5" stroke-linecap="round" stroke-linejoin="round"/>
<path d="M109.038 69.5108C107.65 69.5108 106.525 68.3884 106.525 67.004C106.525 65.6195 107.65 64.4971 109.038 64.4971C110.426 64.4971 111.551 65.6195 111.551 67.004C111.551 68.3884 110.426 69.5108 109.038 69.5108Z" stroke="#BCBCBC" stroke-width="0.5" stroke-linecap="round" stroke-linejoin="round"/>
<path d="M109.038 85.5366C107.65 85.5366 106.525 84.4142 106.525 83.0298C106.525 81.6453 107.65 80.5229 109.038 80.5229C110.426 80.5229 111.551 81.6453 111.551 83.0298C111.551 84.4142 110.426 85.5366 109.038 85.5366Z" stroke="#BCBCBC" stroke-width="0.5" stroke-linecap="round" stroke-linejoin="round"/>
<path d="M109.038 101.544C110.42 101.544 111.551 100.416 111.551 99.0377C111.551 97.6589 110.42 96.5308 109.038 96.5308C107.656 96.5308 106.525 97.6589 106.525 99.0377C106.525 100.416 107.656 101.544 109.038 101.544Z" stroke="#BCBCBC" stroke-width="0.5" stroke-linecap="round" stroke-linejoin="round"/>
<path d="M109.038 117.57C107.65 117.57 106.525 116.448 106.525 115.063C106.525 113.679 107.65 112.557 109.038 112.557C110.426 112.557 111.551 113.679 111.551 115.063C111.551 116.448 110.426 117.57 109.038 117.57Z" stroke="#BCBCBC" stroke-width="0.5" stroke-linecap="round" stroke-linejoin="round"/>
<path d="M93.8868 5.46132C92.4988 5.46132 91.3736 4.33897 91.3736 2.95449C91.3736 1.57001 92.4988 0.447662 93.8868 0.447662C95.2748 0.447662 96.4 1.57001 96.4 2.95449C96.4 4.33897 95.2748 5.46132 93.8868 5.46132Z" stroke="#BCBCBC" stroke-width="0.5" stroke-linecap="round" stroke-linejoin="round"/>
<path d="M93.8868 21.4692C95.2691 21.4692 96.4 20.3412 96.4 18.9624C96.4 17.5836 95.2691 16.4556 93.8868 16.4556C92.5045 16.4556 91.3736 17.5836 91.3736 18.9624C91.3736 20.3412 92.5045 21.4692 93.8868 21.4692Z" stroke="#BCBCBC" stroke-width="0.5" stroke-linecap="round" stroke-linejoin="round"/>
<path d="M93.8868 37.495C92.4988 37.495 91.3736 36.3727 91.3736 34.9882C91.3736 33.6037 92.4988 32.4814 93.8868 32.4814C95.2748 32.4814 96.4 33.6037 96.4 34.9882C96.4 36.3727 95.2748 37.495 93.8868 37.495Z" stroke="#BCBCBC" stroke-width="0.5" stroke-linecap="round" stroke-linejoin="round"/>
<path d="M93.8868 53.5029C92.4988 53.5029 91.3736 52.3805 91.3736 50.9961C91.3736 49.6116 92.4988 48.4892 93.8868 48.4892C95.2748 48.4892 96.4 49.6116 96.4 50.9961C96.4 52.3805 95.2748 53.5029 93.8868 53.5029Z" stroke="#BCBCBC" stroke-width="0.5" stroke-linecap="round" stroke-linejoin="round"/>
<path d="M93.8868 69.5108C92.4988 69.5108 91.3736 68.3884 91.3736 67.004C91.3736 65.6195 92.4988 64.4971 93.8868 64.4971C95.2748 64.4971 96.4 65.6195 96.4 67.004C96.4 68.3884 95.2748 69.5108 93.8868 69.5108Z" stroke="#BCBCBC" stroke-width="0.5" stroke-linecap="round" stroke-linejoin="round"/>
<path d="M93.8868 85.5366C92.4988 85.5366 91.3736 84.4142 91.3736 83.0298C91.3736 81.6453 92.4988 80.5229 93.8868 80.5229C95.2748 80.5229 96.4 81.6453 96.4 83.0298C96.4 84.4142 95.2748 85.5366 93.8868 85.5366Z" stroke="#BCBCBC" stroke-width="0.5" stroke-linecap="round" stroke-linejoin="round"/>
<path d="M93.8868 101.544C95.2691 101.544 96.4 100.416 96.4 99.0377C96.4 97.6589 95.2691 96.5308 93.8868 96.5308C92.5045 96.5308 91.3736 97.6589 91.3736 99.0377C91.3736 100.416 92.5045 101.544 93.8868 101.544Z" stroke="#BCBCBC" stroke-width="0.5" stroke-linecap="round" stroke-linejoin="round"/>
<path d="M78.7357 5.46132C77.3477 5.46132 76.2225 4.33897 76.2225 2.95449C76.2225 1.57001 77.3477 0.447662 78.7357 0.447662C80.1237 0.447662 81.2489 1.57001 81.2489 2.95449C81.2489 4.33897 80.1237 5.46132 78.7357 5.46132Z" stroke="#BCBCBC" stroke-width="0.5" stroke-linecap="round" stroke-linejoin="round"/>
<path d="M78.7357 21.4692C80.1179 21.4692 81.2489 20.3412 81.2489 18.9624C81.2489 17.5836 80.1179 16.4556 78.7357 16.4556C77.3534 16.4556 76.2225 17.5836 76.2225 18.9624C76.2225 20.3412 77.3534 21.4692 78.7357 21.4692Z" stroke="#BCBCBC" stroke-width="0.5" stroke-linecap="round" stroke-linejoin="round"/>
<path d="M78.7357 37.495C77.3477 37.495 76.2225 36.3727 76.2225 34.9882C76.2225 33.6037 77.3477 32.4814 78.7357 32.4814C80.1237 32.4814 81.2489 33.6037 81.2489 34.9882C81.2489 36.3727 80.1237 37.495 78.7357 37.495Z" stroke="#BCBCBC" stroke-width="0.5" stroke-linecap="round" stroke-linejoin="round"/>
<path d="M78.7357 53.5029C77.3477 53.5029 76.2225 52.3805 76.2225 50.9961C76.2225 49.6116 77.3477 48.4892 78.7357 48.4892C80.1237 48.4892 81.2489 49.6116 81.2489 50.9961C81.2489 52.3805 80.1237 53.5029 78.7357 53.5029Z" stroke="#BCBCBC" stroke-width="0.5" stroke-linecap="round" stroke-linejoin="round"/>
<path d="M78.7357 69.5108C77.3477 69.5108 76.2225 68.3884 76.2225 67.004C76.2225 65.6195 77.3477 64.4971 78.7357 64.4971C80.1237 64.4971 81.2489 65.6195 81.2489 67.004C81.2489 68.3884 80.1237 69.5108 78.7357 69.5108Z" stroke="#BCBCBC" stroke-width="0.5" stroke-linecap="round" stroke-linejoin="round"/>
<path d="M78.7357 85.5366C77.3477 85.5366 76.2225 84.4142 76.2225 83.0298C76.2225 81.6453 77.3477 80.5229 78.7357 80.5229C80.1237 80.5229 81.2489 81.6453 81.2489 83.0298C81.2489 84.4142 80.1237 85.5366 78.7357 85.5366Z" stroke="#BCBCBC" stroke-width="0.5" stroke-linecap="round" stroke-linejoin="round"/>
<path d="M63.5846 5.46132C62.1965 5.46132 61.0713 4.33897 61.0713 2.95449C61.0713 1.57001 62.1965 0.447662 63.5846 0.447662C64.9726 0.447662 66.0978 1.57001 66.0978 2.95449C66.0978 4.33897 64.9726 5.46132 63.5846 5.46132Z" stroke="#BCBCBC" stroke-width="0.5" stroke-linecap="round" stroke-linejoin="round"/>
<path d="M63.5846 21.4692C64.9668 21.4692 66.0978 20.3412 66.0978 18.9624C66.0978 17.5836 64.9668 16.4556 63.5846 16.4556C62.2023 16.4556 61.0713 17.5836 61.0713 18.9624C61.0713 20.3412 62.2023 21.4692 63.5846 21.4692Z" stroke="#BCBCBC" stroke-width="0.5" stroke-linecap="round" stroke-linejoin="round"/>
<path d="M63.5846 37.495C62.1965 37.495 61.0713 36.3727 61.0713 34.9882C61.0713 33.6037 62.1965 32.4814 63.5846 32.4814C64.9726 32.4814 66.0978 33.6037 66.0978 34.9882C66.0978 36.3727 64.9726 37.495 63.5846 37.495Z" stroke="#BCBCBC" stroke-width="0.5" stroke-linecap="round" stroke-linejoin="round"/>
<path d="M63.5846 53.5029C62.1965 53.5029 61.0713 52.3805 61.0713 50.9961C61.0713 49.6116 62.1965 48.4892 63.5846 48.4892C64.9726 48.4892 66.0978 49.6116 66.0978 50.9961C66.0978 52.3805 64.9726 53.5029 63.5846 53.5029Z" stroke="#BCBCBC" stroke-width="0.5" stroke-linecap="round" stroke-linejoin="round"/>
<path d="M63.5846 69.5108C62.1965 69.5108 61.0713 68.3884 61.0713 67.004C61.0713 65.6195 62.1965 64.4971 63.5846 64.4971C64.9726 64.4971 66.0978 65.6195 66.0978 67.004C66.0978 68.3884 64.9726 69.5108 63.5846 69.5108Z" stroke="#BCBCBC" stroke-width="0.5" stroke-linecap="round" stroke-linejoin="round"/>
<path d="M48.4334 5.46132C47.0454 5.46132 45.9202 4.33897 45.9202 2.95449C45.9202 1.57001 47.0454 0.447662 48.4334 0.447662C49.8214 0.447662 50.9467 1.57001 50.9467 2.95449C50.9467 4.33897 49.8214 5.46132 48.4334 5.46132Z" stroke="#BCBCBC" stroke-width="0.5" stroke-linecap="round" stroke-linejoin="round"/>
<path d="M48.4334 21.4692C49.8157 21.4692 50.9467 20.3412 50.9467 18.9624C50.9467 17.5836 49.8157 16.4556 48.4334 16.4556C47.0512 16.4556 45.9202 17.5836 45.9202 18.9624C45.9202 20.3412 47.0512 21.4692 48.4334 21.4692Z" stroke="#BCBCBC" stroke-width="0.5" stroke-linecap="round" stroke-linejoin="round"/>
<path d="M48.4334 37.495C47.0454 37.495 45.9202 36.3727 45.9202 34.9882C45.9202 33.6037 47.0454 32.4814 48.4334 32.4814C49.8214 32.4814 50.9467 33.6037 50.9467 34.9882C50.9467 36.3727 49.8214 37.495 48.4334 37.495Z" stroke="#BCBCBC" stroke-width="0.5" stroke-linecap="round" stroke-linejoin="round"/>
<path d="M48.4334 53.5029C47.0454 53.5029 45.9202 52.3805 45.9202 50.9961C45.9202 49.6116 47.0454 48.4892 48.4334 48.4892C49.8214 48.4892 50.9467 49.6116 50.9467 50.9961C50.9467 52.3805 49.8214 53.5029 48.4334 53.5029Z" stroke="#BCBCBC" stroke-width="0.5" stroke-linecap="round" stroke-linejoin="round"/>
<path d="M33.2644 5.46132C34.6466 5.46132 35.7776 4.33325 35.7776 2.95449C35.7776 1.57574 34.6466 0.447662 33.2644 0.447662C31.8821 0.447662 30.7511 1.57574 30.7511 2.95449C30.7511 4.33325 31.8821 5.46132 33.2644 5.46132Z" stroke="#BCBCBC" stroke-width="0.5" stroke-linecap="round" stroke-linejoin="round"/>
<path d="M33.2644 21.4692C34.6466 21.4692 35.7776 20.3412 35.7776 18.9624C35.7776 17.5836 34.6466 16.4556 33.2644 16.4556C31.8821 16.4556 30.7511 17.5836 30.7511 18.9624C30.7511 20.3412 31.8821 21.4692 33.2644 21.4692Z" stroke="#BCBCBC" stroke-width="0.5" stroke-linecap="round" stroke-linejoin="round"/>
<path d="M33.2644 37.4771C34.6466 37.4771 35.7776 36.349 35.7776 34.9703C35.7776 33.5915 34.6466 32.4634 33.2644 32.4634C31.8821 32.4634 30.7511 33.5915 30.7511 34.9703C30.7511 36.349 31.8821 37.4771 33.2644 37.4771Z" stroke="#BCBCBC" stroke-width="0.5" stroke-linecap="round" stroke-linejoin="round"/>
<path d="M18.1131 5.46132C19.4954 5.46132 20.6263 4.33325 20.6263 2.95449C20.6263 1.57574 19.4954 0.447662 18.1131 0.447662C16.7309 0.447662 15.5999 1.57574 15.5999 2.95449C15.5999 4.33325 16.7309 5.46132 18.1131 5.46132Z" stroke="#BCBCBC" stroke-width="0.5" stroke-linecap="round" stroke-linejoin="round"/>
<path d="M18.1131 21.4692C19.4954 21.4692 20.6263 20.3412 20.6263 18.9624C20.6263 17.5836 19.4954 16.4556 18.1131 16.4556C16.7309 16.4556 15.5999 17.5836 15.5999 18.9624C15.5999 20.3412 16.7309 21.4692 18.1131 21.4692Z" stroke="#BCBCBC" stroke-width="0.5" stroke-linecap="round" stroke-linejoin="round"/>
<path d="M2.96199 5.46132C4.34427 5.46132 5.47522 4.33325 5.47522 2.95449C5.47522 1.57574 4.34427 0.447662 2.96199 0.447662C1.57972 0.447662 0.448775 1.57574 0.448775 2.95449C0.448775 4.33325 1.57972 5.46132 2.96199 5.46132Z" stroke="#BCBCBC" stroke-width="0.5" stroke-linecap="round" stroke-linejoin="round"/>
</g>
<defs>
<clipPath id="clip0_293_18">
<rect width="112" height="118" fill="white" transform="matrix(-1 0 0 1 112 0)"/>
</clipPath>
</defs>
</svg>
