<svg width="140" height="132" viewBox="0 0 140 132" fill="none" xmlns="http://www.w3.org/2000/svg">
<g clip-path="url(#clip0_293_469)">
<path d="M6.47996 128.12C6.47996 129.75 5.15996 131.07 3.52996 131.07C1.89996 131.07 0.579956 129.75 0.579956 128.12C0.579956 126.49 1.89996 125.17 3.52996 125.17C5.15996 125.17 6.47996 126.49 6.47996 128.12Z" stroke="#C9E3F4" stroke-width="1.18" stroke-linecap="round" stroke-linejoin="round"/>
<path d="M22.3899 131.07C24.0192 131.07 25.3399 129.749 25.3399 128.12C25.3399 126.491 24.0192 125.17 22.3899 125.17C20.7607 125.17 19.4399 126.491 19.4399 128.12C19.4399 129.749 20.7607 131.07 22.3899 131.07Z" stroke="#C9E3F4" stroke-width="1.18" stroke-linecap="round" stroke-linejoin="round"/>
<path d="M41.2499 131.07C42.8792 131.07 44.1999 129.749 44.1999 128.12C44.1999 126.491 42.8792 125.17 41.2499 125.17C39.6207 125.17 38.2999 126.491 38.2999 128.12C38.2999 129.749 39.6207 131.07 41.2499 131.07Z" stroke="#C9E3F4" stroke-width="1.18" stroke-linecap="round" stroke-linejoin="round"/>
<path d="M60.1099 131.07C61.7392 131.07 63.0599 129.749 63.0599 128.12C63.0599 126.491 61.7392 125.17 60.1099 125.17C58.4807 125.17 57.1599 126.491 57.1599 128.12C57.1599 129.749 58.4807 131.07 60.1099 131.07Z" stroke="#C9E3F4" stroke-width="1.18" stroke-linecap="round" stroke-linejoin="round"/>
<path d="M78.96 131.07C80.5892 131.07 81.91 129.749 81.91 128.12C81.91 126.491 80.5892 125.17 78.96 125.17C77.3308 125.17 76.01 126.491 76.01 128.12C76.01 129.749 77.3308 131.07 78.96 131.07Z" stroke="#C9E3F4" stroke-width="1.18" stroke-linecap="round" stroke-linejoin="round"/>
<path d="M97.82 131.07C99.4492 131.07 100.77 129.749 100.77 128.12C100.77 126.491 99.4492 125.17 97.82 125.17C96.1908 125.17 94.87 126.491 94.87 128.12C94.87 129.749 96.1908 131.07 97.82 131.07Z" stroke="#C9E3F4" stroke-width="1.18" stroke-linecap="round" stroke-linejoin="round"/>
<path d="M116.68 131.07C118.309 131.07 119.63 129.749 119.63 128.12C119.63 126.491 118.309 125.17 116.68 125.17C115.051 125.17 113.73 126.491 113.73 128.12C113.73 129.749 115.051 131.07 116.68 131.07Z" stroke="#C9E3F4" stroke-width="1.18" stroke-linecap="round" stroke-linejoin="round"/>
<path d="M138.48 128.12C138.48 129.75 137.16 131.07 135.53 131.07C133.9 131.07 132.58 129.75 132.58 128.12C132.58 126.49 133.9 125.17 135.53 125.17C137.16 125.17 138.48 126.49 138.48 128.12Z" stroke="#C9E3F4" stroke-width="1.18" stroke-linecap="round" stroke-linejoin="round"/>
<path d="M6.47996 110.32C6.47996 111.95 5.15996 113.27 3.52996 113.27C1.89996 113.27 0.579956 111.95 0.579956 110.32C0.579956 108.69 1.89996 107.37 3.52996 107.37C5.15996 107.37 6.47996 108.69 6.47996 110.32Z" stroke="#C9E3F4" stroke-width="1.18" stroke-linecap="round" stroke-linejoin="round"/>
<path d="M22.3899 113.27C24.0192 113.27 25.3399 111.949 25.3399 110.32C25.3399 108.691 24.0192 107.37 22.3899 107.37C20.7607 107.37 19.4399 108.691 19.4399 110.32C19.4399 111.949 20.7607 113.27 22.3899 113.27Z" stroke="#C9E3F4" stroke-width="1.18" stroke-linecap="round" stroke-linejoin="round"/>
<path d="M41.2499 113.27C42.8792 113.27 44.1999 111.949 44.1999 110.32C44.1999 108.691 42.8792 107.37 41.2499 107.37C39.6207 107.37 38.2999 108.691 38.2999 110.32C38.2999 111.949 39.6207 113.27 41.2499 113.27Z" stroke="#C9E3F4" stroke-width="1.18" stroke-linecap="round" stroke-linejoin="round"/>
<path d="M60.1099 113.27C61.7392 113.27 63.0599 111.949 63.0599 110.32C63.0599 108.691 61.7392 107.37 60.1099 107.37C58.4807 107.37 57.1599 108.691 57.1599 110.32C57.1599 111.949 58.4807 113.27 60.1099 113.27Z" stroke="#C9E3F4" stroke-width="1.18" stroke-linecap="round" stroke-linejoin="round"/>
<path d="M78.96 113.27C80.5892 113.27 81.91 111.949 81.91 110.32C81.91 108.691 80.5892 107.37 78.96 107.37C77.3308 107.37 76.01 108.691 76.01 110.32C76.01 111.949 77.3308 113.27 78.96 113.27Z" stroke="#C9E3F4" stroke-width="1.18" stroke-linecap="round" stroke-linejoin="round"/>
<path d="M97.82 113.27C99.4492 113.27 100.77 111.949 100.77 110.32C100.77 108.691 99.4492 107.37 97.82 107.37C96.1908 107.37 94.87 108.691 94.87 110.32C94.87 111.949 96.1908 113.27 97.82 113.27Z" stroke="#C9E3F4" stroke-width="1.18" stroke-linecap="round" stroke-linejoin="round"/>
<path d="M116.68 113.27C118.309 113.27 119.63 111.949 119.63 110.32C119.63 108.691 118.309 107.37 116.68 107.37C115.051 107.37 113.73 108.691 113.73 110.32C113.73 111.949 115.051 113.27 116.68 113.27Z" stroke="#C9E3F4" stroke-width="1.18" stroke-linecap="round" stroke-linejoin="round"/>
<path d="M138.48 110.32C138.48 111.95 137.16 113.27 135.53 113.27C133.9 113.27 132.58 111.95 132.58 110.32C132.58 108.69 133.9 107.37 135.53 107.37C137.16 107.37 138.48 108.69 138.48 110.32Z" stroke="#C9E3F4" stroke-width="1.18" stroke-linecap="round" stroke-linejoin="round"/>
<path d="M6.47996 92.5203C6.47996 94.1503 5.15996 95.4703 3.52996 95.4703C1.89996 95.4703 0.579956 94.1503 0.579956 92.5203C0.579956 90.8903 1.89996 89.5703 3.52996 89.5703C5.15996 89.5703 6.47996 90.8903 6.47996 92.5203Z" stroke="#C9E3F4" stroke-width="1.18" stroke-linecap="round" stroke-linejoin="round"/>
<path d="M22.3899 95.4703C24.0192 95.4703 25.3399 94.1495 25.3399 92.5203C25.3399 90.8911 24.0192 89.5703 22.3899 89.5703C20.7607 89.5703 19.4399 90.8911 19.4399 92.5203C19.4399 94.1495 20.7607 95.4703 22.3899 95.4703Z" stroke="#C9E3F4" stroke-width="1.18" stroke-linecap="round" stroke-linejoin="round"/>
<path d="M41.2499 95.4703C42.8792 95.4703 44.1999 94.1495 44.1999 92.5203C44.1999 90.8911 42.8792 89.5703 41.2499 89.5703C39.6207 89.5703 38.2999 90.8911 38.2999 92.5203C38.2999 94.1495 39.6207 95.4703 41.2499 95.4703Z" stroke="#C9E3F4" stroke-width="1.18" stroke-linecap="round" stroke-linejoin="round"/>
<path d="M60.1099 95.4703C61.7392 95.4703 63.0599 94.1495 63.0599 92.5203C63.0599 90.8911 61.7392 89.5703 60.1099 89.5703C58.4807 89.5703 57.1599 90.8911 57.1599 92.5203C57.1599 94.1495 58.4807 95.4703 60.1099 95.4703Z" stroke="#C9E3F4" stroke-width="1.18" stroke-linecap="round" stroke-linejoin="round"/>
<path d="M78.96 95.4703C80.5892 95.4703 81.91 94.1495 81.91 92.5203C81.91 90.8911 80.5892 89.5703 78.96 89.5703C77.3308 89.5703 76.01 90.8911 76.01 92.5203C76.01 94.1495 77.3308 95.4703 78.96 95.4703Z" stroke="#C9E3F4" stroke-width="1.18" stroke-linecap="round" stroke-linejoin="round"/>
<path d="M97.82 95.4703C99.4492 95.4703 100.77 94.1495 100.77 92.5203C100.77 90.8911 99.4492 89.5703 97.82 89.5703C96.1908 89.5703 94.87 90.8911 94.87 92.5203C94.87 94.1495 96.1908 95.4703 97.82 95.4703Z" stroke="#C9E3F4" stroke-width="1.18" stroke-linecap="round" stroke-linejoin="round"/>
<path d="M116.68 95.4703C118.309 95.4703 119.63 94.1495 119.63 92.5203C119.63 90.8911 118.309 89.5703 116.68 89.5703C115.051 89.5703 113.73 90.8911 113.73 92.5203C113.73 94.1495 115.051 95.4703 116.68 95.4703Z" stroke="#C9E3F4" stroke-width="1.18" stroke-linecap="round" stroke-linejoin="round"/>
<path d="M138.48 92.5203C138.48 94.1503 137.16 95.4703 135.53 95.4703C133.9 95.4703 132.58 94.1503 132.58 92.5203C132.58 90.8903 133.9 89.5703 135.53 89.5703C137.16 89.5703 138.48 90.8903 138.48 92.5203Z" stroke="#C9E3F4" stroke-width="1.18" stroke-linecap="round" stroke-linejoin="round"/>
<path d="M6.47996 74.7303C6.47996 76.3603 5.15996 77.6803 3.52996 77.6803C1.89996 77.6803 0.579956 76.3603 0.579956 74.7303C0.579956 73.1003 1.89996 71.7803 3.52996 71.7803C5.15996 71.7803 6.47996 73.1003 6.47996 74.7303Z" stroke="#C9E3F4" stroke-width="1.18" stroke-linecap="round" stroke-linejoin="round"/>
<path d="M25.3399 74.7303C25.3399 76.3603 24.0199 77.6803 22.3899 77.6803C20.7599 77.6803 19.4399 76.3603 19.4399 74.7303C19.4399 73.1003 20.7599 71.7803 22.3899 71.7803C24.0199 71.7803 25.3399 73.1003 25.3399 74.7303Z" stroke="#C9E3F4" stroke-width="1.18" stroke-linecap="round" stroke-linejoin="round"/>
<path d="M44.1999 74.7303C44.1999 76.3603 42.8799 77.6803 41.2499 77.6803C39.6199 77.6803 38.2999 76.3603 38.2999 74.7303C38.2999 73.1003 39.6199 71.7803 41.2499 71.7803C42.8799 71.7803 44.1999 73.1003 44.1999 74.7303Z" stroke="#C9E3F4" stroke-width="1.18" stroke-linecap="round" stroke-linejoin="round"/>
<path d="M63.0499 74.7303C63.0499 76.3603 61.7299 77.6803 60.0999 77.6803C58.4699 77.6803 57.1499 76.3603 57.1499 74.7303C57.1499 73.1003 58.4699 71.7803 60.0999 71.7803C61.7299 71.7803 63.0499 73.1003 63.0499 74.7303Z" stroke="#C9E3F4" stroke-width="1.18" stroke-linecap="round" stroke-linejoin="round"/>
<path d="M81.91 74.7303C81.91 76.3603 80.59 77.6803 78.96 77.6803C77.33 77.6803 76.01 76.3603 76.01 74.7303C76.01 73.1003 77.33 71.7803 78.96 71.7803C80.59 71.7803 81.91 73.1003 81.91 74.7303Z" stroke="#C9E3F4" stroke-width="1.18" stroke-linecap="round" stroke-linejoin="round"/>
<path d="M100.77 74.7303C100.77 76.3603 99.45 77.6803 97.82 77.6803C96.19 77.6803 94.87 76.3603 94.87 74.7303C94.87 73.1003 96.19 71.7803 97.82 71.7803C99.45 71.7803 100.77 73.1003 100.77 74.7303Z" stroke="#C9E3F4" stroke-width="1.18" stroke-linecap="round" stroke-linejoin="round"/>
<path d="M119.62 74.7303C119.62 76.3603 118.3 77.6803 116.67 77.6803C115.04 77.6803 113.72 76.3603 113.72 74.7303C113.72 73.1003 115.04 71.7803 116.67 71.7803C118.3 71.7803 119.62 73.1003 119.62 74.7303Z" stroke="#C9E3F4" stroke-width="1.18" stroke-linecap="round" stroke-linejoin="round"/>
<path d="M138.48 74.7303C138.48 76.3603 137.16 77.6803 135.53 77.6803C133.9 77.6803 132.58 76.3603 132.58 74.7303C132.58 73.1003 133.9 71.7803 135.53 71.7803C137.16 71.7803 138.48 73.1003 138.48 74.7303Z" stroke="#C9E3F4" stroke-width="1.18" stroke-linecap="round" stroke-linejoin="round"/>
<path d="M6.47996 56.9305C6.47996 58.5605 5.15996 59.8805 3.52996 59.8805C1.89996 59.8805 0.579956 58.5605 0.579956 56.9305C0.579956 55.3005 1.89996 53.9805 3.52996 53.9805C5.15996 53.9805 6.47996 55.3005 6.47996 56.9305Z" stroke="#C9E3F4" stroke-width="1.18" stroke-linecap="round" stroke-linejoin="round"/>
<path d="M25.3399 56.9305C25.3399 58.5605 24.0199 59.8805 22.3899 59.8805C20.7599 59.8805 19.4399 58.5605 19.4399 56.9305C19.4399 55.3005 20.7599 53.9805 22.3899 53.9805C24.0199 53.9805 25.3399 55.3005 25.3399 56.9305Z" stroke="#C9E3F4" stroke-width="1.18" stroke-linecap="round" stroke-linejoin="round"/>
<path d="M44.1999 56.9305C44.1999 58.5605 42.8799 59.8805 41.2499 59.8805C39.6199 59.8805 38.2999 58.5605 38.2999 56.9305C38.2999 55.3005 39.6199 53.9805 41.2499 53.9805C42.8799 53.9805 44.1999 55.3005 44.1999 56.9305Z" stroke="#C9E3F4" stroke-width="1.18" stroke-linecap="round" stroke-linejoin="round"/>
<path d="M63.0499 56.9305C63.0499 58.5605 61.7299 59.8805 60.0999 59.8805C58.4699 59.8805 57.1499 58.5605 57.1499 56.9305C57.1499 55.3005 58.4699 53.9805 60.0999 53.9805C61.7299 53.9805 63.0499 55.3005 63.0499 56.9305Z" stroke="#C9E3F4" stroke-width="1.18" stroke-linecap="round" stroke-linejoin="round"/>
<path d="M81.91 56.9305C81.91 58.5605 80.59 59.8805 78.96 59.8805C77.33 59.8805 76.01 58.5605 76.01 56.9305C76.01 55.3005 77.33 53.9805 78.96 53.9805C80.59 53.9805 81.91 55.3005 81.91 56.9305Z" stroke="#C9E3F4" stroke-width="1.18" stroke-linecap="round" stroke-linejoin="round"/>
<path d="M100.77 56.9305C100.77 58.5605 99.45 59.8805 97.82 59.8805C96.19 59.8805 94.87 58.5605 94.87 56.9305C94.87 55.3005 96.19 53.9805 97.82 53.9805C99.45 53.9805 100.77 55.3005 100.77 56.9305Z" stroke="#C9E3F4" stroke-width="1.18" stroke-linecap="round" stroke-linejoin="round"/>
<path d="M119.62 56.9305C119.62 58.5605 118.3 59.8805 116.67 59.8805C115.04 59.8805 113.72 58.5605 113.72 56.9305C113.72 55.3005 115.04 53.9805 116.67 53.9805C118.3 53.9805 119.62 55.3005 119.62 56.9305Z" stroke="#C9E3F4" stroke-width="1.18" stroke-linecap="round" stroke-linejoin="round"/>
<path d="M138.48 56.9305C138.48 58.5605 137.16 59.8805 135.53 59.8805C133.9 59.8805 132.58 58.5605 132.58 56.9305C132.58 55.3005 133.9 53.9805 135.53 53.9805C137.16 53.9805 138.48 55.3005 138.48 56.9305Z" stroke="#C9E3F4" stroke-width="1.18" stroke-linecap="round" stroke-linejoin="round"/>
<path d="M6.47996 39.1297C6.47996 40.7597 5.15996 42.0797 3.52996 42.0797C1.89996 42.0797 0.579956 40.7597 0.579956 39.1297C0.579956 37.4997 1.89996 36.1797 3.52996 36.1797C5.15996 36.1797 6.47996 37.4997 6.47996 39.1297Z" stroke="#C9E3F4" stroke-width="1.18" stroke-linecap="round" stroke-linejoin="round"/>
<path d="M25.3399 39.1297C25.3399 40.7597 24.0199 42.0797 22.3899 42.0797C20.7599 42.0797 19.4399 40.7597 19.4399 39.1297C19.4399 37.4997 20.7599 36.1797 22.3899 36.1797C24.0199 36.1797 25.3399 37.4997 25.3399 39.1297Z" stroke="#C9E3F4" stroke-width="1.18" stroke-linecap="round" stroke-linejoin="round"/>
<path d="M44.1999 39.1297C44.1999 40.7597 42.8799 42.0797 41.2499 42.0797C39.6199 42.0797 38.2999 40.7597 38.2999 39.1297C38.2999 37.4997 39.6199 36.1797 41.2499 36.1797C42.8799 36.1797 44.1999 37.4997 44.1999 39.1297Z" stroke="#C9E3F4" stroke-width="1.18" stroke-linecap="round" stroke-linejoin="round"/>
<path d="M63.0499 39.1297C63.0499 40.7597 61.7299 42.0797 60.0999 42.0797C58.4699 42.0797 57.1499 40.7597 57.1499 39.1297C57.1499 37.4997 58.4699 36.1797 60.0999 36.1797C61.7299 36.1797 63.0499 37.4997 63.0499 39.1297Z" stroke="#C9E3F4" stroke-width="1.18" stroke-linecap="round" stroke-linejoin="round"/>
<path d="M81.91 39.1297C81.91 40.7597 80.59 42.0797 78.96 42.0797C77.33 42.0797 76.01 40.7597 76.01 39.1297C76.01 37.4997 77.33 36.1797 78.96 36.1797C80.59 36.1797 81.91 37.4997 81.91 39.1297Z" stroke="#C9E3F4" stroke-width="1.18" stroke-linecap="round" stroke-linejoin="round"/>
<path d="M100.77 39.1297C100.77 40.7597 99.45 42.0797 97.82 42.0797C96.19 42.0797 94.87 40.7597 94.87 39.1297C94.87 37.4997 96.19 36.1797 97.82 36.1797C99.45 36.1797 100.77 37.4997 100.77 39.1297Z" stroke="#C9E3F4" stroke-width="1.18" stroke-linecap="round" stroke-linejoin="round"/>
<path d="M119.62 39.1297C119.62 40.7597 118.3 42.0797 116.67 42.0797C115.04 42.0797 113.72 40.7597 113.72 39.1297C113.72 37.4997 115.04 36.1797 116.67 36.1797C118.3 36.1797 119.62 37.4997 119.62 39.1297Z" stroke="#C9E3F4" stroke-width="1.18" stroke-linecap="round" stroke-linejoin="round"/>
<path d="M138.48 39.1297C138.48 40.7597 137.16 42.0797 135.53 42.0797C133.9 42.0797 132.58 40.7597 132.58 39.1297C132.58 37.4997 133.9 36.1797 135.53 36.1797C137.16 36.1797 138.48 37.4997 138.48 39.1297Z" stroke="#C9E3F4" stroke-width="1.18" stroke-linecap="round" stroke-linejoin="round"/>
<path d="M6.47996 21.3299C6.47996 22.9599 5.15996 24.2799 3.52996 24.2799C1.89996 24.2799 0.579956 22.9599 0.579956 21.3299C0.579956 19.6999 1.89996 18.3799 3.52996 18.3799C5.15996 18.3799 6.47996 19.6999 6.47996 21.3299Z" stroke="#C9E3F4" stroke-width="1.18" stroke-linecap="round" stroke-linejoin="round"/>
<path d="M22.3899 24.2799C24.0192 24.2799 25.3399 22.9591 25.3399 21.3299C25.3399 19.7006 24.0192 18.3799 22.3899 18.3799C20.7607 18.3799 19.4399 19.7006 19.4399 21.3299C19.4399 22.9591 20.7607 24.2799 22.3899 24.2799Z" stroke="#C9E3F4" stroke-width="1.18" stroke-linecap="round" stroke-linejoin="round"/>
<path d="M41.2499 24.2799C42.8792 24.2799 44.1999 22.9591 44.1999 21.3299C44.1999 19.7006 42.8792 18.3799 41.2499 18.3799C39.6207 18.3799 38.2999 19.7006 38.2999 21.3299C38.2999 22.9591 39.6207 24.2799 41.2499 24.2799Z" stroke="#C9E3F4" stroke-width="1.18" stroke-linecap="round" stroke-linejoin="round"/>
<path d="M60.1099 24.2799C61.7392 24.2799 63.0599 22.9591 63.0599 21.3299C63.0599 19.7006 61.7392 18.3799 60.1099 18.3799C58.4807 18.3799 57.1599 19.7006 57.1599 21.3299C57.1599 22.9591 58.4807 24.2799 60.1099 24.2799Z" stroke="#C9E3F4" stroke-width="1.18" stroke-linecap="round" stroke-linejoin="round"/>
<path d="M78.96 24.2799C80.5892 24.2799 81.91 22.9591 81.91 21.3299C81.91 19.7006 80.5892 18.3799 78.96 18.3799C77.3308 18.3799 76.01 19.7006 76.01 21.3299C76.01 22.9591 77.3308 24.2799 78.96 24.2799Z" stroke="#C9E3F4" stroke-width="1.18" stroke-linecap="round" stroke-linejoin="round"/>
<path d="M97.82 24.2799C99.4492 24.2799 100.77 22.9591 100.77 21.3299C100.77 19.7006 99.4492 18.3799 97.82 18.3799C96.1908 18.3799 94.87 19.7006 94.87 21.3299C94.87 22.9591 96.1908 24.2799 97.82 24.2799Z" stroke="#C9E3F4" stroke-width="1.18" stroke-linecap="round" stroke-linejoin="round"/>
<path d="M116.68 24.2799C118.309 24.2799 119.63 22.9591 119.63 21.3299C119.63 19.7006 118.309 18.3799 116.68 18.3799C115.051 18.3799 113.73 19.7006 113.73 21.3299C113.73 22.9591 115.051 24.2799 116.68 24.2799Z" stroke="#C9E3F4" stroke-width="1.18" stroke-linecap="round" stroke-linejoin="round"/>
<path d="M138.48 21.3299C138.48 22.9599 137.16 24.2799 135.53 24.2799C133.9 24.2799 132.58 22.9599 132.58 21.3299C132.58 19.6999 133.9 18.3799 135.53 18.3799C137.16 18.3799 138.48 19.6999 138.48 21.3299Z" stroke="#C9E3F4" stroke-width="1.18" stroke-linecap="round" stroke-linejoin="round"/>
<path d="M6.47997 3.53984C6.47997 5.16984 5.15997 6.48984 3.52997 6.48984C1.89997 6.48984 0.589966 5.15984 0.589966 3.53984C0.589966 1.91984 1.90997 0.589844 3.53997 0.589844C5.16997 0.589844 6.48997 1.90984 6.48997 3.53984H6.47997Z" stroke="#C9E3F4" stroke-width="1.18" stroke-linecap="round" stroke-linejoin="round"/>
<path d="M22.3899 6.48984C24.0192 6.48984 25.3399 5.16908 25.3399 3.53984C25.3399 1.9106 24.0192 0.589844 22.3899 0.589844C20.7607 0.589844 19.4399 1.9106 19.4399 3.53984C19.4399 5.16908 20.7607 6.48984 22.3899 6.48984Z" stroke="#C9E3F4" stroke-width="1.18" stroke-linecap="round" stroke-linejoin="round"/>
<path d="M41.2499 6.48984C42.8792 6.48984 44.1999 5.16908 44.1999 3.53984C44.1999 1.9106 42.8792 0.589844 41.2499 0.589844C39.6207 0.589844 38.2999 1.9106 38.2999 3.53984C38.2999 5.16908 39.6207 6.48984 41.2499 6.48984Z" stroke="#C9E3F4" stroke-width="1.18" stroke-linecap="round" stroke-linejoin="round"/>
<path d="M60.1099 6.48984C61.7392 6.48984 63.0599 5.16908 63.0599 3.53984C63.0599 1.9106 61.7392 0.589844 60.1099 0.589844C58.4807 0.589844 57.1599 1.9106 57.1599 3.53984C57.1599 5.16908 58.4807 6.48984 60.1099 6.48984Z" stroke="#C9E3F4" stroke-width="1.18" stroke-linecap="round" stroke-linejoin="round"/>
<path d="M78.96 6.48984C80.5892 6.48984 81.91 5.16908 81.91 3.53984C81.91 1.9106 80.5892 0.589844 78.96 0.589844C77.3308 0.589844 76.01 1.9106 76.01 3.53984C76.01 5.16908 77.3308 6.48984 78.96 6.48984Z" stroke="#C9E3F4" stroke-width="1.18" stroke-linecap="round" stroke-linejoin="round"/>
<path d="M97.82 6.48984C99.4492 6.48984 100.77 5.16908 100.77 3.53984C100.77 1.9106 99.4492 0.589844 97.82 0.589844C96.1908 0.589844 94.87 1.9106 94.87 3.53984C94.87 5.16908 96.1908 6.48984 97.82 6.48984Z" stroke="#C9E3F4" stroke-width="1.18" stroke-linecap="round" stroke-linejoin="round"/>
<path d="M116.68 6.48984C118.309 6.48984 119.63 5.16908 119.63 3.53984C119.63 1.9106 118.309 0.589844 116.68 0.589844C115.051 0.589844 113.73 1.9106 113.73 3.53984C113.73 5.16908 115.051 6.48984 116.68 6.48984Z" stroke="#C9E3F4" stroke-width="1.18" stroke-linecap="round" stroke-linejoin="round"/>
<path d="M138.48 3.53984C138.48 5.16984 137.16 6.48984 135.53 6.48984C133.9 6.48984 132.58 5.16984 132.58 3.53984C132.58 1.90984 133.9 0.589844 135.53 0.589844C137.16 0.589844 138.48 1.90984 138.48 3.53984Z" stroke="#C9E3F4" stroke-width="1.18" stroke-linecap="round" stroke-linejoin="round"/>
</g>
<defs>
<clipPath id="clip0_293_469">
<rect width="139.07" height="131.65" fill="white"/>
</clipPath>
</defs>
</svg>
