<svg width="200" height="82" viewBox="0 0 200 82" fill="none" xmlns="http://www.w3.org/2000/svg">
<g clip-path="url(#clip0_293_637)">
<path d="M105.877 0H0V63.3111H105.877V0Z" fill="#439FD9"/>
<path d="M71.8182 27.1785V36.1333H81.1756C79.3121 41.5194 74.1863 45.3998 68.1686 45.3998C60.5818 45.3998 54.4114 39.2332 54.4114 31.6559C54.4114 24.0786 60.584 17.912 68.1686 17.912H71.8204V8.95508H68.1686C55.6397 8.95508 45.4457 19.1392 45.4457 31.6559C45.4457 39.2354 39.2731 45.3998 31.6885 45.3998C24.1039 45.3998 17.9313 39.2332 17.9313 31.6559H8.96338C8.96338 44.1726 19.1574 54.3567 31.6863 54.3567C39.1492 54.3567 45.7821 50.7439 49.9275 45.1787C54.0728 50.7439 60.7057 54.3567 68.1686 54.3567C76.6407 54.3567 84.0417 49.7002 87.9502 42.8173V54.3567H96.9136V27.1785H71.8204H71.8182Z" fill="#F7C600"/>
<path d="M0 80.9914L0.513462 79.6979C1.27038 79.992 1.87236 80.1335 2.80855 80.1335C3.8731 80.1335 4.63001 79.7996 4.63001 79.0059C4.63001 77.237 0.27001 77.6859 0.27001 74.6501C0.27001 73.0095 1.77056 72.2666 3.31094 72.2666C4.5946 72.2666 5.26077 72.5363 5.9026 72.8171L5.40241 74.0598C4.78715 73.8674 4.24713 73.6883 3.36406 73.6883C2.42788 73.6883 1.9786 74.0465 1.9786 74.6236C1.9786 76.1492 6.39171 76.0453 6.39171 78.9285C6.39171 80.8256 4.67206 81.5928 2.83953 81.5928C1.41645 81.5928 0.619695 81.323 0.00442639 80.9914H0Z" fill="white"/>
<path d="M11.98 72.3916H13.724V76.2233H18.0087V72.3916H19.7527V81.4503H18.0087V77.5809H13.724V81.4503H11.98V72.3916V72.3916Z" fill="white"/>
<path d="M25.9343 72.3916H27.6783V81.4503H25.9343V72.3916V72.3916Z" fill="white"/>
<path d="M33.8618 72.3916H39.8131V73.7757H35.6058V76.4798H39.5298V77.7866H35.6058V81.4525H33.8618V72.3938V72.3916Z" fill="white"/>
<path d="M47.1366 73.789H44.1997V72.3916H51.8308V73.789H48.8939V81.4525H47.1366V73.789V73.789Z" fill="white"/>
<path d="M56.9233 72.3916H58.6673V81.4503H56.9233V72.3916V72.3916Z" fill="white"/>
<path d="M64.8489 72.3916H66.9913L70.9551 79.3498L70.9042 78.2863V72.3916H72.6615V81.4503H70.4173L66.5442 74.6336L66.5951 75.7347V81.4503H64.8511V72.3916H64.8489Z" fill="white"/>
<path d="M78.2918 76.9798C78.2918 73.8667 80.0358 72.2637 83.2051 72.2637C84.6149 72.2637 85.3076 72.5334 85.8852 72.7766L85.4116 74.0834C84.7056 73.891 84.2563 73.7252 83.1918 73.7252C81.4721 73.7252 80.0889 74.6096 80.0889 76.8516C80.0889 79.0936 81.5762 80.1195 83.3843 80.1195C83.7694 80.1195 84.0638 80.0687 84.3072 80.0421V76.9798H86.0512V81.1057C85.1151 81.4395 84.3072 81.5921 83.1519 81.5921C80.1508 81.5921 78.2896 79.9382 78.2896 76.9798H78.2918Z" fill="white"/>
<path d="M98.8259 72.3916H100.57V76.2233H104.855V72.3916H106.599V81.4503H104.855V77.5809H100.57V81.4503H98.8259V72.3916V72.3916Z" fill="white"/>
<path d="M115.307 72.3916H117.578L120.721 81.4503H118.899L117.899 78.5162H114.641L113.526 81.4503H111.769L115.31 72.3916H115.307ZM117.474 77.2227L116.372 73.506L115.128 77.2227H117.476H117.474Z" fill="white"/>
<path d="M125.878 72.3916H129.187C131.136 72.3916 132.471 73.506 132.471 75.4672C132.471 77.1852 131.136 78.6201 128.52 78.6201H127.905V77.2493H128.598C129.983 77.2493 130.663 76.5837 130.663 75.5202C130.663 74.4567 130.176 73.7779 128.906 73.7779H127.635V81.4525H125.878V72.3938V72.3916Z" fill="white"/>
<path d="M137.729 72.3916H141.038C142.988 72.3916 144.323 73.506 144.323 75.4672C144.323 77.1852 142.988 78.6201 140.372 78.6201H139.757V77.2493H140.45C141.835 77.2493 142.514 76.5837 142.514 75.5202C142.514 74.4567 142.028 73.7779 140.757 73.7779H139.487V81.4525H137.729V72.3938V72.3916Z" fill="white"/>
<path d="M149.581 72.3916H151.325V81.4503H149.581V72.3916V72.3916Z" fill="white"/>
<path d="M157.507 72.3916H159.649L163.613 79.3498L163.562 78.2863V72.3916H165.319V81.4503H163.075L159.202 74.6336L159.253 75.7347V81.4503H157.509V72.3916H157.507Z" fill="white"/>
<path d="M171.501 72.3916H177.118V73.7757H173.245V76.2499H176.837V77.5566H173.245V80.0684H177.414V81.4525H171.501V72.3938V72.3916Z" fill="white"/>
<path d="M182.365 80.9904L182.879 79.697C183.636 79.991 184.238 80.1325 185.174 80.1325C186.238 80.1325 186.995 79.7987 186.995 79.0049C186.995 77.2361 182.635 77.6849 182.635 74.6491C182.635 73.0085 184.136 72.2656 185.676 72.2656C186.958 72.2656 187.626 72.5354 188.268 72.8162L187.768 74.0588C187.152 73.8664 186.612 73.6873 185.729 73.6873C184.793 73.6873 184.344 74.0455 184.344 74.6226C184.344 76.1482 188.757 76.0443 188.757 78.9275C188.757 80.8246 187.037 81.5918 185.205 81.5918C183.782 81.5918 182.985 81.3221 182.37 80.9904H182.365Z" fill="white"/>
<path d="M193.562 80.9904L194.075 79.697C194.832 79.991 195.434 80.1325 196.37 80.1325C197.435 80.1325 198.192 79.7987 198.192 79.0049C198.192 77.2361 193.832 77.6849 193.832 74.6491C193.832 73.0085 195.332 72.2656 196.873 72.2656C198.156 72.2656 198.823 72.5354 199.464 72.8162L198.964 74.0588C198.349 73.8664 197.809 73.6873 196.926 73.6873C195.99 73.6873 195.54 74.0455 195.54 74.6226C195.54 76.1482 199.953 76.0443 199.953 78.9275C199.953 80.8246 198.234 81.5918 196.401 81.5918C194.978 81.5918 194.181 81.3221 193.566 80.9904H193.562Z" fill="white"/>
<path d="M124.784 27.4262L127.686 19.714L130.311 27.4262H135.749L141.189 8.95508H136.375L132.971 21.5956L128.89 8.95508H123.908L125.614 13.8747L122.531 21.7615L119.725 8.95508H114.841L119.26 27.4262H124.784Z" fill="white"/>
<path d="M147.83 20.2314H154.162V27.4262H159.036V8.95508H154.162V16.0791H147.83V8.95508H142.957V27.4262H147.83V20.2314Z" fill="white"/>
<path d="M167.811 8.95508H162.938V27.424H167.811V8.95508Z" fill="white"/>
<path d="M175.146 27.4262H180.041V13.1804H185.504V8.95508H169.686V13.1804H175.146V27.4262Z" fill="white"/>
<path d="M192.252 23.2252V20.185H198.927V16.1255H192.252V13.1583H199.451V8.95508H187.378V27.4262H200V23.2252H192.252Z" fill="white"/>
<path d="M127.075 49.7069C126.805 49.7356 126.506 49.76 126.174 49.76C124.576 49.76 120.863 49.247 120.863 44.4999C120.863 40.3696 123.556 39.5029 125.818 39.5029C127.447 39.5029 128.21 39.7174 129.268 40.0137C129.417 40.0557 129.569 40.0977 129.729 40.1419L130.452 40.3387L131.856 36.476L131.143 36.1753C129.873 35.6402 128.511 35.1582 125.842 35.1582C119.429 35.1582 115.894 38.561 115.894 44.7387C115.894 50.9163 119.577 54.129 125.747 54.129C127.896 54.129 129.483 53.8614 131.409 53.176L131.951 52.9837V43.925H127.077V49.7091L127.075 49.7069Z" fill="white"/>
<path d="M140.224 35.3945H135.35V53.8634H147.543V49.616H140.224V35.3945Z" fill="white"/>
<path d="M157.243 35.134C151.243 35.134 147.368 38.8486 147.368 44.5951C147.368 50.3416 150.891 54.1513 156.792 54.1513C162.692 54.1513 166.621 50.5075 166.621 44.6415C166.621 38.7756 163.115 35.1318 157.245 35.1318L157.243 35.134ZM161.674 44.6194C161.674 47.0405 160.84 49.9259 156.863 49.9259C152.885 49.9259 152.29 46.1804 152.29 44.5708C152.29 42.6251 152.905 39.3594 157.031 39.3594C161.156 39.3594 161.676 43.0385 161.676 44.6194H161.674Z" fill="white"/>
<path d="M175.852 48.1103L171.764 35.3945H166.563L173.021 53.8634H178.426L185.643 35.3945H180.592L175.852 48.1103Z" fill="white"/>
<path d="M191.942 46.6222H198.617V42.565H191.942V39.5955H199.141V35.3945H187.068V53.8634H199.69V49.6624H191.942V46.6222Z" fill="white"/>
</g>
<defs>
<clipPath id="clip0_293_637">
<rect width="200" height="81.592" fill="white"/>
</clipPath>
</defs>
</svg>
