<svg width="200" height="82" viewBox="0 0 200 82" fill="none" xmlns="http://www.w3.org/2000/svg">
<g clip-path="url(#clip0_199_2033)">
<path d="M105.877 0H0V63.3111H105.877V0Z" fill="#439FD9"/>
<path d="M71.8187 27.1782V36.1329H81.1761C79.3126 41.519 74.1868 45.3994 68.1691 45.3994C60.5823 45.3994 54.4119 39.2328 54.4119 31.6555C54.4119 24.0783 60.5845 17.9117 68.1691 17.9117H71.8209V8.95471H68.1691C55.6402 8.95471 45.4462 19.1388 45.4462 31.6555C45.4462 39.235 39.2736 45.3994 31.689 45.3994C24.1043 45.3994 17.9317 39.2328 17.9317 31.6555H8.96387C8.96387 44.1723 19.1579 54.3563 31.6868 54.3563C39.1497 54.3563 45.7826 50.7435 49.9279 45.1783C54.0733 50.7435 60.7062 54.3563 68.1691 54.3563C76.6412 54.3563 84.0422 49.6999 87.9507 42.8169V54.3563H96.9141V27.1782H71.8209H71.8187Z" fill="#F7C600"/>
<path d="M0 80.9909L0.513462 79.6974C1.27038 79.9915 1.87236 80.133 2.80855 80.133C3.8731 80.133 4.63001 79.7992 4.63001 79.0054C4.63001 77.2365 0.27001 77.6854 0.27001 74.6496C0.27001 73.009 1.77056 72.2661 3.31094 72.2661C4.5946 72.2661 5.26077 72.5359 5.9026 72.8167L5.40241 74.0593C4.78715 73.8669 4.24713 73.6878 3.36406 73.6878C2.42788 73.6878 1.9786 74.046 1.9786 74.6231C1.9786 76.1487 6.39171 76.0448 6.39171 78.928C6.39171 80.8251 4.67206 81.5923 2.83953 81.5923C1.41645 81.5923 0.619695 81.3226 0.00442639 80.9909H0Z" fill="white"/>
<path d="M11.9805 72.392H13.7245V76.2237H18.0092V72.392H19.7532V81.4506H18.0092V77.5813H13.7245V81.4506H11.9805V72.392Z" fill="white"/>
<path d="M25.9346 72.392H27.6786V81.4506H25.9346V72.392Z" fill="white"/>
<path d="M33.8623 72.392H39.8136V73.7761H35.6063V76.4802H39.5303V77.7869H35.6063V81.4528H33.8623V72.3942V72.392Z" fill="white"/>
<path d="M47.1371 73.7894H44.2002V72.392H51.8313V73.7894H48.8944V81.4528H47.1371V73.7894Z" fill="white"/>
<path d="M56.9238 72.392H58.6678V81.4506H56.9238V72.392Z" fill="white"/>
<path d="M64.8486 72.392H66.991L70.9548 79.3501L70.9039 78.2866V72.392H72.6612V81.4506H70.417L66.5439 74.634L66.5948 75.7351V81.4506H64.8508V72.392H64.8486Z" fill="white"/>
<path d="M78.2923 76.9798C78.2923 73.8667 80.0363 72.2637 83.2056 72.2637C84.6154 72.2637 85.3081 72.5334 85.8857 72.7766L85.4121 74.0834C84.7061 73.891 84.2568 73.7252 83.1923 73.7252C81.4726 73.7252 80.0894 74.6096 80.0894 76.8516C80.0894 79.0936 81.5766 80.1195 83.3848 80.1195C83.7699 80.1195 84.0643 80.0687 84.3077 80.0421V76.9798H86.0517V81.1057C85.1155 81.4395 84.3077 81.5921 83.1524 81.5921C80.1513 81.5921 78.29 79.9382 78.29 76.9798H78.2923Z" fill="white"/>
<path d="M98.8262 72.392H100.57V76.2237H104.855V72.392H106.599V81.4506H104.855V77.5813H100.57V81.4506H98.8262V72.392Z" fill="white"/>
<path d="M115.307 72.392H117.578L120.721 81.4506H118.899L117.899 78.5166H114.641L113.526 81.4506H111.769L115.31 72.392H115.307ZM117.474 77.2231L116.372 73.5063L115.128 77.2231H117.476H117.474Z" fill="white"/>
<path d="M125.878 72.392H129.187C131.136 72.392 132.471 73.5063 132.471 75.4675C132.471 77.1855 131.136 78.6205 128.52 78.6205H127.905V77.2496H128.598C129.983 77.2496 130.663 76.5841 130.663 75.5206C130.663 74.4571 130.176 73.7783 128.906 73.7783H127.635V81.4528H125.878V72.3942V72.392Z" fill="white"/>
<path d="M137.729 72.392H141.038C142.988 72.392 144.323 73.5063 144.323 75.4675C144.323 77.1855 142.988 78.6205 140.372 78.6205H139.757V77.2496H140.45C141.835 77.2496 142.514 76.5841 142.514 75.5206C142.514 74.4571 142.028 73.7783 140.757 73.7783H139.487V81.4528H137.729V72.3942V72.392Z" fill="white"/>
<path d="M149.581 72.392H151.325V81.4506H149.581V72.392Z" fill="white"/>
<path d="M157.507 72.392H159.649L163.613 79.3501L163.562 78.2866V72.392H165.319V81.4506H163.075L159.202 74.634L159.253 75.7351V81.4506H157.509V72.392H157.507Z" fill="white"/>
<path d="M171.501 72.392H177.118V73.7761H173.245V76.2502H176.837V77.557H173.245V80.0687H177.415V81.4528H171.501V72.3942V72.392Z" fill="white"/>
<path d="M182.365 80.9907L182.879 79.6972C183.636 79.9913 184.238 80.1328 185.174 80.1328C186.238 80.1328 186.995 79.7989 186.995 79.0051C186.995 77.2363 182.635 77.6851 182.635 74.6494C182.635 73.0088 184.136 72.2659 185.676 72.2659C186.958 72.2659 187.626 72.5356 188.268 72.8164L187.768 74.059C187.152 73.8667 186.612 73.6876 185.729 73.6876C184.793 73.6876 184.344 74.0458 184.344 74.6228C184.344 76.1485 188.757 76.0445 188.757 78.9278C188.757 80.8248 187.037 81.5921 185.205 81.5921C183.782 81.5921 182.985 81.3223 182.37 80.9907H182.365Z" fill="white"/>
<path d="M193.562 80.9907L194.075 79.6972C194.832 79.9913 195.434 80.1328 196.37 80.1328C197.435 80.1328 198.192 79.7989 198.192 79.0051C198.192 77.2363 193.832 77.6851 193.832 74.6494C193.832 73.0088 195.332 72.2659 196.872 72.2659C198.156 72.2659 198.822 72.5356 199.464 72.8164L198.964 74.059C198.349 73.8667 197.809 73.6876 196.926 73.6876C195.989 73.6876 195.54 74.0458 195.54 74.6228C195.54 76.1485 199.953 76.0445 199.953 78.9278C199.953 80.8248 198.234 81.5921 196.401 81.5921C194.978 81.5921 194.181 81.3223 193.566 80.9907H193.562Z" fill="white"/>
<path d="M124.785 27.4258L127.686 19.7137L130.311 27.4258H135.749L141.189 8.95471H136.375L132.971 21.5953L128.89 8.95471H123.908L125.615 13.8743L122.532 21.7611L119.725 8.95471H114.841L119.261 27.4258H124.785Z" fill="white"/>
<path d="M147.83 20.231H154.162V27.4258H159.036V8.95471H154.162V16.0787H147.83V8.95471H142.957V27.4258H147.83V20.231Z" fill="white"/>
<path d="M167.812 8.95471H162.938V27.4236H167.812V8.95471Z" fill="white"/>
<path d="M175.146 27.4258H180.042V13.18H185.504V8.95471H169.687V13.18H175.146V27.4258Z" fill="white"/>
<path d="M192.251 23.2248V20.1846H198.926V16.1251H192.251V13.1579H199.451V8.95471H187.378V27.4258H200V23.2248H192.251Z" fill="white"/>
<path d="M127.076 49.7065C126.806 49.7353 126.507 49.7596 126.175 49.7596C124.577 49.7596 120.863 49.2466 120.863 44.4995C120.863 40.3693 123.557 39.5025 125.819 39.5025C127.447 39.5025 128.211 39.717 129.269 40.0133C129.417 40.0553 129.57 40.0973 129.729 40.1415L130.453 40.3383L131.856 36.4756L131.143 36.1749C129.873 35.6398 128.512 35.1578 125.843 35.1578C119.429 35.1578 115.895 38.5606 115.895 44.7383C115.895 50.916 119.577 54.1286 125.748 54.1286C127.897 54.1286 129.484 53.8611 131.409 53.1757L131.951 52.9833V43.9246H127.078V49.7087L127.076 49.7065Z" fill="white"/>
<path d="M140.224 35.3944H135.351V53.8633H147.543V49.6159H140.224V35.3944Z" fill="white"/>
<path d="M157.243 35.1336C151.243 35.1336 147.368 38.8481 147.368 44.5946C147.368 50.3411 150.892 54.1508 156.792 54.1508C162.692 54.1508 166.621 50.507 166.621 44.6411C166.621 38.7752 163.115 35.1313 157.246 35.1313L157.243 35.1336ZM161.674 44.6189C161.674 47.04 160.84 49.9255 156.863 49.9255C152.886 49.9255 152.29 46.1799 152.29 44.5703C152.29 42.6246 152.906 39.3589 157.031 39.3589C161.156 39.3589 161.676 43.0381 161.676 44.6189H161.674Z" fill="white"/>
<path d="M175.852 48.1101L171.764 35.3944H166.563L173.022 53.8633H178.426L185.643 35.3944H180.593L175.852 48.1101Z" fill="white"/>
<path d="M191.942 46.6221H198.617V42.5648H191.942V39.5954H199.141V35.3944H187.068V53.8633H199.69V49.6623H191.942V46.6221Z" fill="white"/>
</g>
<defs>
<clipPath id="clip0_199_2033">
<rect width="200" height="81.592" fill="white"/>
</clipPath>
</defs>
</svg>
