<svg width="603" height="596" viewBox="0 0 603 596" fill="none" xmlns="http://www.w3.org/2000/svg">
<path d="M231.106 295.808H236.12V300.254H231.106V295.808ZM239.129 300.254H244.143V295.808H239.129V300.254ZM238.579 302.577H233.565V307.022H238.579V302.577ZM224.604 304.441H229.618V299.996H224.604V304.441ZM229.618 291.621H224.604V296.066H229.618V291.621ZM233.597 293.485H238.611V289.04H233.597V293.485ZM252.198 295.808H247.184V300.254H252.198V295.808ZM244.111 308.628H249.125V304.183H244.111V308.628ZM241.07 309.374H236.056V313.819H241.07V309.374ZM231.138 309.374H226.124V313.819H231.138V309.374ZM223.116 304.211H218.101V308.657H223.116V304.211ZM220.042 295.837H215.028V300.282H220.042V295.837ZM223.116 287.462H218.101V291.908H223.116V287.462ZM226.124 286.717H231.138V282.271H226.124V286.717ZM241.07 282.271H236.056V286.717H241.07V282.271ZM244.111 291.879H249.125V287.434H244.111V291.879ZM255.207 300.254H260.221V295.808H255.207V300.254ZM253.136 308.944H258.15V304.498H253.136V308.944ZM252.263 311.697H247.249V316.142H252.263V311.697ZM243.593 316.142H238.579V320.588H243.593V316.142ZM233.629 317.06H228.615V321.505H233.629V317.06ZM224.086 314.307H219.072V318.752H224.086V314.307ZM216.646 308.37H211.632V312.815H216.646V308.37ZM212.57 300.254H207.556V304.699H212.57V300.254ZM212.57 291.363H207.556V295.808H212.57V291.363ZM211.632 287.692H216.646V283.247H211.632V287.692ZM224.086 277.31H219.072V281.755H224.086V277.31ZM228.615 279.002H233.629V274.557H228.615V279.002ZM238.579 279.92H243.593V275.474H238.579V279.92ZM247.249 284.365H252.263V279.92H247.249V284.365ZM253.136 291.564H258.15V287.118H253.136V291.564ZM268.243 295.808H263.229V300.254H268.243V295.808ZM261.676 309.058H266.691V304.613H261.676V309.058ZM262.129 312.557H257.115V317.003H262.129V312.557ZM249.998 323.312H255.012V318.867H249.998V323.312ZM246.052 322.911H241.037V327.356H246.052V322.911ZM236.12 324.316H231.106V328.761H236.12V324.316ZM226.189 322.911H221.175V327.356H226.189V322.911ZM217.228 318.867H212.214V323.312H217.228V318.867ZM210.111 312.557H205.097V317.003H210.111V312.557ZM205.55 304.613H200.536V309.058H205.55V304.613ZM203.965 295.808H198.95V300.254H203.965V295.808ZM205.55 287.004H200.536V291.449H205.55V287.004ZM210.111 279.059H205.097V283.505H210.111V279.059ZM217.228 272.75H212.214V277.195H217.228V272.75ZM221.175 273.151H226.189V268.706H221.175V273.151ZM231.106 271.746H236.12V267.301H231.106V271.746ZM241.037 273.151H246.052V268.706H241.037V273.151ZM249.998 277.195H255.012V272.75H249.998V277.195ZM262.129 279.059H257.115V283.505H262.129V279.059ZM261.676 291.449H266.691V287.004H261.676V291.449ZM271.284 300.254H276.299V295.808H271.284V300.254ZM275.037 304.67H270.023V309.116H275.037V304.67ZM271.317 312.959H266.302V317.404H271.317V312.959ZM265.397 320.186H260.383V324.631H265.397V320.186ZM252.619 330.31H257.633V325.865H252.619V330.31ZM248.51 329.679H243.496V334.124H248.51V329.679ZM238.611 331.343H233.597V335.788H238.611V331.343ZM228.55 330.769H223.536V335.214H228.55V330.769ZM218.975 328.016H213.961V332.461H218.975V328.016ZM210.467 323.226H205.453V327.672H210.467V323.226ZM203.576 316.716H198.562V321.161H203.576V316.716ZM193.71 313.332H198.724V308.886H193.71V313.332ZM196.201 300.254H191.187V304.699H196.201V300.254ZM196.201 291.334H191.187V295.78H196.201V291.334ZM193.71 287.118H198.724V282.673H193.71V287.118ZM203.576 274.872H198.562V279.317H203.576V274.872ZM205.453 272.807H210.467V268.362H205.453V272.807ZM213.961 268.018H218.975V263.572H213.961V268.018ZM223.536 265.264H228.55V260.819H223.536V265.264ZM233.597 264.691H238.611V260.245H233.597V264.691ZM243.496 266.354H248.51V261.909H243.496V266.354ZM252.619 270.14H257.633V265.695H252.619V270.14ZM260.383 275.819H265.397V271.373H260.383V275.819ZM266.302 283.046H271.317V278.6H266.302V283.046ZM270.023 291.334H275.037V286.889H270.023V291.334ZM279.307 300.196H284.321V295.751H279.307V300.196ZM283.254 304.642H278.24V309.087H283.254V304.642ZM275.134 317.576H280.148V313.131H275.134V317.576ZM275.134 320.874H270.12V325.32H275.134V320.874ZM268.405 327.499H263.391V331.945H268.405V327.499ZM260.253 332.748H255.239V337.193H260.253V332.748ZM251.033 336.39H246.019V340.836H251.033V336.39ZM241.167 338.254H236.153V342.7H241.167V338.254ZM231.106 338.254H226.092V342.7H231.106V338.254ZM216.258 340.836H221.272V336.39H216.258V340.836ZM212.052 332.777H207.038V337.222H212.052V332.777ZM203.9 327.528H198.886V331.974H203.9V327.528ZM197.171 320.903H192.157V325.348H197.171V320.903ZM187.143 317.605H192.157V313.16H187.143V317.605ZM189.051 304.67H184.037V309.116H189.051V304.67ZM187.984 295.78H182.97V300.225H187.984V295.78ZM189.051 286.889H184.037V291.334H189.051V286.889ZM192.157 278.4H187.143V282.845H192.157V278.4ZM192.157 275.102H197.171V270.656H192.157V275.102ZM198.886 268.477H203.9V264.031H198.886V268.477ZM207.038 263.228H212.052V258.783H207.038V263.228ZM216.258 259.586H221.272V255.14H216.258V259.586ZM226.124 257.722H231.138V253.276H226.124V257.722ZM236.185 257.722H241.199V253.276H236.185V257.722ZM246.052 259.586H251.066V255.14H246.052V259.586ZM255.239 263.228H260.253V258.783H255.239V263.228ZM263.391 268.477H268.405V264.031H263.391V268.477ZM270.12 275.102H275.134V270.656H270.12V275.102ZM275.166 282.845H280.181V278.4H275.166V282.845ZM278.272 291.334H283.286V286.889H278.272V291.334ZM287.362 300.225H292.376V295.78H287.362V300.225ZM291.471 304.699H286.456V309.144H291.471V304.699ZM288.786 313.303H283.771V317.748H288.786V313.303ZM284.418 321.362H279.404V325.807H284.418V321.362ZM278.498 328.589H273.484V333.035H278.498V328.589ZM271.22 334.755H266.205V339.201H271.22V334.755ZM262.809 339.688H257.795V344.134H262.809V339.688ZM253.557 343.187H248.543V347.633H253.557V343.187ZM243.722 345.166H238.708V349.612H243.722V345.166ZM233.662 345.568H228.647V350.013H233.662V345.568ZM223.666 344.363H218.651V348.809H223.666V344.363ZM209.076 346.055H214.09V341.61H209.076V346.055ZM205.194 337.394H200.18V341.839H205.194V337.394ZM197.301 331.83H192.286V336.275H197.301V331.83ZM190.669 325.09H185.655V329.536H190.669V325.09ZM185.493 317.433H180.479V321.878H185.493V317.433ZM181.967 309.058H176.953V313.504H181.967V309.058ZM180.155 300.254H175.141V304.699H180.155V300.254ZM180.155 291.306H175.141V295.751H180.155V291.306ZM181.967 282.501H176.953V286.946H181.967V282.501ZM185.493 274.126H180.479V278.572H185.493V274.126ZM190.669 266.469H185.655V270.914H190.669V266.469ZM192.286 264.175H197.301V259.729H192.286V264.175ZM200.18 258.611H205.194V254.165H200.18V258.611ZM209.044 254.366H214.058V249.921H209.044V254.366ZM218.619 251.613H223.633V247.167H218.619V251.613ZM228.615 250.408H233.629V245.963H228.615V250.408ZM238.676 250.81H243.69V246.364H238.676V250.81ZM248.51 252.789H253.524V248.343H248.51V252.789ZM257.795 256.288H262.809V251.842H257.795V256.288ZM266.205 261.22H271.22V256.775H266.205V261.22ZM273.484 267.387H278.498V262.941H273.484V267.387ZM279.404 274.614H284.418V270.169H279.404V274.614ZM283.771 282.673H288.786V278.228H283.771V282.673ZM286.456 291.277H291.471V286.832H286.456V291.277ZM300.399 295.751H295.385V300.196H300.399V295.751ZM299.623 304.67H294.608V309.116H299.623V304.67ZM297.261 313.36H292.247V317.806H297.261V313.36ZM293.412 321.62H288.397V326.065H293.412V321.62ZM288.139 329.249H283.124V333.694H288.139V329.249ZM281.604 336.046H276.59V340.491H281.604V336.046ZM273.937 341.839H268.923V346.285H273.937V341.839ZM265.332 346.514H260.318V350.96H265.332V346.514ZM256.015 349.927H251.001V354.372H256.015V349.927ZM246.213 352.021H241.199V356.466H246.213V352.021ZM236.153 352.709H231.138V357.154H236.153V352.709ZM226.092 352.021H221.078V356.466H226.092V352.021ZM216.29 349.927H211.276V354.372H216.29V349.927ZM206.973 346.514H201.959V350.96H206.973V346.514ZM198.368 341.839H193.354V346.285H198.368V341.839ZM190.701 336.046H185.687V340.491H190.701V336.046ZM179.152 333.694H184.167V329.249H179.152V333.694ZM178.894 321.62H173.879V326.065H178.894V321.62ZM175.044 313.36H170.03V317.806H175.044V313.36ZM172.683 304.67H167.668V309.116H172.683V304.67ZM171.906 295.751H166.892V300.196H171.906V295.751ZM167.701 291.277H172.715V286.832H167.701V291.277ZM175.076 278.142H170.062V282.587H175.076V278.142ZM178.926 269.882H173.912V274.327H178.926V269.882ZM184.199 262.253H179.185V266.698H184.199V262.253ZM185.752 259.901H190.766V255.456H185.752V259.901ZM193.419 254.108H198.433V249.663H193.419V254.108ZM202.024 249.433H207.038V244.988H202.024V249.433ZM211.34 246.02H216.355V241.575H211.34V246.02ZM221.142 243.927H226.157V239.481H221.142V243.927ZM231.203 243.238H236.217V238.793H231.203V243.238ZM241.264 243.927H246.278V239.481H241.264V243.927ZM251.066 246.02H256.08V241.575H251.066V246.02ZM260.383 249.433H265.397V244.988H260.383V249.433ZM268.988 254.108H274.002V249.663H268.988V254.108ZM276.654 259.901H281.669V255.456H276.654V259.901ZM283.189 266.698H288.203V262.253H283.189V266.698ZM288.462 274.327H293.476V269.882H288.462V274.327ZM292.312 282.587H297.326V278.142H292.312V282.587ZM294.673 291.277H299.687V286.832H294.673V291.277ZM303.505 300.196H308.519V295.751H303.505V300.196ZM307.807 304.67H302.793V309.116H307.807V304.67ZM300.69 317.863H305.704V313.418H300.69V317.863ZM302.243 321.821H297.229V326.266H302.243V321.821ZM297.52 329.708H292.506V334.153H297.52V329.708ZM291.6 336.935H286.586V341.38H291.6V336.935ZM284.58 343.359H279.566V347.805H284.58V343.359ZM276.622 348.866H271.608V353.311H276.622V348.866ZM267.888 353.34H262.873V357.785H267.888V353.34ZM258.539 356.695H253.524V361.141H258.539V356.695ZM248.769 358.846H243.755V363.292H248.769V358.846ZM238.741 359.793H233.726V364.238H238.741V359.793ZM228.647 359.477H223.633V363.923H228.647V359.477ZM218.716 357.929H213.702V362.374H218.716V357.929ZM209.141 355.175H204.126V359.621H209.141V355.175ZM200.083 351.246H195.069V355.692H200.083V351.246ZM191.737 346.256H186.722V350.701H191.737V346.256ZM184.231 340.262H179.217V344.707H184.231V340.262ZM172.747 337.853H177.761V333.408H172.747V337.853ZM172.424 325.836H167.41V330.281H172.424V325.836ZM168.315 317.662H163.301V322.108H168.315V317.662ZM165.533 309.058H160.519V313.504H165.533V309.058ZM164.142 300.196H159.128V304.642H164.142V300.196ZM159.128 295.694H164.142V291.248H159.128V295.694ZM165.533 282.386H160.519V286.832H165.533V282.386ZM168.315 273.782H163.301V278.228H168.315V273.782ZM172.424 265.609H167.41V270.054H172.424V265.609ZM177.761 258.037H172.747V262.482H177.761V258.037ZM184.231 251.183H179.217V255.628H184.231V251.183ZM186.722 249.634H191.737V245.189H186.722V249.634ZM195.069 244.644H200.083V240.198H195.069V244.644ZM204.126 240.714H209.141V236.269H204.126V240.714ZM213.702 237.961H218.716V233.516H213.702V237.961ZM223.633 236.412H228.647V231.967H223.633V236.412ZM233.726 236.097H238.741V231.652H233.726V236.097ZM243.755 237.043H248.769V232.598H243.755V237.043ZM253.524 239.194H258.539V234.749H253.524V239.194ZM262.873 242.55H267.888V238.105H262.873V242.55ZM271.608 247.024H276.622V242.579H271.608V247.024ZM279.566 252.531H284.58V248.085H279.566V252.531ZM286.586 258.955H291.6V254.509H286.586V258.955ZM292.506 266.182H297.52V261.737H292.506V266.182ZM297.229 274.069H302.243V269.624H297.229V274.069ZM300.69 282.472H305.704V278.027H300.69V282.472ZM302.793 291.22H307.807V286.774H302.793V291.22ZM316.542 295.694H311.527V300.139H316.542V295.694ZM310.913 309.058H315.927V304.613H310.913V309.058ZM309.036 317.834H314.051V313.389H309.036V317.834ZM305.931 326.352H310.945V321.907H305.931V326.352ZM306.643 329.995H301.628V334.44H306.643V329.995ZM301.24 337.537H296.226V341.983H301.24V337.537ZM294.803 344.421H289.788V348.866H294.803V344.421ZM287.459 350.529H282.445V354.975H287.459V350.529ZM279.307 355.778H274.293V360.223H279.307V355.778ZM270.476 360.08H265.461V364.525H270.476V360.08ZM261.094 363.378H256.08V367.823H261.094V363.378ZM251.325 365.615H246.31V370.06H251.325V365.615ZM241.329 366.733H236.314V371.179H241.329V366.733ZM231.235 366.733H226.221V371.179H231.235V366.733ZM221.239 365.615H216.225V370.06H221.239V365.615ZM211.47 363.378H206.456V367.823H211.47V363.378ZM202.088 360.08H197.074V364.525H202.088V360.08ZM193.257 355.778H188.243V360.223H193.257V355.778ZM185.105 350.529H180.091V354.975H185.105V350.529ZM177.761 344.421H172.747V348.866H177.761V344.421ZM166.31 341.983H171.324V337.537H166.31V341.983ZM165.921 329.995H160.907V334.44H165.921V329.995ZM161.619 321.907H156.605V326.352H161.619V321.907ZM158.513 313.389H153.499V317.834H158.513V313.389ZM156.637 304.613H151.623V309.058H156.637V304.613ZM155.99 295.694H150.976V300.139H155.99V295.694ZM156.637 286.774H151.623V291.22H156.637V286.774ZM158.513 277.998H153.499V282.444H158.513V277.998ZM161.619 269.48H156.605V273.926H161.619V269.48ZM165.921 261.393H160.907V265.838H165.921V261.393ZM171.324 253.85H166.31V258.295H171.324V253.85ZM177.761 246.967H172.747V251.412H177.761V246.967ZM180.091 245.275H185.105V240.829H180.091V245.275ZM188.243 240.026H193.257V235.581H188.243V240.026ZM197.074 235.724H202.088V231.279H197.074V235.724ZM206.456 232.426H211.47V227.981H206.456V232.426ZM216.225 230.189H221.239V225.744H216.225V230.189ZM226.221 229.07H231.235V224.625H226.221V229.07ZM236.314 229.07H241.329V224.625H236.314V229.07ZM246.31 230.189H251.325V225.744H246.31V230.189ZM256.08 232.426H261.094V227.981H256.08V232.426ZM265.461 235.724H270.476V231.279H265.461V235.724ZM274.293 240.026H279.307V235.581H274.293V240.026ZM282.445 245.275H287.459V240.829H282.445V245.275ZM289.788 251.383H294.803V246.938H289.788V251.383ZM296.226 258.266H301.24V253.821H296.226V258.266ZM301.628 265.809H306.643V261.364H301.628V265.809ZM305.931 273.897H310.945V269.452H305.931V273.897ZM309.036 282.415H314.051V277.969H309.036V282.415ZM310.913 291.191H315.927V286.745H310.913V291.191ZM324.597 295.665H319.582V300.11H324.597V295.665ZM324.014 304.584H319V309.03H324.014V304.584ZM322.3 313.389H317.286V317.834H322.3V313.389ZM319.453 321.964H314.439V326.41H319.453V321.964ZM315.539 330.195H310.525V334.641H315.539V330.195ZM310.589 337.996H305.575V342.442H310.589V337.996ZM304.669 345.224H299.655V349.669H304.669V345.224ZM297.843 351.82H292.829V356.265H297.843V351.82ZM290.209 357.671H285.195V362.116H290.209V357.671ZM281.895 362.718H276.881V367.164H281.895V362.718ZM272.967 366.905H267.952V371.351H272.967V366.905ZM263.553 370.146H258.539V374.592H263.553V370.146ZM253.783 372.412H248.769V376.857H253.783V372.412ZM243.787 373.674H238.773V378.119H243.787V373.674ZM233.694 373.932H228.68V378.377H233.694V373.932ZM223.633 373.158H218.619V377.603H223.633V373.158ZM213.734 371.38H208.72V375.825H213.734V371.38ZM204.126 368.626H199.112V373.072H204.126V368.626ZM194.939 364.898H189.925V369.343H194.939V364.898ZM186.302 360.28H181.288V364.726H186.302V360.28ZM178.311 354.831H173.297V359.277H178.311V354.831ZM171.065 348.608H166.051V353.053H171.065V348.608ZM159.678 346.113H164.692V341.667H159.678V346.113ZM159.225 334.153H154.211V338.599H159.225V334.153ZM154.761 326.123H149.747V330.568H154.761V326.123ZM151.364 317.691H146.35V322.136H151.364V317.691ZM149.067 308.972H144.053V313.418H149.067V308.972ZM147.903 300.082H142.889V304.527H147.903V300.082ZM142.889 295.579H147.903V291.133H142.889V295.579ZM149.035 282.243H144.021V286.688H149.035V282.243ZM151.332 273.524H146.318V277.969H151.332V273.524ZM154.728 265.092H149.714V269.538H154.728V265.092ZM159.193 257.062H154.179V261.507H159.193V257.062ZM164.66 249.548H159.646V253.993H164.66V249.548ZM171.033 242.636H166.019V247.081H171.033V242.636ZM173.265 240.829H178.279V236.384H173.265V240.829ZM181.255 235.38H186.269V230.935H181.255V235.38ZM189.893 230.763H194.907V226.317H189.893V230.763ZM199.08 227.034H204.094V222.589H199.08V227.034ZM208.688 224.281H213.702V219.836H208.688V224.281ZM218.587 222.503H223.601V218.057H218.587V222.503ZM228.647 221.728H233.662V217.283H228.647V221.728ZM238.741 221.987H243.755V217.541H238.741V221.987ZM248.737 223.248H253.751V218.803H248.737V223.248ZM258.506 225.514H263.52V221.069H258.506V225.514ZM267.92 228.755H272.934V224.31H267.92V228.755ZM276.849 232.942H281.863V228.497H276.849V232.942ZM285.162 237.99H290.177V233.545H285.162V237.99ZM292.797 243.841H297.811V239.395H292.797V243.841ZM299.623 250.437H304.637V245.992H299.623V250.437ZM305.543 257.664H310.557V253.219H305.543V257.664ZM310.492 265.465H315.506V261.02H310.492V265.465ZM314.406 273.696H319.421V269.251H314.406V273.696ZM317.253 282.271H322.267V277.826H317.253V282.271ZM318.968 291.076H323.982V286.631H318.968V291.076ZM332.587 295.579H327.573V300.024H332.587V295.579ZM332.069 304.498H327.055V308.944H332.069V304.498ZM330.484 313.332H325.47V317.777H330.484V313.332ZM327.864 321.964H322.85V326.41H327.864V321.964ZM324.241 330.31H319.227V334.755H324.241V330.31ZM319.647 338.283H314.633V342.728H319.647V338.283ZM314.148 345.797H309.133V350.243H314.148V345.797ZM307.807 352.738H302.793V357.183H307.807V352.738ZM300.658 359.076H295.644V363.521H300.658V359.076ZM292.829 364.697H287.815V369.142H292.829V364.697ZM284.354 369.573H279.339V374.018H284.354V369.573ZM275.36 373.645H270.346V378.091H275.36V373.645ZM265.947 376.857H260.932V381.303H265.947V376.857ZM256.209 379.18H251.195V383.626H256.209V379.18ZM246.246 380.586H241.232V385.031H246.246V380.586ZM236.185 381.045H231.171V385.49H236.185V381.045ZM226.124 380.586H221.11V385.031H226.124V380.586ZM216.161 379.18H211.146V383.626H216.161V379.18ZM206.423 376.857H201.409V381.303H206.423V376.857ZM197.01 373.645H191.995V378.091H197.01V373.645ZM188.016 369.573H183.002V374.018H188.016V369.573ZM179.541 364.697H174.526V369.142H179.541V364.697ZM171.712 359.076H166.698V363.521H171.712V359.076ZM164.563 352.738H159.549V357.183H164.563V352.738ZM153.208 350.214H158.222V345.768H153.208V350.214ZM152.723 338.283H147.709V342.728H152.723V338.283ZM148.129 330.31H143.115V334.755H148.129V330.31ZM144.506 321.964H139.492V326.41H144.506V321.964ZM141.886 313.332H136.871V317.777H141.886V313.332ZM140.301 304.498H135.286V308.944H140.301V304.498ZM139.783 295.579H134.769V300.024H139.783V295.579ZM140.301 286.659H135.286V291.105H140.301V286.659ZM141.886 277.826H136.871V282.271H141.886V277.826ZM144.506 269.193H139.492V273.639H144.506V269.193ZM148.129 260.848H143.115V265.293H148.129V260.848ZM152.723 252.875H147.709V257.32H152.723V252.875ZM158.222 245.361H153.208V249.806H158.222V245.361ZM164.563 238.42H159.549V242.865H164.563V238.42ZM166.698 236.527H171.712V232.082H166.698V236.527ZM179.541 226.461H174.526V230.906H179.541V226.461ZM183.002 226.03H188.016V221.585H183.002V226.03ZM191.995 221.958H197.01V217.513H191.995V221.958ZM201.409 218.746H206.423V214.3H201.409V218.746ZM211.146 216.423H216.161V211.977H211.146V216.423ZM221.11 215.017H226.124V210.572H221.11V215.017ZM231.171 214.559H236.185V210.113H231.171V214.559ZM241.232 215.017H246.246V210.572H241.232V215.017ZM251.195 216.423H256.209V211.977H251.195V216.423ZM260.932 218.746H265.947V214.3H260.932V218.746ZM270.346 221.958H275.36V217.513H270.346V221.958ZM279.339 226.03H284.354V221.585H279.339V226.03ZM287.815 230.906H292.829V226.461H287.815V230.906ZM295.644 236.527H300.658V232.082H295.644V236.527ZM302.793 242.865H307.807V238.42H302.793V242.865ZM309.133 249.806H314.148V245.361H309.133V249.806ZM314.633 257.32H319.647V252.875H314.633V257.32ZM319.227 265.293H324.241V260.848H319.227V265.293ZM322.85 273.639H327.864V269.193H322.85V273.639ZM325.47 282.271H330.484V277.826H325.47V282.271ZM332.069 286.659H327.055V291.105H332.069V286.659ZM340.642 295.579H335.628V300.024H340.642V295.579ZM335.143 308.944H340.157V304.498H335.143V308.944ZM338.701 313.36H333.687V317.806H338.701V313.36ZM336.275 322.05H331.261V326.496H336.275V322.05ZM332.91 330.482H327.896V334.928H332.91V330.482ZM328.673 338.599H323.658V343.044H328.673V338.599ZM323.561 346.313H318.547V350.759H323.561V346.313ZM317.641 353.541H312.627V357.986H317.641V353.541ZM310.945 360.223H305.931V364.668H310.945V360.223ZM303.569 366.303H298.555V370.749H303.569V366.303ZM295.547 371.724H290.532V376.169H295.547V371.724ZM286.974 376.456H281.96V380.901H286.974V376.456ZM277.916 380.414H272.902V384.859H277.916V380.414ZM268.47 383.597H263.456V388.042H268.47V383.597ZM258.733 385.949H253.718V390.394H258.733V385.949ZM248.801 387.469H243.787V391.914H248.801V387.469ZM238.741 388.129H233.726V392.574H238.741V388.129ZM228.647 387.899H223.633V392.344H228.647V387.899ZM218.619 386.809H213.605V391.255H218.619V386.809ZM208.785 384.888H203.771V389.333H208.785V384.888ZM199.177 382.134H194.163V386.58H199.177V382.134ZM189.925 378.549H184.911V382.995H189.925V378.549ZM181.093 374.19H176.079V378.635H181.093V374.19ZM172.78 369.114H167.765V373.559H172.78V369.114ZM165.08 363.349H160.066V367.795H165.08V363.349ZM158.028 356.954H153.014V361.399H158.028V356.954ZM146.706 354.43H151.72V349.984H146.706V354.43ZM146.188 342.499H141.174V346.944H146.188V342.499ZM141.497 334.583H136.483V339.029H141.497V334.583ZM137.68 326.295H132.666V330.74H137.68V326.295ZM134.801 317.72H129.787V322.165H134.801V317.72ZM132.86 308.944H127.846V313.389H132.86V308.944ZM131.89 300.053H126.875V304.498H131.89V300.053ZM126.875 295.55H131.89V291.105H126.875V295.55ZM132.86 282.214H127.846V286.659H132.86V282.214ZM134.801 273.438H129.787V277.883H134.801V273.438ZM137.68 264.863H132.666V269.308H137.68V264.863ZM136.483 261.02H141.497V256.574H136.483V261.02ZM146.188 248.659H141.174V253.104H146.188V248.659ZM151.72 241.173H146.706V245.619H151.72V241.173ZM158.028 234.204H153.014V238.65H158.028V234.204ZM160.066 232.254H165.08V227.809H160.066V232.254ZM172.78 222.044H167.765V226.489H172.78V222.044ZM176.079 221.413H181.093V216.968H176.079V221.413ZM184.911 217.054H189.925V212.608H184.911V217.054ZM194.163 213.469H199.177V209.023H194.163V213.469ZM203.771 210.715H208.785V206.27H203.771V210.715ZM213.637 208.794H218.651V204.349H213.637V208.794ZM223.666 207.704H228.68V203.259H223.666V207.704ZM233.759 207.475H238.773V203.029H233.759V207.475ZM243.819 208.134H248.834V203.689H243.819V208.134ZM253.751 209.654H258.765V205.209H253.751V209.654ZM263.488 212.006H268.502V207.561H263.488V212.006ZM272.934 215.189H277.948V210.744H272.934V215.189ZM281.992 219.147H287.006V214.702H281.992V219.147ZM290.565 223.879H295.579V219.434H290.565V223.879ZM298.587 229.3H303.602V224.855H298.587V229.3ZM305.963 235.38H310.977V230.935H305.963V235.38ZM312.66 242.062H317.674V237.617H312.66V242.062ZM318.58 249.29H323.594V244.844H318.58V249.29ZM323.691 257.005H328.705V252.559H323.691V257.005ZM327.929 265.121H332.943V260.676H327.929V265.121ZM331.293 273.553H336.307V269.107H331.293V273.553ZM333.719 282.243H338.733V277.797H333.719V282.243ZM340.189 286.659H335.175V291.105H340.189V286.659ZM348.697 295.608H343.683V300.053H348.697V295.608ZM348.244 304.556H343.23V309.001H348.244V304.556ZM346.886 313.418H341.871V317.863H346.886V313.418ZM344.653 322.136H339.639V326.582H344.653V322.136ZM341.548 330.654H336.534V335.1H341.548V330.654ZM337.569 338.885H332.555V343.331H337.569V338.885ZM332.781 346.772H327.767V351.218H332.781V346.772ZM327.217 354.229H322.203V358.674H327.217V354.229ZM320.941 361.227H315.927V365.672H320.941V361.227ZM313.954 367.68H308.939V372.125H313.954V367.68ZM306.351 373.559H301.337V378.005H306.351V373.559ZM298.199 378.808H293.185V383.253H298.199V378.808ZM289.53 383.396H284.515V387.842H289.53V383.396ZM280.439 387.268H275.425V391.713H280.439V387.268ZM270.993 390.423H265.979V394.868H270.993V390.423ZM261.256 392.803H256.242V397.249H261.256V392.803ZM251.325 394.409H246.31V398.855H251.325V394.409ZM241.264 395.212H236.25V399.658H241.264V395.212ZM231.171 395.212H226.157V399.658H231.171V395.212ZM221.11 394.409H216.096V398.855H221.11V394.409ZM211.179 392.803H206.164V397.249H211.179V392.803ZM201.441 390.423H196.427V394.868H201.441V390.423ZM191.995 387.268H186.981V391.713H191.995V387.268ZM182.905 383.396H177.891V387.842H182.905V383.396ZM174.235 378.808H169.221V383.253H174.235V378.808ZM166.083 373.559H161.069V378.005H166.083V373.559ZM158.481 367.68H153.467V372.125H158.481V367.68ZM151.494 361.227H146.479V365.672H151.494V361.227ZM140.203 358.674H145.218V354.229H140.203V358.674ZM139.654 346.772H134.639V351.218H139.654V346.772ZM134.866 338.885H129.852V343.331H134.866V338.885ZM130.887 330.654H125.873V335.1H130.887V330.654ZM127.781 322.136H122.767V326.582H127.781V322.136ZM125.549 313.418H120.535V317.863H125.549V313.418ZM124.19 304.556H119.176V309.001H124.19V304.556ZM118.723 300.053H123.737V295.608H118.723V300.053ZM124.19 286.688H119.176V291.133H124.19V286.688ZM125.549 277.826H120.535V282.271H125.549V277.826ZM127.781 269.107H122.767V273.553H127.781V269.107ZM125.905 265.035H130.919V260.59H125.905V265.035ZM134.866 252.358H129.852V256.804H134.866V252.358ZM134.639 248.917H139.654V244.472H134.639V248.917ZM145.218 237.015H140.203V241.46H145.218V237.015ZM146.512 234.462H151.526V230.017H146.512V234.462ZM153.499 223.564V228.009H158.513V223.564H153.499ZM166.116 217.685H161.101V222.13H166.116V217.685ZM169.286 216.853H174.3V212.408H169.286V216.853ZM177.956 212.264H182.97V207.819H177.956V212.264ZM187.046 208.392H192.06V203.947H187.046V208.392ZM196.492 205.238H201.506V200.792H196.492V205.238ZM206.229 202.857H211.243V198.412H206.229V202.857ZM216.161 201.251H221.175V196.806H216.161V201.251ZM226.221 200.448H231.235V196.003H226.221V200.448ZM236.314 200.448H241.329V196.003H236.314V200.448ZM246.375 201.251H251.389V196.806H246.375V201.251ZM256.306 202.857H261.321V198.412H256.306V202.857ZM266.044 205.238H271.058V200.792H266.044V205.238ZM275.49 208.392H280.504V203.947H275.49V208.392ZM284.58 212.264H289.594V207.819H284.58V212.264ZM293.25 216.853H298.264V212.408H293.25V216.853ZM301.402 222.101H306.416V217.656H301.402V222.101ZM309.004 227.981H314.018V223.535H309.004V227.981ZM315.992 234.434H321.006V229.988H315.992V234.434ZM322.267 241.431H327.282V236.986H322.267V241.431ZM327.832 248.888H332.846V244.443H327.832V248.888ZM332.619 256.775H337.634V252.33H332.619V256.775ZM336.598 265.006H341.613V260.561H336.598V265.006ZM344.718 269.079H339.704V273.524H344.718V269.079ZM346.95 277.797H341.936V282.243H346.95V277.797ZM343.295 291.105H348.309V286.659H343.295V291.105ZM356.785 295.608H351.77V300.053H356.785V295.608ZM356.364 304.556H351.35V309.001H356.364V304.556ZM355.102 313.418H350.088V317.863H355.102V313.418ZM353 322.165H347.985V326.61H353V322.165ZM350.088 330.74H345.074V335.186H350.088V330.74ZM346.368 339.057H341.354V343.503H346.368V339.057ZM341.871 347.059H336.857V351.504H341.871V347.059ZM336.631 354.717H331.616V359.162H336.631V354.717ZM330.711 361.944H325.697V366.389H330.711V361.944ZM324.111 368.712H319.097V373.158H324.111V368.712ZM316.897 374.964H311.883V379.41H316.897V374.964ZM309.133 380.672H304.119V385.117H309.133V380.672ZM300.852 385.777H295.838V390.222H300.852V385.777ZM292.118 390.251H287.103V394.696H292.118V390.251ZM282.995 394.065H277.981V398.511H282.995V394.065ZM273.549 397.191H268.535V401.637H273.549V397.191ZM263.844 399.6H258.83V404.046H263.844V399.6ZM253.945 401.264H248.931V405.709H253.945V401.264ZM243.917 402.21H238.902V406.656H243.917V402.21ZM233.823 402.411H228.809V406.856H233.823V402.411ZM223.763 401.837H218.748V406.283H223.763V401.837ZM213.767 400.518H208.752V404.964H213.767V400.518ZM203.932 398.482H198.918V402.927H203.932V398.482ZM194.324 395.729H189.31V400.174H194.324V395.729ZM185.008 392.258H179.994V396.704H185.008V392.258ZM176.079 388.129H171.065V392.574H176.079V388.129ZM167.571 383.339H162.557V387.784H167.571V383.339ZM159.549 377.918H154.534V382.364H159.549V377.918ZM152.043 371.924H147.029V376.37H152.043V371.924ZM145.121 365.414H140.106V369.859H145.121V365.414ZM133.831 362.833H138.845V358.388H133.831V362.833ZM133.248 350.931H128.234V355.376H133.248V350.931ZM128.396 343.101H123.382V347.547H128.396V343.101ZM124.287 334.928H119.273V339.373H124.287V334.928ZM120.955 326.467H115.941V330.912H120.955V326.467ZM118.432 317.806H113.418V322.251H118.432V317.806ZM116.75 308.972H111.736V313.418H116.75V308.972ZM115.909 300.053H110.895V304.498H115.909V300.053ZM110.895 295.55H115.909V291.105H110.895V295.55ZM111.736 286.631H116.75V282.185H111.736V286.631ZM113.418 277.797H118.432V273.352H113.418V277.797ZM115.941 269.136H120.955V264.691H115.941V269.136ZM119.273 260.676H124.287V256.23H119.273V260.676ZM128.396 248.056H123.382V252.502H128.396V248.056ZM133.248 240.227H128.234V244.672H133.248V240.227ZM133.831 237.216H138.845V232.77H133.831V237.216ZM140.106 230.218H145.121V225.772H140.106V230.218ZM147.029 223.707H152.043V219.262H147.029V223.707ZM159.549 213.268H154.534V217.713H159.549V213.268ZM167.571 207.847H162.557V212.293H167.571V207.847ZM171.097 207.503H176.112V203.058H171.097V207.503ZM180.026 203.345H185.04V198.899H180.026V203.345ZM189.343 199.874H194.357V195.429H189.343V199.874ZM198.95 197.121H203.965V192.676H198.95V197.121ZM208.785 195.085H213.799V190.64H208.785V195.085ZM218.781 193.766H223.795V189.32H218.781V193.766ZM228.842 193.192H233.856V188.747H228.842V193.192ZM238.935 193.393H243.949V188.947H238.935V193.393ZM248.963 194.339H253.977V189.894H248.963V194.339ZM258.862 196.003H263.876V191.557H258.862V196.003ZM268.567 198.412H273.581V193.966H268.567V198.412ZM283.027 197.092H278.013V201.538H283.027V197.092ZM292.15 200.907H287.136V205.352H292.15V200.907ZM300.884 205.381H295.87V209.826H300.884V205.381ZM309.166 210.486H304.152V214.931H309.166V210.486ZM311.916 220.639H316.93V216.193H311.916V220.639ZM319.13 226.891H324.144V222.445H319.13V226.891ZM325.729 233.659H330.743V229.214H325.729V233.659ZM331.649 240.887H336.663V236.441H331.649V240.887ZM336.889 248.544H341.904V244.099H336.889V248.544ZM341.386 256.546H346.4V252.1H341.386V256.546ZM345.106 264.863H350.121V260.417H345.106V264.863ZM348.018 273.438H353.032V268.993H348.018V273.438ZM350.121 282.185H355.135V277.74H350.121V282.185ZM351.382 291.047H356.396V286.602H351.382V291.047ZM364.84 295.55H359.825V299.996H364.84V295.55ZM364.451 304.498H359.437V308.944H364.451V304.498ZM358.273 317.834H363.287V313.389H358.273V317.834ZM361.314 322.165H356.299V326.61H361.314V322.165ZM358.564 330.769H353.55V335.214H358.564V330.769ZM355.07 339.172H350.056V343.617H355.07V339.172ZM350.832 347.289H345.818V351.734H350.832V347.289ZM345.915 355.089H340.901V359.535H345.915V355.089ZM340.319 362.517H335.304V366.963H340.319V362.517ZM334.075 369.544H329.061V373.989H334.075V369.544ZM327.217 376.112H322.203V380.557H327.217V376.112ZM319.809 382.192H314.795V386.637H319.809V382.192ZM311.883 387.727H306.869V392.172H311.883V387.727ZM303.505 392.689H298.49V397.134H303.505V392.689ZM294.706 397.048H289.691V401.493H294.706V397.048ZM285.551 400.805H280.536V405.25H285.551V400.805ZM276.072 403.902H271.058V408.348H276.072V403.902ZM266.367 406.34H261.353V410.786H266.367V406.34ZM256.468 408.09H251.454V412.535H256.468V408.09ZM246.44 409.151H241.426V413.596H246.44V409.151ZM236.347 409.495H231.333V413.94H236.347V409.495ZM226.254 409.151H221.239V413.596H226.254V409.151ZM216.225 408.09H211.211V412.535H216.225V408.09ZM206.326 406.34H201.312V410.786H206.326V406.34ZM196.621 403.902H191.607V408.348H196.621V403.902ZM187.143 400.805H182.129V405.25H187.143V400.805ZM177.988 397.048H172.974V401.493H177.988V397.048ZM169.189 392.689H164.175V397.134H169.189V392.689ZM160.81 387.727H155.796V392.172H160.81V387.727ZM152.885 382.192H147.87V386.637H152.885V382.192ZM145.476 376.112H140.462V380.557H145.476V376.112ZM138.618 369.544H133.604V373.989H138.618V369.544ZM132.375 362.517H127.361V366.963H132.375V362.517ZM126.778 355.089H121.764V359.535H126.778V355.089ZM121.861 347.289H116.847V351.734H121.861V347.289ZM117.623 339.172H112.609V343.617H117.623V339.172ZM114.13 330.769H109.115V335.214H114.13V330.769ZM111.38 322.165H106.366V326.61H111.38V322.165ZM109.407 313.389H104.392V317.834H109.407V313.389ZM108.21 304.498H103.195V308.944H108.21V304.498ZM102.807 299.996H107.821V295.55H102.807V299.996ZM103.195 291.047H108.21V286.602H103.195V291.047ZM104.392 282.157H109.407V277.711H104.392V282.157ZM106.366 273.381H111.38V268.935H106.366V273.381ZM109.115 264.777H114.13V260.331H109.115V264.777ZM112.609 256.374H117.623V251.928H112.609V256.374ZM116.847 248.257H121.861V243.812H116.847V248.257ZM126.778 236.011H121.764V240.456H126.778V236.011ZM132.375 228.583H127.361V233.028H132.375V228.583ZM133.604 226.002H138.618V221.556H133.604V226.002ZM140.462 219.434H145.476V214.989H140.462V219.434ZM152.885 208.909H147.87V213.354H152.885V208.909ZM160.81 203.373H155.796V207.819H160.81V203.373ZM164.175 202.857H169.189V198.412H164.175V202.857ZM172.974 198.498H177.988V194.052H172.974V198.498ZM182.129 194.741H187.143V190.295H182.129V194.741ZM191.607 191.643H196.621V187.198H191.607V191.643ZM201.312 189.206H206.326V184.76H201.312V189.206ZM211.211 187.456H216.225V183.011H211.211V187.456ZM221.239 186.395H226.254V181.95H221.239V186.395ZM231.333 186.051H236.347V181.605H231.333V186.051ZM241.426 186.395H246.44V181.95H241.426V186.395ZM251.454 187.456H256.468V183.011H251.454V187.456ZM261.353 189.206H266.367V184.76H261.353V189.206ZM271.058 191.643H276.072V187.198H271.058V191.643ZM285.518 190.295H280.504V194.741H285.518V190.295ZM294.511 194.167H289.821V198.326H294.511V194.167ZM303.472 198.412H298.458V202.857H303.472V198.412ZM311.851 203.373H306.837V207.819H311.851V203.373ZM319.777 208.909H314.762V213.354H319.777V208.909ZM327.185 214.989H322.17V219.434H327.185V214.989ZM329.029 226.002H334.043V221.556H329.029V226.002ZM335.272 233.028H340.286V228.583H335.272V233.028ZM340.868 240.456H345.883V236.011H340.868V240.456ZM345.786 248.257H350.8V243.812H345.786V248.257ZM350.023 256.374H355.038V251.928H350.023V256.374ZM353.517 264.777H358.531V260.331H353.517V264.777ZM356.267 273.381H361.281V268.935H356.267V273.381ZM358.24 282.157H363.254V277.711H358.24V282.157ZM359.437 291.047H364.451V286.602H359.437V291.047ZM372.862 295.55H367.848V299.996H372.862V295.55ZM372.474 304.498H367.46V308.944H372.474V304.498ZM371.374 313.389H366.36V317.834H371.374V313.389ZM369.53 322.194H364.516V326.639H369.53V322.194ZM366.942 330.855H361.928V335.3H366.942V330.855ZM363.643 339.316H358.628V343.761H363.643V339.316ZM359.664 347.518H354.649V351.963H359.664V347.518ZM355.005 355.462H349.991V359.908H355.005V355.462ZM349.7 363.062H344.686V367.508H349.7V363.062ZM343.78 370.29H338.766V374.735H343.78V370.29ZM337.245 377.115H332.231V381.561H337.245V377.115ZM330.161 383.511H325.147V387.956H330.161V383.511ZM322.591 389.419H317.577V393.864H322.591V389.419ZM314.536 394.811H309.522V399.256H314.536V394.811ZM306.06 399.658H301.046V404.103H306.06V399.658ZM297.196 403.931H292.182V408.376H297.196V403.931ZM288.009 407.631H282.995V412.076H288.009V407.631ZM278.531 410.7H273.516V415.145H278.531V410.7ZM268.826 413.137H263.812V417.583H268.826V413.137ZM258.927 414.944H253.913V419.389H258.927V414.944ZM248.931 416.091H243.917V420.537H248.931V416.091ZM238.87 416.579H233.856V421.024H238.87V416.579ZM228.777 416.407H223.763V420.852H228.777V416.407ZM218.716 415.575H213.702V420.02H218.716V415.575ZM208.752 414.084H203.738V418.529H208.752V414.084ZM198.95 411.961H193.936V416.407H198.95V411.961ZM189.343 409.208H184.328V413.654H189.343V409.208ZM179.994 405.824H174.979V410.269H179.994V405.824ZM170.968 401.837H165.954V406.283H170.968V401.837ZM162.298 397.277H157.284V401.723H162.298V397.277ZM154.017 392.144H149.003V396.589H154.017V392.144ZM146.188 386.494H141.174V390.939H146.188V386.494ZM138.845 380.356H133.831V384.802H138.845V380.356ZM132.051 373.731H127.037V378.177H132.051V373.731ZM125.808 366.705H120.794V371.15H125.808V366.705ZM120.179 359.277H115.165V363.722H120.179V359.277ZM115.197 351.504H110.183V355.95H115.197V351.504ZM110.862 343.417H105.848V347.862H110.862V343.417ZM107.207 335.071H102.193V339.516H107.207V335.071ZM104.263 326.524H99.2488V330.97H104.263V326.524ZM102.031 317.806H97.0167V322.251H102.031V317.806ZM95.5286 313.389H100.543V308.944H95.5286V313.389ZM99.7987 300.024H94.7845V304.47H99.7987V300.024ZM94.7845 295.522H99.7987V291.076H94.7845V295.522ZM100.543 282.157H95.5286V286.602H100.543V282.157ZM97.0167 277.74H102.031V273.295H97.0167V277.74ZM99.2488 269.021H104.263V264.576H99.2488V269.021ZM102.193 260.475H107.207V256.029H102.193V260.475ZM105.848 252.129H110.862V247.684H105.848V252.129ZM110.183 244.041H115.197V239.596H110.183V244.041ZM115.165 236.269H120.179V231.824H115.165V236.269ZM125.808 224.396H120.794V228.841H125.808V224.396ZM127.037 221.786H132.051V217.34H127.037V221.786ZM133.831 215.161H138.845V210.715H133.831V215.161ZM141.174 209.023H146.188V204.578H141.174V209.023ZM149.003 203.373H154.017V198.928H149.003V203.373ZM157.284 198.24H162.298V193.794H157.284V198.24ZM165.954 193.68H170.968V189.234H165.954V193.68ZM174.979 189.693H179.994V185.248H174.979V189.693ZM184.328 186.309H189.343V181.864H184.328V186.309ZM193.936 183.556H198.95V179.11H193.936V183.556ZM203.738 181.433H208.752V176.988H203.738V181.433ZM213.702 179.942H218.716V175.497H213.702V179.942ZM223.763 179.11H228.777V174.665H223.763V179.11ZM233.856 178.938H238.87V174.493H233.856V178.938ZM243.917 179.426H248.931V174.98H243.917V179.426ZM254.042 180.458H258.797V176.242H254.042V180.458ZM264.556 181.72H268.049V178.623H264.556V181.72ZM277.172 181.577H274.843V183.642H277.172V181.577ZM286.003 185.219H284.968V186.137H286.003V185.219ZM304.055 193.192H303.019V194.11H304.055V193.192ZM313.727 197.006H310.33V200.018H313.727V197.006ZM322.138 202.083H318.03V205.725H322.138V202.083ZM330.161 207.589H325.147V212.035H330.161V207.589ZM332.231 218.402H337.245V213.956H332.231V218.402ZM338.733 225.227H343.748V220.782H338.733V225.227ZM344.653 232.455H349.668V228.009H344.653V232.455ZM349.959 240.055H354.973V235.609H349.959V240.055ZM354.617 247.999H359.631V243.554H354.617V247.999ZM358.596 256.202H363.61V251.756H358.596V256.202ZM366.91 260.217H361.896V264.662H366.91V260.217ZM369.498 268.878H364.484V273.323H369.498V268.878ZM371.342 277.683H366.328V282.128H371.342V277.683ZM367.46 291.019H372.474V286.573H367.46V291.019ZM380.885 295.522H375.871V299.967H380.885V295.522ZM380.529 304.47H375.515V308.915H380.529V304.47ZM379.462 313.36H374.447V317.806H379.462V313.36ZM377.715 322.165H372.701V326.61H377.715V322.165ZM375.289 330.855H370.274V335.3H375.289V330.855ZM372.183 339.373H367.169V343.818H372.183V339.373ZM368.398 347.661H363.384V352.107H368.398V347.661ZM363.966 355.692H358.952V360.137H363.966V355.692ZM358.92 363.435H353.905V367.881H358.92V363.435ZM353.291 370.863H348.277V375.309H353.291V370.863ZM347.08 377.918H342.065V382.364H347.08V377.918ZM340.319 384.572H335.304V389.018H340.319V384.572ZM333.072 390.796H328.058V395.241H333.072V390.796ZM325.341 396.56H320.326V401.006H325.341V396.56ZM317.189 401.809H312.174V406.254H317.189V401.809ZM308.616 406.541H303.602V410.986H308.616V406.541ZM299.72 410.728H294.706V415.174H299.72V410.728ZM290.5 414.371H285.486V418.816H290.5V414.371ZM281.022 417.439H276.007V421.885H281.022V417.439ZM271.317 419.906H266.302V424.351H271.317V419.906ZM261.45 421.77H256.436V426.215H261.45V421.77ZM251.454 423.003H246.44V427.448H251.454V423.003ZM241.393 423.634H236.379V428.079H241.393V423.634ZM231.3 423.634H226.286V428.079H231.3V423.634ZM221.239 423.003H216.225V427.448H221.239V423.003ZM211.243 421.77H206.229V426.215H211.243V421.77ZM201.377 419.906H196.363V424.351H201.377V419.906ZM191.672 417.439H186.658V421.885H191.672V417.439ZM182.193 414.371H177.179V418.816H182.193V414.371ZM172.974 410.728H167.959V415.174H172.974V410.728ZM164.078 406.541H159.063V410.986H164.078V406.541ZM155.505 401.809H150.491V406.254H155.505V401.809ZM147.353 396.56H142.339V401.006H147.353V396.56ZM139.621 390.796H134.607V395.241H139.621V390.796ZM132.375 384.572H127.361V389.018H132.375V384.572ZM125.614 377.918H120.6V382.364H125.614V377.918ZM114.388 375.309H119.403V370.863H114.388V375.309ZM113.741 363.464H108.727V367.909H113.741V363.464ZM108.695 355.72H103.681V360.166H108.695V355.72ZM104.263 347.69H99.2488V352.135H104.263V347.69ZM99.5723 340.205H96.3697V343.044H99.5723V340.205ZM93.07 334.698H96.6285V331.543H93.07V334.698ZM93.8464 323.169H90.9673V325.721H93.8464V323.169ZM92.7465 313.791H88.5734V317.49H92.7465V313.791ZM92.1319 304.527H87.1177V308.972H92.1319V304.527ZM91.776 295.579H86.7618V300.024H91.776V295.579ZM92.1319 286.631H87.1177V291.076H92.1319V286.631ZM93.1994 277.74H88.1852V282.185H93.1994V277.74ZM94.9463 268.935H89.9321V273.381H94.9463V268.935ZM97.3725 260.245H92.3583V264.691H97.3725V260.245ZM95.4962 256.173H100.51V251.727H95.4962V256.173ZM99.2811 247.884H104.295V243.439H99.2811V247.884ZM103.713 239.854H108.727V235.409H103.713V239.854ZM108.76 232.111H113.774V227.665H108.76V232.111ZM114.388 224.682H119.403V220.237H114.388V224.682ZM120.6 217.627H125.614V213.182H120.6V217.627ZM127.361 210.974H132.375V206.528H127.361V210.974ZM134.607 204.75H139.621V200.305H134.607V204.75ZM147.353 194.569H142.339V199.014H147.353V194.569ZM150.523 193.737H155.537V189.292H150.523V193.737ZM159.096 189.005H164.11V184.559H159.096V189.005ZM167.992 184.818H173.006V180.372H167.992V184.818ZM177.212 181.175H182.226V176.73H177.212V181.175ZM186.69 178.107H191.704V173.661H186.69V178.107ZM196.395 175.64H201.409V171.195H196.395V175.64ZM206.262 173.776H211.276V169.33H206.262V173.776ZM216.258 172.543H221.272V168.097H216.258V172.543ZM226.318 171.912H231.333V167.466H226.318V171.912ZM236.411 171.912H241.426V167.466H236.411V171.912ZM246.472 172.543H251.486V168.097H246.472V172.543ZM257.115 173.202H260.803V169.933H257.115V173.202ZM332.425 200.936H328.77V204.176H332.425V200.936ZM340.351 206.557H335.337V211.002H340.351V206.557ZM342.098 217.656H347.112V213.211H342.098V217.656ZM348.309 224.711H353.323V220.266H348.309V224.711ZM353.938 232.139H358.952V227.694H353.938V232.139ZM358.984 239.883H363.999V235.437H358.984V239.883ZM363.416 247.913H368.43V243.468H363.416V247.913ZM367.201 256.202H372.215V251.756H367.201V256.202ZM370.307 264.719H375.321V260.274H370.307V264.719ZM372.733 273.409H377.747V268.964H372.733V273.409ZM374.48 282.214H379.494V277.769H374.48V282.214ZM375.547 291.105H380.562V286.659H375.547V291.105ZM388.94 295.608H383.926V300.053H388.94V295.608ZM388.617 304.556H383.602V309.001H388.617V304.556ZM387.614 313.446H382.6V317.892H387.614V313.446ZM385.964 322.28H380.95V326.725H385.964V322.28ZM383.635 330.998H378.621V335.444H383.635V330.998ZM380.659 339.545H375.644V343.99H380.659V339.545ZM377.068 347.919H372.054V352.365H377.068V347.919ZM367.848 360.481H372.862V356.036H367.848V360.481ZM363.222 368.196H367.88V364.066H363.222V368.196ZM358.111 375.538H362.252V371.867H358.111V375.538ZM352.288 382.679H356.235V379.18H352.288V382.679ZM345.656 389.735H349.959V385.92H345.656V389.735ZM339.898 395.155H341.807V393.463H339.898V395.155ZM331.681 401.923H335.175V398.826H331.681V401.923ZM323.529 407.803H327.637V404.16H323.529V407.803ZM315.7 412.564H318.903V409.724H315.7V412.564ZM311.107 413.625H306.254V417.927H311.107V413.625ZM302.243 417.669H297.229V422.114H302.243V417.669ZM292.991 421.254H287.977V425.699H292.991V421.254ZM283.513 424.294H278.498V428.739H283.513V424.294ZM273.808 426.789H268.793V431.234H273.808V426.789ZM263.941 428.71H258.927V433.156H263.941V428.71ZM253.977 430.03H248.963V434.475H253.977V430.03ZM243.917 430.775H238.902V435.221H243.917V430.775ZM233.823 430.919H228.809V435.364H233.823V430.919ZM223.73 430.489H218.716V434.934H223.73V430.489ZM213.702 429.456H208.688V433.901H213.702V429.456ZM203.771 427.85H198.756V432.295H203.771V427.85ZM194.001 425.642H188.987V430.087H194.001V425.642ZM184.393 422.888H179.379V427.334H184.393V422.888ZM175.012 419.562H169.998V424.007H175.012V419.562ZM165.921 415.69H160.907V420.135H165.921V415.69ZM157.122 411.302H152.108V415.747H157.122V411.302ZM148.679 406.398H143.665V410.843H148.679V406.398ZM140.624 401.006H135.61V405.451H140.624V401.006ZM132.99 395.155H127.975V399.6H132.99V395.155ZM125.808 388.874H120.794V393.32H125.808V388.874ZM119.111 382.192H114.097V386.637H119.111V382.192ZM112.9 375.137H107.886V379.582H112.9V375.137ZM102.225 372.183H107.239V367.737H102.225V372.183ZM102.128 360.022H97.1137V364.468H102.128V360.022ZM96.7255 352.824H93.5229V355.663H96.7255V352.824ZM82.9446 330.97H87.6676V326.782H82.9446V330.97ZM85.8237 317.892H80.8095V322.337H85.8237V317.892ZM84.4973 309.03H79.4831V313.475H84.4973V309.03ZM83.818 300.11H78.8038V304.556H83.818V300.11ZM83.818 291.162H78.8038V295.608H83.818V291.162ZM84.4973 282.243H79.4831V286.688H84.4973V282.243ZM85.8237 273.381H80.8095V277.826H85.8237V273.381ZM87.8294 264.605H82.8152V269.05H87.8294V264.605ZM90.482 255.972H85.4678V260.417H90.482V255.972ZM93.7494 247.512H88.7352V251.957H93.7494V247.512ZM92.6495 243.697H97.6637V239.252H92.6495V243.697ZM97.1461 235.695H102.16V231.25H97.1461V235.695ZM102.225 227.981H107.239V223.535H102.225V227.981ZM107.886 220.581H112.9V216.136H107.886V220.581ZM119.079 209.081H114.065V213.526H119.079V209.081ZM120.794 206.844H125.808V202.398H120.794V206.844ZM127.975 200.563H132.99V196.117H127.975V200.563ZM135.61 194.712H140.624V190.267H135.61V194.712ZM143.665 189.32H148.679V184.875H143.665V189.32ZM152.108 184.416H157.122V179.971H152.108V184.416ZM160.907 180.028H165.921V175.583H160.907V180.028ZM169.998 176.156H175.012V171.711H169.998V176.156ZM179.379 172.829H184.393V168.384H179.379V172.829ZM188.987 170.076H194.001V165.631H188.987V170.076ZM198.756 167.868H203.771V163.422H198.756V167.868ZM208.688 166.262H213.702V161.816H208.688V166.262ZM218.716 165.229H223.73V160.784H218.716V165.229ZM228.809 164.799H233.823V160.354H228.809V164.799ZM238.902 164.942H243.917V160.497H238.902V164.942ZM248.963 165.688H253.977V161.243H248.963V165.688ZM259.8 166.233H263.068V163.336H259.8V166.233ZM342.712 199.731H338.96V203.058H342.712V199.731ZM350.282 205.668H345.3V210.084H350.282V205.668ZM356.752 212.551H351.77V216.968H356.752V212.551ZM362.705 219.778H357.69V224.224H362.705V219.778ZM363.06 231.795H368.075V227.35H363.06V231.795ZM367.848 239.653H372.862V235.208H367.848V239.653ZM372.054 247.798H377.068V243.353H372.054V247.798ZM380.659 251.727H375.644V256.173H380.659V251.727ZM383.635 260.274H378.621V264.719H383.635V260.274ZM385.964 268.993H380.95V273.438H385.964V268.993ZM387.614 277.826H382.6V282.271H387.614V277.826ZM383.602 291.162H388.617V286.717H383.602V291.162ZM396.963 295.665H391.949V300.11H396.963V295.665ZM396.639 304.613H391.625V309.058H396.639V304.613ZM395.701 313.532H390.687V317.978H395.701V313.532ZM394.116 322.366H389.102V326.811H394.116V322.366ZM391.916 331.084H386.902V335.53H391.916V331.084ZM384.088 344.105H389.102V339.66H384.088V344.105ZM380.659 352.508H385.673V348.063H380.659V352.508ZM376.744 360.653H381.597V356.351H376.744V360.653ZM374.286 366.762H374.9V366.217H374.286V366.762ZM309.328 424.351H313.112V420.996H309.328V424.351ZM299.979 428.739H304.475V424.753H299.979V428.739ZM291.956 431.177H293.961V429.399H291.956V431.177ZM285.939 431.12H280.989V435.508H285.939V431.12ZM276.266 433.586H271.252V438.031H276.266V433.586ZM266.432 435.536H261.418V439.982H266.432V435.536ZM251.454 441.387H256.468V436.941H251.454V441.387ZM246.407 437.802H241.393V442.247H246.407V437.802ZM236.314 438.089H231.3V442.534H236.314V438.089ZM226.221 437.802H221.207V442.247H226.221V437.802ZM216.161 436.97H211.146V441.416H216.161V436.97ZM206.197 435.565H201.183V440.01H206.197V435.565ZM196.363 433.615H191.348V438.06H196.363V433.615ZM186.658 431.12H181.643V435.565H186.658V431.12ZM177.147 428.079H172.133V432.525H177.147V428.079ZM167.895 424.523H162.881V428.969H167.895V424.523ZM158.902 420.451H153.887V424.896H158.902V420.451ZM150.2 415.891H145.185V420.336H150.2V415.891ZM141.853 410.872H136.839V415.317H141.853V410.872ZM133.895 405.394H128.881V409.839H133.895V405.394ZM126.325 399.486H121.311V403.931H126.325V399.486ZM119.176 393.147H114.162V397.593H119.176V393.147ZM112.512 386.436H107.498V390.882H112.512V386.436ZM101.319 383.798H106.333V379.352H101.319V383.798ZM95.8197 376.255H100.51V372.096H95.8197V376.255ZM92.0995 367.278H93.9111V365.672H92.0995V367.278ZM88.347 358.588H88.5411V358.416H88.347V358.588ZM75.7629 335.444H80.6477V331.113H75.7629V335.444ZM78.5127 322.337H73.4985V326.782H78.5127V322.337ZM76.9275 313.504H71.9133V317.949H76.9275V313.504ZM75.9894 304.584H70.9752V309.03H75.9894V304.584ZM75.6659 295.636H70.6517V300.082H75.6659V295.636ZM70.9752 291.133H75.9894V286.688H70.9752V291.133ZM76.9275 277.797H71.9133V282.243H76.9275V277.797ZM78.5127 268.964H73.4985V273.409H78.5127V268.964ZM80.7124 260.245H75.6982V264.691H80.7124V260.245ZM83.5269 251.641H78.5127V256.087H83.5269V251.641ZM86.9559 243.238H81.9417V247.684H86.9559V243.238ZM85.9531 239.481H90.9673V235.036H85.9531V239.481ZM90.5467 231.508H95.5609V227.063H90.5467V231.508ZM95.6903 223.793H100.705V219.348H95.6903V223.793ZM106.366 211.949H101.352V216.394H106.366V211.949ZM112.545 204.893H107.53V209.339H112.545V204.893ZM119.209 198.182H114.194V202.628H119.209V198.182ZM121.344 196.289H126.358V191.844H121.344V196.289ZM133.928 185.936H128.913V190.381H133.928V185.936ZM141.886 180.458H136.871V184.904H141.886V180.458ZM145.218 179.856H150.232V175.411H145.218V179.856ZM153.92 175.296H158.934V170.851H153.92V175.296ZM162.913 171.223H167.927V166.778H162.913V171.223ZM172.165 167.667H177.179V163.222H172.165V167.667ZM181.676 164.627H186.69V160.182H181.676V164.627ZM191.381 162.132H196.395V157.686H191.381V162.132ZM201.215 160.182H206.229V155.736H201.215V160.182ZM211.179 158.776H216.193V154.331H211.179V158.776ZM221.239 157.945H226.254V153.499H221.239V157.945ZM231.333 157.658H236.347V153.212H231.333V157.658ZM241.426 157.945H246.44V153.499H241.426V157.945ZM251.486 158.776H256.501V154.331H251.486V158.776ZM262.162 159.522H265.72V156.367H262.162V159.522ZM351.156 200.161H350.735V200.534H351.156V200.161ZM357.658 207.016H357.561V207.102H357.658V207.016ZM365.487 212.608H362.09V215.62H365.487V212.608ZM371.957 219.291H366.942V223.736H371.957V219.291ZM377.1 227.006H372.086V231.451H377.1V227.006ZM376.68 239.424H381.694V234.979H376.68V239.424ZM380.691 247.626H385.705V243.181H380.691V247.626ZM384.12 256.029H389.134V251.584H384.12V256.029ZM391.949 260.188H386.934V264.633H391.949V260.188ZM394.148 268.907H389.134V273.352H394.148V268.907ZM395.734 277.74H390.719V282.185H395.734V277.74ZM391.69 291.076H396.704V286.631H391.69V291.076ZM405.05 295.579H400.036V300.024H405.05V295.579ZM404.759 304.527H399.745V308.972H404.759V304.527ZM403.853 313.446H398.839V317.892H403.853V313.446ZM402.333 322.28H397.319V326.725H402.333V322.28ZM400.23 331.027H395.216V335.472H400.23V331.027ZM392.531 344.105H397.545V339.66H392.531V344.105ZM389.264 352.566H394.278V348.12H389.264V352.566ZM386.805 359.649H389.102V357.613H386.805V359.649ZM285.486 440.498H286.521V439.58H285.486V440.498ZM275.393 443.366H277.204V441.76H275.393V443.366ZM265.009 445.832H267.952V443.222H265.009V445.832ZM259.024 443.767H254.01V448.213H259.024V443.767ZM248.995 444.714H243.981V449.159H248.995V444.714ZM238.902 445.115H233.888V449.561H238.902V445.115ZM228.809 444.972H223.795V449.417H228.809V444.972ZM218.748 444.312H213.734V448.758H218.748V444.312ZM208.752 443.108H203.738V447.553H208.752V443.108ZM198.853 441.387H193.839V445.832H198.853V441.387ZM189.084 439.15H184.07V443.595H189.084V439.15ZM179.476 436.397H174.462V440.842H179.476V436.397ZM170.095 433.127H165.08V437.572H170.095V433.127ZM160.94 429.37H155.925V433.815H160.94V429.37ZM152.043 425.125H147.029V429.571H152.043V425.125ZM143.471 420.422H138.457V424.867H143.471V420.422ZM135.222 415.26H130.207V419.705H135.222V415.26ZM127.328 409.667H122.314V414.112H127.328V409.667ZM119.823 403.673H114.809V408.118H119.823V403.673ZM112.739 397.306H107.724V401.751H112.739V397.306ZM101.093 394.983H106.075V390.566H101.093V394.983ZM95.5609 387.354H99.2811V384.056H95.5609V387.354ZM91.679 378.377H91.8084V378.263H91.679V378.377ZM69.1959 339.459H73.4014V335.731H69.1959V339.459ZM71.4281 326.668H66.4139V331.113H71.4281V326.668ZM69.6165 317.863H64.6023V322.308H69.6165V317.863ZM68.4196 308.972H63.4054V313.418H68.4196V308.972ZM67.8049 300.053H62.7907V304.498H67.8049V300.053ZM62.7907 295.55H67.8049V291.105H62.7907V295.55ZM68.3872 282.185H63.373V286.631H68.3872V282.185ZM69.5841 273.295H64.5699V277.74H69.5841V273.295ZM71.3957 264.49H66.3815V268.935H71.3957V264.49ZM73.7896 255.8H68.7754V260.245H73.7896V255.8ZM76.7658 247.253H71.7516V251.699H76.7658V247.253ZM80.3242 238.879H75.31V243.324H80.3242V238.879ZM79.4184 235.151H84.4326V230.705H79.4184V235.151ZM84.0768 227.206H89.091V222.761H84.0768V227.206ZM89.2527 219.52H94.2669V215.075H89.2527V219.52ZM94.9463 212.121H99.9605V207.675H94.9463V212.121ZM106.139 200.591H101.125V205.037H106.139V200.591ZM112.771 193.852H107.757V198.297H112.771V193.852ZM119.856 187.485H114.841V191.93H119.856V187.485ZM122.346 185.936H127.361V181.491H122.346V185.936ZM130.24 180.372H135.254V175.927H130.24V180.372ZM138.489 175.21H143.503V170.764H138.489V175.21ZM147.062 170.506H152.076V166.061H147.062V170.506ZM160.94 161.816H155.925V166.262H160.94V161.816ZM165.08 162.505H170.095V158.059H165.08V162.505ZM174.462 159.235H179.476V154.79H174.462V159.235ZM184.07 156.482H189.084V152.037H184.07V156.482ZM193.839 154.245H198.853V149.8H193.839V154.245ZM203.738 152.524H208.752V148.079H203.738V152.524ZM213.734 151.32H218.748V146.874H213.734V151.32ZM223.795 150.66H228.809V146.215H223.795V150.66ZM233.888 150.517H238.902V146.071H233.888V150.517ZM243.981 150.918H248.995V146.473H243.981V150.918ZM254.01 151.865H259.024V147.419H254.01V151.865ZM264.006 153.298H268.955V148.91H264.006V153.298ZM276.363 153.069H276.266V153.155H276.363V153.069ZM374.092 212.838H372.345V214.386H374.092V212.838ZM381.176 218.918H376.162V223.363H381.176V218.918ZM381.079 231.164H386.093V226.719H381.079V231.164ZM385.446 239.223H390.461V234.778H385.446V239.223ZM389.264 247.512H394.278V243.066H389.264V247.512ZM397.545 251.527H392.531V255.972H397.545V251.527ZM400.23 260.159H395.216V264.605H400.23V260.159ZM397.319 273.352H402.333V268.907H397.319V273.352ZM398.807 282.185H403.821V277.74H398.807V282.185ZM399.713 291.105H404.727V286.659H399.713V291.105ZM408.059 300.053H413.073V295.608H408.059V300.053ZM407.768 309.001H412.782V304.556H407.768V309.001ZM406.894 317.92H411.908V313.475H406.894V317.92ZM406.247 326.065H409.644V323.054H406.247V326.065ZM404.306 334.755H407.541V331.887H404.306V334.755ZM401.459 343.646H405.244V340.291H401.459V343.646ZM398.839 351.705H401.621V349.239H398.839V351.705ZM396.51 358.875H396.639V358.76H396.51V358.875ZM261.353 450.794H256.598V455.01H261.353V450.794ZM251.454 451.712H246.44V456.157H251.454V451.712ZM241.393 452.228H236.379V456.673H241.393V452.228ZM231.3 452.228H226.286V456.673H231.3V452.228ZM221.239 451.712H216.225V456.157H221.239V451.712ZM211.211 450.679H206.197V455.124H211.211V450.679ZM201.28 449.159H196.265V453.604H201.28V449.159ZM191.445 447.123H186.431V451.568H191.445V447.123ZM181.773 444.599H176.759V449.044H181.773V444.599ZM172.262 441.588H167.248V446.033H172.262V441.588ZM162.978 438.117H157.963V442.563H162.978V438.117ZM153.92 434.16H148.906V438.605H153.92V434.16ZM145.121 429.772H140.106V434.217H145.121V429.772ZM136.645 424.925H131.631V429.37H136.645V424.925ZM128.493 419.676H123.479V424.122H128.493V419.676ZM120.664 414.026H115.65V418.472H120.664V414.026ZM113.224 407.975H108.21V412.42H113.224V407.975ZM105.266 402.382H102.128V405.164H105.266V402.382ZM96.8873 397.191H97.2755V396.847H96.8873V397.191ZM63.0172 343.159H65.6698V340.807H63.0172V343.159ZM64.2788 331.113H59.2646V335.558H64.2788V331.113ZM62.2731 322.337H57.2589V326.782H62.2731V322.337ZM60.8497 313.475H55.8355V317.92H60.8497V313.475ZM59.9763 304.556H54.9621V309.001H59.9763V304.556ZM59.6851 295.608H54.6709V300.053H59.6851V295.608ZM54.9621 291.105H59.9763V286.659H54.9621V291.105ZM60.8174 277.74H55.8032V282.185H60.8174V277.74ZM62.2408 268.878H57.2266V273.323H62.2408V268.878ZM62.8231 261.393H60.688V263.285H62.8231V261.393ZM66.4786 251.756H62.1437V255.599H66.4786V251.756ZM69.94 242.951H64.9258V247.397H69.94V242.951ZM73.5955 234.606H68.5813V239.051H73.5955V234.606ZM72.7868 230.906H77.801V226.461H72.7868V230.906ZM77.5098 222.99H82.524V218.545H77.5098V222.99ZM82.7181 215.333H87.7323V210.887H82.7181V215.333ZM88.4117 207.933H93.4258V203.488H88.4117V207.933ZM99.5723 196.404H94.5581V200.85H99.5723V196.404ZM106.172 189.636H101.157V194.081H106.172V189.636ZM108.21 187.657H113.224V183.212H108.21V187.657ZM120.664 177.16H115.65V181.605H120.664V177.16ZM123.479 175.927H128.493V171.481H123.479V175.927ZM131.631 170.678H136.645V166.233H131.631V170.678ZM140.106 165.832H145.121V161.386H140.106V165.832ZM148.906 161.444H153.92V156.998H148.906V161.444ZM157.963 157.486H162.978V153.04H157.963V157.486ZM167.248 154.015H172.262V149.57H167.248V154.015ZM176.759 151.004H181.773V146.559H176.759V151.004ZM186.431 148.48H191.445V144.035H186.431V148.48ZM196.265 146.444H201.28V141.999H196.265V146.444ZM206.197 144.924H211.211V140.479H206.197V144.924ZM216.225 143.892H221.239V139.446H216.225V143.892ZM226.286 143.375H231.3V138.93H226.286V143.375ZM236.379 143.375H241.393V138.93H236.379V143.375ZM251.454 139.446H246.44V143.892H251.454V139.446ZM256.501 144.895H261.482V140.479H256.501V144.895ZM266.788 146.1H271.058V142.314H266.788V146.1ZM278.822 146.157H278.692V146.272H278.822V146.157ZM382.6 212.924H382.341V213.153H382.6V212.924ZM389.684 218.947H385.705V222.474H389.684V218.947ZM394.925 226.403H389.911V230.849H394.925V226.403ZM394.116 238.994H399.13V234.548H394.116V238.994ZM397.772 247.339H402.786V242.894H397.772V247.339ZM405.891 251.412H400.877V255.857H405.891V251.412ZM408.447 260.073H403.433V264.519H408.447V260.073ZM410.453 268.849H405.438V273.295H410.453V268.849ZM411.876 277.711H406.862V282.157H411.876V277.711ZM412.749 286.631H407.735V291.076H412.749V286.631ZM416.049 300.024H421.063V295.579H416.049V300.024ZM415.79 308.972H420.805V304.527H415.79V308.972ZM414.949 317.892H419.963V313.446H414.949V317.892ZM415.467 325.09H416.696V324.001H415.467V325.09ZM259.477 461.52H263.488V457.964H259.477V461.52ZM253.977 458.623H248.963V463.069H253.977V458.623ZM243.917 459.226H238.902V463.671H243.917V459.226ZM233.823 459.34H228.809V463.786H233.823V459.34ZM223.73 458.968H218.716V463.413H223.73V458.968ZM213.67 458.107H208.655V462.553H213.67V458.107ZM203.706 456.759H198.692V461.205H203.706V456.759ZM193.839 454.952H188.825V459.398H193.839V454.952ZM184.102 452.658H179.088V457.103H184.102V452.658ZM174.494 449.905H169.48V454.35H174.494V449.905ZM165.08 446.693H160.066V451.138H165.08V446.693ZM155.893 443.022H150.879V447.467H155.893V443.022ZM146.932 438.892H141.918V443.337H146.932V438.892ZM138.23 434.36H133.216V438.806H138.23V434.36ZM129.819 429.399H124.805V433.844H129.819V429.399ZM121.732 424.036H116.718V428.481H121.732V424.036ZM114 418.3H108.986V422.745H114V418.3ZM105.072 413.567H103.163V415.26H105.072V413.567ZM57.1619 346.485H57.6148V346.084H57.1619V346.485ZM57.1619 335.444H52.1477V339.889H57.1619V335.444ZM54.9621 326.696H49.9479V331.142H54.9621V326.696ZM53.3123 317.863H48.2981V322.308H53.3123V317.863ZM52.2124 308.972H47.1982V313.418H52.2124V308.972ZM51.6624 300.053H46.6482V304.498H51.6624V300.053ZM46.7129 295.493H51.6301V291.133H46.7129V295.493ZM52.2124 282.157H47.1982V286.602H52.2124V282.157ZM53.3123 273.266H48.2981V277.711H53.3123V273.266ZM54.9621 264.433H49.9479V268.878H54.9621V264.433ZM54.7356 257.98V257.836H54.5739V257.98H54.7356ZM57.9706 249.835V248.773H56.7737V249.835H57.9706ZM63.0495 238.678H58.1647V243.009H63.0495V238.678ZM61.8849 234.749H66.8991V230.304H61.8849V234.749ZM66.1551 226.633H71.1693V222.187H66.1551V226.633ZM70.9105 218.746H75.9247V214.3H70.9105V218.746ZM76.1511 211.088H81.1653V206.643H76.1511V211.088ZM86.8589 199.272H81.8447V203.718H86.8589V199.272ZM93.0053 192.188H87.9911V196.634H93.0053V192.188ZM99.5723 185.391H94.5581V189.837H99.5723V185.391ZM106.56 178.938H101.546V183.384H106.56V178.938ZM113.903 172.858H108.921V177.275H113.903V172.858ZM116.653 171.539H121.667V167.093H116.653V171.539ZM124.74 166.176H129.755V161.73H124.74V166.176ZM133.151 161.214H138.165V156.769H133.151V161.214ZM141.853 156.683H146.868V152.237H141.853V156.683ZM155.828 148.136H150.814V152.581H155.828V148.136ZM160.034 148.91H165.048V144.465H160.034V148.91ZM169.448 145.698H174.462V141.253H169.448V145.698ZM179.055 142.945H184.07V138.5H179.055V142.945ZM188.825 140.651H193.839V136.205H188.825V140.651ZM198.692 138.844H203.706V134.399H198.692V138.844ZM208.655 137.496H213.67V133.051H208.655V137.496ZM218.716 136.636H223.73V132.19H218.716V136.636ZM228.809 136.263H233.823V131.817H228.809V136.263ZM238.902 136.377H243.917V131.932H238.902V136.377ZM249.092 136.865H253.848V132.649H249.092V136.865ZM262.291 135.116H260.641V136.578H262.291V135.116ZM398.839 218.516H394.472V222.388H398.839V218.516ZM398.677 230.677H403.692V226.231H398.677V230.677ZM402.689 238.879H407.703V234.434H402.689V238.879ZM406.182 247.253H411.197V242.808H406.182V247.253ZM409.159 255.8H414.173V251.355H409.159V255.8ZM416.631 260.045H411.617V264.49H416.631V260.045ZM418.54 268.821H413.526V273.266H418.54V268.821ZM419.899 277.683H414.885V282.128H419.899V277.683ZM420.74 286.602H415.726V291.047H420.74V286.602ZM424.04 299.996H429.054V295.55H424.04V299.996ZM423.781 308.944H428.795V304.498H423.781V308.944ZM423.328 317.548H427.63V313.733H423.328V317.548ZM424.137 324.545H424.234V324.459H424.137V324.545ZM262.259 468.059H265.656V465.048H262.259V468.059ZM256.468 465.507H251.454V469.952H256.468V465.507ZM246.407 466.195H241.393V470.64H246.407V466.195ZM236.314 466.424H231.3V470.87H236.314V466.424ZM226.221 466.195H221.207V470.64H226.221V466.195ZM216.161 465.507H211.146V469.952H216.161V465.507ZM206.164 464.331H201.15V468.776H206.164V464.331ZM196.233 462.696H191.219V467.141H196.233V462.696ZM186.431 460.602H181.417V465.048H186.431V460.602ZM176.759 458.05H171.744V462.495H176.759V458.05ZM167.248 455.067H162.234V459.512H167.248V455.067ZM157.931 451.654H152.917V456.1H157.931V451.654ZM148.808 447.811H143.794V452.256H148.808V447.811ZM139.945 443.538H134.93V447.983H139.945V443.538ZM131.34 438.863H126.325V443.308H131.34V438.863ZM123.026 433.787H118.012V438.232H123.026V433.787ZM115.003 428.366H110.054V432.754H115.003V428.366ZM104.037 425.498H105.719V424.007H104.037V425.498ZM46.907 342.642H48.3951V341.323H46.907V342.642ZM47.7805 331.056H42.7663V335.501H47.7805V331.056ZM45.9365 322.251H40.9223V326.696H45.9365V322.251ZM44.6102 313.389H39.596V317.834H44.6102V313.389ZM43.8338 304.47H38.8196V308.915H43.8338V304.47ZM42.6045 299.106V296.411H39.5636V299.106H42.6045ZM43.8338 286.602H38.8196V291.047H43.8338V286.602ZM44.6102 277.683H39.596V282.128H44.6102V277.683ZM45.9365 268.821H40.9223V273.266H45.9365V268.821ZM45.8071 261.765H44.7396V262.712H45.8071V261.765ZM56.2237 234.434H51.5007V238.621H56.2237V234.434ZM55.2209 230.476H60.2351V226.03H55.2209V230.476ZM59.5557 222.388H64.5699V217.943H59.5557V222.388ZM64.3758 214.53H69.3901V210.084H64.3758V214.53ZM74.663 202.456H69.6488V206.901H74.663V202.456ZM80.3889 195.085H75.3747V199.53H80.3889V195.085ZM84.5944 189.693H83.4622V190.697H84.5944V189.693ZM91.129 182.925H90.0615V183.871H91.129V182.925ZM98.7312 175.841H96.3373V177.963H98.7312V175.841ZM105.331 170.306H104.36V171.166H105.331V170.306ZM111.574 165.774H113.45V164.111H111.574V165.774ZM118.335 161.444H122.702V157.572H118.335V161.444ZM131.34 152.209H126.325V156.654H131.34V152.209ZM134.93 151.979H139.945V147.534H134.93V151.979ZM143.794 147.706H148.808V143.261H143.794V147.706ZM152.917 143.863H157.931V139.417H152.917V143.863ZM162.234 140.45H167.248V136.005H162.234V140.45ZM171.744 137.467H176.759V133.022H171.744V137.467ZM181.417 134.915H186.431V130.469H181.417V134.915ZM191.219 132.821H196.233V128.376H191.219V132.821ZM201.15 131.186H206.164V126.741H201.15V131.186ZM211.146 130.011H216.161V125.565H211.146V130.011ZM221.207 129.322H226.221V124.877H221.207V129.322ZM231.43 128.949H236.153V124.762H231.43V128.949ZM243.011 127.86H244.79V126.282H243.011V127.86ZM406.829 219.033H404.274V221.298H406.829V219.033ZM412.394 226.03H407.379V230.476H412.394V226.03ZM411.261 238.736H416.276V234.29H411.261V238.736ZM419.64 242.722H414.626V247.167H419.64V242.722ZM422.487 251.326H417.537V255.714H422.487V251.326ZM424.848 260.016H419.866V264.433H424.848V260.016ZM426.692 268.792H421.678V273.237H426.692V268.792ZM428.018 277.654H423.004V282.099H428.018V277.654ZM423.813 291.019H428.827V286.573H423.813V291.019ZM432.095 299.967H437.109V295.522H432.095V299.967ZM431.836 308.915H436.85V304.47H431.836V308.915ZM431.512 317.433H435.653V313.762H431.512V317.433ZM266.917 472.963H265.979V473.795H266.917V472.963ZM253.945 476.835H258.959V472.39H253.945V476.835ZM248.898 473.193H243.884V477.638H248.898V473.193ZM238.805 473.537H233.791V477.982H238.805V473.537ZM228.712 473.422H223.698V477.868H228.712V473.422ZM218.651 472.849H213.637V477.294H218.651V472.849ZM208.623 471.845H203.609V476.29H208.623V471.845ZM198.659 470.382H193.645V474.827H198.659V470.382ZM188.793 468.489H183.778V472.935H188.793V468.489ZM179.055 466.166H174.041V470.612H179.055V466.166ZM169.448 463.413H164.433V467.858H169.448V463.413ZM160.001 460.229H154.987V464.675H160.001V460.229ZM150.782 456.616H145.768V461.061H150.782V456.616ZM141.756 452.601H136.742V457.046H141.756V452.601ZM132.99 448.184H127.975V452.629H132.99V448.184ZM124.482 443.394H119.467V447.84H124.482V443.394ZM115.521 438.863H111.962V442.018H115.521V438.863ZM105.686 435.02H105.913V434.819H105.686V435.02ZM37.7844 338.054H38.0432V337.824H37.7844V338.054ZM34.1613 330.712H37.6227V327.643H34.1613V330.712ZM36.8786 318.121H31.8644V322.567H36.8786V318.121ZM35.8758 309.23H30.8616V313.676H35.8758V309.23ZM34.5494 304.011V300.999H31.1527V304.011H34.5494ZM35.3582 291.334H30.344V295.78H35.3582V291.334ZM30.8616 286.832H35.8758V282.386H30.8616V286.832ZM36.8786 273.495H31.8644V277.941H36.8786V273.495ZM37.8491 265.121H33.9025V268.62H37.8491V265.121ZM48.7186 230.877H45.0631V234.118H48.7186V230.877ZM48.3951 226.432H53.2799V222.101H48.3951V226.432ZM52.73 218.43H57.7442V213.985H52.73V218.43ZM57.5824 210.601H62.5966V206.155H57.5824V210.601ZM67.902 198.555H62.8878V203.001H67.902V198.555ZM72.4956 192.188H69.7135V194.655H72.4956V192.188ZM120.794 151.004H122.638V149.369H120.794V151.004ZM129.269 146.243H131.178V144.551H129.269V146.243ZM136.516 143.203H141.53V138.758H136.516V143.203ZM145.541 139.188H150.555V134.743H145.541V139.188ZM154.793 135.574H159.807V131.129H154.793V135.574ZM164.207 132.391H169.221V127.946H164.207V132.391ZM173.815 129.638H178.829V125.192H173.815V129.638ZM183.552 127.315H188.566V122.869H183.552V127.315ZM193.419 125.422H198.433V120.976H193.419V125.422ZM203.382 123.959H208.397V119.514H203.382V123.959ZM213.411 122.955H218.425V118.51H213.411V122.955ZM223.472 122.382H228.486V117.936H223.472V122.382ZM235.635 120.431H236.508V119.657H235.635V120.431ZM412.491 218.746V221.7H415.823V218.746H412.491ZM415.823 230.59H420.837V226.145H415.823V230.59ZM419.543 238.908H424.557V234.462H419.543V238.908ZM427.792 242.951H422.778V247.397H427.792V242.951ZM428.892 253.047H427.21V254.538H428.892V253.047ZM432.03 260.991H428.601V264.031H432.03V260.991ZM434.456 269.222H429.701V273.438H434.456V269.222ZM435.75 278.084H430.93V282.357H435.75V278.084ZM431.609 291.363H436.624V286.918H431.609V291.363ZM441.12 299.221H443.708V296.927H441.12V299.221ZM439.858 309.058H444.452V304.986H439.858V309.058ZM440.15 317.089H442.705V314.823H440.15V317.089ZM268.146 481.108H269.343V480.047H268.146V481.108ZM256.242 484.091H261.256V479.646H256.242V484.091ZM251.195 480.506H246.181V484.951H251.195V480.506ZM241.102 480.936H236.088V485.382H241.102V480.936ZM231.009 480.936H225.995V485.382H231.009V480.936ZM220.916 480.506H215.902V484.951H220.916V480.506ZM210.888 479.646H205.873V484.091H210.888V479.646ZM200.891 478.355H195.877V482.8H200.891V478.355ZM190.992 476.634H185.978V481.08H190.992V476.634ZM181.191 474.483H176.176V478.929H181.191V474.483ZM171.518 471.931H166.504V476.376H171.518V471.931ZM162.007 468.948H156.993V473.393H162.007V468.948ZM152.658 465.564H147.644V470.009H152.658V465.564ZM143.503 461.807H138.489V466.252H143.503V461.807ZM134.575 457.648H129.56V462.094H134.575V457.648ZM125.678 453.289H121.085V457.361H125.678V453.289ZM114.227 451.081H115.682V449.79H114.227V451.081ZM26.7208 324.976H27.2061V324.545H26.7208V324.976ZM23.4212 317.949H28.0472V313.848H23.4212V317.949ZM27.4972 304.756H22.5154V309.173H27.4972V304.756ZM25.8474 298.963V297.07H23.7123V298.963H25.8474ZM27.5296 286.86H22.5154V291.306H27.5296V286.86ZM23.2594 282.386H28.2736V277.941H23.2594V282.386ZM24.4887 273.495H29.5029V269.05H24.4887V273.495ZM29.4059 261.823H27.9825V263.085H29.4059V261.823ZM40.1783 228.153V228.239H40.2753V228.153H40.1783ZM45.5483 218.832H42.928V221.155H45.5483V218.832ZM46.1953 214.186H51.2095V209.74H46.1953V214.186ZM51.1125 206.356H56.1267V201.911H51.1125V206.356ZM61.432 194.311H56.4178V198.756H61.432V194.311ZM65.5081 188.431H63.8259V189.923H65.5081V188.431ZM131.954 136.033V136.349H132.31V136.033H131.954ZM142.533 130.728H139.556V133.366H142.533V130.728ZM147.709 130.498H152.723V126.053H147.709V130.498ZM157.058 127.114H162.072V122.668H157.058V127.114ZM166.568 124.131H171.583V119.686H166.568V124.131ZM176.241 121.579H181.255V117.133H176.241V121.579ZM186.043 119.428H191.057V114.982H186.043V119.428ZM200.956 113.262H195.942V117.707H200.956V113.262ZM205.938 116.416H210.952V111.971H205.938V116.416ZM215.966 115.556H220.981V111.111H215.966V115.556ZM226.189 115.011H230.912V110.824H226.189V115.011ZM414.82 203.058H412.394V205.209H414.82V203.058ZM416.534 213.698H420.513V210.171H416.534V213.698ZM420.481 222.187H425.495V217.742H420.481V222.187ZM427.339 228.468V227.895H426.692V228.468H427.339ZM429.021 237.933H432.159V235.151H429.021V237.933ZM435.912 243.095H431.545V246.967H435.912V243.095ZM438.241 262.683H438.856V262.138H438.241V262.683ZM440.311 271.258V271.172H440.214V271.258H440.311ZM441.347 279.977V280.235H441.638V279.977H441.347ZM440.861 290.216H443.579V287.807H440.861V290.216ZM450.21 306.936H450.275V306.879H450.21V306.936ZM449.466 315.884H449.596V315.769H449.466V315.884ZM271.058 487.475H271.511V487.074H271.058V487.475ZM263.812 486.414H258.797V490.859H263.812V486.414ZM253.783 487.361H248.769V491.806H253.783V487.361ZM243.722 487.877H238.708V492.322H243.722V487.877ZM233.629 487.991H228.615V492.437H233.629V487.991ZM223.536 487.676H218.522V492.121H223.536V487.676ZM213.475 486.959H208.461V491.404H213.475V486.959ZM203.479 485.812H198.465V490.257H203.479V485.812ZM193.548 484.263H188.534V488.708H193.548V484.263ZM183.714 482.313H178.7V486.758H183.714V482.313ZM173.977 479.961H168.962V484.407H173.977V479.961ZM164.369 477.208H159.354V481.653H164.369V477.208ZM154.923 474.053H149.908V478.499H154.923V474.053ZM145.671 470.497H140.656V474.942H145.671V470.497ZM136.613 466.568H131.598V471.013H136.613V466.568ZM124.384 465.277H126.131V463.728H124.384V465.277ZM15.9484 312.615H18.6334V310.234H15.9484V312.615ZM15.172 303.953H18.4717V301.028H15.172V303.953ZM15.4631 292.338V294.747H18.1805V292.338H15.4631ZM14.7838 286.832H19.798V282.386H14.7838V286.832ZM15.7219 277.912H20.7361V273.467H15.7219V277.912ZM17.1453 269.021H22.0948V264.633H17.1453V269.021ZM35.7464 217.398H39.4666V214.1H35.7464V217.398ZM44.6425 205.524H39.6283V209.97H44.6425V205.524ZM49.3656 197.924H44.8043V201.968H49.3656V197.924ZM54.3151 190.697H50.5302V194.052H54.3151V190.697ZM58.2941 184.875H58.003V185.133H58.2941V184.875ZM142.533 123.787H143.633V122.812H142.533V123.787ZM149.844 121.98H154.858V117.535H149.844V121.98ZM159.29 118.825H164.304V114.38H159.29V118.825ZM168.898 116.072H173.912V111.627H168.898V116.072ZM178.635 113.72H183.649V109.275H178.635V113.72ZM188.469 111.77H193.483V107.325H188.469V111.77ZM198.401 110.221H203.415V105.776H198.401V110.221ZM208.397 109.074H213.411V104.629H208.397V109.074ZM218.457 108.357H223.472V103.912H218.457V108.357ZM230.265 106.522H231.85V105.116H230.265V106.522ZM241.07 106.006H241.232V105.862H241.07V106.006ZM411.973 188.689H411.908V188.747H411.973V188.689ZM419.252 194.626H415.726V197.752H419.252V194.626ZM420.125 206.098H425.139V201.653H420.125V206.098ZM424.848 213.985H429.862V209.54H424.848V213.985ZM434.165 217.627H429.151V222.073H434.165V217.627ZM436.429 227.321H434.683V228.87H436.429V227.321ZM438.888 236.613H439.179V236.355H438.888V236.613ZM441.67 245.361H442.414V244.701H441.67V245.361ZM261.288 497.8H266.27V493.383H261.288V497.8ZM256.242 494.387H251.228V498.832H256.242V494.387ZM246.181 494.989H241.167V499.435H246.181V494.989ZM236.088 495.19H231.074V499.635H236.088V495.19ZM225.995 494.989H220.981V499.435H225.995V494.989ZM215.934 494.387H210.92V498.832H215.934V494.387ZM205.906 493.383H200.891V497.829H205.906V493.383ZM195.942 491.978H190.928V496.423H195.942V491.978ZM186.043 490.171H181.029V494.617H186.043V490.171ZM176.273 487.991H171.259V492.437H176.273V487.991ZM166.601 485.41H161.587V489.856H166.601V485.41ZM157.09 482.456H152.076V486.902H157.09V482.456ZM147.709 479.129H142.694V483.575H147.709V479.129ZM138.457 475.487H133.572V479.818H138.457V475.487ZM126.681 473.91H127.361V473.307H126.681V473.91ZM8.21682 289.699H9.6402V288.438H8.21682V289.699ZM7.11693 282.357H12.0988V277.941H7.11693V282.357ZM8.54031 273.209H12.9399V269.308H8.54031V273.209ZM12.8428 261.966H11.8076V262.884H12.8428V261.966ZM31.2498 211.289H30.6998V211.777H31.2498V211.289ZM36.4581 202.771H34.6788V204.349H36.4581V202.771ZM143.697 116.043H146.673V113.376H143.697V116.043ZM152.108 113.548H156.993V109.218H152.108V113.548ZM161.619 110.623H166.568V106.235H161.619V110.623ZM171.259 108.07H176.273V103.625H171.259V108.07ZM181.061 105.891H186.075V101.445H181.061V105.891ZM190.96 104.084H195.974V99.6386H190.96V104.084ZM200.924 102.679H205.938V98.2333H200.924V102.679ZM210.952 101.675H215.966V97.2295H210.952V101.675ZM221.078 101.015H225.962V96.6846H221.078V101.015ZM231.203 100.786H236.023V96.5125H231.203V100.786ZM241.976 100.384H245.405V97.3443H241.976V100.384ZM422.875 186.796H419.705V189.607H422.875V186.796ZM429.151 193.565H424.137V198.01H429.151V193.565ZM429.442 205.496H433.777V201.653H429.442V205.496ZM438.662 209.339H433.712V213.727H438.662V209.339ZM442.867 217.455H437.853V221.901H442.867V217.455ZM442.252 229.644H446.005V226.317H442.252V229.644ZM450.146 245.16H450.534V244.816H450.146V245.16ZM265.688 502.962H266.788V501.987H265.688V502.962ZM258.733 501.328H253.718V505.773H258.733V501.328ZM248.672 502.016H243.658V506.461H248.672V502.016ZM238.579 502.303H233.565V506.748H238.579V502.303ZM228.486 502.217H223.472V506.662H228.486V502.217ZM218.393 501.729H213.378V506.174H218.393V501.729ZM208.364 500.869H203.35V505.314H208.364V500.869ZM198.368 499.607H193.354V504.052H198.368V499.607ZM188.437 497.972H183.423V502.417H188.437V497.972ZM178.603 495.964H173.588V500.41H178.603V495.964ZM168.865 493.584H163.851V498.029H168.865V493.584ZM159.257 490.831H154.243V495.276H159.257V490.831ZM149.811 487.705H144.797V492.15H149.811V487.705ZM140.462 484.263H135.577V488.594H140.462V484.263ZM1.13224 284.652H1.19694V284.595H1.13224V284.652ZM0 277.539H4.10841V273.897H0V277.539ZM4.04371 266.239H2.65267V267.473H4.04371V266.239ZM155.796 103.998H157.899V102.134H155.796V103.998ZM163.948 102.507H168.962V98.0612H163.948V102.507ZM173.685 100.126H178.7V95.6808H173.685V100.126ZM183.52 98.1186H188.534V93.6732H183.52V98.1186ZM193.451 96.4839H198.465V92.0385H193.451V96.4839ZM203.447 95.2219H208.461V90.7766H203.447V95.2219ZM213.475 94.3616H218.49V89.9162H213.475V94.3616ZM223.569 93.874H228.583V89.4286H223.569V93.874ZM233.662 93.788H238.676V89.3426H233.662V93.788ZM247.604 90.6619H244.919V93.0423H247.604V90.6619ZM432.418 186.166H428.763V189.406H432.418V186.166ZM436.041 195.228H435.556V195.659H436.041V195.228ZM447.364 209.281H442.738V213.383H447.364V209.281ZM451.601 217.312H446.587V221.757H451.601V217.312ZM450.469 229.902H454.998V225.887H450.469V229.902ZM458.33 234.29H453.607V238.477H458.33V234.29ZM457.457 246.135H460.077V243.812H457.457V246.135ZM257.245 511.939H260.447V509.1H257.245V511.939ZM251.292 509.042H246.278V513.488H251.292V509.042ZM241.199 509.415H236.185V513.861H241.199V509.415ZM231.106 509.415H226.092V513.861H231.106V509.415ZM221.013 509.042H215.999V513.488H221.013V509.042ZM210.952 508.297H205.938V512.742H210.952V508.297ZM200.924 507.178H195.91V511.624H200.924V507.178ZM190.96 505.687H185.946V510.132H190.96V505.687ZM181.093 503.823H176.079V508.268H181.093V503.823ZM171.324 501.586H166.31V506.031H171.324V501.586ZM161.651 499.005H156.637V503.45H161.651V499.005ZM152.108 496.051H147.094V500.496H152.108V496.051ZM142.662 492.81H137.745V497.169H142.662V492.81ZM130.757 491.548H131.21V491.146H130.757V491.548ZM147.644 99.5813H151.526V96.1397H147.644V99.5813ZM156.605 97.1435H161.619V92.6981H156.605V97.1435ZM166.277 94.5623H171.292V90.117H166.277V94.5623ZM176.047 92.3253H181.061V87.8799H176.047V92.3253ZM185.914 90.4611H190.928V86.0157H185.914V90.4611ZM195.877 88.9698H200.891V84.5244H195.877V88.9698ZM205.906 87.8512H210.92V83.4059H205.906V87.8512ZM215.966 87.1056H220.981V82.6602H215.966V87.1056ZM226.059 86.7327H231.074V82.2874H226.059V86.7327ZM236.379 86.532H240.94V82.4881H236.379V86.532ZM248.704 84.8399V84.9259H248.801V84.8399H248.704ZM455.742 209.425H451.731V212.981H455.742V209.425ZM460.142 217.226H455.128V221.671H460.142V217.226ZM463.668 225.6H458.654V230.046H463.668V225.6ZM466.773 234.118H461.759V238.563H466.773V234.118ZM465.156 246.594H468.844V243.324H465.156V246.594ZM253.718 516.098H248.834V520.428H253.718V516.098ZM243.69 516.499H238.676V520.945H243.69V516.499ZM233.597 516.585H228.583V521.031H233.597V516.585ZM223.504 516.327H218.49V520.772H223.504V516.327ZM213.443 515.696H208.429V520.141H213.443V515.696ZM203.415 514.692H198.401V519.138H203.415V514.692ZM193.451 513.344H188.437V517.79H193.451V513.344ZM183.552 511.624H178.538V516.069H183.552V511.624ZM173.718 509.559H168.704V514.004H173.718V509.559ZM164.013 507.15H158.999V511.595H164.013V507.15ZM154.405 504.396H149.391V508.842H154.405V504.396ZM144.668 501.528H140.203V505.486H144.668V501.528ZM133.054 500.123H133.184V500.008H133.054V500.123ZM140.462 94.4476H144.409V90.9487H140.462V94.4476ZM149.391 91.8091H154.405V87.3637H149.391V91.8091ZM158.999 89.0558H164.013V84.6104H158.999V89.0558ZM168.704 86.6467H173.718V82.2013H168.704V86.6467ZM178.538 84.5818H183.552V80.1364H178.538V84.5818ZM188.437 82.861H193.451V78.4156H188.437V82.861ZM198.401 81.513H203.415V77.0676H198.401V81.513ZM208.429 80.5092H213.443V76.0639H208.429V80.5092ZM218.49 79.8783H223.504V75.4329H218.49V79.8783ZM228.647 79.5628H233.532V75.2321H228.647V79.5628ZM241.134 77.4692V77.5265H241.199V77.4692H241.134ZM464.897 208.851H459.883V213.297H464.897V208.851ZM463.668 221.585H468.682V217.14H463.668V221.585ZM467.065 230.017H472.079V225.572H467.065V230.017ZM475.087 234.118H470.073V238.563H475.087V234.118ZM473.793 246.221H476.64V243.697H473.793V246.221ZM480.037 271.947H481.395V270.742H480.037V271.947ZM481.493 280.465H482.01V280.006H481.493V280.465ZM482.269 289.241H482.431V289.097H482.269V289.241ZM255.659 523.554H251.81V526.967H255.659V523.554ZM246.181 523.554H241.167V528H246.181V523.554ZM236.088 523.727H231.074V528.172H236.088V523.727ZM225.995 523.554H220.981V528H225.995V523.554ZM215.934 523.038H210.92V527.484H215.934V523.038ZM205.906 522.149H200.891V526.594H205.906V522.149ZM195.91 520.916H190.895V525.361H195.91V520.916ZM185.978 519.339H180.964V523.784H185.978V519.339ZM176.112 517.417H171.097V521.862H176.112V517.417ZM166.342 515.151H161.328V519.597H166.342V515.151ZM156.669 512.541H151.655V516.987H156.669V512.541ZM142.921 513.344H146.318V510.333H142.921V513.344ZM125.937 91.0347V91.1494H126.067V91.0347H125.937ZM137.616 85.3848H132.86V89.6007H137.616V85.3848ZM142.144 86.4459H147.159V82.0006H142.144V86.4459ZM151.688 83.5206H156.702V79.0752H151.688V83.5206ZM161.36 80.9107H166.374V76.4654H161.36V80.9107ZM171.13 78.645H176.144V74.1997H171.13V78.645ZM180.996 76.7235H186.011V72.2781H180.996V76.7235ZM190.928 75.1461H195.942V70.7007H190.928V75.1461ZM200.924 73.9129H205.938V69.4675H200.924V73.9129ZM210.952 73.0238H215.966V68.5784H210.952V73.0238ZM221.013 72.5076H226.027V68.0622H221.013V72.5076ZM231.591 71.9053H235.667V68.2916H231.591V71.9053ZM243.172 70.7581H244.272V69.783H243.172V70.7581ZM473.308 208.794H468.876V212.723H473.308V208.794ZM477.255 216.882H472.241V221.327H477.255V216.882ZM480.554 225.342H475.54V229.787H480.554V225.342ZM483.498 233.917H478.484V238.363H483.498V233.917ZM482.366 245.819H484.695V243.755H482.366V245.819ZM488.739 261.192H486.183V263.458H488.739V261.192ZM491.359 268.964H486.345V273.409H491.359V268.964ZM487.38 282.271H492.33V277.883H487.38V282.271ZM489.289 290.044H491.618V287.979H489.289V290.044ZM254.948 533.277H257.698V530.839H254.948V533.277ZM248.737 530.438H243.722V534.883H248.737V530.438ZM238.644 530.696H233.629V535.141H238.644V530.696ZM228.55 530.61H223.536V535.055H228.55V530.61ZM218.457 530.179H213.443V534.625H218.457V530.179ZM208.397 529.405H203.382V533.85H208.397V529.405ZM198.368 528.287H193.354V532.732H198.368V528.287ZM188.404 526.853H183.39V531.298H188.404V526.853ZM178.505 525.074H173.491V529.52H178.505V525.074ZM168.704 522.952H163.689V527.397H168.704V522.952ZM158.578 520.887H154.405V524.587H158.578V520.887ZM126.261 84.1229H129.981V80.8247H126.261V84.1229ZM139.945 76.8382H134.93V81.2836H139.945V76.8382ZM144.409 78.1862H149.423V73.7408H144.409V78.1862ZM154.017 75.4329H159.031V70.9875H154.017V75.4329ZM163.722 72.9951H168.736V68.5498H163.722V72.9951ZM173.524 70.8728H178.538V66.4275H173.524V70.8728ZM183.423 69.0947H188.437V64.6493H183.423V69.0947ZM193.386 67.6607H198.401V63.2153H193.386V67.6607ZM203.415 66.5422H208.429V62.0968H203.415V66.5422ZM213.475 65.7678H218.49V61.3225H213.475V65.7678ZM223.569 65.3376H228.583V60.8923H223.569V65.3376ZM233.662 65.2516H238.644V60.8349H233.662V65.2516ZM244.402 64.9074H248.057V61.6666H244.402V64.9074ZM482.172 208.45H477.158V212.895H482.172V208.45ZM480.748 221.27H485.763V216.824H480.748V221.27ZM488.965 225.313H483.951V229.759H488.965V225.313ZM491.812 233.889H486.798V238.334H491.812V233.889ZM493.138 243.582H490.421V245.992H493.138V243.582ZM493.915 253.563V253.506H493.85V253.563H493.915ZM498.088 260.159H493.106V264.576H498.088V260.159ZM499.447 269.021H494.432V273.467H499.447V269.021ZM495.694 282.099H500.094V278.199H495.694V282.099ZM497.473 289.958H499.479V288.179H497.473V289.958ZM258.183 539.644H259.444V538.525H258.183V539.644ZM251.26 537.521H246.246V541.967H251.26V537.521ZM241.167 537.866H236.153V542.311H241.167V537.866ZM231.074 537.866H226.059V542.311H231.074V537.866ZM220.981 537.521H215.966V541.967H220.981V537.521ZM210.92 536.862H205.906V541.307H210.92V536.862ZM200.891 535.858H195.877V540.303H200.891V535.858ZM190.895 534.539H185.881V538.984H190.895V534.539ZM180.964 532.904H175.95V537.349H180.964V532.904ZM171.13 530.925H166.116V535.37H171.13V530.925ZM160.293 529.577H157.413V532.13H160.293V529.577ZM128.008 75.9205H132.504V71.934H128.008V75.9205ZM137.163 72.9091H142.177V68.4637H137.163V72.9091ZM146.706 69.9837H151.72V65.5384H146.706V69.9837ZM156.346 67.3739H161.36V62.9285H156.346V67.3739ZM166.116 65.0795H171.13V60.6341H166.116V65.0795ZM175.95 63.1006H180.964V58.6552H175.95V63.1006ZM185.881 61.4659H190.895V57.0205H185.881V61.4659ZM195.877 60.1466H200.891V55.7012H195.877V60.1466ZM205.906 59.1428H210.92V54.6974H205.906V59.1428ZM215.966 58.4832H220.981V54.0378H215.966V58.4832ZM226.059 58.139H231.074V53.6936H226.059V58.139ZM236.153 58.139H241.167V53.6936H236.153V58.139ZM246.343 58.3971H251.163V54.1238H246.343V58.3971ZM258.636 57.0779H259.024V56.7337H258.636V57.0779ZM480.328 194.052H480.231V194.138H480.328V194.052ZM484.339 202.169V202.341H484.533V202.169H484.339ZM490.745 208.306H485.73V212.752H490.745V208.306ZM494.206 216.709H489.192V221.155H494.206V216.709ZM497.311 225.227H492.297V229.673H497.311V225.227ZM500.061 233.831H495.047V238.277H500.061V233.831ZM501.452 243.439H498.476V246.078H501.452V243.439ZM504.04 251.727H499.997V255.312H504.04V251.727ZM506.208 260.131H501.193V264.576H506.208V260.131ZM502.552 273.381H507.437V269.05H502.552V273.381ZM506.822 279.317H505.011V280.923H506.822V279.317ZM505.917 289.556H507.049V288.552H505.917V289.556ZM512.451 299.996H516.915V296.038H512.451V299.996ZM512.807 308.456H516.204V305.445H512.807V308.456ZM513.907 315.913H514.004V315.827H513.907V315.913ZM261.094 546.154H261.45V545.839H261.094V546.154ZM249.028 548.678H253.395V544.806H249.028V548.678ZM243.528 545.007H238.741V549.252H243.528V545.007ZM233.532 545.007H228.518V549.452H233.532V545.007ZM223.439 544.777H218.425V549.223H223.439V544.777ZM213.378 544.204H208.364V548.649H213.378V544.204ZM203.35 543.315H198.336V547.76H203.35V543.315ZM193.354 542.11H188.34V546.556H193.354V542.11ZM183.423 540.59H178.408V545.036H183.423V540.59ZM173.556 538.755H168.542V543.2H173.556V538.755ZM160.001 539.931H162.525V537.694H160.001V539.931ZM122.735 69.2094H123.511V68.5211H122.735V69.2094ZM129.981 67.718H134.995V63.2727H129.981V67.718ZM139.459 64.6493H144.474V60.2039H139.459V64.6493ZM149.067 61.8961H154.081V57.4507H149.067V61.8961ZM158.772 59.4296H163.786V54.9842H158.772V59.4296ZM168.574 57.2786H173.588V52.8332H168.574V57.2786ZM178.441 55.4431H183.455V50.9977H178.441V55.4431ZM188.372 53.9231H193.386V49.4777H188.372V53.9231ZM198.368 52.7185H203.382V48.2732H198.368V52.7185ZM213.411 47.3841H208.397V51.8294H213.411V47.3841ZM223.472 46.8105H218.457V51.2559H223.472V46.8105ZM228.55 50.9977H233.565V46.5524H228.55V50.9977ZM238.644 51.0838H243.658V46.6384H238.644V51.0838ZM248.737 51.4853H253.751V47.0399H248.737V51.4853ZM261.838 49.5064H260.738V50.4815H261.838V49.5064ZM485.504 185.047H483.725V186.624H485.504V185.047ZM490.745 192.332H487.218V195.458H490.745V192.332ZM494.109 201.136H491.974V203.029H494.109V201.136ZM494.238 212.637H499.253V208.192H494.238V212.637ZM502.617 216.623H497.603V221.069H502.617V216.623ZM505.658 225.17H500.644V229.615H505.658V225.17ZM508.343 233.803H503.329V238.248H508.343V233.803ZM510.672 242.521H505.658V246.967H510.672V242.521ZM512.645 251.297H507.631V255.743H512.645V251.297ZM514.263 260.131H509.249V264.576H514.263V260.131ZM515.524 269.021H510.51V273.467H515.524V269.021ZM516.43 277.941H511.416V282.386H516.43V277.941ZM511.966 291.306H516.98V286.86H511.966V291.306ZM520.183 300.254H525.197V295.808H520.183V300.254ZM520.053 309.144H524.97V304.785H520.053V309.144ZM521.93 315.941H522.027V315.855H521.93V315.941ZM243.108 554.672H244.175V553.726H243.108V554.672ZM236.056 552.12H231.041V556.565H236.056V552.12ZM225.962 551.976H220.948V556.421H225.962V551.976ZM215.869 551.517H210.855V555.963H215.869V551.517ZM205.809 550.743H200.794V555.188H205.809V550.743ZM195.78 549.653H190.766V554.098H195.78V549.653ZM185.817 548.248H180.802V552.693H185.817V548.248ZM175.918 546.527H170.903V550.972H175.918V546.527ZM162.622 547.588H164.53V545.896H162.622V547.588ZM123.996 61.4945H126.584V59.2001H123.996V61.4945ZM132.213 59.3722H137.227V54.9269H132.213V59.3722ZM141.756 56.4469H146.77V52.0015H141.756V56.4469ZM151.396 53.837H156.411V49.3917H151.396V53.837ZM161.134 51.514H166.148V47.0686H161.134V51.514ZM170.968 49.5064H175.982V45.061H170.968V49.5064ZM180.867 47.7856H185.881V43.3402H180.867V47.7856ZM190.831 46.3803H195.845V41.9349H190.831V46.3803ZM205.841 40.8451H200.827V45.2905H205.841V40.8451ZM215.902 40.0707H210.888V44.5161H215.902V40.0707ZM225.995 39.6119H220.981V44.0572H225.995V39.6119ZM236.088 39.4685H231.074V43.9138H236.088V39.4685ZM246.181 39.6119H241.167V44.0572H246.181V39.6119ZM256.274 40.0707H251.26V44.5161H256.274V40.0707ZM264.653 42.3364H263.003V43.7991H264.653V42.3364ZM494.659 184.588H492.33V186.653H494.659V184.588ZM500.255 191.5H495.241V195.945H500.255V191.5ZM499.188 204.176H504.202V199.731H499.188V204.176ZM507.825 208.077H502.811V212.522H507.825V208.077ZM511.125 216.537H506.111V220.983H511.125V216.537ZM514.069 225.084H509.054V229.529H514.069V225.084ZM516.689 233.717H511.675V238.162H516.689V233.717ZM518.953 242.435H513.939V246.881H518.953V242.435ZM520.894 251.211H515.88V255.657H520.894V251.211ZM522.48 260.045H517.465V264.49H522.48V260.045ZM523.709 268.935H518.695V273.381H523.709V268.935ZM524.582 277.855H519.568V282.3H524.582V277.855ZM520.183 291.162H525.035V286.86H520.183V291.162ZM530.438 298.303H531.182V297.644H530.438V298.303ZM530.438 307.108H530.858V306.735H530.438V307.108ZM234.923 562.53H237.414V560.322H234.923V562.53ZM228.583 559.117H223.569V563.563H228.583V559.117ZM218.49 558.745H213.475V563.19H218.49V558.745ZM208.429 558.056H203.415V562.502H208.429V558.056ZM198.401 557.081H193.386V561.526H198.401V557.081ZM188.404 555.79H183.39V560.236H188.404V555.79ZM178.473 554.213H173.459V558.658H178.473V554.213ZM165.113 555.418H167.086V553.668H165.113V555.418ZM126.52 52.7759H128.428V51.0838H126.52V52.7759ZM135.189 50.4241H138.715V47.298H135.189V50.4241ZM144.053 48.3018H149.067V43.8565H144.053V48.3018ZM153.758 45.8354H158.772V41.39H153.758V45.8354ZM163.56 43.6557H168.574V39.2103H163.56V43.6557ZM173.427 41.7628H178.441V37.3175H173.427V41.7628ZM183.358 40.1855H188.372V35.7401H183.358V40.1855ZM198.368 34.4495H193.354V38.8949H198.368V34.4495ZM207.685 34.1053H204.094V37.2888H207.685V34.1053ZM217.066 34.0193H214.834V35.9982H217.066V34.0193ZM228.55 32.4132H223.536V36.8586H228.55V32.4132ZM238.644 32.3272H233.629V36.7726H238.644V32.3272ZM248.737 32.5566H243.722V37.002H248.737V32.5566ZM258.733 33.1589H253.88V37.4609H258.733V33.1589ZM266.594 35.9408H266.108V36.371H266.594V35.9408ZM504.008 183.928H500.611V186.94H504.008V183.928ZM503.976 195.802H508.99V191.357H503.976V195.802ZM507.825 204.062H512.839V199.616H507.825V204.062ZM516.365 208.02H511.351V212.465H516.365V208.02ZM519.568 216.509H514.554V220.954H519.568V216.509ZM522.447 225.084H517.433V229.529H522.447V225.084ZM525.003 233.745H519.989V238.191H525.003V233.745ZM527.203 242.464H522.188V246.909H527.203V242.464ZM529.079 251.269H524.065V255.714H529.079V251.269ZM530.632 260.102H525.617V264.547H530.632V260.102ZM531.505 269.28H527.138V273.151H531.505V269.28ZM528.335 281.755H531.99V278.514H528.335V281.755ZM530.599 289.011V289.155H530.761V289.011H530.599ZM237.835 569.356H239.614V567.779H237.835V569.356ZM226.286 570.647H230.977V566.488H226.286V570.647ZM221.045 566.058H216.031V570.503H221.045V566.058ZM210.985 565.456H205.97V569.901H210.985V565.456ZM200.956 564.566H195.942V569.012H200.956V564.566ZM190.96 563.391H185.946V567.836H190.96V563.391ZM180.996 561.928H175.982V566.373H180.996V561.928ZM167.668 563.219H169.545V561.555H167.668V563.219ZM129.69 43.6557H129.819V43.541H129.69V43.6557ZM136.839 42.8814H141.756V38.522H136.839V42.8814ZM146.447 40.3002H151.461V35.8548H146.447V40.3002ZM156.184 37.9484H161.198V33.5031H156.184V37.9484ZM166.019 35.8835H171.033V31.4381H166.019V35.8835ZM175.918 34.134H180.932V29.6887H175.918V34.134ZM190.895 28.226H185.881V32.6714H190.895V28.226ZM199.242 28.5128H197.527V30.0328H199.242V28.5128ZM228.939 27.1935H228.292V27.7671H228.939V27.1935ZM239.711 26.5912H237.705V28.3694H239.711V26.5912ZM249.772 26.9067H247.798V28.6562H249.772V26.9067ZM258.927 28.312H258.765V28.4554H258.927V28.312ZM508.019 176.042H505.431V178.336H508.019V176.042ZM513.583 183.039H508.569V187.485H513.583V183.039ZM512.645 195.687H517.659V191.242H512.645V195.687ZM516.398 204.004H521.412V199.559H516.398V204.004ZM524.841 207.991H519.827V212.436H524.841V207.991ZM527.947 216.509H522.932V220.954H527.947V216.509ZM530.761 225.113H525.747V229.558H530.761V225.113ZM533.252 233.774H528.238V238.219H533.252V233.774ZM535.419 242.521H530.405V246.967H535.419V242.521ZM537.231 251.326H532.217V255.771H537.231V251.326ZM533.77 264.576H538.687V260.217H533.77V264.576ZM220.657 575.924H221.466V575.207H220.657V575.924ZM213.508 572.826H208.494V577.272H213.508V572.826ZM203.447 572.023H198.433V576.469H203.447V572.023ZM193.419 570.933H188.404V575.379H193.419V570.933ZM183.455 569.557H178.441V574.002H183.455V569.557ZM170.095 570.962H171.971V569.299H170.095V570.962ZM122.541 38.4073V38.35H122.476V38.4073H122.541ZM129.722 37.3462H134.251V33.331H129.722V37.3462ZM139.071 34.7937H144.085V30.3483H139.071V34.7937ZM148.776 32.2985H153.79V27.8532H148.776V32.2985ZM158.546 30.0902H163.56V25.6448H158.546V30.0902ZM168.412 28.1686H173.427V23.7233H168.412V28.1686ZM183.326 22.0885H178.311V26.5339H183.326V22.0885ZM191.931 21.9164H189.634V23.9527H191.931V21.9164ZM517.886 174.78H512.969V179.139H517.886V174.78ZM517.174 187.284H522.188V182.839H517.174V187.284ZM521.121 195.515H526.135V191.07H521.121V195.515ZM524.776 203.861H529.791V199.416H524.776V203.861ZM533.123 207.847H528.108V212.293H533.123V207.847ZM536.164 216.365H531.149V220.811H536.164V216.365ZM538.881 224.969H533.867V229.415H538.881V224.969ZM541.307 233.659H536.293V238.105H541.307V233.659ZM543.41 242.407H538.396V246.852H543.41V242.407ZM545.189 251.211H540.175V255.657H545.189V251.211ZM542.181 264.031H546.127V260.532H542.181V264.031ZM215.772 580.082H210.92V584.384H215.772V580.082ZM205.776 579.308H200.762V583.753H205.776V579.308ZM195.748 578.333H190.734V582.778H195.748V578.333ZM185.719 577.1H180.77V581.488H185.719V577.1ZM172.715 578.275H173.912V577.214H172.715V578.275ZM115.391 33.1589H115.262V33.2736H115.391V33.1589ZM122.476 32.0978H127.07V28.0252H122.476V32.0978ZM131.825 29.3732H136.839V24.9278H131.825V29.3732ZM141.465 26.7346H146.479V22.2893H141.465V26.7346ZM151.202 24.3829H156.217V19.9375H151.202V24.3829ZM166.019 17.8439H161.004V22.2893H166.019V17.8439ZM175.918 16.0371H170.903V20.4825H175.918V16.0371ZM184.102 16.0371H182.614V17.3564H184.102V16.0371ZM522.188 166.635H517.562V170.736H522.188V166.635ZM521.8 178.938H526.814V174.493H521.8V178.938ZM525.941 187.083H530.955V182.638H525.941V187.083ZM534.805 190.898H529.791V195.343H534.805V190.898ZM538.363 199.272H533.349V203.718H538.363V199.272ZM541.631 207.733H536.616V212.178H541.631V207.733ZM544.607 216.279H539.593V220.725H544.607V216.279ZM547.259 224.912H542.245V229.357H547.259V224.912ZM549.621 233.602H544.607V238.047H549.621V233.602ZM546.677 246.766H551.627V242.378H546.677V246.766ZM550.236 253.965H551.562V252.789H550.236V253.965ZM215.837 589.547H216.063V589.346H215.837V589.547ZM204.062 590.436H207.685V587.224H204.062V590.436ZM198.303 585.761H193.386V590.12H198.303V585.761ZM184.781 587.74H186.916V585.847H184.781V587.74ZM108.598 27.7098H107.757V28.4554H108.598V27.7098ZM120.05 22.5761H115.035V27.0214H120.05V22.5761ZM129.56 19.5647H124.546V24.0101H129.56V19.5647ZM139.168 16.8114H134.154V21.2568H139.168V16.8114ZM148.873 14.3163H143.859V18.7617H148.873V14.3163ZM158.643 12.0793H153.629V16.5246H158.643V12.0793ZM168.477 10.1004H163.463V14.5457H168.477V10.1004ZM176.467 10.1004H175.303V11.1328H176.467V10.1004ZM531.182 166.29H526.232V170.678H531.182V166.29ZM530.535 178.766H535.549V174.321H530.535V178.766ZM534.578 186.969H539.593V182.523H534.578V186.969ZM538.363 195.257H543.377V190.812H538.363V195.257ZM546.871 199.215H541.857V203.66H546.871V199.215ZM550.074 207.704H545.06V212.149H550.074V207.704ZM552.985 216.279H547.971V220.725H552.985V216.279ZM555.541 224.941H550.591V229.329H555.541V224.941ZM555.088 236.097H555.67V235.581H555.088V236.097ZM557.288 244.701H557.482V244.529H557.288V244.701ZM197.818 595.913H198.853V594.996H197.818V595.913ZM111.639 18.5035H109.051V20.7979H111.639V18.5035ZM122.185 14.3737H117.397V18.6183H122.185V14.3737ZM131.857 11.391H126.843V15.8363H131.857V11.391ZM141.497 8.75242H136.483V13.1978H141.497V8.75242ZM151.235 6.372H146.221V10.8174H151.235V6.372ZM160.843 4.42178H156.249V8.49431H160.843V4.42178ZM169.383 3.73346H167.442V5.45425H169.383V3.73346ZM534.675 158.776H531.343V161.73H534.675V158.776ZM540.013 166.032H534.999V170.478H540.013V166.032ZM539.237 178.594H544.251V174.149H539.237V178.594ZM548.198 182.38H543.183V186.825H548.198V182.38ZM551.885 190.697H546.871V195.142H551.885V190.697ZM555.282 199.129H550.268V203.574H555.282V199.129ZM558.032 207.962H553.794V211.719H558.032V207.962ZM557.126 219.864H560.329V217.025H557.126V219.864ZM561.105 227.235H561.429V226.948H561.105V227.235ZM122.929 7.51919H121.247V9.01054H122.929V7.51919ZM131.954 5.25349H131.404V5.74105H131.954V5.25349ZM141.756 2.61495H140.98V3.30327H141.756V2.61495ZM151.494 0.37793H150.782V1.00888H151.494V0.37793V0.37793ZM537.975 151.406H536.422V152.782H537.975V151.406ZM544.38 157.801H539.366V162.247H544.38V157.801ZM543.798 170.277H548.812V165.832H543.798V170.277ZM547.939 178.422H552.953V173.977H547.939V178.422ZM556.835 182.236H551.821V186.682H556.835V182.236ZM560.426 190.582H555.412V195.028H560.426V190.582ZM558.744 203.459H563.758V199.014H558.744V203.459ZM564.178 209.855H564.405V209.654H564.178V209.855ZM547.162 150.832H545.092V152.668H547.162V150.832ZM553.212 157.514H548.198V161.96H553.212V157.514ZM552.532 170.047H557.547V165.602H552.532V170.047ZM556.608 178.25H561.623V173.805H556.608V178.25ZM565.408 182.093H560.393V186.538H565.408V182.093ZM563.919 194.913H568.934V190.467H563.919V194.913ZM569.031 201.739H570.325V200.591H569.031V201.739ZM555.315 151.291H554.765V151.778H555.315V151.291ZM562.043 157.314H557.029V161.759H562.043V157.314ZM561.267 169.875H566.281V165.43H561.267V169.875ZM570.26 173.661H565.246V178.107H570.26V173.661ZM573.98 181.978H568.966V186.424H573.98V181.978ZM573.398 193.966H576.439V191.271H573.398V193.966ZM566.281 149.197H561.558V153.385H566.281V149.197ZM570.81 157.113H565.796V161.558H570.81V157.113ZM574.918 165.315H570.001V169.675H574.918V165.315ZM578.865 173.518H573.851V177.963H578.865V173.518ZM577.506 186.309H582.521V181.864H577.506V186.309ZM583.038 192.848H583.75V192.217H583.038V192.848ZM568.513 142.83H567.931V143.347H568.513V142.83ZM574.724 149.341H570.842V152.782H574.724V149.341ZM579.415 157.084H574.789V161.185H579.415V157.084ZM579.156 169.101H583.2V165.516H579.156V169.101ZM582.488 177.82H587.502V173.374H582.488V177.82ZM590.511 182.236H586.564V185.735H590.511V182.236ZM590.511 193.651H593.261V191.213H590.511V193.651ZM591.287 165.889H588.343V168.499H591.287V165.889ZM591.287 177.504H595.816V173.489H591.287V177.504ZM598.21 167.237H598.663V166.835H598.21V167.237ZM602.06 175.353V175.411H602.124V175.353H602.06Z" fill="#01163E"/>
</svg>
