<svg width="603" height="611" viewBox="0 0 603 611" fill="none" xmlns="http://www.w3.org/2000/svg">
<path d="M231.106 303.371H236.12V307.927H231.106V303.371ZM239.129 307.927H244.143V303.371H239.129V307.927ZM238.579 310.308H233.565V314.864H238.579V310.308ZM224.604 312.218H229.618V307.663H224.604V312.218ZM229.618 299.08H224.604V303.636H229.618V299.08ZM233.597 300.991H238.611V296.435H233.597V300.991ZM252.198 303.371H247.184V307.927H252.198V303.371ZM244.111 316.509H249.125V311.954H244.111V316.509ZM241.07 317.274H236.056V321.829H241.07V317.274ZM231.138 317.274H226.124V321.829H231.138V317.274ZM223.116 311.983H218.101V316.539H223.116V311.983ZM220.042 303.401H215.028V307.956H220.042V303.401ZM223.116 294.818H218.101V299.374H223.116V294.818ZM226.124 294.054H231.138V289.498H226.124V294.054ZM241.07 289.498H236.056V294.054H241.07V289.498ZM244.111 299.345H249.125V294.789H244.111V299.345ZM255.207 307.927H260.221V303.371H255.207V307.927ZM253.136 316.833H258.15V312.277H253.136V316.833ZM252.263 319.654H247.249V324.21H252.263V319.654ZM243.593 324.21H238.579V328.766H243.593V324.21ZM233.629 325.151H228.615V329.707H233.629V325.151ZM224.086 322.329H219.072V326.885H224.086V322.329ZM216.646 316.245H211.632V320.801H216.646V316.245ZM212.57 307.927H207.556V312.483H212.57V307.927ZM212.57 298.816H207.556V303.371H212.57V298.816ZM211.632 295.053H216.646V290.498H211.632V295.053ZM224.086 284.413H219.072V288.969H224.086V284.413ZM228.615 286.148H233.629V281.592H228.615V286.148ZM238.579 287.088H243.593V282.532H238.579V287.088ZM247.249 291.644H252.263V287.088H247.249V291.644ZM253.136 299.021H258.15V294.466H253.136V299.021ZM268.243 303.371H263.229V307.927H268.243V303.371ZM261.676 316.95H266.691V312.395H261.676V316.95ZM262.129 320.536H257.115V325.092H262.129V320.536ZM249.998 331.558H255.012V327.002H249.998V331.558ZM246.052 331.147H241.037V335.702H246.052V331.147ZM236.12 332.587H231.106V337.143H236.12V332.587ZM226.189 331.147H221.175V335.702H226.189V331.147ZM217.228 327.002H212.214V331.558H217.228V327.002ZM210.111 320.536H205.097V325.092H210.111V320.536ZM205.55 312.395H200.536V316.95H205.55V312.395ZM203.965 303.371H198.95V307.927H203.965V303.371ZM205.55 294.348H200.536V298.904H205.55V294.348ZM210.111 286.206H205.097V290.762H210.111V286.206ZM217.228 279.74H212.214V284.296H217.228V279.74ZM221.175 280.152H226.189V275.596H221.175V280.152ZM231.106 278.711H236.12V274.156H231.106V278.711ZM241.037 280.152H246.052V275.596H241.037V280.152ZM249.998 284.296H255.012V279.74H249.998V284.296ZM262.129 286.206H257.115V290.762H262.129V286.206ZM261.676 298.904H266.691V294.348H261.676V298.904ZM271.284 307.927H276.299V303.371H271.284V307.927ZM275.037 312.453H270.023V317.009H275.037V312.453ZM271.317 320.948H266.302V325.503H271.317V320.948ZM265.397 328.354H260.383V332.91H265.397V328.354ZM252.619 338.73H257.633V334.174H252.619V338.73ZM248.51 338.083H243.496V342.639H248.51V338.083ZM238.611 339.788H233.597V344.344H238.611V339.788ZM228.55 339.2H223.536V343.756H228.55V339.2ZM218.975 336.378H213.961V340.934H218.975V336.378ZM210.467 331.47H205.453V336.026H210.467V331.47ZM203.576 324.798H198.562V329.354H203.576V324.798ZM193.71 321.33H198.724V316.774H193.71V321.33ZM196.201 307.927H191.187V312.483H196.201V307.927ZM196.201 298.786H191.187V303.342H196.201V298.786ZM193.71 294.466H198.724V289.91H193.71V294.466ZM203.576 281.915H198.562V286.471H203.576V281.915ZM205.453 279.799H210.467V275.243H205.453V279.799ZM213.961 274.89H218.975V270.335H213.961V274.89ZM223.536 272.069H228.55V267.513H223.536V272.069ZM233.597 271.481H238.611V266.925H233.597V271.481ZM243.496 273.186H248.51V268.63H243.496V273.186ZM252.619 277.065H257.633V272.51H252.619V277.065ZM260.383 282.885H265.397V278.329H260.383V282.885ZM266.302 290.292H271.317V285.736H266.302V290.292ZM270.023 298.786H275.037V294.23H270.023V298.786ZM279.307 307.868H284.321V303.312H279.307V307.868ZM283.254 312.424H278.24V316.98H283.254V312.424ZM275.134 325.68H280.148V321.124H275.134V325.68ZM275.134 329.06H270.12V333.616H275.134V329.06ZM268.405 335.849H263.391V340.405H268.405V335.849ZM260.253 341.228H255.239V345.784H260.253V341.228ZM251.033 344.961H246.019V349.517H251.033V344.961ZM241.167 346.871H236.153V351.427H241.167V346.871ZM231.106 346.871H226.092V351.427H231.106V346.871ZM216.258 349.517H221.272V344.961H216.258V349.517ZM212.052 341.258H207.038V345.813H212.052V341.258ZM203.9 335.879H198.886V340.435H203.9V335.879ZM197.171 329.089H192.157V333.645H197.171V329.089ZM187.143 325.709H192.157V321.153H187.143V325.709ZM189.051 312.453H184.037V317.009H189.051V312.453ZM187.984 303.342H182.97V307.898H187.984V303.342ZM189.051 294.23H184.037V298.786H189.051V294.23ZM192.157 285.53H187.143V290.086H192.157V285.53ZM192.157 282.15H197.171V277.595H192.157V282.15ZM198.886 275.361H203.9V270.805H198.886V275.361ZM207.038 269.982H212.052V265.426H207.038V269.982ZM216.258 266.249H221.272V261.693H216.258V266.249ZM226.124 264.339H231.138V259.783H226.124V264.339ZM236.185 264.339H241.199V259.783H236.185V264.339ZM246.052 266.249H251.066V261.693H246.052V266.249ZM255.239 269.982H260.253V265.426H255.239V269.982ZM263.391 275.361H268.405V270.805H263.391V275.361ZM270.12 282.15H275.134V277.595H270.12V282.15ZM275.166 290.086H280.181V285.53H275.166V290.086ZM278.272 298.786H283.286V294.23H278.272V298.786ZM287.362 307.898H292.376V303.342H287.362V307.898ZM291.471 312.483H286.456V317.039H291.471V312.483ZM288.786 321.3H283.771V325.856H288.786V321.3ZM284.418 329.56H279.404V334.115H284.418V329.56ZM278.498 336.966H273.484V341.522H278.498V336.966ZM271.22 343.286H266.205V347.841H271.22V343.286ZM262.809 348.341H257.795V352.897H262.809V348.341ZM253.557 351.927H248.543V356.483H253.557V351.927ZM243.722 353.955H238.708V358.511H243.722V353.955ZM233.662 354.366H228.647V358.922H233.662V354.366ZM223.666 353.132H218.651V357.688H223.666V353.132ZM209.076 354.866H214.09V350.31H209.076V354.866ZM205.194 345.99H200.18V350.545H205.194V345.99ZM197.301 340.288H192.286V344.843H197.301V340.288ZM190.669 333.38H185.655V337.936H190.669V333.38ZM185.493 325.533H180.479V330.089H185.493V325.533ZM181.967 316.95H176.953V321.506H181.967V316.95ZM180.155 307.927H175.141V312.483H180.155V307.927ZM180.155 298.757H175.141V303.312H180.155V298.757ZM181.967 289.733H176.953V294.289H181.967V289.733ZM185.493 281.151H180.479V285.707H185.493V281.151ZM190.669 273.303H185.655V277.859H190.669V273.303ZM192.286 270.952H197.301V266.396H192.286V270.952ZM200.18 265.25H205.194V260.694H200.18V265.25ZM209.044 260.9H214.058V256.344H209.044V260.9ZM218.619 258.078H223.633V253.522H218.619V258.078ZM228.615 256.844H233.629V252.288H228.615V256.844ZM238.676 257.255H243.69V252.699H238.676V257.255ZM248.51 259.283H253.524V254.728H248.51V259.283ZM257.795 262.869H262.809V258.313H257.795V262.869ZM266.205 267.925H271.22V263.369H266.205V267.925ZM273.484 274.244H278.498V269.688H273.484V274.244ZM279.404 281.651H284.418V277.095H279.404V281.651ZM283.771 289.91H288.786V285.354H283.771V289.91ZM286.456 298.727H291.471V294.172H286.456V298.727ZM300.399 303.312H295.385V307.868H300.399V303.312ZM299.623 312.453H294.608V317.009H299.623V312.453ZM297.261 321.359H292.247V325.915H297.261V321.359ZM293.412 329.824H288.397V334.38H293.412V329.824ZM288.139 337.642H283.124V342.198H288.139V337.642ZM281.604 344.608H276.59V349.164H281.604V344.608ZM273.937 350.545H268.923V355.101H273.937V350.545ZM265.332 355.336H260.318V359.892H265.332V355.336ZM256.015 358.834H251.001V363.39H256.015V358.834ZM246.213 360.98H241.199V365.535H246.213V360.98ZM236.153 361.685H231.138V366.241H236.153V361.685ZM226.092 360.98H221.078V365.535H226.092V360.98ZM216.29 358.834H211.276V363.39H216.29V358.834ZM206.973 355.336H201.959V359.892H206.973V355.336ZM198.368 350.545H193.354V355.101H198.368V350.545ZM190.701 344.608H185.687V349.164H190.701V344.608ZM179.152 342.198H184.167V337.642H179.152V342.198ZM178.894 329.824H173.879V334.38H178.894V329.824ZM175.044 321.359H170.03V325.915H175.044V321.359ZM172.683 312.453H167.668V317.009H172.683V312.453ZM171.906 303.312H166.892V307.868H171.906V303.312ZM167.701 298.727H172.715V294.172H167.701V298.727ZM175.076 285.266H170.062V289.822H175.076V285.266ZM178.926 276.801H173.912V281.357H178.926V276.801ZM184.199 268.983H179.185V273.538H184.199V268.983ZM185.752 266.573H190.766V262.017H185.752V266.573ZM193.419 260.635H198.433V256.08H193.419V260.635ZM202.024 255.844H207.038V251.289H202.024V255.844ZM211.34 252.347H216.355V247.791H211.34V252.347ZM221.142 250.201H226.157V245.645H221.142V250.201ZM231.203 249.496H236.217V244.94H231.203V249.496ZM241.264 250.201H246.278V245.645H241.264V250.201ZM251.066 252.347H256.08V247.791H251.066V252.347ZM260.383 255.844H265.397V251.289H260.383V255.844ZM268.988 260.635H274.002V256.08H268.988V260.635ZM276.654 266.573H281.669V262.017H276.654V266.573ZM283.189 273.538H288.203V268.983H283.189V273.538ZM288.462 281.357H293.476V276.801H288.462V281.357ZM292.312 289.822H297.326V285.266H292.312V289.822ZM294.673 298.727H299.687V294.172H294.673V298.727ZM303.505 307.868H308.519V303.312H303.505V307.868ZM307.807 312.453H302.793V317.009H307.807V312.453ZM300.69 325.974H305.704V321.418H300.69V325.974ZM302.243 330.03H297.229V334.586H302.243V330.03ZM297.52 338.113H292.506V342.668H297.52V338.113ZM291.6 345.519H286.586V350.075H291.6V345.519ZM284.58 352.103H279.566V356.659H284.58V352.103ZM276.622 357.746H271.608V362.302H276.622V357.746ZM267.888 362.332H262.873V366.887H267.888V362.332ZM258.539 365.77H253.524V370.326H258.539V365.77ZM248.769 367.975H243.755V372.531H248.769V367.975ZM238.741 368.945H233.726V373.501H238.741V368.945ZM228.647 368.621H223.633V373.177H228.647V368.621ZM218.716 367.034H213.702V371.59H218.716V367.034ZM209.141 364.213H204.126V368.768H209.141V364.213ZM200.083 360.186H195.069V364.742H200.083V360.186ZM191.737 355.072H186.722V359.628H191.737V355.072ZM184.231 348.929H179.217V353.485H184.231V348.929ZM172.747 346.46H177.761V341.904H172.747V346.46ZM172.424 334.145H167.41V338.7H172.424V334.145ZM168.315 325.768H163.301V330.324H168.315V325.768ZM165.533 316.95H160.519V321.506H165.533V316.95ZM164.142 307.868H159.128V312.424H164.142V307.868ZM159.128 303.254H164.142V298.698H159.128V303.254ZM165.533 289.616H160.519V294.172H165.533V289.616ZM168.315 280.798H163.301V285.354H168.315V280.798ZM172.424 272.422H167.41V276.977H172.424V272.422ZM177.761 264.662H172.747V269.218H177.761V264.662ZM184.231 257.637H179.217V262.193H184.231V257.637ZM186.722 256.05H191.737V251.494H186.722V256.05ZM195.069 250.936H200.083V246.38H195.069V250.936ZM204.126 246.909H209.141V242.354H204.126V246.909ZM213.702 244.088H218.716V239.532H213.702V244.088ZM223.633 242.501H228.647V237.945H223.633V242.501ZM233.726 242.177H238.741V237.621H233.726V242.177ZM243.755 243.147H248.769V238.591H243.755V243.147ZM253.524 245.352H258.539V240.796H253.524V245.352ZM262.873 248.79H267.888V244.235H262.873V248.79ZM271.608 253.376H276.622V248.82H271.608V253.376ZM279.566 259.019H284.58V254.463H279.566V259.019ZM286.586 265.603H291.6V261.047H286.586V265.603ZM292.506 273.009H297.52V268.454H292.506V273.009ZM297.229 281.092H302.243V276.536H297.229V281.092ZM300.69 289.704H305.704V285.148H300.69V289.704ZM302.793 298.669H307.807V294.113H302.793V298.669ZM316.542 303.254H311.527V307.809H316.542V303.254ZM310.913 316.95H315.927V312.395H310.913V316.95ZM309.036 325.944H314.051V321.389H309.036V325.944ZM305.931 334.674H310.945V330.118H305.931V334.674ZM306.643 338.407H301.628V342.962H306.643V338.407ZM301.24 346.137H296.226V350.692H301.24V346.137ZM294.803 353.191H289.788V357.746H294.803V353.191ZM287.459 359.451H282.445V364.007H287.459V359.451ZM279.307 364.83H274.293V369.386H279.307V364.83ZM270.476 369.239H265.461V373.794H270.476V369.239ZM261.094 372.619H256.08V377.175H261.094V372.619ZM251.325 374.911H246.31V379.467H251.325V374.911ZM241.329 376.058H236.314V380.613H241.329V376.058ZM231.235 376.058H226.221V380.613H231.235V376.058ZM221.239 374.911H216.225V379.467H221.239V374.911ZM211.47 372.619H206.456V377.175H211.47V372.619ZM202.088 369.239H197.074V373.794H202.088V369.239ZM193.257 364.83H188.243V369.386H193.257V364.83ZM185.105 359.451H180.091V364.007H185.105V359.451ZM177.761 353.191H172.747V357.746H177.761V353.191ZM166.31 350.692H171.324V346.137H166.31V350.692ZM165.921 338.407H160.907V342.962H165.921V338.407ZM161.619 330.118H156.605V334.674H161.619V330.118ZM158.513 321.389H153.499V325.944H158.513V321.389ZM156.637 312.395H151.623V316.95H156.637V312.395ZM155.99 303.254H150.976V307.809H155.99V303.254ZM156.637 294.113H151.623V298.669H156.637V294.113ZM158.513 285.119H153.499V289.675H158.513V285.119ZM161.619 276.389H156.605V280.945H161.619V276.389ZM165.921 268.101H160.907V272.657H165.921V268.101ZM171.324 260.371H166.31V264.927H171.324V260.371ZM177.761 253.317H172.747V257.872H177.761V253.317ZM180.091 251.583H185.105V247.027H180.091V251.583ZM188.243 246.204H193.257V241.648H188.243V246.204ZM197.074 241.795H202.088V237.239H197.074V241.795ZM206.456 238.415H211.47V233.859H206.456V238.415ZM216.225 236.122H221.239V231.567H216.225V236.122ZM226.221 234.976H231.235V230.42H226.221V234.976ZM236.314 234.976H241.329V230.42H236.314V234.976ZM246.31 236.122H251.325V231.567H246.31V236.122ZM256.08 238.415H261.094V233.859H256.08V238.415ZM265.461 241.795H270.476V237.239H265.461V241.795ZM274.293 246.204H279.307V241.648H274.293V246.204ZM282.445 251.583H287.459V247.027H282.445V251.583ZM289.788 257.843H294.803V253.287H289.788V257.843ZM296.226 264.897H301.24V260.341H296.226V264.897ZM301.628 272.627H306.643V268.072H301.628V272.627ZM305.931 280.916H310.945V276.36H305.931V280.916ZM309.036 289.645H314.051V285.089H309.036V289.645ZM310.913 298.639H315.927V294.083H310.913V298.639ZM324.597 303.224H319.582V307.78H324.597V303.224ZM324.014 312.365H319V316.921H324.014V312.365ZM322.3 321.389H317.286V325.944H322.3V321.389ZM319.453 330.177H314.439V334.733H319.453V330.177ZM315.539 338.612H310.525V343.168H315.539V338.612ZM310.589 346.607H305.575V351.163H310.589V346.607ZM304.669 354.014H299.655V358.569H304.669V354.014ZM297.843 360.774H292.829V365.33H297.843V360.774ZM290.209 366.77H285.195V371.326H290.209V366.77ZM281.895 371.943H276.881V376.499H281.895V371.943ZM272.967 376.234H267.952V380.79H272.967V376.234ZM263.553 379.555H258.539V384.111H263.553V379.555ZM253.783 381.877H248.769V386.433H253.783V381.877ZM243.787 383.171H238.773V387.726H243.787V383.171ZM233.694 383.435H228.68V387.991H233.694V383.435ZM223.633 382.641H218.619V387.197H223.633V382.641ZM213.734 380.819H208.72V385.375H213.734V380.819ZM204.126 377.997H199.112V382.553H204.126V377.997ZM194.939 374.177H189.925V378.732H194.939V374.177ZM186.302 369.444H181.288V374H186.302V369.444ZM178.311 363.86H173.297V368.416H178.311V363.86ZM171.065 357.482H166.051V362.038H171.065V357.482ZM159.678 354.925H164.692V350.369H159.678V354.925ZM159.225 342.668H154.211V347.224H159.225V342.668ZM154.761 334.439H149.747V338.994H154.761V334.439ZM151.364 325.797H146.35V330.353H151.364V325.797ZM149.067 316.862H144.053V321.418H149.067V316.862ZM147.903 307.751H142.889V312.306H147.903V307.751ZM142.889 303.136H147.903V298.58H142.889V303.136ZM149.035 289.469H144.021V294.025H149.035V289.469ZM151.332 280.534H146.318V285.089H151.332V280.534ZM154.728 271.892H149.714V276.448H154.728V271.892ZM159.193 263.663H154.179V268.218H159.193V263.663ZM164.66 255.962H159.646V260.518H164.66V255.962ZM171.033 248.879H166.019V253.434H171.033V248.879ZM173.265 247.027H178.279V242.471H173.265V247.027ZM181.255 241.442H186.269V236.887H181.255V241.442ZM189.893 236.71H194.907V232.155H189.893V236.71ZM199.08 232.889H204.094V228.334H199.08V232.889ZM208.688 230.068H213.702V225.512H208.688V230.068ZM218.587 228.245H223.601V223.69H218.587V228.245ZM228.647 227.452H233.662V222.896H228.647V227.452ZM238.741 227.716H243.755V223.161H238.741V227.716ZM248.737 229.01H253.751V224.454H248.737V229.01ZM258.506 231.332H263.52V226.776H258.506V231.332ZM267.92 234.653H272.934V230.097H267.92V234.653ZM276.849 238.944H281.863V234.388H276.849V238.944ZM285.162 244.117H290.177V239.561H285.162V244.117ZM292.797 250.113H297.811V245.557H292.797V250.113ZM299.623 256.873H304.637V252.317H299.623V256.873ZM305.543 264.28H310.557V259.724H305.543V264.28ZM310.492 272.275H315.506V267.719H310.492V272.275ZM314.406 280.71H319.421V276.154H314.406V280.71ZM317.253 289.498H322.267V284.943H317.253V289.498ZM318.968 298.522H323.982V293.966H318.968V298.522ZM332.587 303.136H327.573V307.692H332.587V303.136ZM332.069 312.277H327.055V316.833H332.069V312.277ZM330.484 321.33H325.47V325.886H330.484V321.33ZM327.864 330.177H322.85V334.733H327.864V330.177ZM324.241 338.73H319.227V343.286H324.241V338.73ZM319.647 346.901H314.633V351.457H319.647V346.901ZM314.148 354.602H309.133V359.157H314.148V354.602ZM307.807 361.714H302.793V366.27H307.807V361.714ZM300.658 368.21H295.644V372.766H300.658V368.21ZM292.829 373.971H287.815V378.527H292.829V373.971ZM284.354 378.967H279.339V383.523H284.354V378.967ZM275.36 383.141H270.346V387.697H275.36V383.141ZM265.947 386.433H260.932V390.989H265.947V386.433ZM256.209 388.814H251.195V393.37H256.209V388.814ZM246.246 390.254H241.232V394.81H246.246V390.254ZM236.185 390.724H231.171V395.28H236.185V390.724ZM226.124 390.254H221.11V394.81H226.124V390.254ZM216.161 388.814H211.146V393.37H216.161V388.814ZM206.423 386.433H201.409V390.989H206.423V386.433ZM197.01 383.141H191.995V387.697H197.01V383.141ZM188.016 378.967H183.002V383.523H188.016V378.967ZM179.541 373.971H174.526V378.527H179.541V373.971ZM171.712 368.21H166.698V372.766H171.712V368.21ZM164.563 361.714H159.549V366.27H164.563V361.714ZM153.208 359.128H158.222V354.572H153.208V359.128ZM152.723 346.901H147.709V351.457H152.723V346.901ZM148.129 338.73H143.115V343.286H148.129V338.73ZM144.506 330.177H139.492V334.733H144.506V330.177ZM141.886 321.33H136.871V325.886H141.886V321.33ZM140.301 312.277H135.286V316.833H140.301V312.277ZM139.783 303.136H134.769V307.692H139.783V303.136ZM140.301 293.995H135.286V298.551H140.301V293.995ZM141.886 284.943H136.871V289.498H141.886V284.943ZM144.506 276.096H139.492V280.651H144.506V276.096ZM148.129 267.542H143.115V272.098H148.129V267.542ZM152.723 259.371H147.709V263.927H152.723V259.371ZM158.222 251.671H153.208V256.227H158.222V251.671ZM164.563 244.558H159.549V249.114H164.563V244.558ZM166.698 242.618H171.712V238.062H166.698V242.618ZM179.541 232.301H174.526V236.857H179.541V232.301ZM183.002 231.861H188.016V227.305H183.002V231.861ZM191.995 227.687H197.01V223.131H191.995V227.687ZM201.409 224.395H206.423V219.839H201.409V224.395ZM211.146 222.014H216.161V217.459H211.146V222.014ZM221.11 220.574H226.124V216.018H221.11V220.574ZM231.171 220.104H236.185V215.548H231.171V220.104ZM241.232 220.574H246.246V216.018H241.232V220.574ZM251.195 222.014H256.209V217.459H251.195V222.014ZM260.932 224.395H265.947V219.839H260.932V224.395ZM270.346 227.687H275.36V223.131H270.346V227.687ZM279.339 231.861H284.354V227.305H279.339V231.861ZM287.815 236.857H292.829V232.301H287.815V236.857ZM295.644 242.618H300.658V238.062H295.644V242.618ZM302.793 249.114H307.807V244.558H302.793V249.114ZM309.133 256.227H314.148V251.671H309.133V256.227ZM314.633 263.927H319.647V259.371H314.633V263.927ZM319.227 272.098H324.241V267.542H319.227V272.098ZM322.85 280.651H327.864V276.096H322.85V280.651ZM325.47 289.498H330.484V284.943H325.47V289.498ZM332.069 293.995H327.055V298.551H332.069V293.995ZM340.642 303.136H335.628V307.692H340.642V303.136ZM335.143 316.833H340.157V312.277H335.143V316.833ZM338.701 321.359H333.687V325.915H338.701V321.359ZM336.275 330.265H331.261V334.821H336.275V330.265ZM332.91 338.906H327.896V343.462H332.91V338.906ZM328.673 347.224H323.658V351.78H328.673V347.224ZM323.561 355.131H318.547V359.686H323.561V355.131ZM317.641 362.537H312.627V367.093H317.641V362.537ZM310.945 369.386H305.931V373.941H310.945V369.386ZM303.569 375.617H298.555V380.173H303.569V375.617ZM295.547 381.172H290.532V385.728H295.547V381.172ZM286.974 386.022H281.96V390.577H286.974V386.022ZM277.916 390.078H272.902V394.633H277.916V390.078ZM268.47 393.34H263.456V397.896H268.47V393.34ZM258.733 395.75H253.718V400.306H258.733V395.75ZM248.801 397.308H243.787V401.864H248.801V397.308ZM238.741 397.984H233.726V402.54H238.741V397.984ZM228.647 397.749H223.633V402.305H228.647V397.749ZM218.619 396.632H213.605V401.188H218.619V396.632ZM208.785 394.663H203.771V399.219H208.785V394.663ZM199.177 391.841H194.163V396.397H199.177V391.841ZM189.925 388.167H184.911V392.723H189.925V388.167ZM181.093 383.7H176.079V388.255H181.093V383.7ZM172.78 378.497H167.765V383.053H172.78V378.497ZM165.08 372.589H160.066V377.145H165.08V372.589ZM158.028 366.035H153.014V370.591H158.028V366.035ZM146.706 363.448H151.72V358.893H146.706V363.448ZM146.188 351.221H141.174V355.777H146.188V351.221ZM141.497 343.109H136.483V347.665H141.497V343.109ZM137.68 334.615H132.666V339.171H137.68V334.615ZM134.801 325.827H129.787V330.383H134.801V325.827ZM132.86 316.833H127.846V321.389H132.86V316.833ZM131.89 307.721H126.875V312.277H131.89V307.721ZM126.875 303.107H131.89V298.551H126.875V303.107ZM132.86 289.439H127.846V293.995H132.86V289.439ZM134.801 280.446H129.787V285.001H134.801V280.446ZM137.68 271.657H132.666V276.213H137.68V271.657ZM136.483 267.719H141.497V263.163H136.483V267.719ZM146.188 255.051H141.174V259.607H146.188V255.051ZM151.72 247.38H146.706V251.935H151.72V247.38ZM158.028 240.237H153.014V244.793H158.028V240.237ZM160.066 238.239H165.08V233.683H160.066V238.239ZM172.78 227.775H167.765V232.331H172.78V227.775ZM176.079 227.128H181.093V222.573H176.079V227.128ZM184.911 222.661H189.925V218.105H184.911V222.661ZM194.163 218.987H199.177V214.431H194.163V218.987ZM203.771 216.165H208.785V211.61H203.771V216.165ZM213.637 214.196H218.651V209.64H213.637V214.196ZM223.666 213.079H228.68V208.523H223.666V213.079ZM233.759 212.844H238.773V208.288H233.759V212.844ZM243.819 213.52H248.834V208.964H243.819V213.52ZM253.751 215.078H258.765V210.522H253.751V215.078ZM263.488 217.488H268.502V212.932H263.488V217.488ZM272.934 220.75H277.948V216.195H272.934V220.75ZM281.992 224.807H287.006V220.251H281.992V224.807ZM290.565 229.656H295.579V225.1H290.565V229.656ZM298.587 235.211H303.602V230.656H298.587V235.211ZM305.963 241.442H310.977V236.887H305.963V241.442ZM312.66 248.291H317.674V243.735H312.66V248.291ZM318.58 255.697H323.594V251.142H318.58V255.697ZM323.691 263.604H328.705V259.048H323.691V263.604ZM327.929 271.922H332.943V267.366H327.929V271.922ZM331.293 280.563H336.307V276.007H331.293V280.563ZM333.719 289.469H338.733V284.913H333.719V289.469ZM340.189 293.995H335.175V298.551H340.189V293.995ZM348.697 303.166H343.683V307.721H348.697V303.166ZM348.244 312.336H343.23V316.892H348.244V312.336ZM346.886 321.418H341.871V325.974H346.886V321.418ZM344.653 330.353H339.639V334.909H344.653V330.353ZM341.548 339.083H336.534V343.638H341.548V339.083ZM337.569 347.518H332.555V352.074H337.569V347.518ZM332.781 355.601H327.767V360.157H332.781V355.601ZM327.217 363.243H322.203V367.798H327.217V363.243ZM320.941 370.414H315.927V374.97H320.941V370.414ZM313.954 377.028H308.939V381.583H313.954V377.028ZM306.351 383.053H301.337V387.609H306.351V383.053ZM298.199 388.432H293.185V392.987H298.199V388.432ZM289.53 393.134H284.515V397.69H289.53V393.134ZM280.439 397.102H275.425V401.658H280.439V397.102ZM270.993 400.335H265.979V404.891H270.993V400.335ZM261.256 402.775H256.242V407.331H261.256V402.775ZM251.325 404.421H246.31V408.977H251.325V404.421ZM241.264 405.244H236.25V409.8H241.264V405.244ZM231.171 405.244H226.157V409.8H231.171V405.244ZM221.11 404.421H216.096V408.977H221.11V404.421ZM211.179 402.775H206.164V407.331H211.179V402.775ZM201.441 400.335H196.427V404.891H201.441V400.335ZM191.995 397.102H186.981V401.658H191.995V397.102ZM182.905 393.134H177.891V397.69H182.905V393.134ZM174.235 388.432H169.221V392.987H174.235V388.432ZM166.083 383.053H161.069V387.609H166.083V383.053ZM158.481 377.028H153.467V381.583H158.481V377.028ZM151.494 370.414H146.479V374.97H151.494V370.414ZM140.203 367.798H145.218V363.243H140.203V367.798ZM139.654 355.601H134.639V360.157H139.654V355.601ZM134.866 347.518H129.852V352.074H134.866V347.518ZM130.887 339.083H125.873V343.638H130.887V339.083ZM127.781 330.353H122.767V334.909H127.781V330.353ZM125.549 321.418H120.535V325.974H125.549V321.418ZM124.19 312.336H119.176V316.892H124.19V312.336ZM118.723 307.721H123.737V303.166H118.723V307.721ZM124.19 294.025H119.176V298.58H124.19V294.025ZM125.549 284.943H120.535V289.498H125.549V284.943ZM127.781 276.007H122.767V280.563H127.781V276.007ZM125.905 271.834H130.919V267.278H125.905V271.834ZM134.866 258.842H129.852V263.398H134.866V258.842ZM134.639 255.315H139.654V250.76H134.639V255.315ZM145.218 243.118H140.203V247.673H145.218V243.118ZM146.512 240.502H151.526V235.946H146.512V240.502ZM153.499 229.333V233.889H158.513V229.333H153.499ZM166.116 223.308H161.101V227.863H166.116V223.308ZM169.286 222.455H174.3V217.899H169.286V222.455ZM177.956 217.752H182.97V213.197H177.956V217.752ZM187.046 213.785H192.06V209.229H187.046V213.785ZM196.492 210.551H201.506V205.996H196.492V210.551ZM206.229 208.112H211.243V203.556H206.229V208.112ZM216.161 206.466H221.175V201.91H216.161V206.466ZM226.221 205.643H231.235V201.087H226.221V205.643ZM236.314 205.643H241.329V201.087H236.314V205.643ZM246.375 206.466H251.389V201.91H246.375V206.466ZM256.306 208.112H261.321V203.556H256.306V208.112ZM266.044 210.551H271.058V205.996H266.044V210.551ZM275.49 213.785H280.504V209.229H275.49V213.785ZM284.58 217.752H289.594V213.197H284.58V217.752ZM293.25 222.455H298.264V217.899H293.25V222.455ZM301.402 227.834H306.416V223.278H301.402V227.834ZM309.004 233.859H314.018V229.303H309.004V233.859ZM315.992 240.472H321.006V235.917H315.992V240.472ZM322.267 247.644H327.282V243.088H322.267V247.644ZM327.832 255.286H332.846V250.73H327.832V255.286ZM332.619 263.369H337.634V258.813H332.619V263.369ZM336.598 271.804H341.613V267.249H336.598V271.804ZM344.718 275.978H339.704V280.534H344.718V275.978ZM346.95 284.913H341.936V289.469H346.95V284.913ZM343.295 298.551H348.309V293.995H343.295V298.551ZM356.785 303.166H351.77V307.721H356.785V303.166ZM356.364 312.336H351.35V316.892H356.364V312.336ZM355.102 321.418H350.088V325.974H355.102V321.418ZM353 330.383H347.985V334.938H353V330.383ZM350.088 339.171H345.074V343.726H350.088V339.171ZM346.368 347.694H341.354V352.25H346.368V347.694ZM341.871 355.895H336.857V360.451H341.871V355.895ZM336.631 363.742H331.616V368.298H336.631V363.742ZM330.711 371.149H325.697V375.705H330.711V371.149ZM324.111 378.086H319.097V382.641H324.111V378.086ZM316.897 384.493H311.883V389.049H316.897V384.493ZM309.133 390.342H304.119V394.898H309.133V390.342ZM300.852 395.574H295.838V400.13H300.852V395.574ZM292.118 400.159H287.103V404.715H292.118V400.159ZM282.995 404.068H277.981V408.624H282.995V404.068ZM273.549 407.272H268.535V411.828H273.549V407.272ZM263.844 409.741H258.83V414.297H263.844V409.741ZM253.945 411.446H248.931V416.001H253.945V411.446ZM243.917 412.416H238.902V416.971H243.917V412.416ZM233.823 412.621H228.809V417.177H233.823V412.621ZM223.763 412.033H218.748V416.589H223.763V412.033ZM213.767 410.681H208.752V415.237H213.767V410.681ZM203.932 408.595H198.918V413.15H203.932V408.595ZM194.324 405.773H189.31V410.329H194.324V405.773ZM185.008 402.217H179.994V406.772H185.008V402.217ZM176.079 397.984H171.065V402.54H176.079V397.984ZM167.571 393.076H162.557V397.631H167.571V393.076ZM159.549 387.521H154.534V392.076H159.549V387.521ZM152.043 381.378H147.029V385.933H152.043V381.378ZM145.121 374.706H140.106V379.261H145.121V374.706ZM133.831 372.06H138.845V367.505H133.831V372.06ZM133.248 359.863H128.234V364.418H133.248V359.863ZM128.396 351.839H123.382V356.394H128.396V351.839ZM124.287 343.462H119.273V348.018H124.287V343.462ZM120.955 334.791H115.941V339.347H120.955V334.791ZM118.432 325.915H113.418V330.471H118.432V325.915ZM116.75 316.862H111.736V321.418H116.75V316.862ZM115.909 307.721H110.895V312.277H115.909V307.721ZM110.895 303.107H115.909V298.551H110.895V303.107ZM111.736 293.966H116.75V289.41H111.736V293.966ZM113.418 284.913H118.432V280.357H113.418V284.913ZM115.941 276.037H120.955V271.481H115.941V276.037ZM119.273 267.366H124.287V262.81H119.273V267.366ZM128.396 254.434H123.382V258.989H128.396V254.434ZM133.248 246.41H128.234V250.965H133.248V246.41ZM133.831 243.323H138.845V238.768H133.831V243.323ZM140.106 236.152H145.121V231.596H140.106V236.152ZM147.029 229.48H152.043V224.924H147.029V229.48ZM159.549 218.781H154.534V223.337H159.549V218.781ZM167.571 213.226H162.557V217.782H167.571V213.226ZM171.097 212.873H176.112V208.318H171.097V212.873ZM180.026 208.612H185.04V204.056H180.026V208.612ZM189.343 205.055H194.357V200.499H189.343V205.055ZM198.95 202.233H203.965V197.678H198.95V202.233ZM208.785 200.147H213.799V195.591H208.785V200.147ZM218.781 198.795H223.795V194.239H218.781V198.795ZM228.842 198.207H233.856V193.651H228.842V198.207ZM238.935 198.413H243.949V193.857H238.935V198.413ZM248.963 199.382H253.977V194.827H248.963V199.382ZM258.862 201.087H263.876V196.531H258.862V201.087ZM268.567 203.556H273.581V199H268.567V203.556ZM283.027 202.204H278.013V206.76H283.027V202.204ZM292.15 206.113H287.136V210.669H292.15V206.113ZM300.884 210.698H295.87V215.254H300.884V210.698ZM309.166 215.93H304.152V220.486H309.166V215.93ZM311.916 226.335H316.93V221.779H311.916V226.335ZM319.13 232.742H324.144V228.187H319.13V232.742ZM325.729 239.679H330.743V235.123H325.729V239.679ZM331.649 247.086H336.663V242.53H331.649V247.086ZM336.889 254.933H341.904V250.378H336.889V254.933ZM341.386 263.134H346.4V258.578H341.386V263.134ZM345.106 271.657H350.121V267.102H345.106V271.657ZM348.018 280.446H353.032V275.89H348.018V280.446ZM350.121 289.41H355.135V284.854H350.121V289.41ZM351.382 298.492H356.396V293.936H351.382V298.492ZM364.84 303.107H359.825V307.663H364.84V303.107ZM364.451 312.277H359.437V316.833H364.451V312.277ZM358.273 325.944H363.287V321.389H358.273V325.944ZM361.314 330.383H356.299V334.938H361.314V330.383ZM358.564 339.2H353.55V343.756H358.564V339.2ZM355.07 347.812H350.056V352.368H355.07V347.812ZM350.832 356.13H345.818V360.686H350.832V356.13ZM345.915 364.125H340.901V368.68H345.915V364.125ZM340.319 371.737H335.304V376.293H340.319V371.737ZM334.075 378.938H329.061V383.494H334.075V378.938ZM327.217 385.669H322.203V390.225H327.217V385.669ZM319.809 391.9H314.795V396.456H319.809V391.9ZM311.883 397.573H306.869V402.128H311.883V397.573ZM303.505 402.657H298.49V407.213H303.505V402.657ZM294.706 407.125H289.691V411.681H294.706V407.125ZM285.551 410.975H280.536V415.531H285.551V410.975ZM276.072 414.15H271.058V418.705H276.072V414.15ZM266.367 416.648H261.353V421.204H266.367V416.648ZM256.468 418.441H251.454V422.997H256.468V418.441ZM246.44 419.528H241.426V424.084H246.44V419.528ZM236.347 419.881H231.333V424.437H236.347V419.881ZM226.254 419.528H221.239V424.084H226.254V419.528ZM216.225 418.441H211.211V422.997H216.225V418.441ZM206.326 416.648H201.312V421.204H206.326V416.648ZM196.621 414.15H191.607V418.705H196.621V414.15ZM187.143 410.975H182.129V415.531H187.143V410.975ZM177.988 407.125H172.974V411.681H177.988V407.125ZM169.189 402.657H164.175V407.213H169.189V402.657ZM160.81 397.573H155.796V402.128H160.81V397.573ZM152.885 391.9H147.87V396.456H152.885V391.9ZM145.476 385.669H140.462V390.225H145.476V385.669ZM138.618 378.938H133.604V383.494H138.618V378.938ZM132.375 371.737H127.361V376.293H132.375V371.737ZM126.778 364.125H121.764V368.68H126.778V364.125ZM121.861 356.13H116.847V360.686H121.861V356.13ZM117.623 347.812H112.609V352.368H117.623V347.812ZM114.13 339.2H109.115V343.756H114.13V339.2ZM111.38 330.383H106.366V334.938H111.38V330.383ZM109.407 321.389H104.392V325.944H109.407V321.389ZM108.21 312.277H103.195V316.833H108.21V312.277ZM102.807 307.663H107.821V303.107H102.807V307.663ZM103.195 298.492H108.21V293.936H103.195V298.492ZM104.392 289.381H109.407V284.825H104.392V289.381ZM106.366 280.387H111.38V275.831H106.366V280.387ZM109.115 271.569H114.13V267.013H109.115V271.569ZM112.609 262.957H117.623V258.402H112.609V262.957ZM116.847 254.639H121.861V250.084H116.847V254.639ZM126.778 242.089H121.764V246.645H126.778V242.089ZM132.375 234.476H127.361V239.032H132.375V234.476ZM133.604 231.831H138.618V227.275H133.604V231.831ZM140.462 225.1H145.476V220.545H140.462V225.1ZM152.885 214.314H147.87V218.869H152.885V214.314ZM160.81 208.641H155.796V213.197H160.81V208.641ZM164.175 208.112H169.189V203.556H164.175V208.112ZM172.974 203.644H177.988V199.089H172.974V203.644ZM182.129 199.794H187.143V195.238H182.129V199.794ZM191.607 196.62H196.621V192.064H191.607V196.62ZM201.312 194.121H206.326V189.566H201.312V194.121ZM211.211 192.328H216.225V187.773H211.211V192.328ZM221.239 191.241H226.254V186.685H221.239V191.241ZM231.333 190.888H236.347V186.332H231.333V190.888ZM241.426 191.241H246.44V186.685H241.426V191.241ZM251.454 192.328H256.468V187.773H251.454V192.328ZM261.353 194.121H266.367V189.566H261.353V194.121ZM271.058 196.62H276.072V192.064H271.058V196.62ZM285.518 195.238H280.504V199.794H285.518V195.238ZM294.511 199.206H289.821V203.468H294.511V199.206ZM303.472 203.556H298.458V208.112H303.472V203.556ZM311.851 208.641H306.837V213.197H311.851V208.641ZM319.777 214.314H314.762V218.869H319.777V214.314ZM327.185 220.545H322.17V225.1H327.185V220.545ZM329.029 231.831H334.043V227.275H329.029V231.831ZM335.272 239.032H340.286V234.476H335.272V239.032ZM340.868 246.645H345.883V242.089H340.868V246.645ZM345.786 254.639H350.8V250.084H345.786V254.639ZM350.023 262.957H355.038V258.402H350.023V262.957ZM353.517 271.569H358.531V267.013H353.517V271.569ZM356.267 280.387H361.281V275.831H356.267V280.387ZM358.24 289.381H363.254V284.825H358.24V289.381ZM359.437 298.492H364.451V293.936H359.437V298.492ZM372.862 303.107H367.848V307.663H372.862V303.107ZM372.474 312.277H367.46V316.833H372.474V312.277ZM371.374 321.389H366.36V325.944H371.374V321.389ZM369.53 330.412H364.516V334.968H369.53V330.412ZM366.942 339.288H361.928V343.844H366.942V339.288ZM363.643 347.959H358.628V352.515H363.643V347.959ZM359.664 356.365H354.649V360.921H359.664V356.365ZM355.005 364.507H349.991V369.062H355.005V364.507ZM349.7 372.295H344.686V376.851H349.7V372.295ZM343.78 379.702H338.766V384.258H343.78V379.702ZM337.245 386.698H332.231V391.253H337.245V386.698ZM330.161 393.252H325.147V397.808H330.161V393.252ZM322.591 399.307H317.577V403.862H322.591V399.307ZM314.536 404.832H309.522V409.388H314.536V404.832ZM306.06 409.8H301.046V414.355H306.06V409.8ZM297.196 414.179H292.182V418.735H297.196V414.179ZM288.009 417.971H282.995V422.526H288.009V417.971ZM278.531 421.116H273.516V425.671H278.531V421.116ZM268.826 423.614H263.812V428.17H268.826V423.614ZM258.927 425.466H253.913V430.021H258.927V425.466ZM248.931 426.641H243.917V431.197H248.931V426.641ZM238.87 427.141H233.856V431.697H238.87V427.141ZM228.777 426.965H223.763V431.52H228.777V426.965ZM218.716 426.112H213.702V430.668H218.716V426.112ZM208.752 424.584H203.738V429.14H208.752V424.584ZM198.95 422.409H193.936V426.965H198.95V422.409ZM189.343 419.587H184.328V424.143H189.343V419.587ZM179.994 416.119H174.979V420.675H179.994V416.119ZM170.968 412.033H165.954V416.589H170.968V412.033ZM162.298 407.36H157.284V411.916H162.298V407.36ZM154.017 402.099H149.003V406.655H154.017V402.099ZM146.188 396.309H141.174V400.864H146.188V396.309ZM138.845 390.019H133.831V394.575H138.845V390.019ZM132.051 383.229H127.037V387.785H132.051V383.229ZM125.808 376.028H120.794V380.584H125.808V376.028ZM120.179 368.416H115.165V372.971H120.179V368.416ZM115.197 360.451H110.183V365.006H115.197V360.451ZM110.862 352.162H105.848V356.718H110.862V352.162ZM107.207 343.609H102.193V348.165H107.207V343.609ZM104.263 334.85H99.2488V339.406H104.263V334.85ZM102.031 325.915H97.0167V330.471H102.031V325.915ZM95.5286 321.389H100.543V316.833H95.5286V321.389ZM99.7987 307.692H94.7845V312.248H99.7987V307.692ZM94.7845 303.077H99.7987V298.522H94.7845V303.077ZM100.543 289.381H95.5286V293.936H100.543V289.381ZM97.0167 284.854H102.031V280.299H97.0167V284.854ZM99.2488 275.919H104.263V271.363H99.2488V275.919ZM102.193 267.16H107.207V262.605H102.193V267.16ZM105.848 258.607H110.862V254.052H105.848V258.607ZM110.183 250.319H115.197V245.763H110.183V250.319ZM115.165 242.354H120.179V237.798H115.165V242.354ZM125.808 230.185H120.794V234.741H125.808V230.185ZM127.037 227.511H132.051V222.955H127.037V227.511ZM133.831 220.721H138.845V216.165H133.831V220.721ZM141.174 214.431H146.188V209.875H141.174V214.431ZM149.003 208.641H154.017V204.085H149.003V208.641ZM157.284 203.38H162.298V198.824H157.284V203.38ZM165.954 198.706H170.968V194.151H165.954V198.706ZM174.979 194.621H179.994V190.065H174.979V194.621ZM184.328 191.153H189.343V186.597H184.328V191.153ZM193.936 188.331H198.95V183.775H193.936V188.331ZM203.738 186.156H208.752V181.6H203.738V186.156ZM213.702 184.628H218.716V180.072H213.702V184.628ZM223.763 183.775H228.777V179.22H223.763V183.775ZM233.856 183.599H238.87V179.043H233.856V183.599ZM243.917 184.099H248.931V179.543H243.917V184.099ZM254.042 185.157H258.797V180.836H254.042V185.157ZM264.556 186.45H268.049V183.276H264.556V186.45ZM277.172 186.303H274.843V188.419H277.172V186.303ZM286.003 190.036H284.968V190.976H286.003V190.036ZM304.055 198.207H303.019V199.147H304.055V198.207ZM313.727 202.116H310.33V205.202H313.727V202.116ZM322.138 207.318H318.03V211.051H322.138V207.318ZM330.161 212.962H325.147V217.517H330.161V212.962ZM332.231 224.042H337.245V219.487H332.231V224.042ZM338.733 231.038H343.748V226.482H338.733V231.038ZM344.653 238.444H349.668V233.889H344.653V238.444ZM349.959 246.233H354.973V241.678H349.959V246.233ZM354.617 254.375H359.631V249.819H354.617V254.375ZM358.596 262.781H363.61V258.225H358.596V262.781ZM366.91 266.896H361.896V271.452H366.91V266.896ZM369.498 275.772H364.484V280.328H369.498V275.772ZM371.342 284.796H366.328V289.351H371.342V284.796ZM367.46 298.463H372.474V293.907H367.46V298.463ZM380.885 303.077H375.871V307.633H380.885V303.077ZM380.529 312.248H375.515V316.803H380.529V312.248ZM379.462 321.359H374.447V325.915H379.462V321.359ZM377.715 330.383H372.701V334.938H377.715V330.383ZM375.289 339.288H370.274V343.844H375.289V339.288ZM372.183 348.018H367.169V352.573H372.183V348.018ZM368.398 356.512H363.384V361.068H368.398V356.512ZM363.966 364.742H358.952V369.297H363.966V364.742ZM358.92 372.678H353.905V377.233H358.92V372.678ZM353.291 380.29H348.277V384.846H353.291V380.29ZM347.08 387.521H342.065V392.076H347.08V387.521ZM340.319 394.339H335.304V398.895H340.319V394.339ZM333.072 400.718H328.058V405.273H333.072V400.718ZM325.341 406.625H320.326V411.181H325.341V406.625ZM317.189 412.004H312.174V416.56H317.189V412.004ZM308.616 416.854H303.602V421.409H308.616V416.854ZM299.72 421.145H294.706V425.701H299.72V421.145ZM290.5 424.878H285.486V429.433H290.5V424.878ZM281.022 428.023H276.007V432.578H281.022V428.023ZM271.317 430.55H266.302V435.106H271.317V430.55ZM261.45 432.461H256.436V437.017H261.45V432.461ZM251.454 433.725H246.44V438.28H251.454V433.725ZM241.393 434.371H236.379V438.927H241.393V434.371ZM231.3 434.371H226.286V438.927H231.3V434.371ZM221.239 433.725H216.225V438.28H221.239V433.725ZM211.243 432.461H206.229V437.017H211.243V432.461ZM201.377 430.55H196.363V435.106H201.377V430.55ZM191.672 428.023H186.658V432.578H191.672V428.023ZM182.193 424.878H177.179V429.433H182.193V424.878ZM172.974 421.145H167.959V425.701H172.974V421.145ZM164.078 416.854H159.063V421.409H164.078V416.854ZM155.505 412.004H150.491V416.56H155.505V412.004ZM147.353 406.625H142.339V411.181H147.353V406.625ZM139.621 400.718H134.607V405.273H139.621V400.718ZM132.375 394.339H127.361V398.895H132.375V394.339ZM125.614 387.521H120.6V392.076H125.614V387.521ZM114.388 384.846H119.403V380.29H114.388V384.846ZM113.741 372.707H108.727V377.263H113.741V372.707ZM108.695 364.771H103.681V369.327H108.695V364.771ZM104.263 356.541H99.2488V361.097H104.263V356.541ZM99.5723 348.87H96.3697V351.78H99.5723V348.87ZM93.07 343.227H96.6285V339.994H93.07V343.227ZM93.8464 331.411H90.9673V334.027H93.8464V331.411ZM92.7465 321.8H88.5734V325.592H92.7465V321.8ZM92.1319 312.306H87.1177V316.862H92.1319V312.306ZM91.776 303.136H86.7618V307.692H91.776V303.136ZM92.1319 293.966H87.1177V298.522H92.1319V293.966ZM93.1994 284.854H88.1852V289.41H93.1994V284.854ZM94.9463 275.831H89.9321V280.387H94.9463V275.831ZM97.3725 266.925H92.3583V271.481H97.3725V266.925ZM95.4962 262.752H100.51V258.196H95.4962V262.752ZM99.2811 254.257H104.295V249.702H99.2811V254.257ZM103.713 246.028H108.727V241.472H103.713V246.028ZM108.76 238.092H113.774V233.536H108.76V238.092ZM114.388 230.479H119.403V225.923H114.388V230.479ZM120.6 223.249H125.614V218.693H120.6V223.249ZM127.361 216.43H132.375V211.874H127.361V216.43ZM134.607 210.052H139.621V205.496H134.607V210.052ZM147.353 199.618H142.339V204.173H147.353V199.618ZM150.523 198.765H155.537V194.209H150.523V198.765ZM159.096 193.916H164.11V189.36H159.096V193.916ZM167.992 189.624H173.006V185.069H167.992V189.624ZM177.212 185.892H182.226V181.336H177.212V185.892ZM186.69 182.747H191.704V178.191H186.69V182.747ZM196.395 180.219H201.409V175.663H196.395V180.219ZM206.262 178.308H211.276V173.753H206.262V178.308ZM216.258 177.045H221.272V172.489H216.258V177.045ZM226.318 176.398H231.333V171.842H226.318V176.398ZM236.411 176.398H241.426V171.842H236.411V176.398ZM246.472 177.045H251.486V172.489H246.472V177.045ZM257.115 177.721H260.803V174.37H257.115V177.721ZM332.425 206.143H328.77V209.464H332.425V206.143ZM340.351 211.903H335.337V216.459H340.351V211.903ZM342.098 223.278H347.112V218.722H342.098V223.278ZM348.309 230.509H353.323V225.953H348.309V230.509ZM353.938 238.121H358.952V233.565H353.938V238.121ZM358.984 246.057H363.999V241.501H358.984V246.057ZM363.416 254.287H368.43V249.731H363.416V254.287ZM367.201 262.781H372.215V258.225H367.201V262.781ZM370.307 271.51H375.321V266.955H370.307V271.51ZM372.733 280.416H377.747V275.86H372.733V280.416ZM374.48 289.439H379.494V284.884H374.48V289.439ZM375.547 298.551H380.562V293.995H375.547V298.551ZM388.94 303.166H383.926V307.721H388.94V303.166ZM388.617 312.336H383.602V316.892H388.617V312.336ZM387.614 321.447H382.6V326.003H387.614V321.447ZM385.964 330.5H380.95V335.056H385.964V330.5ZM383.635 339.435H378.621V343.991H383.635V339.435ZM380.659 348.194H375.644V352.75H380.659V348.194ZM377.068 356.777H372.054V361.332H377.068V356.777ZM367.848 369.65H372.862V365.094H367.848V369.65ZM363.222 377.557H367.88V373.324H363.222V377.557ZM358.111 385.081H362.252V381.319H358.111V385.081ZM352.288 392.4H356.235V388.814H352.288V392.4ZM345.656 399.63H349.959V395.721H345.656V399.63ZM339.898 405.185H341.807V403.451H339.898V405.185ZM331.681 412.122H335.175V408.947H331.681V412.122ZM323.529 418.147H327.637V414.414H323.529V418.147ZM315.7 423.026H318.903V420.116H315.7V423.026ZM311.107 424.114H306.254V428.522H311.107V424.114ZM302.243 428.258H297.229V432.814H302.243V428.258ZM292.991 431.932H287.977V436.488H292.991V431.932ZM283.513 435.047H278.498V439.603H283.513V435.047ZM273.808 437.604H268.793V442.16H273.808V437.604ZM263.941 439.574H258.927V444.129H263.941V439.574ZM253.977 440.926H248.963V445.482H253.977V440.926ZM243.917 441.69H238.902V446.246H243.917V441.69ZM233.823 441.837H228.809V446.393H233.823V441.837ZM223.73 441.396H218.716V445.952H223.73V441.396ZM213.702 440.338H208.688V444.894H213.702V440.338ZM203.771 438.692H198.756V443.248H203.771V438.692ZM194.001 436.429H188.987V440.985H194.001V436.429ZM184.393 433.607H179.379V438.163H184.393V433.607ZM175.012 430.198H169.998V434.753H175.012V430.198ZM165.921 426.23H160.907V430.786H165.921V426.23ZM157.122 421.733H152.108V426.289H157.122V421.733ZM148.679 416.707H143.665V421.263H148.679V416.707ZM140.624 411.181H135.61V415.737H140.624V411.181ZM132.99 405.185H127.975V409.741H132.99V405.185ZM125.808 398.748H120.794V403.304H125.808V398.748ZM119.111 391.9H114.097V396.456H119.111V391.9ZM112.9 384.669H107.886V389.225H112.9V384.669ZM102.225 381.642H107.239V377.086H102.225V381.642ZM102.128 369.18H97.1137V373.736H102.128V369.18ZM96.7255 361.803H93.5229V364.712H96.7255V361.803ZM82.9446 339.406H87.6676V335.115H82.9446V339.406ZM85.8237 326.003H80.8095V330.559H85.8237V326.003ZM84.4973 316.921H79.4831V321.477H84.4973V316.921ZM83.818 307.78H78.8038V312.336H83.818V307.78ZM83.818 298.61H78.8038V303.166H83.818V298.61ZM84.4973 289.469H79.4831V294.025H84.4973V289.469ZM85.8237 280.387H80.8095V284.943H85.8237V280.387ZM87.8294 271.393H82.8152V275.949H87.8294V271.393ZM90.482 262.546H85.4678V267.102H90.482V262.546ZM93.7494 253.875H88.7352V258.431H93.7494V253.875ZM92.6495 249.966H97.6637V245.41H92.6495V249.966ZM97.1461 241.766H102.16V237.21H97.1461V241.766ZM102.225 233.859H107.239V229.303H102.225V233.859ZM107.886 226.276H112.9V221.72H107.886V226.276ZM119.079 214.49H114.065V219.046H119.079V214.49ZM120.794 212.197H125.808V207.642H120.794V212.197ZM127.975 205.761H132.99V201.205H127.975V205.761ZM135.61 199.765H140.624V195.209H135.61V199.765ZM143.665 194.239H148.679V189.683H143.665V194.239ZM152.108 189.213H157.122V184.657H152.108V189.213ZM160.907 184.716H165.921V180.16H160.907V184.716ZM169.998 180.748H175.012V176.192H169.998V180.748ZM179.379 177.338H184.393V172.783H179.379V177.338ZM188.987 174.517H194.001V169.961H188.987V174.517ZM198.756 172.254H203.771V167.698H198.756V172.254ZM208.688 170.608H213.702V166.052H208.688V170.608ZM218.716 169.55H223.73V164.994H218.716V169.55ZM228.809 169.109H233.823V164.553H228.809V169.109ZM238.902 169.256H243.917V164.7H238.902V169.256ZM248.963 170.02H253.977V165.464H248.963V170.02ZM259.8 170.578H263.068V167.61H259.8V170.578ZM342.712 204.908H338.96V208.318H342.712V204.908ZM350.282 210.992H345.3V215.519H350.282V210.992ZM356.752 218.046H351.77V222.573H356.752V218.046ZM362.705 225.453H357.69V230.009H362.705V225.453ZM363.06 237.768H368.075V233.213H363.06V237.768ZM367.848 245.822H372.862V241.266H367.848V245.822ZM372.054 254.169H377.068V249.613H372.054V254.169ZM380.659 258.196H375.644V262.752H380.659V258.196ZM383.635 266.955H378.621V271.51H383.635V266.955ZM385.964 275.89H380.95V280.446H385.964V275.89ZM387.614 284.943H382.6V289.498H387.614V284.943ZM383.602 298.61H388.617V294.054H383.602V298.61ZM396.963 303.224H391.949V307.78H396.963V303.224ZM396.639 312.395H391.625V316.95H396.639V312.395ZM395.701 321.536H390.687V326.091H395.701V321.536ZM394.116 330.588H389.102V335.144H394.116V330.588ZM391.916 339.523H386.902V344.079H391.916V339.523ZM384.088 352.867H389.102V348.312H384.088V352.867ZM380.659 361.479H385.673V356.923H380.659V361.479ZM376.744 369.827H381.597V365.418H376.744V369.827ZM374.286 376.087H374.9V375.529H374.286V376.087ZM309.328 435.106H313.112V431.667H309.328V435.106ZM299.979 439.603H304.475V435.518H299.979V439.603ZM291.956 442.101H293.961V440.279H291.956V442.101ZM285.939 442.043H280.989V446.54H285.939V442.043ZM276.266 444.57H271.252V449.126H276.266V444.57ZM266.432 446.569H261.418V451.125H266.432V446.569ZM251.454 452.565H256.468V448.009H251.454V452.565ZM246.407 448.891H241.393V453.447H246.407V448.891ZM236.314 449.185H231.3V453.741H236.314V449.185ZM226.221 448.891H221.207V453.447H226.221V448.891ZM216.161 448.039H211.146V452.594H216.161V448.039ZM206.197 446.598H201.183V451.154H206.197V446.598ZM196.363 444.6H191.348V449.156H196.363V444.6ZM186.658 442.043H181.643V446.598H186.658V442.043ZM177.147 438.927H172.133V443.483H177.147V438.927ZM167.895 435.282H162.881V439.838H167.895V435.282ZM158.902 431.109H153.887V435.665H158.902V431.109ZM150.2 426.436H145.185V430.991H150.2V426.436ZM141.853 421.292H136.839V425.848H141.853V421.292ZM133.895 415.678H128.881V420.234H133.895V415.678ZM126.325 409.623H121.311V414.179H126.325V409.623ZM119.176 403.128H114.162V407.683H119.176V403.128ZM112.512 396.25H107.498V400.806H112.512V396.25ZM101.319 393.546H106.333V388.99H101.319V393.546ZM95.8197 385.816H100.51V381.554H95.8197V385.816ZM92.0995 376.616H93.9111V374.97H92.0995V376.616ZM88.347 367.71H88.5411V367.534H88.347V367.71ZM75.7629 343.991H80.6477V339.553H75.7629V343.991ZM78.5127 330.559H73.4985V335.115H78.5127V330.559ZM76.9275 321.506H71.9133V326.062H76.9275V321.506ZM75.9894 312.365H70.9752V316.921H75.9894V312.365ZM75.6659 303.195H70.6517V307.751H75.6659V303.195ZM70.9752 298.58H75.9894V294.025H70.9752V298.58ZM76.9275 284.913H71.9133V289.469H76.9275V284.913ZM78.5127 275.86H73.4985V280.416H78.5127V275.86ZM80.7124 266.925H75.6982V271.481H80.7124V266.925ZM83.5269 258.108H78.5127V262.663H83.5269V258.108ZM86.9559 249.496H81.9417V254.052H86.9559V249.496ZM85.9531 245.645H90.9673V241.09H85.9531V245.645ZM90.5467 237.474H95.5609V232.919H90.5467V237.474ZM95.6903 229.568H100.705V225.012H95.6903V229.568ZM106.366 217.429H101.352V221.985H106.366V217.429ZM112.545 210.199H107.53V214.754H112.545V210.199ZM119.209 203.321H114.194V207.877H119.209V203.321ZM121.344 201.381H126.358V196.825H121.344V201.381ZM133.928 190.771H128.913V195.326H133.928V190.771ZM141.886 185.157H136.871V189.712H141.886V185.157ZM145.218 184.54H150.232V179.984H145.218V184.54ZM153.92 179.866H158.934V175.31H153.92V179.866ZM162.913 175.693H167.927V171.137H162.913V175.693ZM172.165 172.048H177.179V167.492H172.165V172.048ZM181.676 168.932H186.69V164.377H181.676V168.932ZM191.381 166.375H196.395V161.82H191.381V166.375ZM201.215 164.377H206.229V159.821H201.215V164.377ZM211.179 162.936H216.193V158.381H211.179V162.936ZM221.239 162.084H226.254V157.528H221.239V162.084ZM231.333 161.79H236.347V157.234H231.333V161.79ZM241.426 162.084H246.44V157.528H241.426V162.084ZM251.486 162.936H256.501V158.381H251.486V162.936ZM262.162 163.701H265.72V160.467H262.162V163.701ZM351.156 205.349H350.735V205.731H351.156V205.349ZM357.658 212.374H357.561V212.462H357.658V212.374ZM365.487 218.105H362.09V221.191H365.487V218.105ZM371.957 224.953H366.942V229.509H371.957V224.953ZM377.1 232.86H372.086V237.416H377.1V232.86ZM376.68 245.587H381.694V241.031H376.68V245.587ZM380.691 253.993H385.705V249.437H380.691V253.993ZM384.12 262.605H389.134V258.049H384.12V262.605ZM391.949 266.866H386.934V271.422H391.949V266.866ZM394.148 275.802H389.134V280.357H394.148V275.802ZM395.734 284.854H390.719V289.41H395.734V284.854ZM391.69 298.522H396.704V293.966H391.69V298.522ZM405.05 303.136H400.036V307.692H405.05V303.136ZM404.759 312.306H399.745V316.862H404.759V312.306ZM403.853 321.447H398.839V326.003H403.853V321.447ZM402.333 330.5H397.319V335.056H402.333V330.5ZM400.23 339.465H395.216V344.02H400.23V339.465ZM392.531 352.867H397.545V348.312H392.531V352.867ZM389.264 361.538H394.278V356.982H389.264V361.538ZM386.805 368.798H389.102V366.711H386.805V368.798ZM285.486 451.654H286.521V450.713H285.486V451.654ZM275.393 454.593H277.204V452.947H275.393V454.593ZM265.009 457.121H267.952V454.446H265.009V457.121ZM259.024 455.005H254.01V459.56H259.024V455.005ZM248.995 455.974H243.981V460.53H248.995V455.974ZM238.902 456.386H233.888V460.942H238.902V456.386ZM228.809 456.239H223.795V460.795H228.809V456.239ZM218.748 455.563H213.734V460.119H218.748V455.563ZM208.752 454.328H203.738V458.884H208.752V454.328ZM198.853 452.565H193.839V457.121H198.853V452.565ZM189.084 450.272H184.07V454.828H189.084V450.272ZM179.476 447.451H174.462V452.007H179.476V447.451ZM170.095 444.1H165.08V448.656H170.095V444.1ZM160.94 440.25H155.925V444.806H160.94V440.25ZM152.043 435.9H147.029V440.455H152.043V435.9ZM143.471 431.079H138.457V435.635H143.471V431.079ZM135.222 425.789H130.207V430.345H135.222V425.789ZM127.328 420.057H122.314V424.613H127.328V420.057ZM119.823 413.914H114.809V418.47H119.823V413.914ZM112.739 407.389H107.724V411.945H112.739V407.389ZM101.093 405.009H106.075V400.482H101.093V405.009ZM95.5609 397.19H99.2811V393.81H95.5609V397.19ZM91.679 387.991H91.8084V387.873H91.679V387.991ZM69.1959 348.106H73.4014V344.285H69.1959V348.106ZM71.4281 334.997H66.4139V339.553H71.4281V334.997ZM69.6165 325.974H64.6023V330.529H69.6165V325.974ZM68.4196 316.862H63.4054V321.418H68.4196V316.862ZM67.8049 307.721H62.7907V312.277H67.8049V307.721ZM62.7907 303.107H67.8049V298.551H62.7907V303.107ZM68.3872 289.41H63.373V293.966H68.3872V289.41ZM69.5841 280.299H64.5699V284.854H69.5841V280.299ZM71.3957 271.275H66.3815V275.831H71.3957V271.275ZM73.7896 262.369H68.7754V266.925H73.7896V262.369ZM76.7658 253.611H71.7516V258.166H76.7658V253.611ZM80.3242 245.028H75.31V249.584H80.3242V245.028ZM79.4184 241.207H84.4326V236.651H79.4184V241.207ZM84.0768 233.066H89.091V228.51H84.0768V233.066ZM89.2527 225.189H94.2669V220.633H89.2527V225.189ZM94.9463 217.605H99.9605V213.05H94.9463V217.605ZM106.139 205.79H101.125V210.346H106.139V205.79ZM112.771 198.883H107.757V203.439H112.771V198.883ZM119.856 192.358H114.841V196.914H119.856V192.358ZM122.346 190.771H127.361V186.215H122.346V190.771ZM130.24 185.069H135.254V180.513H130.24V185.069ZM138.489 179.778H143.503V175.222H138.489V179.778ZM147.062 174.958H152.076V170.402H147.062V174.958ZM160.94 166.052H155.925V170.608H160.94V166.052ZM165.08 166.757H170.095V162.202H165.08V166.757ZM174.462 163.407H179.476V158.851H174.462V163.407ZM184.07 160.585H189.084V156.029H184.07V160.585ZM193.839 158.292H198.853V153.737H193.839V158.292ZM203.738 156.529H208.752V151.973H203.738V156.529ZM213.734 155.294H218.748V150.739H213.734V155.294ZM223.795 154.618H228.809V150.063H223.795V154.618ZM233.888 154.471H238.902V149.916H233.888V154.471ZM243.981 154.883H248.995V150.327H243.981V154.883ZM254.01 155.853H259.024V151.297H254.01V155.853ZM264.006 157.323H268.955V152.826H264.006V157.323ZM276.363 157.087H276.266V157.176H276.363V157.087ZM374.092 218.34H372.345V219.927H374.092V218.34ZM381.176 224.571H376.162V229.127H381.176V224.571ZM381.079 237.122H386.093V232.566H381.079V237.122ZM385.446 245.381H390.461V240.825H385.446V245.381ZM389.264 253.875H394.278V249.319H389.264V253.875ZM397.545 257.99H392.531V262.546H397.545V257.99ZM400.23 266.837H395.216V271.393H400.23V266.837ZM397.319 280.357H402.333V275.802H397.319V280.357ZM398.807 289.41H403.821V284.854H398.807V289.41ZM399.713 298.551H404.727V293.995H399.713V298.551ZM408.059 307.721H413.073V303.166H408.059V307.721ZM407.768 316.892H412.782V312.336H407.768V316.892ZM406.894 326.033H411.908V321.477H406.894V326.033ZM406.247 334.38H409.644V331.294H406.247V334.38ZM404.306 343.286H407.541V340.346H404.306V343.286ZM401.459 352.397H405.244V348.958H401.459V352.397ZM398.839 360.656H401.621V358.129H398.839V360.656ZM396.51 368.004H396.639V367.887H396.51V368.004ZM261.353 462.206H256.598V466.526H261.353V462.206ZM251.454 463.146H246.44V467.702H251.454V463.146ZM241.393 463.675H236.379V468.231H241.393V463.675ZM231.3 463.675H226.286V468.231H231.3V463.675ZM221.239 463.146H216.225V467.702H221.239V463.146ZM211.211 462.088H206.197V466.644H211.211V462.088ZM201.28 460.53H196.265V465.086H201.28V460.53ZM191.445 458.443H186.431V462.999H191.445V458.443ZM181.773 455.857H176.759V460.413H181.773V455.857ZM172.262 452.771H167.248V457.326H172.262V452.771ZM162.978 449.214H157.963V453.77H162.978V449.214ZM153.92 445.158H148.906V449.714H153.92V445.158ZM145.121 440.661H140.106V445.217H145.121V440.661ZM136.645 435.694H131.631V440.25H136.645V435.694ZM128.493 430.315H123.479V434.871H128.493V430.315ZM120.664 424.525H115.65V429.081H120.664V424.525ZM113.224 418.323H108.21V422.879H113.224V418.323ZM105.266 412.592H102.128V415.443H105.266V412.592ZM96.8873 407.272H97.2755V406.919H96.8873V407.272ZM63.0172 351.897H65.6698V349.487H63.0172V351.897ZM64.2788 339.553H59.2646V344.109H64.2788V339.553ZM62.2731 330.559H57.2589V335.115H62.2731V330.559ZM60.8497 321.477H55.8355V326.033H60.8497V321.477ZM59.9763 312.336H54.9621V316.892H59.9763V312.336ZM59.6851 303.166H54.6709V307.721H59.6851V303.166ZM54.9621 298.551H59.9763V293.995H54.9621V298.551ZM60.8174 284.854H55.8032V289.41H60.8174V284.854ZM62.2408 275.772H57.2266V280.328H62.2408V275.772ZM62.8231 268.101H60.688V270.041H62.8231V268.101ZM66.4786 258.225H62.1437V262.164H66.4786V258.225ZM69.94 249.202H64.9258V253.758H69.94V249.202ZM73.5955 240.649H68.5813V245.205H73.5955V240.649ZM72.7868 236.857H77.801V232.301H72.7868V236.857ZM77.5098 228.745H82.524V224.189H77.5098V228.745ZM82.7181 220.897H87.7323V216.342H82.7181V220.897ZM88.4117 213.314H93.4258V208.758H88.4117V213.314ZM99.5723 201.499H94.5581V206.054H99.5723V201.499ZM106.172 194.562H101.157V199.118H106.172V194.562ZM108.21 192.534H113.224V187.978H108.21V192.534ZM120.664 181.777H115.65V186.332H120.664V181.777ZM123.479 180.513H128.493V175.957H123.479V180.513ZM131.631 175.134H136.645V170.578H131.631V175.134ZM140.106 170.167H145.121V165.611H140.106V170.167ZM148.906 165.67H153.92V161.114H148.906V165.67ZM157.963 161.614H162.978V157.058H157.963V161.614ZM167.248 158.057H172.262V153.502H167.248V158.057ZM176.759 154.971H181.773V150.415H176.759V154.971ZM186.431 152.385H191.445V147.829H186.431V152.385ZM196.265 150.298H201.28V145.742H196.265V150.298ZM206.197 148.74H211.211V144.184H206.197V148.74ZM216.225 147.682H221.239V143.126H216.225V147.682ZM226.286 147.153H231.3V142.597H226.286V147.153ZM236.379 147.153H241.393V142.597H236.379V147.153ZM251.454 143.126H246.44V147.682H251.454V143.126ZM256.501 148.711H261.482V144.184H256.501V148.711ZM266.788 149.945H271.058V146.065H266.788V149.945ZM278.822 150.004H278.692V150.121H278.822V150.004ZM382.6 218.428H382.341V218.664H382.6V218.428ZM389.684 224.601H385.705V228.216H389.684V224.601ZM394.925 232.243H389.911V236.798H394.925V232.243ZM394.116 245.146H399.13V240.59H394.116V245.146ZM397.772 253.699H402.786V249.143H397.772V253.699ZM405.891 257.872H400.877V262.428H405.891V257.872ZM408.447 266.749H403.433V271.305H408.447V266.749ZM410.453 275.743H405.438V280.299H410.453V275.743ZM411.876 284.825H406.862V289.381H411.876V284.825ZM412.749 293.966H407.735V298.522H412.749V293.966ZM416.049 307.692H421.063V303.136H416.049V307.692ZM415.79 316.862H420.805V312.306H415.79V316.862ZM414.949 326.003H419.963V321.447H414.949V326.003ZM415.467 333.38H416.696V332.264H415.467V333.38ZM259.477 473.198H263.488V469.554H259.477V473.198ZM253.977 470.23H248.963V474.785H253.977V470.23ZM243.917 470.847H238.902V475.403H243.917V470.847ZM233.823 470.964H228.809V475.52H233.823V470.964ZM223.73 470.582H218.716V475.138H223.73V470.582ZM213.67 469.701H208.655V474.256H213.67V469.701ZM203.706 468.319H198.692V472.875H203.706V468.319ZM193.839 466.467H188.825V471.023H193.839V466.467ZM184.102 464.116H179.088V468.672H184.102V464.116ZM174.494 461.294H169.48V465.85H174.494V461.294ZM165.08 458.002H160.066V462.558H165.08V458.002ZM155.893 454.24H150.879V458.796H155.893V454.24ZM146.932 450.008H141.918V454.564H146.932V450.008ZM138.23 445.364H133.216V449.92H138.23V445.364ZM129.819 440.279H124.805V444.835H129.819V440.279ZM121.732 434.783H116.718V439.339H121.732V434.783ZM114 428.904H108.986V433.46H114V428.904ZM105.072 424.055H103.163V425.789H105.072V424.055ZM57.1619 355.307H57.6148V354.895H57.1619V355.307ZM57.1619 343.991H52.1477V348.547H57.1619V343.991ZM54.9621 335.026H49.9479V339.582H54.9621V335.026ZM53.3123 325.974H48.2981V330.529H53.3123V325.974ZM52.2124 316.862H47.1982V321.418H52.2124V316.862ZM51.6624 307.721H46.6482V312.277H51.6624V307.721ZM46.7129 303.048H51.6301V298.58H46.7129V303.048ZM52.2124 289.381H47.1982V293.936H52.2124V289.381ZM53.3123 280.269H48.2981V284.825H53.3123V280.269ZM54.9621 271.216H49.9479V275.772H54.9621V271.216ZM54.7356 264.603V264.456H54.5739V264.603H54.7356ZM57.9706 256.256V255.168H56.7737V256.256H57.9706ZM63.0495 244.822H58.1647V249.261H63.0495V244.822ZM61.8849 240.796H66.8991V236.24H61.8849V240.796ZM66.1551 232.478H71.1693V227.922H66.1551V232.478ZM70.9105 224.395H75.9247V219.839H70.9105V224.395ZM76.1511 216.547H81.1653V211.992H76.1511V216.547ZM86.8589 204.438H81.8447V208.994H86.8589V204.438ZM93.0053 197.178H87.9911V201.734H93.0053V197.178ZM99.5723 190.212H94.5581V194.768H99.5723V190.212ZM106.56 183.599H101.546V188.155H106.56V183.599ZM113.903 177.368H108.921V181.894H113.903V177.368ZM116.653 176.016H121.667V171.46H116.653V176.016ZM124.74 170.52H129.755V165.964H124.74V170.52ZM133.151 165.435H138.165V160.879H133.151V165.435ZM141.853 160.791H146.868V156.235H141.853V160.791ZM155.828 152.032H150.814V156.588H155.828V152.032ZM160.034 152.826H165.048V148.27H160.034V152.826ZM169.448 149.534H174.462V144.978H169.448V149.534ZM179.055 146.712H184.07V142.156H179.055V146.712ZM188.825 144.361H193.839V139.805H188.825V144.361ZM198.692 142.509H203.706V137.953H198.692V142.509ZM208.655 141.128H213.67V136.572H208.655V141.128ZM218.716 140.246H223.73V135.69H218.716V140.246ZM228.809 139.864H233.823V135.308H228.809V139.864ZM238.902 139.981H243.917V135.426H238.902V139.981ZM249.092 140.481H253.848V136.16H249.092V140.481ZM262.291 138.688H260.641V140.187H262.291V138.688ZM398.839 224.16H394.472V228.128H398.839V224.16ZM398.677 236.622H403.692V232.066H398.677V236.622ZM402.689 245.028H407.703V240.472H402.689V245.028ZM406.182 253.611H411.197V249.055H406.182V253.611ZM409.159 262.369H414.173V257.814H409.159V262.369ZM416.631 266.719H411.617V271.275H416.631V266.719ZM418.54 275.713H413.526V280.269H418.54V275.713ZM419.899 284.796H414.885V289.351H419.899V284.796ZM420.74 293.936H415.726V298.492H420.74V293.936ZM424.04 307.663H429.054V303.107H424.04V307.663ZM423.781 316.833H428.795V312.277H423.781V316.833ZM423.328 325.65H427.63V321.741H423.328V325.65ZM424.137 332.822H424.234V332.734H424.137V332.822ZM262.259 479.9H265.656V476.813H262.259V479.9ZM256.468 477.284H251.454V481.839H256.468V477.284ZM246.407 477.989H241.393V482.545H246.407V477.989ZM236.314 478.224H231.3V482.78H236.314V478.224ZM226.221 477.989H221.207V482.545H226.221V477.989ZM216.161 477.284H211.146V481.839H216.161V477.284ZM206.164 476.079H201.15V480.634H206.164V476.079ZM196.233 474.403H191.219V478.959H196.233V474.403ZM186.431 472.258H181.417V476.813H186.431V472.258ZM176.759 469.642H171.744V474.197H176.759V469.642ZM167.248 466.585H162.234V471.141H167.248V466.585ZM157.931 463.087H152.917V467.643H157.931V463.087ZM148.808 459.149H143.794V463.705H148.808V459.149ZM139.945 454.769H134.93V459.325H139.945V454.769ZM131.34 449.978H126.325V454.534H131.34V449.978ZM123.026 444.776H118.012V449.332H123.026V444.776ZM115.003 439.221H110.054V443.718H115.003V439.221ZM104.037 436.282H105.719V434.753H104.037V436.282ZM46.907 351.368H48.3951V350.016H46.907V351.368ZM47.7805 339.494H42.7663V344.05H47.7805V339.494ZM45.9365 330.471H40.9223V335.026H45.9365V330.471ZM44.6102 321.389H39.596V325.944H44.6102V321.389ZM43.8338 312.248H38.8196V316.803H43.8338V312.248ZM42.6045 306.751V303.989H39.5636V306.751H42.6045ZM43.8338 293.936H38.8196V298.492H43.8338V293.936ZM44.6102 284.796H39.596V289.351H44.6102V284.796ZM45.9365 275.713H40.9223V280.269H45.9365V275.713ZM45.8071 268.483H44.7396V269.453H45.8071V268.483ZM56.2237 240.472H51.5007V244.764H56.2237V240.472ZM55.2209 236.416H60.2351V231.861H55.2209V236.416ZM59.5557 228.128H64.5699V223.572H59.5557V228.128ZM64.3758 220.074H69.3901V215.519H64.3758V220.074ZM74.663 207.7H69.6488V212.256H74.663V207.7ZM80.3889 200.147H75.3747V204.702H80.3889V200.147ZM84.5944 194.621H83.4622V195.65H84.5944V194.621ZM91.129 187.684H90.0615V188.654H91.129V187.684ZM98.7312 180.425H96.3373V182.6H98.7312V180.425ZM105.331 174.752H104.36V175.634H105.331V174.752ZM111.574 170.108H113.45V168.403H111.574V170.108ZM118.335 165.67H122.702V161.702H118.335V165.67ZM131.34 156.206H126.325V160.761H131.34V156.206ZM134.93 155.971H139.945V151.415H134.93V155.971ZM143.794 151.591H148.808V147.035H143.794V151.591ZM152.917 147.653H157.931V143.097H152.917V147.653ZM162.234 144.155H167.248V139.599H162.234V144.155ZM171.744 141.098H176.759V136.542H171.744V141.098ZM181.417 138.482H186.431V133.927H181.417V138.482ZM191.219 136.337H196.233V131.781H191.219V136.337ZM201.15 134.661H206.164V130.106H201.15V134.661ZM211.146 133.456H216.161V128.9H211.146V133.456ZM221.207 132.751H226.221V128.195H221.207V132.751ZM231.43 132.369H236.153V128.078H231.43V132.369ZM243.011 131.252H244.79V129.635H243.011V131.252ZM406.829 224.689H404.274V227.011H406.829V224.689ZM412.394 231.861H407.379V236.416H412.394V231.861ZM411.261 244.881H416.276V240.325H411.261V244.881ZM419.64 248.967H414.626V253.522H419.64V248.967ZM422.487 257.784H417.537V262.281H422.487V257.784ZM424.848 266.69H419.866V271.216H424.848V266.69ZM426.692 275.684H421.678V280.24H426.692V275.684ZM428.018 284.766H423.004V289.322H428.018V284.766ZM423.813 298.463H428.827V293.907H423.813V298.463ZM432.095 307.633H437.109V303.077H432.095V307.633ZM431.836 316.803H436.85V312.248H431.836V316.803ZM431.512 325.533H435.653V321.771H431.512V325.533ZM266.917 484.926H265.979V485.778H266.917V484.926ZM253.945 488.893H258.959V484.338H253.945V488.893ZM248.898 485.161H243.884V489.716H248.898V485.161ZM238.805 485.513H233.791V490.069H238.805V485.513ZM228.712 485.396H223.698V489.952H228.712V485.396ZM218.651 484.808H213.637V489.364H218.651V484.808ZM208.623 483.779H203.609V488.335H208.623V483.779ZM198.659 482.28H193.645V486.836H198.659V482.28ZM188.793 480.34H183.778V484.896H188.793V480.34ZM179.055 477.96H174.041V482.515H179.055V477.96ZM169.448 475.138H164.433V479.694H169.448V475.138ZM160.001 471.875H154.987V476.431H160.001V471.875ZM150.782 468.172H145.768V472.728H150.782V468.172ZM141.756 464.057H136.742V468.613H141.756V464.057ZM132.99 459.531H127.975V464.087H132.99V459.531ZM124.482 454.622H119.467V459.178H124.482V454.622ZM115.521 449.978H111.962V453.212H115.521V449.978ZM105.686 446.04H105.913V445.834H105.686V446.04ZM37.7844 346.666H38.0432V346.431H37.7844V346.666ZM34.1613 339.141H37.6227V335.996H34.1613V339.141ZM36.8786 326.238H31.8644V330.794H36.8786V326.238ZM35.8758 317.127H30.8616V321.682H35.8758V317.127ZM34.5494 311.777V308.691H31.1527V311.777H34.5494ZM35.3582 298.786H30.344V303.342H35.3582V298.786ZM30.8616 294.172H35.8758V289.616H30.8616V294.172ZM36.8786 280.504H31.8644V285.06H36.8786V280.504ZM37.8491 271.922H33.9025V275.508H37.8491V271.922ZM48.7186 236.828H45.0631V240.149H48.7186V236.828ZM48.3951 232.272H53.2799V227.834H48.3951V232.272ZM52.73 224.072H57.7442V219.516H52.73V224.072ZM57.5824 216.048H62.5966V211.492H57.5824V216.048ZM67.902 203.703H62.8878V208.259H67.902V203.703ZM72.4956 197.178H69.7135V199.706H72.4956V197.178ZM120.794 154.971H122.638V153.296H120.794V154.971ZM129.269 150.092H131.178V148.358H129.269V150.092ZM136.516 146.977H141.53V142.421H136.516V146.977ZM145.541 142.862H150.555V138.306H145.541V142.862ZM154.793 139.158H159.807V134.603H154.793V139.158ZM164.207 135.896H169.221V131.34H164.207V135.896ZM173.815 133.074H178.829V128.518H173.815V133.074ZM183.552 130.693H188.566V126.138H183.552V130.693ZM193.419 128.754H198.433V124.198H193.419V128.754ZM203.382 127.255H208.397V122.699H203.382V127.255ZM213.411 126.226H218.425V121.67H213.411V126.226ZM223.472 125.638H228.486V121.082H223.472V125.638ZM235.635 123.639H236.508V122.846H235.635V123.639ZM412.491 224.395V227.422H415.823V224.395H412.491ZM415.823 236.534H420.837V231.978H415.823V236.534ZM419.543 245.058H424.557V240.502H419.543V245.058ZM427.792 249.202H422.778V253.758H427.792V249.202ZM428.892 259.548H427.21V261.076H428.892V259.548ZM432.03 267.689H428.601V270.805H432.03V267.689ZM434.456 276.125H429.701V280.446H434.456V276.125ZM435.75 285.207H430.93V289.586H435.75V285.207ZM431.609 298.816H436.624V294.26H431.609V298.816ZM441.12 306.869H443.708V304.518H441.12V306.869ZM439.858 316.95H444.452V312.777H439.858V316.95ZM440.15 325.18H442.705V322.858H440.15V325.18ZM268.146 493.273H269.343V492.185H268.146V493.273ZM256.242 496.33H261.256V491.774H256.242V496.33ZM251.195 492.656H246.181V497.211H251.195V492.656ZM241.102 493.096H236.088V497.652H241.102V493.096ZM231.009 493.096H225.995V497.652H231.009V493.096ZM220.916 492.656H215.902V497.211H220.916V492.656ZM210.888 491.774H205.873V496.33H210.888V491.774ZM200.891 490.451H195.877V495.007H200.891V490.451ZM190.992 488.688H185.978V493.243H190.992V488.688ZM181.191 486.483H176.176V491.039H181.191V486.483ZM171.518 483.867H166.504V488.423H171.518V483.867ZM162.007 480.811H156.993V485.366H162.007V480.811ZM152.658 477.342H147.644V481.898H152.658V477.342ZM143.503 473.492H138.489V478.048H143.503V473.492ZM134.575 469.23H129.56V473.786H134.575V469.23ZM125.678 464.763H121.085V468.936H125.678V464.763ZM114.227 462.499H115.682V461.177H114.227V462.499ZM26.7208 333.263H27.2061V332.822H26.7208V333.263ZM23.4212 326.062H28.0472V321.859H23.4212V326.062ZM27.4972 312.542H22.5154V317.068H27.4972V312.542ZM25.8474 306.604V304.665H23.7123V306.604H25.8474ZM27.5296 294.201H22.5154V298.757H27.5296V294.201ZM23.2594 289.616H28.2736V285.06H23.2594V289.616ZM24.4887 280.504H29.5029V275.949H24.4887V280.504ZM29.4059 268.542H27.9825V269.835H29.4059V268.542ZM40.1783 234.036V234.124H40.2753V234.036H40.1783ZM45.5483 224.483H42.928V226.864H45.5483V224.483ZM46.1953 219.722H51.2095V215.166H46.1953V219.722ZM51.1125 211.698H56.1267V207.142H51.1125V211.698ZM61.432 199.353H56.4178V203.909H61.432V199.353ZM65.5081 193.328H63.8259V194.856H65.5081V193.328ZM131.954 139.629V139.952H132.31V139.629H131.954ZM142.533 134.191H139.556V136.895H142.533V134.191ZM147.709 133.956H152.723V129.4H147.709V133.956ZM157.058 130.488H162.072V125.932H157.058V130.488ZM166.568 127.431H171.583V122.875H166.568V127.431ZM176.241 124.815H181.255V120.259H176.241V124.815ZM186.043 122.611H191.057V118.055H186.043V122.611ZM200.956 116.291H195.942V120.847H200.956V116.291ZM205.938 119.524H210.952V114.969H205.938V119.524ZM215.966 118.643H220.981V114.087H215.966V118.643ZM226.189 118.084H230.912V113.793H226.189V118.084ZM414.82 208.318H412.394V210.522H414.82V208.318ZM416.534 219.222H420.513V215.607H416.534V219.222ZM420.481 227.922H425.495V223.366H420.481V227.922ZM427.339 234.359V233.771H426.692V234.359H427.339ZM429.021 244.058H432.159V241.207H429.021V244.058ZM435.912 249.349H431.545V253.317H435.912V249.349ZM438.241 269.424H438.856V268.865H438.241V269.424ZM440.311 278.212V278.124H440.214V278.212H440.311ZM441.347 287.147V287.411H441.638V287.147H441.347ZM440.861 297.64H443.579V295.171H440.861V297.64ZM450.21 314.775H450.275V314.717H450.21V314.775ZM449.466 323.946H449.596V323.828H449.466V323.946ZM271.058 499.798H271.511V499.386H271.058V499.798ZM263.812 498.71H258.797V503.266H263.812V498.71ZM253.783 499.68H248.769V504.236H253.783V499.68ZM243.722 500.209H238.708V504.765H243.722V500.209ZM233.629 500.327H228.615V504.883H233.629V500.327ZM223.536 500.004H218.522V504.559H223.536V500.004ZM213.475 499.269H208.461V503.825H213.475V499.269ZM203.479 498.093H198.465V502.649H203.479V498.093ZM193.548 496.506H188.534V501.062H193.548V496.506ZM183.714 494.507H178.7V499.063H183.714V494.507ZM173.977 492.097H168.962V496.653H173.977V492.097ZM164.369 489.276H159.354V493.831H164.369V489.276ZM154.923 486.042H149.908V490.598H154.923V486.042ZM145.671 482.398H140.656V486.954H145.671V482.398ZM136.613 478.371H131.598V482.927H136.613V478.371ZM124.384 477.049H126.131V475.461H124.384V477.049ZM15.9484 320.595H18.6334V318.155H15.9484V320.595ZM15.172 311.719H18.4717V308.721H15.172V311.719ZM15.4631 299.815V302.284H18.1805V299.815H15.4631ZM14.7838 294.172H19.798V289.616H14.7838V294.172ZM15.7219 285.031H20.7361V280.475H15.7219V285.031ZM17.1453 275.919H22.0948V271.422H17.1453V275.919ZM35.7464 223.014H39.4666V219.634H35.7464V223.014ZM44.6425 210.845H39.6283V215.401H44.6425V210.845ZM49.3656 203.056H44.8043V207.201H49.3656V203.056ZM54.3151 195.65H50.5302V199.089H54.3151V195.65ZM58.2941 189.683H58.003V189.948H58.2941V189.683ZM142.533 127.078H143.633V126.079H142.533V127.078ZM149.844 125.226H154.858V120.671H149.844V125.226ZM159.29 121.993H164.304V117.438H159.29V121.993ZM168.898 119.172H173.912V114.616H168.898V119.172ZM178.635 116.762H183.649V112.206H178.635V116.762ZM188.469 114.763H193.483V110.207H188.469V114.763ZM198.401 113.176H203.415V108.62H198.401V113.176ZM208.397 112H213.411V107.444H208.397V112ZM218.457 111.265H223.472V106.71H218.457V111.265ZM230.265 109.384H231.85V107.944H230.265V109.384ZM241.07 108.855H241.232V108.708H241.07V108.855ZM411.973 193.592H411.908V193.651H411.973V193.592ZM419.252 199.676H415.726V202.88H419.252V199.676ZM420.125 211.433H425.139V206.877H420.125V211.433ZM424.848 219.516H429.862V214.96H424.848V219.516ZM434.165 223.249H429.151V227.805H434.165V223.249ZM436.429 233.183H434.683V234.77H436.429V233.183ZM438.888 242.706H439.179V242.442H438.888V242.706ZM441.67 251.671H442.414V250.995H441.67V251.671ZM261.288 510.379H266.27V505.853H261.288V510.379ZM256.242 506.881H251.228V511.437H256.242V506.881ZM246.181 507.499H241.167V512.054H246.181V507.499ZM236.088 507.704H231.074V512.26H236.088V507.704ZM225.995 507.499H220.981V512.054H225.995V507.499ZM215.934 506.881H210.92V511.437H215.934V506.881ZM205.906 505.853H200.891V510.408H205.906V505.853ZM195.942 504.412H190.928V508.968H195.942V504.412ZM186.043 502.561H181.029V507.116H186.043V502.561ZM176.273 500.327H171.259V504.883H176.273V500.327ZM166.601 497.682H161.587V502.237H166.601V497.682ZM157.09 494.654H152.076V499.21H157.09V494.654ZM147.709 491.245H142.694V495.801H147.709V491.245ZM138.457 487.512H133.572V491.95H138.457V487.512ZM126.681 485.895H127.361V485.278H126.681V485.895ZM8.21682 297.111H9.6402V295.818H8.21682V297.111ZM7.11693 289.586H12.0988V285.06H7.11693V289.586ZM8.54031 280.21H12.9399V276.213H8.54031V280.21ZM12.8428 268.689H11.8076V269.629H12.8428V268.689ZM31.2498 216.753H30.6998V217.253H31.2498V216.753ZM36.4581 208.024H34.6788V209.64H36.4581V208.024ZM143.697 119.142H146.673V116.409H143.697V119.142ZM152.108 116.585H156.993V112.147H152.108V116.585ZM161.619 113.587H166.568V109.09H161.619V113.587ZM171.259 110.971H176.273V106.416H171.259V110.971ZM181.061 108.738H186.075V104.182H181.061V108.738ZM190.96 106.886H195.974V102.33H190.96V106.886ZM200.924 105.446H205.938V100.89H200.924V105.446ZM210.952 104.417H215.966V99.8612H210.952V104.417ZM221.078 103.741H225.962V99.3028H221.078V103.741ZM231.203 103.506H236.023V99.1264H231.203V103.506ZM241.976 103.094H245.405V99.9788H241.976V103.094ZM422.875 191.652H419.705V194.533H422.875V191.652ZM429.151 198.589H424.137V203.145H429.151V198.589ZM429.442 210.816H433.777V206.877H429.442V210.816ZM438.662 214.754H433.712V219.251H438.662V214.754ZM442.867 223.072H437.853V227.628H442.867V223.072ZM442.252 235.564H446.005V232.155H442.252V235.564ZM450.146 251.465H450.534V251.112H450.146V251.465ZM265.688 515.67H266.788V514.67H265.688V515.67ZM258.733 513.994H253.718V518.55H258.733V513.994ZM248.672 514.7H243.658V519.255H248.672V514.7ZM238.579 514.994H233.565V519.549H238.579V514.994ZM228.486 514.905H223.472V519.461H228.486V514.905ZM218.393 514.406H213.378V518.961H218.393V514.406ZM208.364 513.524H203.35V518.08H208.364V513.524ZM198.368 512.231H193.354V516.786H198.368V512.231ZM188.437 510.555H183.423V515.111H188.437V510.555ZM178.603 508.498H173.588V513.054H178.603V508.498ZM168.865 506.058H163.851V510.614H168.865V506.058ZM159.257 503.237H154.243V507.792H159.257V503.237ZM149.811 500.033H144.797V504.589H149.811V500.033ZM140.462 496.506H135.577V500.944H140.462V496.506ZM1.13224 291.938H1.19694V291.879H1.13224V291.938ZM0 284.649H4.10841V280.916H0V284.649ZM4.04371 273.068H2.65267V274.332H4.04371V273.068ZM155.796 106.798H157.899V104.887H155.796V106.798ZM163.948 105.269H168.962V100.714H163.948V105.269ZM173.685 102.83H178.7V98.274H173.685V102.83ZM183.52 100.772H188.534V96.2166H183.52V100.772ZM193.451 99.097H198.465V94.5413H193.451V99.097ZM203.447 97.8038H208.461V93.248H203.447V97.8038ZM213.475 96.922H218.49V92.3662H213.475V96.922ZM223.569 96.4223H228.583V91.8666H223.569V96.4223ZM233.662 96.3342H238.676V91.7784H233.662V96.3342ZM247.604 93.1304H244.919V95.57H247.604V93.1304ZM432.418 191.006H428.763V194.327H432.418V191.006ZM436.041 200.294H435.556V200.734H436.041V200.294ZM447.364 214.696H442.738V218.899H447.364V214.696ZM451.601 222.925H446.587V227.481H451.601V222.925ZM450.469 235.829H454.998V231.714H450.469V235.829ZM458.33 240.325H453.607V244.617H458.33V240.325ZM457.457 252.464H460.077V250.084H457.457V252.464ZM257.245 524.869H260.447V521.959H257.245V524.869ZM251.292 521.901H246.278V526.456H251.292V521.901ZM241.199 522.283H236.185V526.839H241.199V522.283ZM231.106 522.283H226.092V526.839H231.106V522.283ZM221.013 521.901H215.999V526.456H221.013V521.901ZM210.952 521.136H205.938V525.692H210.952V521.136ZM200.924 519.99H195.91V524.546H200.924V519.99ZM190.96 518.462H185.946V523.018H190.96V518.462ZM181.093 516.551H176.079V521.107H181.093V516.551ZM171.324 514.259H166.31V518.815H171.324V514.259ZM161.651 511.613H156.637V516.169H161.651V511.613ZM152.108 508.586H147.094V513.142H152.108V508.586ZM142.662 505.265H137.745V509.732H142.662V505.265ZM130.757 503.972H131.21V503.56H130.757V503.972ZM147.644 102.271H151.526V98.7443H147.644V102.271ZM156.605 99.773H161.619V95.2173H156.605V99.773ZM166.277 97.1278H171.292V92.572H166.277V97.1278ZM176.047 94.8352H181.061V90.2794H176.047V94.8352ZM185.914 92.9247H190.928V88.3689H185.914V92.9247ZM195.877 91.3963H200.891V86.8406H195.877V91.3963ZM205.906 90.25H210.92V85.6943H205.906V90.25ZM215.966 89.4858H220.981V84.9301H215.966V89.4858ZM226.059 89.1037H231.074V84.548H226.059V89.1037ZM236.379 88.898H240.94V84.7537H236.379V88.898ZM248.704 87.1639V87.252H248.801V87.1639H248.704ZM455.742 214.843H451.731V218.487H455.742V214.843ZM460.142 222.837H455.128V227.393H460.142V222.837ZM463.668 231.42H458.654V235.975H463.668V231.42ZM466.773 240.149H461.759V244.705H466.773V240.149ZM465.156 252.935H468.844V249.584H465.156V252.935ZM253.718 529.131H248.834V533.569H253.718V529.131ZM243.69 529.543H238.676V534.098H243.69V529.543ZM233.597 529.631H228.583V534.186H233.597V529.631ZM223.504 529.366H218.49V533.922H223.504V529.366ZM213.443 528.72H208.429V533.275H213.443V528.72ZM203.415 527.691H198.401V532.247H203.415V527.691ZM193.451 526.309H188.437V530.865H193.451V526.309ZM183.552 524.546H178.538V529.102H183.552V524.546ZM173.718 522.43H168.704V526.985H173.718V522.43ZM164.013 519.961H158.999V524.517H164.013V519.961ZM154.405 517.139H149.391V521.695H154.405V517.139ZM144.668 514.2H140.203V518.256H144.668V514.2ZM133.054 512.76H133.184V512.642H133.054V512.76ZM140.462 97.0102H144.409V93.4244H140.462V97.0102ZM149.391 94.3061H154.405V89.7504H149.391V94.3061ZM158.999 91.4845H164.013V86.9287H158.999V91.4845ZM168.704 89.0156H173.718V84.4598H168.704V89.0156ZM178.538 86.8993H183.552V82.3436H178.538V86.8993ZM188.437 85.1358H193.451V80.5801H188.437V85.1358ZM198.401 83.7544H203.415V79.1986H198.401V83.7544ZM208.429 82.7257H213.443V78.1699H208.429V82.7257ZM218.49 82.0791H223.504V77.5233H218.49V82.0791ZM228.647 81.7558H233.532V77.3176H228.647V81.7558ZM241.134 79.6101V79.6689H241.199V79.6101H241.134ZM464.897 214.255H459.883V218.811H464.897V214.255ZM463.668 227.305H468.682V222.749H463.668V227.305ZM467.065 235.946H472.079V231.39H467.065V235.946ZM475.087 240.149H470.073V244.705H475.087V240.149ZM473.793 252.553H476.64V249.966H473.793V252.553ZM480.037 278.917H481.395V277.683H480.037V278.917ZM481.493 287.647H482.01V287.176H481.493V287.647ZM482.269 296.641H482.431V296.494H482.269V296.641ZM255.659 536.773H251.81V540.271H255.659V536.773ZM246.181 536.773H241.167V541.329H246.181V536.773ZM236.088 536.949H231.074V541.505H236.088V536.949ZM225.995 536.773H220.981V541.329H225.995V536.773ZM215.934 536.244H210.92V540.8H215.934V536.244ZM205.906 535.333H200.891V539.889H205.906V535.333ZM195.91 534.069H190.895V538.625H195.91V534.069ZM185.978 532.452H180.964V537.008H185.978V532.452ZM176.112 530.483H171.097V535.039H176.112V530.483ZM166.342 528.161H161.328V532.717H166.342V528.161ZM156.669 525.486H151.655V530.042H156.669V525.486ZM142.921 526.309H146.318V523.223H142.921V526.309ZM125.937 93.5125V93.6301H126.067V93.5125H125.937ZM137.616 87.7223H132.86V92.0429H137.616V87.7223ZM142.144 88.8098H147.159V84.2541H142.144V88.8098ZM151.688 85.8118H156.702V81.2561H151.688V85.8118ZM161.36 83.1372H166.374V78.5814H161.36V83.1372ZM171.13 80.8152H176.144V76.2594H171.13V80.8152ZM180.996 78.8459H186.011V74.2902H180.996V78.8459ZM190.928 77.2294H195.942V72.6736H190.928V77.2294ZM200.924 75.9655H205.938V71.4098H200.924V75.9655ZM210.952 75.0544H215.966V70.4986H210.952V75.0544ZM221.013 74.5253H226.027V69.9696H221.013V74.5253ZM231.591 73.9081H235.667V70.2047H231.591V73.9081ZM243.172 72.7324H244.272V71.7331H243.172V72.7324ZM473.308 214.196H468.876V218.223H473.308V214.196ZM477.255 222.485H472.241V227.04H477.255V222.485ZM480.554 231.155H475.54V235.711H480.554V231.155ZM483.498 239.943H478.484V244.499H483.498V239.943ZM482.366 252.141H484.695V250.025H482.366V252.141ZM488.739 267.895H486.183V270.217H488.739V267.895ZM491.359 275.86H486.345V280.416H491.359V275.86ZM487.38 289.498H492.33V285.001H487.38V289.498ZM489.289 297.464H491.618V295.347H489.289V297.464ZM254.948 546.737H257.698V544.239H254.948V546.737ZM248.737 543.827H243.722V548.383H248.737V543.827ZM238.644 544.092H233.629V548.647H238.644V544.092ZM228.55 544.003H223.536V548.559H228.55V544.003ZM218.457 543.562H213.443V548.118H218.457V543.562ZM208.397 542.769H203.382V547.325H208.397V542.769ZM198.368 541.623H193.354V546.178H198.368V541.623ZM188.404 540.153H183.39V544.709H188.404V540.153ZM178.505 538.331H173.491V542.887H178.505V538.331ZM168.704 536.156H163.689V540.711H168.704V536.156ZM158.578 534.04H154.405V537.831H158.578V534.04ZM126.261 86.4291H129.981V83.049H126.261V86.4291ZM139.945 78.9635H134.93V83.5193H139.945V78.9635ZM144.409 80.3449H149.423V75.7892H144.409V80.3449ZM154.017 77.5233H159.031V72.9676H154.017V77.5233ZM163.722 75.025H168.736V70.4692H163.722V75.025ZM173.524 72.85H178.538V68.2942H173.524V72.85ZM183.423 71.0277H188.437V66.4719H183.423V71.0277ZM193.386 69.5581H198.401V65.0023H193.386V69.5581ZM203.415 68.4118H208.429V63.856H203.415V68.4118ZM213.475 67.6182H218.49V63.0625H213.475V67.6182ZM223.569 67.1773H228.583V62.6216H223.569V67.1773ZM233.662 67.0892H238.644V62.5628H233.662V67.0892ZM244.402 66.7365H248.057V63.4152H244.402V66.7365ZM482.172 213.843H477.158V218.399H482.172V213.843ZM480.748 226.982H485.763V222.426H480.748V226.982ZM488.965 231.126H483.951V235.682H488.965V231.126ZM491.812 239.914H486.798V244.47H491.812V239.914ZM493.138 249.848H490.421V252.317H493.138V249.848ZM493.915 260.077V260.018H493.85V260.077H493.915ZM498.088 266.837H493.106V271.363H498.088V266.837ZM499.447 275.919H494.432V280.475H499.447V275.919ZM495.694 289.322H500.094V285.325H495.694V289.322ZM497.473 297.375H499.479V295.553H497.473V297.375ZM258.183 553.262H259.444V552.116H258.183V553.262ZM251.26 551.087H246.246V555.643H251.26V551.087ZM241.167 551.44H236.153V555.995H241.167V551.44ZM231.074 551.44H226.059V555.995H231.074V551.44ZM220.981 551.087H215.966V555.643H220.981V551.087ZM210.92 550.411H205.906V554.967H210.92V550.411ZM200.891 549.382H195.877V553.938H200.891V549.382ZM190.895 548.03H185.881V552.586H190.895V548.03ZM180.964 546.355H175.95V550.911H180.964V546.355ZM171.13 544.327H166.116V548.882H171.13V544.327ZM160.293 542.945H157.413V545.561H160.293V542.945ZM128.008 78.023H132.504V73.9375H128.008V78.023ZM137.163 74.9368H142.177V70.3811H137.163V74.9368ZM146.706 71.9388H151.72V67.3831H146.706V71.9388ZM156.346 69.2642H161.36V64.7084H156.346V69.2642ZM166.116 66.9128H171.13V62.357H166.116V66.9128ZM175.95 64.8848H180.964V60.329H175.95V64.8848ZM185.881 63.2094H190.895V58.6537H185.881V63.2094ZM195.877 61.8574H200.891V57.3016H195.877V61.8574ZM205.906 60.8287H210.92V56.2729H205.906V60.8287ZM215.966 60.1526H220.981V55.5969H215.966V60.1526ZM226.059 59.7999H231.074V55.2442H226.059V59.7999ZM236.153 59.7999H241.167V55.2442H236.153V59.7999ZM246.343 60.0645H251.163V55.6851H246.343V60.0645ZM258.636 58.7124H259.024V58.3597H258.636V58.7124ZM480.328 199.089H480.231V199.177H480.328V199.089ZM484.339 207.406V207.583H484.533V207.406H484.339ZM490.745 213.696H485.73V218.252H490.745V213.696ZM494.206 222.308H489.192V226.864H494.206V222.308ZM497.311 231.038H492.297V235.593H497.311V231.038ZM500.061 239.855H495.047V244.411H500.061V239.855ZM501.452 249.702H498.476V252.406H501.452V249.702ZM504.04 258.196H499.997V261.87H504.04V258.196ZM506.208 266.808H501.193V271.363H506.208V266.808ZM502.552 280.387H507.437V275.949H502.552V280.387ZM506.822 286.471H505.011V288.117H506.822V286.471ZM505.917 296.964H507.049V295.935H505.917V296.964ZM512.451 307.663H516.915V303.606H512.451V307.663ZM512.807 316.333H516.204V313.247H512.807V316.333ZM513.907 323.975H514.004V323.887H513.907V323.975ZM261.094 559.934H261.45V559.611H261.094V559.934ZM249.028 562.52H253.395V558.552H249.028V562.52ZM243.528 558.758H238.741V563.108H243.528V558.758ZM233.532 558.758H228.518V563.314H233.532V558.758ZM223.439 558.523H218.425V563.079H223.439V558.523ZM213.378 557.935H208.364V562.491H213.378V557.935ZM203.35 557.024H198.336V561.58H203.35V557.024ZM193.354 555.79H188.34V560.345H193.354V555.79ZM183.423 554.232H178.408V558.788H183.423V554.232ZM173.556 552.351H168.542V556.906H173.556V552.351ZM160.001 553.556H162.525V551.263H160.001V553.556ZM122.735 71.1452H123.511V70.4398H122.735V71.1452ZM129.981 69.6169H134.995V65.0611H129.981V69.6169ZM139.459 66.4719H144.474V61.9162H139.459V66.4719ZM149.067 63.6503H154.081V59.0945H149.067V63.6503ZM158.772 61.1226H163.786V56.5668H158.772V61.1226ZM168.574 58.9182H173.588V54.3624H168.574V58.9182ZM178.441 57.0371H183.455V52.4813H178.441V57.0371ZM188.372 55.4793H193.386V50.9236H188.372V55.4793ZM198.368 54.2449H203.382V49.6891H198.368V54.2449ZM213.411 48.7779H208.397V53.3337H213.411V48.7779ZM223.472 48.1901H218.457V52.7459H223.472V48.1901ZM228.55 52.4813H233.565V47.9256H228.55V52.4813ZM238.644 52.5695H243.658V48.0138H238.644V52.5695ZM248.737 52.981H253.751V48.4252H248.737V52.981ZM261.838 50.953H260.738V51.9523H261.838V50.953ZM485.504 189.859H483.725V191.476H485.504V189.859ZM490.745 197.325H487.218V200.529H490.745V197.325ZM494.109 206.348H491.974V208.288H494.109V206.348ZM494.238 218.135H499.253V213.579H494.238V218.135ZM502.617 222.22H497.603V226.776H502.617V222.22ZM505.658 230.979H500.644V235.535H505.658V230.979ZM508.343 239.826H503.329V244.382H508.343V239.826ZM510.672 248.761H505.658V253.317H510.672V248.761ZM512.645 257.755H507.631V262.311H512.645V257.755ZM514.263 266.808H509.249V271.363H514.263V266.808ZM515.524 275.919H510.51V280.475H515.524V275.919ZM516.43 285.06H511.416V289.616H516.43V285.06ZM511.966 298.757H516.98V294.201H511.966V298.757ZM520.183 307.927H525.197V303.371H520.183V307.927ZM520.053 317.039H524.97V312.571H520.053V317.039ZM521.93 324.004H522.027V323.916H521.93V324.004ZM243.108 568.663H244.175V567.693H243.108V568.663ZM236.056 566.047H231.041V570.603H236.056V566.047ZM225.962 565.9H220.948V570.456H225.962V565.9ZM215.869 565.43H210.855V569.986H215.869V565.43ZM205.809 564.637H200.794V569.192H205.809V564.637ZM195.78 563.52H190.766V568.076H195.78V563.52ZM185.817 562.079H180.802V566.635H185.817V562.079ZM175.918 560.316H170.903V564.872H175.918V560.316ZM162.622 561.404H164.53V559.669H162.622V561.404ZM123.996 63.2388H126.584V60.8874H123.996V63.2388ZM132.213 61.0638H137.227V56.508H132.213V61.0638ZM141.756 58.0658H146.77V53.5101H141.756V58.0658ZM151.396 55.3911H156.411V50.8354H151.396V55.3911ZM161.134 53.0104H166.148V48.4546H161.134V53.0104ZM170.968 50.953H175.982V46.3972H170.968V50.953ZM180.867 49.1894H185.881V44.6337H180.867V49.1894ZM190.831 47.7492H195.845V43.1935H190.831V47.7492ZM205.841 42.0766H200.827V46.6323H205.841V42.0766ZM215.902 41.283H210.888V45.8387H215.902V41.283ZM225.995 40.8127H220.981V45.3685H225.995V40.8127ZM236.088 40.6658H231.074V45.2215H236.088V40.6658ZM246.181 40.8127H241.167V45.3685H246.181V40.8127ZM256.274 41.283H251.26V45.8387H256.274V41.283ZM264.653 43.605H263.003V45.104H264.653V43.605ZM494.659 189.389H492.33V191.505H494.659V189.389ZM500.255 196.473H495.241V201.028H500.255V196.473ZM499.188 209.464H504.202V204.908H499.188V209.464ZM507.825 213.461H502.811V218.017H507.825V213.461ZM511.125 222.132H506.111V226.688H511.125V222.132ZM514.069 230.891H509.054V235.446H514.069V230.891ZM516.689 239.738H511.675V244.293H516.689V239.738ZM518.953 248.673H513.939V253.229H518.953V248.673ZM520.894 257.667H515.88V262.223H520.894V257.667ZM522.48 266.719H517.465V271.275H522.48V266.719ZM523.709 275.831H518.695V280.387H523.709V275.831ZM524.582 284.972H519.568V289.528H524.582V284.972ZM520.183 298.61H525.035V294.201H520.183V298.61ZM530.438 305.928H531.182V305.252H530.438V305.928ZM530.438 314.952H530.858V314.57H530.438V314.952ZM234.923 576.717H237.414V574.454H234.923V576.717ZM228.583 573.219H223.569V577.775H228.583V573.219ZM218.49 572.837H213.475V577.393H218.49V572.837ZM208.429 572.132H203.415V576.687H208.429V572.132ZM198.401 571.132H193.386V575.688H198.401V571.132ZM188.404 569.81H183.39V574.365H188.404V569.81ZM178.473 568.193H173.459V572.749H178.473V568.193ZM165.113 569.427H167.086V567.635H165.113V569.427ZM126.52 54.3036H128.428V52.5695H126.52V54.3036ZM135.189 51.8935H138.715V48.6898H135.189V51.8935ZM144.053 49.7185H149.067V45.1627H144.053V49.7185ZM153.758 47.1908H158.772V42.635H153.758V47.1908ZM163.56 44.957H168.574V40.4012H163.56V44.957ZM173.427 43.0171H178.441V38.4614H173.427V43.0171ZM183.358 41.4006H188.372V36.8448H183.358V41.4006ZM198.368 35.5222H193.354V40.0779H198.368V35.5222ZM207.685 35.1695H204.094V38.432H207.685V35.1695ZM217.066 35.0813H214.834V37.1093H217.066V35.0813ZM228.55 33.4353H223.536V37.9911H228.55V33.4353ZM238.644 33.3472H233.629V37.9029H238.644V33.3472ZM248.737 33.5823H243.722V38.1381H248.737V33.5823ZM258.733 34.1995H253.88V38.6083H258.733V34.1995ZM266.594 37.0505H266.108V37.4914H266.594V37.0505ZM504.008 188.713H500.611V191.799H504.008V188.713ZM503.976 200.881H508.99V196.326H503.976V200.881ZM507.825 209.346H512.839V204.791H507.825V209.346ZM516.365 213.402H511.351V217.958H516.365V213.402ZM519.568 222.102H514.554V226.658H519.568V222.102ZM522.447 230.891H517.433V235.446H522.447V230.891ZM525.003 239.767H519.989V244.323H525.003V239.767ZM527.203 248.702H522.188V253.258H527.203V248.702ZM529.079 257.726H524.065V262.281H529.079V257.726ZM530.632 266.778H525.617V271.334H530.632V266.778ZM531.505 276.184H527.138V280.152H531.505V276.184ZM528.335 288.969H531.99V285.648H528.335V288.969ZM530.599 296.405V296.552H530.761V296.405H530.599ZM237.835 583.712H239.614V582.095H237.835V583.712ZM226.286 585.035H230.977V580.773H226.286V585.035ZM221.045 580.332H216.031V584.888H221.045V580.332ZM210.985 579.715H205.97V584.27H210.985V579.715ZM200.956 578.804H195.942V583.359H200.956V578.804ZM190.96 577.598H185.946V582.154H190.96V577.598ZM180.996 576.099H175.982V580.655H180.996V576.099ZM167.668 577.422H169.545V575.717H167.668V577.422ZM129.69 44.957H129.819V44.8394H129.69V44.957ZM136.839 44.1634H141.756V39.6958H136.839V44.1634ZM146.447 41.5181H151.461V36.9624H146.447V41.5181ZM156.184 39.108H161.198V34.5522H156.184V39.108ZM166.019 36.9918H171.033V32.436H166.019V36.9918ZM175.918 35.1989H180.932V30.6431H175.918V35.1989ZM190.895 29.1441H185.881V33.6999H190.895V29.1441ZM199.242 29.438H197.527V30.9958H199.242V29.438ZM228.939 28.086H228.292V28.6738H228.939V28.086ZM239.711 27.4688H237.705V29.2911H239.711V27.4688ZM249.772 27.7921H247.798V29.585H249.772V27.7921ZM258.927 29.2323H258.765V29.3792H258.927V29.2323ZM508.019 180.63H505.431V182.982H508.019V180.63ZM513.583 187.802H508.569V192.358H513.583V187.802ZM512.645 200.764H517.659V196.208H512.645V200.764ZM516.398 209.288H521.412V204.732H516.398V209.288ZM524.841 213.373H519.827V217.929H524.841V213.373ZM527.947 222.102H522.932V226.658H527.947V222.102ZM530.761 230.92H525.747V235.476H530.761V230.92ZM533.252 239.796H528.238V244.352H533.252V239.796ZM535.419 248.761H530.405V253.317H535.419V248.761ZM537.231 257.784H532.217V262.34H537.231V257.784ZM533.77 271.363H538.687V266.896H533.77V271.363ZM220.657 590.443H221.466V589.708H220.657V590.443ZM213.508 587.268H208.494V591.824H213.508V587.268ZM203.447 586.445H198.433V591.001H203.447V586.445ZM193.419 585.329H188.404V589.884H193.419V585.329ZM183.455 583.918H178.441V588.473H183.455V583.918ZM170.095 585.358H171.971V583.653H170.095V585.358ZM122.541 39.5783V39.5195H122.476V39.5783H122.541ZM129.722 38.4908H134.251V34.3759H129.722V38.4908ZM139.071 35.8749H144.085V31.3191H139.071V35.8749ZM148.776 33.3178H153.79V28.762H148.776V33.3178ZM158.546 31.0546H163.56V26.4988H158.546V31.0546ZM168.412 29.0853H173.427V24.5296H168.412V29.0853ZM183.326 22.8542H178.311V27.41H183.326V22.8542ZM191.931 22.6779H189.634V24.7647H191.931V22.6779ZM517.886 179.337H512.969V183.805H517.886V179.337ZM517.174 192.152H522.188V187.596H517.174V192.152ZM521.121 200.588H526.135V196.032H521.121V200.588ZM524.776 209.141H529.791V204.585H524.776V209.141ZM533.123 213.226H528.108V217.782H533.123V213.226ZM536.164 221.955H531.149V226.511H536.164V221.955ZM538.881 230.773H533.867V235.329H538.881V230.773ZM541.307 239.679H536.293V244.235H541.307V239.679ZM543.41 248.643H538.396V253.199H543.41V248.643ZM545.189 257.667H540.175V262.223H545.189V257.667ZM542.181 270.805H546.127V267.219H542.181V270.805ZM215.772 594.705H210.92V599.113H215.772V594.705ZM205.776 593.911H200.762V598.467H205.776V593.911ZM195.748 592.912H190.734V597.467H195.748V592.912ZM185.719 591.648H180.77V596.145H185.719V591.648ZM172.715 592.853H173.912V591.765H172.715V592.853ZM115.391 34.1995H115.262V34.3171H115.391V34.1995ZM122.476 33.112H127.07V28.9384H122.476V33.112ZM131.825 30.3198H136.839V25.764H131.825V30.3198ZM141.465 27.6157H146.479V23.06H141.465V27.6157ZM151.202 25.2056H156.217V20.6498H151.202V25.2056ZM166.019 18.5042H161.004V23.06H166.019V18.5042ZM175.918 16.6525H170.903V21.2083H175.918V16.6525ZM184.102 16.6525H182.614V18.0045H184.102V16.6525ZM522.188 170.99H517.562V175.193H522.188V170.99ZM521.8 183.599H526.814V179.043H521.8V183.599ZM525.941 191.946H530.955V187.391H525.941V191.946ZM534.805 195.855H529.791V200.411H534.805V195.855ZM538.363 204.438H533.349V208.994H538.363V204.438ZM541.631 213.109H536.616V217.664H541.631V213.109ZM544.607 221.867H539.593V226.423H544.607V221.867ZM547.259 230.714H542.245V235.27H547.259V230.714ZM549.621 239.62H544.607V244.176H549.621V239.62ZM546.677 253.111H551.627V248.614H546.677V253.111ZM550.236 260.488H551.562V259.283H550.236V260.488ZM215.837 604.404H216.063V604.198H215.837V604.404ZM204.062 605.315H207.685V602.023H204.062V605.315ZM198.303 600.524H193.386V604.992H198.303V600.524ZM184.781 602.552H186.916V600.612H184.781V602.552ZM108.598 28.615H107.757V29.3792H108.598V28.615ZM120.05 23.3539H115.035V27.9096H120.05V23.3539ZM129.56 20.2677H124.546V24.8235H129.56V20.2677ZM139.168 17.4461H134.154V22.0019H139.168V17.4461ZM148.873 14.889H143.859V19.4448H148.873V14.889ZM158.643 12.5964H153.629V17.1522H158.643V12.5964ZM168.477 10.5684H163.463V15.1241H168.477V10.5684ZM176.467 10.5684H175.303V11.6265H176.467V10.5684ZM531.182 170.637H526.232V175.134H531.182V170.637ZM530.535 183.423H535.549V178.867H530.535V183.423ZM534.578 191.829H539.593V187.273H534.578V191.829ZM538.363 200.323H543.377V195.767H538.363V200.323ZM546.871 204.379H541.857V208.935H546.871V204.379ZM550.074 213.079H545.06V217.635H550.074V213.079ZM552.985 221.867H547.971V226.423H552.985V221.867ZM555.541 230.744H550.591V235.241H555.541V230.744ZM555.088 242.177H555.67V241.648H555.088V242.177ZM557.288 250.995H557.482V250.818H557.288V250.995ZM197.818 610.929H198.853V609.988H197.818V610.929ZM111.639 19.1802H109.051V21.5316H111.639V19.1802ZM122.185 14.9478H117.397V19.2978H122.185V14.9478ZM131.857 11.891H126.843V16.4468H131.857V11.891ZM141.497 9.18695H136.483V13.7427H141.497V9.18695ZM151.235 6.74742H146.221V11.3032H151.235V6.74742ZM160.843 4.74876H156.249V8.92242H160.843V4.74876ZM169.383 4.04335H167.442V5.80687H169.383V4.04335ZM534.675 162.936H531.343V165.964H534.675V162.936ZM540.013 170.373H534.999V174.928H540.013V170.373ZM539.237 183.246H544.251V178.691H539.237V183.246ZM548.198 187.126H543.183V191.682H548.198V187.126ZM551.885 195.65H546.871V200.205H551.885V195.65ZM555.282 204.291H550.268V208.847H555.282V204.291ZM558.032 213.344H553.794V217.194H558.032V213.344ZM557.126 225.541H560.329V222.632H557.126V225.541ZM561.105 233.095H561.429V232.801H561.105V233.095ZM122.929 7.9231H121.247V9.45148H122.929V7.9231ZM131.954 5.60113H131.404V6.10079H131.954V5.60113ZM141.756 2.89707H140.98V3.60247H141.756V2.89707ZM151.494 0.604492H150.782V1.25112H151.494V0.604492V0.604492ZM537.975 155.383H536.422V156.793H537.975V155.383ZM544.38 161.937H539.366V166.493H544.38V161.937ZM543.798 174.723H548.812V170.167H543.798V174.723ZM547.939 183.07H552.953V178.514H547.939V183.07ZM556.835 186.979H551.821V191.535H556.835V186.979ZM560.426 195.532H555.412V200.088H560.426V195.532ZM558.744 208.729H563.758V204.173H558.744V208.729ZM564.178 215.284H564.405V215.078H564.178V215.284ZM547.162 154.795H545.092V156.676H547.162V154.795ZM553.212 161.643H548.198V166.199H553.212V161.643ZM552.532 174.487H557.547V169.932H552.532V174.487ZM556.608 182.894H561.623V178.338H556.608V182.894ZM565.408 186.832H560.393V191.388H565.408V186.832ZM563.919 199.97H568.934V195.415H563.919V199.97ZM569.031 206.966H570.325V205.79H569.031V206.966ZM555.315 155.265H554.765V155.765H555.315V155.265ZM562.043 161.437H557.029V165.993H562.043V161.437ZM561.267 174.311H566.281V169.755H561.267V174.311ZM570.26 178.191H565.246V182.747H570.26V178.191ZM573.98 186.715H568.966V191.27H573.98V186.715ZM573.398 199H576.439V196.238H573.398V199ZM566.281 153.119H561.558V157.411H566.281V153.119ZM570.81 161.232H565.796V165.787H570.81V161.232ZM574.918 169.638H570.001V174.105H574.918V169.638ZM578.865 178.044H573.851V182.6H578.865V178.044ZM577.506 191.153H582.521V186.597H577.506V191.153ZM583.038 197.854H583.75V197.207H583.038V197.854ZM568.513 146.594H567.931V147.124H568.513V146.594ZM574.724 153.266H570.842V156.793H574.724V153.266ZM579.415 161.202H574.789V165.405H579.415V161.202ZM579.156 173.518H583.2V169.844H579.156V173.518ZM582.488 182.453H587.502V177.897H582.488V182.453ZM590.511 186.979H586.564V190.565H590.511V186.979ZM590.511 198.677H593.261V196.179H590.511V198.677ZM591.287 170.226H588.343V172.9H591.287V170.226ZM591.287 182.129H595.816V178.014H591.287V182.129ZM598.21 171.607H598.663V171.196H598.21V171.607ZM602.06 179.925V179.984H602.124V179.925H602.06Z" fill="#01163E"/>
</svg>
