<svg width="516" height="517" viewBox="0 0 516 517" fill="none" xmlns="http://www.w3.org/2000/svg">
<path d="M502.925 258.611C502.925 393.542 393.542 502.925 258.611 502.925C123.68 502.925 14.2974 393.542 14.2974 258.611C14.2974 123.681 123.68 14.2976 258.611 14.2976C393.542 14.2976 502.925 123.681 502.925 258.611ZM19.1836 258.611C19.1836 390.843 126.379 498.039 258.611 498.039C390.843 498.039 498.039 390.843 498.039 258.611C498.039 126.379 390.843 19.1839 258.611 19.1839C126.379 19.1839 19.1836 126.379 19.1836 258.611Z" fill="#F5FAFD"/>
<mask id="mask0_678_4978" style="mask-type:alpha" maskUnits="userSpaceOnUse" x="14" y="252" width="239" height="251">
<path d="M252.272 500.399C252.237 501.748 251.114 502.814 249.766 502.765C218.533 501.633 187.798 494.519 159.233 481.8C129.923 468.749 103.471 450.054 81.3869 426.78C59.3027 403.507 42.0187 376.112 30.5218 346.158C19.3169 316.966 13.8228 285.901 14.3295 254.651C14.3513 253.302 15.4747 252.237 16.8236 252.272C18.1724 252.308 19.2359 253.43 19.2143 254.779C18.7243 285.388 24.1086 315.814 35.0836 344.407C46.3505 373.762 63.2888 400.609 84.9314 423.417C106.574 446.225 132.497 464.547 161.22 477.336C189.2 489.794 219.302 496.766 249.894 497.88C251.242 497.929 252.307 499.05 252.272 500.399Z" fill="#C60707"/>
</mask>
<g mask="url(#mask0_678_4978)">
<path d="M438.086 96.469C439.087 95.5644 440.633 95.6424 441.528 96.6526C468.838 127.497 487.914 164.757 496.964 204.975C506.193 245.988 504.683 288.688 492.581 328.947C480.479 369.206 458.193 405.66 427.879 434.786C397.565 463.911 360.249 484.722 319.539 495.206C278.828 505.69 236.102 505.491 195.491 494.63C154.879 483.77 117.758 462.613 87.7154 433.208C57.6731 403.802 35.7265 367.143 23.9981 326.773C12.4969 287.187 11.2032 245.347 20.2185 205.148C20.5138 203.831 21.83 203.016 23.1436 203.325C24.4572 203.633 25.2707 204.948 24.9757 206.265C16.1524 245.645 17.4237 286.631 28.6903 325.41C40.1842 364.972 61.6918 400.899 91.1333 429.716C120.575 458.533 156.954 479.266 196.753 489.91C236.552 500.554 278.424 500.748 318.32 490.474C358.216 480.2 394.786 459.805 424.494 431.262C454.201 402.719 476.041 366.994 487.902 327.54C499.762 288.087 501.242 246.241 492.197 206.048C483.332 166.65 464.648 130.148 437.902 99.9283C437.007 98.9179 437.084 97.3735 438.086 96.469Z" fill="#439FD9" stroke="#439FD9"/>
</g>
<mask id="mask1_678_4978" style="mask-type:alpha" maskUnits="userSpaceOnUse" x="38" y="13" width="435" height="143">
<path d="M40.3105 154.466C39.0927 153.885 38.5756 152.426 39.1687 151.214C58.6035 111.503 88.4581 77.7951 125.564 53.7021C163.354 29.1654 207.193 15.5567 252.235 14.3808C297.276 13.2049 341.766 24.5075 380.784 47.039C419.097 69.1629 450.67 101.267 472.151 139.91C472.806 141.089 472.366 142.573 471.18 143.217C469.994 143.861 468.512 143.42 467.856 142.241C446.806 104.39 415.874 72.9438 378.341 51.2704C340.103 29.1896 296.503 18.113 252.362 19.2654C208.222 20.4178 165.259 33.7543 128.225 57.8003C91.8748 81.4025 62.6256 114.42 43.579 153.318C42.9857 154.53 41.5283 155.047 40.3105 154.466Z" fill="#F7A300" stroke="black"/>
</mask>
<g mask="url(#mask1_678_4978)">
<path d="M473.165 146.951C474.362 146.329 475.839 146.795 476.45 147.998C505.389 204.987 510.855 271.086 491.609 332.103C472.118 393.898 428.877 445.419 371.4 475.332C313.922 505.246 246.915 511.101 185.12 491.61C124.103 472.364 73.1023 429.963 43.0301 373.564C42.3952 372.373 42.8608 370.895 44.0577 370.273C45.2546 369.65 46.7296 370.117 47.3647 371.308C76.8385 426.557 126.809 468.094 186.59 486.95C247.149 506.051 312.815 500.313 369.144 470.998C425.472 441.683 467.848 391.192 486.949 330.633C505.805 270.852 500.456 206.093 472.116 150.254C471.505 149.051 471.968 147.574 473.165 146.951Z" fill="#439FD9" stroke="#439FD9"/>
</g>
<mask id="mask2_678_4978" style="mask-type:alpha" maskUnits="userSpaceOnUse" x="13" y="258" width="241" height="246">
<path d="M252.555 500.408C252.521 501.757 251.398 502.825 250.05 502.777C187.313 500.578 127.793 474.308 83.8752 429.366C39.9578 384.424 15.0671 324.313 14.3149 261.543C14.2987 260.194 15.3917 259.096 16.741 259.093C18.0903 259.09 19.185 260.184 19.2014 261.533C19.9509 323.031 44.3422 381.92 87.37 425.951C130.398 469.983 188.709 495.725 250.172 497.892C251.521 497.94 252.588 499.06 252.555 500.408Z" fill="#0080F7" stroke="black"/>
</mask>
<g mask="url(#mask2_678_4978)">
<path d="M50.3517 135.61C49.1899 134.924 48.8042 133.424 49.5019 132.269C82.5542 77.5623 135.754 37.9555 197.716 22.0082C260.467 5.85771 327.063 15.2965 382.855 48.2481C438.647 81.1998 479.063 134.965 495.214 197.716C511.161 259.678 502.159 325.389 470.207 380.745C469.533 381.914 468.033 382.3 466.871 381.614C465.709 380.928 465.325 379.429 466 378.26C497.293 324.02 506.106 259.641 490.482 198.934C474.654 137.438 435.046 84.748 380.37 52.4554C325.694 20.1628 260.43 10.9128 198.934 26.7403C138.227 42.3646 86.1025 81.1631 53.7094 134.754C53.0114 135.908 51.5135 136.296 50.3517 135.61Z" fill="#439FD9" stroke="#439FD9"/>
</g>
<circle cx="250.5" cy="500.5" r="14" fill="#439FD9" stroke="white" stroke-width="5"/>
<circle cx="250.5" cy="500.5" r="6.5" fill="white"/>
<circle cx="250.5" cy="16.5" r="14" fill="#F5FAFD"/>
<circle cx="250.5" cy="16.5" r="14" fill="#F5FAFD"/>
<circle cx="250.5" cy="16.5" r="14" fill="#F5FAFD"/>
<circle cx="250.5" cy="16.5" r="14" stroke="white" stroke-width="5"/>
<circle cx="250.5" cy="16.5" r="6.5" fill="white"/>
<circle cx="16.5" cy="258.5" r="14" fill="#439FD9" stroke="white" stroke-width="5"/>
<circle cx="16.5" cy="258.5" r="6.5" fill="white"/>
<circle cx="499.5" cy="258.5" r="14" fill="#F5FAFD"/>
<circle cx="499.5" cy="258.5" r="14" fill="#F5FAFD"/>
<circle cx="499.5" cy="258.5" r="14" fill="#F5FAFD"/>
<circle cx="499.5" cy="258.5" r="14" stroke="white" stroke-width="5"/>
<circle cx="499.5" cy="258.5" r="6.5" fill="white"/>
<path d="M405.412 316.244C405.429 328.798 395.389 335.795 384.536 339.575C343.631 353.828 315.205 320.466 302.034 328.798C288.864 337.139 259.054 365.29 228.198 373.978C210.548 378.946 182.796 384.616 169.963 367.042C160.459 354.019 165.691 335.509 169.271 321.29C171.909 310.825 175.999 296.459 161.981 292.999C158.807 292.219 154.621 290.676 149.986 288.482C125.677 277.003 88.9056 247.716 119.805 216.408C130.2 205.874 144.01 199.441 158.721 198.011C170.196 196.901 186.922 196.398 208.083 198.817C249.247 203.516 261.943 154.496 291.268 136.956C301.273 130.974 318.578 126.856 326.491 137.936C337.197 152.926 328.367 174.454 340.985 188.179C348.033 195.843 359.301 197.386 369.584 198.964C378.301 200.308 387.796 202.554 393.815 208.614C394.896 209.698 395.865 210.912 396.695 212.255C400.068 217.726 400.483 224.628 399.194 230.931C397.871 237.416 394.369 242.947 392.423 249.129C389.578 258.163 390.417 267.796 392.942 276.804C396.626 289.922 405.395 302.216 405.412 316.235V316.244Z" fill="#F5FAFD"/>
<path d="M193.52 356.1H193.615V380.107C193.555 379.691 193.52 379.266 193.52 378.833V356.1Z" fill="#FFD008"/>
<path d="M175.065 329.492H172.843V327.263C172.843 326.492 172.22 325.868 171.451 325.868C170.681 325.868 170.058 326.492 170.058 327.263V329.492H167.836C167.066 329.492 166.443 330.116 166.443 330.888C166.443 331.659 167.066 332.283 167.836 332.283H170.058V334.512C170.058 335.283 170.681 335.907 171.451 335.907C172.22 335.907 172.843 335.283 172.843 334.512V332.283H175.065C175.835 332.283 176.458 331.659 176.458 330.888C176.458 330.116 175.835 329.492 175.065 329.492Z" fill="#FF912E"/>
<path d="M155.607 216.4L157.181 217.978L155.607 219.556C155.063 220.102 155.063 220.978 155.607 221.524C156.152 222.07 157.026 222.07 157.57 221.524L159.144 219.946L160.718 221.524C161.263 222.07 162.137 222.07 162.681 221.524C163.226 220.978 163.226 220.102 162.681 219.556L161.107 217.978L162.681 216.4C163.226 215.854 163.226 214.978 162.681 214.432C162.137 213.885 161.263 213.885 160.718 214.432L159.144 216.01L157.57 214.432C157.026 213.885 156.152 213.885 155.607 214.432C155.063 214.978 155.063 215.854 155.607 216.4Z" fill="#8FCC40"/>
<path d="M373.475 296.996C375.524 296.996 377.185 295.331 377.185 293.277C377.185 291.223 375.524 289.557 373.475 289.557C371.426 289.557 369.765 291.223 369.765 293.277C369.765 295.331 371.426 296.996 373.475 296.996Z" fill="#29C6E2"/>
<path d="M381.76 194.499L381.301 197.568C381.284 197.664 381.25 197.751 381.18 197.82L379.139 200.161C378.88 200.456 379.053 200.924 379.442 200.984L382.504 201.444C382.599 201.461 382.685 201.496 382.754 201.565L385.089 203.611C385.383 203.872 385.85 203.698 385.911 203.308L386.369 200.239C386.386 200.143 386.421 200.057 386.49 199.987L388.531 197.646C388.791 197.352 388.618 196.884 388.228 196.823L385.167 196.363C385.072 196.346 384.985 196.311 384.916 196.242L382.581 194.196C382.287 193.936 381.82 194.109 381.76 194.499Z" fill="#F473FF"/>
<path d="M340.933 149.077H190.009V369.426C190.009 379.128 197.853 387 207.539 387H358.463V166.651C358.463 156.949 350.619 149.077 340.933 149.077Z" fill="url(#paint0_linear_678_4978)"/>
<path d="M388.662 357.01V366.313C388.662 377.732 379.434 386.983 368.045 386.983H203.033C214.423 386.983 223.65 377.732 223.65 366.313V357.01H388.653H388.662Z" fill="url(#paint1_linear_678_4978)"/>
<path d="M171.459 149.077H190.009V179.049H175.057L171.459 149.077Z" fill="url(#paint2_linear_678_4978)"/>
<path d="M174.019 149.077C182.84 149.077 190.009 156.256 190.009 165.108V179.049H151.967V171.186C151.967 158.987 161.851 149.077 174.019 149.077Z" fill="url(#paint3_linear_678_4978)"/>
<path d="M255.777 177.081H217.051C214.773 177.081 212.926 178.933 212.926 181.217V222.278C212.926 224.562 214.773 226.414 217.051 226.414H255.777C258.055 226.414 259.902 224.562 259.902 222.278V181.217C259.902 178.933 258.055 177.081 255.777 177.081Z" fill="white"/>
<g opacity="0.5">
<path d="M315.431 182.803H276.005C274.868 182.803 273.946 183.727 273.946 184.867V191.777C273.946 192.917 274.868 193.84 276.005 193.84H315.431C316.567 193.84 317.489 192.917 317.489 191.777V184.867C317.489 183.727 316.567 182.803 315.431 182.803Z" fill="white"/>
<path d="M337.699 209.178H276.005C274.868 209.178 273.946 210.102 273.946 211.241V218.151C273.946 219.291 274.868 220.215 276.005 220.215H337.699C338.836 220.215 339.757 219.291 339.757 218.151V211.241C339.757 210.102 338.836 209.178 337.699 209.178Z" fill="white"/>
<path d="M337.708 240.268H214.984C213.848 240.268 212.926 241.192 212.926 242.332V249.242C212.926 250.382 213.848 251.305 214.984 251.305H337.708C338.844 251.305 339.766 250.382 339.766 249.242V242.332C339.766 241.192 338.844 240.268 337.708 240.268Z" fill="white"/>
<path d="M337.708 268.637H214.984C213.848 268.637 212.926 269.561 212.926 270.7V277.61C212.926 278.75 213.848 279.674 214.984 279.674H337.708C338.844 279.674 339.766 278.75 339.766 277.61V270.7C339.766 269.561 338.844 268.637 337.708 268.637Z" fill="white"/>
<path d="M337.708 296.996H214.984C213.848 296.996 212.926 297.92 212.926 299.06V305.97C212.926 307.11 213.848 308.033 214.984 308.033H337.708C338.844 308.033 339.766 307.11 339.766 305.97V299.06C339.766 297.92 338.844 296.996 337.708 296.996Z" fill="white"/>
<path d="M302.51 325.365H214.984C213.848 325.365 212.926 326.289 212.926 327.428V334.338C212.926 335.478 213.848 336.402 214.984 336.402H302.51C303.647 336.402 304.569 335.478 304.569 334.338V327.428C304.569 326.289 303.647 325.365 302.51 325.365Z" fill="white"/>
</g>
<path d="M233.205 203.481L226.797 197.057L222.127 201.747L228.526 208.163L233.205 212.854L237.884 208.163L250.691 195.323L246.013 190.632L233.205 203.481Z" fill="#439FD9"/>
<defs>
<linearGradient id="paint0_linear_678_4978" x1="383.741" y1="144.794" x2="173.483" y2="380.216" gradientUnits="userSpaceOnUse">
<stop stop-color="#F18D28"/>
<stop offset="1" stop-color="#FCDA72"/>
</linearGradient>
<linearGradient id="paint1_linear_678_4978" x1="203.033" y1="372.001" x2="388.662" y2="372.001" gradientUnits="userSpaceOnUse">
<stop stop-color="#F18828"/>
<stop offset="1" stop-color="#F64C1F"/>
</linearGradient>
<linearGradient id="paint2_linear_678_4978" x1="164.299" y1="172.642" x2="230.64" y2="138.205" gradientUnits="userSpaceOnUse">
<stop stop-color="#F18D28"/>
<stop offset="1" stop-color="#FCDA72"/>
</linearGradient>
<linearGradient id="paint3_linear_678_4978" x1="151.967" y1="164.068" x2="190.009" y2="164.068" gradientUnits="userSpaceOnUse">
<stop stop-color="#F18828"/>
<stop offset="1" stop-color="#F64C1F"/>
</linearGradient>
</defs>
</svg>
