<svg width="516" height="517" viewBox="0 0 516 517" fill="none" xmlns="http://www.w3.org/2000/svg">
<path d="M502.925 258.611C502.925 393.542 393.542 502.925 258.611 502.925C123.681 502.925 14.2976 393.542 14.2976 258.611C14.2976 123.68 123.681 14.2974 258.611 14.2974C393.542 14.2974 502.925 123.68 502.925 258.611ZM19.1839 258.611C19.1839 390.843 126.379 498.039 258.611 498.039C390.843 498.039 498.039 390.843 498.039 258.611C498.039 126.379 390.843 19.1836 258.611 19.1836C126.379 19.1836 19.1839 126.379 19.1839 258.611Z" fill="#F5FAFD"/>
<mask id="mask0_356_1618" style="mask-type:alpha" maskUnits="userSpaceOnUse" x="14" y="252" width="239" height="251">
<path d="M252.272 500.399C252.237 501.747 251.115 502.813 249.766 502.765C218.533 501.633 187.798 494.519 159.233 481.8C129.923 468.749 103.471 450.053 81.3872 426.78C59.3029 403.507 42.0189 376.111 30.5221 346.158C19.3172 316.966 13.8231 285.901 14.3297 254.651C14.3516 253.302 15.475 252.237 16.8238 252.272C18.1727 252.307 19.2362 253.43 19.2146 254.779C18.7246 285.387 24.1089 315.814 35.0839 344.407C46.3508 373.761 63.2891 400.609 84.9317 423.417C106.574 446.225 132.497 464.546 161.221 477.336C189.2 489.794 219.302 496.765 249.894 497.88C251.243 497.929 252.308 499.05 252.272 500.399Z" fill="#C60707"/>
</mask>
<g mask="url(#mask0_356_1618)">
<path d="M438.086 96.4689C439.087 95.5643 440.634 95.6422 441.528 96.6525C468.838 127.497 487.915 164.757 496.965 204.975C506.194 245.988 504.684 288.688 492.581 328.947C480.479 369.206 458.193 405.66 427.879 434.786C397.566 463.911 360.249 484.722 319.539 495.206C278.829 505.689 236.102 505.491 195.491 494.63C154.88 483.769 117.758 462.613 87.7159 433.208C57.6736 403.802 35.727 367.142 23.9985 326.773C12.4974 287.187 11.2037 245.346 20.219 205.148C20.5143 203.831 21.8305 203.016 23.1441 203.325C24.4577 203.633 25.2712 204.948 24.9761 206.265C16.1529 245.645 17.4242 286.631 28.6908 325.41C40.1847 364.972 61.6923 400.898 91.1338 429.716C120.575 458.533 156.955 479.266 196.753 489.91C236.552 500.554 278.424 500.748 318.32 490.474C358.216 480.2 394.786 459.805 424.494 431.262C454.202 402.719 476.042 366.994 487.902 327.54C499.763 288.087 501.242 246.24 492.198 206.048C483.332 166.65 464.649 130.148 437.902 99.9282C437.008 98.9178 437.085 97.3734 438.086 96.4689Z" fill="#439FD9" stroke="#439FD9"/>
</g>
<mask id="mask1_356_1618" style="mask-type:alpha" maskUnits="userSpaceOnUse" x="38" y="13" width="435" height="143">
<path d="M40.3108 154.466C39.0929 153.885 38.5758 152.425 39.169 151.213C58.6037 111.503 88.4583 77.7949 125.565 53.7019C163.355 29.1651 207.194 15.5565 252.235 14.3806C297.277 13.2047 341.766 24.5072 380.785 47.0387C419.098 69.1627 450.67 101.267 472.151 139.909C472.806 141.089 472.366 142.573 471.18 143.217C469.994 143.861 468.512 143.42 467.856 142.241C446.806 104.39 415.874 72.9435 378.341 51.2702C340.103 29.1893 296.503 18.1128 252.363 19.2652C208.222 20.4176 165.26 33.754 128.226 57.8001C91.8751 81.4023 62.6259 114.42 43.5793 153.318C42.9859 154.529 41.5286 155.047 40.3108 154.466Z" fill="#F7A300" stroke="black"/>
</mask>
<g mask="url(#mask1_356_1618)">
<path d="M473.165 146.951C474.362 146.328 475.84 146.795 476.451 147.998C505.389 204.987 510.855 271.086 491.61 332.103C472.118 393.898 428.878 445.419 371.4 475.332C313.922 505.245 246.915 511.1 185.12 491.609C124.103 472.364 73.1026 429.962 43.0303 373.563C42.3955 372.373 42.861 370.895 44.058 370.272C45.2549 369.649 46.7299 370.117 47.3649 371.307C76.8388 426.557 126.809 468.094 186.59 486.95C247.149 506.051 312.816 500.313 369.144 470.998C425.472 441.683 467.848 391.192 486.95 330.633C505.806 270.852 500.456 206.093 472.116 150.254C471.505 149.05 471.968 147.574 473.165 146.951Z" fill="#439FD9" stroke="#439FD9"/>
</g>
<mask id="mask2_356_1618" style="mask-type:alpha" maskUnits="userSpaceOnUse" x="13" y="258" width="241" height="246">
<path d="M252.555 500.408C252.521 501.757 251.398 502.824 250.05 502.777C187.314 500.578 127.793 474.308 83.8755 429.366C39.958 384.424 15.0673 324.313 14.3151 261.543C14.299 260.194 15.3919 259.096 16.7412 259.093C18.0905 259.09 19.1852 260.184 19.2017 261.533C19.9511 323.03 44.3425 381.92 87.3702 425.951C130.398 469.983 188.709 495.725 250.172 497.892C251.521 497.94 252.589 499.059 252.555 500.408Z" fill="#0080F7" stroke="black"/>
</mask>
<g mask="url(#mask2_356_1618)">
<path d="M50.3519 135.61C49.1901 134.924 48.8044 133.423 49.5022 132.269C82.5545 77.5621 135.755 37.9554 197.716 22.0081C260.467 5.85758 327.063 15.2964 382.855 48.248C438.647 81.1997 479.064 134.965 495.214 197.716C511.161 259.678 502.16 325.389 470.207 380.745C469.533 381.914 468.033 382.3 466.871 381.614C465.709 380.928 465.326 379.429 466 378.26C497.293 324.02 506.106 259.641 490.482 198.934C474.655 137.438 435.046 84.7479 380.37 52.4553C325.694 20.1627 260.43 10.9127 198.934 26.7402C138.228 42.3645 86.1028 81.1629 53.7097 134.754C53.0117 135.908 51.5137 136.296 50.3519 135.61Z" fill="#439FD9" stroke="#439FD9"/>
</g>
<circle cx="250.5" cy="500.5" r="14" fill="#439FD9" stroke="white" stroke-width="5"/>
<circle cx="250.5" cy="500.5" r="6.5" fill="white"/>
<circle cx="250.5" cy="16.5" r="14" fill="#F5FAFD"/>
<circle cx="250.5" cy="16.5" r="14" fill="#F5FAFD"/>
<circle cx="250.5" cy="16.5" r="14" fill="#F5FAFD"/>
<circle cx="250.5" cy="16.5" r="14" stroke="white" stroke-width="5"/>
<circle cx="250.5" cy="16.5" r="6.5" fill="white"/>
<circle cx="16.5" cy="258.5" r="14" fill="#439FD9" stroke="white" stroke-width="5"/>
<circle cx="16.5" cy="258.5" r="6.5" fill="white"/>
<circle cx="499.5" cy="258.5" r="14" fill="#F5FAFD"/>
<circle cx="499.5" cy="258.5" r="14" fill="#F5FAFD"/>
<circle cx="499.5" cy="258.5" r="14" fill="#F5FAFD"/>
<circle cx="499.5" cy="258.5" r="14" stroke="white" stroke-width="5"/>
<circle cx="499.5" cy="258.5" r="6.5" fill="white"/>
<path d="M405.412 316.244C405.429 328.798 395.389 335.795 384.536 339.575C343.631 353.828 315.205 320.466 302.034 328.798C288.863 337.138 259.054 365.29 228.198 373.977C210.547 378.945 182.796 384.616 169.963 367.041C160.459 354.019 165.691 335.509 169.271 321.29C171.908 310.825 175.999 296.459 161.981 292.999C158.807 292.219 154.621 290.676 149.986 288.482C125.676 277.003 88.9054 247.716 119.805 216.408C130.199 205.874 144.01 199.441 158.72 198.011C170.196 196.901 186.921 196.398 208.083 198.817C249.247 203.516 261.942 154.496 291.267 136.956C301.273 130.974 318.578 126.856 326.491 137.936C337.197 152.926 328.367 174.454 340.985 188.179C348.033 195.843 359.301 197.386 369.583 198.964C378.3 200.308 387.796 202.554 393.815 208.614C394.896 209.698 395.864 210.912 396.695 212.255C400.067 217.726 400.482 224.628 399.194 230.931C397.871 237.416 394.368 242.947 392.423 249.129C389.577 258.163 390.416 267.796 392.941 276.804C396.625 289.922 405.395 302.216 405.412 316.235V316.244Z" fill="#F5FAFD"/>
<path d="M193.52 356.1H193.615V380.107C193.554 379.691 193.52 379.266 193.52 378.833V356.1Z" fill="#FFD008"/>
<path d="M175.065 329.492H172.842V327.263C172.842 326.492 172.22 325.867 171.45 325.867C170.68 325.867 170.058 326.492 170.058 327.263V329.492H167.835C167.066 329.492 166.443 330.116 166.443 330.887C166.443 331.659 167.066 332.283 167.835 332.283H170.058V334.511C170.058 335.283 170.68 335.907 171.45 335.907C172.22 335.907 172.842 335.283 172.842 334.511V332.283H175.065C175.835 332.283 176.457 331.659 176.457 330.887C176.457 330.116 175.835 329.492 175.065 329.492Z" fill="#FF912E"/>
<path d="M155.607 216.4L157.181 217.978L155.607 219.556C155.062 220.102 155.062 220.978 155.607 221.524C156.152 222.07 157.025 222.07 157.57 221.524L159.144 219.946L160.718 221.524C161.263 222.07 162.136 222.07 162.681 221.524C163.226 220.978 163.226 220.102 162.681 219.556L161.107 217.978L162.681 216.4C163.226 215.854 163.226 214.978 162.681 214.432C162.136 213.885 161.263 213.885 160.718 214.432L159.144 216.01L157.57 214.432C157.025 213.885 156.152 213.885 155.607 214.432C155.062 214.978 155.062 215.854 155.607 216.4Z" fill="#8FCC40"/>
<path d="M373.475 296.996C375.524 296.996 377.185 295.331 377.185 293.277C377.185 291.223 375.524 289.557 373.475 289.557C371.426 289.557 369.765 291.223 369.765 293.277C369.765 295.331 371.426 296.996 373.475 296.996Z" fill="#29C6E2"/>
<path d="M381.76 194.499L381.301 197.568C381.284 197.664 381.25 197.75 381.18 197.82L379.139 200.161C378.88 200.455 379.053 200.924 379.442 200.984L382.504 201.444C382.599 201.461 382.685 201.496 382.754 201.565L385.089 203.611C385.383 203.871 385.85 203.698 385.911 203.308L386.369 200.239C386.386 200.143 386.421 200.057 386.49 199.987L388.531 197.646C388.791 197.352 388.618 196.883 388.228 196.823L385.167 196.363C385.072 196.346 384.985 196.311 384.916 196.242L382.581 194.196C382.287 193.936 381.82 194.109 381.76 194.499Z" fill="#F473FF"/>
<path d="M340.933 149.077H190.009V369.426C190.009 379.128 197.852 387 207.538 387H358.462V166.651C358.462 156.949 350.618 149.077 340.933 149.077Z" fill="url(#paint0_linear_356_1618)"/>
<path d="M388.661 357.01V366.313C388.661 377.732 379.433 386.983 368.044 386.983H203.032C214.422 386.983 223.649 377.732 223.649 366.313V357.01H388.652H388.661Z" fill="url(#paint1_linear_356_1618)"/>
<path d="M171.459 149.077H190.009V179.049H175.056L171.459 149.077Z" fill="url(#paint2_linear_356_1618)"/>
<path d="M174.019 149.077C182.84 149.077 190.009 156.256 190.009 165.108V179.049H151.966V171.185C151.966 158.987 161.851 149.077 174.019 149.077Z" fill="url(#paint3_linear_356_1618)"/>
<path d="M255.776 177.081H217.051C214.773 177.081 212.926 178.933 212.926 181.217V222.278C212.926 224.562 214.773 226.414 217.051 226.414H255.776C258.055 226.414 259.901 224.562 259.901 222.278V181.217C259.901 178.933 258.055 177.081 255.776 177.081Z" fill="white"/>
<g opacity="0.5">
<path d="M315.43 182.803H276.004C274.867 182.803 273.946 183.727 273.946 184.867V191.777C273.946 192.916 274.867 193.84 276.004 193.84H315.43C316.567 193.84 317.488 192.916 317.488 191.777V184.867C317.488 183.727 316.567 182.803 315.43 182.803Z" fill="white"/>
<path d="M337.699 209.177H276.004C274.867 209.177 273.946 210.101 273.946 211.241V218.151C273.946 219.291 274.867 220.214 276.004 220.214H337.699C338.835 220.214 339.757 219.291 339.757 218.151V211.241C339.757 210.101 338.835 209.177 337.699 209.177Z" fill="white"/>
<path d="M337.707 240.268H214.984C213.847 240.268 212.926 241.192 212.926 242.332V249.242C212.926 250.381 213.847 251.305 214.984 251.305H337.707C338.844 251.305 339.765 250.381 339.765 249.242V242.332C339.765 241.192 338.844 240.268 337.707 240.268Z" fill="white"/>
<path d="M337.707 268.636H214.984C213.847 268.636 212.926 269.56 212.926 270.7V277.61C212.926 278.75 213.847 279.673 214.984 279.673H337.707C338.844 279.673 339.765 278.75 339.765 277.61V270.7C339.765 269.56 338.844 268.636 337.707 268.636Z" fill="white"/>
<path d="M337.707 296.996H214.984C213.847 296.996 212.926 297.92 212.926 299.06V305.97C212.926 307.109 213.847 308.033 214.984 308.033H337.707C338.844 308.033 339.765 307.109 339.765 305.97V299.06C339.765 297.92 338.844 296.996 337.707 296.996Z" fill="white"/>
<path d="M302.51 325.365H214.984C213.847 325.365 212.926 326.288 212.926 327.428V334.338C212.926 335.478 213.847 336.401 214.984 336.401H302.51C303.647 336.401 304.568 335.478 304.568 334.338V327.428C304.568 326.288 303.647 325.365 302.51 325.365Z" fill="white"/>
</g>
<path d="M233.205 203.481L226.797 197.057L222.127 201.747L228.526 208.163L233.205 212.854L237.884 208.163L250.691 195.323L246.013 190.632L233.205 203.481Z" fill="#439FD9"/>
<defs>
<linearGradient id="paint0_linear_356_1618" x1="383.74" y1="144.794" x2="173.483" y2="380.216" gradientUnits="userSpaceOnUse">
<stop stop-color="#F18D28"/>
<stop offset="1" stop-color="#FCDA72"/>
</linearGradient>
<linearGradient id="paint1_linear_356_1618" x1="203.032" y1="372.001" x2="388.661" y2="372.001" gradientUnits="userSpaceOnUse">
<stop stop-color="#F18828"/>
<stop offset="1" stop-color="#F64C1F"/>
</linearGradient>
<linearGradient id="paint2_linear_356_1618" x1="164.298" y1="172.642" x2="230.639" y2="138.204" gradientUnits="userSpaceOnUse">
<stop stop-color="#F18D28"/>
<stop offset="1" stop-color="#FCDA72"/>
</linearGradient>
<linearGradient id="paint3_linear_356_1618" x1="151.966" y1="164.067" x2="190.009" y2="164.067" gradientUnits="userSpaceOnUse">
<stop stop-color="#F18828"/>
<stop offset="1" stop-color="#F64C1F"/>
</linearGradient>
</defs>
</svg>
