<svg width="120" height="120" viewBox="0 0 120 120" fill="none" xmlns="http://www.w3.org/2000/svg">
<path d="M98.5961 83.6084C98.0949 82.9915 98.4901 82.0469 99.0299 81.4589C99.5697 80.8709 100.273 80.3504 100.447 79.5793C100.717 78.3648 99.5793 77.3238 98.5576 76.6009C98.7022 75.2611 98.866 73.8731 99.6082 72.7453C99.8588 72.3694 100.177 72.0224 100.302 71.5886C100.534 70.8272 100.148 70.0271 100.119 69.0054C105.623 63.2702 108.283 55.4627 110.76 48.06C108.698 47.9732 106.683 47.125 104.62 47.3082C104.1 47.3563 103.589 47.4624 103.069 47.472C101.806 47.4913 100.582 46.884 99.2419 46.8744C98.2395 38.8259 98.9624 30.6135 97.6033 22.6132C97.5166 22.1023 97.4105 21.5722 97.0732 21.1866C96.8129 20.8878 96.4467 20.7143 96.0611 20.6179C94.6345 20.2517 92.9959 21.0806 92.4465 22.4493C91.4151 22.2855 90.3741 22.1794 89.3235 22.1312C89.1211 20.6372 87.9355 19.2396 86.4318 19.0853C84.9281 18.9215 83.3666 20.2902 83.6365 21.6975L80.7448 21.3794C80.8316 20.8685 80.5713 20.348 80.1761 20.0203C79.7809 19.6926 79.2508 19.548 78.7399 19.5191C77.6893 19.4613 76.523 19.9625 76.176 20.9553C75.106 20.7914 74.0265 20.7432 72.9469 20.8011C72.0601 19.789 70.5372 19.3745 69.0239 19.4902C62.5369 14.9502 55.3655 11.3838 47.7893 9.10905C47.6158 6.61256 47.7122 4.0968 48.0881 1.61959C42.2758 0.819559 36.4346 0.0195275 30.5645 0.000249588C27.4608 -0.00938935 24.1835 0.250862 21.5039 2.40998C21.0027 8.94518 21.1087 15.5286 21.7931 22.2084C20.8678 22.8253 20.2027 23.8759 20.2123 24.9844C20.2123 26.0929 21.0027 27.2013 22.0919 27.4134C21.928 28.3966 21.8798 29.3894 21.957 30.3822C20.6268 30.4786 19.5665 31.5967 19.0171 32.8208C18.6122 33.7173 18.458 34.8932 19.1713 35.5679C19.8171 36.1848 20.8581 36.0788 21.6389 36.4161C21.5714 37.2065 21.4943 37.9873 21.4268 38.7777C20.4147 39.1632 19.6725 40.1657 19.605 41.2453C19.5376 42.3248 20.1545 43.4237 21.1087 43.9249C20.9159 45.0237 20.8196 46.1418 20.8196 47.2503C19.8557 48.2624 19.4508 49.795 19.6629 51.4336C14.9687 57.7182 11.3734 64.8221 9.08897 72.3212C6.68888 72.4658 4.27914 72.6007 1.81157 72.8995C0.780208 74.6924 0.442845 76.784 0.250066 78.8371C-0.395743 85.4205 0.201871 92.1196 2.12966 98.7608C8.79016 98.5969 15.4603 98.4331 22.1208 98.2788C22.6413 99.262 23.7402 99.9175 24.8583 99.8982C25.9764 99.8789 27.0559 99.2042 27.5475 98.2017C28.3861 98.5487 29.3211 98.6451 30.2079 98.4909C30.3621 100.081 31.7694 101.469 33.3694 101.585C34.9695 101.71 36.5696 100.554 36.9455 99.0307L38.6998 98.9825C39.0853 100.12 40.1842 100.987 41.3794 101.093C42.5746 101.199 43.8084 100.534 44.3868 99.4741C45.7651 99.5801 47.1146 99.9367 48.3676 100.515C49.052 100.833 49.9677 101.171 50.3725 100.486C57.3126 104.843 64.3586 109.248 72.0698 111.783C71.9927 114.164 71.771 116.535 71.2505 119.012C74.0843 119.851 77.0917 119.889 80.0508 119.928C81.6509 119.947 83.2413 119.966 84.8414 119.986C89.4391 120.034 94.1719 120.072 98.5576 118.096C98.5576 118.096 97.613 98.2307 97.8443 97.8933C98.6443 97.0354 99.5118 95.9269 99.1648 94.8088C98.8275 93.7004 97.4009 93.0835 97.3045 91.9268C97.2274 91.0304 98.0082 90.2978 98.7889 89.8351C99.5697 89.3821 100.466 88.9965 100.919 88.2158C101.401 87.3868 101.228 86.2977 100.717 85.488C100.206 84.6783 99.3962 84.1 98.5865 83.5795L98.5961 83.6084ZM71.4529 67.6559C70.142 68.003 68.8215 68.321 67.5106 68.668C66.2286 69.0054 64.9755 69.4777 63.7225 69.8825C61.1296 70.7211 58.5271 71.5597 55.9053 72.3115C55.4908 72.4272 55.1342 72.3597 54.8643 72.1766C54.1799 72.7453 52.9365 72.6875 52.628 71.5694C51.0183 65.6896 49.2544 59.8484 46.9025 54.2193C46.6712 53.6698 47.0567 52.9566 47.529 52.677C47.7893 52.5228 48.0688 52.4746 48.3387 52.5132C48.4255 52.4361 48.5411 52.3686 48.6761 52.33C51.4232 51.5107 54.151 50.6239 56.9174 49.8239C58.3054 49.4287 59.6934 49.0239 61.0814 48.6383C61.5923 48.5034 62.1128 48.3492 62.6429 48.2142C63.1634 47.9732 63.6839 47.7323 64.2141 47.4913C64.3876 47.366 64.59 47.2696 64.8502 47.2118C65.3707 47.0961 65.843 47.3081 66.1515 47.6552C66.2671 47.6359 66.3924 47.6552 66.5081 47.6744C66.7105 47.7226 66.9129 47.8865 67.019 48.0696C67.0575 48.1467 67.0961 48.2431 67.1154 48.3395L67.1346 48.3588C67.4527 48.3684 67.7515 48.5612 67.8383 48.9853C68.9082 54.412 70.5083 59.7424 72.4071 64.9281C72.5324 65.2655 72.4264 65.5257 72.2144 65.6896C72.5999 66.3836 72.3975 67.4246 71.4625 67.6656L71.4529 67.6559Z" fill="white"/>
<path d="M75.3182 109.171C75.2507 109.171 75.1928 109.142 75.1447 109.094C75.0483 108.997 75.0579 108.843 75.1447 108.747C77.7086 106.26 80.4364 103.879 83.2606 101.681C83.3667 101.595 83.5209 101.614 83.6076 101.72C83.6944 101.826 83.6751 101.98 83.5691 102.067C80.7642 104.255 78.046 106.617 75.4917 109.094C75.4435 109.142 75.3856 109.161 75.3182 109.161V109.171Z" fill="#000C24"/>
<path d="M75.1446 115.918C75.0868 115.918 75.0289 115.899 74.9808 115.851C74.8844 115.764 74.8747 115.61 74.9615 115.504C79.4629 110.53 84.3402 105.797 89.4488 101.431C89.5548 101.344 89.7091 101.354 89.7958 101.46C89.8826 101.566 89.8729 101.72 89.7669 101.807C84.6775 106.154 79.8195 110.877 75.3278 115.831C75.2796 115.889 75.2121 115.908 75.1446 115.908V115.918Z" fill="#000C24"/>
<path d="M79.8773 118.048C79.8195 118.048 79.7616 118.029 79.7231 117.99C79.617 117.904 79.6074 117.75 79.6941 117.643C84.2919 112.178 89.3524 107.002 94.7116 102.289C94.8176 102.202 94.9719 102.212 95.0586 102.308C95.1454 102.414 95.1357 102.568 95.0393 102.655C89.6897 107.359 84.6582 112.516 80.0701 117.962C80.0219 118.019 79.9544 118.048 79.8869 118.048H79.8773Z" fill="#000C24"/>
<path d="M85.7282 117.663C85.6704 117.663 85.6029 117.643 85.5643 117.595C85.4679 117.499 85.4583 117.345 85.5643 117.248L95.1358 107.204C95.2322 107.108 95.3864 107.108 95.4828 107.204C95.5792 107.301 95.5888 107.455 95.4828 107.551L85.9113 117.595C85.8631 117.643 85.7957 117.672 85.7378 117.672L85.7282 117.663Z" fill="#000C24"/>
<path d="M92.2154 118.241C92.1575 118.241 92.0997 118.222 92.0515 118.183C91.9551 118.097 91.9455 117.942 92.0322 117.836L96.5529 112.766C96.6397 112.67 96.7939 112.66 96.8999 112.747C96.9963 112.834 97.0059 112.988 96.9192 113.094L92.3985 118.164C92.3503 118.222 92.2829 118.241 92.2154 118.241Z" fill="#000C24"/>
<path d="M74.5759 104.506C74.518 104.506 74.4698 104.486 74.4216 104.448C74.3156 104.361 74.306 104.207 74.3927 104.101C75.2602 103.05 76.2241 102.067 77.2555 101.161C77.3519 101.074 77.5157 101.084 77.6025 101.18C77.6892 101.286 77.6796 101.44 77.5832 101.527C76.5808 102.414 75.6361 103.378 74.7783 104.409C74.7301 104.467 74.6626 104.496 74.5855 104.496L74.5759 104.506Z" fill="#000C24"/>
<path d="M24.7233 19.1624C24.5884 19.1624 24.4823 19.0467 24.4823 18.9118L24.5691 2.83405C24.5691 2.69911 24.6751 2.59308 24.8101 2.59308C24.945 2.59308 25.051 2.69911 25.051 2.84369L24.9643 18.9214C24.9643 19.0564 24.8582 19.1624 24.7233 19.1624Z" fill="#000C24"/>
<path d="M28.8297 18.5938C28.6948 18.5938 28.5887 18.4877 28.5887 18.3528L28.3092 2.80518C28.3092 2.67023 28.4152 2.55457 28.5502 2.55457C28.6851 2.55457 28.7912 2.66059 28.7912 2.79554L29.0707 18.3431C29.0707 18.4781 28.9647 18.5938 28.8297 18.5938Z" fill="#000C24"/>
<path d="M33.2249 19.5287C33.0899 19.5287 32.9839 19.4227 32.9839 19.2878L32.9164 2.53528C32.9164 2.40034 33.0224 2.29431 33.1574 2.29431C33.2923 2.29431 33.3984 2.40034 33.3984 2.53528L33.4658 19.2878C33.4658 19.4227 33.3598 19.5287 33.2249 19.5287Z" fill="#000C24"/>
<path d="M37.6396 18.0539C37.5046 18.0539 37.3986 17.9479 37.3986 17.8226C37.2154 13.0513 37.2154 8.21257 37.3986 3.45094C37.3986 3.31599 37.5046 3.20996 37.6492 3.2196C37.7841 3.2196 37.8902 3.33527 37.8805 3.47022C37.6974 8.22221 37.6974 13.0417 37.8805 17.8033C37.8805 17.9383 37.7841 18.0539 37.6492 18.0539H37.6396Z" fill="#000C24"/>
<path d="M41.6493 18.9119C41.5144 18.9119 41.4084 18.7962 41.4084 18.6613L41.6301 3.18116C41.6301 3.04621 41.7264 2.94019 41.8807 2.94019C42.0156 2.94019 42.1216 3.05585 42.1216 3.1908L41.8999 18.6709C41.8999 18.8059 41.7843 18.9119 41.659 18.9119H41.6493Z" fill="#000C24"/>
<path d="M44.753 18.9407C44.6181 18.9407 44.512 18.8347 44.512 18.6998L44.4928 4.94501C44.4928 4.81007 44.5988 4.70404 44.7337 4.70404C44.8687 4.70404 44.9747 4.81007 44.9747 4.94501L44.994 18.6998C44.994 18.8347 44.888 18.9407 44.753 18.9407Z" fill="#000C24"/>
<path d="M117.951 21.5336C111.194 22.2372 104.38 22.4589 97.5938 22.2179C98.3938 30.4881 98.9818 38.768 99.348 47.0671C105.739 47.4719 112.129 47.8671 118.53 48.272C119.021 39.5487 118.934 30.7869 117.961 21.5336H117.951Z" fill="#F7C600"/>
<g opacity="0.13">
<path d="M102.433 45.3514C102.683 42.8742 102.375 40.3681 102.182 37.9005C101.96 35.2498 101.854 32.5798 101.739 29.9194C101.633 27.6736 101.613 25.3602 100.9 23.2107C100.225 20.9842 96.9288 21.8806 97.4878 24.1554C98.9337 28.5314 98.4903 35.3173 98.7795 42.1995C98.8469 42.932 98.8951 43.6646 99.0301 44.3971C99.059 44.7634 99.0879 45.1297 99.2036 45.4863C99.2614 46.1418 99.1361 45.8044 99.3578 46.3731C99.965 47.9732 102.433 47.4623 102.413 45.7562C102.317 46.4599 102.413 45.8141 102.433 45.3514Z" fill="#000C24"/>
</g>
<g opacity="0.13">
<path d="M111.04 47.9636C110.886 46.3732 108.534 46.2286 108.129 47.7612C107.744 49.2263 106.963 51.5686 106.732 51.9542C105.536 54.4892 104.023 56.8507 102.751 59.3472C101.498 61.5545 99.8975 63.5594 98.8276 65.8728C98.4613 66.6921 98.2685 66.6246 98.0854 67.1162C97.8155 66.9523 97.5167 66.8174 97.1986 66.7499C97.0251 66.721 96.8612 66.7306 96.707 66.7692C97.3625 67.5307 97.7191 68.5813 97.4588 69.5356C97.3914 69.6416 97.3432 69.7573 97.3143 69.9115C97.2371 70.1139 96.9673 70.7886 96.5721 71.3091C96.5142 71.3766 96.4468 71.4634 96.4082 71.5019C96.3504 71.5501 96.3022 71.6079 96.2636 71.6658H96.2443C96.1094 71.7718 95.5792 72.0224 95.3865 72.1188C93.9503 72.6489 92.6394 72.9381 92.4466 73.449C92.1478 73.9213 92.4273 74.4996 92.8707 74.702C92.996 75.3768 93.5358 75.984 94.3647 75.9744C94.8756 75.9744 95.3768 75.9744 95.8877 75.9744C95.8684 76.0997 95.8684 76.225 95.8877 76.3407C95.8973 76.3407 95.907 76.3407 95.9262 76.3407C96.1383 76.4274 96.3311 76.5334 96.5142 76.6587C96.466 76.9286 96.5528 77.2178 96.842 77.372C97.0058 77.4781 97.1504 77.5937 97.2853 77.719C97.3143 77.8251 97.3432 77.96 97.3721 78.1335C97.4396 78.895 97.3817 78.9817 97.1118 79.7818C96.8901 80.2926 96.8323 80.5143 96.3311 80.9866C96.2636 81.0348 96.1961 81.083 96.1383 81.1312C95.9744 81.2662 95.7528 81.324 95.6371 81.4975C95.3286 81.8445 95.5407 82.4421 95.9841 82.5578C96.1383 82.5867 96.2829 82.5578 96.4275 82.5192C96.5142 82.6349 96.6203 82.7409 96.7456 82.7988C96.6395 83.0204 96.6588 83.2711 96.7552 83.4928C96.7552 83.4928 96.7552 83.512 96.7552 83.5217C96.7263 83.5217 96.6877 83.5313 96.6588 83.5409C95.8395 83.8301 95.9263 85.1217 96.7745 85.3242C96.8901 85.3531 97.0058 85.382 97.1215 85.4109H97.1408C97.2371 85.4977 97.3914 85.6712 97.4492 85.729C97.4974 85.7965 97.536 85.8736 97.5552 85.9218C97.6034 86.0663 97.6516 86.2591 97.6805 86.3748C97.6805 86.4423 97.6805 86.5097 97.6805 86.5772L97.6613 86.664C97.5938 87.0495 97.5938 87.1941 97.4203 87.5893C97.0926 88.0713 96.4468 88.7363 95.4636 89.199C94.9045 89.4207 94.3165 89.5653 93.7286 89.652C93.6804 89.6617 93.8442 89.6328 93.8828 89.6328C93.2563 89.7099 92.649 89.8352 92.0321 89.9701C91.7237 90.0087 91.3863 90.2015 91.367 90.5388C91.367 91.4545 92.1092 91.2328 92.6394 91.1846C93.0731 91.1461 93.5165 91.1268 93.9503 91.069C93.9695 91.4738 94.1527 91.869 94.5768 92.11C94.9142 92.2642 95.2708 92.4377 95.6467 92.5823C95.319 92.9967 95.2901 93.6618 95.8877 94.0281L95.9262 94.057C95.9262 94.057 95.9455 94.0763 95.9937 94.1245C96.0516 94.1727 96.0998 94.2402 96.1576 94.298C96.2154 94.3848 96.2733 94.5004 96.3118 94.5679C96.3793 94.751 96.4275 94.9342 96.466 95.127C96.5046 96.0041 96.5528 95.6475 96.3504 96.4668C96.1479 96.8812 96.1672 96.862 96.0708 97.0355C95.9841 97.1318 95.8877 97.2282 95.7913 97.315C95.3286 97.6909 95.5311 97.5945 95.0877 97.8644C94.6828 98.009 94.4997 98.4813 94.6925 98.7994C94.49 99.0211 94.3937 99.3392 94.4997 99.6862C94.6636 100.583 94.8081 101.479 95.0106 102.366C95.0202 102.51 95.0587 102.636 95.1069 102.742C95.2612 104.602 95.4058 107.484 95.4347 109.325C95.5407 112.226 95.1841 115.224 95.8973 118.048C96.1769 119.186 97.7384 119.6 98.5384 118.742C99.1071 118.154 99.0782 117.258 99.03 116.496C98.789 112.063 98.9432 107.619 98.3263 103.214C98.2685 102.732 98.2107 102.24 98.1432 101.759C98.336 101.065 98.1914 101.142 98.3263 100.515C98.2782 99.9464 98.4517 99.3295 98.2492 98.7897C98.23 98.7416 98.2107 98.703 98.1914 98.6644C98.4806 98.3849 98.6637 97.9897 98.8854 97.6716C99.7143 96.1583 99.589 94.0667 98.3553 92.804C98.2203 92.6787 98.0757 92.5534 97.9311 92.4377C98.3745 91.9365 98.3938 91.0882 97.8926 90.6063C97.6323 90.375 97.3143 90.2111 96.948 90.2207H96.9191C96.813 90.2015 96.7263 90.1725 96.6588 90.1533C96.8612 90.0472 97.054 89.9316 97.2564 89.8063C97.3721 90.0761 97.5938 90.3075 97.9119 90.3846C98.5288 90.5195 99.0878 90.0954 99.618 89.8255C101.228 88.7653 101.816 86.3844 100.698 84.7651C100.138 83.9361 99.2517 83.2229 98.2589 83.0108C98.23 82.8662 98.1721 82.7313 98.0757 82.6253C98.201 82.5674 98.3263 82.5096 98.4517 82.4614C100.196 81.5746 100.958 79.2131 99.9842 77.4877C99.724 76.9286 99.3095 76.4563 98.8179 76.0804C99.618 75.7141 100.081 74.6731 99.483 73.7574C99.2324 73.3044 98.789 73.0731 98.3071 72.967C98.3938 72.9092 98.4902 72.861 98.577 72.8032C99.3577 72.167 99.2806 72.3116 99.6854 71.2513C99.9071 70.4609 99.83 69.5741 99.5119 68.803C99.5987 68.7741 99.6758 68.7452 99.7529 68.697C100.052 68.5235 100.225 68.2343 100.36 67.9355C100.553 67.9933 100.755 68.003 100.948 67.9355C101.16 67.8584 101.353 67.7524 101.498 67.5789C101.555 67.5114 101.912 67.0487 101.999 66.9041C102.645 65.8824 103.281 64.8414 103.907 63.8004C104.919 62.104 105.989 60.4364 106.876 58.6629C107.098 58.1231 107.58 57.5929 107.406 56.9664C107.348 56.7254 107.213 56.5423 107.04 56.4073C108.254 54.4603 109.546 52.5614 110.327 50.383C110.568 49.5926 111.156 48.8022 111.069 47.954L111.04 47.9636Z" fill="#000C24"/>
</g>
<g opacity="0.13">
<path d="M67.4624 110.019C67.8287 110 68.0986 109.701 68.1757 109.364C68.4167 109.46 68.6577 109.547 68.8986 109.643C68.6577 110.009 68.5998 110.482 68.6962 110.906C68.8022 110.954 68.9083 111.002 69.0143 111.041C69.4384 111.234 69.8432 111.484 70.2288 111.735C70.3445 111.812 70.4505 111.899 70.5662 111.976C71.3951 111.764 71.7614 110.983 71.6554 110.26C71.6843 110.212 71.7036 110.164 71.7228 110.106C71.8385 109.643 71.4915 109.45 71.1541 109.315C70.9517 109.142 70.6818 109.017 70.3541 108.968C69.3709 108.409 68.3588 107.397 67.7034 107.012C66.6431 106.27 65.419 105.845 64.3201 105.19C63.9828 104.978 63.6647 104.766 63.3466 104.564C63.0767 104.342 62.749 104.072 62.3731 103.686C59.6356 100.881 58.0934 99.3296 57.3415 95.8788C57.4476 95.4354 57.2741 94.9053 57.2837 94.4523C57.2837 94.3655 57.2741 94.2691 57.2644 94.1824C57.1006 92.7269 57.062 91.2714 57.0813 89.8063C57.0427 89.7485 57.0042 89.6906 56.956 89.6424C56.8885 88.5629 56.8114 87.4929 56.7343 86.4134C56.7343 82.4036 56.8403 78.3456 55.6451 74.4707C55.2788 73.2659 54.1318 73.0056 53.2643 73.3815C53.0329 72.4755 52.792 71.5694 52.5317 70.673C51.4136 67.0873 50.5365 65.5644 49.3509 62.5185C48.4544 59.9256 47.6255 57.3038 46.3242 54.8844C45.8423 54.1229 45.4567 53.0048 44.5314 52.7157C43.3362 52.3397 42.2277 53.7759 42.8928 54.8459C44.7916 57.4484 45.9676 60.5039 47.4424 63.357C48.252 65.121 49.1966 66.8271 49.9678 68.6103C50.4883 69.7766 51.5678 73.0153 52.2618 75.1455C52.2715 75.2322 52.2811 75.3093 52.3004 75.3961C53.5052 80.1384 53.698 84.1964 53.4571 90.7605C53.4089 93.257 52.7438 96.6499 52.2136 98.6163C52.1944 98.6163 52.1847 98.6163 52.1654 98.6163C51.1437 98.5777 50.575 99.9464 51.3268 100.65C52.7534 101.778 54.1414 102.954 55.5873 104.062C57.0331 105.094 58.585 105.961 60.1176 106.848C61.7176 107.725 63.3852 108.487 65.0623 109.2C65.7178 109.479 66.3925 109.73 67.0672 109.971C67.1829 110.019 67.3178 110.029 67.4432 110L67.4624 110.019Z" fill="#000C24"/>
</g>
<g opacity="0.13">
<path d="M47.2111 97.8258C47.1437 97.5078 46.9605 97.1993 46.681 97.0258C46.6232 96.9776 46.5557 96.9294 46.4882 96.8909C46.5653 96.3607 46.4593 95.7824 46.4979 95.2426C46.4979 94.8474 46.5557 94.404 46.2376 94.1052C45.7171 93.5461 44.6954 93.9703 44.7243 94.7317C44.7725 95.4161 44.6665 96.1294 44.7339 96.8041C44.5026 97.1029 44.464 97.5559 44.8303 97.9993C44.8592 98.0283 44.8882 98.0572 44.9074 98.0861C44.9074 98.0861 44.9074 98.1343 44.9074 98.1632C45.0038 99.9464 47.6256 99.5512 47.2111 97.8162V97.8258Z" fill="#000C24"/>
</g>
<g opacity="0.13">
<path d="M38.0155 96.0812C35.9913 96.1294 35.9913 99.0982 38.0155 99.156C40.0397 99.1078 40.0397 96.139 38.0155 96.0812Z" fill="#000C24"/>
</g>
<g opacity="0.13">
<path d="M28.8489 93.9799C26.8247 94.0281 26.8247 96.9968 28.8489 97.0547C30.873 97.0065 30.873 94.0377 28.8489 93.9799Z" fill="#000C24"/>
</g>
<g opacity="0.13">
<path d="M50.0546 9.3403C49.5919 8.09688 47.6449 8.50171 47.6738 9.82225C47.4328 12.8778 47.1533 15.8851 46.8063 18.0828C46.7388 18.6322 46.4304 19.1238 46.44 19.6829C46.3822 21.7649 49.2931 21.6396 49.1775 19.5479C49.1775 19.0467 49.0811 19.3841 49.1293 18.6033C49.457 16.6659 49.669 14.7092 49.8811 12.7525C49.9678 11.9621 50.0546 11.1813 50.1124 10.3909C50.1317 10.0439 50.2281 9.66802 50.0546 9.35958V9.3403Z" fill="#000C24"/>
</g>
<path d="M73.1109 67.897C72.8025 67.897 72.5037 67.6946 72.4073 67.3861C71.7615 65.3234 71.1349 63.3763 70.5373 61.5256C66.2384 48.1661 63.3949 39.3464 65.7853 23.2591C65.9492 22.1506 68.224 19.0468 69.2746 19.0468H69.5734C71.2217 19.0468 73.1109 19.0276 73.6025 21.6879C73.882 23.1723 74.0652 24.4736 74.2387 25.717C74.5471 22.9603 75.1447 20.5023 76.2243 19.6252C77.1689 18.8637 79.5112 18.1022 80.9185 19.7119C81.5546 20.4445 82.0462 21.4951 82.4125 22.7096C82.5378 22.0735 82.692 21.4566 82.9041 20.8108C83.2125 19.8662 83.8294 17.9287 86.1235 18.0058C87.9067 18.0733 89.5453 19.4806 89.9309 21.2638L90.0562 21.8325C90.2489 22.7386 90.4996 23.8856 90.7502 25.1965C90.9815 24.1266 91.2996 23.047 91.7141 21.8518C92.2635 20.2613 94.625 19.442 96.1769 19.8854C98.7023 20.6083 98.7987 23.6253 98.8469 24.917C99.0397 30.5461 99.1457 33.3896 99.2614 36.2331C99.377 39.0766 99.4831 41.92 99.6758 47.5588C99.6855 47.9637 99.377 48.301 98.9625 48.3203C98.5673 48.3492 98.2203 48.0215 98.2011 47.607C98.0083 41.9779 97.9023 39.1344 97.7866 36.2909C97.6806 33.4474 97.5649 30.6039 97.3721 24.9651C97.3143 23.288 97.083 21.6783 95.7624 21.3024C94.8371 21.0325 93.343 21.6204 93.0924 22.3337C91.9743 25.5917 91.608 27.9243 91.608 31.9437C91.608 32.3389 91.29 32.6667 90.8948 32.6763C90.4996 32.7052 90.1622 32.3871 90.1429 31.9919C89.9019 28.0496 89.1019 24.3579 88.62 22.1506L88.4947 21.5819C88.2537 20.4541 87.1838 19.5288 86.0657 19.4902C85.2945 19.4613 84.8029 19.7312 84.2921 21.2831C83.4728 23.7988 83.4824 25.9965 83.5017 30.3822C83.5017 31.0666 83.5017 31.7992 83.5017 32.5992C83.5017 33.004 83.174 33.3317 82.7691 33.3317C82.3643 33.3317 82.0366 33.004 82.0366 32.5992C82.0366 26.7387 81.198 22.2855 79.81 20.7047C79.0581 19.8565 77.593 20.4156 77.14 20.7915C75.8002 21.8807 75.164 28.7436 75.511 33.9294C75.5399 34.3149 75.2604 34.6523 74.8845 34.7005C74.4989 34.7583 74.1519 34.5077 74.0652 34.1318C73.4965 31.616 73.2362 29.5822 72.9663 27.4327C72.7543 25.7555 72.5326 24.0302 72.1567 21.9771C71.8964 20.5891 71.3566 20.5312 69.5734 20.5312H69.4096C68.8505 20.9168 67.3372 22.8157 67.2312 23.4904C64.8889 39.2404 67.6842 47.9347 71.9253 61.0919C72.5229 62.9522 73.1495 64.8993 73.7953 66.962C73.9206 67.3476 73.6989 67.762 73.3133 67.8777C73.2362 67.897 73.1688 67.9066 73.0916 67.9066L73.1109 67.897Z" fill="#000C24"/>
<path d="M71.7711 118.983C71.7711 118.983 71.7229 118.983 71.7036 118.983C71.2988 118.945 70.9999 118.588 71.0385 118.183C71.1349 117.171 71.2795 114.906 71.453 112.284C71.7325 108.091 72.0795 102.867 72.4265 99.1657C72.4651 98.7608 72.8314 98.462 73.2265 98.5006C73.6314 98.5392 73.9302 98.8958 73.8916 99.3006C73.5543 102.973 73.2073 108.188 72.9277 112.381C72.7446 115.118 72.6 117.277 72.5036 118.318C72.4651 118.704 72.147 118.983 71.7711 118.983Z" fill="#000C24"/>
<path d="M100.428 70.0175C100.322 70.0175 100.206 69.9886 100.1 69.9404C99.7336 69.7573 99.589 69.3235 99.7721 68.9572C100.514 67.4536 101.459 65.9692 102.365 64.5426C102.577 64.2052 102.789 63.8679 103.001 63.5305C105.951 58.7978 108.36 53.7181 110.173 48.4456C110.307 48.06 110.722 47.8576 111.107 47.9926C111.493 48.1275 111.695 48.542 111.561 48.9275C109.71 54.3157 107.252 59.4918 104.245 64.3113C104.033 64.6486 103.82 64.986 103.608 65.333C102.722 66.7403 101.806 68.1861 101.093 69.6223C100.967 69.8826 100.707 70.0272 100.437 70.0272L100.428 70.0175Z" fill="#000C24"/>
<path d="M98.4613 118.983C98.0661 118.983 97.7384 118.675 97.7287 118.28C97.6323 115.648 97.5359 111.87 97.4396 108.217C97.3432 104.563 97.2371 100.785 97.1504 98.1632C97.1408 97.7583 97.4492 97.421 97.854 97.4017C98.2781 97.3921 98.5962 97.7005 98.6155 98.1053C98.7119 100.737 98.8083 104.515 98.9047 108.168C99.0011 111.822 99.1071 115.6 99.1939 118.222C99.2035 118.627 98.895 118.964 98.4902 118.983H98.4613Z" fill="#000C24"/>
<path d="M97.883 92.7076C97.4975 92.7076 97.1794 92.4088 97.1505 92.0232C97.1119 91.3292 97.1505 90.6448 97.2854 89.9605C97.3625 89.5653 97.7481 89.305 98.1433 89.3821C98.5385 89.4592 98.7987 89.8448 98.7216 90.24C98.6156 90.7894 98.577 91.3581 98.6156 91.9268C98.6445 92.3316 98.336 92.6786 97.9312 92.7076C97.9119 92.7076 97.9023 92.7076 97.883 92.7076Z" fill="#000C24"/>
<path d="M98.4613 83.4831H98.4228C98.0179 83.4638 97.7095 83.1168 97.7288 82.712L97.7673 81.8349C97.7866 81.43 98.1143 81.1119 98.5384 81.1409C98.9433 81.1601 99.2517 81.5071 99.2324 81.912L99.1939 82.7891C99.1746 83.1843 98.8469 83.4928 98.4613 83.4928V83.4831Z" fill="#000C24"/>
<path d="M98.9626 76.5334H98.953C98.5482 76.5334 98.2204 76.1961 98.2301 75.7912C98.2397 74.8659 98.3264 73.9309 98.4807 73.0152C98.5481 72.6104 98.9241 72.3405 99.3289 72.408C99.7241 72.4754 100.004 72.8514 99.9362 73.2562C99.8012 74.0948 99.7241 74.9527 99.7048 75.8105C99.7048 76.2154 99.3675 76.5334 98.9723 76.5334H98.9626Z" fill="#000C24"/>
<path d="M34.2369 54.9518C30.9211 54.9518 27.3354 54.6819 23.2967 54.0747C22.1882 53.9108 19.0845 51.6457 19.0845 50.5854V50.2866C19.0845 48.6287 19.0652 46.7491 21.7256 46.2575C23.21 45.978 24.5112 45.7949 25.7547 45.6214C22.9979 45.3129 20.54 44.7153 19.6628 43.6357C18.9014 42.6911 18.1399 40.3489 19.7496 38.9416C20.4822 38.3054 21.5328 37.8138 22.7473 37.4475C22.1111 37.3222 21.4942 37.168 20.8484 36.9559C19.9038 36.6475 17.9471 36.0113 18.0435 33.7269C18.111 31.9437 19.5086 30.3051 21.3015 29.9195L21.8605 29.7942C22.7666 29.6014 23.9136 29.3508 25.2245 29.1002C24.1546 28.8689 23.075 28.5508 21.8798 28.1363C20.2894 27.5869 19.4701 25.2254 19.9135 23.6735C20.6364 21.1481 23.6534 21.0517 24.945 21.0035C30.5838 20.8107 33.4272 20.7047 36.2804 20.589C39.1239 20.483 41.9673 20.3673 47.5868 20.1746C48.0013 20.1746 48.329 20.4734 48.3483 20.8878C48.358 21.2927 48.0495 21.63 47.635 21.6493C42.0155 21.8421 39.1721 21.9481 36.3382 22.0638C33.4851 22.1795 30.6416 22.2855 25.0028 22.4783C23.0558 22.5457 21.6967 22.8445 21.34 24.088C21.0798 25.0133 21.6581 26.5073 22.3714 26.758C25.6293 27.8761 27.962 28.2423 31.9814 28.2423C32.3766 28.2423 32.7043 28.5604 32.714 28.9556C32.7236 29.3508 32.4248 29.6882 32.0296 29.7075C28.0776 29.9484 24.3859 30.7581 22.1786 31.2304L21.6196 31.3557C20.4918 31.5967 19.5665 32.6666 19.5279 33.7847C19.499 34.5655 19.7689 35.0474 21.3207 35.5583C23.8365 36.3776 26.0342 36.368 30.4199 36.3487C31.1043 36.3487 31.8368 36.3487 32.6369 36.3487C33.0417 36.3487 33.3694 36.6764 33.3694 37.0813C33.3694 37.4861 33.0417 37.8138 32.6369 37.8138C26.7764 37.8138 22.3232 38.6524 20.7424 40.0404C19.8942 40.7922 20.4629 42.2574 20.8292 42.7104C21.9184 44.0502 28.7813 44.6864 33.967 44.3394C34.3622 44.3201 34.6899 44.59 34.7381 44.9659C34.796 45.3418 34.5454 45.6985 34.1694 45.7852C31.6537 46.3539 29.6199 46.6142 27.4607 46.8841C25.7836 47.0961 24.0582 47.3178 22.0051 47.6937C20.6171 47.954 20.5593 48.4841 20.5593 50.277V50.4408C20.9448 50.9999 22.8437 52.5132 23.5184 52.6192C39.2684 54.9615 47.9628 52.1662 61.1199 47.9251C62.9802 47.3274 64.9273 46.7009 66.99 46.0551C67.3756 45.9298 67.7901 46.1515 67.9057 46.537C68.031 46.9226 67.8093 47.3371 67.4238 47.4527C65.361 48.0986 63.414 48.7251 61.5633 49.3227C51.5677 52.5421 44.1072 54.9422 34.2369 54.9422V54.9518Z" fill="#000C24"/>
<path d="M118.298 48.8311C118.298 48.8311 118.25 48.8311 118.231 48.8311C117.209 48.7348 114.944 48.5902 112.322 48.407C108.129 48.1275 102.905 47.7805 99.2129 47.4335C98.8081 47.3949 98.5093 47.0383 98.5478 46.6335C98.5864 46.2286 98.9527 45.9298 99.3479 45.9684C103.02 46.3057 108.235 46.6527 112.418 46.9323C115.156 47.1154 117.324 47.26 118.356 47.3564C118.761 47.3949 119.06 47.7516 119.021 48.1564C118.982 48.542 118.664 48.8215 118.288 48.8215L118.298 48.8311Z" fill="#000C24"/>
<path d="M69.3225 20.1746C69.2165 20.1746 69.1008 20.1456 68.9948 20.0974C67.4911 19.3456 66.0067 18.4106 64.5705 17.5046C64.2332 17.2925 63.8958 17.0805 63.5681 16.8684C58.8354 13.9189 53.7653 11.5091 48.4832 9.69703C48.0976 9.56208 47.8952 9.14761 48.0301 8.76205C48.1651 8.3765 48.5795 8.17408 48.9651 8.30902C54.3533 10.1597 59.5294 12.6176 64.3488 15.625C64.6862 15.837 65.0236 16.0491 65.3609 16.2611C66.7682 17.1479 68.2237 18.0636 69.6503 18.7769C70.0165 18.96 70.1611 19.3938 69.978 19.7601C69.8527 20.0203 69.5924 20.1649 69.3225 20.1649V20.1746Z" fill="#000C24"/>
<path d="M98.1816 22.7289C97.7864 22.7289 97.4587 22.4204 97.449 22.0252C97.4394 21.6204 97.7479 21.283 98.1527 21.2637C100.774 21.177 104.543 21.071 108.187 20.9746C111.85 20.8782 115.638 20.7722 118.269 20.6854C118.693 20.6661 119.011 20.9842 119.031 21.389C119.04 21.7939 118.732 22.1312 118.327 22.1505C115.696 22.2469 111.898 22.3433 108.235 22.4397C104.591 22.5361 100.832 22.6421 98.2105 22.7289H98.1816Z" fill="#000C24"/>
<path d="M91.5694 22.7385C91.0489 22.7385 90.5284 22.6903 90.0175 22.5843C89.6223 22.5071 89.3621 22.1216 89.4392 21.7264C89.5163 21.3312 89.9018 21.0709 90.297 21.1481C90.8465 21.2541 91.4151 21.2926 91.9838 21.2541C92.408 21.2348 92.7357 21.5336 92.7646 21.9385C92.7935 22.3433 92.4851 22.6903 92.0802 22.7192C91.9164 22.7288 91.7429 22.7385 91.579 22.7385H91.5694Z" fill="#000C24"/>
<path d="M82.7883 22.1409H82.7497L81.8726 22.1023C81.4677 22.0831 81.1593 21.736 81.1786 21.3312C81.1978 20.9264 81.5352 20.6179 81.9497 20.6372L82.8268 20.6758C83.2317 20.695 83.5401 21.042 83.5208 21.4469C83.5015 21.8421 83.1738 22.1505 82.7883 22.1505V22.1409Z" fill="#000C24"/>
<path d="M75.8483 21.6397H75.8386C74.9133 21.6301 73.9783 21.5433 73.0722 21.3891C72.6674 21.3216 72.3975 20.9457 72.465 20.5409C72.5325 20.136 72.9084 19.8661 73.3132 19.9336C74.1518 20.0686 75.0097 20.1457 75.8675 20.1649C76.2724 20.1649 76.6001 20.5023 76.5904 20.9071C76.5904 21.312 76.2531 21.6301 75.8579 21.6301L75.8483 21.6397Z" fill="#000C24"/>
<path d="M33.9288 102.375C33.8806 102.375 33.8325 102.375 33.7746 102.375C31.9914 102.308 30.3528 100.901 29.9672 99.1174L29.8419 98.5487C29.6492 97.6426 29.3985 96.5052 29.1479 95.1944C28.9166 96.2643 28.5985 97.3438 28.184 98.5391C27.6346 100.129 25.2731 100.949 23.7212 100.505C21.1958 99.7825 21.0994 96.7655 21.0512 95.4739C20.8584 89.8544 20.7524 87.0109 20.6367 84.177C20.5211 81.3239 20.4151 78.4804 20.2223 72.8417C20.2126 72.4368 20.5307 72.0995 20.9356 72.0802C21.3404 72.0609 21.6778 72.379 21.697 72.7935C21.8898 78.4322 21.9958 81.2757 22.1115 84.1288C22.2175 86.9723 22.3332 89.8158 22.526 95.4353C22.5838 97.1125 22.8151 98.7222 24.1357 99.0981C25.061 99.368 26.5551 98.7897 26.8057 98.0667C27.9238 94.8088 28.2901 92.4762 28.2901 88.4567C28.2901 88.0615 28.6081 87.7338 29.0033 87.7242C29.3889 87.7049 29.7359 88.0133 29.7552 88.4085C29.9962 92.3509 30.7962 96.0426 31.2781 98.2499L31.4034 98.8186C31.6444 99.9463 32.7143 100.872 33.8325 100.91C34.5939 100.939 35.0952 100.669 35.606 99.1174C36.4253 96.6016 36.4157 94.404 36.3964 90.0182C36.3964 89.3339 36.3964 88.6013 36.3964 87.8013C36.3964 87.3964 36.7241 87.0687 37.129 87.0687C37.5338 87.0687 37.8615 87.3964 37.8615 87.8013C37.8615 93.6618 38.7001 98.1149 40.0881 99.6957C40.84 100.554 42.3051 99.9849 42.7581 99.609C44.0979 98.5198 44.7341 91.6569 44.3775 86.4711C44.3485 86.0856 44.6281 85.7482 45.004 85.7C45.3895 85.6422 45.7365 85.8928 45.8233 86.2687C46.392 88.7845 46.6522 90.8183 46.9221 92.9774C47.1342 94.6546 47.3559 96.3799 47.7318 98.433C47.9921 99.821 48.5222 99.8789 50.315 99.8789H50.4789C51.038 99.4933 52.5513 97.5944 52.6573 96.9197C54.9996 81.1697 52.2043 72.4754 47.9631 59.3182C47.3655 57.4579 46.739 55.5108 46.0932 53.4481C45.9679 53.0626 46.1896 52.6481 46.5751 52.5324C46.9607 52.4071 47.3752 52.6288 47.4908 53.0144C48.1366 55.0771 48.7632 57.0242 49.3608 58.8748C53.6597 72.2344 56.5032 81.054 54.1128 97.1414C53.9489 98.2499 51.6838 101.354 50.6235 101.354H50.3247C48.6668 101.354 46.7872 101.373 46.2956 98.7126C46.0161 97.2282 45.8329 95.9269 45.6594 94.6835C45.351 97.4402 44.7534 99.8982 43.6738 100.775C42.7292 101.537 40.3869 102.298 38.9796 100.689C38.3435 99.956 37.8519 98.9053 37.4856 97.6908C37.3603 98.327 37.2061 98.9439 36.994 99.5897C36.6952 100.505 36.0783 102.404 33.9192 102.404L33.9288 102.375Z" fill="#000C24"/>
<path d="M46.7581 21.8613C46.7581 21.8613 46.7099 21.8613 46.6907 21.8613C46.2858 21.8228 45.987 21.4661 46.0256 21.0613C46.3629 17.3889 46.7099 12.1742 46.9895 7.98126C47.1726 5.24381 47.3172 3.08469 47.4136 2.04368C47.4521 1.63884 47.8088 1.34004 48.2136 1.37859C48.6184 1.41715 48.9172 1.77379 48.8787 2.17863C48.7823 3.19071 48.6377 5.45586 48.4642 8.07765C48.1847 12.2706 47.8377 17.4949 47.4907 21.1962C47.4521 21.5722 47.134 21.8613 46.7581 21.8613Z" fill="#000C24"/>
<path d="M9.05063 72.4272C8.97352 72.4272 8.88677 72.4176 8.80966 72.3887C8.4241 72.2537 8.22168 71.8392 8.35663 71.4537C10.2073 66.0655 12.6652 60.8894 15.6726 56.0603C15.8846 55.7229 16.0967 55.3856 16.3088 55.0482C17.1955 53.6409 18.1112 52.1855 18.8245 50.7493C19.0077 50.383 19.451 50.2384 19.8077 50.4215C20.174 50.6047 20.3185 51.0384 20.1354 51.4047C19.3836 52.9084 18.4486 54.3928 17.5425 55.829C17.3305 56.1663 17.1184 56.5037 16.916 56.8314C13.9665 61.5641 11.5568 66.6439 9.74464 71.9164C9.63861 72.2248 9.35908 72.4079 9.05063 72.4079V72.4272Z" fill="#000C24"/>
<path d="M22.0342 22.9602C21.639 22.9602 21.3113 22.6517 21.3016 22.2565C21.2052 19.6251 21.1088 15.8466 21.0125 12.1935C20.9161 8.54031 20.81 4.76185 20.7233 2.14005C20.7136 1.73522 21.0221 1.39786 21.4269 1.37858C21.851 1.3593 22.1691 1.67739 22.1884 2.08222C22.2848 4.71365 22.3812 8.49211 22.4776 12.1453C22.574 15.7984 22.68 19.5769 22.7667 22.1987C22.7764 22.6035 22.4679 22.9409 22.0631 22.9602H22.0342Z" fill="#000C24"/>
<path d="M21.909 30.9894C21.909 30.9894 21.8126 30.9894 21.7644 30.9798C21.3692 30.9026 21.109 30.5171 21.1861 30.1219C21.2921 29.5628 21.3307 29.0038 21.2921 28.4351C21.2632 28.0302 21.5716 27.6832 21.9765 27.6543C22.391 27.635 22.7283 27.9339 22.7572 28.3387C22.7958 29.0231 22.7572 29.7171 22.6223 30.3918C22.5548 30.7388 22.2464 30.9894 21.8994 30.9894H21.909Z" fill="#000C24"/>
<path d="M21.4174 39.2307H21.3789C20.974 39.2114 20.6656 38.8644 20.6849 38.4596L20.7234 37.5824C20.7427 37.1776 21.0704 36.8692 21.4945 36.8884C21.8994 36.9077 22.2078 37.2547 22.1885 37.6595L22.15 38.5367C22.1307 38.9319 21.803 39.2403 21.4174 39.2403V39.2307Z" fill="#000C24"/>
<path d="M20.7138 47.9635C20.7138 47.9635 20.6367 47.9635 20.5982 47.9539C20.203 47.8864 19.9234 47.5105 19.9909 47.1057C20.1259 46.2671 20.203 45.4092 20.2222 44.5514C20.2222 44.1465 20.5596 43.8284 20.9548 43.8284H20.9644C21.3693 43.8284 21.697 44.1658 21.6874 44.5706C21.6777 45.496 21.591 46.4309 21.4368 47.3466C21.3789 47.7033 21.0705 47.9635 20.7138 47.9635Z" fill="#000C24"/>
<path d="M72.3205 100.168C71.9253 100.168 71.5976 99.8596 71.5879 99.4547C71.5783 99.0499 71.8867 98.7125 72.3012 98.6933C77.9303 98.5005 80.7738 98.3944 83.6173 98.2788C86.4608 98.1631 89.3043 98.0571 94.9431 97.8643C96.6202 97.8065 98.2299 97.5751 98.6059 96.2546C98.8661 95.3293 98.2878 93.8352 97.5745 93.5846C94.3165 92.4665 91.9839 92.1002 87.9645 92.1002C87.5693 92.1002 87.2416 91.7821 87.2319 91.3869C87.2223 90.9917 87.5211 90.6544 87.9163 90.6351C91.8586 90.3941 95.5503 89.5941 97.7576 89.1122L98.3263 88.9868C99.4541 88.7459 100.379 87.676 100.418 86.5578C100.447 85.7771 100.177 85.2951 98.6251 84.7843C96.1094 83.965 93.9117 83.9746 89.526 83.9939C88.8416 83.9939 88.1091 83.9939 87.309 83.9939C86.9042 83.9939 86.5765 83.6662 86.5765 83.2613C86.5765 82.8565 86.9042 82.5288 87.309 82.5288C93.1695 82.5288 97.6227 81.6902 99.2035 80.3022C100.052 79.5503 99.483 78.0852 99.1167 77.6322C98.0275 76.2924 91.1646 75.6562 85.9789 76.0128C85.5933 76.0418 85.2559 75.7622 85.2077 75.3863C85.1499 75.0104 85.4005 74.6537 85.7764 74.567C88.2922 73.9983 90.326 73.7381 92.4755 73.4682C94.1527 73.2561 95.878 73.0344 97.9311 72.6585C99.3191 72.3982 99.3866 71.8681 99.377 70.0753V69.9114C98.9914 69.3523 97.0925 67.839 96.4178 67.733C80.6678 65.3907 71.9735 68.186 58.8163 72.4272C56.956 73.0248 55.009 73.6513 52.9462 74.2971C52.551 74.4224 52.1462 74.2007 52.0305 73.8152C51.9052 73.4296 52.1269 73.0151 52.5125 72.8995C54.5752 72.2537 56.5223 71.6271 58.3729 71.0295C71.7325 66.7305 80.5521 63.8871 96.6395 66.2775C97.748 66.4414 100.852 68.7065 100.852 69.7668V70.0656C100.852 71.7235 100.871 73.6031 98.2107 74.0947C96.7263 74.3742 95.425 74.5574 94.1816 74.7309C96.9383 75.0393 99.3963 75.6369 100.273 76.7165C101.035 77.6611 101.796 80.0034 100.187 81.4106C99.4541 82.0468 98.4035 82.5384 97.1889 82.9047C97.8251 83.03 98.442 83.1842 99.0878 83.3963C100.032 83.7047 101.989 84.3409 101.893 86.6157C101.825 88.3989 100.418 90.0375 98.6348 90.423L98.0661 90.5484C97.16 90.7411 96.0226 90.9917 94.7117 91.2424C95.7817 91.4737 96.8612 91.7918 98.0564 92.2063C99.6469 92.7557 100.466 95.1172 100.023 96.6691C99.2999 99.1945 96.2829 99.2909 94.9913 99.3391C89.3621 99.5318 86.5186 99.6379 83.6751 99.7535C80.8317 99.8692 77.9882 99.9752 72.359 100.168H72.3301H72.3205Z" fill="#000C24"/>
<path d="M20.6268 74.3935C20.6268 74.3935 20.5786 74.3935 20.5593 74.3935C16.8869 74.0561 11.6722 73.7091 7.47931 73.4296C4.74185 73.2465 2.58273 73.1019 1.54173 73.0055C1.13689 72.9669 0.838085 72.6103 0.87664 72.2055C0.915196 71.8006 1.2622 71.5115 1.67667 71.5404C2.68876 71.6368 4.95391 71.7814 7.5757 71.9549C11.7686 72.2344 16.9929 72.5814 20.6943 72.9284C21.0991 72.9669 21.3979 73.3236 21.3594 73.7284C21.3208 74.1043 21.0027 74.3935 20.6268 74.3935Z" fill="#000C24"/>
<path d="M71.2024 112.091C71.1252 112.091 71.0385 112.082 70.9614 112.053C65.5732 110.202 60.3971 107.744 55.568 104.737C55.2306 104.525 54.8933 104.313 54.5559 104.101C53.1486 103.214 51.7028 102.298 50.2666 101.585C49.9003 101.402 49.7557 100.968 49.9389 100.602C50.122 100.236 50.5654 100.091 50.922 100.274C52.4257 101.016 53.9101 101.961 55.3367 102.867C55.674 103.079 56.0114 103.291 56.3488 103.503C61.0815 106.453 66.1516 108.862 71.4337 110.674C71.8192 110.809 72.0217 111.224 71.8867 111.609C71.7807 111.918 71.5012 112.101 71.1927 112.101L71.2024 112.091Z" fill="#000C24"/>
<path d="M1.61878 99.686C1.22358 99.686 0.89586 99.3776 0.886221 98.9824C0.876582 98.5776 1.18503 98.2402 1.58986 98.2209C4.22129 98.1245 7.99976 98.0281 11.6529 97.9317C15.3061 97.8354 19.0845 97.7293 21.7063 97.6426H21.7352C22.1304 97.6426 22.4582 97.951 22.4678 98.3462C22.4774 98.7511 22.169 99.0884 21.7642 99.1077C19.1327 99.2041 15.3543 99.3005 11.7011 99.3969C8.04795 99.4933 4.26949 99.5993 1.6477 99.686H1.61878Z" fill="#000C24"/>
<path d="M29.7645 99.233C29.7645 99.233 29.6681 99.2331 29.6199 99.2234C29.0608 99.1174 28.5018 99.0788 27.9331 99.1174C27.5186 99.1463 27.1812 98.8379 27.1523 98.433C27.1234 98.0282 27.4319 97.6812 27.8367 97.6523C28.5211 97.6041 29.2151 97.6523 29.8898 97.7872C30.285 97.8643 30.5452 98.2499 30.4681 98.6451C30.4007 98.9921 30.0922 99.2427 29.7452 99.2427L29.7645 99.233Z" fill="#000C24"/>
<path d="M37.9961 99.7343H37.9576L37.0804 99.6957C36.6756 99.6764 36.3671 99.3294 36.3864 98.9246C36.4057 98.5198 36.7431 98.2113 37.1575 98.2306L38.0347 98.2691C38.4395 98.2884 38.748 98.6354 38.7287 99.0403C38.7094 99.4355 38.3817 99.7439 37.9961 99.7439V99.7343Z" fill="#000C24"/>
<path d="M46.729 100.428C46.729 100.428 46.6519 100.428 46.6134 100.419C45.7748 100.284 44.9169 100.207 44.059 100.187C43.6542 100.187 43.3265 99.8499 43.3361 99.4451C43.3361 99.0403 43.6735 98.7222 44.0687 98.7222H44.0783C45.0037 98.7318 45.9386 98.8186 46.8447 98.9728C47.2495 99.0403 47.5194 99.4162 47.4519 99.821C47.3941 100.178 47.0857 100.438 46.729 100.438V100.428Z" fill="#000C24"/>
<path d="M82.3354 16.3383C82.2004 16.3383 82.0558 16.2997 81.9305 16.2226L66.4407 6.12099C66.1034 5.89929 66.007 5.44626 66.2287 5.1089C66.4504 4.77154 66.9034 4.67515 67.2408 4.89684L82.7306 14.9984C83.0679 15.2201 83.1643 15.6732 82.9426 16.0105C82.798 16.2226 82.5667 16.3479 82.3257 16.3479L82.3354 16.3383Z" fill="#439FD9"/>
<path d="M91.9937 14.2947C91.8491 14.2947 91.7045 14.2562 91.5792 14.1694L76.9473 4.09675C76.6099 3.86541 76.5328 3.41238 76.7545 3.07502C76.9858 2.73766 77.4389 2.66055 77.7762 2.88224L92.4081 12.9549C92.7455 13.1863 92.8226 13.6393 92.6009 13.9767C92.4563 14.1791 92.225 14.2947 91.9937 14.2947Z" fill="#439FD9"/>
<path d="M51.9533 113.132C51.9533 113.132 51.9051 113.132 51.8858 113.132C44.5313 112.487 37.2443 110.983 30.2368 108.66C29.8512 108.535 29.6392 108.12 29.7741 107.735C29.8994 107.349 30.3139 107.137 30.6995 107.272C37.6009 109.556 44.7723 111.041 52.0111 111.677C52.416 111.715 52.7148 112.072 52.6762 112.477C52.6473 112.863 52.3196 113.152 51.9437 113.152L51.9533 113.132Z" fill="#439FD9"/>
</svg>
