<svg width="603" height="585" viewBox="0 0 603 585" fill="none" xmlns="http://www.w3.org/2000/svg">
<path d="M231.106 290.339H236.12V294.695H231.106V290.339ZM239.129 294.695H244.143V290.339H239.129V294.695ZM238.579 296.972H233.565V301.328H238.579V296.972ZM224.604 298.799H229.618V294.442H224.604V298.799ZM229.618 286.236H224.604V290.592H229.618V286.236ZM233.597 288.063H238.611V283.706H233.597V288.063ZM252.198 290.339H247.184V294.695H252.198V290.339ZM244.111 302.902H249.125V298.546H244.111V302.902ZM241.07 303.633H236.056V307.989H241.07V303.633ZM231.138 303.633H226.124V307.989H231.138V303.633ZM223.116 298.574H218.101V302.93H223.116V298.574ZM220.042 290.367H215.028V294.724H220.042V290.367ZM223.116 282.161H218.101V286.517H223.116V282.161ZM226.124 281.43H231.138V277.074H226.124V281.43ZM241.07 277.074H236.056V281.43H241.07V277.074ZM244.111 286.489H249.125V282.133H244.111V286.489ZM255.207 294.695H260.221V290.339H255.207V294.695ZM253.136 303.211H258.15V298.855H253.136V303.211ZM252.263 305.909H247.249V310.266H252.263V305.909ZM243.593 310.266H238.579V314.622H243.593V310.266ZM233.629 311.165H228.615V315.521H233.629V311.165ZM224.086 308.467H219.072V312.823H224.086V308.467ZM216.646 302.649H211.632V307.005H216.646V302.649ZM212.57 294.695H207.556V299.052H212.57V294.695ZM212.57 285.983H207.556V290.339H212.57V285.983ZM211.632 282.385H216.646V278.029H211.632V282.385ZM224.086 272.211H219.072V276.568H224.086V272.211ZM228.615 273.87H233.629V269.513H228.615V273.87ZM238.579 274.769H243.593V270.413H238.579V274.769ZM247.249 279.125H252.263V274.769H247.249V279.125ZM253.136 286.18H258.15V281.823H253.136V286.18ZM268.243 290.339H263.229V294.695H268.243V290.339ZM261.676 303.324H266.691V298.967H261.676V303.324ZM262.129 306.752H257.115V311.109H262.129V306.752ZM249.998 317.292H255.012V312.936H249.998V317.292ZM246.052 316.898H241.037V321.255H246.052V316.898ZM236.12 318.275H231.106V322.632H236.12V318.275ZM226.189 316.898H221.175V321.255H226.189V316.898ZM217.228 312.936H212.214V317.292H217.228V312.936ZM210.111 306.752H205.097V311.109H210.111V306.752ZM205.55 298.967H200.536V303.324H205.55V298.967ZM203.965 290.339H198.95V294.695H203.965V290.339ZM205.55 281.711H200.536V286.067H205.55V281.711ZM210.111 273.926H205.097V278.282H210.111V273.926ZM217.228 267.743H212.214V272.099H217.228V267.743ZM221.175 268.136H226.189V263.78H221.175V268.136ZM231.106 266.759H236.12V262.403H231.106V266.759ZM241.037 268.136H246.052V263.78H241.037V268.136ZM249.998 272.099H255.012V267.743H249.998V272.099ZM262.129 273.926H257.115V278.282H262.129V273.926ZM261.676 286.067H266.691V281.711H261.676V286.067ZM271.284 294.695H276.299V290.339H271.284V294.695ZM275.037 299.024H270.023V303.38H275.037V299.024ZM271.317 307.146H266.302V311.502H271.317V307.146ZM265.397 314.228H260.383V318.585H265.397V314.228ZM252.619 324.149H257.633V319.793H252.619V324.149ZM248.51 323.531H243.496V327.887H248.51V323.531ZM238.611 325.161H233.597V329.517H238.611V325.161ZM228.55 324.599H223.536V328.955H228.55V324.599ZM218.975 321.901H213.961V326.257H218.975V321.901ZM210.467 317.207H205.453V321.564H210.467V317.207ZM203.576 310.828H198.562V315.184H203.576V310.828ZM193.71 307.511H198.724V303.155H193.71V307.511ZM196.201 294.695H191.187V299.052H196.201V294.695ZM196.201 285.955H191.187V290.311H196.201V285.955ZM193.71 281.823H198.724V277.467H193.71V281.823ZM203.576 269.823H198.562V274.179H203.576V269.823ZM205.453 267.799H210.467V263.443H205.453V267.799ZM213.961 263.105H218.975V258.749H213.961V263.105ZM223.536 260.407H228.55V256.051H223.536V260.407ZM233.597 259.845H238.611V255.489H233.597V259.845ZM243.496 261.475H248.51V257.119H243.496V261.475ZM252.619 265.185H257.633V260.829H252.619V265.185ZM260.383 270.75H265.397V266.394H260.383V270.75ZM266.302 277.832H271.317V273.476H266.302V277.832ZM270.023 285.955H275.037V281.599H270.023V285.955ZM279.307 294.639H284.321V290.283H279.307V294.639ZM283.254 298.995H278.24V303.352H283.254V298.995ZM275.134 311.671H280.148V307.315H275.134V311.671ZM275.134 314.903H270.12V319.259H275.134V314.903ZM268.405 321.395H263.391V325.751H268.405V321.395ZM260.253 326.538H255.239V330.895H260.253V326.538ZM251.033 330.108H246.019V334.464H251.033V330.108ZM241.167 331.934H236.153V336.291H241.167V331.934ZM231.106 331.934H226.092V336.291H231.106V331.934ZM216.258 334.464H221.272V330.108H216.258V334.464ZM212.052 326.566H207.038V330.923H212.052V326.566ZM203.9 321.423H198.886V325.78H203.9V321.423ZM197.171 314.931H192.157V319.287H197.171V314.931ZM187.143 311.699H192.157V307.343H187.143V311.699ZM189.051 299.024H184.037V303.38H189.051V299.024ZM187.984 290.311H182.97V294.667H187.984V290.311ZM189.051 281.599H184.037V285.955H189.051V281.599ZM192.157 273.279H187.143V277.636H192.157V273.279ZM192.157 270.047H197.171V265.691H192.157V270.047ZM198.886 263.555H203.9V259.199H198.886V263.555ZM207.038 258.412H212.052V254.056H207.038V258.412ZM216.258 254.843H221.272V250.486H216.258V254.843ZM226.124 253.016H231.138V248.66H226.124V253.016ZM236.185 253.016H241.199V248.66H236.185V253.016ZM246.052 254.843H251.066V250.486H246.052V254.843ZM255.239 258.412H260.253V254.056H255.239V258.412ZM263.391 263.555H268.405V259.199H263.391V263.555ZM270.12 270.047H275.134V265.691H270.12V270.047ZM275.166 277.636H280.181V273.279H275.166V277.636ZM278.272 285.955H283.286V281.599H278.272V285.955ZM287.362 294.667H292.376V290.311H287.362V294.667ZM291.471 299.052H286.456V303.408H291.471V299.052ZM288.786 307.483H283.771V311.839H288.786V307.483ZM284.418 315.381H279.404V319.737H284.418V315.381ZM278.498 322.463H273.484V326.819H278.498V322.463ZM271.22 328.506H266.205V332.862H271.22V328.506ZM262.809 333.34H257.795V337.696H262.809V333.34ZM253.557 336.769H248.543V341.125H253.557V336.769ZM243.722 338.708H238.708V343.064H243.722V338.708ZM233.662 339.101H228.647V343.458H233.662V339.101ZM223.666 337.921H218.651V342.277H223.666V337.921ZM209.076 339.579H214.09V335.223H209.076V339.579ZM205.194 331.091H200.18V335.448H205.194V331.091ZM197.301 325.639H192.286V329.995H197.301V325.639ZM190.669 319.034H185.655V323.391H190.669V319.034ZM185.493 311.53H180.479V315.887H185.493V311.53ZM181.967 303.324H176.953V307.68H181.967V303.324ZM180.155 294.695H175.141V299.052H180.155V294.695ZM180.155 285.927H175.141V290.283H180.155V285.927ZM181.967 277.298H176.953V281.655H181.967V277.298ZM185.493 269.092H180.479V273.448H185.493V269.092ZM190.669 261.588H185.655V265.944H190.669V261.588ZM192.286 259.339H197.301V254.983H192.286V259.339ZM200.18 253.887H205.194V249.531H200.18V253.887ZM209.044 249.727H214.058V245.371H209.044V249.727ZM218.619 247.029H223.633V242.673H218.619V247.029ZM228.615 245.849H233.629V241.493H228.615V245.849ZM238.676 246.242H243.69V241.886H238.676V246.242ZM248.51 248.182H253.524V243.825H248.51V248.182ZM257.795 251.611H262.809V247.254H257.795V251.611ZM266.205 256.445H271.22V252.088H266.205V256.445ZM273.484 262.487H278.498V258.131H273.484V262.487ZM279.404 269.57H284.418V265.213H279.404V269.57ZM283.771 277.467H288.786V273.111H283.771V277.467ZM286.456 285.899H291.471V281.542H286.456V285.899ZM300.399 290.283H295.385V294.639H300.399V290.283ZM299.623 299.024H294.608V303.38H299.623V299.024ZM297.261 307.539H292.247V311.896H297.261V307.539ZM293.412 315.634H288.397V319.99H293.412V315.634ZM288.139 323.11H283.124V327.466H288.139V323.11ZM281.604 329.77H276.59V334.127H281.604V329.77ZM273.937 335.448H268.923V339.804H273.937V335.448ZM265.332 340.029H260.318V344.385H265.332V340.029ZM256.015 343.373H251.001V347.729H256.015V343.373ZM246.213 345.425H241.199V349.781H246.213V345.425ZM236.153 346.099H231.138V350.456H236.153V346.099ZM226.092 345.425H221.078V349.781H226.092V345.425ZM216.29 343.373H211.276V347.729H216.29V343.373ZM206.973 340.029H201.959V344.385H206.973V340.029ZM198.368 335.448H193.354V339.804H198.368V335.448ZM190.701 329.77H185.687V334.127H190.701V329.77ZM179.152 327.466H184.167V323.11H179.152V327.466ZM178.894 315.634H173.879V319.99H178.894V315.634ZM175.044 307.539H170.03V311.896H175.044V307.539ZM172.683 299.024H167.668V303.38H172.683V299.024ZM171.906 290.283H166.892V294.639H171.906V290.283ZM167.701 285.899H172.715V281.542H167.701V285.899ZM175.076 273.027H170.062V277.383H175.076V273.027ZM178.926 264.932H173.912V269.289H178.926V264.932ZM184.199 257.456H179.185V261.813H184.199V257.456ZM185.752 255.152H190.766V250.796H185.752V255.152ZM193.419 249.475H198.433V245.118H193.419V249.475ZM202.024 244.893H207.038V240.537H202.024V244.893ZM211.34 241.549H216.355V237.193H211.34V241.549ZM221.142 239.497H226.157V235.141H221.142V239.497ZM231.203 238.823H236.217V234.467H231.203V238.823ZM241.264 239.497H246.278V235.141H241.264V239.497ZM251.066 241.549H256.08V237.193H251.066V241.549ZM260.383 244.893H265.397V240.537H260.383V244.893ZM268.988 249.475H274.002V245.118H268.988V249.475ZM276.654 255.152H281.669V250.796H276.654V255.152ZM283.189 261.813H288.203V257.456H283.189V261.813ZM288.462 269.289H293.476V264.932H288.462V269.289ZM292.312 277.383H297.326V273.027H292.312V277.383ZM294.673 285.899H299.687V281.542H294.673V285.899ZM303.505 294.639H308.519V290.283H303.505V294.639ZM307.807 299.024H302.793V303.38H307.807V299.024ZM300.69 311.952H305.704V307.596H300.69V311.952ZM302.243 315.83H297.229V320.187H302.243V315.83ZM297.52 323.559H292.506V327.915H297.52V323.559ZM291.6 330.642H286.586V334.998H291.6V330.642ZM284.58 336.937H279.566V341.293H284.58V336.937ZM276.622 342.333H271.608V346.69H276.622V342.333ZM267.888 346.718H262.873V351.074H267.888V346.718ZM258.539 350.006H253.524V354.362H258.539V350.006ZM248.769 352.114H243.755V356.47H248.769V352.114ZM238.741 353.041H233.726V357.398H238.741V353.041ZM228.647 352.732H223.633V357.088H228.647V352.732ZM218.716 351.214H213.702V355.571H218.716V351.214ZM209.141 348.516H204.126V352.873H209.141V348.516ZM200.083 344.666H195.069V349.022H200.083V344.666ZM191.737 339.776H186.722V344.132H191.737V339.776ZM184.231 333.902H179.217V338.258H184.231V333.902ZM172.747 331.541H177.761V327.185H172.747V331.541ZM172.424 319.765H167.41V324.121H172.424V319.765ZM168.315 311.755H163.301V316.111H168.315V311.755ZM165.533 303.324H160.519V307.68H165.533V303.324ZM164.142 294.639H159.128V298.995H164.142V294.639ZM159.128 290.227H164.142V285.87H159.128V290.227ZM165.533 277.186H160.519V281.542H165.533V277.186ZM168.315 268.755H163.301V273.111H168.315V268.755ZM172.424 260.745H167.41V265.101H172.424V260.745ZM177.761 253.325H172.747V257.681H177.761V253.325ZM184.231 246.608H179.217V250.964H184.231V246.608ZM186.722 245.09H191.737V240.734H186.722V245.09ZM195.069 240.2H200.083V235.844H195.069V240.2ZM204.126 236.35H209.141V231.993H204.126V236.35ZM213.702 233.651H218.716V229.295H213.702V233.651ZM223.633 232.134H228.647V227.778H223.633V232.134ZM233.726 231.825H238.741V227.468H233.726V231.825ZM243.755 232.752H248.769V228.396H243.755V232.752ZM253.524 234.86H258.539V230.504H253.524V234.86ZM262.873 238.148H267.888V233.792H262.873V238.148ZM271.608 242.533H276.622V238.176H271.608V242.533ZM279.566 247.929H284.58V243.573H279.566V247.929ZM286.586 254.224H291.6V249.868H286.586V254.224ZM292.506 261.307H297.52V256.95H292.506V261.307ZM297.229 269.036H302.243V264.679H297.229V269.036ZM300.69 277.27H305.704V272.914H300.69V277.27ZM302.793 285.842H307.807V281.486H302.793V285.842ZM316.542 290.227H311.527V294.583H316.542V290.227ZM310.913 303.324H315.927V298.967H310.913V303.324ZM309.036 311.924H314.051V307.568H309.036V311.924ZM305.931 320.271H310.945V315.915H305.931V320.271ZM306.643 323.84H301.628V328.197H306.643V323.84ZM301.24 331.232H296.226V335.588H301.24V331.232ZM294.803 337.977H289.788V342.333H294.803V337.977ZM287.459 343.963H282.445V348.32H287.459V343.963ZM279.307 349.107H274.293V353.463H279.307V349.107ZM270.476 353.322H265.461V357.679H270.476V353.322ZM261.094 356.554H256.08V360.911H261.094V356.554ZM251.325 358.747H246.31V363.103H251.325V358.747ZM241.329 359.843H236.314V364.199H241.329V359.843ZM231.235 359.843H226.221V364.199H231.235V359.843ZM221.239 358.747H216.225V363.103H221.239V358.747ZM211.47 356.554H206.456V360.911H211.47V356.554ZM202.088 353.322H197.074V357.679H202.088V353.322ZM193.257 349.107H188.243V353.463H193.257V349.107ZM185.105 343.963H180.091V348.32H185.105V343.963ZM177.761 337.977H172.747V342.333H177.761V337.977ZM166.31 335.588H171.324V331.232H166.31V335.588ZM165.921 323.84H160.907V328.197H165.921V323.84ZM161.619 315.915H156.605V320.271H161.619V315.915ZM158.513 307.568H153.499V311.924H158.513V307.568ZM156.637 298.967H151.623V303.324H156.637V298.967ZM155.99 290.227H150.976V294.583H155.99V290.227ZM156.637 281.486H151.623V285.842H156.637V281.486ZM158.513 272.886H153.499V277.242H158.513V272.886ZM161.619 264.539H156.605V268.895H161.619V264.539ZM165.921 256.613H160.907V260.969H165.921V256.613ZM171.324 249.222H166.31V253.578H171.324V249.222ZM177.761 242.476H172.747V246.833H177.761V242.476ZM180.091 240.818H185.105V236.462H180.091V240.818ZM188.243 235.675H193.257V231.319H188.243V235.675ZM197.074 231.459H202.088V227.103H197.074V231.459ZM206.456 228.227H211.47V223.871H206.456V228.227ZM216.225 226.035H221.239V221.679H216.225V226.035ZM226.221 224.939H231.235V220.583H226.221V224.939ZM236.314 224.939H241.329V220.583H236.314V224.939ZM246.31 226.035H251.325V221.679H246.31V226.035ZM256.08 228.227H261.094V223.871H256.08V228.227ZM265.461 231.459H270.476V227.103H265.461V231.459ZM274.293 235.675H279.307V231.319H274.293V235.675ZM282.445 240.818H287.459V236.462H282.445V240.818ZM289.788 246.805H294.803V242.448H289.788V246.805ZM296.226 253.55H301.24V249.194H296.226V253.55ZM301.628 260.941H306.643V256.585H301.628V260.941ZM305.931 268.867H310.945V264.511H305.931V268.867ZM309.036 277.214H314.051V272.858H309.036V277.214ZM310.913 285.814H315.927V281.458H310.913V285.814ZM324.597 290.199H319.582V294.555H324.597V290.199ZM324.014 298.939H319V303.296H324.014V298.939ZM322.3 307.568H317.286V311.924H322.3V307.568ZM319.453 315.971H314.439V320.327H319.453V315.971ZM315.539 324.037H310.525V328.393H315.539V324.037ZM310.589 331.682H305.575V336.038H310.589V331.682ZM304.669 338.764H299.655V343.12H304.669V338.764ZM297.843 345.228H292.829V349.584H297.843V345.228ZM290.209 350.962H285.195V355.318H290.209V350.962ZM281.895 355.908H276.881V360.264H281.895V355.908ZM272.967 360.011H267.952V364.368H272.967V360.011ZM263.553 363.187H258.539V367.543H263.553V363.187ZM253.783 365.407H248.769V369.764H253.783V365.407ZM243.787 366.644H238.773V371H243.787V366.644ZM233.694 366.897H228.68V371.253H233.694V366.897ZM223.633 366.138H218.619V370.494H223.633V366.138ZM213.734 364.396H208.72V368.752H213.734V364.396ZM204.126 361.698H199.112V366.054H204.126V361.698ZM194.939 358.044H189.925V362.4H194.939V358.044ZM186.302 353.519H181.288V357.875H186.302V353.519ZM178.311 348.179H173.297V352.535H178.311V348.179ZM171.065 342.08H166.051V346.437H171.065V342.08ZM159.678 339.635H164.692V335.279H159.678V339.635ZM159.225 327.915H154.211V332.272H159.225V327.915ZM154.761 320.046H149.747V324.402H154.761V320.046ZM151.364 311.783H146.35V316.139H151.364V311.783ZM149.067 303.239H144.053V307.596H149.067V303.239ZM147.903 294.527H142.889V298.883H147.903V294.527ZM142.889 290.114H147.903V285.758H142.889V290.114ZM149.035 277.046H144.021V281.402H149.035V277.046ZM151.332 268.502H146.318V272.858H151.332V268.502ZM154.728 260.239H149.714V264.595H154.728V260.239ZM159.193 252.369H154.179V256.726H159.193V252.369ZM164.66 245.006H159.646V249.362H164.66V245.006ZM171.033 238.233H166.019V242.589H171.033V238.233ZM173.265 236.462H178.279V232.106H173.265V236.462ZM181.255 231.122H186.269V226.766H181.255V231.122ZM189.893 226.597H194.907V222.241H189.893V226.597ZM199.08 222.943H204.094V218.587H199.08V222.943ZM208.688 220.245H213.702V215.889H208.688V220.245ZM218.587 218.503H223.601V214.147H218.587V218.503ZM228.647 217.744H233.662V213.388H228.647V217.744ZM238.741 217.997H243.755V213.641H238.741V217.997ZM248.737 219.234H253.751V214.877H248.737V219.234ZM258.506 221.454H263.52V217.098H258.506V221.454ZM267.92 224.63H272.934V220.274H267.92V224.63ZM276.849 228.733H281.863V224.377H276.849V228.733ZM285.162 233.68H290.177V229.323H285.162V233.68ZM292.797 239.413H297.811V235.057H292.797V239.413ZM299.623 245.877H304.637V241.521H299.623V245.877ZM305.543 252.96H310.557V248.603H305.543V252.96ZM310.492 260.604H315.506V256.248H310.492V260.604ZM314.406 268.67H319.421V264.314H314.406V268.67ZM317.253 277.074H322.267V272.717H317.253V277.074ZM318.968 285.702H323.982V281.346H318.968V285.702ZM332.587 290.114H327.573V294.471H332.587V290.114ZM332.069 298.855H327.055V303.211H332.069V298.855ZM330.484 307.511H325.47V311.868H330.484V307.511ZM327.864 315.971H322.85V320.327H327.864V315.971ZM324.241 324.149H319.227V328.506H324.241V324.149ZM319.647 331.963H314.633V336.319H319.647V331.963ZM314.148 339.326H309.133V343.682H314.148V339.326ZM307.807 346.127H302.793V350.484H307.807V346.127ZM300.658 352.339H295.644V356.695H300.658V352.339ZM292.829 357.847H287.815V362.204H292.829V357.847ZM284.354 362.625H279.339V366.981H284.354V362.625ZM275.36 366.616H270.346V370.972H275.36V366.616ZM265.947 369.764H260.932V374.12H265.947V369.764ZM256.209 372.04H251.195V376.397H256.209V372.04ZM246.246 373.417H241.232V377.774H246.246V373.417ZM236.185 373.867H231.171V378.223H236.185V373.867ZM226.124 373.417H221.11V377.774H226.124V373.417ZM216.161 372.04H211.146V376.397H216.161V372.04ZM206.423 369.764H201.409V374.12H206.423V369.764ZM197.01 366.616H191.995V370.972H197.01V366.616ZM188.016 362.625H183.002V366.981H188.016V362.625ZM179.541 357.847H174.526V362.204H179.541V357.847ZM171.712 352.339H166.698V356.695H171.712V352.339ZM164.563 346.127H159.549V350.484H164.563V346.127ZM153.208 343.654H158.222V339.298H153.208V343.654ZM152.723 331.963H147.709V336.319H152.723V331.963ZM148.129 324.149H143.115V328.506H148.129V324.149ZM144.506 315.971H139.492V320.327H144.506V315.971ZM141.886 307.511H136.871V311.868H141.886V307.511ZM140.301 298.855H135.286V303.211H140.301V298.855ZM139.783 290.114H134.769V294.471H139.783V290.114ZM140.301 281.374H135.286V285.73H140.301V281.374ZM141.886 272.717H136.871V277.074H141.886V272.717ZM144.506 264.258H139.492V268.614H144.506V264.258ZM148.129 256.079H143.115V260.435H148.129V256.079ZM152.723 248.266H147.709V252.622H152.723V248.266ZM158.222 240.903H153.208V245.259H158.222V240.903ZM164.563 234.101H159.549V238.457H164.563V234.101ZM166.698 232.246H171.712V227.89H166.698V232.246ZM179.541 222.381H174.526V226.738H179.541V222.381ZM183.002 221.96H188.016V217.604H183.002V221.96ZM191.995 217.969H197.01V213.613H191.995V217.969ZM201.409 214.821H206.423V210.465H201.409V214.821ZM211.146 212.545H216.161V208.188H211.146V212.545ZM221.11 211.168H226.124V206.811H221.11V211.168ZM231.171 210.718H236.185V206.362H231.171V210.718ZM241.232 211.168H246.246V206.811H241.232V211.168ZM251.195 212.545H256.209V208.188H251.195V212.545ZM260.932 214.821H265.947V210.465H260.932V214.821ZM270.346 217.969H275.36V213.613H270.346V217.969ZM279.339 221.96H284.354V217.604H279.339V221.96ZM287.815 226.738H292.829V222.381H287.815V226.738ZM295.644 232.246H300.658V227.89H295.644V232.246ZM302.793 238.457H307.807V234.101H302.793V238.457ZM309.133 245.259H314.148V240.903H309.133V245.259ZM314.633 252.622H319.647V248.266H314.633V252.622ZM319.227 260.435H324.241V256.079H319.227V260.435ZM322.85 268.614H327.864V264.258H322.85V268.614ZM325.47 277.074H330.484V272.717H325.47V277.074ZM332.069 281.374H327.055V285.73H332.069V281.374ZM340.642 290.114H335.628V294.471H340.642V290.114ZM335.143 303.211H340.157V298.855H335.143V303.211ZM338.701 307.539H333.687V311.896H338.701V307.539ZM336.275 316.055H331.261V320.411H336.275V316.055ZM332.91 324.318H327.896V328.674H332.91V324.318ZM328.673 332.272H323.658V336.628H328.673V332.272ZM323.561 339.832H318.547V344.188H323.561V339.832ZM317.641 346.914H312.627V351.271H317.641V346.914ZM310.945 353.463H305.931V357.819H310.945V353.463ZM303.569 359.421H298.555V363.777H303.569V359.421ZM295.547 364.733H290.532V369.089H295.547V364.733ZM286.974 369.37H281.96V373.727H286.974V369.37ZM277.916 373.249H272.902V377.605H277.916V373.249ZM268.47 376.368H263.456V380.725H268.47V376.368ZM258.733 378.673H253.718V383.029H258.733V378.673ZM248.801 380.163H243.787V384.519H248.801V380.163ZM238.741 380.809H233.726V385.165H238.741V380.809ZM228.647 380.584H223.633V384.94H228.647V380.584ZM218.619 379.516H213.605V383.872H218.619V379.516ZM208.785 377.633H203.771V381.989H208.785V377.633ZM199.177 374.935H194.163V379.291H199.177V374.935ZM189.925 371.422H184.911V375.778H189.925V371.422ZM181.093 367.15H176.079V371.506H181.093V367.15ZM172.78 362.175H167.765V366.532H172.78V362.175ZM165.08 356.526H160.066V360.883H165.08V356.526ZM158.028 350.259H153.014V354.615H158.028V350.259ZM146.706 347.786H151.72V343.429H146.706V347.786ZM146.188 336.094H141.174V340.45H146.188V336.094ZM141.497 328.337H136.483V332.693H141.497V328.337ZM137.68 320.215H132.666V324.571H137.68V320.215ZM134.801 311.811H129.787V316.168H134.801V311.811ZM132.86 303.211H127.846V307.568H132.86V303.211ZM131.89 294.499H126.875V298.855H131.89V294.499ZM126.875 290.086H131.89V285.73H126.875V290.086ZM132.86 277.017H127.846V281.374H132.86V277.017ZM134.801 268.417H129.787V272.774H134.801V268.417ZM137.68 260.014H132.666V264.37H137.68V260.014ZM136.483 256.248H141.497V251.892H136.483V256.248ZM146.188 244.135H141.174V248.491H146.188V244.135ZM151.72 236.799H146.706V241.156H151.72V236.799ZM158.028 229.97H153.014V234.326H158.028V229.97ZM160.066 228.059H165.08V223.702H160.066V228.059ZM172.78 218.053H167.765V222.409H172.78V218.053ZM176.079 217.435H181.093V213.079H176.079V217.435ZM184.911 213.163H189.925V208.807H184.911V213.163ZM194.163 209.65H199.177V205.294H194.163V209.65ZM203.771 206.952H208.785V202.596H203.771V206.952ZM213.637 205.069H218.651V200.712H213.637V205.069ZM223.666 204.001H228.68V199.644H223.666V204.001ZM233.759 203.776H238.773V199.42H233.759V203.776ZM243.819 204.422H248.834V200.066H243.819V204.422ZM253.751 205.912H258.765V201.556H253.751V205.912ZM263.488 208.217H268.502V203.86H263.488V208.217ZM272.934 211.336H277.948V206.98H272.934V211.336ZM281.992 215.215H287.006V210.858H281.992V215.215ZM290.565 219.852H295.579V215.496H290.565V219.852ZM298.587 225.164H303.602V220.808H298.587V225.164ZM305.963 231.122H310.977V226.766H305.963V231.122ZM312.66 237.67H317.674V233.314H312.66V237.67ZM318.58 244.753H323.594V240.397H318.58V244.753ZM323.691 252.313H328.705V247.957H323.691V252.313ZM327.929 260.267H332.943V255.911H327.929V260.267ZM331.293 268.53H336.307V264.173H331.293V268.53ZM333.719 277.046H338.733V272.689H333.719V277.046ZM340.189 281.374H335.175V285.73H340.189V281.374ZM348.697 290.142H343.683V294.499H348.697V290.142ZM348.244 298.911H343.23V303.267H348.244V298.911ZM346.886 307.596H341.871V311.952H346.886V307.596ZM344.653 316.139H339.639V320.496H344.653V316.139ZM341.548 324.487H336.534V328.843H341.548V324.487ZM337.569 332.553H332.555V336.909H337.569V332.553ZM332.781 340.282H327.767V344.638H332.781V340.282ZM327.217 347.589H322.203V351.945H327.217V347.589ZM320.941 354.447H315.927V358.803H320.941V354.447ZM313.954 360.77H308.939V365.126H313.954V360.77ZM306.351 366.532H301.337V370.888H306.351V366.532ZM298.199 371.675H293.185V376.031H298.199V371.675ZM289.53 376.172H284.515V380.528H289.53V376.172ZM280.439 379.966H275.425V384.322H280.439V379.966ZM270.993 383.057H265.979V387.414H270.993V383.057ZM261.256 385.39H256.242V389.746H261.256V385.39ZM251.325 386.964H246.31V391.32H251.325V386.964ZM241.264 387.751H236.25V392.107H241.264V387.751ZM231.171 387.751H226.157V392.107H231.171V387.751ZM221.11 386.964H216.096V391.32H221.11V386.964ZM211.179 385.39H206.164V389.746H211.179V385.39ZM201.441 383.057H196.427V387.414H201.441V383.057ZM191.995 379.966H186.981V384.322H191.995V379.966ZM182.905 376.172H177.891V380.528H182.905V376.172ZM174.235 371.675H169.221V376.031H174.235V371.675ZM166.083 366.532H161.069V370.888H166.083V366.532ZM158.481 360.77H153.467V365.126H158.481V360.77ZM151.494 354.447H146.479V358.803H151.494V354.447ZM140.203 351.945H145.218V347.589H140.203V351.945ZM139.654 340.282H134.639V344.638H139.654V340.282ZM134.866 332.553H129.852V336.909H134.866V332.553ZM130.887 324.487H125.873V328.843H130.887V324.487ZM127.781 316.139H122.767V320.496H127.781V316.139ZM125.549 307.596H120.535V311.952H125.549V307.596ZM124.19 298.911H119.176V303.267H124.19V298.911ZM118.723 294.499H123.737V290.142H118.723V294.499ZM124.19 281.402H119.176V285.758H124.19V281.402ZM125.549 272.717H120.535V277.074H125.549V272.717ZM127.781 264.173H122.767V268.53H127.781V264.173ZM125.905 260.183H130.919V255.826H125.905V260.183ZM134.866 247.76H129.852V252.116H134.866V247.76ZM134.639 244.388H139.654V240.031H134.639V244.388ZM145.218 232.724H140.203V237.08H145.218V232.724ZM146.512 230.223H151.526V225.866H146.512V230.223ZM153.499 219.543V223.899H158.513V219.543H153.499ZM166.116 213.781H161.101V218.138H166.116V213.781ZM169.286 212.966H174.3V208.61H169.286V212.966ZM177.956 208.469H182.97V204.113H177.956V208.469ZM187.046 204.675H192.06V200.319H187.046V204.675ZM196.492 201.584H201.506V197.227H196.492V201.584ZM206.229 199.251H211.243V194.895H206.229V199.251ZM216.161 197.677H221.175V193.321H216.161V197.677ZM226.221 196.89H231.235V192.534H226.221V196.89ZM236.314 196.89H241.329V192.534H236.314V196.89ZM246.375 197.677H251.389V193.321H246.375V197.677ZM256.306 199.251H261.321V194.895H256.306V199.251ZM266.044 201.584H271.058V197.227H266.044V201.584ZM275.49 204.675H280.504V200.319H275.49V204.675ZM284.58 208.469H289.594V204.113H284.58V208.469ZM293.25 212.966H298.264V208.61H293.25V212.966ZM301.402 218.109H306.416V213.753H301.402V218.109ZM309.004 223.871H314.018V219.515H309.004V223.871ZM315.992 230.195H321.006V225.838H315.992V230.195ZM322.267 237.052H327.282V232.696H322.267V237.052ZM327.832 244.359H332.846V240.003H327.832V244.359ZM332.619 252.088H337.634V247.732H332.619V252.088ZM336.598 260.154H341.613V255.798H336.598V260.154ZM344.718 264.145H339.704V268.502H344.718V264.145ZM346.95 272.689H341.936V277.046H346.95V272.689ZM343.295 285.73H348.309V281.374H343.295V285.73ZM356.785 290.142H351.77V294.499H356.785V290.142ZM356.364 298.911H351.35V303.267H356.364V298.911ZM355.102 307.596H350.088V311.952H355.102V307.596ZM353 316.168H347.985V320.524H353V316.168ZM350.088 324.571H345.074V328.927H350.088V324.571ZM346.368 332.721H341.354V337.078H346.368V332.721ZM341.871 340.563H336.857V344.919H341.871V340.563ZM336.631 348.067H331.616V352.423H336.631V348.067ZM330.711 355.149H325.697V359.505H330.711V355.149ZM324.111 361.782H319.097V366.138H324.111V361.782ZM316.897 367.909H311.883V372.265H316.897V367.909ZM309.133 373.502H304.119V377.858H309.133V373.502ZM300.852 378.504H295.838V382.861H300.852V378.504ZM292.118 382.889H287.103V387.245H292.118V382.889ZM282.995 386.627H277.981V390.983H282.995V386.627ZM273.549 389.69H268.535V394.046H273.549V389.69ZM263.844 392.051H258.83V396.407H263.844V392.051ZM253.945 393.681H248.931V398.037H253.945V393.681ZM243.917 394.609H238.902V398.965H243.917V394.609ZM233.823 394.805H228.809V399.161H233.823V394.805ZM223.763 394.243H218.748V398.599H223.763V394.243ZM213.767 392.95H208.752V397.307H213.767V392.95ZM203.932 390.955H198.918V395.311H203.932V390.955ZM194.324 388.257H189.31V392.613H194.324V388.257ZM185.008 384.856H179.994V389.212H185.008V384.856ZM176.079 380.809H171.065V385.165H176.079V380.809ZM167.571 376.115H162.557V380.472H167.571V376.115ZM159.549 370.804H154.534V375.16H159.549V370.804ZM152.043 364.93H147.029V369.286H152.043V364.93ZM145.121 358.55H140.106V362.906H145.121V358.55ZM133.831 356.02H138.845V351.664H133.831V356.02ZM133.248 344.357H128.234V348.713H133.248V344.357ZM128.396 336.684H123.382V341.04H128.396V336.684ZM124.287 328.674H119.273V333.031H124.287V328.674ZM120.955 320.383H115.941V324.74H120.955V320.383ZM118.432 311.896H113.418V316.252H118.432V311.896ZM116.75 303.239H111.736V307.596H116.75V303.239ZM115.909 294.499H110.895V298.855H115.909V294.499ZM110.895 290.086H115.909V285.73H110.895V290.086ZM111.736 281.346H116.75V276.989H111.736V281.346ZM113.418 272.689H118.432V268.333H113.418V272.689ZM115.941 264.202H120.955V259.845H115.941V264.202ZM119.273 255.911H124.287V251.554H119.273V255.911ZM128.396 243.544H123.382V247.901H128.396V243.544ZM133.248 235.872H128.234V240.228H133.248V235.872ZM133.831 232.921H138.845V228.564H133.831V232.921ZM140.106 226.063H145.121V221.707H140.106V226.063ZM147.029 219.683H152.043V215.327H147.029V219.683ZM159.549 209.453H154.534V213.809H159.549V209.453ZM167.571 204.141H162.557V208.498H167.571V204.141ZM171.097 203.804H176.112V199.448H171.097V203.804ZM180.026 199.729H185.04V195.373H180.026V199.729ZM189.343 196.328H194.357V191.972H189.343V196.328ZM198.95 193.63H203.965V189.274H198.95V193.63ZM208.785 191.635H213.799V187.278H208.785V191.635ZM218.781 190.342H223.795V185.985H218.781V190.342ZM228.842 189.78H233.856V185.423H228.842V189.78ZM238.935 189.976H243.949V185.62H238.935V189.976ZM248.963 190.904H253.977V186.548H248.963V190.904ZM258.862 192.534H263.876V188.178H258.862V192.534ZM268.567 194.895H273.581V190.538H268.567V194.895ZM283.027 193.602H278.013V197.958H283.027V193.602ZM292.15 197.34H287.136V201.696H292.15V197.34ZM300.884 201.724H295.87V206.081H300.884V201.724ZM309.166 206.727H304.152V211.083H309.166V206.727ZM311.916 216.676H316.93V212.32H311.916V216.676ZM319.13 222.803H324.144V218.447H319.13V222.803ZM325.729 229.436H330.743V225.079H325.729V229.436ZM331.649 236.518H336.663V232.162H331.649V236.518ZM336.889 244.022H341.904V239.666H336.889V244.022ZM341.386 251.863H346.4V247.507H341.386V251.863ZM345.106 260.014H350.121V255.658H345.106V260.014ZM348.018 268.417H353.032V264.061H348.018V268.417ZM350.121 276.989H355.135V272.633H350.121V276.989ZM351.382 285.674H356.396V281.317H351.382V285.674ZM364.84 290.086H359.825V294.442H364.84V290.086ZM364.451 298.855H359.437V303.211H364.451V298.855ZM358.273 311.924H363.287V307.568H358.273V311.924ZM361.314 316.168H356.299V320.524H361.314V316.168ZM358.564 324.599H353.55V328.955H358.564V324.599ZM355.07 332.834H350.056V337.19H355.07V332.834ZM350.832 340.788H345.818V345.144H350.832V340.788ZM345.915 348.432H340.901V352.788H345.915V348.432ZM340.319 355.711H335.304V360.068H340.319V355.711ZM334.075 362.597H329.061V366.953H334.075V362.597ZM327.217 369.033H322.203V373.389H327.217V369.033ZM319.809 374.991H314.795V379.348H319.809V374.991ZM311.883 380.416H306.869V384.772H311.883V380.416ZM303.505 385.278H298.49V389.634H303.505V385.278ZM294.706 389.55H289.691V393.906H294.706V389.55ZM285.551 393.231H280.536V397.588H285.551V393.231ZM276.072 396.267H271.058V400.623H276.072V396.267ZM266.367 398.656H261.353V403.012H266.367V398.656ZM256.468 400.37H251.454V404.726H256.468V400.37ZM246.44 401.41H241.426V405.766H246.44V401.41ZM236.347 401.747H231.333V406.103H236.347V401.747ZM226.254 401.41H221.239V405.766H226.254V401.41ZM216.225 400.37H211.211V404.726H216.225V400.37ZM206.326 398.656H201.312V403.012H206.326V398.656ZM196.621 396.267H191.607V400.623H196.621V396.267ZM187.143 393.231H182.129V397.588H187.143V393.231ZM177.988 389.55H172.974V393.906H177.988V389.55ZM169.189 385.278H164.175V389.634H169.189V385.278ZM160.81 380.416H155.796V384.772H160.81V380.416ZM152.885 374.991H147.87V379.348H152.885V374.991ZM145.476 369.033H140.462V373.389H145.476V369.033ZM138.618 362.597H133.604V366.953H138.618V362.597ZM132.375 355.711H127.361V360.068H132.375V355.711ZM126.778 348.432H121.764V352.788H126.778V348.432ZM121.861 340.788H116.847V345.144H121.861V340.788ZM117.623 332.834H112.609V337.19H117.623V332.834ZM114.13 324.599H109.115V328.955H114.13V324.599ZM111.38 316.168H106.366V320.524H111.38V316.168ZM109.407 307.568H104.392V311.924H109.407V307.568ZM108.21 298.855H103.195V303.211H108.21V298.855ZM102.807 294.442H107.821V290.086H102.807V294.442ZM103.195 285.674H108.21V281.317H103.195V285.674ZM104.392 276.961H109.407V272.605H104.392V276.961ZM106.366 268.361H111.38V264.005H106.366V268.361ZM109.115 259.93H114.13V255.573H109.115V259.93ZM112.609 251.695H117.623V247.339H112.609V251.695ZM116.847 243.741H121.861V239.385H116.847V243.741ZM126.778 231.74H121.764V236.097H126.778V231.74ZM132.375 224.461H127.361V228.817H132.375V224.461ZM133.604 221.932H138.618V217.575H133.604V221.932ZM140.462 215.496H145.476V211.139H140.462V215.496ZM152.885 205.181H147.87V209.537H152.885V205.181ZM160.81 199.757H155.796V204.113H160.81V199.757ZM164.175 199.251H169.189V194.895H164.175V199.251ZM172.974 194.979H177.988V190.623H172.974V194.979ZM182.129 191.297H187.143V186.941H182.129V191.297ZM191.607 188.262H196.621V183.906H191.607V188.262ZM201.312 185.873H206.326V181.517H201.312V185.873ZM211.211 184.159H216.225V179.802H211.211V184.159ZM221.239 183.119H226.254V178.763H221.239V183.119ZM231.333 182.782H236.347V178.425H231.333V182.782ZM241.426 183.119H246.44V178.763H241.426V183.119ZM251.454 184.159H256.468V179.802H251.454V184.159ZM261.353 185.873H266.367V181.517H261.353V185.873ZM271.058 188.262H276.072V183.906H271.058V188.262ZM285.518 186.941H280.504V191.297H285.518V186.941ZM294.511 190.735H289.821V194.81H294.511V190.735ZM303.472 194.895H298.458V199.251H303.472V194.895ZM311.851 199.757H306.837V204.113H311.851V199.757ZM319.777 205.181H314.762V209.537H319.777V205.181ZM327.185 211.139H322.17V215.496H327.185V211.139ZM329.029 221.932H334.043V217.575H329.029V221.932ZM335.272 228.817H340.286V224.461H335.272V228.817ZM340.868 236.097H345.883V231.74H340.868V236.097ZM345.786 243.741H350.8V239.385H345.786V243.741ZM350.023 251.695H355.038V247.339H350.023V251.695ZM353.517 259.93H358.531V255.573H353.517V259.93ZM356.267 268.361H361.281V264.005H356.267V268.361ZM358.24 276.961H363.254V272.605H358.24V276.961ZM359.437 285.674H364.451V281.317H359.437V285.674ZM372.862 290.086H367.848V294.442H372.862V290.086ZM372.474 298.855H367.46V303.211H372.474V298.855ZM371.374 307.568H366.36V311.924H371.374V307.568ZM369.53 316.196H364.516V320.552H369.53V316.196ZM366.942 324.683H361.928V329.04H366.942V324.683ZM363.643 332.974H358.628V337.331H363.643V332.974ZM359.664 341.012H354.649V345.369H359.664V341.012ZM355.005 348.797H349.991V353.154H355.005V348.797ZM349.7 356.245H344.686V360.602H349.7V356.245ZM343.78 363.328H338.766V367.684H343.78V363.328ZM337.245 370.017H332.231V374.373H337.245V370.017ZM330.161 376.284H325.147V380.64H330.161V376.284ZM322.591 382.074H317.577V386.43H322.591V382.074ZM314.536 387.357H309.522V391.714H314.536V387.357ZM306.06 392.107H301.046V396.463H306.06V392.107ZM297.196 396.295H292.182V400.651H297.196V396.295ZM288.009 399.92H282.995V404.277H288.009V399.92ZM278.531 402.928H273.516V407.284H278.531V402.928ZM268.826 405.316H263.812V409.673H268.826V405.316ZM258.927 407.087H253.913V411.443H258.927V407.087ZM248.931 408.211H243.917V412.568H248.931V408.211ZM238.87 408.689H233.856V413.045H238.87V408.689ZM228.777 408.52H223.763V412.877H228.777V408.52ZM218.716 407.705H213.702V412.062H218.716V407.705ZM208.752 406.244H203.738V410.6H208.752V406.244ZM198.95 404.164H193.936V408.52H198.95V404.164ZM189.343 401.466H184.328V405.822H189.343V401.466ZM179.994 398.15H174.979V402.506H179.994V398.15ZM170.968 394.243H165.954V398.599H170.968V394.243ZM162.298 389.774H157.284V394.131H162.298V389.774ZM154.017 384.744H149.003V389.1H154.017V384.744ZM146.188 379.207H141.174V383.563H146.188V379.207ZM138.845 373.193H133.831V377.549H138.845V373.193ZM132.051 366.7H127.037V371.057H132.051V366.7ZM125.808 359.815H120.794V364.171H125.808V359.815ZM120.179 352.535H115.165V356.892H120.179V352.535ZM115.197 344.919H110.183V349.275H115.197V344.919ZM110.862 336.993H105.848V341.35H110.862V336.993ZM107.207 328.815H102.193V333.171H107.207V328.815ZM104.263 320.44H99.2488V324.796H104.263V320.44ZM102.031 311.896H97.0167V316.252H102.031V311.896ZM95.5286 307.568H100.543V303.211H95.5286V307.568ZM99.7987 294.471H94.7845V298.827H99.7987V294.471ZM94.7845 290.058H99.7987V285.702H94.7845V290.058ZM100.543 276.961H95.5286V281.317H100.543V276.961ZM97.0167 272.633H102.031V268.277H97.0167V272.633ZM99.2488 264.089H104.263V259.733H99.2488V264.089ZM102.193 255.714H107.207V251.358H102.193V255.714ZM105.848 247.535H110.862V243.179H105.848V247.535ZM110.183 239.61H115.197V235.253H110.183V239.61ZM115.165 231.993H120.179V227.637H115.165V231.993ZM125.808 220.358H120.794V224.714H125.808V220.358ZM127.037 217.8H132.051V213.444H127.037V217.8ZM133.831 211.308H138.845V206.952H133.831V211.308ZM141.174 205.294H146.188V200.937H141.174V205.294ZM149.003 199.757H154.017V195.401H149.003V199.757ZM157.284 194.726H162.298V190.37H157.284V194.726ZM165.954 190.257H170.968V185.901H165.954V190.257ZM174.979 186.351H179.994V181.995H174.979V186.351ZM184.328 183.034H189.343V178.678H184.328V183.034ZM193.936 180.336H198.95V175.98H193.936V180.336ZM203.738 178.257H208.752V173.9H203.738V178.257ZM213.702 176.795H218.716V172.439H213.702V176.795ZM223.763 175.98H228.777V171.624H223.763V175.98ZM233.856 175.811H238.87V171.455H233.856V175.811ZM243.917 176.289H248.931V171.933H243.917V176.289ZM254.042 177.301H258.797V173.17H254.042V177.301ZM264.556 178.538H268.049V175.502H264.556V178.538ZM277.172 178.397H274.843V180.421H277.172V178.397ZM286.003 181.966H284.968V182.866H286.003V181.966ZM304.055 189.78H303.019V190.679H304.055V189.78ZM313.727 193.518H310.33V196.469H313.727V193.518ZM322.138 198.492H318.03V202.062H322.138V198.492ZM330.161 203.888H325.147V208.245H330.161V203.888ZM332.231 214.484H337.245V210.128H332.231V214.484ZM338.733 221.173H343.748V216.817H338.733V221.173ZM344.653 228.255H349.668V223.899H344.653V228.255ZM349.959 235.703H354.973V231.347H349.959V235.703ZM354.617 243.488H359.631V239.132H354.617V243.488ZM358.596 251.526H363.61V247.17H358.596V251.526ZM366.91 255.461H361.896V259.817H366.91V255.461ZM369.498 263.949H364.484V268.305H369.498V263.949ZM371.342 272.577H366.328V276.933H371.342V272.577ZM367.46 285.646H372.474V281.289H367.46V285.646ZM380.885 290.058H375.871V294.414H380.885V290.058ZM380.529 298.827H375.515V303.183H380.529V298.827ZM379.462 307.539H374.447V311.896H379.462V307.539ZM377.715 316.168H372.701V320.524H377.715V316.168ZM375.289 324.683H370.274V329.04H375.289V324.683ZM372.183 333.031H367.169V337.387H372.183V333.031ZM368.398 341.153H363.384V345.509H368.398V341.153ZM363.966 349.022H358.952V353.379H363.966V349.022ZM358.92 356.611H353.905V360.967H358.92V356.611ZM353.291 363.89H348.277V368.246H353.291V363.89ZM347.08 370.804H342.065V375.16H347.08V370.804ZM340.319 377.324H335.304V381.68H340.319V377.324ZM333.072 383.423H328.058V387.779H333.072V383.423ZM325.341 389.072H320.326V393.428H325.341V389.072ZM317.189 394.215H312.174V398.571H317.189V394.215ZM308.616 398.852H303.602V403.209H308.616V398.852ZM299.72 402.956H294.706V407.312H299.72V402.956ZM290.5 406.525H285.486V410.881H290.5V406.525ZM281.022 409.532H276.007V413.889H281.022V409.532ZM271.317 411.949H266.302V416.306H271.317V411.949ZM261.45 413.776H256.436V418.132H261.45V413.776ZM251.454 414.985H246.44V419.341H251.454V414.985ZM241.393 415.603H236.379V419.959H241.393V415.603ZM231.3 415.603H226.286V419.959H231.3V415.603ZM221.239 414.985H216.225V419.341H221.239V414.985ZM211.243 413.776H206.229V418.132H211.243V413.776ZM201.377 411.949H196.363V416.306H201.377V411.949ZM191.672 409.532H186.658V413.889H191.672V409.532ZM182.193 406.525H177.179V410.881H182.193V406.525ZM172.974 402.956H167.959V407.312H172.974V402.956ZM164.078 398.852H159.063V403.209H164.078V398.852ZM155.505 394.215H150.491V398.571H155.505V394.215ZM147.353 389.072H142.339V393.428H147.353V389.072ZM139.621 383.423H134.607V387.779H139.621V383.423ZM132.375 377.324H127.361V381.68H132.375V377.324ZM125.614 370.804H120.6V375.16H125.614V370.804ZM114.388 368.246H119.403V363.89H114.388V368.246ZM113.741 356.639H108.727V360.995H113.741V356.639ZM108.695 349.05H103.681V353.407H108.695V349.05ZM104.263 341.181H99.2488V345.537H104.263V341.181ZM99.5723 333.846H96.3697V336.628H99.5723V333.846ZM93.07 328.449H96.6285V325.358H93.07V328.449ZM93.8464 317.151H90.9673V319.653H93.8464V317.151ZM92.7465 307.961H88.5734V311.586H92.7465V307.961ZM92.1319 298.883H87.1177V303.239H92.1319V298.883ZM91.776 290.114H86.7618V294.471H91.776V290.114ZM92.1319 281.346H87.1177V285.702H92.1319V281.346ZM93.1994 272.633H88.1852V276.989H93.1994V272.633ZM94.9463 264.005H89.9321V268.361H94.9463V264.005ZM97.3725 255.489H92.3583V259.845H97.3725V255.489ZM95.4962 251.498H100.51V247.142H95.4962V251.498ZM99.2811 243.376H104.295V239.02H99.2811V243.376ZM103.713 235.506H108.727V231.15H103.713V235.506ZM108.76 227.918H113.774V223.562H108.76V227.918ZM114.388 220.639H119.403V216.283H114.388V220.639ZM120.6 213.725H125.614V209.369H120.6V213.725ZM127.361 207.205H132.375V202.848H127.361V207.205ZM134.607 201.106H139.621V196.75H134.607V201.106ZM147.353 191.129H142.339V195.485H147.353V191.129ZM150.523 190.314H155.537V185.957H150.523V190.314ZM159.096 185.676H164.11V181.32H159.096V185.676ZM167.992 181.573H173.006V177.217H167.992V181.573ZM177.212 178.004H182.226V173.647H177.212V178.004ZM186.69 174.996H191.704V170.64H186.69V174.996ZM196.395 172.579H201.409V168.223H196.395V172.579ZM206.262 170.753H211.276V166.396H206.262V170.753ZM216.258 169.544H221.272V165.188H216.258V169.544ZM226.318 168.926H231.333V164.57H226.318V168.926ZM236.411 168.926H241.426V164.57H236.411V168.926ZM246.472 169.544H251.486V165.188H246.472V169.544ZM257.115 170.19H260.803V166.987H257.115V170.19ZM332.425 197.368H328.77V200.544H332.425V197.368ZM340.351 202.877H335.337V207.233H340.351V202.877ZM342.098 213.753H347.112V209.397H342.098V213.753ZM348.309 220.667H353.323V216.311H348.309V220.667ZM353.938 227.946H358.952V223.59H353.938V227.946ZM358.984 235.535H363.999V231.178H358.984V235.535ZM363.416 243.404H368.43V239.048H363.416V243.404ZM367.201 251.526H372.215V247.17H367.201V251.526ZM370.307 259.873H375.321V255.517H370.307V259.873ZM372.733 268.389H377.747V264.033H372.733V268.389ZM374.48 277.017H379.494V272.661H374.48V277.017ZM375.547 285.73H380.562V281.374H375.547V285.73ZM388.94 290.142H383.926V294.499H388.94V290.142ZM388.617 298.911H383.602V303.267H388.617V298.911ZM387.614 307.624H382.6V311.98H387.614V307.624ZM385.964 316.28H380.95V320.636H385.964V316.28ZM383.635 324.824H378.621V329.18H383.635V324.824ZM380.659 333.199H375.644V337.555H380.659V333.199ZM377.068 341.406H372.054V345.762H377.068V341.406ZM367.848 353.716H372.862V349.36H367.848V353.716ZM363.222 361.276H367.88V357.229H363.222V361.276ZM358.111 368.471H362.252V364.873H358.111V368.471ZM352.288 375.469H356.235V372.04H352.288V375.469ZM345.656 382.383H349.959V378.645H345.656V382.383ZM339.898 387.695H341.807V386.036H339.898V387.695ZM331.681 394.327H335.175V391.292H331.681V394.327ZM323.529 400.089H327.637V396.52H323.529V400.089ZM315.7 404.754H318.903V401.972H315.7V404.754ZM311.107 405.794H306.254V410.01H311.107V405.794ZM302.243 409.757H297.229V414.113H302.243V409.757ZM292.991 413.27H287.977V417.626H292.991V413.27ZM283.513 416.249H278.498V420.606H283.513V416.249ZM273.808 418.694H268.793V423.051H273.808V418.694ZM263.941 420.578H258.927V424.934H263.941V420.578ZM253.977 421.87H248.963V426.227H253.977V421.87ZM243.917 422.601H238.902V426.957H243.917V422.601ZM233.823 422.742H228.809V427.098H233.823V422.742ZM223.73 422.32H218.716V426.676H223.73V422.32ZM213.702 421.308H208.688V425.664H213.702V421.308ZM203.771 419.734H198.756V424.091H203.771V419.734ZM194.001 417.57H188.987V421.927H194.001V417.57ZM184.393 414.872H179.379V419.228H184.393V414.872ZM175.012 411.612H169.998V415.968H175.012V411.612ZM165.921 407.818H160.907V412.174H165.921V407.818ZM157.122 403.518H152.108V407.874H157.122V403.518ZM148.679 398.712H143.665V403.068H148.679V398.712ZM140.624 393.428H135.61V397.784H140.624V393.428ZM132.99 387.695H127.975V392.051H132.99V387.695ZM125.808 381.54H120.794V385.896H125.808V381.54ZM119.111 374.991H114.097V379.348H119.111V374.991ZM112.9 368.077H107.886V372.434H112.9V368.077ZM102.225 365.183H107.239V360.826H102.225V365.183ZM102.128 353.266H97.1137V357.622H102.128V353.266ZM96.7255 346.212H93.5229V348.994H96.7255V346.212ZM82.9446 324.796H87.6676V320.693H82.9446V324.796ZM85.8237 311.98H80.8095V316.336H85.8237V311.98ZM84.4973 303.296H79.4831V307.652H84.4973V303.296ZM83.818 294.555H78.8038V298.911H83.818V294.555ZM83.818 285.786H78.8038V290.142H83.818V285.786ZM84.4973 277.046H79.4831V281.402H84.4973V277.046ZM85.8237 268.361H80.8095V272.717H85.8237V268.361ZM87.8294 259.761H82.8152V264.117H87.8294V259.761ZM90.482 251.301H85.4678V255.658H90.482V251.301ZM93.7494 243.01H88.7352V247.367H93.7494V243.01ZM92.6495 239.272H97.6637V234.916H92.6495V239.272ZM97.1461 231.431H102.16V227.075H97.1461V231.431ZM102.225 223.871H107.239V219.515H102.225V223.871ZM107.886 216.62H112.9V212.264H107.886V216.62ZM119.079 205.35H114.065V209.706H119.079V205.35ZM120.794 203.158H125.808V198.801H120.794V203.158ZM127.975 197.003H132.99V192.646H127.975V197.003ZM135.61 191.269H140.624V186.913H135.61V191.269ZM143.665 185.985H148.679V181.629H143.665V185.985ZM152.108 181.18H157.122V176.823H152.108V181.18ZM160.907 176.879H165.921V172.523H160.907V176.879ZM169.998 173.085H175.012V168.729H169.998V173.085ZM179.379 169.825H184.393V165.469H179.379V169.825ZM188.987 167.127H194.001V162.771H188.987V167.127ZM198.756 164.963H203.771V160.607H198.756V164.963ZM208.688 163.389H213.702V159.033H208.688V163.389ZM218.716 162.377H223.73V158.021H218.716V162.377ZM228.809 161.956H233.823V157.599H228.809V161.956ZM238.902 162.096H243.917V157.74H238.902V162.096ZM248.963 162.827H253.977V158.471H248.963V162.827ZM259.8 163.361H263.068V160.522H259.8V163.361ZM342.712 196.188H338.96V199.448H342.712V196.188ZM350.282 202.005H345.3V206.333H350.282V202.005ZM356.752 208.751H351.77V213.079H356.752V208.751ZM362.705 215.833H357.69V220.189H362.705V215.833ZM363.06 227.609H368.075V223.253H363.06V227.609ZM367.848 235.31H372.862V230.953H367.848V235.31ZM372.054 243.291H377.068V238.935H372.054V243.291ZM380.659 247.142H375.644V251.498H380.659V247.142ZM383.635 255.517H378.621V259.873H383.635V255.517ZM385.964 264.061H380.95V268.417H385.964V264.061ZM387.614 272.717H382.6V277.074H387.614V272.717ZM383.602 285.786H388.617V281.43H383.602V285.786ZM396.963 290.199H391.949V294.555H396.963V290.199ZM396.639 298.967H391.625V303.324H396.639V298.967ZM395.701 307.708H390.687V312.064H395.701V307.708ZM394.116 316.364H389.102V320.721H394.116V316.364ZM391.916 324.908H386.902V329.265H391.916V324.908ZM384.088 337.668H389.102V333.312H384.088V337.668ZM380.659 345.903H385.673V341.546H380.659V345.903ZM376.744 353.884H381.597V349.669H376.744V353.884ZM374.286 359.871H374.9V359.337H374.286V359.871ZM309.328 416.306H313.112V413.017H309.328V416.306ZM299.979 420.606H304.475V416.699H299.979V420.606ZM291.956 422.995H293.961V421.252H291.956V422.995ZM285.939 422.938H280.989V427.238H285.939V422.938ZM276.266 425.355H271.252V429.712H276.266V425.355ZM266.432 427.266H261.418V431.623H266.432V427.266ZM251.454 433H256.468V428.644H251.454V433ZM246.407 429.487H241.393V433.843H246.407V429.487ZM236.314 429.768H231.3V434.124H236.314V429.768ZM226.221 429.487H221.207V433.843H226.221V429.487ZM216.161 428.672H211.146V433.028H216.161V428.672ZM206.197 427.295H201.183V431.651H206.197V427.295ZM196.363 425.383H191.348V429.74H196.363V425.383ZM186.658 422.938H181.643V427.295H186.658V422.938ZM177.147 419.959H172.133V424.315H177.147V419.959ZM167.895 416.474H162.881V420.83H167.895V416.474ZM158.902 412.483H153.887V416.84H158.902V412.483ZM150.2 408.015H145.185V412.371H150.2V408.015ZM141.853 403.096H136.839V407.452H141.853V403.096ZM133.895 397.728H128.881V402.084H133.895V397.728ZM126.325 391.939H121.311V396.295H126.325V391.939ZM119.176 385.727H114.162V390.084H119.176V385.727ZM112.512 379.151H107.498V383.507H112.512V379.151ZM101.319 376.565H106.333V372.209H101.319V376.565ZM95.8197 369.174H100.51V365.098H95.8197V369.174ZM92.0995 360.377H93.9111V358.803H92.0995V360.377ZM88.347 351.861H88.5411V351.692H88.347V351.861ZM75.7629 329.18H80.6477V324.936H75.7629V329.18ZM78.5127 316.336H73.4985V320.693H78.5127V316.336ZM76.9275 307.68H71.9133V312.036H76.9275V307.68ZM75.9894 298.939H70.9752V303.296H75.9894V298.939ZM75.6659 290.171H70.6517V294.527H75.6659V290.171ZM70.9752 285.758H75.9894V281.402H70.9752V285.758ZM76.9275 272.689H71.9133V277.046H76.9275V272.689ZM78.5127 264.033H73.4985V268.389H78.5127V264.033ZM80.7124 255.489H75.6982V259.845H80.7124V255.489ZM83.5269 247.058H78.5127V251.414H83.5269V247.058ZM86.9559 238.823H81.9417V243.179H86.9559V238.823ZM85.9531 235.141H90.9673V230.785H85.9531V235.141ZM90.5467 227.328H95.5609V222.972H90.5467V227.328ZM95.6903 219.768H100.705V215.411H95.6903V219.768ZM106.366 208.16H101.352V212.517H106.366V208.16ZM112.545 201.246H107.53V205.603H112.545V201.246ZM119.209 194.67H114.194V199.026H119.209V194.67ZM121.344 192.815H126.358V188.459H121.344V192.815ZM133.928 182.669H128.913V187.025H133.928V182.669ZM141.886 177.301H136.871V181.657H141.886V177.301ZM145.218 176.711H150.232V172.355H145.218V176.711ZM153.92 172.242H158.934V167.886H153.92V172.242ZM162.913 168.251H167.927V163.895H162.913V168.251ZM172.165 164.766H177.179V160.41H172.165V164.766ZM181.676 161.787H186.69V157.431H181.676V161.787ZM191.381 159.342H196.395V154.986H191.381V159.342ZM201.215 157.431H206.229V153.075H201.215V157.431ZM211.179 156.054H216.193V151.697H211.179V156.054ZM221.239 155.239H226.254V150.882H221.239V155.239ZM231.333 154.958H236.347V150.601H231.333V154.958ZM241.426 155.239H246.44V150.882H241.426V155.239ZM251.486 156.054H256.501V151.697H251.486V156.054ZM262.162 156.784H265.72V153.693H262.162V156.784ZM351.156 196.609H350.735V196.975H351.156V196.609ZM357.658 203.326H357.561V203.411H357.658V203.326ZM365.487 208.807H362.09V211.758H365.487V208.807ZM371.957 215.355H366.942V219.711H371.957V215.355ZM377.1 222.915H372.086V227.272H377.1V222.915ZM376.68 235.085H381.694V230.729H376.68V235.085ZM380.691 243.123H385.705V238.767H380.691V243.123ZM384.12 251.358H389.134V247.001H384.12V251.358ZM391.949 255.433H386.934V259.789H391.949V255.433ZM394.148 263.977H389.134V268.333H394.148V263.977ZM395.734 272.633H390.719V276.989H395.734V272.633ZM391.69 285.702H396.704V281.346H391.69V285.702ZM405.05 290.114H400.036V294.471H405.05V290.114ZM404.759 298.883H399.745V303.239H404.759V298.883ZM403.853 307.624H398.839V311.98H403.853V307.624ZM402.333 316.28H397.319V320.636H402.333V316.28ZM400.23 324.852H395.216V329.208H400.23V324.852ZM392.531 337.668H397.545V333.312H392.531V337.668ZM389.264 345.959H394.278V341.603H389.264V345.959ZM386.805 352.901H389.102V350.905H386.805V352.901ZM285.486 432.129H286.521V431.229H285.486V432.129ZM275.393 434.939H277.204V433.365H275.393V434.939ZM265.009 437.356H267.952V434.799H265.009V437.356ZM259.024 435.333H254.01V439.689H259.024V435.333ZM248.995 436.26H243.981V440.616H248.995V436.26ZM238.902 436.654H233.888V441.01H238.902V436.654ZM228.809 436.513H223.795V440.869H228.809V436.513ZM218.748 435.867H213.734V440.223H218.748V435.867ZM208.752 434.686H203.738V439.042H208.752V434.686ZM198.853 433H193.839V437.356H198.853V433ZM189.084 430.808H184.07V435.164H189.084V430.808ZM179.476 428.11H174.462V432.466H179.476V428.11ZM170.095 424.906H165.08V429.262H170.095V424.906ZM160.94 421.224H155.925V425.58H160.94V421.224ZM152.043 417.064H147.029V421.421H152.043V417.064ZM143.471 412.455H138.457V416.811H143.471V412.455ZM135.222 407.396H130.207V411.753H135.222V407.396ZM127.328 401.916H122.314V406.272H127.328V401.916ZM119.823 396.042H114.809V400.398H119.823V396.042ZM112.739 389.803H107.724V394.159H112.739V389.803ZM101.093 387.526H106.075V383.198H101.093V387.526ZM95.5609 380.05H99.2811V376.818H95.5609V380.05ZM91.679 371.253H91.8084V371.141H91.679V371.253ZM69.1959 333.115H73.4014V329.461H69.1959V333.115ZM71.4281 320.58H66.4139V324.936H71.4281V320.58ZM69.6165 311.952H64.6023V316.308H69.6165V311.952ZM68.4196 303.239H63.4054V307.596H68.4196V303.239ZM67.8049 294.499H62.7907V298.855H67.8049V294.499ZM62.7907 290.086H67.8049V285.73H62.7907V290.086ZM68.3872 276.989H63.373V281.346H68.3872V276.989ZM69.5841 268.277H64.5699V272.633H69.5841V268.277ZM71.3957 259.649H66.3815V264.005H71.3957V259.649ZM73.7896 251.133H68.7754V255.489H73.7896V251.133ZM76.7658 242.757H71.7516V247.114H76.7658V242.757ZM80.3242 234.551H75.31V238.907H80.3242V234.551ZM79.4184 230.897H84.4326V226.541H79.4184V230.897ZM84.0768 223.112H89.091V218.756H84.0768V223.112ZM89.2527 215.58H94.2669V211.224H89.2527V215.58ZM94.9463 208.329H99.9605V203.973H94.9463V208.329ZM106.139 197.031H101.125V201.387H106.139V197.031ZM112.771 190.426H107.757V194.782H112.771V190.426ZM119.856 184.187H114.841V188.543H119.856V184.187ZM122.346 182.669H127.361V178.313H122.346V182.669ZM130.24 177.217H135.254V172.86H130.24V177.217ZM138.489 172.158H143.503V167.802H138.489V172.158ZM147.062 167.549H152.076V163.192H147.062V167.549ZM160.94 159.033H155.925V163.389H160.94V159.033ZM165.08 159.707H170.095V155.351H165.08V159.707ZM174.462 156.503H179.476V152.147H174.462V156.503ZM184.07 153.805H189.084V149.449H184.07V153.805ZM193.839 151.613H198.853V147.257H193.839V151.613ZM203.738 149.927H208.752V145.571H203.738V149.927ZM213.734 148.746H218.748V144.39H213.734V148.746ZM223.795 148.1H228.809V143.744H223.795V148.1ZM233.888 147.959H238.902V143.603H233.888V147.959ZM243.981 148.353H248.995V143.997H243.981V148.353ZM254.01 149.28H259.024V144.924H254.01V149.28ZM264.006 150.686H268.955V146.386H264.006V150.686ZM276.363 150.461H276.266V150.545H276.363V150.461ZM374.092 209.032H372.345V210.549H374.092V209.032ZM381.176 214.99H376.162V219.346H381.176V214.99ZM381.079 226.991H386.093V222.634H381.079V226.991ZM385.446 234.888H390.461V230.532H385.446V234.888ZM389.264 243.01H394.278V238.654H389.264V243.01ZM397.545 246.945H392.531V251.301H397.545V246.945ZM400.23 255.405H395.216V259.761H400.23V255.405ZM397.319 268.333H402.333V263.977H397.319V268.333ZM398.807 276.989H403.821V272.633H398.807V276.989ZM399.713 285.73H404.727V281.374H399.713V285.73ZM408.059 294.499H413.073V290.142H408.059V294.499ZM407.768 303.267H412.782V298.911H407.768V303.267ZM406.894 312.008H411.908V307.652H406.894V312.008ZM406.247 319.99H409.644V317.039H406.247V319.99ZM404.306 328.506H407.541V325.695H404.306V328.506ZM401.459 337.218H405.244V333.93H401.459V337.218ZM398.839 345.116H401.621V342.699H398.839V345.116ZM396.51 352.142H396.639V352.03H396.51V352.142ZM261.353 442.218H256.598V446.35H261.353V442.218ZM251.454 443.118H246.44V447.474H251.454V443.118ZM241.393 443.624H236.379V447.98H241.393V443.624ZM231.3 443.624H226.286V447.98H231.3V443.624ZM221.239 443.118H216.225V447.474H221.239V443.118ZM211.211 442.106H206.197V446.462H211.211V442.106ZM201.28 440.616H196.265V444.973H201.28V440.616ZM191.445 438.621H186.431V442.977H191.445V438.621ZM181.773 436.148H176.759V440.504H181.773V436.148ZM172.262 433.197H167.248V437.553H172.262V433.197ZM162.978 429.796H157.963V434.152H162.978V429.796ZM153.92 425.917H148.906V430.274H153.92V425.917ZM145.121 421.617H140.106V425.974H145.121V421.617ZM136.645 416.868H131.631V421.224H136.645V416.868ZM128.493 411.724H123.479V416.081H128.493V411.724ZM120.664 406.188H115.65V410.544H120.664V406.188ZM113.224 400.258H108.21V404.614H113.224V400.258ZM105.266 394.777H102.128V397.503H105.266V394.777ZM96.8873 389.69H97.2755V389.353H96.8873V389.69ZM63.0172 336.74H65.6698V334.436H63.0172V336.74ZM64.2788 324.936H59.2646V329.293H64.2788V324.936ZM62.2731 316.336H57.2589V320.693H62.2731V316.336ZM60.8497 307.652H55.8355V312.008H60.8497V307.652ZM59.9763 298.911H54.9621V303.267H59.9763V298.911ZM59.6851 290.142H54.6709V294.499H59.6851V290.142ZM54.9621 285.73H59.9763V281.374H54.9621V285.73ZM60.8174 272.633H55.8032V276.989H60.8174V272.633ZM62.2408 263.949H57.2266V268.305H62.2408V263.949ZM62.8231 256.613H60.688V258.468H62.8231V256.613ZM66.4786 247.17H62.1437V250.936H66.4786V247.17ZM69.94 238.542H64.9258V242.898H69.94V238.542ZM73.5955 230.363H68.5813V234.719H73.5955V230.363ZM72.7868 226.738H77.801V222.381H72.7868V226.738ZM77.5098 218.981H82.524V214.624H77.5098V218.981ZM82.7181 211.477H87.7323V207.12H82.7181V211.477ZM88.4117 204.226H93.4258V199.869H88.4117V204.226ZM99.5723 192.927H94.5581V197.284H99.5723V192.927ZM106.172 186.295H101.157V190.651H106.172V186.295ZM108.21 184.355H113.224V179.999H108.21V184.355ZM120.664 174.069H115.65V178.425H120.664V174.069ZM123.479 172.86H128.493V168.504H123.479V172.86ZM131.631 167.717H136.645V163.361H131.631V167.717ZM140.106 162.968H145.121V158.611H140.106V162.968ZM148.906 158.667H153.92V154.311H148.906V158.667ZM157.963 154.789H162.978V150.433H157.963V154.789ZM167.248 151.388H172.262V147.032H167.248V151.388ZM176.759 148.437H181.773V144.081H176.759V148.437ZM186.431 145.964H191.445V141.608H186.431V145.964ZM196.265 143.969H201.28V139.612H196.265V143.969ZM206.197 142.479H211.211V138.123H206.197V142.479ZM216.225 141.467H221.239V137.111H216.225V141.467ZM226.286 140.961H231.3V136.605H226.286V140.961ZM236.379 140.961H241.393V136.605H236.379V140.961ZM251.454 137.111H246.44V141.467H251.454V137.111ZM256.501 142.451H261.482V138.123H256.501V142.451ZM266.788 143.631H271.058V139.921H266.788V143.631ZM278.822 143.688H278.692V143.8H278.822V143.688ZM382.6 209.116H382.341V209.341H382.6V209.116ZM389.684 215.018H385.705V218.475H389.684V215.018ZM394.925 222.325H389.911V226.681H394.925V222.325ZM394.116 234.663H399.13V230.307H394.116V234.663ZM397.772 242.842H402.786V238.486H397.772V242.842ZM405.891 246.833H400.877V251.189H405.891V246.833ZM408.447 255.32H403.433V259.677H408.447V255.32ZM410.453 263.921H405.438V268.277H410.453V263.921ZM411.876 272.605H406.862V276.961H411.876V272.605ZM412.749 281.346H407.735V285.702H412.749V281.346ZM416.049 294.471H421.063V290.114H416.049V294.471ZM415.79 303.239H420.805V298.883H415.79V303.239ZM414.949 311.98H419.963V307.624H414.949V311.98ZM415.467 319.034H416.696V317.966H415.467V319.034ZM259.477 452.73H263.488V449.245H259.477V452.73ZM253.977 449.891H248.963V454.247H253.977V449.891ZM243.917 450.481H238.902V454.837H243.917V450.481ZM233.823 450.594H228.809V454.95H233.823V450.594ZM223.73 450.228H218.716V454.584H223.73V450.228ZM213.67 449.385H208.655V453.741H213.67V449.385ZM203.706 448.064H198.692V452.42H203.706V448.064ZM193.839 446.294H188.825V450.65H193.839V446.294ZM184.102 444.045H179.088V448.401H184.102V444.045ZM174.494 441.347H169.48V445.703H174.494V441.347ZM165.08 438.199H160.066V442.556H165.08V438.199ZM155.893 434.602H150.879V438.958H155.893V434.602ZM146.932 430.555H141.918V434.911H146.932V430.555ZM138.23 426.114H133.216V430.47H138.23V426.114ZM129.819 421.252H124.805V425.608H129.819V421.252ZM121.732 415.996H116.718V420.353H121.732V415.996ZM114 410.375H108.986V414.732H114V410.375ZM105.072 405.738H103.163V407.396H105.072V405.738ZM57.1619 340.001H57.6148V339.607H57.1619V340.001ZM57.1619 329.18H52.1477V333.536H57.1619V329.18ZM54.9621 320.608H49.9479V324.964H54.9621V320.608ZM53.3123 311.952H48.2981V316.308H53.3123V311.952ZM52.2124 303.239H47.1982V307.596H52.2124V303.239ZM51.6624 294.499H46.6482V298.855H51.6624V294.499ZM46.7129 290.03H51.6301V285.758H46.7129V290.03ZM52.2124 276.961H47.1982V281.317H52.2124V276.961ZM53.3123 268.249H48.2981V272.605H53.3123V268.249ZM54.9621 259.592H49.9479V263.949H54.9621V259.592ZM54.7356 253.269V253.128H54.5739V253.269H54.7356ZM57.9706 245.287V244.247H56.7737V245.287H57.9706ZM63.0495 234.354H58.1647V238.598H63.0495V234.354ZM61.8849 230.504H66.8991V226.147H61.8849V230.504ZM66.1551 222.55H71.1693V218.194H66.1551V222.55ZM70.9105 214.821H75.9247V210.465H70.9105V214.821ZM76.1511 207.317H81.1653V202.961H76.1511V207.317ZM86.8589 195.738H81.8447V200.094H86.8589V195.738ZM93.0053 188.796H87.9911V193.152H93.0053V188.796ZM99.5723 182.135H94.5581V186.491H99.5723V182.135ZM106.56 175.811H101.546V180.168H106.56V175.811ZM113.903 169.853H108.921V174.181H113.903V169.853ZM116.653 168.56H121.667V164.204H116.653V168.56ZM124.74 163.305H129.755V158.949H124.74V163.305ZM133.151 158.443H138.165V154.086H133.151V158.443ZM141.853 154.002H146.868V149.646H141.853V154.002ZM155.828 145.627H150.814V149.983H155.828V145.627ZM160.034 146.386H165.048V142.029H160.034V146.386ZM169.448 143.238H174.462V138.882H169.448V143.238ZM179.055 140.54H184.07V136.184H179.055V140.54ZM188.825 138.291H193.839V133.935H188.825V138.291ZM198.692 136.521H203.706V132.165H198.692V136.521ZM208.655 135.2H213.67V130.844H208.655V135.2ZM218.716 134.357H223.73V130H218.716V134.357ZM228.809 133.991H233.823V129.635H228.809V133.991ZM238.902 134.104H243.917V129.747H238.902V134.104ZM249.092 134.582H253.848V130.45H249.092V134.582ZM262.291 132.867H260.641V134.3H262.291V132.867ZM398.839 214.596H394.472V218.391H398.839V214.596ZM398.677 226.513H403.692V222.157H398.677V226.513ZM402.689 234.551H407.703V230.195H402.689V234.551ZM406.182 242.757H411.197V238.401H406.182V242.757ZM409.159 251.133H414.173V246.776H409.159V251.133ZM416.631 255.292H411.617V259.649H416.631V255.292ZM418.54 263.892H413.526V268.249H418.54V263.892ZM419.899 272.577H414.885V276.933H419.899V272.577ZM420.74 281.317H415.726V285.674H420.74V281.317ZM424.04 294.442H429.054V290.086H424.04V294.442ZM423.781 303.211H428.795V298.855H423.781V303.211ZM423.328 311.643H427.63V307.905H423.328V311.643ZM424.137 318.5H424.234V318.416H424.137V318.5ZM262.259 459.138H265.656V456.186H262.259V459.138ZM256.468 456.636H251.454V460.992H256.468V456.636ZM246.407 457.311H241.393V461.667H246.407V457.311ZM236.314 457.535H231.3V461.892H236.314V457.535ZM226.221 457.311H221.207V461.667H226.221V457.311ZM216.161 456.636H211.146V460.992H216.161V456.636ZM206.164 455.484H201.15V459.84H206.164V455.484ZM196.233 453.882H191.219V458.238H196.233V453.882ZM186.431 451.83H181.417V456.186H186.431V451.83ZM176.759 449.329H171.744V453.685H176.759V449.329ZM167.248 446.406H162.234V450.762H167.248V446.406ZM157.931 443.061H152.917V447.418H157.931V443.061ZM148.808 439.295H143.794V443.652H148.808V439.295ZM139.945 435.108H134.93V439.464H139.945V435.108ZM131.34 430.527H126.325V434.883H131.34V430.527ZM123.026 425.552H118.012V429.908H123.026V425.552ZM115.003 420.24H110.054V424.54H115.003V420.24ZM104.037 417.43H105.719V415.968H104.037V417.43ZM46.907 336.235H48.3951V334.942H46.907V336.235ZM47.7805 324.88H42.7663V329.236H47.7805V324.88ZM45.9365 316.252H40.9223V320.608H45.9365V316.252ZM44.6102 307.568H39.596V311.924H44.6102V307.568ZM43.8338 298.827H38.8196V303.183H43.8338V298.827ZM42.6045 293.571V290.929H39.5636V293.571H42.6045ZM43.8338 281.317H38.8196V285.674H43.8338V281.317ZM44.6102 272.577H39.596V276.933H44.6102V272.577ZM45.9365 263.892H40.9223V268.249H45.9365V263.892ZM45.8071 256.979H44.7396V257.906H45.8071V256.979ZM56.2237 230.195H51.5007V234.298H56.2237V230.195ZM55.2209 226.316H60.2351V221.96H55.2209V226.316ZM59.5557 218.391H64.5699V214.034H59.5557V218.391ZM64.3758 210.69H69.3901V206.333H64.3758V210.69ZM74.663 198.858H69.6488V203.214H74.663V198.858ZM80.3889 191.635H75.3747V195.991H80.3889V191.635ZM84.5944 186.351H83.4622V187.335H84.5944V186.351ZM91.129 179.718H90.0615V180.646H91.129V179.718ZM98.7312 172.776H96.3373V174.856H98.7312V172.776ZM105.331 167.352H104.36V168.195H105.331V167.352ZM111.574 162.911H113.45V161.281H111.574V162.911ZM118.335 158.667H122.702V154.873H118.335V158.667ZM131.34 149.618H126.325V153.974H131.34V149.618ZM134.93 149.393H139.945V145.037H134.93V149.393ZM143.794 145.205H148.808V140.849H143.794V145.205ZM152.917 141.439H157.931V137.083H152.917V141.439ZM162.234 138.095H167.248V133.738H162.234V138.095ZM171.744 135.172H176.759V130.815H171.744V135.172ZM181.417 132.67H186.431V128.314H181.417V132.67ZM191.219 130.619H196.233V126.262H191.219V130.619ZM201.15 129.017H206.164V124.66H201.15V129.017ZM211.146 127.864H216.161V123.508H211.146V127.864ZM221.207 127.19H226.221V122.834H221.207V127.19ZM231.43 126.825H236.153V122.721H231.43V126.825ZM243.011 125.757H244.79V124.211H243.011V125.757ZM406.829 215.102H404.274V217.322H406.829V215.102ZM412.394 221.96H407.379V226.316H412.394V221.96ZM411.261 234.41H416.276V230.054H411.261V234.41ZM419.64 238.317H414.626V242.673H419.64V238.317ZM422.487 246.748H417.537V251.048H422.487V246.748ZM424.848 255.264H419.866V259.592H424.848V255.264ZM426.692 263.864H421.678V268.221H426.692V263.864ZM428.018 272.549H423.004V276.905H428.018V272.549ZM423.813 285.646H428.827V281.289H423.813V285.646ZM432.095 294.414H437.109V290.058H432.095V294.414ZM431.836 303.183H436.85V298.827H431.836V303.183ZM431.512 311.53H435.653V307.933H431.512V311.53ZM266.917 463.943H265.979V464.758H266.917V463.943ZM253.945 467.738H258.959V463.381H253.945V467.738ZM248.898 464.168H243.884V468.525H248.898V464.168ZM238.805 464.506H233.791V468.862H238.805V464.506ZM228.712 464.393H223.698V468.749H228.712V464.393ZM218.651 463.831H213.637V468.187H218.651V463.831ZM208.623 462.847H203.609V467.204H208.623V462.847ZM198.659 461.414H193.645V465.77H198.659V461.414ZM188.793 459.559H183.778V463.915H188.793V459.559ZM179.055 457.283H174.041V461.639H179.055V457.283ZM169.448 454.584H164.433V458.941H169.448V454.584ZM160.001 451.465H154.987V455.821H160.001V451.465ZM150.782 447.924H145.768V452.28H150.782V447.924ZM141.756 443.989H136.742V448.345H141.756V443.989ZM132.99 439.661H127.975V444.017H132.99V439.661ZM124.482 434.967H119.467V439.324H124.482V434.967ZM115.521 430.527H111.962V433.618H115.521V430.527ZM105.686 426.761H105.913V426.564H105.686V426.761ZM37.7844 331.738H38.0432V331.513H37.7844V331.738ZM34.1613 324.543H37.6227V321.536H34.1613V324.543ZM36.8786 312.205H31.8644V316.561H36.8786V312.205ZM35.8758 303.492H30.8616V307.849H35.8758V303.492ZM34.5494 298.377V295.426H31.1527V298.377H34.5494ZM35.3582 285.955H30.344V290.311H35.3582V285.955ZM30.8616 281.542H35.8758V277.186H30.8616V281.542ZM36.8786 268.474H31.8644V272.83H36.8786V268.474ZM37.8491 260.267H33.9025V263.696H37.8491V260.267ZM48.7186 226.71H45.0631V229.885H48.7186V226.71ZM48.3951 222.353H53.2799V218.109H48.3951V222.353ZM52.73 214.512H57.7442V210.156H52.73V214.512ZM57.5824 206.839H62.5966V202.483H57.5824V206.839ZM67.902 195.035H62.8878V199.392H67.902V195.035ZM72.4956 188.796H69.7135V191.213H72.4956V188.796ZM120.794 148.437H122.638V146.835H120.794V148.437ZM129.269 143.772H131.178V142.114H129.269V143.772ZM136.516 140.793H141.53V136.436H136.516V140.793ZM145.541 136.858H150.555V132.502H145.541V136.858ZM154.793 133.317H159.807V128.961H154.793V133.317ZM164.207 130.197H169.221V125.841H164.207V130.197ZM173.815 127.499H178.829V123.143H173.815V127.499ZM183.552 125.223H188.566V120.866H183.552V125.223ZM193.419 123.368H198.433V119.011H193.419V123.368ZM203.382 121.934H208.397V117.578H203.382V121.934ZM213.411 120.951H218.425V116.594H213.411V120.951ZM223.472 120.389H228.486V116.032H223.472V120.389ZM235.635 118.477H236.508V117.719H235.635V118.477ZM412.491 214.821V217.716H415.823V214.821H412.491ZM415.823 226.428H420.837V222.072H415.823V226.428ZM419.543 234.579H424.557V230.223H419.543V234.579ZM427.792 238.542H422.778V242.898H427.792V238.542ZM428.892 248.435H427.21V249.896H428.892V248.435ZM432.03 256.22H428.601V259.199H432.03V256.22ZM434.456 264.286H429.701V268.417H434.456V264.286ZM435.75 272.97H430.93V277.158H435.75V272.97ZM431.609 285.983H436.624V281.627H431.609V285.983ZM441.12 293.684H443.708V291.435H441.12V293.684ZM439.858 303.324H444.452V299.333H439.858V303.324ZM440.15 311.193H442.705V308.973H440.15V311.193ZM268.146 471.925H269.343V470.885H268.146V471.925ZM256.242 474.848H261.256V470.492H256.242V474.848ZM251.195 471.335H246.181V475.691H251.195V471.335ZM241.102 471.757H236.088V476.113H241.102V471.757ZM231.009 471.757H225.995V476.113H231.009V471.757ZM220.916 471.335H215.902V475.691H220.916V471.335ZM210.888 470.492H205.873V474.848H210.888V470.492ZM200.891 469.227H195.877V473.583H200.891V469.227ZM190.992 467.541H185.978V471.897H190.992V467.541ZM181.191 465.433H176.176V469.789H181.191V465.433ZM171.518 462.932H166.504V467.288H171.518V462.932ZM162.007 460.009H156.993V464.365H162.007V460.009ZM152.658 456.692H147.644V461.049H152.658V456.692ZM143.503 453.011H138.489V457.367H143.503V453.011ZM134.575 448.935H129.56V453.292H134.575V448.935ZM125.678 444.663H121.085V448.654H125.678V444.663ZM114.227 442.499H115.682V441.235H114.227V442.499ZM26.7208 318.922H27.2061V318.5H26.7208V318.922ZM23.4212 312.036H28.0472V308.017H23.4212V312.036ZM27.4972 299.108H22.5154V303.436H27.4972V299.108ZM25.8474 293.431V291.576H23.7123V293.431H25.8474ZM27.5296 281.57H22.5154V285.927H27.5296V281.57ZM23.2594 277.186H28.2736V272.83H23.2594V277.186ZM24.4887 268.474H29.5029V264.117H24.4887V268.474ZM29.4059 257.035H27.9825V258.271H29.4059V257.035ZM40.1783 224.04V224.124H40.2753V224.04H40.1783ZM45.5483 214.905H42.928V217.182H45.5483V214.905ZM46.1953 210.352H51.2095V205.996H46.1953V210.352ZM51.1125 202.68H56.1267V198.324H51.1125V202.68ZM61.432 190.876H56.4178V195.232H61.432V190.876ZM65.5081 185.114H63.8259V186.576H65.5081V185.114ZM131.954 133.766V134.076H132.31V133.766H131.954ZM142.533 128.567H139.556V131.153H142.533V128.567ZM147.709 128.342H152.723V123.986H147.709V128.342ZM157.058 125.026H162.072V120.67H157.058V125.026ZM166.568 122.103H171.583V117.747H166.568V122.103ZM176.241 119.602H181.255V115.245H176.241V119.602ZM186.043 117.494H191.057V113.137H186.043V117.494ZM200.956 111.451H195.942V115.807H200.956V111.451ZM205.938 114.543H210.952V110.186H205.938V114.543ZM215.966 113.7H220.981V109.343H215.966V113.7ZM226.189 113.166H230.912V109.062H226.189V113.166ZM414.82 199.448H412.394V201.556H414.82V199.448ZM416.534 209.875H420.513V206.418H416.534V209.875ZM420.481 218.194H425.495V213.837H420.481V218.194ZM427.339 224.349V223.787H426.692V224.349H427.339ZM429.021 233.623H432.159V230.897H429.021V233.623ZM435.912 238.682H431.545V242.476H435.912V238.682ZM438.241 257.878H438.856V257.344H438.241V257.878ZM440.311 266.281V266.197H440.214V266.281H440.311ZM441.347 274.825V275.078H441.638V274.825H441.347ZM440.861 284.859H443.579V282.498H440.861V284.859ZM450.21 301.244H450.275V301.188H450.21V301.244ZM449.466 310.013H449.596V309.9H449.466V310.013ZM271.058 478.165H271.511V477.771H271.058V478.165ZM263.812 477.125H258.797V481.481H263.812V477.125ZM253.783 478.052H248.769V482.408H253.783V478.052ZM243.722 478.558H238.708V482.914H243.722V478.558ZM233.629 478.67H228.615V483.027H233.629V478.67ZM223.536 478.361H218.522V482.718H223.536V478.361ZM213.475 477.659H208.461V482.015H213.475V477.659ZM203.479 476.534H198.465V480.891H203.479V476.534ZM193.548 475.017H188.534V479.373H193.548V475.017ZM183.714 473.106H178.7V477.462H183.714V473.106ZM173.977 470.801H168.962V475.157H173.977V470.801ZM164.369 468.103H159.354V472.459H164.369V468.103ZM154.923 465.011H149.908V469.368H154.923V465.011ZM145.671 461.526H140.656V465.883H145.671V461.526ZM136.613 457.676H131.598V462.032H136.613V457.676ZM124.384 456.411H126.131V454.894H124.384V456.411ZM15.9484 306.809H18.6334V304.476H15.9484V306.809ZM15.172 298.321H18.4717V295.454H15.172V298.321ZM15.4631 286.938V289.299H18.1805V286.938H15.4631ZM14.7838 281.542H19.798V277.186H14.7838V281.542ZM15.7219 272.802H20.7361V268.445H15.7219V272.802ZM17.1453 264.089H22.0948V259.789H17.1453V264.089ZM35.7464 213.5H39.4666V210.268H35.7464V213.5ZM44.6425 201.865H39.6283V206.221H44.6425V201.865ZM49.3656 194.417H44.8043V198.38H49.3656V194.417ZM54.3151 187.335H50.5302V190.623H54.3151V187.335ZM58.2941 181.629H58.003V181.882H58.2941V181.629ZM142.533 121.766H143.633V120.81H142.533V121.766ZM149.844 119.995H154.858V115.639H149.844V119.995ZM159.29 116.904H164.304V112.547H159.29V116.904ZM168.898 114.205H173.912V109.849H168.898V114.205ZM178.635 111.901H183.649V107.545H178.635V111.901ZM188.469 109.99H193.483V105.633H188.469V109.99ZM198.401 108.472H203.415V104.116H198.401V108.472ZM208.397 107.348H213.411V102.992H208.397V107.348ZM218.457 106.645H223.472V102.289H218.457V106.645ZM230.265 104.846H231.85V103.469H230.265V104.846ZM241.07 104.341H241.232V104.2H241.07V104.341ZM411.973 185.367H411.908V185.423H411.973V185.367ZM419.252 191.185H415.726V194.248H419.252V191.185ZM420.125 202.427H425.139V198.071H420.125V202.427ZM424.848 210.156H429.862V205.799H424.848V210.156ZM434.165 213.725H429.151V218.081H434.165V213.725ZM436.429 223.225H434.683V224.742H436.429V223.225ZM438.888 232.331H439.179V232.078H438.888V232.331ZM441.67 240.903H442.414V240.256H441.67V240.903ZM261.288 488.282H266.27V483.954H261.288V488.282ZM256.242 484.938H251.228V489.294H256.242V484.938ZM246.181 485.528H241.167V489.884H246.181V485.528ZM236.088 485.725H231.074V490.081H236.088V485.725ZM225.995 485.528H220.981V489.884H225.995V485.528ZM215.934 484.938H210.92V489.294H215.934V484.938ZM205.906 483.954H200.891V488.31H205.906V483.954ZM195.942 482.577H190.928V486.933H195.942V482.577ZM186.043 480.806H181.029V485.163H186.043V480.806ZM176.273 478.67H171.259V483.027H176.273V478.67ZM166.601 476.141H161.587V480.497H166.601V476.141ZM157.09 473.246H152.076V477.602H157.09V473.246ZM147.709 469.986H142.694V474.342H147.709V469.986ZM138.457 466.417H133.572V470.66H138.457V466.417ZM126.681 464.871H127.361V464.281H126.681V464.871ZM8.21682 284.353H9.6402V283.116H8.21682V284.353ZM7.11693 277.158H12.0988V272.83H7.11693V277.158ZM8.54031 268.192H12.9399V264.37H8.54031V268.192ZM12.8428 257.175H11.8076V258.075H12.8428V257.175ZM31.2498 207.514H30.6998V207.992H31.2498V207.514ZM36.4581 199.167H34.6788V200.712H36.4581V199.167ZM143.697 114.177H146.673V111.564H143.697V114.177ZM152.108 111.732H156.993V107.488H152.108V111.732ZM161.619 108.866H166.568V104.565H161.619V108.866ZM171.259 106.364H176.273V102.008H171.259V106.364ZM181.061 104.228H186.075V99.8719H181.061V104.228ZM190.96 102.458H195.974V98.1013H190.96V102.458ZM200.924 101.08H205.938V96.7242H200.924V101.08ZM210.952 100.097H215.966V95.7405H210.952V100.097ZM221.078 99.4503H225.962V95.2065H221.078V99.4503ZM231.203 99.2255H236.023V95.0379H231.203V99.2255ZM241.976 98.832H245.405V95.8529H241.976V98.832ZM422.875 183.512H419.705V186.267H422.875V183.512ZM429.151 190.145H424.137V194.501H429.151V190.145ZM429.442 201.837H433.777V198.071H429.442V201.837ZM438.662 205.603H433.712V209.903H438.662V205.603ZM442.867 213.556H437.853V217.913H442.867V213.556ZM442.252 225.501H446.005V222.241H442.252V225.501ZM450.146 240.706H450.534V240.369H450.146V240.706ZM265.688 493.341H266.788V492.386H265.688V493.341ZM258.733 491.739H253.718V496.095H258.733V491.739ZM248.672 492.414H243.658V496.77H248.672V492.414ZM238.579 492.695H233.565V497.051H238.579V492.695ZM228.486 492.61H223.472V496.967H228.486V492.61ZM218.393 492.133H213.378V496.489H218.393V492.133ZM208.364 491.29H203.35V495.646H208.364V491.29ZM198.368 490.053H193.354V494.409H198.368V490.053ZM188.437 488.451H183.423V492.807H188.437V488.451ZM178.603 486.484H173.588V490.84H178.603V486.484ZM168.865 484.151H163.851V488.507H168.865V484.151ZM159.257 481.453H154.243V485.809H159.257V481.453ZM149.811 478.389H144.797V482.746H149.811V478.389ZM140.462 475.017H135.577V479.261H140.462V475.017ZM1.13224 279.406H1.19694V279.35H1.13224V279.406ZM0 272.436H4.10841V268.867H0V272.436ZM4.04371 261.363H2.65267V262.571H4.04371V261.363ZM155.796 102.373H157.899V100.546H155.796V102.373ZM163.948 100.912H168.962V96.5555H163.948V100.912ZM173.685 98.5791H178.7V94.2228H173.685V98.5791ZM183.52 96.6117H188.534V92.2555H183.52V96.6117ZM193.451 95.0098H198.465V90.6535H193.451V95.0098ZM203.447 93.7731H208.461V89.4169H203.447V93.7731ZM213.475 92.93H218.49V88.5737H213.475V92.93ZM223.569 92.4522H228.583V88.0959H223.569V92.4522ZM233.662 92.3679H238.676V88.0116H233.662V92.3679ZM247.604 89.3045H244.919V91.6372H247.604V89.3045ZM432.418 182.894H428.763V186.07H432.418V182.894ZM436.041 191.775H435.556V192.197H436.041V191.775ZM447.364 205.547H442.738V209.566H447.364V205.547ZM451.601 213.416H446.587V217.772H451.601V213.416ZM450.469 225.754H454.998V221.819H450.469V225.754ZM458.33 230.054H453.607V234.157H458.33V230.054ZM457.457 241.661H460.077V239.385H457.457V241.661ZM257.245 502.138H260.447V499.356H257.245V502.138ZM251.292 499.299H246.278V503.656H251.292V499.299ZM241.199 499.665H236.185V504.021H241.199V499.665ZM231.106 499.665H226.092V504.021H231.106V499.665ZM221.013 499.299H215.999V503.656H221.013V499.299ZM210.952 498.569H205.938V502.925H210.952V498.569ZM200.924 497.473H195.91V501.829H200.924V497.473ZM190.96 496.011H185.946V500.367H190.96V496.011ZM181.093 494.184H176.079V498.541H181.093V494.184ZM171.324 491.992H166.31V496.348H171.324V491.992ZM161.651 489.463H156.637V493.819H161.651V489.463ZM152.108 486.568H147.094V490.924H152.108V486.568ZM142.662 483.392H137.745V487.664H142.662V483.392ZM130.757 482.155H131.21V481.762H130.757V482.155ZM147.644 98.0451H151.526V94.6725H147.644V98.0451ZM156.605 95.6562H161.619V91.2999H156.605V95.6562ZM166.277 93.1267H171.292V88.7705H166.277V93.1267ZM176.047 90.9345H181.061V86.5783H176.047V90.9345ZM185.914 89.1077H190.928V84.7515H185.914V89.1077ZM195.877 87.6463H200.891V83.29H195.877V87.6463ZM205.906 86.5502H210.92V82.1939H205.906V86.5502ZM215.966 85.8194H220.981V81.4632H215.966V85.8194ZM226.059 85.4541H231.074V81.0978H226.059V85.4541ZM236.379 85.2573H240.94V81.2945H236.379V85.2573ZM248.704 83.5992V83.6835H248.801V83.5992H248.704ZM455.742 205.687H451.731V209.172H455.742V205.687ZM460.142 213.332H455.128V217.688H460.142V213.332ZM463.668 221.538H458.654V225.895H463.668V221.538ZM466.773 229.885H461.759V234.242H466.773V229.885ZM465.156 242.111H468.844V238.907H465.156V242.111ZM253.718 506.213H248.834V510.457H253.718V506.213ZM243.69 506.607H238.676V510.963H243.69V506.607ZM233.597 506.691H228.583V511.047H233.597V506.691ZM223.504 506.438H218.49V510.794H223.504V506.438ZM213.443 505.82H208.429V510.176H213.443V505.82ZM203.415 504.836H198.401V509.192H203.415V504.836ZM193.451 503.515H188.437V507.871H193.451V503.515ZM183.552 501.829H178.538V506.185H183.552V501.829ZM173.718 499.805H168.704V504.162H173.718V499.805ZM164.013 497.445H158.999V501.801H164.013V497.445ZM154.405 494.746H149.391V499.103H154.405V494.746ZM144.668 491.936H140.203V495.814H144.668V491.936ZM133.054 490.559H133.184V490.446H133.054V490.559ZM140.462 93.0143H144.409V89.5855H140.462V93.0143ZM149.391 90.4286H154.405V86.0724H149.391V90.4286ZM158.999 87.7306H164.013V83.3743H158.999V87.7306ZM168.704 85.3698H173.718V81.0135H168.704V85.3698ZM178.538 83.3462H183.552V78.9899H178.538V83.3462ZM188.437 81.6599H193.451V77.3036H188.437V81.6599ZM198.401 80.339H203.415V75.9827H198.401V80.339ZM208.429 79.3553H213.443V74.999H208.429V79.3553ZM218.49 78.737H223.504V74.3807H218.49V78.737ZM228.647 78.4278H233.532V74.184H228.647V78.4278ZM241.134 76.3762V76.4324H241.199V76.3762H241.134ZM464.897 205.125H459.883V209.481H464.897V205.125ZM463.668 217.604H468.682V213.247H463.668V217.604ZM467.065 225.866H472.079V221.51H467.065V225.866ZM475.087 229.885H470.073V234.242H475.087V229.885ZM473.793 241.746H476.64V239.272H473.793V241.746ZM480.037 266.956H481.395V265.775H480.037V266.956ZM481.493 275.303H482.01V274.853H481.493V275.303ZM482.269 283.903H482.431V283.763H482.269V283.903ZM255.659 513.521H251.81V516.865H255.659V513.521ZM246.181 513.521H241.167V517.877H246.181V513.521ZM236.088 513.689H231.074V518.045H236.088V513.689ZM225.995 513.521H220.981V517.877H225.995V513.521ZM215.934 513.015H210.92V517.371H215.934V513.015ZM205.906 512.143H200.891V516.5H205.906V512.143ZM195.91 510.935H190.895V515.291H195.91V510.935ZM185.978 509.389H180.964V513.745H185.978V509.389ZM176.112 507.506H171.097V511.862H176.112V507.506ZM166.342 505.286H161.328V509.642H166.342V505.286ZM156.669 502.728H151.655V507.085H156.669V502.728ZM142.921 503.515H146.318V500.564H142.921V503.515ZM125.937 89.6698V89.7822H126.067V89.6698H125.937ZM137.616 84.1331H132.86V88.2646H137.616V84.1331ZM142.144 85.173H147.159V80.8168H142.144V85.173ZM151.688 82.3063H156.702V77.9501H151.688V82.3063ZM161.36 79.7488H166.374V75.3925H161.36V79.7488ZM171.13 77.5285H176.144V73.1722H171.13V77.5285ZM180.996 75.6455H186.011V71.2892H180.996V75.6455ZM190.928 74.0997H195.942V69.7434H190.928V74.0997ZM200.924 72.8912H205.938V68.5349H200.924V72.8912ZM210.952 72.0199H215.966V67.6637H210.952V72.0199ZM221.013 71.514H226.027V67.1578H221.013V71.514ZM231.591 70.9238H235.667V67.3826H231.591V70.9238ZM243.172 69.7996H244.272V68.8441H243.172V69.7996ZM473.308 205.069H468.876V208.919H473.308V205.069ZM477.255 212.994H472.241V217.351H477.255V212.994ZM480.554 221.285H475.54V225.642H480.554V221.285ZM483.498 229.689H478.484V234.045H483.498V229.689ZM482.366 241.352H484.695V239.329H482.366V241.352ZM488.739 256.416H486.183V258.637H488.739V256.416ZM491.359 264.033H486.345V268.389H491.359V264.033ZM487.38 277.074H492.33V272.774H487.38V277.074ZM489.289 284.69H491.618V282.667H489.289V284.69ZM254.948 523.048H257.698V520.659H254.948V523.048ZM248.737 520.266H243.722V524.622H248.737V520.266ZM238.644 520.519H233.629V524.875H238.644V520.519ZM228.55 520.434H223.536V524.791H228.55V520.434ZM218.457 520.013H213.443V524.369H218.457V520.013ZM208.397 519.254H203.382V523.61H208.397V519.254ZM198.368 518.158H193.354V522.514H198.368V518.158ZM188.404 516.753H183.39V521.109H188.404V516.753ZM178.505 515.01H173.491V519.366H178.505V515.01ZM168.704 512.93H163.689V517.287H168.704V512.93ZM158.578 510.907H154.405V514.532H158.578V510.907ZM126.261 82.8965H129.981V79.6645H126.261V82.8965ZM139.945 75.7579H134.93V80.1141H139.945V75.7579ZM144.409 77.0788H149.423V72.7225H144.409V77.0788ZM154.017 74.3807H159.031V70.0245H154.017V74.3807ZM163.722 71.9918H168.736V67.6355H163.722V71.9918ZM173.524 69.912H178.538V65.5558H173.524V69.912ZM183.423 68.1695H188.437V63.8133H183.423V68.1695ZM193.386 66.7643H198.401V62.408H193.386V66.7643ZM203.415 65.6682H208.429V61.3119H203.415V65.6682ZM213.475 64.9094H218.49V60.5531H213.475V64.9094ZM223.569 64.4878H228.583V60.1315H223.569V64.4878ZM233.662 64.4035H238.644V60.0753H233.662V64.4035ZM244.402 64.0662H248.057V60.8904H244.402V64.0662ZM482.172 204.731H477.158V209.088H482.172V204.731ZM480.748 217.294H485.763V212.938H480.748V217.294ZM488.965 221.257H483.951V225.613H488.965V221.257ZM491.812 229.661H486.798V234.017H491.812V229.661ZM493.138 239.16H490.421V241.521H493.138V239.16ZM493.915 248.941V248.884H493.85V248.941H493.915ZM498.088 255.405H493.106V259.733H498.088V255.405ZM499.447 264.089H494.432V268.445H499.447V264.089ZM495.694 276.905H500.094V273.083H495.694V276.905ZM497.473 284.606H499.479V282.863H497.473V284.606ZM258.183 529.287H259.444V528.191H258.183V529.287ZM251.26 527.208H246.246V531.564H251.26V527.208ZM241.167 527.545H236.153V531.901H241.167V527.545ZM231.074 527.545H226.059V531.901H231.074V527.545ZM220.981 527.208H215.966V531.564H220.981V527.208ZM210.92 526.561H205.906V530.918H210.92V526.561ZM200.891 525.578H195.877V529.934H200.891V525.578ZM190.895 524.285H185.881V528.641H190.895V524.285ZM180.964 522.683H175.95V527.039H180.964V522.683ZM171.13 520.744H166.116V525.1H171.13V520.744ZM160.293 519.423H157.413V521.924H160.293V519.423ZM128.008 74.8585H132.504V70.9519H128.008V74.8585ZM137.163 71.9075H142.177V67.5512H137.163V71.9075ZM146.706 69.0408H151.72V64.6845H146.706V69.0408ZM156.346 66.4832H161.36V62.127H156.346V66.4832ZM166.116 64.2348H171.13V59.8786H166.116V64.2348ZM175.95 62.2956H180.964V57.9393H175.95V62.2956ZM185.881 60.6936H190.895V56.3374H185.881V60.6936ZM195.877 59.4008H200.891V55.0445H195.877V59.4008ZM205.906 58.4171H210.92V54.0609H205.906V58.4171ZM215.966 57.7707H220.981V53.4144H215.966V57.7707ZM226.059 57.4334H231.074V53.0772H226.059V57.4334ZM236.153 57.4334H241.167V53.0772H236.153V57.4334ZM246.343 57.6864H251.163V53.4988H246.343V57.6864ZM258.636 56.3936H259.024V56.0563H258.636V56.3936ZM480.328 190.623H480.231V190.707H480.328V190.623ZM484.339 198.577V198.745H484.533V198.577H484.339ZM490.745 204.591H485.73V208.947H490.745V204.591ZM494.206 212.826H489.192V217.182H494.206V212.826ZM497.311 221.173H492.297V225.529H497.311V221.173ZM500.061 229.604H495.047V233.961H500.061V229.604ZM501.452 239.02H498.476V241.605H501.452V239.02ZM504.04 247.142H499.997V250.655H504.04V247.142ZM506.208 255.377H501.193V259.733H506.208V255.377ZM502.552 268.361H507.437V264.117H502.552V268.361ZM506.822 274.179H505.011V275.753H506.822V274.179ZM505.917 284.212H507.049V283.229H505.917V284.212ZM512.451 294.442H516.915V290.564H512.451V294.442ZM512.807 302.733H516.204V299.782H512.807V302.733ZM513.907 310.041H514.004V309.956H513.907V310.041ZM261.094 535.667H261.45V535.358H261.094V535.667ZM249.028 538.141H253.395V534.346H249.028V538.141ZM243.528 534.543H238.741V538.703H243.528V534.543ZM233.532 534.543H228.518V538.899H233.532V534.543ZM223.439 534.318H218.425V538.674H223.439V534.318ZM213.378 533.756H208.364V538.112H213.378V533.756ZM203.35 532.885H198.336V537.241H203.35V532.885ZM193.354 531.704H188.34V536.061H193.354V531.704ZM183.423 530.215H178.408V534.571H183.423V530.215ZM173.556 528.416H168.542V532.772H173.556V528.416ZM160.001 529.568H162.525V527.376H160.001V529.568ZM122.735 68.282H123.511V67.6074H122.735V68.282ZM129.981 66.8205H134.995V62.4642H129.981V66.8205ZM139.459 63.8133H144.474V59.457H139.459V63.8133ZM149.067 61.1152H154.081V56.7589H149.067V61.1152ZM158.772 58.6982H163.786V54.3419H158.772V58.6982ZM168.574 56.5903H173.588V52.234H168.574V56.5903ZM178.441 54.7916H183.455V50.4353H178.441V54.7916ZM188.372 53.302H193.386V48.9458H188.372V53.302ZM198.368 52.1216H203.382V47.7653H198.368V52.1216ZM213.411 46.8941H208.397V51.2504H213.411V46.8941ZM223.472 46.332H218.457V50.6883H223.472V46.332ZM228.55 50.4353H233.565V46.079H228.55V50.4353ZM238.644 50.5196H243.658V46.1634H238.644V50.5196ZM248.737 50.9131H253.751V46.5568H248.737V50.9131ZM261.838 48.9739H260.738V49.9294H261.838V48.9739ZM485.504 181.798H483.725V183.344H485.504V181.798ZM490.745 188.937H487.218V192H490.745V188.937ZM494.109 197.565H491.974V199.42H494.109V197.565ZM494.238 208.835H499.253V204.479H494.238V208.835ZM502.617 212.741H497.603V217.098H502.617V212.741ZM505.658 221.117H500.644V225.473H505.658V221.117ZM508.343 229.576H503.329V233.933H508.343V229.576ZM510.672 238.12H505.658V242.476H510.672V238.12ZM512.645 246.72H507.631V251.077H512.645V246.72ZM514.263 255.377H509.249V259.733H514.263V255.377ZM515.524 264.089H510.51V268.445H515.524V264.089ZM516.43 272.83H511.416V277.186H516.43V272.83ZM511.966 285.927H516.98V281.57H511.966V285.927ZM520.183 294.695H525.197V290.339H520.183V294.695ZM520.053 303.408H524.97V299.136H520.053V303.408ZM521.93 310.069H522.027V309.985H521.93V310.069ZM243.108 544.014H244.175V543.087H243.108V544.014ZM236.056 541.513H231.041V545.869H236.056V541.513ZM225.962 541.373H220.948V545.729H225.962V541.373ZM215.869 540.923H210.855V545.279H215.869V540.923ZM205.809 540.164H200.794V544.52H205.809V540.164ZM195.78 539.096H190.766V543.452H195.78V539.096ZM185.817 537.719H180.802V542.075H185.817V537.719ZM175.918 536.033H170.903V540.389H175.918V536.033ZM162.622 537.073H164.53V535.414H162.622V537.073ZM123.996 60.7217H126.584V58.4733H123.996V60.7217ZM132.213 58.642H137.227V54.2857H132.213V58.642ZM141.756 55.7752H146.77V51.419H141.756V55.7752ZM151.396 53.2177H156.411V48.8614H151.396V53.2177ZM161.134 50.9412H166.148V46.5849H161.134V50.9412ZM170.968 48.9739H175.982V44.6176H170.968V48.9739ZM180.867 47.2876H185.881V42.9313H180.867V47.2876ZM190.831 45.9104H195.845V41.5541H190.831V45.9104ZM205.841 40.4862H200.827V44.8424H205.841V40.4862ZM215.902 39.7273H210.888V44.0836H215.902V39.7273ZM225.995 39.2776H220.981V43.6339H225.995V39.2776ZM236.088 39.1371H231.074V43.4934H236.088V39.1371ZM246.181 39.2776H241.167V43.6339H246.181V39.2776ZM256.274 39.7273H251.26V44.0836H256.274V39.7273ZM264.653 41.9476H263.003V43.381H264.653V41.9476ZM494.659 181.348H492.33V183.372H494.659V181.348ZM500.255 188.121H495.241V192.478H500.255V188.121ZM499.188 200.544H504.202V196.188H499.188V200.544ZM507.825 204.366H502.811V208.722H507.825V204.366ZM511.125 212.657H506.111V217.013H511.125V212.657ZM514.069 221.032H509.054V225.389H514.069V221.032ZM516.689 229.492H511.675V233.848H516.689V229.492ZM518.953 238.036H513.939V242.392H518.953V238.036ZM520.894 246.636H515.88V250.992H520.894V246.636ZM522.48 255.292H517.465V259.649H522.48V255.292ZM523.709 264.005H518.695V268.361H523.709V264.005ZM524.582 272.745H519.568V277.102H524.582V272.745ZM520.183 285.786H525.035V281.57H520.183V285.786ZM530.438 292.784H531.182V292.138H530.438V292.784ZM530.438 301.413H530.858V301.047H530.438V301.413ZM234.923 551.715H237.414V549.551H234.923V551.715ZM228.583 548.371H223.569V552.727H228.583V548.371ZM218.49 548.005H213.475V552.362H218.49V548.005ZM208.429 547.331H203.415V551.687H208.429V547.331ZM198.401 546.375H193.386V550.732H198.401V546.375ZM188.404 545.111H183.39V549.467H188.404V545.111ZM178.473 543.565H173.459V547.921H178.473V543.565ZM165.113 544.745H167.086V543.031H165.113V544.745ZM126.52 52.1778H128.428V50.5196H126.52V52.1778ZM135.189 49.8732H138.715V46.8098H135.189V49.8732ZM144.053 47.7934H149.067V43.4372H144.053V47.7934ZM153.758 45.3764H158.772V41.0202H153.758V45.3764ZM163.56 43.2404H168.574V38.8842H163.56V43.2404ZM173.427 41.3855H178.441V37.0293H173.427V41.3855ZM183.358 39.8397H188.372V35.4835H183.358V39.8397ZM198.368 34.2188H193.354V38.575H198.368V34.2188ZM207.685 33.8815H204.094V37.0011H207.685V33.8815ZM217.066 33.7972H214.834V35.7364H217.066V33.7972ZM228.55 32.2233H223.536V36.5796H228.55V32.2233ZM238.644 32.139H233.629V36.4953H238.644V32.139ZM248.737 32.3638H243.722V36.7201H248.737V32.3638ZM258.733 32.954H253.88V37.1698H258.733V32.954ZM266.594 35.6802H266.108V36.1018H266.594V35.6802ZM504.008 180.702H500.611V183.653H504.008V180.702ZM503.976 192.337H508.99V187.981H503.976V192.337ZM507.825 200.431H512.839V196.075H507.825V200.431ZM516.365 204.31H511.351V208.666H516.365V204.31ZM519.568 212.629H514.554V216.985H519.568V212.629ZM522.447 221.032H517.433V225.389H522.447V221.032ZM525.003 229.52H519.989V233.876H525.003V229.52ZM527.203 238.064H522.188V242.42H527.203V238.064ZM529.079 246.692H524.065V251.048H529.079V246.692ZM530.632 255.348H525.617V259.705H530.632V255.348ZM531.505 264.342H527.138V268.136H531.505V264.342ZM528.335 276.568H531.99V273.392H528.335V276.568ZM530.599 283.678V283.819H530.761V283.678H530.599ZM237.835 558.404H239.614V556.858H237.835V558.404ZM226.286 559.669H230.977V555.594H226.286V559.669ZM221.045 555.172H216.031V559.528H221.045V555.172ZM210.985 554.582H205.97V558.938H210.985V554.582ZM200.956 553.711H195.942V558.067H200.956V553.711ZM190.96 552.558H185.946V556.915H190.96V552.558ZM180.996 551.125H175.982V555.481H180.996V551.125ZM167.668 552.39H169.545V550.76H167.668V552.39ZM129.69 43.2404H129.819V43.128H129.69V43.2404ZM136.839 42.4816H141.756V38.2097H136.839V42.4816ZM146.447 39.9522H151.461V35.5959H146.447V39.9522ZM156.184 37.6476H161.198V33.2913H156.184V37.6476ZM166.019 35.624H171.033V31.2677H166.019V35.624ZM175.918 33.9096H180.932V29.5533H175.918V33.9096ZM190.895 28.12H185.881V32.4763H190.895V28.12ZM199.242 28.401H197.527V29.8906H199.242V28.401ZM228.939 27.1082H228.292V27.6703H228.939V27.1082ZM239.711 26.518H237.705V28.2605H239.711V26.518ZM249.772 26.8272H247.798V28.5416H249.772V26.8272ZM258.927 28.2043H258.765V28.3448H258.927V28.2043ZM508.019 172.973H505.431V175.221H508.019V172.973ZM513.583 179.83H508.569V184.187H513.583V179.83ZM512.645 192.225H517.659V187.869H512.645V192.225ZM516.398 200.375H521.412V196.019H516.398V200.375ZM524.841 204.282H519.827V208.638H524.841V204.282ZM527.947 212.629H522.932V216.985H527.947V212.629ZM530.761 221.06H525.747V225.417H530.761V221.06ZM533.252 229.548H528.238V233.904H533.252V229.548ZM535.419 238.12H530.405V242.476H535.419V238.12ZM537.231 246.748H532.217V251.105H537.231V246.748ZM533.77 259.733H538.687V255.461H533.77V259.733ZM220.657 564.84H221.466V564.138H220.657V564.84ZM213.508 561.805H208.494V566.161H213.508V561.805ZM203.447 561.018H198.433V565.374H203.447V561.018ZM193.419 559.95H188.404V564.306H193.419V559.95ZM183.455 558.601H178.441V562.957H183.455V558.601ZM170.095 559.978H171.971V558.348H170.095V559.978ZM122.541 38.0972V38.041H122.476V38.0972H122.541ZM129.722 37.0574H134.251V33.1227H129.722V37.0574ZM139.071 34.556H144.085V30.1997H139.071V34.556ZM148.776 32.1109H153.79V27.7546H148.776V32.1109ZM158.546 29.9468H163.56V25.5905H158.546V29.9468ZM168.412 28.0638H173.427V23.7075H168.412V28.0638ZM183.326 22.1055H178.311V26.4618H183.326V22.1055ZM191.931 21.9369H189.634V23.9323H191.931V21.9369ZM517.886 171.736H512.969V176.008H517.886V171.736ZM517.174 183.99H522.188V179.634H517.174V183.99ZM521.121 192.056H526.135V187.7H521.121V192.056ZM524.776 200.235H529.791V195.878H524.776V200.235ZM533.123 204.141H528.108V208.498H533.123V204.141ZM536.164 212.488H531.149V216.845H536.164V212.488ZM538.881 220.92H533.867V225.276H538.881V220.92ZM541.307 229.436H536.293V233.792H541.307V229.436ZM543.41 238.008H538.396V242.364H543.41V238.008ZM545.189 246.636H540.175V250.992H545.189V246.636ZM542.181 259.199H546.127V255.77H542.181V259.199ZM215.772 568.915H210.92V573.131H215.772V568.915ZM205.776 568.157H200.762V572.513H205.776V568.157ZM195.748 567.201H190.734V571.557H195.748V567.201ZM185.719 565.992H180.77V570.293H185.719V565.992ZM172.715 567.145H173.912V566.105H172.715V567.145ZM115.391 32.954H115.262V33.0665H115.391V32.954ZM122.476 31.9142H127.07V27.9233H122.476V31.9142ZM131.825 29.2442H136.839V24.8879H131.825V29.2442ZM141.465 26.6585H146.479V22.3023H141.465V26.6585ZM151.202 24.3539H156.217V19.9977H151.202V24.3539ZM166.019 17.946H161.004V22.3023H166.019V17.946ZM175.918 16.1754H170.903V20.5316H175.918V16.1754ZM184.102 16.1754H182.614V17.4682H184.102V16.1754ZM522.188 163.754H517.562V167.773H522.188V163.754ZM521.8 175.811H526.814V171.455H521.8V175.811ZM525.941 183.793H530.955V179.437H525.941V183.793ZM534.805 187.531H529.791V191.888H534.805V187.531ZM538.363 195.738H533.349V200.094H538.363V195.738ZM541.631 204.029H536.616V208.385H541.631V204.029ZM544.607 212.404H539.593V216.76H544.607V212.404ZM547.259 220.864H542.245V225.22H547.259V220.864ZM549.621 229.38H544.607V233.736H549.621V229.38ZM546.677 242.28H551.627V237.98H546.677V242.28ZM550.236 249.334H551.562V248.182H550.236V249.334ZM215.837 578.19H216.063V577.993H215.837V578.19ZM204.062 579.061H207.685V575.914H204.062V579.061ZM198.303 574.48H193.386V578.752H198.303V574.48ZM184.781 576.419H186.916V574.565H184.781V576.419ZM108.598 27.6141H107.757V28.3448H108.598V27.6141ZM120.05 22.5833H115.035V26.9396H120.05V22.5833ZM129.56 19.6323H124.546V23.9886H129.56V19.6323ZM139.168 16.9342H134.154V21.2905H139.168V16.9342ZM148.873 14.4891H143.859V18.8454H148.873V14.4891ZM158.643 12.2969H153.629V16.6532H158.643V12.2969ZM168.477 10.3577H163.463V14.7139H168.477V10.3577ZM176.467 10.3577H175.303V11.3694H176.467V10.3577ZM531.182 163.417H526.232V167.717H531.182V163.417ZM530.535 175.643H535.549V171.287H530.535V175.643ZM534.578 183.681H539.593V179.325H534.578V183.681ZM538.363 191.803H543.377V187.447H538.363V191.803ZM546.871 195.682H541.857V200.038H546.871V195.682ZM550.074 204.001H545.06V208.357H550.074V204.001ZM552.985 212.404H547.971V216.76H552.985V212.404ZM555.541 220.892H550.591V225.192H555.541V220.892ZM555.088 231.825H555.67V231.319H555.088V231.825ZM557.288 240.256H557.482V240.087H557.288V240.256ZM197.818 584.429H198.853V583.53H197.818V584.429ZM111.639 18.5924H109.051V20.8408H111.639V18.5924ZM122.185 14.5453H117.397V18.7048H122.185V14.5453ZM131.857 11.6224H126.843V15.9786H131.857V11.6224ZM141.497 9.03672H136.483V13.393H141.497V9.03672ZM151.235 6.70401H146.221V11.0603H151.235V6.70401ZM160.843 4.79288H156.249V8.78378H160.843V4.79288ZM169.383 4.11836H167.442V5.80465H169.383V4.11836ZM534.675 156.054H531.343V158.949H534.675V156.054ZM540.013 163.164H534.999V167.521H540.013V163.164ZM539.237 175.474H544.251V171.118H539.237V175.474ZM548.198 179.184H543.183V183.54H548.198V179.184ZM551.885 187.335H546.871V191.691H551.885V187.335ZM555.282 195.597H550.268V199.954H555.282V195.597ZM558.032 204.254H553.794V207.935H558.032V204.254ZM557.126 215.917H560.329V213.135H557.126V215.917ZM561.105 223.14H561.429V222.859H561.105V223.14ZM122.929 7.82821H121.247V9.28967H122.929V7.82821ZM131.954 5.60792H131.404V6.0857H131.954V5.60792ZM141.756 3.02226H140.98V3.69678H141.756V3.02226ZM151.494 0.830078H150.782V1.44839H151.494V0.830078V0.830078ZM537.975 148.831H536.422V150.18H537.975V148.831ZM544.38 155.098H539.366V159.454H544.38V155.098ZM543.798 167.324H548.812V162.968H543.798V167.324ZM547.939 175.306H552.953V170.949H547.939V175.306ZM556.835 179.044H551.821V183.4H556.835V179.044ZM560.426 187.222H555.412V191.578H560.426V187.222ZM558.744 199.841H563.758V195.485H558.744V199.841ZM564.178 206.109H564.405V205.912H564.178V206.109ZM547.162 148.269H545.092V150.067H547.162V148.269ZM553.212 154.817H548.198V159.173H553.212V154.817ZM552.532 167.099H557.547V162.743H552.532V167.099ZM556.608 175.137H561.623V170.781H556.608V175.137ZM565.408 178.903H560.393V183.259H565.408V178.903ZM563.919 191.466H568.934V187.11H563.919V191.466ZM569.031 198.155H570.325V197.031H569.031V198.155ZM555.315 148.718H554.765V149.196H555.315V148.718ZM562.043 154.62H557.029V158.977H562.043V154.62ZM561.267 166.93H566.281V162.574H561.267V166.93ZM570.26 170.64H565.246V174.996H570.26V170.64ZM573.98 178.791H568.966V183.147H573.98V178.791ZM573.398 190.538H576.439V187.897H573.398V190.538ZM566.281 146.667H561.558V150.77H566.281V146.667ZM570.81 154.424H565.796V158.78H570.81V154.424ZM574.918 162.462H570.001V166.734H574.918V162.462ZM578.865 170.5H573.851V174.856H578.865V170.5ZM577.506 183.034H582.521V178.678H577.506V183.034ZM583.038 189.442H583.75V188.824H583.038V189.442ZM568.513 140.427H567.931V140.933H568.513V140.427ZM574.724 146.807H570.842V150.18H574.724V146.807ZM579.415 154.396H574.789V158.415H579.415V154.396ZM579.156 166.171H583.2V162.658H579.156V166.171ZM582.488 174.715H587.502V170.359H582.488V174.715ZM590.511 179.044H586.564V182.472H590.511V179.044ZM590.511 190.229H593.261V187.84H590.511V190.229ZM591.287 163.024H588.343V165.581H591.287V163.024ZM591.287 174.406H595.816V170.472H591.287V174.406ZM598.21 164.345H598.663V163.951H598.21V164.345ZM602.06 172.298V172.355H602.124V172.298H602.06Z" fill="#01163E"/>
</svg>
