<svg width="142" height="102" viewBox="0 0 142 102" fill="none" xmlns="http://www.w3.org/2000/svg">
<path d="M55.8437 100.5V74.8903C55.8437 66.1794 71.6956 54.769 71.6956 54.769C71.6956 54.769 87.5475 66.1794 87.5475 74.8903V100.5H55.8373H55.8437Z" stroke="#000C24" stroke-width="2" stroke-miterlimit="10"/>
<path d="M0.878784 100.5H141.121" stroke="#000C24" stroke-width="2" stroke-miterlimit="10"/>
<path d="M4.27368 45.1841H136.073" stroke="#000C24" stroke-width="2" stroke-miterlimit="10"/>
<path d="M14.9884 35.6943H128.141" stroke="#000C24" stroke-width="2" stroke-miterlimit="10"/>
<path d="M4.27368 27.7622H39.8129" stroke="#000C24" stroke-width="2" stroke-miterlimit="10"/>
<path d="M102.972 27.7622H138.422" stroke="#000C24" stroke-width="2" stroke-miterlimit="10"/>
<path d="M50.7064 19.5747V100.5" stroke="#000C24" stroke-width="2" stroke-miterlimit="10"/>
<path d="M92.6912 19.5747V100.5" stroke="#000C24" stroke-width="2" stroke-miterlimit="10"/>
<path d="M39.813 19.5747V100.5" stroke="#000C24" stroke-width="2" stroke-miterlimit="10"/>
<path d="M102.972 19.5747V100.5" stroke="#000C24" stroke-width="2" stroke-miterlimit="10"/>
<path d="M14.9884 100.5V72.8867C14.9884 65.0501 24.4842 59.2109 24.4842 59.2109C24.4842 59.2109 33.9801 64.9608 33.9801 72.8867V100.5H14.9884Z" stroke="#000C24" stroke-width="2" stroke-miterlimit="10"/>
<path d="M109.239 100.5V72.8867C109.239 65.0501 118.734 59.2109 118.734 59.2109C118.734 59.2109 128.23 64.9608 128.23 72.8867V100.5H109.239Z" stroke="#000C24" stroke-width="2" stroke-miterlimit="10"/>
<path d="M39.813 19.5747H50.7064" stroke="#000C24" stroke-width="2" stroke-miterlimit="10"/>
<path d="M92.6912 19.5747H102.972" stroke="#000C24" stroke-width="2" stroke-miterlimit="10"/>
<path d="M50.7064 19.5747H92.691" stroke="#000C24" stroke-width="2" stroke-miterlimit="10"/>
<path d="M45.2183 19.5746V0.5" stroke="#000C24" stroke-width="2" stroke-miterlimit="10"/>
<path d="M97.8282 19.5746V0.5" stroke="#000C24" stroke-width="2" stroke-miterlimit="10"/>
<path d="M102.972 54.769H134.414V100.5" stroke="#000C24" stroke-width="2" stroke-miterlimit="10"/>
<path d="M56.7179 35.6943V45.1838" stroke="#000C24" stroke-width="2" stroke-miterlimit="10"/>
<path d="M62.7231 35.6943V45.1838" stroke="#000C24" stroke-width="2" stroke-miterlimit="10"/>
<path d="M68.7345 35.6943V45.1838" stroke="#000C24" stroke-width="2" stroke-miterlimit="10"/>
<path d="M74.6565 35.6943V45.1838" stroke="#000C24" stroke-width="2" stroke-miterlimit="10"/>
<path d="M80.6681 35.6943V45.1838" stroke="#000C24" stroke-width="2" stroke-miterlimit="10"/>
<path d="M86.6796 35.6943V45.1838" stroke="#000C24" stroke-width="2" stroke-miterlimit="10"/>
<path d="M9.23877 54.769H39.8131" stroke="#000C24" stroke-width="2" stroke-miterlimit="10"/>
<path d="M9.23877 100.5V54.769" stroke="#000C24" stroke-width="2" stroke-miterlimit="10"/>
<path d="M45.2183 12.8677H96.4371" stroke="#000C24" stroke-width="2" stroke-miterlimit="10"/>
</svg>
