<svg width="115" height="100" viewBox="0 0 115 100" fill="none" xmlns="http://www.w3.org/2000/svg">
<path d="M44.6137 99.3653L83.1241 77.1336C83.8483 76.7104 84.2244 76.1556 84.215 75.6007L84.1962 71.7168C84.1962 72.2716 83.8295 72.8359 83.1053 73.2497L44.5949 95.4813C43.1373 96.3277 40.7862 96.3277 39.3286 95.4813L1.07208 73.2403C0.366766 72.8265 0.00940425 72.2905 0 71.745L0.0188085 75.629C0.0188085 76.1744 0.37617 76.7105 1.09089 77.1242L39.3568 99.3653C40.8144 100.212 43.1561 100.212 44.6232 99.3653H44.6137Z" fill="#DF4444"/>
<path d="M44.5947 95.4813C43.1276 96.3277 40.786 96.3277 39.3283 95.4813L1.07182 73.2403C-0.357623 72.4033 -0.357623 71.0491 1.10944 70.2027L39.6198 47.9711C41.0587 47.1341 43.4286 47.1247 44.8674 47.9617L83.1333 70.2027C84.5815 71.0491 84.5627 72.4221 83.1145 73.2497L44.6041 95.4813H44.5947Z" fill="#FD6565"/>
<path d="M45.2439 75.7418C44.0026 75.0271 43.1374 74.3406 42.6483 73.6729C42.1593 73.0052 41.9054 72.4033 41.896 71.8673C41.8866 71.3312 41.9524 70.5789 42.0935 69.6102C42.2628 68.4911 42.2252 67.5601 41.9806 66.8172C41.7361 66.0742 41.0496 65.3689 39.9211 64.72C38.6045 63.9583 37.0528 63.5915 35.2754 63.6197C33.498 63.6479 32.0027 64.0147 30.7802 64.7106C29.4824 65.463 28.7771 66.3282 28.6736 67.3062C28.5702 68.2842 28.9275 69.2717 29.7551 70.2497L25.0718 71.2372C24.4417 70.5224 24.0091 69.6667 23.7834 68.6698C23.5577 67.673 23.7176 66.6197 24.2724 65.5006C24.8273 64.3815 25.937 63.347 27.6015 62.3878C30.0372 61.0147 32.7175 60.2812 35.6422 60.1778C38.5669 60.0743 41.2471 60.7326 43.7016 62.1433C44.943 62.858 45.8364 63.5727 46.3818 64.2874C46.9273 65.0022 47.247 65.6981 47.3223 66.3658C47.3975 67.0335 47.3787 67.8422 47.2658 68.8015C47.1812 69.6761 47.1436 70.3438 47.153 70.7952C47.1624 71.2466 47.3787 71.7544 47.8113 72.2998C48.2345 72.8453 48.9586 73.419 49.9743 74.002L51.7046 74.9989L47.8489 77.2277L45.2533 75.723L45.2439 75.7418ZM54.8927 81.074C54.0087 81.1116 53.2375 80.933 52.5792 80.5568C51.9491 80.19 51.6576 79.748 51.714 79.2214C51.7705 78.6947 52.1466 78.2339 52.8425 77.8295C53.5385 77.4346 54.319 77.2183 55.203 77.2089C56.087 77.1901 56.8394 77.3687 57.4788 77.7261C58.1371 78.1117 58.4569 78.5443 58.4193 79.0427C58.3911 79.5317 58.0149 79.9925 57.2908 80.4063C56.5666 80.8201 55.7673 81.0458 54.8927 81.0834V81.074Z" fill="white"/>
<path d="M113.932 15.3478C113.622 17.1911 112.823 18.4512 111.741 19.0625C111.647 19.1189 111.544 19.166 111.44 19.213C109.117 20.3791 106.851 21.6393 104.707 23.1063C103.973 23.6142 103.249 24.1502 102.619 24.7991C101.81 25.6267 101.171 26.6047 100.437 27.4887C99.7226 28.3633 98.6411 28.9182 97.6819 29.4824C95.5942 30.7144 93.4124 31.8147 91.1742 32.7739C89.5848 33.4604 87.9203 34.0717 86.1899 34.1187C85.3247 34.1281 84.4689 34.0059 83.6037 34.0623C81.7981 34.1751 80.3123 34.8428 78.9298 35.9619C76.118 38.2472 73.2121 40.6547 71.7544 43.965C70.4754 46.8709 70.2121 50.5667 67.5601 52.3253C65.9144 53.4256 63.6385 53.388 61.927 52.3724C60.5539 51.5636 59.5665 50.2188 58.88 48.7705C58.391 47.7455 58.0336 46.6452 57.4317 45.6765C56.9709 44.9148 56.3408 44.2471 55.9835 43.4289C55.6637 42.7142 55.5697 41.9336 55.4756 41.1625C55.1653 38.6798 54.855 36.1876 54.5446 33.7049C54.3001 31.7865 54.1402 29.5953 55.4474 28.1564C55.9364 27.6392 56.6042 27.2442 56.9333 26.6141C56.9333 26.6141 56.9709 26.5577 56.9803 26.5295C57.0179 26.4637 57.0462 26.3884 57.065 26.3132C57.2907 25.6925 57.1966 24.9778 57.3189 24.3101C57.6292 22.5233 59.3502 21.4042 60.7984 20.3133C62.4818 19.0343 63.9959 17.5108 65.2561 15.8275C66.6949 13.8996 67.8987 11.6802 69.9582 10.467C72.5255 8.94354 75.723 9.33852 78.6853 9.59244C82.1461 9.88397 85.6633 9.87456 89.077 9.24448C90.9485 8.88712 93.102 8.4075 94.7666 7.45767C96.7697 6.31976 98.7258 5.0878 100.672 3.86525C101.698 3.22576 102.713 2.60508 103.738 1.9938C103.992 1.84334 104.237 1.69287 104.481 1.5518C105.826 0.978145 107.528 1.34491 109.249 2.77436C112.55 5.51099 114.647 11.1441 113.932 15.3478Z" fill="#FFD2BB"/>
<path d="M56.1057 40.41C56.0774 41.3974 56.0492 42.3566 56.1433 43.3347C55.5132 41.7171 55.8329 40.062 55.9364 38.388C55.9928 37.504 56.0774 36.6294 56.1715 35.7454C56.2561 34.8238 56.3502 33.8928 56.4442 32.9712C56.5947 31.5135 56.7451 30.0559 56.8204 28.5982C56.8486 27.9681 56.9144 27.291 56.9332 26.6139C56.9332 26.6139 56.9708 26.5575 56.9802 26.5293C57.0179 26.4635 57.0461 26.3882 57.0649 26.313C57.4881 30.0089 56.4818 33.8082 56.1903 37.5699C56.1151 38.5197 56.1245 39.4601 56.1057 40.41Z" fill="#ED976B"/>
<path d="M56.7265 44.6607C57.065 44.9898 57.46 45.2155 57.9302 45.2343C59.5101 45.319 60.3377 43.2312 60.8926 42.0651C61.7296 40.3253 62.1904 38.4727 62.5947 36.6012C62.8393 35.5292 63.2154 34.4947 63.4881 33.4226C63.5164 33.3286 63.5446 33.2345 63.6104 33.1687C63.7044 33.0747 63.8549 33.0747 63.9866 33.0464C64.5696 32.943 64.974 32.4164 65.3126 31.9273C65.7264 31.3443 66.1401 30.7612 66.5539 30.1687C66.8925 29.6891 67.231 29.2095 67.485 28.6735C67.8611 27.8835 68.0304 27.0089 68.2937 26.1719C68.3407 26.0309 68.3878 25.8898 68.4724 25.7676C68.5476 25.6735 68.6417 25.5983 68.7357 25.523C69.4034 24.9494 69.9112 24.2065 70.4003 23.4823C70.5131 23.3225 70.626 23.1532 70.6918 22.9745C70.8329 22.5889 70.767 22.1657 70.8423 21.7708C70.7576 22.3726 70.5978 23.0215 70.1463 23.4353C69.6761 23.8679 69.1213 24.2253 68.7169 24.7331C68.2185 25.3538 68.0116 26.1437 67.7201 26.8773C67.1558 28.2879 66.2624 29.5387 65.369 30.78C65.0304 31.2502 64.6825 31.7299 64.2311 32.1154C64.0618 32.2565 63.8643 32.454 63.6762 32.5668C63.6104 32.6044 62.9051 32.8019 62.9145 32.7549C62.4537 34.7016 61.9553 36.6389 61.4192 38.5667C61.1465 39.526 60.8738 40.4852 60.5822 41.4444C60.3471 42.2438 60.1026 42.9867 59.5666 43.645C59.2092 44.087 58.7296 44.4726 58.1653 44.5761C57.5353 44.6983 56.6701 44.2939 56.1528 43.7673L56.7265 44.6607Z" fill="#ED976B"/>
<path d="M56.228 42.7705C56.275 42.8457 56.3314 42.9021 56.3973 42.9115C56.717 42.968 57.1026 42.6482 57.2248 42.3755C57.3941 42.0181 57.4787 41.6138 57.5352 41.2188C57.6668 40.2031 57.4035 39.131 56.6324 38.4069C56.6042 38.3787 56.5759 38.3505 56.5383 38.3505C56.4913 38.3411 56.4349 38.3693 56.3973 38.3975C56.1904 38.548 56.1245 38.8301 56.0869 39.084C55.9459 39.9774 55.927 40.8802 56.0305 41.783C56.0587 41.9899 56.0869 42.5166 56.228 42.7705Z" fill="#ED976B"/>
<path d="M59.9895 50.5949C60.7983 50.9804 61.6729 51.1403 62.5381 50.7547C63.5725 50.2845 64.2684 49.2406 64.5223 48.1309C64.7669 47.0212 64.6164 45.8551 64.306 44.7642C64.0051 43.6733 63.5537 42.6201 63.1775 41.548C63.1117 41.3505 63.0459 41.1342 63.0365 40.9273C63.0271 40.5229 63.2246 40.1467 63.3656 39.7706C63.9581 38.2471 63.7418 36.5449 63.6289 34.918C63.6007 34.5888 63.5913 34.2409 63.7512 33.9493C63.8641 33.7707 64.0333 33.639 64.1932 33.4979C65.6038 32.3224 66.6665 30.7237 67.212 28.9651C66.0458 30.5732 64.6728 32.0215 63.1399 33.291C63.5255 35.36 63.0835 37.4853 62.8296 39.5825C62.792 39.874 62.7543 40.1844 62.792 40.4759C62.8202 40.7486 62.8954 41.0025 62.9706 41.2564C63.1305 41.7549 63.281 42.2439 63.4315 42.7423C63.8829 44.1906 64.3343 45.6952 64.165 47.2093C64.0521 48.3096 63.5255 49.4287 62.6321 50.1058C61.7387 50.7829 60.7418 50.6513 59.7544 50.2939L59.9895 50.5949Z" fill="#ED976B"/>
<path d="M58.8612 48.5354C58.9834 48.8176 59.3502 49.4383 59.764 49.1561C59.9427 49.0339 60.0931 48.526 60.1872 48.338C60.3282 48.0464 60.4599 47.7549 60.4787 47.4257C60.4975 47.059 60.3847 46.7016 60.2436 46.3725C60.0743 45.9775 59.858 45.6013 59.6041 45.244C59.4536 45.0277 59.275 44.8208 59.0493 44.6985C58.3063 44.2847 57.8079 45.0183 57.9396 45.6766C58.137 46.6546 58.4474 47.6232 58.8424 48.5448L58.8612 48.5354Z" fill="#ED976B"/>
<path d="M66.4599 50.0965C66.347 51.6106 64.5038 53.0965 63.0649 53.3504C66.6009 52.7297 66.4129 47.2282 65.5947 44.6797C65.51 44.4258 65.416 44.1625 65.3972 43.8991C65.3784 43.6264 65.4348 43.3537 65.4912 43.0904C65.7357 41.8302 65.8204 40.5418 65.7452 39.2628C65.7452 39.1406 65.7263 39.0089 65.764 38.8867C65.8204 38.6986 65.9709 38.5575 66.1213 38.4259C68.1432 36.6108 70.1746 34.0435 69.7984 31.147C70.1652 31.4103 70.5977 31.5702 71.0397 31.6078C70.4003 32.4165 70.2592 33.0184 70.0617 33.9965C69.836 35.1156 69.1777 36.1124 68.416 36.9776C67.8517 37.6265 67.1276 38.1813 66.6292 38.8867C66.1777 39.5168 66.3658 40.0152 66.4317 40.7299C66.5069 41.4728 66.4317 42.2252 66.2342 42.9399C66.1495 43.222 66.0461 43.5042 66.0273 43.7957C65.9991 44.1154 66.0649 44.4258 66.1213 44.7361C66.4317 46.4571 66.5915 48.3567 66.4599 50.1059V50.0965Z" fill="#FFB78C"/>
<path d="M60.8926 62.1057L71.2655 56.0776C71.3219 56.0399 71.3877 56.0117 71.4441 55.9835C72.3093 55.6167 73.3438 55.7766 74.5664 56.4819C75.7889 57.1873 76.8046 58.2123 77.6133 59.5383L67.2404 65.5664C66.4411 64.2404 65.416 63.2154 64.1935 62.5101C62.9709 61.8047 61.9365 61.6355 61.0713 62.0116C61.0054 62.0398 60.949 62.0681 60.8926 62.1057Z" fill="#70BFF1"/>
<path d="M77.7542 66.0273L67.3813 72.0554C68.0866 71.6416 68.444 70.7952 68.444 69.5068C68.444 68.2279 68.049 66.9113 67.2402 65.5665L77.6131 59.5383C78.4125 60.8831 78.8169 62.1997 78.8169 63.4787C78.8169 64.7671 78.4595 65.6229 77.7542 66.0273Z" fill="#2D89C3"/>
<path d="M67.2406 65.5758C68.04 66.9206 68.4444 68.2372 68.4444 69.5162C68.4444 70.8704 68.0494 71.745 67.2689 72.1305C66.4695 72.5255 65.4538 72.3468 64.1749 71.6133C62.9147 70.8798 61.852 69.8547 61.0338 68.5381C60.2063 67.2215 59.7925 65.8861 59.7925 64.5319C59.7925 63.2529 60.2251 62.416 61.0809 62.0304C61.946 61.6636 62.9805 61.8235 64.2031 62.5288C65.4256 63.2341 66.4413 64.2592 67.25 65.5852L67.2406 65.5758Z" fill="#439FD9"/>
<path d="M67.2122 9.58305L77.5851 3.55493L77.4535 51.8081L67.0806 57.8457L67.2122 9.58305Z" fill="#2D89C4"/>
<path d="M61.062 6.02812L71.4349 0L77.5853 3.55481L67.2124 9.58293L61.062 6.02812Z" fill="#71BFF1"/>
<path d="M67.2122 9.58288L67.0806 57.8455L60.9302 54.2907L61.0618 6.02808L67.2122 9.58288Z" fill="#439FD9"/>
<path d="M85.6823 15.8839C84.8923 17.6895 84.4315 19.6174 83.7074 21.4512C82.5883 24.3101 80.8579 26.8775 79.4096 29.5859C77.9614 32.2943 76.7764 35.2567 76.8705 38.3224C76.9175 39.7989 77.4347 41.4823 78.8078 42.0465C79.5601 42.3569 80.4347 42.2628 81.1964 41.9807C83.7732 41.0309 85.212 38.3507 86.4064 35.8773C87.1399 34.3727 87.8734 32.868 88.607 31.3539C89.1712 30.1878 89.7637 28.9934 90.6853 28.0812C91.4094 27.3665 92.3028 26.8587 93.1398 26.2944C94.8608 25.1377 96.4031 23.6706 97.4564 21.8932C98.5096 20.1064 99.0551 17.9811 98.7448 15.9309C98.4438 13.8808 97.2307 11.9341 95.4156 10.9373C92.4345 9.30093 89.0396 10.8808 87.1117 13.373C86.5192 14.1441 86.049 14.9999 85.6634 15.8839H85.6823Z" fill="url(#paint0_linear_199_756)"/>
<path d="M80.7822 34.1093C81.6945 33.846 82.8042 34.1281 83.2932 34.9369C83.7446 35.6704 83.6035 36.6202 83.3966 37.4666C83.0581 38.8114 82.5502 40.1468 81.6192 41.1719C81.5816 41.2095 81.544 41.2471 81.497 41.2565C81.45 41.2565 81.4029 41.2377 81.3559 41.2189C80.1898 40.57 77.7353 39.4321 77.8011 37.8145C77.8669 36.3193 79.3622 34.5231 80.7728 34.1187L80.7822 34.1093Z" fill="#E28A64"/>
<path d="M111.506 54.7233C110.857 53.6136 109.767 52.5885 108.215 51.7327C102.977 48.8456 94.5505 49.0337 89.397 52.1747C87.7983 53.1434 86.7168 54.2813 86.1243 55.4756L85.5977 55.6449L85.6165 57.4787C85.5506 59.5289 86.8672 61.5696 89.5851 63.0648C94.842 65.9614 103.268 65.7639 108.403 62.6417C110.961 61.0806 112.23 59.0963 112.212 57.1308C112.212 57.1308 112.212 57.0932 112.212 57.0743V55.2123L111.506 54.7139V54.7233Z" fill="#AF8D00"/>
<path d="M89.3966 49.9741C94.5501 46.8425 102.976 46.645 108.214 49.5321C113.471 52.4286 113.556 57.3094 108.403 60.4411C103.268 63.5633 94.8416 63.7608 89.5846 60.8643C84.3465 57.9771 84.2618 53.0963 89.3966 49.9741Z" fill="#F7C600"/>
<path d="M111.469 56.2846L111.939 56.5386C111.44 57.9586 110.265 59.3222 108.403 60.4507C106.259 61.7579 103.56 62.5479 100.748 62.8018C98.9797 61.8331 98.9609 60.1874 100.682 59.1247L105.13 56.4257C106.86 55.3724 109.701 55.3066 111.478 56.2752L111.469 56.2846Z" fill="#000C24"/>
<path d="M105.449 57.8174C105.525 58.551 104.509 59.1999 103.23 59.2281H103.155C102.572 59.2375 102.007 59.1246 101.584 58.8895L99.064 57.5071L102.224 55.5886L104.791 56.9899C105.186 57.2062 105.421 57.4977 105.459 57.8174H105.449Z" fill="#FFE5CC"/>
<path d="M95.3311 56.9708C96.4031 57.1401 97.1085 57.6009 96.9016 57.9959C96.6947 58.4003 95.6508 58.5884 94.5787 58.4191C93.5066 58.2498 92.8013 57.789 93.0082 57.394C93.2151 56.9897 94.259 56.8016 95.3311 56.9708Z" fill="#000C24"/>
<path d="M100.936 53.5573C101.284 54.1686 102.111 54.5541 102.798 54.4131C103.484 54.272 103.757 53.6607 103.409 53.0494C103.061 52.4382 102.234 52.0526 101.547 52.1937C100.861 52.3347 100.588 52.946 100.936 53.5573Z" fill="#000C24"/>
<path d="M97.4559 51.2343C95.6597 51.1027 93.8258 51.4788 92.5563 52.2594C91.2679 53.0399 90.7036 54.1308 91.061 55.1747C91.202 55.5885 91.6064 55.9647 92.1895 56.2092L96.6753 58.1276C97.4841 58.4756 98.4997 58.6073 99.5154 58.5038L100.334 58.4192C102.073 58.2405 103.437 57.4317 103.7 56.4255L103.841 55.8988C104.001 55.2687 103.691 54.6481 102.986 54.1779L99.3931 51.7986C98.9229 51.4882 98.274 51.2908 97.5593 51.2343H97.4653H97.4559Z" fill="#FFE5CC"/>
<path d="M91.1745 53.6796C91.2215 53.7549 91.2685 53.8301 91.3249 53.9053C91.3813 53.9806 91.4942 54.037 91.5976 54.0934C91.8045 54.2063 92.0114 54.3097 92.2748 54.3755C92.6133 54.4508 93.0177 54.5354 93.3845 54.4978C93.9205 54.4414 94.2779 54.1498 94.5976 53.8865C94.9173 53.6326 95.3405 53.3505 95.886 53.3505C96.4032 53.3505 96.7888 53.6044 97.1556 53.8019C97.5317 53.9994 98.1054 54.1687 98.538 53.9994C98.8953 53.8583 98.9424 53.5762 99.1116 53.3411C99.3938 52.9555 100.052 52.6076 100.767 52.7674C101.03 52.8238 101.284 52.8991 101.566 52.8897C101.434 52.7486 101.425 52.5605 101.538 52.4101C101.971 51.8458 103.137 52.7486 103.278 53.0025C103.381 53.1812 103.485 53.3693 103.522 53.5668C103.56 53.7455 103.532 53.9241 103.353 54.0934C103.287 54.1498 103.043 54.2439 103.071 54.3097C103.108 54.3944 103.155 54.4696 103.231 54.5448C103.325 54.6295 103.475 54.6859 103.626 54.7423C103.851 54.8175 104.134 54.8175 104.387 54.7611C104.632 54.7047 104.839 54.6013 104.999 54.479C105.347 54.2157 105.497 53.8677 105.441 53.548C105.375 53.2282 105.102 52.9179 104.707 52.6922C104.444 52.5417 104.162 52.4853 103.851 52.3818C103.55 52.2784 103.297 52.1373 103.118 51.9681C102.798 51.6577 102.742 51.2816 102.441 50.9618C102.112 50.6138 101.482 50.3693 100.786 50.3129C99.5819 50.2283 98.3875 50.6891 97.1838 50.6139C96.5725 50.5762 96.027 50.3976 95.4158 50.3599C94.7387 50.3223 94.0428 50.4634 93.4503 50.6797C93.0177 50.8396 92.6227 51.037 92.2748 51.2533C91.3813 51.8176 90.9393 52.5135 91.0146 53.2658C91.024 53.4069 91.0898 53.5668 91.1651 53.7078L91.1745 53.6796Z" fill="#FD6565"/>
<path d="M94.7009 56.4257C94.6539 56.4727 94.6068 56.5291 94.5598 56.5761C94.4094 56.7266 94.2213 56.8865 93.958 56.9805C93.6946 57.0746 93.3749 57.1028 93.1774 57.2627C92.3968 57.8645 94.2965 58.3253 95.03 58.4006C95.2651 58.4288 95.5002 58.4382 95.7448 58.4288C95.9799 58.4288 96.1868 58.41 96.3842 58.3253C96.5065 58.2689 96.61 58.2031 96.7322 58.1467C97.0896 57.9868 97.5786 58.0996 97.7573 58.3065C97.8607 58.4194 97.8795 58.5698 97.7949 58.6921C97.5222 59.0871 96.8545 59.3974 96.1209 59.4538C95.4438 59.5103 95.1899 59.1247 94.6915 58.9554C94.3435 58.8332 93.9486 58.7955 93.5536 58.7673C93.3279 58.7485 93.0834 58.7673 92.8671 58.7297C91.9266 58.5604 91.4752 58.0338 91.3624 57.5072C91.2589 57.0275 91.3154 56.5197 90.9768 56.0777C90.5912 55.5887 89.8013 55.269 89.4063 54.7799C89.237 54.573 89.143 54.432 89.1806 54.1875C89.2182 53.9335 89.3593 53.689 89.5944 53.4633C90.1116 52.9743 91.306 53.059 91.9454 53.3881C92.3404 53.5856 92.5849 53.8865 92.6225 54.1875C92.6414 54.3567 92.6037 54.526 92.7072 54.6859C92.8577 54.9304 93.262 55.0056 93.6664 55.0715C94.1178 55.1373 94.588 55.2501 94.8231 55.4947C94.9736 55.6545 95.0018 55.852 94.9454 56.0401C94.8984 56.1718 94.8231 56.294 94.7197 56.4069L94.7009 56.4257Z" fill="#FD6565"/>
<path d="M92.9234 51.8175L91.8513 52.4664C89.8858 53.6608 89.9234 55.5228 91.9265 56.6137L93.7698 57.6199L93.9955 57.0087L92.425 56.1529C90.7322 55.2313 90.9109 53.7736 92.5754 52.7674L93.4782 52.2219C95.1334 51.2157 97.6443 51.0276 99.3371 51.9586L101.481 53.1341L101.97 52.6639L100.108 51.6482C98.1051 50.5479 94.8889 50.6326 92.9234 51.8269V51.8175Z" fill="#000C24"/>
<path d="M101.416 57.695L100.776 58.0805C100.56 58.2122 100.184 58.2028 99.9299 58.0617C99.676 57.9207 99.6478 57.7044 99.8546 57.5727L100.494 57.1871C100.71 57.0555 101.087 57.0649 101.341 57.2059C101.594 57.347 101.623 57.5633 101.416 57.695Z" fill="#000C24"/>
<path d="M100.767 57.6481L99.8637 58.1653C99.1584 58.5697 98.0957 58.6732 97.2305 58.4287L96.2148 58.1371L96.3089 58.0337L97.3245 58.3252C98.1145 58.5509 99.0831 58.4569 99.7226 58.0807L100.625 57.5635L100.767 57.6387V57.6481Z" fill="#000C24"/>
<defs>
<linearGradient id="paint0_linear_199_756" x1="95.1994" y1="11.9059" x2="84.0365" y2="33.3664" gradientUnits="userSpaceOnUse">
<stop stop-color="#FFD2BB"/>
<stop offset="1" stop-color="#F7AD89"/>
</linearGradient>
</defs>
</svg>
