<svg width="92" height="103" viewBox="0 0 92 103" fill="none" xmlns="http://www.w3.org/2000/svg">
<path d="M84.0535 49.5854V101.5" stroke="#439FD9" stroke-width="2" stroke-miterlimit="10"/>
<path d="M75.859 8.5459H19.2732V21.5644H75.859V8.5459Z" stroke="#439FD9" stroke-width="2" stroke-miterlimit="10"/>
<path d="M12.3049 28.7563H82.675" stroke="#439FD9" stroke-width="2" stroke-miterlimit="10"/>
<path d="M1.28394 35.6475H90.7159" stroke="#439FD9" stroke-width="2" stroke-miterlimit="10"/>
<path d="M38.6479 100.887V61.3021C38.6479 56.4011 42.6301 52.4189 47.5312 52.4189C52.4322 52.4189 56.4144 56.4011 56.4144 61.3021V100.887" stroke="#439FD9" stroke-width="2" stroke-miterlimit="10"/>
<path d="M6.33765 101.5H88.3414" stroke="#439FD9" stroke-width="2" stroke-miterlimit="10"/>
<path d="M11.2327 50.1982V101.5" stroke="#439FD9" stroke-width="2" stroke-miterlimit="10"/>
<path d="M32.675 57.0142V100.888" stroke="#439FD9" stroke-width="2" stroke-miterlimit="10"/>
<path d="M62.9939 57.0142V100.888" stroke="#439FD9" stroke-width="2" stroke-miterlimit="10"/>
<path d="M67.2822 57.0142H79.8412" stroke="#439FD9" stroke-width="2" stroke-miterlimit="10"/>
<path d="M67.2822 69.4189H79.8412" stroke="#439FD9" stroke-width="2" stroke-miterlimit="10"/>
<path d="M11.2327 40.4722H82.6748" stroke="#439FD9" stroke-width="2" stroke-miterlimit="10"/>
<path d="M37.1167 15.0547H58.5525" stroke="#439FD9" stroke-width="2" stroke-miterlimit="10"/>
<path d="M29.6117 18.0417C30.9651 18.0417 32.0622 16.9446 32.0622 15.5912C32.0622 14.2378 30.9651 13.1406 29.6117 13.1406C28.2583 13.1406 27.1611 14.2378 27.1611 15.5912C27.1611 16.9446 28.2583 18.0417 29.6117 18.0417Z" stroke="#439FD9" stroke-width="2" stroke-miterlimit="10"/>
<path d="M22.0301 51.5764C23.3835 51.5764 24.4807 50.4792 24.4807 49.1258C24.4807 47.7724 23.3835 46.6753 22.0301 46.6753C20.6767 46.6753 19.5796 47.7724 19.5796 49.1258C19.5796 50.4792 20.6767 51.5764 22.0301 51.5764Z" stroke="#439FD9" stroke-width="2" stroke-miterlimit="10"/>
<path d="M73.5619 51.5764C74.9153 51.5764 76.0124 50.4792 76.0124 49.1258C76.0124 47.7724 74.9153 46.6753 73.5619 46.6753C72.2085 46.6753 71.1113 47.7724 71.1113 49.1258C71.1113 50.4792 72.2085 51.5764 73.5619 51.5764Z" stroke="#439FD9" stroke-width="2" stroke-miterlimit="10"/>
<path d="M67.2823 18.0417C68.6357 18.0417 69.7329 16.9446 69.7329 15.5912C69.7329 14.2378 68.6357 13.1406 67.2823 13.1406C65.9289 13.1406 64.8318 14.2378 64.8318 15.5912C64.8318 16.9446 65.9289 18.0417 67.2823 18.0417Z" stroke="#439FD9" stroke-width="2" stroke-miterlimit="10"/>
<path d="M47.5315 52.342V40.4722" stroke="#439FD9" stroke-width="2" stroke-miterlimit="10"/>
<path d="M15.7507 57.0142H28.3097" stroke="#439FD9" stroke-width="2" stroke-miterlimit="10"/>
<path d="M15.7507 69.4189H28.3097" stroke="#439FD9" stroke-width="2" stroke-miterlimit="10"/>
<path d="M1.28394 35.6475L11.2329 40.472" stroke="#439FD9" stroke-width="2" stroke-miterlimit="10"/>
<path d="M82.675 40.472L90.7159 35.6475" stroke="#439FD9" stroke-width="2" stroke-miterlimit="10"/>
<path d="M65.5976 8.5453L58.5523 1.5H37.1165L30.2244 8.39214" stroke="#439FD9" stroke-width="2" stroke-miterlimit="10"/>
<path d="M6.33765 50.1982H17.8947" stroke="#439FD9" stroke-width="2" stroke-miterlimit="10"/>
<path d="M78.3101 50.1982H89.8735" stroke="#439FD9" stroke-width="2" stroke-miterlimit="10"/>
<path d="M6.33765 44.6846H89.873" stroke="#439FD9" stroke-width="2" stroke-miterlimit="10"/>
</svg>
