<svg width="142" height="100" viewBox="0 0 142 100" fill="none" xmlns="http://www.w3.org/2000/svg">
<path d="M116.031 34.2456L92.1058 20.4232C91.3829 20.0065 90.9412 18.8818 91.1269 17.9178L94.2895 1.14814C94.4702 0.184131 95.2032 -0.262725 95.9311 0.159027L119.857 13.9814C120.579 14.3982 121.021 15.5228 120.835 16.4869L117.673 33.2565C117.492 34.2205 116.759 34.6674 116.031 34.2456Z" fill="url(#paint0_linear_153_5143)"/>
<path d="M119.756 13.9212L107.889 7.06775L104.169 26.7847L115.931 34.1904C116.709 34.6373 117.477 34.2758 117.648 33.377L120.856 16.3614C121.026 15.4626 120.534 14.3731 119.756 13.9212Z" fill="url(#paint1_linear_153_5143)"/>
<path d="M96.0213 0.214242L107.889 7.06771L104.194 26.6591L92.2011 20.4784C91.423 20.0316 90.931 18.937 91.1017 18.0383L94.3095 1.0226C94.4802 0.123867 95.2482 -0.237635 96.0263 0.209221L96.0213 0.214242Z" fill="url(#paint2_linear_153_5143)"/>
<path d="M91.2524 19.3186C91.4482 19.8057 91.7846 20.2375 92.2012 20.4785L115.931 34.1854C116.353 34.4264 116.769 34.4314 117.091 34.2456L106.458 14.6543L91.2524 19.3186Z" fill="url(#paint3_linear_153_5143)"/>
<path d="M120.705 15.081C120.509 14.594 120.173 14.1622 119.756 13.9212L96.0214 0.214236C95.5998 -0.0267654 95.1831 -0.0317863 94.8618 0.153985L105.494 19.7454L120.7 15.081H120.705Z" fill="url(#paint4_linear_153_5143)"/>
<path d="M13.7129 97.7996L81.2524 58.7825C83.2956 57.6026 84.5355 54.4395 84.0185 51.7132L75.0928 4.3715C74.5808 1.64518 72.5075 0.394986 70.4644 1.57489L2.9249 40.5869C0.881748 41.7668 -0.358199 44.93 0.158864 47.6563L9.08448 94.998C9.59652 97.7243 11.6698 98.9745 13.7129 97.7946V97.7996Z" fill="url(#paint5_linear_153_5143)"/>
<path d="M3.20109 40.4313L36.6947 21.0809L47.1916 76.7371L13.9891 97.6389C11.7954 98.9092 9.62672 97.8799 9.14982 95.3444L0.0936884 47.3149C-0.383214 44.7794 1.00733 41.6966 3.20109 40.4263V40.4313Z" fill="url(#paint6_linear_153_5143)"/>
<path d="M70.1885 1.73058L36.6948 21.081L47.1264 76.3857L80.9815 58.9432C83.1753 57.673 84.5658 54.5902 84.0889 52.0546L75.0278 4.03013C74.5509 1.4946 72.3822 0.465323 70.1885 1.7356V1.73058Z" fill="url(#paint7_linear_153_5143)"/>
<path d="M83.6622 55.6696C83.115 57.0403 82.1662 58.2603 80.9815 58.9432L13.9892 97.6389C12.8045 98.3218 11.6298 98.3318 10.7212 97.8046L40.7359 42.4999L83.6622 55.6696Z" fill="url(#paint8_linear_153_5143)"/>
<path d="M0.515137 43.7049C1.06232 42.3342 2.01111 41.1142 3.19583 40.4313L70.1881 1.73056C71.3728 1.04773 72.5475 1.03768 73.4562 1.56487L43.4414 56.8696L0.515137 43.7049Z" fill="url(#paint9_linear_153_5143)"/>
<path d="M97.9189 71.641L98.7573 86.2567C98.8175 87.296 99.9019 87.9487 100.851 87.5119L116.854 80.1463C116.854 80.1463 104.34 71.0084 104.259 71.3046C104.179 71.6008 97.924 71.641 97.924 71.641H97.9189Z" fill="#AF8D00"/>
<path d="M139.409 54.9567C129.936 56.0813 99.2489 60.098 87.6375 61.6244C86.1064 61.8252 85.6596 63.8335 86.9649 64.662L97.9186 71.641L98.7519 86.2115C98.787 86.7989 99.1384 87.2609 99.6103 87.4868C99.9918 87.6675 103.481 76.8928 103.481 76.8928C103.481 76.8928 113.591 89.5504 118.39 95.5352C119.575 97.0114 121.889 96.7503 122.712 95.0482C126.914 86.3571 137.416 64.6319 141.005 57.201C141.548 56.0864 140.639 54.8111 139.409 54.9567Z" fill="#F7C600"/>
<path d="M99.6107 87.4868C99.9922 87.6676 103.481 76.8928 103.481 76.8928L129.279 62.9499C129.455 62.8545 129.344 62.5884 129.154 62.6436L97.9189 71.641L98.7523 86.2115C98.7874 86.799 99.1388 87.2609 99.6107 87.4868Z" fill="#D3AA00"/>
<path d="M21.0571 94.8775C35.2588 98.5879 56.2425 95.5804 64.0938 81.2107C67.2615 75.4116 67.6631 68.4075 63.9432 62.5833C59.2445 55.2177 51.0418 58.642 50.61 67.072C49.8972 80.9145 63.3408 94.8675 75.4793 98.2264C82.4923 100.169 89.9872 98.5427 94.3395 92.3169" stroke="#9CCDEB" stroke-width="2" stroke-miterlimit="10" stroke-dasharray="4 4"/>
<defs>
<linearGradient id="paint0_linear_153_5143" x1="-91.1155" y1="-96.8639" x2="-64.6229" y2="-81.5648" gradientUnits="userSpaceOnUse">
<stop stop-color="#7BFFBC"/>
<stop offset="1" stop-color="#59EFAA"/>
</linearGradient>
<linearGradient id="paint1_linear_153_5143" x1="-67.4788" y1="-62.3535" x2="-74.4909" y2="-87.3282" gradientUnits="userSpaceOnUse">
<stop offset="0.77" stop-color="#59EFAA"/>
<stop offset="0.85" stop-color="#54EBA7"/>
<stop offset="0.94" stop-color="#46DF9E"/>
<stop offset="1" stop-color="#3AD596"/>
</linearGradient>
<linearGradient id="paint2_linear_153_5143" x1="-116.436" y1="-90.7167" x2="-91.3054" y2="-97.1177" gradientUnits="userSpaceOnUse">
<stop offset="0.77" stop-color="#59EFAA"/>
<stop offset="0.85" stop-color="#54EBA7"/>
<stop offset="0.94" stop-color="#46DF9E"/>
<stop offset="1" stop-color="#3AD596"/>
</linearGradient>
<linearGradient id="paint3_linear_153_5143" x1="-92.397" y1="-64.0618" x2="-78.062" y2="-88.8768" gradientUnits="userSpaceOnUse">
<stop offset="0.77" stop-color="#3AD596"/>
<stop offset="0.86" stop-color="#3AD095"/>
<stop offset="0.95" stop-color="#3AC292"/>
<stop offset="1" stop-color="#3BBA91"/>
</linearGradient>
<linearGradient id="paint4_linear_153_5143" x1="-79.8122" y1="-106.291" x2="-62.5815" y2="-81.2186" gradientUnits="userSpaceOnUse">
<stop stop-color="#7BFFBC"/>
<stop offset="1" stop-color="#59EFAA"/>
</linearGradient>
<linearGradient id="paint5_linear_153_5143" x1="256.585" y1="-74.4174" x2="181.802" y2="-31.2314" gradientUnits="userSpaceOnUse">
<stop stop-color="#7BDAFF"/>
<stop offset="1" stop-color="#59BDEF"/>
</linearGradient>
<linearGradient id="paint6_linear_153_5143" x1="189.858" y1="22.9865" x2="209.657" y2="-47.5007" gradientUnits="userSpaceOnUse">
<stop offset="0.77" stop-color="#59BDEF"/>
<stop offset="0.85" stop-color="#54B8EB"/>
<stop offset="0.93" stop-color="#48AAE1"/>
<stop offset="1" stop-color="#3A9BD5"/>
</linearGradient>
<linearGradient id="paint7_linear_153_5143" x1="309.636" y1="-46.3433" x2="238.696" y2="-64.4128" gradientUnits="userSpaceOnUse">
<stop offset="0.77" stop-color="#59BDEF"/>
<stop offset="0.85" stop-color="#54B8EB"/>
<stop offset="0.93" stop-color="#48AAE1"/>
<stop offset="1" stop-color="#3A9BD5"/>
</linearGradient>
<linearGradient id="paint8_linear_153_5143" x1="260.19" y1="18.1721" x2="219.729" y2="-51.8687" gradientUnits="userSpaceOnUse">
<stop offset="0.77" stop-color="#3A9BD5"/>
<stop offset="0.84" stop-color="#3796D1"/>
<stop offset="0.92" stop-color="#3088C8"/>
<stop offset="1" stop-color="#2573BA"/>
</linearGradient>
<linearGradient id="paint9_linear_153_5143" x1="224.663" y1="-101.035" x2="176.035" y2="-30.2571" gradientUnits="userSpaceOnUse">
<stop stop-color="#7BDAFF"/>
<stop offset="1" stop-color="#59BDEF"/>
</linearGradient>
</defs>
</svg>
