<svg width="145" height="120" viewBox="0 0 145 120" fill="none" xmlns="http://www.w3.org/2000/svg">
<path d="M99.8671 60.6752C100.232 56.9996 97.7711 53.729 95.5333 50.7824C93.012 47.4612 90.5717 43.9678 89.3567 39.9783C87.1088 32.6473 89.5389 24.1417 95.2397 19.0079C100.94 13.8742 109.568 12.325 116.737 15.0488C119.46 16.0816 122.002 17.7118 123.784 20.0104C125.89 22.7241 126.791 26.1668 127.409 29.5488C128.077 33.1637 128.452 36.9912 127.156 40.4339C126.093 43.259 124.007 45.5575 122.144 47.9269C119.308 51.5418 116.909 55.501 115.015 59.6829C114.843 60.0575 114.671 60.4423 114.367 60.7157C113.911 61.1207 113.263 61.2017 112.656 61.2524C108.342 61.6068 103.968 61.3435 99.8773 60.6752H99.8671Z" fill="white"/>
<path d="M27.9342 80.8861C24.2181 75.9144 23.2258 69.1605 24.775 63.1459C26.3344 57.1312 30.2733 51.876 35.2652 48.1801C38.2523 45.9727 41.6545 44.2614 45.2998 43.5526C48.945 42.8438 52.8434 43.178 56.1647 44.8386C59.8707 46.6815 62.6147 49.9825 65.1057 53.2834C66.422 55.0251 67.708 56.8072 68.7914 58.7108C69.9559 60.7663 70.8672 62.9636 71.8291 64.9989C70.6343 62.5687 70.7558 59.6221 71.7684 57.1008C72.7708 54.5897 74.5934 52.4633 76.6692 50.7216C79.555 48.2915 83.0383 46.5094 86.7645 45.8917C88.0505 45.679 89.4175 45.6183 90.592 46.1651C91.7565 46.7017 92.5868 47.7447 93.3665 48.7573C96.1308 52.3114 98.9964 56.0883 99.8672 60.4828C99.0571 60.5841 98.8749 61.6574 98.885 62.4776L99.0875 71.854C99.128 73.788 99.1786 75.7828 99.9887 77.5446C100.829 79.3673 102.469 80.8051 104.393 81.3924C105.335 81.6759 106.317 81.767 107.299 81.7974C109.335 81.8582 111.502 81.6557 113.152 80.4507C114.428 79.5191 115.258 78.0813 115.724 76.5726C116.19 75.0638 116.332 73.4741 116.554 71.7426C120.574 69.6567 125.354 69.0998 129.748 70.1934C134.143 71.2869 138.102 74.031 140.674 77.7471C141.524 78.9825 142.233 80.3393 142.588 81.7974C142.952 83.3264 142.922 84.9263 142.861 86.4957C142.76 89.4018 142.588 92.3788 141.484 95.0722C139.55 99.7604 135.105 102.889 130.487 105.451C124.878 107.507 118.883 108.519 112.909 108.398C112.909 108.398 18.7806 107.102 18.649 106.97C15.4897 107.598 12.1381 106.808 9.39406 105.107C6.65 103.416 4.50335 100.864 2.96425 98.039C2.53897 97.2695 2.16432 96.4696 1.89092 95.6291C0.584708 91.6396 1.8808 87.0425 4.71599 83.9441C7.55119 80.8456 11.7331 79.1749 15.9251 78.9015C20.1172 78.6281 24.3092 79.6609 27.9443 80.876L27.9342 80.8861Z" fill="white"/>
<path d="M9.52582 100.064C9.42456 100.064 9.32331 100.003 9.2828 99.9022L6.45773 92.4497C6.4071 92.3181 6.47798 92.1662 6.60962 92.1155C6.74125 92.0649 6.89314 92.1358 6.94377 92.2674L9.76884 99.7199C9.81947 99.8516 9.74859 100.003 9.61695 100.054C9.58657 100.064 9.5562 100.074 9.52582 100.074V100.064Z" fill="#000C24"/>
<path d="M13.9302 103.639C13.829 103.639 13.7277 103.578 13.6872 103.477L10.9533 96.6417C10.9027 96.5101 10.9634 96.3582 11.095 96.3076C11.2267 96.2569 11.3786 96.3177 11.4292 96.4493L14.1631 103.284C14.2138 103.416 14.153 103.568 14.0214 103.618C13.991 103.628 13.9606 103.639 13.9302 103.639Z" fill="#000C24"/>
<path d="M16.2897 103.264C16.1985 103.264 16.1074 103.213 16.0568 103.122L14.8214 100.57C14.7607 100.439 14.8214 100.287 14.9429 100.226C15.0746 100.165 15.2265 100.226 15.2872 100.348L16.5225 102.899C16.5833 103.031 16.5225 103.183 16.401 103.244C16.3605 103.264 16.3302 103.274 16.2897 103.274V103.264Z" fill="#000C24"/>
<path d="M31.225 80.6532C31.1136 80.6532 31.0124 80.5823 30.982 80.481C29.7062 76.6636 28.8455 72.6944 28.4101 68.6846C28.3999 68.5428 28.5012 68.4213 28.643 68.4011C28.7847 68.3808 28.9164 68.4922 28.9265 68.634C29.3518 72.6032 30.2125 76.532 31.4782 80.319C31.5187 80.4506 31.4478 80.6025 31.3162 80.643C31.2858 80.643 31.2655 80.6532 31.2351 80.6532H31.225Z" fill="#000C24"/>
<path d="M34.8299 80.724C34.7286 80.724 34.6375 80.6632 34.597 80.562C33.5844 78.1217 32.9769 75.5498 32.7845 72.907C32.7845 72.7652 32.8857 72.6437 33.0275 72.6336C33.1591 72.6234 33.2908 72.7348 33.3009 72.8766C33.4832 75.4586 34.0806 77.9799 35.0729 80.3696C35.1235 80.5012 35.0729 80.6531 34.9311 80.7038C34.9008 80.7139 34.8704 80.724 34.8299 80.724Z" fill="#000C24"/>
<path d="M38.7687 81.7165C38.6674 81.7165 38.5662 81.6457 38.5257 81.5444L37.0271 77.2612C36.9764 77.1296 37.0473 76.9777 37.1891 76.9372C37.3207 76.8866 37.4726 76.9575 37.5131 77.0992L39.0117 81.3824C39.0623 81.514 38.9914 81.6659 38.8497 81.7064C38.8193 81.7064 38.7889 81.7165 38.7687 81.7165Z" fill="#000C24"/>
<path d="M76.5071 64.3002C76.3958 64.3002 76.2844 64.2192 76.254 64.1078C75.6161 61.6776 75.3427 59.1664 75.444 56.6553C75.444 56.5135 75.5756 56.392 75.7072 56.4123C75.849 56.4123 75.9604 56.5338 75.9502 56.6755C75.849 59.1361 76.1122 61.5966 76.74 63.9761C76.7805 64.1179 76.6894 64.2495 76.5578 64.29C76.5375 64.29 76.5173 64.29 76.497 64.29L76.5071 64.3002Z" fill="#000C24"/>
<path d="M80.4867 64.8774C80.3855 64.8774 80.2842 64.8167 80.2437 64.7053C79.6159 62.9637 79.2008 61.1613 79.0084 59.3285C78.9983 59.1868 79.0995 59.0653 79.2413 59.045C79.383 59.0349 79.5045 59.1361 79.5248 59.2779C79.7172 61.0701 80.1222 62.8421 80.7298 64.5433C80.7804 64.6749 80.7095 64.8268 80.5779 64.8673C80.5475 64.8673 80.5171 64.8774 80.4867 64.8774Z" fill="#000C24"/>
<path d="M83.8684 65.0091C83.757 65.0091 83.6557 64.9382 83.6253 64.8268L82.5622 61.5258C82.5216 61.3942 82.5925 61.2423 82.7242 61.2018C82.8558 61.1613 83.0077 61.2322 83.0482 61.3638L84.1114 64.6648C84.1519 64.7964 84.081 64.9483 83.9494 64.9888C83.919 64.9888 83.8987 64.9989 83.8684 64.9989V65.0091Z" fill="#000C24"/>
<path d="M131.49 102.059C131.429 102.059 131.368 102.039 131.318 101.998C131.206 101.907 131.196 101.745 131.298 101.634C133.718 98.8998 135.51 95.5989 136.492 92.0852C136.533 91.9536 136.674 91.8726 136.806 91.903C136.938 91.9435 137.019 92.0852 136.988 92.2169C135.986 95.8014 134.143 99.1732 131.682 101.968C131.632 102.029 131.561 102.059 131.49 102.059Z" fill="#000C24"/>
<path d="M127.521 101.968C127.46 101.968 127.399 101.948 127.348 101.897C127.247 101.806 127.237 101.644 127.328 101.532C128.908 99.7705 130.234 97.796 131.247 95.6493C131.308 95.5177 131.46 95.4671 131.591 95.5278C131.723 95.5886 131.773 95.7405 131.713 95.8721C130.68 98.0593 129.333 100.074 127.713 101.877C127.662 101.937 127.591 101.958 127.521 101.958V101.968Z" fill="#000C24"/>
<path d="M123.177 102.555C123.177 102.555 123.085 102.545 123.045 102.515C122.923 102.444 122.883 102.282 122.964 102.16L125.485 98.0593C125.556 97.9378 125.718 97.8973 125.84 97.9783C125.961 98.0492 126.002 98.2112 125.921 98.3327L123.399 102.434C123.349 102.515 123.268 102.555 123.177 102.555Z" fill="#000C24"/>
<path d="M99.3608 61.0802C104.981 61.5662 110.641 61.4954 116.251 60.8777C116.615 65.6165 116.98 70.4667 115.754 75.0638C115.157 77.3117 114.063 79.59 112.038 80.7342C109.638 82.0809 106.651 81.4632 103.988 80.7646C102.955 80.4912 101.892 80.1975 101.062 79.5191C99.3811 78.1218 99.2596 75.6308 99.2697 73.4437C99.3001 69.1909 99.3203 64.9381 99.3608 61.0903V61.0802Z" fill="#F7C600"/>
<g opacity="0.13">
<path d="M128.887 32.1511C128.442 31.6853 127.622 31.7967 127.298 32.3536C127.075 32.9105 127.146 32.6371 127.055 33.4472C127.044 33.5484 127.034 33.6598 127.024 33.7611C126.963 34.0851 126.751 35.1483 126.68 35.3913C126.812 35.0774 126.812 35.0875 126.66 35.4318C125.91 37.5076 125.748 38.1151 124.786 39.796C124.543 40.282 124.088 41.3959 123.197 42.5299C122.144 44.0184 119.207 46.803 117.536 49.223C117.04 49.9116 115.967 51.4709 115.815 51.7342H115.805C115.177 52.5645 114.539 53.3847 114.073 54.3061C113.152 56.1693 113.233 56.1389 112.646 57.4856C112.312 58.3868 111.765 59.531 111.815 60.4524C111.815 60.5233 111.836 60.5942 111.856 60.6549C111.542 61.1916 111.421 61.8599 111.623 62.5889C112.18 64.3913 112.2 66.4975 112.099 69.8288C111.977 73.2817 112.19 73.9095 111.329 77.0484C110.833 78.547 111.177 77.6459 110.459 79.1141C110.286 79.4786 110.013 79.8128 110.013 80.2279C109.699 82.0607 112.17 82.972 113.203 81.5544C114.721 79.8431 115.44 77.575 115.926 75.3777C116.382 72.5425 116.483 70.0415 116.929 66.9227C117.111 65.5659 117.02 64.1989 116.899 62.8522C116.767 62.0017 116.747 61.0093 116.149 60.341C115.987 60.3613 115.835 60.3815 115.673 60.4018C115.4 60.4423 115.127 60.4727 114.853 60.5031C116.007 56.5135 116.949 54.3061 119.055 51.3494C120.443 49.628 121.992 48.0484 123.46 46.398C124.857 44.9196 126.093 43.2691 127.044 41.4667C127.561 40.201 127.47 40.3225 127.804 39.4112C127.855 39.2593 127.774 39.4517 127.733 39.5732C127.925 39.1277 128.108 38.672 128.27 38.2063C128.543 37.4975 128.705 36.7583 128.816 36.009C128.816 36.009 128.816 35.9989 128.816 35.9786C129.07 34.5104 129.586 32.951 128.887 32.1511Z" fill="#000C24"/>
</g>
<g opacity="0.13">
<path d="M112.514 57.7489C112.555 57.6578 112.595 57.5667 112.626 57.4857C112.636 57.4553 112.656 57.4148 112.666 57.3844C112.616 57.5059 112.565 57.6274 112.514 57.7489Z" fill="#000C24"/>
</g>
<g opacity="0.13">
<path d="M140.238 96.5101C140.613 96.0342 140.978 95.5583 141.332 95.0722C142.304 93.6445 143.144 92.156 143.894 90.6068C143.873 89.412 143.823 88.207 143.711 87.0122C143.549 85.3009 143.296 83.5998 142.942 81.9189C142.689 82.6176 142.486 83.1745 142.365 83.4783C141.767 84.7643 141.079 85.9996 140.35 87.2147C139.428 89.0171 138.497 90.8296 137.302 92.4801C136.846 93.2192 133.323 97.0771 131.014 98.8592C129.13 100.246 126.883 101.593 124.402 102.849C121.83 103.396 119.805 103.74 119.147 103.79C116.949 104.084 114.732 104.013 112.524 103.851C109.446 103.689 110.388 103.689 107.522 103.446C101.913 103.051 96.2827 102.798 90.6629 103.061C83.899 103.061 77.1249 103.183 70.3609 103.072C65.2272 103.041 60.0935 102.687 54.9597 102.707C50.4234 102.697 45.9073 103.072 41.3812 103.223C37.5536 103.365 33.7261 103.193 29.8885 103.274C27.0634 103.325 24.2586 103.628 21.4437 103.831C18.6692 103.983 15.8847 104.104 13.1102 104.307C12.1685 104.114 11.2471 103.882 10.3358 103.558C9.93074 103.517 7.10567 101.968 5.42481 100.874C4.08821 100.034 2.68074 99.325 1.3644 98.4542C1.01 98.2011 0.655602 97.9479 0.291077 97.7049C0.402459 97.8264 0.503716 97.9581 0.604973 98.0897C2.17446 99.8313 3.77432 101.543 5.51594 103.112C6.95379 104.408 8.51314 105.522 10.1535 106.464C11.4698 106.464 12.7761 106.464 14.0924 106.575C16.3201 106.778 18.5376 107.162 20.7349 107.577C22.2638 107.861 23.7928 108.145 25.3319 108.367C26.466 108.398 27.6001 108.428 28.724 108.469C28.5418 108.398 28.3696 108.337 28.2684 108.307C27.8431 108.145 27.4077 108.003 26.9824 107.851C29.443 107.79 31.9035 107.739 34.3641 107.851C38.8092 108.013 43.2544 107.75 47.6996 107.628C55.7799 107.79 63.8602 108.256 71.9405 108.772C80.76 109.329 89.6099 109.248 98.4395 108.975C101.072 108.944 103.695 109.096 106.327 109.248C105.244 109.491 104.16 109.694 103.087 109.876C104.069 109.917 105.041 109.947 106.024 109.967C108.545 109.815 111.066 109.663 113.577 109.511C114.59 109.451 115.603 109.38 116.615 109.319C117.81 109.177 118.995 109.015 120.189 108.833C120.848 108.58 121.506 108.347 122.164 108.124C124.26 107.426 126.407 106.899 128.584 106.545C128.847 106.504 129.11 106.524 129.343 106.616C129.454 106.555 129.556 106.504 129.667 106.454C129.9 106.332 130.123 106.292 130.325 106.322C133.91 104.641 137.069 102.383 139.55 99.2339C140.704 97.7758 141.666 96.1861 142.466 94.5153C142.132 94.8191 141.808 95.1229 141.474 95.4165C140.927 95.8823 140.542 96.2266 140.238 96.5V96.5101Z" fill="#000C24"/>
</g>
<path d="M108.444 82.6581C107.644 82.6581 106.945 82.5872 106.449 82.5164C104.697 82.2632 100.465 81.281 99.057 77.7067C98.5508 76.4207 98.5305 75.0436 98.5103 73.8184L98.3077 60.8372C98.3077 60.6145 98.3989 60.4018 98.5609 60.25C98.7229 60.0981 98.9457 60.0272 99.1684 60.0576C102.439 60.412 113.284 60.4626 116.23 60.1386C116.433 60.1082 116.645 60.1791 116.807 60.3107C116.969 60.4423 117.071 60.6347 117.091 60.8372C117.536 65.7988 117.405 69.7884 116.635 75.0537C116.392 76.6941 116.048 78.5572 114.914 80.0052C113.223 82.1822 110.499 82.6581 108.454 82.6581H108.444ZM99.857 61.6676L100.049 73.7981C100.07 74.9423 100.09 76.1169 100.485 77.1396C101.599 79.9647 105.183 80.7646 106.672 80.9874C109.77 81.443 112.393 80.7241 113.689 79.0635C114.59 77.9092 114.884 76.3397 115.096 74.831C115.815 69.8997 115.957 66.2747 115.602 61.7384C112.069 61.9814 103.644 61.9511 99.857 61.6676Z" fill="#000C24"/>
<path d="M115.167 61.5866C115.167 61.5866 115.096 61.5866 115.056 61.5866C114.63 61.5259 114.347 61.131 114.408 60.7158C115.106 55.9466 118.225 52.1495 121.242 48.484C124.118 44.9805 126.842 41.6694 127.682 37.5684C128.037 35.8471 128.179 30.3893 126.305 25.3771C125.05 22.0154 123.288 19.5042 121.06 17.9145C116.858 14.9071 109.669 12.801 104.049 14.5932C98.6621 16.3045 94.2878 19.4434 91.7159 23.433C89.3566 27.0985 88.3744 31.655 88.9313 36.2724C89.4578 40.596 91.3108 44.8185 94.2777 48.484C94.6928 48.9902 95.1282 49.4965 95.5535 49.9826C96.4648 51.0255 97.3964 52.0988 98.1659 53.3139C99.5532 55.5011 100.333 58.0325 100.414 60.6145C100.424 61.0398 100.09 61.3942 99.6645 61.4043C99.2595 61.4347 98.8849 61.0803 98.8747 60.655C98.8039 58.3363 98.1153 56.0884 96.8699 54.1341C96.1611 53.0203 95.3004 52.0381 94.3891 50.9951C93.9537 50.499 93.5081 49.9826 93.0727 49.456C89.9135 45.5678 87.9491 41.0719 87.3922 36.4647C86.7847 31.493 87.858 26.5719 90.4097 22.6027C93.174 18.3094 97.8419 14.9476 103.573 13.125C109.679 11.191 117.435 13.4389 121.951 16.669C124.432 18.441 126.376 21.1952 127.743 24.8506C129.576 29.7514 129.687 35.4319 129.181 37.8925C128.26 42.368 125.293 45.9829 122.417 49.4763C119.4 53.1418 116.554 56.6048 115.916 60.9588C115.856 61.3436 115.532 61.617 115.157 61.617L115.167 61.5866Z" fill="#000C24"/>
<path d="M110.56 61.384C110.135 61.384 109.79 61.0397 109.79 60.6144V60.5435C109.78 56.0882 109.922 51.4203 110.216 46.6916C110.337 44.8082 110.489 42.9653 110.965 41.2237C109.77 40.8389 108.646 40.0795 107.785 38.996L107.765 38.9657C107.684 39.1176 107.603 39.2694 107.522 39.4213C106.418 41.406 105.173 42.4489 103.695 42.6008C103.441 42.6312 103.188 42.621 102.945 42.6008C103.249 43.7045 103.492 44.8082 103.695 45.8613C104.626 50.671 105.072 55.5921 105.011 60.4929C105.011 60.9182 104.677 61.2523 104.231 61.2523C103.806 61.2523 103.462 60.8979 103.472 60.4727C103.533 55.6832 103.097 50.8634 102.186 46.1549C101.933 44.8386 101.619 43.4514 101.183 42.0844C101.042 42.0236 100.9 41.9629 100.768 41.892C98.9052 41.0009 96.5965 39.7048 95.3207 37.5481C94.7131 36.5152 94.6422 35.5027 95.1485 34.7736C95.6548 34.0446 96.6978 33.7509 97.6395 34.075C98.3888 34.3281 98.9254 34.8749 99.3608 35.3812C100.778 37.0317 101.74 38.9555 102.429 40.9199C102.804 41.0414 103.188 41.1224 103.543 41.0819C104.464 40.9908 105.345 40.1807 106.175 38.6923C106.398 38.2872 106.611 37.8721 106.813 37.4569C106.145 36.09 105.75 34.4294 105.608 32.4346C105.497 30.8347 105.497 28.4957 106.763 26.6224C107.228 25.9339 107.866 25.6301 108.484 25.8023C108.95 25.9339 109.223 26.2883 109.375 26.5516C110.509 28.3641 110.317 30.5613 110.084 32.0599C109.79 33.9028 109.274 35.6849 108.545 37.3962C108.687 37.6291 108.849 37.8518 109.011 38.0645C109.608 38.8138 110.499 39.4618 111.481 39.7858C112.332 37.7 113.8 35.8469 115.633 34.5509C115.876 34.3787 116.463 33.9636 117.152 34.0547C117.658 34.1155 118.063 34.399 118.306 34.8546C118.721 35.6343 118.549 36.7279 118.184 37.4569C117.223 39.4011 115.987 40.6668 114.509 41.2237C113.871 41.4667 113.193 41.568 112.504 41.5376C112.038 43.1678 111.896 44.9196 111.775 46.8232C111.481 51.5215 111.34 56.149 111.35 60.5739V60.6549C111.35 61.0802 111.005 61.4245 110.58 61.4245L110.56 61.384ZM96.8395 35.4723C96.6471 35.4723 96.475 35.5331 96.4041 35.6343C96.2624 35.8368 96.3636 36.2824 96.637 36.7481C97.4876 38.1961 98.9355 39.1986 100.384 39.9681C99.8165 38.6821 99.0976 37.4569 98.166 36.3735C97.8723 36.0292 97.5179 35.6546 97.1129 35.5229C97.0218 35.4926 96.9205 35.4723 96.8294 35.4723H96.8395ZM116.919 35.5331C116.919 35.5331 116.807 35.5533 116.504 35.7761C115.025 36.8291 113.81 38.2974 113.051 39.958C113.355 39.9276 113.648 39.8669 113.942 39.7555C115.046 39.3403 115.997 38.3277 116.777 36.7481C117.02 36.252 117.01 35.6647 116.919 35.5432V35.5331ZM108.069 27.392C108.069 27.392 108.028 27.4426 108.018 27.4629C107.259 28.5868 106.975 30.1259 107.127 32.303C107.208 33.4472 107.38 34.4699 107.644 35.3609C108.049 34.2066 108.342 33.0118 108.535 31.7967C108.849 29.8323 108.697 28.4349 108.069 27.392Z" fill="#000C24"/>
<path d="M104.464 109.613C99.8976 109.613 95.3613 109.441 90.8857 109.279C78.0564 108.803 65.0348 108.681 52.4485 108.57C39.1535 108.448 25.4129 108.327 12.2191 107.77C12.1584 107.77 12.0976 107.76 12.0369 107.739C8.18911 106.616 4.77675 102.808 2.58959 99.8111C0.139175 96.4493 -0.640504 92.1257 0.544203 88.5108C1.51627 85.5541 3.83506 82.8809 7.06515 80.9874C12.4622 77.8079 19.5299 77.3118 25.9597 79.5597C22.2132 72.2793 22.8714 62.5991 27.833 54.7213C33.0882 46.3778 44.4897 39.6239 55.2939 43.5223C61.3693 45.7196 66.3309 51.0052 70.0875 59.2678C70.3305 57.8907 70.8267 56.5136 71.576 55.2074C73.4695 51.9064 76.487 49.6079 78.9171 47.9675C80.7296 46.7423 82.9269 45.4158 85.4077 44.9095C88.1315 44.3526 90.8148 44.9399 92.5969 46.4891C92.921 46.7727 92.9513 47.2587 92.6678 47.5726C92.3843 47.8966 91.8983 47.927 91.5844 47.6435C90.1668 46.4081 87.9695 45.9424 85.7216 46.4081C83.5041 46.8638 81.4789 48.089 79.7879 49.2332C76.3958 51.5317 74.2694 53.6075 72.9227 55.9567C71.6165 58.2349 71.171 60.7765 71.6367 62.9738C71.8798 63.6117 72.1126 64.2699 72.3354 64.9382C72.467 65.3229 72.2747 65.7381 71.9101 65.9001C71.5355 66.0621 71.1102 65.9001 70.9178 65.5457C70.5735 64.8875 70.3204 64.1686 70.1584 63.4294C66.422 53.5062 61.2579 47.2992 54.7775 44.9602C45.1074 41.4668 34.1514 47.5827 29.1493 55.5314C24.0358 63.6421 23.7523 73.7475 28.4304 80.6735C28.6228 80.957 28.6025 81.3418 28.3798 81.6051C28.157 81.8683 27.7823 81.9493 27.4684 81.8076C21.0487 78.8711 13.3532 79.0635 7.85496 82.3037C4.94888 84.015 2.87311 86.3844 2.02256 88.9867C0.989734 92.1358 1.68841 95.9228 3.84518 98.8896C5.87032 101.664 8.98904 105.178 12.3811 106.221C25.5142 106.778 39.2143 106.899 52.4688 107.021C65.0753 107.132 78.1071 107.253 90.9566 107.729C100.08 108.074 109.517 108.418 118.721 107.304C128.371 106.13 134.963 103.193 138.871 98.3125C143.843 92.1054 143.63 82.1721 138.406 76.1777C133.181 70.1833 123.369 68.6239 116.544 72.6945C116.18 72.9172 115.704 72.7957 115.491 72.4312C115.279 72.0667 115.39 71.5907 115.754 71.3781C123.318 66.862 133.778 68.5328 139.57 75.1752C145.362 81.8177 145.585 92.4092 140.076 99.2845C135.905 104.499 128.989 107.618 118.914 108.843C114.124 109.42 109.294 109.613 104.485 109.613H104.464Z" fill="#000C24"/>
<path d="M19.2362 72.4919C18.9426 72.4919 18.659 72.3198 18.5274 72.0362C15.7125 65.6469 16.3099 58.0324 20.0766 52.1696C20.3095 51.8152 20.7854 51.7038 21.1398 51.9367C21.4942 52.1696 21.6056 52.6455 21.3727 52.9999C17.93 58.3564 17.3629 65.5862 19.9349 71.4186C20.107 71.8034 19.9349 72.259 19.54 72.4311C19.4387 72.4717 19.3375 72.4919 19.2261 72.4919H19.2362Z" fill="#439FD9"/>
<path d="M13.0999 73.6462C12.8265 73.6462 12.5532 73.4943 12.4215 73.2412C10.7103 70.0212 9.66733 66.4063 9.39394 62.7813C9.36356 62.3561 9.67746 61.9915 10.1027 61.951C10.5179 61.9308 10.8925 62.2345 10.933 62.6598C11.1862 66.0823 12.1785 69.4846 13.7885 72.5121C13.991 72.8868 13.8492 73.3526 13.4645 73.5551C13.3531 73.6158 13.2215 73.6462 13.0999 73.6462Z" fill="#439FD9"/>
<path d="M135.338 27.2806C134.993 27.2806 134.679 27.0477 134.588 26.7035C134.487 26.2984 134.72 25.8934 135.125 25.7719L140.745 24.1417C141.615 23.8885 141.99 24.3948 142.091 24.5568C142.223 24.7695 142.243 25.0834 142.142 25.3061C141.987 25.6706 139.773 26.3221 135.5 27.2604C135.439 27.2705 135.388 27.2806 135.338 27.2806Z" fill="#000C24"/>
<path d="M108.504 8.09246C108.109 8.09246 107.765 7.78869 107.735 7.38367L107.208 0.832338C107.178 0.407059 107.492 0.0324078 107.917 0.00203071C108.342 -0.0283464 108.717 0.28555 108.747 0.71083L109.274 7.26216C109.304 7.68744 108.99 8.06209 108.565 8.09246C108.545 8.09246 108.525 8.09246 108.504 8.09246Z" fill="#000C24"/>
<path d="M89.1137 16.4866C88.982 16.4866 88.8504 16.4563 88.7289 16.3854L83.9293 13.6109C83.342 13.2768 83.2408 12.8414 83.261 12.5477C83.2813 12.244 83.4534 11.9807 83.7167 11.8491C84.223 11.5959 84.4153 11.5149 89.5491 15.0792C89.8934 15.3121 89.9845 15.7778 89.7617 16.1221C89.62 16.355 89.3668 16.4765 89.1137 16.4765V16.4866Z" fill="#000C24"/>
<path d="M75.363 37.1431C74.9985 37.1431 74.6643 36.8798 74.6036 36.4951C74.5327 36.0698 74.8162 35.6749 75.2314 35.604L81.3878 34.5712C81.8029 34.5003 82.208 34.7838 82.2789 35.199C82.3497 35.6242 82.0662 36.0191 81.6511 36.09L75.4946 37.1228C75.4946 37.1228 75.4035 37.133 75.363 37.133V37.1431Z" fill="#000C24"/>
<path d="M124.3 12.7504C124.149 12.7504 123.987 12.6997 123.855 12.6086C123.511 12.3555 123.43 11.8795 123.673 11.5353L127.237 6.56356C127.49 6.21928 127.966 6.13828 128.31 6.38129C128.655 6.62431 128.736 7.11034 128.482 7.45462L124.918 12.4263C124.766 12.639 124.533 12.7504 124.29 12.7504H124.3Z" fill="#000C24"/>
<path d="M135.591 50.6811C135.408 50.6811 135.226 50.6204 135.084 50.4887L130.589 46.5701C130.265 46.2866 130.234 45.8005 130.518 45.4867C130.801 45.1626 131.287 45.1323 131.601 45.4158L136.097 49.3344C136.421 49.6179 136.451 50.104 136.168 50.4179C136.016 50.59 135.803 50.6811 135.591 50.6811Z" fill="#000C24"/>
<path d="M104.438 102.047C104.021 102.793 103.579 103.523 103.106 104.229C96.8734 113.694 86.0765 119.895 74.6297 119.991C63.7044 120.087 53.1561 113.566 46.6667 104.702C45.8485 103.587 45.0945 102.432 44.4126 101.253C44.2282 100.948 44.3405 100.659 44.549 100.475C44.5891 100.427 44.6453 100.378 44.7094 100.33C62.6055 89.1242 86.1807 89.06 104.141 100.162C104.574 100.427 104.494 100.948 104.197 101.197C104.462 101.365 104.638 101.694 104.438 102.047Z" fill="white"/>
<path opacity="0.13" d="M104.197 101.197C104.494 100.948 104.574 100.427 104.141 100.162C86.1807 89.06 62.6055 89.1242 44.7094 100.33C44.6453 100.378 44.5891 100.427 44.549 100.475C44.3405 100.659 44.2282 100.948 44.4126 101.253C45.0945 102.432 45.8485 103.587 46.6667 104.702C53.1561 113.566 63.7044 120.087 74.6297 119.991C86.0765 119.895 96.8734 113.694 103.106 104.229C103.579 103.523 104.021 102.793 104.438 102.047C104.638 101.694 104.462 101.365 104.197 101.197Z" fill="#000C24"/>
<path d="M103.106 104.229C85.8036 94.4265 63.8086 94.5869 46.6666 104.702C53.156 113.566 63.7043 120.087 74.6296 119.991C86.0763 119.895 96.8733 113.694 103.106 104.229Z" fill="white"/>
<path d="M74.4851 98.0761C71.7979 97.6028 69.207 98.6697 67.6508 100.916C67.1775 101.598 68.2845 102.223 68.7417 101.557C69.953 99.8168 72.0546 98.9344 74.1482 99.3034C74.9504 99.4398 75.2873 98.2285 74.4851 98.0761Z" fill="#F7C600"/>
<path d="M74.8462 100.467C72.5841 100.723 70.5145 102.64 70.4022 104.983C70.2819 107.485 72.1509 109.683 74.5654 110.157C74.79 110.205 74.9745 110.133 75.1028 110.012C76.0895 110.084 77.1082 109.82 77.9665 109.274C82.1137 106.683 79.6591 99.9131 74.8381 100.467H74.8462Z" fill="#F7C600"/>
<path d="M83.9589 109.523C83.0605 111.48 81.761 113.173 80.0444 114.48C79.4027 114.97 80.0283 116.069 80.6861 115.571C82.5792 114.135 84.0712 112.331 85.0578 110.165C85.3947 109.427 84.2958 108.785 83.9589 109.523Z" fill="#F7C600"/>
<path d="M104.438 102.055C98.4777 112.74 86.9347 119.895 74.6297 119.999C62.3327 120.103 50.509 111.833 44.4046 101.269C44.2281 100.964 44.3324 100.675 44.5409 100.491C44.5891 100.443 44.6372 100.386 44.7094 100.346C62.5974 89.1402 86.1807 89.076 104.141 100.178C104.574 100.443 104.486 100.964 104.197 101.221C104.462 101.389 104.638 101.718 104.438 102.071V102.055ZM45.8164 101.14C50.7416 109.37 59.2685 116.421 68.5975 118.178C64.1455 116.173 60.8487 112.066 60.2872 106.876C59.6936 101.373 62.7578 96.2954 67.3542 93.6242C59.7979 94.5948 52.4181 97.0975 45.8164 101.14ZM78.7126 93.3114C76.3944 93.1429 74.0602 93.1109 71.7179 93.2312C66.0386 94.5307 61.4583 99.5361 61.4583 105.528C61.4583 111.889 66.4237 117.208 72.6083 118.082C79.6993 119.093 85.7475 114.905 87.4802 107.967C88.9481 102.103 86.3411 93.7526 79.218 93.6002C78.9774 93.6002 78.8169 93.4798 78.7207 93.3194L78.7126 93.3114ZM84.3197 94.0093C87.9374 96.6082 89.6219 101.766 89.0684 106.282C88.4428 111.432 85.4828 115.764 81.2474 117.962C90.5043 115.892 98.6862 109.756 103.339 101.413C103.379 101.341 103.427 101.293 103.475 101.245C97.5712 97.5949 91.0417 95.1884 84.3197 94.0093Z" fill="#000C24"/>
<path d="M87.4801 107.959C85.7475 114.897 79.6992 119.085 72.6082 118.074C66.4316 117.199 61.4583 111.881 61.4583 105.52C61.4583 99.528 66.0386 94.5226 71.7178 93.2231C74.0521 93.1108 76.3863 93.1349 78.7126 93.3033C78.8169 93.4638 78.9693 93.5841 79.2099 93.5841C86.333 93.7365 88.94 102.095 87.4721 107.951L87.4801 107.959ZM74.4852 98.0761C71.798 97.6029 69.2071 98.6697 67.6509 100.916C67.1776 101.598 68.2846 102.223 68.7418 101.557C69.9531 99.8168 72.0547 98.9344 74.1483 99.3034C74.9505 99.4398 75.2874 98.2285 74.4852 98.0761ZM74.8462 100.467C72.5841 100.723 70.5146 102.64 70.4023 104.983C70.282 107.485 72.151 109.683 74.5655 110.157C74.7901 110.205 74.9746 110.132 75.1029 110.012C76.0895 110.084 77.1083 109.82 77.9666 109.274C82.1137 106.683 79.6591 99.9131 74.8382 100.467H74.8462ZM83.9587 109.523C83.0603 111.48 81.7608 113.173 80.0442 114.48C79.4024 114.969 80.0281 116.068 80.6859 115.571C82.579 114.135 84.071 112.33 85.0576 110.165C85.3945 109.427 84.2956 108.785 83.9587 109.523Z" fill="white"/>
<path d="M77.9745 109.274C77.1082 109.82 76.0894 110.076 75.1108 110.012C74.9744 110.132 74.7899 110.205 74.5734 110.156C72.1589 109.683 70.2899 107.485 70.4102 104.983C70.5145 102.64 72.584 100.723 74.8541 100.466C79.6751 99.905 82.1296 106.683 77.9825 109.274H77.9745Z" fill="#000C24"/>
<path d="M83.9588 109.523C83.0604 111.48 81.7609 113.173 80.0443 114.48C79.4026 114.969 80.0283 116.068 80.686 115.571C82.5791 114.135 84.0711 112.33 85.0578 110.165C85.3947 109.427 84.2957 108.785 83.9588 109.523Z" fill="#000C24"/>
<path d="M74.4851 98.0761C71.7979 97.6028 69.2069 98.6697 67.6507 100.916C67.1775 101.598 68.2844 102.223 68.7417 101.557C69.9529 99.8168 72.0546 98.9344 74.1482 99.3034C74.9503 99.4398 75.2872 98.2285 74.4851 98.0761Z" fill="#000C24"/>
</svg>
