<svg width="609" height="572" viewBox="0 0 609 572" fill="none" xmlns="http://www.w3.org/2000/svg">
<path d="M233.729 237.101H238.8V242.057H233.729V237.101ZM241.843 242.057H246.914V237.101H241.843V242.057ZM241.286 244.646H236.215V249.602H241.286V244.646ZM227.153 246.725H232.224V241.769H227.153V246.725ZM232.224 232.433H227.153V237.389H232.224V232.433ZM236.248 234.512H241.319V229.556H236.248V234.512ZM255.06 237.101H249.989V242.057H255.06V237.101ZM246.881 251.392H251.952V246.437H246.881V251.392ZM243.806 252.224H238.735V257.179H243.806V252.224ZM233.762 252.224H228.691V257.179H233.762V252.224ZM225.648 246.469H220.577V251.424H225.648V246.469ZM222.54 237.133H217.469V242.089H222.54V237.133ZM225.648 227.798H220.577V232.753H225.648V227.798ZM228.691 226.966H233.762V222.011H228.691V226.966ZM243.806 222.011H238.735V226.966H243.806V222.011ZM246.881 232.721H251.952V227.766H246.881V232.721ZM258.103 242.057H263.174V237.101H258.103V242.057ZM256.009 251.744H261.08V246.789H256.009V251.744ZM255.126 254.813H250.055V259.769H255.126V254.813ZM246.358 259.769H241.286V264.725H246.358V259.769ZM236.281 260.792H231.21V265.748H236.281V260.792ZM226.629 257.723H221.558V262.678H226.629V257.723ZM219.104 251.105H214.033V256.06H219.104V251.105ZM214.982 242.057H209.911V247.012H214.982V242.057ZM214.982 232.146H209.911V237.101H214.982V232.146ZM214.033 228.053H219.104V223.098H214.033V228.053ZM226.629 216.48H221.558V221.435H226.629V216.48ZM231.21 218.366H236.281V213.41H231.21V218.366ZM241.286 219.389H246.358V214.434H241.286V219.389ZM250.055 224.345H255.126V219.389H250.055V224.345ZM256.009 232.369H261.08V227.414H256.009V232.369ZM271.288 237.101H266.217V242.057H271.288V237.101ZM264.646 251.872H269.717V246.916H264.646V251.872ZM265.104 255.773H260.033V260.728H265.104V255.773ZM252.836 267.762H257.907V262.806H252.836V267.762ZM248.844 267.314H243.773V272.27H248.844V267.314ZM238.8 268.881H233.729V273.836H238.8V268.881ZM228.756 267.314H223.685V272.27H228.756V267.314ZM219.693 262.806H214.622V267.762H219.693V262.806ZM212.496 255.773H207.425V260.728H212.496V255.773ZM207.883 246.916H202.812V251.872H207.883V246.916ZM206.279 237.101H201.208V242.057H206.279V237.101ZM207.883 227.286H202.812V232.242H207.883V227.286ZM212.496 218.43H207.425V223.385H212.496V218.43ZM219.693 211.396H214.622V216.352H219.693V211.396ZM223.685 211.844H228.756V206.888H223.685V211.844ZM233.729 210.277H238.8V205.322H233.729V210.277ZM243.773 211.844H248.844V206.888H243.773V211.844ZM252.836 216.352H257.907V211.396H252.836V216.352ZM265.104 218.43H260.033V223.385H265.104V218.43ZM264.646 232.242H269.717V227.286H264.646V232.242ZM274.363 242.057H279.434V237.101H274.363V242.057ZM278.158 246.98H273.087V251.936H278.158V246.98ZM274.396 256.22H269.325V261.176H274.396V256.22ZM268.409 264.277H263.338V269.232H268.409V264.277ZM255.486 275.563H260.557V270.607H255.486V275.563ZM251.331 274.859H246.259V279.815H251.331V274.859ZM241.319 276.714H236.248V281.669H241.319V276.714ZM231.144 276.074H226.073V281.03H231.144V276.074ZM221.46 273.005H216.389V277.961H221.46V273.005ZM212.856 267.666H207.784V272.621H212.856V267.666ZM205.887 260.408H200.816V265.364H205.887V260.408ZM195.908 256.636H200.979V251.68H195.908V256.636ZM198.427 242.057H193.356V247.012H198.427V242.057ZM198.427 232.114H193.356V237.069H198.427V232.114ZM195.908 227.414H200.979V222.458H195.908V227.414ZM205.887 213.762H200.816V218.718H205.887V213.762ZM207.784 211.46H212.856V206.505H207.784V211.46ZM216.389 206.121H221.46V201.165H216.389V206.121ZM226.073 203.052H231.144V198.096H226.073V203.052ZM236.248 202.412H241.319V197.457H236.248V202.412ZM246.259 204.267H251.331V199.311H246.259V204.267ZM255.486 208.487H260.557V203.531H255.486V208.487ZM263.338 214.817H268.409V209.862H263.338V214.817ZM269.325 222.874H274.396V217.918H269.325V222.874ZM273.087 232.114H278.158V227.158H273.087V232.114ZM282.477 241.993H287.548V237.037H282.477V241.993ZM286.468 246.948H281.397V251.904H286.468V246.948ZM278.257 261.367H283.328V256.412H278.257V261.367ZM278.257 265.044H273.185V270H278.257V265.044ZM271.451 272.43H266.38V277.385H271.451V272.43ZM263.207 278.28H258.136V283.236H263.207V278.28ZM253.882 282.341H248.811V287.296H253.882V282.341ZM243.904 284.419H238.833V289.374H243.904V284.419ZM233.729 284.419H228.658V289.374H233.729V284.419ZM218.712 287.296H223.783V282.341H218.712V287.296ZM214.459 278.312H209.388V283.268H214.459V278.312ZM206.214 272.462H201.143V277.417H206.214V272.462ZM199.409 265.076H194.338V270.032H199.409V265.076ZM189.267 261.399H194.338V256.444H189.267V261.399ZM191.197 246.98H186.126V251.936H191.197V246.98ZM190.117 237.069H185.046V242.025H190.117V237.069ZM191.197 227.158H186.126V232.114H191.197V227.158ZM194.338 217.695H189.267V222.65H194.338V217.695ZM194.338 214.018H199.409V209.062H194.338V214.018ZM201.143 206.633H206.214V201.677H201.143V206.633ZM209.388 200.782H214.459V195.826H209.388V200.782ZM218.712 196.721H223.783V191.766H218.712V196.721ZM228.691 194.643H233.762V189.688H228.691V194.643ZM238.865 194.643H243.937V189.688H238.865V194.643ZM248.844 196.721H253.915V191.766H248.844V196.721ZM258.136 200.782H263.207V195.826H258.136V200.782ZM266.38 206.633H271.451V201.677H266.38V206.633ZM273.185 214.018H278.257V209.062H273.185V214.018ZM278.289 222.65H283.36V217.695H278.289V222.65ZM281.43 232.114H286.501V227.158H281.43V232.114ZM290.623 242.025H295.695V237.069H290.623V242.025ZM294.778 247.012H289.707V251.968H294.778V247.012ZM292.063 256.604H286.992V261.559H292.063V256.604ZM287.646 265.588H282.575V270.543H287.646V265.588ZM281.659 273.645H276.588V278.6H281.659V273.645ZM274.298 280.518H269.227V285.474H274.298V280.518ZM265.791 286.017H260.72V290.973H265.791V286.017ZM256.434 289.918H251.363V294.874H256.434V289.918ZM246.488 292.124H241.417V297.08H246.488V292.124ZM236.314 292.572H231.242V297.527H236.314V292.572ZM226.204 291.229H221.133V296.184H226.204V291.229ZM211.449 293.115H216.52V288.16H211.449V293.115ZM207.523 283.46H202.452V288.415H207.523V283.46ZM199.54 277.257H194.469V282.213H199.54V277.257ZM192.833 269.744H187.762V274.7H192.833V269.744ZM187.598 261.208H182.527V266.163H187.598V261.208ZM184.032 251.872H178.961V256.828H184.032V251.872ZM182.2 242.057H177.129V247.012H182.2V242.057ZM182.2 232.082H177.129V237.037H182.2V232.082ZM184.032 222.267H178.961V227.222H184.032V222.267ZM187.598 212.931H182.527V217.886H187.598V212.931ZM192.833 204.395H187.762V209.35H192.833V204.395ZM194.469 201.837H199.54V196.881H194.469V201.837ZM202.452 195.634H207.523V190.679H202.452V195.634ZM211.416 190.903H216.487V185.947H211.416V190.903ZM221.1 187.833H226.171V182.878H221.1V187.833ZM231.21 186.491H236.281V181.535H231.21V186.491ZM241.385 186.938H246.456V181.983H241.385V186.938ZM251.331 189.144H256.402V184.189H251.331V189.144ZM260.72 193.045H265.791V188.089H260.72V193.045ZM269.227 198.544H274.298V193.588H269.227V198.544ZM276.588 205.418H281.659V200.462H276.588V205.418ZM282.575 213.474H287.646V208.519H282.575V213.474ZM286.992 222.458H292.063V217.503H286.992V222.458ZM289.707 232.05H294.778V227.094H289.707V232.05ZM303.808 237.037H298.737V241.993H303.808V237.037ZM303.023 246.98H297.952V251.936H303.023V246.98ZM300.635 256.668H295.564V261.623H300.635V256.668ZM296.741 265.875H291.67V270.831H296.741V265.875ZM291.409 274.38H286.338V279.335H291.409V274.38ZM284.8 281.957H279.729V286.913H284.8V281.957ZM277.046 288.415H271.975V293.371H277.046V288.415ZM268.343 293.627H263.272V298.582H268.343V293.627ZM258.921 297.431H253.85V302.387H258.921V297.431ZM249.008 299.765H243.937V304.721H249.008V299.765ZM238.833 300.532H233.762V305.488H238.833V300.532ZM228.658 299.765H223.587V304.721H228.658V299.765ZM218.745 297.431H213.673V302.387H218.745V297.431ZM209.322 293.627H204.251V298.582H209.322V293.627ZM200.619 288.415H195.548V293.371H200.619V288.415ZM192.866 281.957H187.794V286.913H192.866V281.957ZM181.186 279.335H186.257V274.38H181.186V279.335ZM180.924 265.875H175.853V270.831H180.924V265.875ZM177.031 256.668H171.96V261.623H177.031V256.668ZM174.642 246.98H169.571V251.936H174.642V246.98ZM173.857 237.037H168.786V241.993H173.857V237.037ZM169.604 232.05H174.675V227.094H169.604V232.05ZM177.063 217.407H171.992V222.362H177.063V217.407ZM180.957 208.199H175.886V213.155H180.957V208.199ZM186.29 199.695H181.218V204.65H186.29V199.695ZM187.86 197.073H192.931V192.117H187.86V197.073ZM195.614 190.615H200.685V185.659H195.614V190.615ZM204.316 185.404H209.388V180.448H204.316V185.404ZM213.739 181.599H218.81V176.643H213.739V181.599ZM223.652 179.265H228.723V174.309H223.652V179.265ZM233.827 178.498H238.898V173.542H233.827V178.498ZM244.002 179.265H249.073V174.309H244.002V179.265ZM253.915 181.599H258.986V176.643H253.915V181.599ZM263.338 185.404H268.409V180.448H263.338V185.404ZM272.04 190.615H277.111V185.659H272.04V190.615ZM279.794 197.073H284.865V192.117H279.794V197.073ZM286.403 204.65H291.474V199.695H286.403V204.65ZM291.736 213.155H296.807V208.199H291.736V213.155ZM295.629 222.362H300.7V217.407H295.629V222.362ZM298.017 232.05H303.089V227.094H298.017V232.05ZM306.949 241.993H312.02V237.037H306.949V241.993ZM311.3 246.98H306.229V251.936H311.3V246.98ZM304.103 261.687H309.174V256.732H304.103V261.687ZM305.673 266.099H300.602V271.055H305.673V266.099ZM300.897 274.891H295.825V279.847H300.897V274.891ZM294.909 282.948H289.838V287.904H294.909V282.948ZM287.81 290.11H282.739V295.065H287.81V290.11ZM279.761 296.248H274.69V301.204H279.761V296.248ZM270.928 301.236H265.857V306.191H270.928V301.236ZM261.473 304.976H256.402V309.932H261.473V304.976ZM251.592 307.374H246.521V312.33H251.592V307.374ZM241.45 308.429H236.379V313.385H241.45V308.429ZM231.242 308.078H226.171V313.033H231.242V308.078ZM221.198 306.351H216.127V311.307H221.198V306.351ZM211.514 303.282H206.443V308.238H211.514V303.282ZM202.353 298.902H197.282V303.857H202.353V298.902ZM193.913 293.339H188.841V298.294H193.913V293.339ZM186.322 286.657H181.251V291.612H186.322V286.657ZM174.708 283.971H179.779V279.016H174.708V283.971ZM174.381 270.575H169.309V275.531H174.381V270.575ZM170.226 261.463H165.154V266.419H170.226V261.463ZM167.412 251.872H162.341V256.828H167.412V251.872ZM166.005 241.993H160.934V246.948H166.005V241.993ZM160.934 236.973H166.005V232.018H160.934V236.973ZM167.412 222.139H162.341V227.094H167.412V222.139ZM170.226 212.547H165.154V217.503H170.226V212.547ZM174.381 203.435H169.309V208.391H174.381V203.435ZM179.779 194.995H174.708V199.95H179.779V194.995ZM186.322 187.354H181.251V192.309H186.322V187.354ZM188.841 185.627H193.913V180.672H188.841V185.627ZM197.282 180.064H202.353V175.109H197.282V180.064ZM206.443 175.684H211.514V170.729H206.443V175.684ZM216.127 172.615H221.198V167.659H216.127V172.615ZM226.171 170.889H231.242V165.933H226.171V170.889ZM236.379 170.537H241.45V165.581H236.379V170.537ZM246.521 171.592H251.592V166.636H246.521V171.592ZM256.402 173.99H261.473V169.034H256.402V173.99ZM265.857 177.73H270.928V172.775H265.857V177.73ZM274.69 182.718H279.761V177.762H274.69V182.718ZM282.739 188.856H287.81V183.901H282.739V188.856ZM289.838 196.018H294.909V191.062H289.838V196.018ZM295.825 204.075H300.897V199.119H295.825V204.075ZM300.602 212.867H305.673V207.911H300.602V212.867ZM304.103 222.235H309.174V217.279H304.103V222.235ZM306.229 231.986H311.3V227.03H306.229V231.986ZM320.134 236.973H315.063V241.929H320.134V236.973ZM314.441 251.872H319.512V246.916H314.441V251.872ZM312.544 261.655H317.615V256.7H312.544V261.655ZM309.403 271.151H314.474V266.195H309.403V271.151ZM310.123 275.211H305.052V280.167H310.123V275.211ZM304.659 283.62H299.588V288.575H304.659V283.62ZM298.148 291.293H293.077V296.248H298.148V291.293ZM290.722 298.103H285.65V303.058H290.722V298.103ZM282.477 303.953H277.406V308.909H282.477V303.953ZM273.545 308.749H268.474V313.705H273.545V308.749ZM264.057 312.426H258.986V317.381H264.057V312.426ZM254.177 314.92H249.106V319.875H254.177V314.92ZM244.067 316.166H238.996V321.122H244.067V316.166ZM233.86 316.166H228.789V321.122H233.86V316.166ZM223.75 314.92H218.679V319.875H223.75V314.92ZM213.87 312.426H208.799V317.381H213.87V312.426ZM204.382 308.749H199.311V313.705H204.382V308.749ZM195.45 303.953H190.379V308.909H195.45V303.953ZM187.206 298.103H182.134V303.058H187.206V298.103ZM179.779 291.293H174.708V296.248H179.779V291.293ZM168.197 288.575H173.268V283.62H168.197V288.575ZM167.805 275.211H162.733V280.167H167.805V275.211ZM163.453 266.195H158.382V271.151H163.453V266.195ZM160.312 256.7H155.241V261.655H160.312V256.7ZM158.415 246.916H153.344V251.872H158.415V246.916ZM157.76 236.973H152.689V241.929H157.76V236.973ZM158.415 227.03H153.344V231.986H158.415V227.03ZM160.312 217.247H155.241V222.203H160.312V217.247ZM163.453 207.751H158.382V212.707H163.453V207.751ZM167.805 198.736H162.733V203.691H167.805V198.736ZM173.268 190.327H168.197V195.283H173.268V190.327ZM179.779 182.654H174.708V187.61H179.779V182.654ZM182.134 180.768H187.206V175.812H182.134V180.768ZM190.379 174.917H195.45V169.961H190.379V174.917ZM199.311 170.121H204.382V165.166H199.311V170.121ZM208.799 166.444H213.87V161.489H208.799V166.444ZM218.679 163.951H223.75V158.995H218.679V163.951ZM228.789 162.704H233.86V157.748H228.789V162.704ZM238.996 162.704H244.067V157.748H238.996V162.704ZM249.106 163.951H254.177V158.995H249.106V163.951ZM258.986 166.444H264.057V161.489H258.986V166.444ZM268.474 170.121H273.545V165.166H268.474V170.121ZM277.406 174.917H282.477V169.961H277.406V174.917ZM285.65 180.768H290.722V175.812H285.65V180.768ZM293.077 187.578H298.148V182.622H293.077V187.578ZM299.588 195.251H304.659V190.295H299.588V195.251ZM305.052 203.659H310.123V198.704H305.052V203.659ZM309.403 212.675H314.474V207.72H309.403V212.675ZM312.544 222.171H317.615V217.215H312.544V222.171ZM314.441 231.954H319.512V226.998H314.441V231.954ZM328.28 236.941H323.209V241.897H328.28V236.941ZM327.692 246.884H322.62V251.84H327.692V246.884ZM325.958 256.7H320.886V261.655H325.958V256.7ZM323.078 266.259H318.007V271.215H323.078V266.259ZM319.12 275.435H314.049V280.391H319.12V275.435ZM314.114 284.131H309.043V289.087H314.114V284.131ZM308.127 292.188H303.056V297.143H308.127V292.188ZM301.224 299.541H296.153V304.497H301.224V299.541ZM293.503 306.064H288.431V311.019H293.503V306.064ZM285.094 311.69H280.023V316.646H285.094V311.69ZM276.064 316.358H270.993V321.314H276.064V316.358ZM266.544 319.971H261.473V324.927H266.544V319.971ZM256.663 322.497H251.592V327.452H256.663V322.497ZM246.554 323.904H241.483V328.859H246.554V323.904ZM236.346 324.191H231.275V329.147H236.346V324.191ZM226.171 323.328H221.1V328.284H226.171V323.328ZM216.16 321.346H211.089V326.301H216.16V321.346ZM206.443 318.277H201.372V323.232H206.443V318.277ZM197.151 314.12H192.08V319.076H197.151V314.12ZM188.416 308.973H183.345V313.928H188.416V308.973ZM180.335 302.898H175.264V307.854H180.335V302.898ZM173.007 295.961H167.935V300.916H173.007V295.961ZM161.49 293.179H166.561V288.223H161.49V293.179ZM161.032 279.847H155.961V284.803H161.032V279.847ZM156.517 270.895H151.446V275.851H156.517V270.895ZM153.082 261.495H148.011V266.451H153.082V261.495ZM150.759 251.776H145.688V256.732H150.759V251.776ZM149.581 241.865H144.51V246.821H149.581V241.865ZM144.51 236.845H149.581V231.89H144.51V236.845ZM150.726 221.979H145.655V226.934H150.726V221.979ZM153.049 212.259H147.978V217.215H153.049V212.259ZM156.485 202.86H151.413V207.815H156.485V202.86ZM160.999 193.908H155.928V198.863H160.999V193.908ZM166.529 185.531H161.457V190.487H166.529V185.531ZM172.974 177.826H167.903V182.782H172.974V177.826ZM175.231 175.812H180.302V170.857H175.231V175.812ZM183.312 169.738H188.383V164.782H183.312V169.738ZM192.048 164.59H197.119V159.635H192.048V164.59ZM201.339 160.434H206.41V155.478H201.339V160.434ZM211.056 157.365H216.127V152.409H211.056V157.365ZM221.067 155.382H226.139V150.427H221.067V155.382ZM231.242 154.519H236.314V149.564H231.242V154.519ZM241.45 154.807H246.521V149.851H241.45V154.807ZM251.56 156.214H256.631V151.258H251.56V156.214ZM261.44 158.739H266.511V153.784H261.44V158.739ZM270.961 162.352H276.032V157.397H270.961V162.352ZM279.99 167.02H285.062V162.064H279.99V167.02ZM288.399 172.647H293.47V167.691H288.399V172.647ZM296.12 179.169H301.191V174.214H296.12V179.169ZM303.023 186.523H308.094V181.567H303.023V186.523ZM309.01 194.579H314.081V189.624H309.01V194.579ZM314.016 203.276H319.087V198.32H314.016V203.276ZM317.975 212.451H323.046V207.496H317.975V212.451ZM320.854 222.011H325.925V217.055H320.854V222.011ZM322.588 231.826H327.659V226.87H322.588V231.826ZM336.362 236.845H331.29V241.801H336.362V236.845ZM335.838 246.789H330.767V251.744H335.838V246.789ZM334.235 256.636H329.164V261.591H334.235V256.636ZM331.585 266.259H326.514V271.215H331.585V266.259ZM327.921 275.563H322.849V280.518H327.921V275.563ZM323.275 284.451H318.204V289.406H323.275V284.451ZM317.713 292.827H312.642V297.783H317.713V292.827ZM311.3 300.564H306.229V305.52H311.3V300.564ZM304.07 307.63H298.999V312.586H304.07V307.63ZM296.153 313.896H291.081V318.852H296.153V313.896ZM287.581 319.332H282.51V324.287H287.581V319.332ZM278.486 323.872H273.414V328.827H278.486V323.872ZM268.965 327.452H263.894V332.408H268.965V327.452ZM259.117 330.042H254.046V334.998H259.117V330.042ZM249.04 331.609H243.969V336.564H249.04V331.609ZM238.865 332.12H233.794V337.076H238.865V332.12ZM228.691 331.609H223.619V336.564H228.691V331.609ZM218.614 330.042H213.543V334.998H218.614V330.042ZM208.766 327.452H203.695V332.408H208.766V327.452ZM199.245 323.872H194.174V328.827H199.245V323.872ZM190.15 319.332H185.079V324.287H190.15V319.332ZM181.578 313.896H176.507V318.852H181.578V313.896ZM173.661 307.63H168.59V312.586H173.661V307.63ZM166.43 300.564H161.359V305.52H166.43V300.564ZM154.947 297.751H160.018V292.795H154.947V297.751ZM154.456 284.451H149.385V289.406H154.456V284.451ZM149.81 275.563H144.739V280.518H149.81V275.563ZM146.146 266.259H141.075V271.215H146.146V266.259ZM143.496 256.636H138.425V261.591H143.496V256.636ZM141.893 246.789H136.822V251.744H141.893V246.789ZM141.369 236.845H136.298V241.801H141.369V236.845ZM141.893 226.902H136.822V231.858H141.893V226.902ZM143.496 217.055H138.425V222.011H143.496V217.055ZM146.146 207.432H141.075V212.387H146.146V207.432ZM149.81 198.128H144.739V203.084H149.81V198.128ZM154.456 189.24H149.385V194.196H154.456V189.24ZM160.018 180.864H154.947V185.819H160.018V180.864ZM166.43 173.126H161.359V178.082H166.43V173.126ZM168.59 171.016H173.661V166.061H168.59V171.016ZM181.578 159.794H176.507V164.75H181.578V159.794ZM185.079 159.315H190.15V154.359H185.079V159.315ZM194.174 154.775H199.245V149.819H194.174V154.775ZM203.695 151.194H208.766V146.239H203.695V151.194ZM213.543 148.604H218.614V143.649H213.543V148.604ZM223.619 147.038H228.691V142.082H223.619V147.038ZM233.794 146.526H238.865V141.571H233.794V146.526ZM243.969 147.038H249.04V142.082H243.969V147.038ZM254.046 148.604H259.117V143.649H254.046V148.604ZM263.894 151.194H268.965V146.239H263.894V151.194ZM273.414 154.775H278.486V149.819H273.414V154.775ZM282.51 159.315H287.581V154.359H282.51V159.315ZM291.081 164.75H296.153V159.794H291.081V164.75ZM298.999 171.016H304.07V166.061H298.999V171.016ZM306.229 178.082H311.3V173.126H306.229V178.082ZM312.642 185.819H317.713V180.864H312.642V185.819ZM318.204 194.196H323.275V189.24H318.204V194.196ZM322.849 203.084H327.921V198.128H322.849V203.084ZM326.514 212.387H331.585V207.432H326.514V212.387ZM329.164 222.011H334.235V217.055H329.164V222.011ZM335.838 226.902H330.767V231.858H335.838V226.902ZM344.508 236.845H339.437V241.801H344.508V236.845ZM338.946 251.744H344.017V246.789H338.946V251.744ZM342.545 256.668H337.474V261.623H342.545V256.668ZM340.091 266.355H335.02V271.311H340.091V266.355ZM336.689 275.755H331.618V280.71H336.689V275.755ZM332.403 284.803H327.332V289.758H332.403V284.803ZM327.234 293.403H322.162V298.358H327.234V293.403ZM321.246 301.46H316.175V306.415H321.246V301.46ZM314.474 308.909H309.403V313.865H314.474V308.909ZM307.015 315.687H301.943V320.642H307.015V315.687ZM298.901 321.729H293.83V326.685H298.901V321.729ZM290.231 327.005H285.16V331.96H290.231V327.005ZM281.07 331.417H275.999V336.372H281.07V331.417ZM271.517 334.966H266.446V339.921H271.517V334.966ZM261.669 337.587H256.598V342.543H261.669V337.587ZM251.625 339.282H246.554V344.237H251.625V339.282ZM241.45 340.017H236.379V344.973H241.45V340.017ZM231.242 339.761H226.171V344.717H231.242V339.761ZM221.1 338.546H216.029V343.502H221.1V338.546ZM211.154 336.404H206.083V341.36H211.154V336.404ZM201.437 333.335H196.366V338.291H201.437V333.335ZM192.08 329.339H187.009V334.294H192.08V329.339ZM183.149 324.479H178.078V329.435H183.149V324.479ZM174.74 318.82H169.669V323.776H174.74V318.82ZM166.954 312.394H161.883V317.349H166.954V312.394ZM159.822 305.264H154.751V310.22H159.822V305.264ZM148.371 302.451H153.442V297.495H148.371V302.451ZM147.847 289.151H142.776V294.106H147.847V289.151ZM143.103 280.327H138.032V285.282H143.103V280.327ZM139.243 271.087H134.172V276.042H139.243V271.087ZM136.331 261.527H131.26V266.483H136.331V261.527ZM134.368 251.744H129.297V256.7H134.368V251.744ZM133.386 241.833H128.315V246.789H133.386V241.833ZM128.315 236.813H133.386V231.858H128.315V236.813ZM134.368 221.947H129.297V226.902H134.368V221.947ZM136.331 212.164H131.26V217.119H136.331V212.164ZM139.243 202.604H134.172V207.56H139.243V202.604ZM138.032 198.32H143.103V193.364H138.032V198.32ZM147.847 184.54H142.776V189.496H147.847V184.54ZM153.442 176.196H148.371V181.151H153.442V176.196ZM159.822 168.427H154.751V173.382H159.822V168.427ZM161.883 166.253H166.954V161.297H161.883V166.253ZM174.74 154.871H169.669V159.826H174.74V154.871ZM178.078 154.167H183.149V149.212H178.078V154.167ZM187.009 149.308H192.08V144.352H187.009V149.308ZM196.366 145.311H201.437V140.356H196.366V145.311ZM206.083 142.242H211.154V137.287H206.083V142.242ZM216.062 140.1H221.133V135.145H216.062V140.1ZM226.204 138.885H231.275V133.93H226.204V138.885ZM236.412 138.629H241.483V133.674H236.412V138.629ZM246.587 139.365H251.658V134.409H246.587V139.365ZM256.631 141.059H261.702V136.104H256.631V141.059ZM266.478 143.681H271.55V138.725H266.478V143.681ZM276.032 147.23H281.103V142.274H276.032V147.23ZM285.192 151.642H290.264V146.686H285.192V151.642ZM293.862 156.917H298.934V151.961H293.862V156.917ZM301.976 162.96H307.047V158.004H301.976V162.96ZM309.436 169.738H314.507V164.782H309.436V169.738ZM316.208 177.187H321.279V172.231H316.208V177.187ZM322.195 185.244H327.266V180.288H322.195V185.244ZM327.364 193.844H332.436V188.888H327.364V193.844ZM331.65 202.892H336.721V197.936H331.65V202.892ZM335.053 212.291H340.124V207.336H335.053V212.291ZM337.507 221.979H342.578V217.023H337.507V221.979ZM344.05 226.902H338.979V231.858H344.05V226.902ZM352.655 236.877H347.583V241.833H352.655V236.877ZM352.196 246.853H347.125V251.808H352.196V246.853ZM350.822 256.732H345.751V261.687H350.822V256.732ZM348.565 266.451H343.494V271.407H348.565V266.451ZM345.424 275.946H340.353V280.902H345.424V275.946ZM341.4 285.122H336.329V290.078H341.4V285.122ZM336.558 293.914H331.487V298.87H336.558V293.914ZM330.931 302.227H325.859V307.182H330.931V302.227ZM324.583 310.028H319.512V314.984H324.583V310.028ZM317.517 317.222H312.446V322.177H317.517V317.222ZM309.828 323.776H304.757V328.731H309.828V323.776ZM301.584 329.626H296.512V334.582H301.584V329.626ZM292.815 334.742H287.744V339.697H292.815V334.742ZM283.622 339.058H278.551V344.014H283.622V339.058ZM274.069 342.575H268.998V347.53H274.069V342.575ZM264.221 345.228H259.15V350.184H264.221V345.228ZM254.177 347.019H249.106V351.974H254.177V347.019ZM244.002 347.914H238.931V352.87H244.002V347.914ZM233.794 347.914H228.723V352.87H233.794V347.914ZM223.619 347.019H218.548V351.974H223.619V347.019ZM213.575 345.228H208.504V350.184H213.575V345.228ZM203.728 342.575H198.656V347.53H203.728V342.575ZM194.174 339.058H189.103V344.014H194.174V339.058ZM184.981 334.742H179.91V339.697H184.981V334.742ZM176.213 329.626H171.142V334.582H176.213V329.626ZM167.968 323.776H162.897V328.731H167.968V323.776ZM160.28 317.222H155.209V322.177H160.28V317.222ZM153.213 310.028H148.142V314.984H153.213V310.028ZM141.795 307.182H146.866V302.227H141.795V307.182ZM141.238 293.914H136.167V298.87H141.238V293.914ZM136.396 285.122H131.325V290.078H136.396V285.122ZM132.372 275.946H127.301V280.902H132.372V275.946ZM129.231 266.451H124.16V271.407H129.231V266.451ZM126.974 256.732H121.903V261.687H126.974V256.732ZM125.6 246.853H120.529V251.808H125.6V246.853ZM120.071 241.833H125.142V236.877H120.071V241.833ZM125.6 226.934H120.529V231.89H125.6V226.934ZM126.974 217.055H121.903V222.011H126.974V217.055ZM129.231 207.336H124.16V212.291H129.231V207.336ZM127.334 202.796H132.405V197.84H127.334V202.796ZM136.396 188.665H131.325V193.62H136.396V188.665ZM136.167 184.828H141.238V179.872H136.167V184.828ZM146.866 171.56H141.795V176.515H146.866V171.56ZM148.174 168.714H153.246V163.759H148.174V168.714ZM155.241 156.565V161.521H160.312V156.565H155.241ZM168.001 150.011H162.93V154.967H168.001V150.011ZM171.207 149.084H176.278V144.128H171.207V149.084ZM179.975 143.969H185.046V139.013H179.975V143.969ZM189.169 139.652H194.24V134.697H189.169V139.652ZM198.722 136.136H203.793V131.18H198.722V136.136ZM208.57 133.482H213.641V128.526H208.57V133.482ZM218.614 131.692H223.685V126.736H218.614V131.692ZM228.789 130.796H233.86V125.841H228.789V130.796ZM238.996 130.796H244.067V125.841H238.996V130.796ZM249.171 131.692H254.242V126.736H249.171V131.692ZM259.215 133.482H264.286V128.526H259.215V133.482ZM269.063 136.136H274.134V131.18H269.063V136.136ZM278.616 139.652H283.687V134.697H278.616V139.652ZM287.81 143.969H292.881V139.013H287.81V143.969ZM296.578 149.084H301.649V144.128H296.578V149.084ZM304.823 154.935H309.894V149.979H304.823V154.935ZM312.511 161.489H317.582V156.533H312.511V161.489ZM319.578 168.682H324.649V163.727H319.578V168.682ZM325.925 176.483H330.996V171.528H325.925V176.483ZM331.552 184.796H336.623V179.84H331.552V184.796ZM336.394 193.588H341.465V188.633H336.394V193.588ZM340.418 202.764H345.49V197.808H340.418V202.764ZM348.63 207.304H343.559V212.259H348.63V207.304ZM350.888 217.023H345.817V221.979H350.888V217.023ZM347.191 231.858H352.262V226.902H347.191V231.858ZM360.834 236.877H355.763V241.833H360.834V236.877ZM360.408 246.853H355.337V251.808H360.408V246.853ZM359.132 256.732H354.061V261.687H359.132V256.732ZM357.006 266.483H351.935V271.439H357.006V266.483ZM354.061 276.042H348.99V280.998H354.061V276.042ZM350.299 285.314H345.228V290.27H350.299V285.314ZM345.751 294.234H340.68V299.19H345.751V294.234ZM340.451 302.77H335.38V307.726H340.451V302.77ZM334.464 310.827H329.393V315.783H334.464V310.827ZM327.79 318.372H322.719V323.328H327.79V318.372ZM320.494 325.342H315.423V330.298H320.494V325.342ZM312.642 331.705H307.571V336.66H312.642V331.705ZM304.266 337.395H299.195V342.351H304.266V337.395ZM295.433 342.383H290.362V347.339H295.433V342.383ZM286.207 346.635H281.136V351.591H286.207V346.635ZM276.653 350.12H271.582V355.076H276.653V350.12ZM266.838 352.806H261.767V357.761H266.838V352.806ZM256.827 354.66H251.756V359.616H256.827V354.66ZM246.685 355.715H241.614V360.671H246.685V355.715ZM236.477 355.939H231.406V360.894H236.477V355.939ZM226.302 355.299H221.231V360.255H226.302V355.299ZM216.193 353.829H211.122V358.784H216.193V353.829ZM206.247 351.559H201.176V356.514H206.247V351.559ZM196.53 348.49H191.459V353.445H196.53V348.49ZM187.107 344.621H182.036V349.577H187.107V344.621ZM178.078 340.017H173.007V344.973H178.078V340.017ZM169.473 334.678H164.402V339.633H169.473V334.678ZM161.359 328.635H156.288V333.591H161.359V328.635ZM153.769 321.953H148.698V326.909H153.769V321.953ZM146.768 314.696H141.697V319.651H146.768V314.696ZM135.349 311.818H140.421V306.863H135.349V311.818ZM134.761 298.55H129.689V303.506H134.761V298.55ZM129.853 289.822H124.782V294.778H129.853V289.822ZM125.698 280.71H120.627V285.666H125.698V280.71ZM122.328 271.279H117.257V276.234H122.328V271.279ZM119.776 261.623H114.705V266.579H119.776V261.623ZM118.075 251.776H113.004V256.732H118.075V251.776ZM117.224 241.833H112.153V246.789H117.224V241.833ZM112.153 236.813H117.224V231.858H112.153V236.813ZM113.004 226.87H118.075V221.915H113.004V226.87ZM114.705 217.023H119.776V212.068H114.705V217.023ZM117.257 207.368H122.328V202.412H117.257V207.368ZM120.627 197.936H125.698V192.981H120.627V197.936ZM129.853 183.869H124.782V188.824H129.853V183.869ZM134.761 175.141H129.689V180.096H134.761V175.141ZM135.349 171.784H140.421V166.828H135.349V171.784ZM141.697 163.983H146.768V159.027H141.697V163.983ZM148.698 156.725H153.769V151.77H148.698V156.725ZM161.359 145.088H156.288V150.043H161.359V145.088ZM169.473 139.045H164.402V144.001H169.473V139.045ZM173.039 138.661H178.11V133.706H173.039V138.661ZM182.069 134.025H187.14V129.07H182.069V134.025ZM191.491 130.157H196.563V125.201H191.491V130.157ZM201.208 127.088H206.279V122.132H201.208V127.088ZM211.154 124.818H216.225V119.862H211.154V124.818ZM221.264 123.347H226.335V118.391H221.264V123.347ZM231.439 122.708H236.51V117.752H231.439V122.708ZM241.646 122.931H246.717V117.976H241.646V122.931ZM251.789 123.986H256.86V119.031H251.789V123.986ZM261.8 125.841H266.871V120.885H261.8V125.841ZM271.615 128.526H276.686V123.571H271.615V128.526ZM286.239 127.056H281.168V132.011H286.239V127.056ZM295.466 131.308H290.394V136.264H295.466V131.308ZM304.299 136.295H299.228V141.251H304.299V136.295ZM312.675 141.986H307.603V146.942H312.675V141.986ZM315.455 153.304H320.527V148.349H315.455V153.304ZM322.751 160.274H327.822V155.318H322.751V160.274ZM329.426 167.819H334.497V162.864H329.426V167.819ZM335.413 175.876H340.484V170.92H335.413V175.876ZM340.713 184.412H345.784V179.457H340.713V184.412ZM345.26 193.332H350.332V188.377H345.26V193.332ZM349.023 202.604H354.094V197.649H349.023V202.604ZM351.967 212.164H357.039V207.208H351.967V212.164ZM354.094 221.915H359.165V216.959H354.094V221.915ZM355.37 231.794H360.441V226.838H355.37V231.794ZM368.98 236.813H363.909V241.769H368.98V236.813ZM368.588 246.789H363.516V251.744H368.588V246.789ZM362.339 261.655H367.41V256.7H362.339V261.655ZM365.414 266.483H360.343V271.439H365.414V266.483ZM362.633 276.074H357.562V281.03H362.633V276.074ZM359.1 285.442H354.029V290.398H359.1V285.442ZM354.814 294.49H349.743V299.445H354.814V294.49ZM349.841 303.186H344.77V308.142H349.841V303.186ZM344.181 311.467H339.11V316.422H344.181V311.467ZM337.866 319.3H332.795V324.255H337.866V319.3ZM330.931 326.621H325.859V331.577H330.931V326.621ZM323.438 333.399H318.367V338.355H323.438V333.399ZM315.423 339.569H310.352V344.525H315.423V339.569ZM306.949 345.101H301.878V350.056H306.949V345.101ZM298.05 349.96H292.979V354.916H298.05V349.96ZM288.791 354.148H283.72V359.104H288.791V354.148ZM279.205 357.601H274.134V362.557H279.205V357.601ZM269.39 360.319H264.319V365.275H269.39V360.319ZM259.379 362.269H254.308V367.225H259.379V362.269ZM249.237 363.452H244.166V368.408H249.237V363.452ZM239.029 363.836H233.958V368.791H239.029V363.836ZM228.821 363.452H223.75V368.408H228.821V363.452ZM218.679 362.269H213.608V367.225H218.679V362.269ZM208.668 360.319H203.597V365.275H208.668V360.319ZM198.853 357.601H193.782V362.557H198.853V357.601ZM189.267 354.148H184.196V359.104H189.267V354.148ZM180.008 349.96H174.937V354.916H180.008V349.96ZM171.109 345.101H166.038V350.056H171.109V345.101ZM162.635 339.569H157.564V344.525H162.635V339.569ZM154.62 333.399H149.549V338.355H154.62V333.399ZM147.128 326.621H142.056V331.577H147.128V326.621ZM140.192 319.3H135.12V324.255H140.192V319.3ZM133.877 311.467H128.806V316.422H133.877V311.467ZM128.217 303.186H123.146V308.142H128.217V303.186ZM123.244 294.49H118.173V299.445H123.244V294.49ZM118.958 285.442H113.887V290.398H118.958V285.442ZM115.425 276.074H110.354V281.03H115.425V276.074ZM112.644 266.483H107.573V271.439H112.644V266.483ZM110.648 256.7H105.577V261.655H110.648V256.7ZM109.438 246.789H104.367V251.744H109.438V246.789ZM103.974 241.769H109.045V236.813H103.974V241.769ZM104.367 231.794H109.438V226.838H104.367V231.794ZM105.577 221.883H110.648V216.927H105.577V221.883ZM107.573 212.1H112.644V207.144H107.573V212.1ZM110.354 202.508H115.425V197.553H110.354V202.508ZM113.887 193.141H118.958V188.185H113.887V193.141ZM118.173 184.093H123.244V179.137H118.173V184.093ZM128.217 170.441H123.146V175.396H128.217V170.441ZM133.877 162.16H128.806V167.116H133.877V162.16ZM135.12 159.283H140.192V154.327H135.12V159.283ZM142.056 151.961H147.128V147.006H142.056V151.961ZM154.62 140.228H149.549V145.184H154.62V140.228ZM162.635 134.057H157.564V139.013H162.635V134.057ZM166.038 133.482H171.109V128.526H166.038V133.482ZM174.937 128.622H180.008V123.667H174.937V128.622ZM184.196 124.434H189.267V119.479H184.196V124.434ZM193.782 120.981H198.853V116.026H193.782V120.981ZM203.597 118.264H208.668V113.308H203.597V118.264ZM213.608 116.313H218.679V111.358H213.608V116.313ZM223.75 115.13H228.821V110.175H223.75V115.13ZM233.958 114.747H239.029V109.791H233.958V114.747ZM244.166 115.13H249.237V110.175H244.166V115.13ZM254.308 116.313H259.379V111.358H254.308V116.313ZM264.319 118.264H269.39V113.308H264.319V118.264ZM274.134 120.981H279.205V116.026H274.134V120.981ZM288.759 119.479H283.687V124.434H288.759V119.479ZM297.854 123.795H293.11V128.43H297.854V123.795ZM306.916 128.526H301.845V133.482H306.916V128.526ZM315.39 134.057H310.319V139.013H315.39V134.057ZM323.406 140.228H318.335V145.184H323.406V140.228ZM330.898 147.006H325.827V151.961H330.898V147.006ZM332.763 159.283H337.834V154.327H332.763V159.283ZM339.077 167.116H344.148V162.16H339.077V167.116ZM344.737 175.396H349.808V170.441H344.737V175.396ZM349.71 184.093H354.781V179.137H349.71V184.093ZM353.996 193.141H359.067V188.185H353.996V193.141ZM357.529 202.508H362.6V197.553H357.529V202.508ZM360.31 212.1H365.381V207.144H360.31V212.1ZM362.306 221.883H367.377V216.927H362.306V221.883ZM363.516 231.794H368.588V226.838H363.516V231.794ZM377.094 236.813H372.023V241.769H377.094V236.813ZM376.701 246.789H371.63V251.744H376.701V246.789ZM375.589 256.7H370.518V261.655H375.589V256.7ZM373.724 266.515H368.653V271.47H373.724V266.515ZM371.107 276.17H366.036V281.126H371.107V276.17ZM367.77 285.602H362.699V290.557H367.77V285.602ZM363.746 294.746H358.674V299.701H363.746V294.746ZM359.034 303.602H353.963V308.557H359.034V303.602ZM353.669 312.074H348.598V317.03H353.669V312.074ZM347.682 320.131H342.61V325.086H347.682V320.131ZM341.073 327.74H336.002V332.696H341.073V327.74ZM333.908 334.87H328.837V339.825H333.908V334.87ZM326.252 341.456H321.181V346.411H326.252V341.456ZM318.106 347.466H313.034V352.422H318.106V347.466ZM309.534 352.87H304.463V357.825H309.534V352.87ZM300.569 357.633H295.498V362.589H300.569V357.633ZM291.278 361.758H286.207V366.713H291.278V361.758ZM281.692 365.179H276.621V370.134H281.692V365.179ZM271.877 367.896H266.806V372.852H271.877V367.896ZM261.865 369.91H256.794V374.866H261.865V369.91ZM251.756 371.189H246.685V376.145H251.756V371.189ZM241.581 371.733H236.51V376.688H241.581V371.733ZM231.373 371.541H226.302V376.496H231.373V371.541ZM221.198 370.614H216.127V375.569H221.198V370.614ZM211.122 368.951H206.05V373.907H211.122V368.951ZM201.208 366.585H196.137V371.541H201.208V366.585ZM191.491 363.516H186.42V368.472H191.491V363.516ZM182.036 359.743H176.965V364.699H182.036V359.743ZM172.908 355.299H167.837V360.255H172.908V355.299ZM164.14 350.216H159.069V355.172H164.14V350.216ZM155.765 344.493H150.694V349.449H155.765V344.493ZM147.847 338.195H142.776V343.15H147.847V338.195ZM140.421 331.353H135.349V336.308H140.421V331.353ZM133.55 323.967H128.479V328.923H133.55V323.967ZM127.236 316.134H122.165V321.09H127.236V316.134ZM121.543 307.854H116.472V312.809H121.543V307.854ZM116.505 299.19H111.433V304.145H116.505V299.19ZM112.121 290.174H107.049V295.129H112.121V290.174ZM108.424 280.87H103.352V285.826H108.424V280.87ZM105.446 271.343H100.375V276.298H105.446V271.343ZM103.189 261.623H98.1177V266.579H103.189V261.623ZM96.6127 256.7H101.684V251.744H96.6127V256.7ZM100.931 241.801H95.8603V246.757H100.931V241.801ZM95.8603 236.782H100.931V231.826H95.8603V236.782ZM101.684 221.883H96.6127V226.838H101.684V221.883ZM98.1177 216.959H103.189V212.004H98.1177V216.959ZM100.375 207.24H105.446V202.284H100.375V207.24ZM103.352 197.712H108.424V192.757H103.352V197.712ZM107.049 188.409H112.121V183.453H107.049V188.409ZM111.433 179.393H116.505V174.437H111.433V179.393ZM116.472 170.729H121.543V165.773H116.472V170.729ZM127.236 157.492H122.165V162.448H127.236V157.492ZM128.479 154.583H133.55V149.628H128.479V154.583ZM135.349 147.198H140.421V142.242H135.349V147.198ZM142.776 140.356H147.847V135.4H142.776V140.356ZM150.694 134.057H155.765V129.102H150.694V134.057ZM159.069 128.335H164.14V123.379H159.069V128.335ZM167.837 123.251H172.908V118.296H167.837V123.251ZM176.965 118.807H182.036V113.852H176.965V118.807ZM186.42 115.035H191.491V110.079H186.42V115.035ZM196.137 111.965H201.208V107.01H196.137V111.965ZM206.05 109.599H211.122V104.644H206.05V109.599ZM216.127 107.937H221.198V102.981H216.127V107.937ZM226.302 107.01H231.373V102.054H226.302V107.01ZM236.51 106.818H241.581V101.862H236.51V106.818ZM246.685 107.361H251.756V102.406H246.685V107.361ZM256.925 108.512H261.734V103.813H256.925V108.512ZM267.558 109.919H271.091V106.466H267.558V109.919ZM280.318 109.759H277.962V112.061H280.318V109.759ZM289.249 113.82H288.202V114.843H289.249V113.82ZM307.505 122.708H306.458V123.731H307.505V122.708ZM317.288 126.96H313.852V130.317H317.288V126.96ZM325.794 132.619H321.639V136.679H325.794V132.619ZM333.908 138.757H328.837V143.713H333.908V138.757ZM336.002 150.81H341.073V145.855H336.002V150.81ZM342.578 158.42H347.649V153.464H342.578V158.42ZM348.565 166.476H353.636V161.521H348.565V166.476ZM353.93 174.949H359.002V169.993H353.93V174.949ZM358.642 183.805H363.713V178.849H358.642V183.805ZM362.666 192.949H367.737V187.993H362.666V192.949ZM371.074 197.425H366.003V202.38H371.074V197.425ZM373.691 207.08H368.62V212.036H373.691V207.08ZM375.556 216.895H370.485V221.851H375.556V216.895ZM371.63 231.762H376.701V226.806H371.63V231.762ZM385.208 236.782H380.137V241.737H385.208V236.782ZM384.848 246.757H379.777V251.712H384.848V246.757ZM383.768 256.668H378.697V261.623H383.768V256.668ZM382.001 266.483H376.93V271.439H382.001V266.483ZM379.548 276.17H374.477V281.126H379.548V276.17ZM376.407 285.666H371.336V290.621H376.407V285.666ZM372.579 294.905H367.508V299.861H372.579V294.905ZM368.097 303.857H363.026V308.813H368.097V303.857ZM362.993 312.49H357.922V317.445H362.993V312.49ZM357.3 320.77H352.229V325.726H357.3V320.77ZM351.019 328.635H345.948V333.591H351.019V328.635ZM344.181 336.053H339.11V341.008H344.181V336.053ZM336.852 342.99H331.781V347.946H336.852V342.99ZM329.033 349.417H323.962V354.372H329.033V349.417ZM320.788 355.267H315.717V360.223H320.788V355.267ZM312.118 360.543H307.047V365.498H312.118V360.543ZM303.121 365.211H298.05V370.166H303.121V365.211ZM293.797 369.271H288.726V374.226H293.797V369.271ZM284.211 372.692H279.14V377.647H284.211V372.692ZM274.396 375.441H269.325V380.397H274.396V375.441ZM264.417 377.52H259.346V382.475H264.417V377.52ZM254.308 378.894H249.237V383.85H254.308V378.894ZM244.133 379.598H239.062V384.553H244.133V379.598ZM233.925 379.598H228.854V384.553H233.925V379.598ZM223.75 378.894H218.679V383.85H223.75V378.894ZM213.641 377.52H208.57V382.475H213.641V377.52ZM203.662 375.441H198.591V380.397H203.662V375.441ZM193.847 372.692H188.776V377.647H193.847V372.692ZM184.261 369.271H179.19V374.226H184.261V369.271ZM174.937 365.211H169.866V370.166H174.937V365.211ZM165.94 360.543H160.869V365.498H165.94V360.543ZM157.27 355.267H152.199V360.223H157.27V355.267ZM149.025 349.417H143.954V354.372H149.025V349.417ZM141.206 342.99H136.135V347.946H141.206V342.99ZM133.877 336.053H128.806V341.008H133.877V336.053ZM127.039 328.635H121.968V333.591H127.039V328.635ZM115.687 325.726H120.758V320.77H115.687V325.726ZM115.032 312.522H109.961V317.477H115.032V312.522ZM109.928 303.889H104.857V308.845H109.928V303.889ZM105.446 294.937H100.375V299.893H105.446V294.937ZM100.702 286.593H97.4634V289.758H100.702V286.593ZM94.1263 280.454H97.7251V276.938H94.1263V280.454ZM94.9115 267.602H91.9997V270.447H94.9115V267.602ZM93.7991 257.147H89.5786V261.272H93.7991V257.147ZM93.1775 246.821H88.1064V251.776H93.1775V246.821ZM92.8176 236.845H87.7465V241.801H92.8176V236.845ZM93.1775 226.87H88.1064V231.826H93.1775V226.87ZM94.2571 216.959H89.186V221.915H94.2571V216.959ZM96.0238 207.144H90.9527V212.1H96.0238V207.144ZM98.4776 197.457H93.4065V202.412H98.4776V197.457ZM96.58 192.917H101.651V187.961H96.58V192.917ZM100.408 183.677H105.479V178.721H100.408V183.677ZM104.89 174.725H109.961V169.77H104.89V174.725ZM109.994 166.093H115.065V161.137H109.994V166.093ZM115.687 157.812H120.758V152.857H115.687V157.812ZM121.968 149.947H127.039V144.992H121.968V149.947ZM128.806 142.53H133.877V137.574H128.806V142.53ZM136.135 135.592H141.206V130.637H136.135V135.592ZM149.025 124.242H143.954V129.198H149.025V124.242ZM152.231 123.315H157.302V118.36H152.231V123.315ZM160.901 118.04H165.972V113.084H160.901V118.04ZM169.898 113.372H174.969V108.416H169.898V113.372ZM179.223 109.312H184.294V104.356H179.223V109.312ZM188.809 105.891H193.88V100.935H188.809V105.891ZM198.624 103.141H203.695V98.1856H198.624V103.141ZM208.602 101.063H213.673V96.1074H208.602V101.063ZM218.712 99.6882H223.783V94.7327H218.712V99.6882ZM228.887 98.9849H233.958V94.0293H228.887V98.9849ZM239.094 98.9849H244.166V94.0293H239.094V98.9849ZM249.269 99.6882H254.34V94.7327H249.269V99.6882ZM260.033 100.424H263.763V96.7788H260.033V100.424ZM336.198 131.34H332.501V134.953H336.198V131.34ZM344.214 137.606H339.142V142.562H344.214V137.606ZM345.98 149.979H351.051V145.024H345.98V149.979ZM352.262 157.844H357.333V152.889H352.262V157.844ZM357.955 166.125H363.026V161.169H357.955V166.125ZM363.058 174.757H368.13V169.801H363.058V174.757ZM367.541 183.709H372.612V178.753H367.541V183.709ZM371.369 192.949H376.44V187.993H371.369V192.949ZM374.509 202.444H379.58V197.489H374.509V202.444ZM376.963 212.132H382.034V207.176H376.963V212.132ZM378.73 221.947H383.801V216.991H378.73V221.947ZM379.809 231.858H384.881V226.902H379.809V231.858ZM393.354 236.877H388.283V241.833H393.354V236.877ZM393.027 246.853H387.956V251.808H393.027V246.853ZM392.013 256.764H386.942V261.719H392.013V256.764ZM390.344 266.611H385.273V271.566H390.344V266.611ZM387.989 276.33H382.918V281.286H387.989V276.33ZM384.979 285.858H379.908V290.813H384.979V285.858ZM381.347 295.193H376.276V300.149H381.347V295.193ZM372.023 309.197H377.094V304.241H372.023V309.197ZM367.344 317.797H372.056V313.193H367.344V317.797ZM362.175 325.982H366.363V321.889H362.175V325.982ZM356.286 333.943H360.278V330.042H356.286V333.943ZM349.579 341.807H353.93V337.555H349.579V341.807ZM343.756 347.85H345.686V345.964H343.756V347.85ZM335.445 355.395H338.979V351.942H335.445V355.395ZM327.201 361.949H331.356V357.889H327.201V361.949ZM319.283 367.257H322.522V364.092H319.283V367.257ZM314.638 368.44H309.73V373.235H314.638V368.44ZM305.673 372.948H300.602V377.903H305.673V372.948ZM296.316 376.944H291.245V381.9H296.316V376.944ZM286.73 380.333H281.659V385.289H286.73V380.333ZM276.915 383.115H271.844V388.07H276.915V383.115ZM266.936 385.257H261.865V390.212H266.936V385.257ZM256.86 386.727H251.789V391.683H256.86V386.727ZM246.685 387.559H241.614V392.514H246.685V387.559ZM236.477 387.718H231.406V392.674H236.477V387.718ZM226.269 387.239H221.198V392.194H226.269V387.239ZM216.127 386.088H211.056V391.043H216.127V386.088ZM206.083 384.297H201.012V389.253H206.083V384.297ZM196.203 381.836H191.132V386.791H196.203V381.836ZM186.486 378.766H181.415V383.722H186.486V378.766ZM176.998 375.058H171.927V380.013H176.998V375.058ZM167.805 370.742H162.733V375.697H167.805V370.742ZM158.906 365.85H153.834V370.806H158.906V365.85ZM150.366 360.383H145.295V365.338H150.366V360.383ZM142.22 354.372H137.149V359.328H142.22V354.372ZM134.499 347.85H129.428V352.806H134.499V347.85ZM127.236 340.848H122.165V345.804H127.236V340.848ZM120.463 333.399H115.392V338.355H120.463V333.399ZM114.182 325.534H109.111V330.49H114.182V325.534ZM103.385 322.241H108.456V317.285H103.385V322.241ZM103.287 308.685H98.2159V313.641H103.287V308.685ZM97.8233 300.66H94.5843V303.826H97.8233V300.66ZM83.8859 276.298H88.6626V271.63H83.8859V276.298ZM86.7977 261.719H81.7266V266.675H86.7977V261.719ZM85.4563 251.84H80.3852V256.796H85.4563V251.84ZM84.7693 241.897H79.6982V246.853H84.7693V241.897ZM84.7693 231.922H79.6982V236.877H84.7693V231.922ZM85.4563 221.979H80.3852V226.934H85.4563V221.979ZM86.7977 212.1H81.7266V217.055H86.7977V212.1ZM88.8261 202.316H83.755V207.272H88.8261V202.316ZM91.5089 192.693H86.4378V197.649H91.5089V192.693ZM94.8133 183.261H89.7422V188.217H94.8133V183.261ZM93.7009 179.009H98.7721V174.054H93.7009V179.009ZM98.2486 170.089H103.32V165.134H98.2486V170.089ZM103.385 161.489H108.456V156.533H103.385V161.489ZM109.111 153.24H114.182V148.285H109.111V153.24ZM120.431 140.42H115.359V145.375H120.431V140.42ZM122.165 137.926H127.236V132.97H122.165V137.926ZM129.428 130.924H134.499V125.969H129.428V130.924ZM137.149 124.402H142.22V119.447H137.149V124.402ZM145.295 118.391H150.366V113.436H145.295V118.391ZM153.834 112.924H158.906V107.969H153.834V112.924ZM162.733 108.033H167.805V103.077H162.733V108.033ZM171.927 103.717H176.998V98.7611H171.927V103.717ZM181.415 100.008H186.486V95.0524H181.415V100.008ZM191.132 96.9387H196.203V91.9831H191.132V96.9387ZM201.012 94.4769H206.083V89.5213H201.012V94.4769ZM211.056 92.6865H216.127V87.7309H211.056V92.6865ZM221.198 91.5355H226.269V86.58H221.198V91.5355ZM231.406 91.056H236.477V86.1004H231.406V91.056ZM241.614 91.2158H246.685V86.2603H241.614V91.2158ZM251.789 92.0471H256.86V87.0915H251.789V92.0471ZM262.749 92.6545H266.053V89.4254H262.749V92.6545ZM346.602 129.997H342.807V133.706H346.602V129.997ZM354.258 136.615H349.219V141.539H354.258V136.615ZM360.801 144.288H355.763V149.212H360.801V144.288ZM366.821 152.345H361.75V157.301H366.821V152.345ZM367.181 165.741H372.252V160.786H367.181V165.741ZM372.023 174.501H377.094V169.546H372.023V174.501ZM376.276 183.581H381.347V178.626H376.276V183.581ZM384.979 187.961H379.908V192.917H384.979V187.961ZM387.989 197.489H382.918V202.444H387.989V197.489ZM390.344 207.208H385.273V212.164H390.344V207.208ZM392.013 217.055H386.942V222.011H392.013V217.055ZM387.956 231.922H393.027V226.966H387.956V231.922ZM401.468 236.941H396.397V241.897H401.468V236.941ZM401.141 246.916H396.07V251.872H401.141V246.916ZM400.192 256.86H395.121V261.815H400.192V256.86ZM398.589 266.707H393.518V271.662H398.589V266.707ZM396.364 276.426H391.293V281.382H396.364V276.426ZM388.447 290.941H393.518V285.985H388.447V290.941ZM384.979 300.309H390.05V295.353H384.979V300.309ZM381.02 309.389H385.927V304.593H381.02V309.389ZM378.533 316.198H379.155V315.591H378.533V316.198ZM312.838 380.397H316.666V376.656H312.838V380.397ZM303.383 385.289H307.931V380.845H303.383V385.289ZM295.269 388.006H297.298V386.024H295.269V388.006ZM289.184 387.942H284.178V392.834H289.184V387.942ZM279.402 390.692H274.33V395.647H279.402V390.692ZM269.456 392.866H264.385V397.821H269.456V392.866ZM254.308 399.388H259.379V394.432H254.308V399.388ZM249.204 395.392H244.133V400.347H249.204V395.392ZM238.996 395.711H233.925V400.667H238.996V395.711ZM228.789 395.392H223.718V400.347H228.789V395.392ZM218.614 394.464H213.543V399.42H218.614V394.464ZM208.537 392.898H203.466V397.853H208.537V392.898ZM198.591 390.724H193.52V395.679H198.591V390.724ZM188.776 387.942H183.705V392.898H188.776V387.942ZM179.157 384.553H174.086V389.509H179.157V384.553ZM169.8 380.589H164.729V385.544H169.8V380.589ZM160.705 376.049H155.634V381.004H160.705V376.049ZM151.904 370.965H146.833V375.921H151.904V370.965ZM143.463 365.37H138.392V370.326H143.463V365.37ZM135.415 359.264H130.344V364.219H135.415V359.264ZM127.759 352.678H122.688V357.633H127.759V352.678ZM120.529 345.612H115.458V350.568H120.529V345.612ZM113.789 338.131H108.718V343.086H113.789V338.131ZM102.469 335.189H107.54V330.234H102.469V335.189ZM96.9072 326.781H101.651V322.145H96.9072V326.781ZM93.1448 316.774H94.9769V314.984H93.1448V316.774ZM89.3496 307.087H89.5459V306.895H89.3496V307.087ZM76.6228 281.286H81.563V276.458H76.6228V281.286ZM79.4037 266.675H74.3326V271.63H79.4037V266.675ZM77.8006 256.828H72.7295V261.783H77.8006V256.828ZM76.8518 246.884H71.7807V251.84H76.8518V246.884ZM76.5246 236.909H71.4535V241.865H76.5246V236.909ZM71.7807 231.89H76.8518V226.934H71.7807V231.89ZM77.8006 217.023H72.7295V221.979H77.8006V217.023ZM79.4037 207.176H74.3326V212.132H79.4037V207.176ZM81.6284 197.457H76.5573V202.412H81.6284V197.457ZM84.4748 187.865H79.4037V192.821H84.4748V187.865ZM87.9428 178.498H82.8717V183.453H87.9428V178.498ZM86.9286 174.309H91.9997V169.354H86.9286V174.309ZM91.5744 165.421H96.6455V160.466H91.5744V165.421ZM96.7763 156.821H101.847V151.866H96.7763V156.821ZM107.573 143.617H102.502V148.572H107.573V143.617ZM113.822 135.752H108.751V140.708H113.822V135.752ZM120.561 128.271H115.49V133.226H120.561V128.271ZM122.721 126.161H127.792V121.205H122.721V126.161ZM135.448 114.619H130.376V119.574H135.448V114.619ZM143.496 108.512H138.425V113.468H143.496V108.512ZM146.866 107.841H151.937V102.885H146.866V107.841ZM155.667 102.757H160.738V97.8019H155.667V102.757ZM164.762 98.2175H169.833V93.262H164.762V98.2175ZM174.119 94.2531H179.19V89.2975H174.119V94.2531ZM183.738 90.8641H188.809V85.9086H183.738V90.8641ZM193.553 88.0826H198.624V83.1271H193.553V88.0826ZM203.499 85.9086H208.57V80.953H203.499V85.9086ZM213.575 84.342H218.646V79.3864H213.575V84.342ZM223.75 83.4148H228.821V78.4592H223.75V83.4148ZM233.958 83.0951H239.029V78.1395H233.958V83.0951ZM244.166 83.4148H249.237V78.4592H244.166V83.4148ZM254.34 84.342H259.412V79.3864H254.34V84.342ZM265.137 85.1732H268.736V81.6564H265.137V85.1732ZM355.141 130.477H354.716V130.892H355.141V130.477ZM361.717 138.118H361.619V138.214H361.717V138.118ZM369.635 144.352H366.199V147.709H369.635V144.352ZM376.178 151.802H371.107V156.757H376.178V151.802ZM381.38 160.402H376.309V165.357H381.38V160.402ZM380.955 174.245H386.026V169.29H380.955V174.245ZM385.011 183.389H390.083V178.434H385.011V183.389ZM388.479 192.757H393.551V187.801H388.479V192.757ZM396.397 197.393H391.326V202.348H396.397V197.393ZM398.622 207.112H393.551V212.068H398.622V207.112ZM400.225 216.959H395.154V221.915H400.225V216.959ZM396.135 231.826H401.206V226.87H396.135V231.826ZM409.647 236.845H404.576V241.801H409.647V236.845ZM409.353 246.821H404.282V251.776H409.353V246.821ZM408.437 256.764H403.366V261.719H408.437V256.764ZM406.899 266.611H401.828V271.566H406.899V266.611ZM404.772 276.362H399.701V281.318H404.772V276.362ZM396.986 290.941H402.057V285.985H396.986V290.941ZM393.681 300.373H398.752V295.417H393.681V300.373ZM391.195 308.27H393.518V306H391.195V308.27ZM288.726 398.397H289.773V397.374H288.726V398.397ZM278.518 401.594H280.35V399.804H278.518V401.594ZM268.016 404.344H270.993V401.434H268.016V404.344ZM261.964 402.042H256.892V406.997H261.964V402.042ZM251.821 403.097H246.75V408.052H251.821V403.097ZM241.614 403.544H236.543V408.5H241.614V403.544ZM231.406 403.384H226.335V408.34H231.406V403.384ZM221.231 402.649H216.16V407.605H221.231V402.649ZM211.122 401.306H206.05V406.262H211.122V401.306ZM201.11 399.388H196.039V404.344H201.11V399.388ZM191.23 396.894H186.159V401.85H191.23V396.894ZM181.513 393.825H176.442V398.781H181.513V393.825ZM172.025 390.18H166.954V395.136H172.025V390.18ZM162.766 385.992H157.695V390.948H162.766V385.992ZM153.769 381.26H148.698V386.216H153.769V381.26ZM145.099 376.017H140.028V380.972H145.099V376.017ZM136.756 370.262H131.685V375.218H136.756V370.262ZM128.773 364.028H123.702V368.983H128.773V364.028ZM121.183 357.346H116.112V362.301H121.183V357.346ZM114.018 350.248H108.947V355.203H114.018V350.248ZM102.24 347.658H107.278V342.735H102.24V347.658ZM96.6455 339.154H100.408V335.477H96.6455V339.154ZM92.7194 329.147H92.8503V329.019H92.7194V329.147ZM69.9813 285.762H74.2344V281.605H69.9813V285.762ZM72.2387 271.502H67.1676V276.458H72.2387V271.502ZM70.4066 261.687H65.3355V266.643H70.4066V261.687ZM69.1961 251.776H64.1249V256.732H69.1961V251.776ZM68.5744 241.833H63.5033V246.789H68.5744V241.833ZM63.5033 236.813H68.5744V231.858H63.5033V236.813ZM69.1633 221.915H64.0922V226.87H69.1633V221.915ZM70.3739 212.004H65.3027V216.959H70.3739V212.004ZM72.206 202.188H67.1349V207.144H72.206V202.188ZM74.627 192.501H69.5559V197.457H74.627V192.501ZM77.637 182.974H72.5659V187.929H77.637V182.974ZM81.2358 173.638H76.1647V178.594H81.2358V173.638ZM80.3198 169.482H85.3909V164.526H80.3198V169.482ZM85.031 160.626H90.1021V155.67H85.031V160.626ZM90.2657 152.057H95.3368V147.102H90.2657V152.057ZM96.0238 143.809H101.095V138.853H96.0238V143.809ZM107.344 130.956H102.273V135.912H107.344V130.956ZM114.051 123.443H108.98V128.399H114.051V123.443ZM121.216 116.345H116.145V121.301H121.216V116.345ZM123.735 114.619H128.806V109.663H123.735V114.619ZM131.718 108.416H136.789V103.461H131.718V108.416ZM140.061 102.662H145.132V97.706H140.061V102.662ZM148.731 97.4183H153.802V92.4627H148.731V97.4183ZM162.766 87.7309H157.695V92.6865H162.766V87.7309ZM166.954 88.4982H172.025V83.5427H166.954V88.4982ZM176.442 84.8535H181.513V79.8979H176.442V84.8535ZM186.159 81.7843H191.23V76.8287H186.159V81.7843ZM196.039 79.2905H201.11V74.3349H196.039V79.2905ZM206.05 77.3722H211.122V72.4166H206.05V77.3722ZM216.16 76.0294H221.231V71.0739H216.16V76.0294ZM226.335 75.2941H231.406V70.3385H226.335V75.2941ZM236.543 75.1342H241.614V70.1786H236.543V75.1342ZM246.75 75.5818H251.821V70.6263H246.75V75.5818ZM256.892 76.6369H261.964V71.6813H256.892V76.6369ZM267.002 78.2354H272.008V73.3438H267.002V78.2354ZM279.5 77.9797H279.402V78.0756H279.5V77.9797ZM378.337 144.608H376.57V146.334H378.337V144.608ZM385.502 151.386H380.431V156.342H385.502V151.386ZM385.404 165.038H390.475V160.082H385.404V165.038ZM389.821 174.022H394.892V169.066H389.821V174.022ZM393.681 183.261H398.752V178.306H393.681V183.261ZM402.057 187.737H396.986V192.693H402.057V187.737ZM404.772 197.361H399.701V202.316H404.772V197.361ZM401.828 212.068H406.899V207.112H401.828V212.068ZM403.333 221.915H408.404V216.959H403.333V221.915ZM404.249 231.858H409.32V226.902H404.249V231.858ZM412.69 241.833H417.761V236.877H412.69V241.833ZM412.395 251.808H417.466V246.853H412.395V251.808ZM411.512 261.751H416.583V256.796H411.512V261.751ZM410.858 270.831H414.293V267.474H410.858V270.831ZM408.895 280.518H412.166V277.321H408.895V280.518ZM406.016 290.43H409.843V286.689H406.016V290.43ZM403.366 299.413H406.179V296.664H403.366V299.413ZM401.01 307.406H401.141V307.278H401.01V307.406ZM264.319 409.875H259.51V414.574H264.319V409.875ZM254.308 410.898H249.237V415.853H254.308V410.898ZM244.133 411.473H239.062V416.429H244.133V411.473ZM233.925 411.473H228.854V416.429H233.925V411.473ZM223.75 410.898H218.679V415.853H223.75V410.898ZM213.608 409.747H208.537V414.702H213.608V409.747ZM203.564 408.052H198.493V413.008H203.564V408.052ZM193.618 405.782H188.547V410.738H193.618V405.782ZM183.836 402.969H178.765V407.924H183.836V402.969ZM174.217 399.612H169.146V404.567H174.217V399.612ZM164.827 395.743H159.756V400.699H164.827V395.743ZM155.667 391.331H150.595V396.287H155.667V391.331ZM146.768 386.44H141.697V391.395H146.768V386.44ZM138.196 381.036H133.125V385.992H138.196V381.036ZM129.951 375.186H124.88V380.141H129.951V375.186ZM122.034 368.887H116.963V373.843H122.034V368.887ZM114.509 362.141H109.438V367.097H114.509V362.141ZM106.461 355.907H103.287V359.008H106.461V355.907ZM97.9868 350.12H98.3794V349.736H97.9868V350.12ZM63.7323 289.886H66.4151V287.264H63.7323V289.886ZM65.0083 276.458H59.9372V281.414H65.0083V276.458ZM62.9799 266.675H57.9088V271.63H62.9799V266.675ZM61.5403 256.796H56.4692V261.751H61.5403V256.796ZM60.657 246.853H55.5859V251.808H60.657V246.853ZM60.3625 236.877H55.2914V241.833H60.3625V236.877ZM55.5859 231.858H60.657V226.902H55.5859V231.858ZM61.5076 216.959H56.4365V221.915H61.5076V216.959ZM62.9471 207.08H57.876V212.036H62.9471V207.08ZM63.536 198.736H61.3767V200.846H63.536V198.736ZM67.233 187.993H62.849V192.277H67.233V187.993ZM70.7337 178.178H65.6626V183.134H70.7337V178.178ZM74.4307 168.874H69.3596V173.83H74.4307V168.874ZM73.6128 164.75H78.6839V159.794H73.6128V164.75ZM78.3895 155.926H83.4606V150.97H78.3895V155.926ZM83.6569 147.39H88.728V142.434H83.6569V147.39ZM89.415 139.141H94.4861V134.185H89.415V139.141ZM100.702 126.288H95.6312V131.244H100.702V126.288ZM107.377 118.743H102.305V123.699H107.377V118.743ZM109.438 116.537H114.509V111.582H109.438V116.537ZM122.034 104.836H116.963V109.791H122.034V104.836ZM124.88 103.461H129.951V98.5053H124.88V103.461ZM133.125 97.6101H138.196V92.6545H133.125V97.6101ZM141.697 92.2069H146.768V87.2514H141.697V92.2069ZM150.595 87.3153H155.667V82.3598H150.595V87.3153ZM159.756 82.9033H164.827V77.9477H159.756V82.9033ZM169.146 79.0347H174.217V74.0792H169.146V79.0347ZM178.765 75.6777H183.836V70.7222H178.765V75.6777ZM188.547 72.8642H193.618V67.9087H188.547V72.8642ZM198.493 70.5943H203.564V65.6387H198.493V70.5943ZM208.537 68.8998H213.608V63.9442H208.537V68.8998ZM218.679 67.7488H223.75V62.7933H218.679V67.7488ZM228.854 67.1733H233.925V62.2178H228.854V67.1733ZM239.062 67.1733H244.133V62.2178H239.062V67.1733ZM254.308 62.7933H249.237V67.7488H254.308V62.7933ZM259.412 68.8678H264.45V63.9442H259.412V68.8678ZM269.816 70.2106H274.134V65.9904H269.816V70.2106ZM281.986 70.2746H281.855V70.4025H281.986V70.2746ZM386.942 144.704H386.68V144.96H386.942V144.704ZM394.107 151.418H390.083V155.35H394.107V151.418ZM399.407 159.73H394.336V164.686H399.407V159.73ZM398.589 173.766H403.66V168.81H398.589V173.766ZM402.286 183.07H407.357V178.114H402.286V183.07ZM410.498 187.61H405.427V192.565H410.498V187.61ZM413.082 197.265H408.011V202.22H413.082V197.265ZM415.111 207.048H410.04V212.004H415.111V207.048ZM416.55 216.927H411.479V221.883H416.55V216.927ZM417.434 226.87H412.363V231.826H417.434V226.87ZM420.771 241.801H425.842V236.845H420.771V241.801ZM420.509 251.776H425.58V246.821H420.509V251.776ZM419.659 261.719H424.73V256.764H419.659V261.719ZM420.182 269.744H421.425V268.529H420.182V269.744ZM262.422 421.832H266.478V417.867H262.422V421.832ZM256.86 418.603H251.789V423.558H256.86V418.603ZM246.685 419.274H241.614V424.23H246.685V419.274ZM236.477 419.402H231.406V424.358H236.477V419.402ZM226.269 418.986H221.198V423.942H226.269V418.986ZM216.095 418.027H211.023V422.983H216.095V418.027ZM206.018 416.525H200.947V421.48H206.018V416.525ZM196.039 414.51H190.968V419.466H196.039V414.51ZM186.191 411.953H181.12V416.908H186.191V411.953ZM176.474 408.883H171.403V413.839H176.474V408.883ZM166.954 405.303H161.883V410.258H166.954V405.303ZM157.662 401.21H152.591V406.166H157.662V401.21ZM148.6 396.606H143.529V401.562H148.6V396.606ZM139.799 391.555H134.728V396.511H139.799V391.555ZM131.293 386.024H126.221V390.979H131.293V386.024ZM123.113 380.045H118.042V385.001H123.113V380.045ZM115.294 373.651H110.223V378.607H115.294V373.651ZM106.264 368.376H104.334V370.262H106.264V368.376ZM57.8106 293.595H58.2686V293.147H57.8106V293.595ZM57.8106 281.286H52.7395V286.241H57.8106V281.286ZM55.5859 271.534H50.5148V276.49H55.5859V271.534ZM53.9173 261.687H48.8462V266.643H53.9173V261.687ZM52.8049 251.776H47.7338V256.732H52.8049V251.776ZM52.2487 241.833H47.1776V246.789H52.2487V241.833ZM47.2431 236.75H52.216V231.89H47.2431V236.75ZM52.8049 221.883H47.7338V226.838H52.8049V221.883ZM53.9173 211.972H48.8462V216.927H53.9173V211.972ZM55.5859 202.125H50.5148V207.08H55.5859V202.125ZM55.3568 194.931V194.771H55.1933V194.931H55.3568ZM58.6285 185.851V184.668H57.418V185.851H58.6285ZM63.7651 173.414H58.8248V178.242H63.7651V173.414ZM62.5873 169.034H67.6584V164.079H62.5873V169.034ZM66.9059 159.986H71.977V155.031H66.9059V159.986ZM71.7152 151.194H76.7864V146.239H71.7152V151.194ZM77.0154 142.658H82.0865V137.702H77.0154V142.658ZM87.8446 129.486H82.7735V134.441H87.8446V129.486ZM94.0608 121.589H88.9897V126.544H94.0608V121.589ZM100.702 114.011H95.6312V118.967H100.702V114.011ZM107.769 106.818H102.698V111.773H107.769V106.818ZM115.196 100.04H110.157V104.964H115.196V100.04ZM117.977 98.5692H123.048V93.6137H117.977V98.5692ZM126.156 92.5906H131.227V87.635H126.156V92.5906ZM134.662 87.0595H139.733V82.104H134.662V87.0595ZM143.463 82.0081H148.534V77.0525H143.463V82.0081ZM157.597 72.4806H152.526V77.4362H157.597V72.4806ZM161.85 73.3438H166.921V68.3883H161.85V73.3438ZM171.371 69.763H176.442V64.8074H171.371V69.763ZM181.088 66.6938H186.159V61.7382H181.088V66.6938ZM190.968 64.1361H196.039V59.1805H190.968V64.1361ZM200.947 62.1219H206.018V57.1663H200.947V62.1219ZM211.023 60.6192H216.095V55.6636H211.023V60.6192ZM221.198 59.6601H226.269V54.7045H221.198V59.6601ZM231.406 59.2444H236.477V54.2889H231.406V59.2444ZM241.614 59.3723H246.685V54.4168H241.614V59.3723ZM251.919 59.9158H256.729V55.216H251.919V59.9158ZM265.268 57.9656H263.599V59.5961H265.268V57.9656ZM403.366 150.938H398.949V155.255H403.366V150.938ZM403.202 164.494H408.273V159.539H403.202V164.494ZM407.259 173.638H412.33V168.682H407.259V173.638ZM410.792 182.974H415.863V178.018H410.792V182.974ZM413.802 192.501H418.873V187.546H413.802V192.501ZM421.36 197.233H416.289V202.188H421.36V197.233ZM423.29 207.016H418.219V211.972H423.29V207.016ZM424.664 216.895H419.593V221.851H424.664V216.895ZM425.515 226.838H420.444V231.794H425.515V226.838ZM428.852 241.769H433.923V236.813H428.852V241.769ZM428.59 251.744H433.661V246.789H428.59V251.744ZM428.132 261.336H432.484V257.083H428.132V261.336ZM428.95 269.137H429.048V269.041H428.95V269.137ZM265.235 429.121H268.67V425.764H265.235V429.121ZM259.379 426.276H254.308V431.231H259.379V426.276ZM249.204 427.043H244.133V431.999H249.204V427.043ZM238.996 427.299H233.925V432.255H238.996V427.299ZM228.789 427.043H223.718V431.999H228.789V427.043ZM218.614 426.276H213.543V431.231H218.614V426.276ZM208.504 424.965H203.433V429.921H208.504V424.965ZM198.46 423.143H193.389V428.098H198.46V423.143ZM188.547 420.809H183.476V425.764H188.547V420.809ZM178.765 417.963H173.694V422.919H178.765V417.963ZM169.146 414.638H164.075V419.594H169.146V414.638ZM159.723 410.834H154.652V415.789H159.723V410.834ZM150.497 406.55H145.426V411.505H150.497V406.55ZM141.533 401.786H136.462V406.741H141.533V401.786ZM132.83 396.574H127.759V401.53H132.83V396.574ZM124.422 390.916H119.351V395.871H124.422V390.916ZM116.308 384.873H111.303V389.765H116.308V384.873ZM105.217 381.676H106.919V380.013H105.217V381.676ZM47.4394 289.31H48.9443V287.84H47.4394V289.31ZM48.3227 276.394H43.2516V281.35H48.3227V276.394ZM46.4579 266.579H41.3868V271.534H46.4579V266.579ZM45.1165 256.7H40.0454V261.655H45.1165V256.7ZM44.3313 246.757H39.2602V251.712H44.3313V246.757ZM43.088 240.778V237.773H40.0127V240.778H43.088ZM44.3313 226.838H39.2602V231.794H44.3313V226.838ZM45.1165 216.895H40.0454V221.851H45.1165V216.895ZM46.4579 207.016H41.3868V211.972H46.4579V207.016ZM46.327 199.151H45.2473V200.206H46.327V199.151ZM56.8618 168.682H52.0852V173.35H56.8618V168.682ZM55.8476 164.27H60.9187V159.315H55.8476V164.27ZM60.2316 155.255H65.3027V150.299H60.2316V155.255ZM65.1065 146.494H70.1776V141.539H65.1065V146.494ZM75.5104 133.034H70.4393V137.99H75.5104V133.034ZM81.3013 124.818H76.2302V129.773H81.3013V124.818ZM85.5545 118.807H84.4094V119.926H85.5545V118.807ZM92.1633 111.262H91.0836V112.317H92.1633V111.262ZM99.8517 103.365H97.4307V105.731H99.8517V103.365ZM106.526 97.1945H105.544V98.1536H106.526V97.1945ZM112.84 92.143H114.738V90.2887H112.84V92.143ZM119.678 87.3153H124.095V82.9992H119.678V87.3153ZM132.83 77.0205H127.759V81.9761H132.83V77.0205ZM136.462 76.7648H141.533V71.8092H136.462V76.7648ZM145.426 72.001H150.497V67.0455H145.426V72.001ZM154.652 67.7169H159.723V62.7613H154.652V67.7169ZM164.075 63.9123H169.146V58.9567H164.075V63.9123ZM173.694 60.5872H178.765V55.6317H173.694V60.5872ZM183.476 57.7418H188.547V52.7862H183.476V57.7418ZM193.389 55.4079H198.46V50.4523H193.389V55.4079ZM203.433 53.5855H208.504V48.6299H203.433V53.5855ZM213.543 52.2747H218.614V47.3191H213.543V52.2747ZM223.718 51.5074H228.789V46.5518H223.718V51.5074ZM234.056 51.0918H238.833V46.4239H234.056V51.0918ZM245.769 49.8768H247.568V48.1184H245.769V49.8768ZM411.447 151.514H408.862V154.04H411.447V151.514ZM417.074 159.315H412.003V164.27H417.074V159.315ZM415.929 173.478H421V168.523H415.929V173.478ZM424.402 177.922H419.331V182.878H424.402V177.922ZM427.282 187.514H422.276V192.405H427.282V187.514ZM429.67 197.201H424.631V202.125H429.67V197.201ZM431.535 206.984H426.464V211.94H431.535V206.984ZM432.876 216.863H427.805V221.819H432.876V216.863ZM428.623 231.762H433.694V226.806H428.623V231.762ZM436.998 241.737H442.07V236.782H436.998V241.737ZM436.737 251.712H441.808V246.757H436.737V251.712ZM436.41 261.208H440.597V257.115H436.41V261.208ZM269.946 434.588H268.998V435.516H269.946V434.588ZM256.827 438.905H261.898V433.949H256.827V438.905ZM251.723 434.844H246.652V439.8H251.723V434.844ZM241.516 435.228H236.444V440.183H241.516V435.228ZM231.308 435.1H226.237V440.056H231.308V435.1ZM221.133 434.461H216.062V439.416H221.133V434.461ZM210.991 433.342H205.92V438.297H210.991V433.342ZM200.914 431.711H195.843V436.667H200.914V431.711ZM190.935 429.601H185.864V434.557H190.935V429.601ZM181.088 427.011H176.016V431.967H181.088V427.011ZM171.371 423.942H166.3V428.898H171.371V423.942ZM161.817 420.393H156.746V425.349H161.817V420.393ZM152.493 416.365H147.422V421.32H152.493V416.365ZM143.365 411.889H138.294V416.844H143.365V411.889ZM134.499 406.965H129.428V411.921H134.499V406.965ZM125.894 401.626H120.823V406.582H125.894V401.626ZM116.832 396.574H113.233V400.091H116.832V396.574ZM106.886 392.29H107.115V392.066H106.886V392.29ZM38.2132 284.195H38.475V283.939H38.2132V284.195ZM34.549 276.01H38.0497V272.589H34.549V276.01ZM37.2972 261.975H32.2261V266.931H37.2972V261.975ZM36.2829 252.064H31.2118V257.019H36.2829V252.064ZM34.9416 246.245V242.888H31.5063V246.245H34.9416ZM35.7595 232.114H30.6884V237.069H35.7595V232.114ZM31.2118 227.094H36.2829V222.139H31.2118V227.094ZM37.2972 212.228H32.2261V217.183H37.2972V212.228ZM38.2787 202.892H34.2872V206.792H38.2787V202.892ZM49.2715 164.718H45.5745V168.331H49.2715V164.718ZM48.9443 159.762H53.8846V154.935H48.9443V159.762ZM53.3284 150.842H58.3995V145.887H53.3284V150.842ZM58.2359 142.114H63.307V137.159H58.2359V142.114ZM68.6726 128.686H63.6015V133.642H68.6726V128.686ZM73.3184 121.589H70.5047V124.338H73.3184V121.589ZM122.165 75.6777H124.029V73.8554H122.165V75.6777ZM130.736 70.3705H132.667V68.4842H130.736V70.3705ZM138.065 66.9815H143.136V62.026H138.065V66.9815ZM147.193 62.5055H152.264V57.55H147.193V62.5055ZM156.55 58.4771H161.621V53.5216H156.55V58.4771ZM166.071 54.9283H171.142V49.9727H166.071V54.9283ZM175.787 51.8591H180.859V46.9035H175.787V51.8591ZM185.635 49.2694H190.706V44.3138H185.635V49.2694ZM195.614 47.1593H200.685V42.2037H195.614V47.1593ZM205.691 45.5287H210.762V40.5732H205.691V45.5287ZM215.833 44.4097H220.904V39.4541H215.833V44.4097ZM226.008 43.7703H231.079V38.8147H226.008V43.7703ZM238.309 41.5962H239.193V40.733H238.309V41.5962ZM417.172 151.194V154.487H420.542V151.194H417.172ZM420.542 164.398H425.613V159.443H420.542V164.398ZM424.304 173.67H429.375V168.714H424.304V173.67ZM432.647 178.178H427.576V183.134H432.647V178.178ZM433.759 189.432H432.058V191.094H433.759V189.432ZM436.933 198.288H433.465V201.677H436.933V198.288ZM439.387 207.464H434.577V212.164H439.387V207.464ZM440.695 217.343H435.821V222.107H440.695V217.343ZM436.508 232.146H441.579V227.19H436.508V232.146ZM446.126 240.906H448.744V238.348H446.126V240.906ZM444.85 251.872H449.496V247.332H444.85V251.872ZM445.145 260.824H447.73V258.298H445.145V260.824ZM271.19 443.668H272.4V442.485H271.19V443.668ZM259.15 446.993H264.221V442.038H259.15V446.993ZM254.046 442.997H248.975V447.953H254.046V442.997ZM243.838 443.477H238.767V448.432H243.838V443.477ZM233.631 443.477H228.56V448.432H233.631V443.477ZM223.423 442.997H218.352V447.953H223.423V442.997ZM213.281 442.038H208.21V446.993H213.281V442.038ZM203.171 440.599H198.1V445.555H203.171V440.599ZM193.16 438.681H188.089V443.636H193.16V438.681ZM183.247 436.283H178.176V441.239H183.247V436.283ZM173.465 433.438H168.393V438.393H173.465V433.438ZM163.846 430.112H158.775V435.068H163.846V430.112ZM154.391 426.34H149.32V431.295H154.391V426.34ZM145.132 422.152H140.061V427.107H145.132V422.152ZM136.102 417.516H131.031V422.471H136.102V417.516ZM127.105 412.656H122.459V417.196H127.105V412.656ZM115.523 410.194H116.995V408.756H115.523V410.194ZM27.0241 269.616H27.5148V269.137H27.0241V269.616ZM23.687 261.783H28.3655V257.211H23.687V261.783ZM27.8093 247.076H22.7709V252H27.8093V247.076ZM26.1407 240.618V238.508H23.9814V240.618H26.1407ZM27.842 227.126H22.7709V232.082H27.842V227.126ZM23.5234 222.139H28.5945V217.183H23.5234V222.139ZM24.7666 212.228H29.8377V207.272H24.7666V212.228ZM29.7396 199.215H28.3V200.622H29.7396V199.215ZM40.6343 161.681V161.777H40.7324V161.681H40.6343ZM46.0653 151.29H43.4152V153.88H46.0653V151.29ZM46.7196 146.111H51.7907V141.155H46.7196V146.111ZM51.6926 137.382H56.7637V132.427H51.6926V137.382ZM62.1292 123.955H57.0581V128.91H62.1292V123.955ZM66.2515 117.4H64.5503V119.063H66.2515V117.4ZM133.452 58.9887V59.3403H133.812V58.9887H133.452ZM144.15 53.074H141.14V56.0153H144.15V53.074ZM149.385 52.8182H154.456V47.8626H149.385V52.8182ZM158.84 49.0456H163.911V44.09H158.84V49.0456ZM168.459 45.7206H173.53V40.765H168.459V45.7206ZM178.241 42.8751H183.312V37.9195H178.241V42.8751ZM188.154 40.4772H193.225V35.5217H188.154V40.4772ZM203.237 33.6034H198.166V38.559H203.237V33.6034ZM208.275 37.1202H213.346V32.1647H208.275V37.1202ZM218.417 36.1611H223.489V31.2055H218.417V36.1611ZM228.756 35.5536H233.533V30.8858H228.756V35.5536ZM419.528 133.706H417.074V136.104H419.528V133.706ZM421.262 145.567H425.286V141.635H421.262V145.567ZM425.253 155.031H430.324V150.075H425.253V155.031ZM432.189 162.032V161.393H431.535V162.032H432.189ZM433.89 172.583H437.064V169.482H433.89V172.583ZM440.859 178.338H436.442V182.654H440.859V178.338ZM443.215 200.174H443.836V199.567H443.215V200.174ZM445.309 209.734V209.638H445.21V209.734H445.309ZM446.355 219.453V219.741H446.65V219.453H446.355ZM445.865 230.867H448.613V228.181H445.865V230.867ZM455.32 249.506H455.385V249.442H455.32V249.506ZM454.567 259.481H454.698V259.353H454.567V259.481ZM274.134 450.766H274.592V450.318H274.134V450.766ZM266.806 449.583H261.734V454.539H266.806V449.583ZM256.663 450.638H251.592V455.594H256.663V450.638ZM246.488 451.214H241.417V456.169H246.488V451.214ZM236.281 451.341H231.21V456.297H236.281V451.341ZM226.073 450.99H221.002V455.945H226.073V450.99ZM215.898 450.19H210.827V455.146H215.898V450.19ZM205.789 448.912H200.718V453.867H205.789V448.912ZM195.745 447.185H190.674V452.141H195.745V447.185ZM185.799 445.011H180.728V449.967H185.799V445.011ZM175.951 442.389H170.88V447.345H175.951V442.389ZM166.234 439.32H161.163V444.276H166.234V439.32ZM156.681 435.803H151.61V440.759H156.681V435.803ZM147.324 431.839H142.253V436.794H147.324V431.839ZM138.163 427.459H133.092V432.414H138.163V427.459ZM125.796 426.02H127.563V424.294H125.796V426.02ZM16.1294 255.836H18.8449V253.183H16.1294V255.836ZM15.3442 246.181H18.6813V242.92H15.3442V246.181ZM15.6386 233.233V235.918H18.3868V233.233H15.6386ZM14.9516 227.094H20.0227V222.139H14.9516V227.094ZM15.9004 217.151H20.9715V212.196H15.9004V217.151ZM17.3399 207.24H22.3456V202.348H17.3399V207.24ZM36.1521 149.691H39.9145V146.015H36.1521V149.691ZM45.1492 136.455H40.0781V141.411H45.1492V136.455ZM49.9259 127.983H45.3128V132.491H49.9259V127.983ZM54.9315 119.926H51.1037V123.667H54.9315V119.926ZM58.9557 113.436H58.6612V113.724H58.9557V113.436ZM144.15 45.3369H145.263V44.2499H144.15V45.3369ZM151.544 43.3227H156.615V38.3671H151.544V43.3227ZM161.098 39.8058H166.169V34.8503H161.098V39.8058ZM170.814 36.7366H175.886V31.781H170.814V36.7366ZM180.662 34.1149H185.733V29.1594H180.662V34.1149ZM190.608 31.9409H195.679V26.9853H190.608V31.9409ZM200.652 30.2144H205.723V25.2589H200.652V30.2144ZM210.762 28.9356H215.833V23.98H210.762V28.9356ZM220.937 28.1363H226.008V23.1807H220.937V28.1363ZM232.878 26.0901H234.481V24.5235H232.878V26.0901ZM243.806 25.5146H243.969V25.3548H243.806V25.5146ZM416.649 117.688H416.583V117.752H416.649V117.688ZM424.01 124.306H420.444V127.791H424.01V124.306ZM424.893 137.095H429.964V132.139H424.893V137.095ZM429.67 145.887H434.741V140.931H429.67V145.887ZM439.092 149.947H434.021V154.903H439.092V149.947ZM441.383 160.754H439.616V162.48H441.383V160.754ZM443.869 171.112H444.163V170.825H443.869V171.112ZM446.683 180.864H447.435V180.128H446.683V180.864ZM264.254 462.276H269.292V457.352H264.254V462.276ZM259.15 458.471H254.079V463.427H259.15V458.471ZM248.975 459.143H243.904V464.098H248.975V459.143ZM238.767 459.366H233.696V464.322H238.767V459.366ZM228.56 459.143H223.489V464.098H228.56V459.143ZM218.385 458.471H213.314V463.427H218.385V458.471ZM208.243 457.352H203.171V462.308H208.243V457.352ZM198.166 455.785H193.095V460.741H198.166V455.785ZM188.154 453.771H183.083V458.727H188.154V453.771ZM178.274 451.341H173.203V456.297H178.274V451.341ZM168.492 448.464H163.42V453.42H168.492V448.464ZM158.873 445.171H153.802V450.127H158.873V445.171ZM149.385 441.462H144.314V446.418H149.385V441.462ZM140.028 437.402H135.088V442.23H140.028V437.402ZM128.119 435.643H128.806V434.972H128.119V435.643ZM8.31007 230.291H9.74961V228.885H8.31007V230.291ZM7.1977 222.107H12.2361V217.183H7.1977V222.107ZM8.63724 211.908H13.0867V207.56H8.63724V211.908ZM12.9886 199.375H11.9416V200.398H12.9886V199.375ZM31.6044 142.882H31.0483V143.425H31.6044V142.882ZM36.8718 133.386H35.0724V135.145H36.8718V133.386ZM145.328 36.7046H148.338V33.7313H145.328V36.7046ZM153.834 33.9231H158.775V29.0954H153.834V33.9231ZM163.453 30.662H168.459V25.7704H163.453V30.662ZM173.203 27.8166H178.274V22.861H173.203V27.8166ZM183.116 25.3867H188.187V20.4312H183.116V25.3867ZM193.127 23.3726H198.198V18.417H193.127V23.3726ZM203.204 21.8059H208.275V16.8504H203.204V21.8059ZM213.346 20.687H218.417V15.7314H213.346V20.687ZM223.587 19.9516H228.527V15.1239H223.587V19.9516ZM233.827 19.6958H238.702V14.9321H233.827V19.6958ZM244.722 19.2482H248.19V15.8593H244.722V19.2482ZM427.674 115.578H424.468V118.711H427.674V115.578ZM434.021 123.123H428.95V128.079H434.021V123.123ZM434.316 136.423H438.7V132.139H434.316V136.423ZM443.64 140.708H438.634V145.599H443.64V140.708ZM447.893 149.755H442.822V154.711H447.893V149.755ZM447.272 163.343H451.067V159.635H447.272V163.343ZM455.254 180.64H455.647V180.256H455.254V180.64ZM268.703 468.031H269.816V466.943H268.703V468.031ZM261.669 466.208H256.598V471.164H261.669V466.208ZM251.494 466.975H246.423V471.931H251.494V466.975ZM241.286 467.295H236.215V472.251H241.286V467.295ZM231.079 467.199H226.008V472.155H231.079V467.199ZM220.871 466.656H215.8V471.611H220.871V466.656ZM210.729 465.697H205.658V470.652H210.729V465.697ZM200.619 464.29H195.548V469.245H200.619V464.29ZM190.575 462.467H185.504V467.423H190.575V462.467ZM180.63 460.229H175.558V465.185H180.63V460.229ZM170.782 457.576H165.711V462.531H170.782V457.576ZM161.065 454.507H155.994V459.462H161.065V454.507ZM151.512 451.022H146.44V455.977H151.512V451.022ZM142.056 447.185H137.116V452.013H142.056V447.185ZM1.14509 224.664H1.21052V224.6H1.14509V224.664ZM0 216.735H4.15504V212.675H0V216.735ZM4.0896 204.139H2.68278V205.513H4.0896V204.139ZM157.564 23.2766H159.691V21.1985H157.564V23.2766ZM165.809 21.6141H170.88V16.6586H165.809V21.6141ZM175.657 18.9605H180.728V14.0049H175.657V18.9605ZM185.602 16.7225H190.674V11.7669H185.602V16.7225ZM195.647 14.9001H200.718V9.94456H195.647V14.9001ZM205.756 13.4934H210.827V8.53783H205.756V13.4934ZM215.898 12.5343H220.969V7.57869H215.898V12.5343ZM226.106 11.9907H231.177V7.03517H226.106V11.9907ZM236.314 11.8948H241.385V6.93926H236.314V11.8948ZM250.414 8.40994H247.699V11.0636H250.414V8.40994ZM437.326 114.875H433.629V118.487H437.326V114.875ZM440.99 124.978H440.499V125.457H440.99V124.978ZM452.441 140.644H447.762V145.215H452.441V140.644ZM456.727 149.596H451.656V154.551H456.727V149.596ZM455.582 163.631H460.162V159.155H455.582V163.631ZM463.532 168.523H458.755V173.19H463.532V168.523ZM462.648 181.727H465.298V179.137H462.648V181.727ZM260.164 478.038H263.403V474.872H260.164V478.038ZM254.144 474.808H249.073V479.764H254.144V474.808ZM243.937 475.224H238.865V480.18H243.937V475.224ZM233.729 475.224H228.658V480.18H233.729V475.224ZM223.521 474.808H218.45V479.764H223.521V474.808ZM213.346 473.977H208.275V478.933H213.346V473.977ZM203.204 472.73H198.133V477.686H203.204V472.73ZM193.127 471.068H188.056V476.023H193.127V471.068ZM183.149 468.99H178.078V473.945H183.149V468.99ZM173.268 466.496H168.197V471.451H173.268V466.496ZM163.486 463.618H158.415V468.574H163.486V463.618ZM153.834 460.325H148.763V465.281H153.834V460.325ZM144.281 456.713H139.308V461.572H144.281V456.713ZM132.241 455.306H132.699V454.858H132.241V455.306ZM149.32 18.353H153.246V14.5165H149.32V18.353ZM158.382 15.6355H163.453V10.6799H158.382V15.6355ZM168.164 12.7581H173.236V7.80249H168.164V12.7581ZM178.045 10.2643H183.116V5.30872H178.045V10.2643ZM188.024 8.18614H193.095V3.23058H188.024V8.18614ZM198.1 6.52363H203.171V1.56807H198.1V6.52363ZM208.243 5.27675H213.314V0.32119H208.243V5.27675ZM218.417 4.4455H223.489V-0.510071H218.417V4.4455ZM228.625 4.02987H233.696V-0.925697H228.625V4.02987ZM239.062 3.80607H243.675V-0.701904H239.062V3.80607ZM251.527 1.91975V2.01566H251.625V1.91975H251.527ZM460.914 140.803H456.858V144.768H460.914V140.803ZM465.364 149.5H460.293V154.455H465.364V149.5ZM468.93 158.835H463.859V163.791H468.93V158.835ZM472.071 168.331H467V173.286H472.071V168.331ZM470.435 182.238H474.165V178.594H470.435V182.238ZM256.598 482.673H251.658V487.501H256.598V482.673ZM246.456 483.121H241.385V488.077H246.456V483.121ZM236.248 483.217H231.177V488.172H236.248V483.217ZM226.04 482.929H220.969V487.885H226.04V482.929ZM215.866 482.226H210.794V487.181H215.866V482.226ZM205.723 481.107H200.652V486.062H205.723V481.107ZM195.647 479.604H190.575V484.56H195.647V479.604ZM185.635 477.686H180.564V482.641H185.635V477.686ZM175.689 475.384H170.618V480.339H175.689V475.384ZM165.874 472.698H160.803V477.654H165.874V472.698ZM156.157 469.629H151.086V474.585H156.157V469.629ZM146.31 466.432H141.795V470.844H146.31V466.432ZM134.564 464.865H134.695V464.737H134.564V464.865ZM142.056 12.6302H146.048V8.72966H142.056V12.6302ZM151.086 9.6888H156.157V4.73324H151.086V9.6888ZM160.803 6.61954H165.874V1.66399H160.803V6.61954ZM170.618 3.93395H175.689V-1.02161H170.618V3.93395ZM180.564 1.63201H185.635V-3.32355H180.564V1.63201ZM190.575 -0.28627H195.647V-5.24184H190.575V-0.28627ZM200.652 -1.78893H205.723V-6.74449H200.652V-1.78893ZM210.794 -2.90792H215.866V-7.86349H210.794V-2.90792ZM220.969 -3.6113H226.04V-8.56686H220.969V-3.6113ZM231.242 -3.96297H236.183V-8.79066H231.242V-3.96297ZM243.871 -6.29689V-6.23295H243.937V-6.29689H243.871ZM470.173 140.164H465.102V145.12H470.173V140.164ZM468.93 154.359H474.001V149.404H468.93V154.359ZM472.365 163.759H477.436V158.803H472.365V163.759ZM480.479 168.331H475.408V173.286H480.479V168.331ZM479.17 181.823H482.049V179.009H479.17V181.823ZM485.485 210.501H486.859V209.158H485.485V210.501ZM486.957 219.997H487.48V219.485H486.957V219.997ZM487.742 229.78H487.906V229.62H487.742V229.78ZM258.561 490.986H254.668V494.791H258.561V490.986ZM248.975 490.986H243.904V495.942H248.975V490.986ZM238.767 491.178H233.696V496.133H238.767V491.178ZM228.56 490.986H223.489V495.942H228.56V490.986ZM218.385 490.411H213.314V495.366H218.385V490.411ZM208.243 489.419H203.171V494.375H208.243V489.419ZM198.133 488.045H193.062V493H198.133V488.045ZM188.089 486.286H183.018V491.242H188.089V486.286ZM178.11 484.144H173.039V489.1H178.11V484.144ZM168.23 481.618H163.159V486.574H168.23V481.618ZM158.448 478.709H153.376V483.665H158.448V478.709ZM144.543 479.604H147.978V476.247H144.543V479.604ZM127.367 8.82558V8.95345H127.497V8.82558H127.367ZM139.177 2.52721H134.368V7.22701H139.177V2.52721ZM143.758 3.71015H148.829V-1.24541H143.758V3.71015ZM153.409 0.449074H158.48V-4.50649H153.409V0.449074ZM163.191 -2.46033H168.263V-7.41589H163.191V-2.46033ZM173.072 -4.98606H178.143V-9.94163H173.072V-4.98606ZM183.051 -7.12814H188.122V-12.0837H183.051V-7.12814ZM193.095 -8.88657H198.166V-13.8421H193.095V-8.88657ZM203.204 -10.2613H208.275V-15.2169H203.204V-10.2613ZM213.346 -11.2525H218.417V-16.208H213.346V-11.2525ZM223.521 -11.8279H228.592V-16.7835H223.521V-11.8279ZM234.22 -12.4993H238.342V-16.5277H234.22V-12.4993ZM245.932 -13.7782H247.045V-14.8652H245.932V-13.7782ZM478.68 140.1H474.197V144.48H478.68V140.1ZM482.671 149.116H477.6V154.072H482.671V149.116ZM486.008 158.548H480.937V163.503H486.008V158.548ZM488.985 168.107H483.914V173.063H488.985V168.107ZM487.84 181.375H490.196V179.073H487.84V181.375ZM494.286 198.512H491.701V201.038H494.286V198.512ZM496.936 207.176H491.865V212.132H496.936V207.176ZM492.911 222.011H497.917V217.119H492.911V222.011ZM494.842 230.675H497.197V228.373H494.842V230.675ZM257.841 501.824H260.622V499.107H257.841V501.824ZM251.56 498.659H246.488V503.615H251.56V498.659ZM241.352 498.947H236.281V503.902H241.352V498.947ZM231.144 498.851H226.073V503.806H231.144V498.851ZM220.937 498.371H215.866V503.327H220.937V498.371ZM210.762 497.508H205.691V502.464H210.762V497.508ZM200.619 496.261H195.548V501.217H200.619V496.261ZM190.543 494.663H185.472V499.618H190.543V494.663ZM180.531 492.68H175.46V497.636H180.531V492.68ZM170.618 490.315H165.547V495.27H170.618V490.315ZM160.378 488.013H156.157V492.137H160.378V488.013ZM127.694 1.12048H131.456V-2.55624H127.694V1.12048ZM141.533 -7.00026H136.462V-2.0447H141.533V-7.00026ZM146.048 -5.49761H151.119V-10.4532H146.048V-5.49761ZM155.765 -8.56686H160.836V-13.5224H155.765V-8.56686ZM165.58 -11.2844H170.651V-16.24H165.58V-11.2844ZM175.493 -13.6503H180.564V-18.6059H175.493V-13.6503ZM185.504 -15.6325H190.575V-20.5881H185.504V-15.6325ZM195.581 -17.2311H200.652V-22.1867H195.581V-17.2311ZM205.723 -18.478H210.794V-23.4335H205.723V-18.478ZM215.898 -19.3412H220.969V-24.2968H215.898V-19.3412ZM226.106 -19.8208H231.177V-24.7763H226.106V-19.8208ZM236.314 -19.9167H241.352V-24.8403H236.314V-19.9167ZM247.176 -20.3004H250.873V-23.9131H247.176V-20.3004ZM487.644 139.716H482.573V144.672H487.644V139.716ZM486.205 154.008H491.276V149.052H486.205V154.008ZM494.515 158.516H489.444V163.471H494.515V158.516ZM497.394 168.075H492.323V173.031H497.394V168.075ZM498.735 178.881H495.987V181.567H498.735V178.881ZM499.52 190.007V189.943H499.455V190.007H499.52ZM503.741 197.361H498.702V202.284H503.741V197.361ZM505.115 207.24H500.044V212.196H505.115V207.24ZM501.32 221.819H505.769V217.471H501.32V221.819ZM503.119 230.579H505.148V228.597H503.119V230.579ZM261.113 508.922H262.389V507.675H261.113V508.922ZM254.111 506.556H249.04V511.512H254.111V506.556ZM243.904 506.94H238.833V511.895H243.904V506.94ZM233.696 506.94H228.625V511.895H233.696V506.94ZM223.489 506.556H218.417V511.512H223.489V506.556ZM213.314 505.821H208.243V510.776H213.314V505.821ZM203.171 504.702H198.1V509.657H203.171V504.702ZM193.062 503.231H187.991V508.187H193.062V503.231ZM183.018 501.409H177.947V506.364H183.018V501.409ZM173.072 499.203H168.001V504.158H173.072V499.203ZM162.112 497.7H159.2V500.545H162.112V497.7ZM129.46 -8.02335H134.008V-12.4674H129.46V-8.02335ZM138.719 -11.3803H143.79V-16.3359H138.719V-11.3803ZM148.371 -14.6414H153.442V-19.597H148.371V-14.6414ZM158.12 -17.5508H163.191V-22.5064H158.12V-17.5508ZM168.001 -20.1085H173.072V-25.0641H168.001V-20.1085ZM177.947 -22.3146H183.018V-27.2701H177.947V-22.3146ZM187.991 -24.1369H193.062V-29.0925H187.991V-24.1369ZM198.1 -25.6076H203.171V-30.5632H198.1V-25.6076ZM208.243 -26.7266H213.314V-31.6822H208.243V-26.7266ZM218.417 -27.4619H223.489V-32.4175H218.417V-27.4619ZM228.625 -27.8456H233.696V-32.8012H228.625V-27.8456ZM238.833 -27.8456H243.904V-32.8012H238.833V-27.8456ZM249.139 -27.5579H254.013V-32.3216H249.139V-27.5579ZM261.571 -29.0285H261.964V-29.4122H261.571V-29.0285ZM485.779 123.667H485.681V123.763H485.779V123.667ZM489.836 132.715V132.906H490.032V132.715H489.836ZM496.314 139.557H491.243V144.512H496.314V139.557ZM499.815 148.924H494.744V153.88H499.815V148.924ZM502.956 158.42H497.884V163.375H502.956V158.42ZM505.736 168.011H500.665V172.967H505.736V168.011ZM507.143 178.721H504.133V181.663H507.143V178.721ZM509.761 187.961H505.671V191.958H509.761V187.961ZM511.953 197.329H506.882V202.284H511.953V197.329ZM508.256 212.1H513.196V207.272H508.256V212.1ZM512.574 218.718H510.742V220.508H512.574V218.718ZM511.658 230.131H512.803V229.012H511.658V230.131ZM518.267 241.769H522.782V237.357H518.267V241.769ZM518.627 251.201H522.062V247.844H518.627V251.201ZM519.739 259.513H519.837V259.417H519.739V259.513ZM264.057 516.179H264.417V515.828H264.057V516.179ZM251.854 518.993H256.271V514.677H251.854V518.993ZM246.292 514.901H241.45V519.632H246.292V514.901ZM236.183 514.901H231.112V519.856H236.183V514.901ZM225.975 514.645H220.904V519.6H225.975V514.645ZM215.8 514.005H210.729V518.961H215.8V514.005ZM205.658 513.014H200.587V517.97H205.658V513.014ZM195.548 511.671H190.477V516.627H195.548V511.671ZM185.504 509.977H180.433V514.933H185.504V509.977ZM175.526 507.931H170.455V512.886H175.526V507.931ZM161.817 509.242H164.369V506.748H161.817V509.242ZM124.128 -15.5046H124.913V-16.272H124.128V-15.5046ZM131.456 -17.1672H136.527V-22.1227H131.456V-17.1672ZM141.042 -20.5881H146.113V-25.5437H141.042V-20.5881ZM150.759 -23.6573H155.83V-28.6129H150.759V-23.6573ZM160.574 -26.4069H165.645V-31.3624H160.574V-26.4069ZM170.487 -28.8047H175.558V-33.7603H170.487V-28.8047ZM180.466 -30.8509H185.537V-35.8065H180.466V-30.8509ZM190.51 -32.5454H195.581V-37.501H190.51V-32.5454ZM200.619 -33.8882H205.691V-38.8438H200.619V-33.8882ZM215.833 -39.8349H210.762V-34.8793H215.833V-39.8349ZM226.008 -40.4743H220.937V-35.5187H226.008V-40.4743ZM231.144 -35.8065H236.215V-40.762H231.144V-35.8065ZM241.352 -35.7106H246.423V-40.6661H241.352V-35.7106ZM251.56 -35.263H256.631V-40.2185H251.56V-35.263ZM264.81 -37.469H263.697V-36.382H264.81V-37.469ZM491.014 113.628H489.214V115.386H491.014V113.628ZM496.314 121.748H492.748V125.233H496.314V121.748ZM499.717 131.564H497.557V133.674H499.717V131.564ZM499.847 144.384H504.919V139.429H499.847V144.384ZM508.321 148.828H503.25V153.784H508.321V148.828ZM511.396 158.356H506.325V163.311H511.396V158.356ZM514.112 167.979H509.041V172.935H514.112V167.979ZM516.468 177.698H511.396V182.654H516.468V177.698ZM518.463 187.482H513.392V192.437H518.463V187.482ZM520.099 197.329H515.028V202.284H520.099V197.329ZM521.375 207.24H516.304V212.196H521.375V207.24ZM522.291 217.183H517.22V222.139H522.291V217.183ZM517.776 232.082H522.847V227.126H517.776V232.082ZM526.086 242.057H531.157V237.101H526.086V242.057ZM525.955 251.968H530.928V247.108H525.955V251.968ZM527.853 259.545H527.951V259.449H527.853V259.545ZM245.867 525.675H246.947V524.62H245.867V525.675ZM238.735 522.829H233.663V527.785H238.735V522.829ZM228.527 522.67H223.456V527.625H228.527V522.67ZM218.319 522.158H213.248V527.114H218.319V522.158ZM208.144 521.295H203.073V526.25H208.144V521.295ZM198.002 520.08H192.931V525.036H198.002V520.08ZM187.925 518.513H182.854V523.469H187.925V518.513ZM177.914 516.595H172.843V521.551H177.914V516.595ZM164.467 517.778H166.398V515.892H164.467V517.778ZM125.404 -24.1049H128.021V-26.6627H125.404V-24.1049ZM133.714 -26.4708H138.785V-31.4264H133.714V-26.4708ZM143.365 -29.7319H148.436V-34.6875H143.365V-29.7319ZM153.115 -32.6413H158.186V-37.5969H153.115V-32.6413ZM162.962 -35.231H168.034V-40.1866H162.962V-35.231ZM172.908 -37.469H177.979V-42.4246H172.908V-37.469ZM182.92 -39.3873H187.991V-44.3428H182.92V-39.3873ZM192.996 -40.9539H198.068V-45.9094H192.996V-40.9539ZM208.177 -47.1243H203.106V-42.1688H208.177V-47.1243ZM218.352 -47.9876H213.281V-43.032H218.352V-47.9876ZM228.56 -48.4991H223.489V-43.5436H228.56V-48.4991ZM238.767 -48.659H233.696V-43.7034H238.767V-48.659ZM248.975 -48.4991H243.904V-43.5436H248.975V-48.4991ZM259.183 -47.9876H254.111V-43.032H259.183V-47.9876ZM267.656 -45.4618H265.988V-43.8313H267.656V-45.4618ZM500.273 113.116H497.917V115.418H500.273V113.116ZM505.933 120.821H500.862V125.777H505.933V120.821ZM504.853 134.953H509.924V129.997H504.853V134.953ZM513.589 139.301H508.517V144.256H513.589V139.301ZM516.926 148.732H511.854V153.688H516.926V148.732ZM519.903 158.26H514.832V163.215H519.903V158.26ZM522.553 167.883H517.482V172.839H522.553V167.883ZM524.843 177.603H519.772V182.558H524.843V177.603ZM526.806 187.386H521.735V192.341H526.806V187.386ZM528.409 197.233H523.338V202.188H528.409V197.233ZM529.652 207.144H524.581V212.1H529.652V207.144ZM530.536 217.087H525.465V222.043H530.536V217.087ZM526.086 231.922H530.994V227.126H526.086V231.922ZM536.458 239.883H537.21V239.147H536.458V239.883ZM536.458 249.698H536.883V249.282H536.458V249.698ZM237.589 534.435H240.109V531.973H237.589V534.435ZM231.177 530.63H226.106V535.586H231.177V530.63ZM220.969 530.215H215.898V535.17H220.969V530.215ZM210.794 529.448H205.723V534.403H210.794V529.448ZM200.652 528.361H195.581V533.316H200.652V528.361ZM190.543 526.922H185.472V531.877H190.543V526.922ZM180.499 525.163H175.428V530.119H180.499V525.163ZM166.987 526.506H168.982V524.556H166.987V526.506ZM127.955 -33.8242H129.886V-35.7106H127.955V-33.8242ZM136.724 -36.4459H140.29V-39.9308H136.724V-36.4459ZM145.688 -38.8118H150.759V-43.7673H145.688V-38.8118ZM155.503 -41.5613H160.574V-46.5169H155.503V-41.5613ZM165.416 -43.9911H170.487V-48.9467H165.416V-43.9911ZM175.395 -46.1013H180.466V-51.0568H175.395V-46.1013ZM185.439 -47.8597H190.51V-52.8153H185.439V-47.8597ZM200.619 -54.254H195.548V-49.2984H200.619V-54.254ZM210.042 -54.6376H206.41V-51.0888H210.042V-54.6376ZM219.53 -54.7335H217.272V-52.5275H219.53V-54.7335ZM231.144 -56.5239H226.073V-51.5684H231.144V-56.5239ZM241.352 -56.6198H236.281V-51.6643H241.352V-56.6198ZM251.56 -56.3641H246.488V-51.4085H251.56V-56.3641ZM261.669 -55.6927H256.762V-50.897H261.669V-55.6927ZM269.619 -52.5914H269.128V-52.1119H269.619V-52.5914ZM509.728 112.381H506.293V115.738H509.728V112.381ZM509.695 125.617H514.766V120.661H509.695V125.617ZM513.589 134.825H518.66V129.869H513.589V134.825ZM522.226 139.237H517.155V144.192H522.226V139.237ZM525.465 148.7H520.394V153.656H525.465V148.7ZM528.376 158.26H523.305V163.215H528.376V158.26ZM530.961 167.915H525.89V172.871H530.961V167.915ZM533.186 177.634H528.115V182.59H533.186V177.634ZM535.083 187.45H530.012V192.405H535.083V187.45ZM536.654 197.297H531.583V202.252H536.654V197.297ZM537.537 207.528H533.12V211.844H537.537V207.528ZM534.331 221.435H538.028V217.823H534.331V221.435ZM536.621 229.524V229.684H536.785V229.524H536.621ZM240.534 542.044H242.333V540.286H240.534V542.044ZM228.854 543.483H233.598V538.847H228.854V543.483ZM223.554 538.368H218.483V543.323H223.554V538.368ZM213.379 537.696H208.308V542.652H213.379V537.696ZM203.237 536.705H198.166V541.661H203.237V536.705ZM193.127 535.394H188.056V540.35H193.127V535.394ZM183.051 533.764H177.979V538.719H183.051V533.764ZM169.571 535.202H171.469V533.348H169.571V535.202ZM131.162 -43.9911H131.293V-44.119H131.162V-43.9911ZM138.392 -44.8544H143.365V-49.714H138.392V-44.8544ZM148.109 -47.7318H153.18V-52.6874H148.109V-47.7318ZM157.957 -50.3535H163.028V-55.309H157.957V-50.3535ZM167.903 -52.6554H172.974V-57.611H167.903V-52.6554ZM177.914 -54.6056H182.985V-59.5612H177.914V-54.6056ZM193.062 -61.1918H187.991V-56.2362H193.062V-61.1918ZM201.503 -60.872H199.769V-59.1776H201.503V-60.872ZM231.537 -62.3427H230.883V-61.7033H231.537V-62.3427ZM242.432 -63.0141H240.403V-61.0319H242.432V-63.0141ZM252.606 -62.6624H250.611V-60.7122H252.606V-62.6624ZM261.865 -61.0958H261.702V-60.936H261.865V-61.0958ZM513.785 103.589H511.167V106.146H513.785V103.589ZM519.412 111.39H514.341V116.345H519.412V111.39ZM518.463 125.489H523.534V120.534H518.463V125.489ZM522.258 134.761H527.33V129.805H522.258V134.761ZM530.798 139.205H525.726V144.16H530.798V139.205ZM533.938 148.7H528.867V153.656H533.938V148.7ZM536.785 158.292H531.714V163.247H536.785V158.292ZM539.304 167.947H534.233V172.903H539.304V167.947ZM541.496 177.698H536.425V182.654H541.496V177.698ZM543.328 187.514H538.257V192.469H543.328V187.514ZM539.827 202.284H544.8V197.425H539.827V202.284ZM223.161 549.366H223.979V548.566H223.161V549.366ZM215.931 545.913H210.86V550.868H215.931V545.913ZM205.756 545.018H200.685V549.973H205.756V545.018ZM195.614 543.803H190.543V548.758H195.614V543.803ZM185.537 542.268H180.466V547.224H185.537V542.268ZM172.025 543.835H173.923V541.98H172.025V543.835ZM123.931 -49.8419V-49.9059H123.866V-49.8419H123.931ZM131.194 -51.0249H135.775V-55.5008H131.194V-51.0249ZM140.65 -53.8703H145.721V-58.8259H140.65V-53.8703ZM150.465 -56.6518H155.536V-61.6074H150.465V-56.6518ZM160.345 -59.1136H165.416V-64.0692H160.345V-59.1136ZM170.324 -61.2557H175.395V-66.2113H170.324V-61.2557ZM185.406 -68.0336H180.335V-63.0781H185.406V-68.0336ZM194.109 -68.2255H191.786V-65.9555H194.109V-68.2255ZM523.763 102.182H518.79V107.042H523.763V102.182ZM523.044 116.122H528.115V111.166H523.044V116.122ZM527.035 125.297H532.106V120.342H527.035V125.297ZM530.732 134.601H535.803V129.645H530.732V134.601ZM539.173 139.045H534.102V144.001H539.173V139.045ZM542.248 148.54H537.177V153.496H542.248V148.54ZM544.997 158.132H539.926V163.087H544.997V158.132ZM547.45 167.819H542.379V172.775H547.45V167.819ZM549.577 177.571H544.506V182.526H549.577V177.571ZM551.376 187.386H546.305V192.341H551.376V187.386ZM548.334 201.677H552.325V197.776H548.334V201.677ZM218.221 554.002H213.314V558.797H218.221V554.002ZM208.112 553.138H203.041V558.094H208.112V553.138ZM197.969 552.051H192.898V557.007H197.969V552.051ZM187.827 550.677H182.822V555.568H187.827V550.677ZM174.675 551.987H175.886V550.804H174.675V551.987ZM116.701 -55.6927H116.57V-55.5648H116.701V-55.6927ZM123.866 -56.8756H128.512V-61.4156H123.866V-56.8756ZM133.321 -59.9129H138.392V-64.8685H133.321V-59.9129ZM143.071 -62.8543H148.142V-67.8098H143.071V-62.8543ZM152.918 -65.4759H157.989V-70.4315H152.918V-65.4759ZM167.903 -72.7654H162.832V-67.8098H167.903V-72.7654ZM177.914 -74.7796H172.843V-69.824H177.914V-74.7796ZM186.191 -74.7796H184.686V-73.3089H186.191V-74.7796ZM528.115 93.1021H523.436V97.674H528.115V93.1021ZM527.722 106.818H532.793V101.862H527.722V106.818ZM531.91 115.898H536.981V110.942H531.91V115.898ZM540.874 120.15H535.803V125.105H540.874V120.15ZM544.473 129.486H539.402V134.441H544.473V129.486ZM547.778 138.917H542.706V143.873H547.778V138.917ZM550.788 148.445H545.716V153.4H550.788V148.445ZM553.47 158.068H548.399V163.024H553.47V158.068ZM555.859 167.755H550.788V172.711H555.859V167.755ZM552.881 182.43H557.887V177.539H552.881V182.43ZM556.48 190.455H557.822V189.144H556.48V190.455ZM218.287 564.552H218.516V564.328H218.287V564.552ZM206.378 565.543H210.042V561.962H206.378V565.543ZM200.554 560.332H195.581V565.192H200.554V560.332ZM186.878 562.538H189.038V560.428H186.878V562.538ZM109.83 -61.7672H108.98V-60.936H109.83V-61.7672ZM121.412 -67.4901H116.341V-62.5345H121.412V-67.4901ZM131.031 -70.8471H125.96V-65.8915H131.031V-70.8471ZM140.748 -73.9164H135.677V-68.9608H140.748V-73.9164ZM150.563 -76.6979H145.492V-71.7423H150.563V-76.6979ZM160.443 -79.1916H155.372V-74.2361H160.443V-79.1916ZM170.389 -81.3977H165.318V-76.4421H170.389V-81.3977ZM178.47 -81.3977H177.292V-80.2467H178.47V-81.3977ZM537.21 92.7185H532.204V97.6101H537.21V92.7185ZM536.556 106.626H541.627V101.67H536.556V106.626ZM540.645 115.77H545.716V110.814H540.645V115.77ZM544.473 125.01H549.544V120.054H544.473V125.01ZM553.078 129.422H548.007V134.377H553.078V129.422ZM556.317 138.885H551.246V143.841H556.317V138.885ZM559.261 148.445H554.19V153.4H559.261V148.445ZM561.846 158.1H556.84V162.992H561.846V158.1ZM561.388 170.537H561.977V169.961H561.388V170.537ZM563.612 180.128H563.809V179.936H563.612V180.128ZM200.063 571.65H201.11V570.627H200.063V571.65ZM112.906 -72.03H110.288V-69.4723H112.906V-72.03ZM123.571 -76.6339H118.729V-71.9022H123.571V-76.6339ZM133.354 -79.959H128.283V-75.0034H133.354V-79.959ZM143.103 -82.9003H138.032V-77.9448H143.103V-82.9003ZM152.951 -85.5539H147.88V-80.5984H152.951V-85.5539ZM162.668 -87.728H158.022V-83.1881H162.668V-87.728ZM171.305 -88.4953H169.342V-86.577H171.305V-88.4953ZM540.743 84.342H537.374V87.635H540.743V84.342ZM546.142 92.4307H541.071V97.3863H546.142V92.4307ZM545.357 106.434H550.428V101.479H545.357V106.434ZM554.419 110.654H549.348V115.61H554.419V110.654ZM558.149 119.926H553.078V124.882H558.149V119.926ZM561.584 129.326H556.513V134.281H561.584V129.326ZM564.365 139.173H560.079V143.361H564.365V139.173ZM563.449 152.441H566.688V149.276H563.449V152.441ZM567.473 160.658H567.8V160.338H567.473V160.658ZM124.324 -84.2751H122.623V-82.6126H124.324V-84.2751ZM133.452 -86.8008H132.896V-86.2573H133.452V-86.8008ZM143.365 -89.7422H142.58V-88.9749H143.365V-89.7422ZM153.213 -92.236H152.493V-91.5326H153.213V-92.236V-92.236ZM544.081 76.1253H542.51V77.66H544.081V76.1253ZM550.558 83.2549H545.487V88.2105H550.558V83.2549ZM549.97 97.1625H555.041V92.2069H549.97V97.1625ZM554.157 106.242H559.228V101.287H554.157V106.242ZM563.154 110.495H558.083V115.45H563.154V110.495ZM566.786 119.798H561.715V124.754H566.786V119.798ZM565.085 134.153H570.156V129.198H565.085V134.153ZM570.581 141.283H570.81V141.059H570.581V141.283ZM553.372 75.4859H551.278V77.5321H553.372V75.4859ZM559.49 82.9352H554.419V87.8908H559.49V82.9352ZM558.803 96.9067H563.874V91.9512H558.803V96.9067ZM562.925 106.051H567.997V101.095H562.925V106.051ZM571.824 110.335H566.753V115.29H571.824V110.335ZM570.319 124.626H575.391V119.67H570.319V124.626ZM575.489 132.235H576.797V130.956H575.489V132.235ZM561.617 75.9974H561.061V76.541H561.617V75.9974ZM568.422 82.7114H563.351V87.667H568.422V82.7114ZM567.637 96.7149H572.708V91.7593H567.637V96.7149ZM576.732 100.935H571.661V105.891H576.732V100.935ZM580.494 110.207H575.423V115.162H580.494V110.207ZM579.905 123.571H582.981V120.566H579.905V123.571ZM572.708 73.6635H567.931V78.3313H572.708V73.6635ZM577.288 82.4876H572.217V87.4432H577.288V82.4876ZM581.443 91.6314H576.47V96.4911H581.443V91.6314ZM585.435 100.775H580.364V105.731H585.435V100.775ZM584.061 115.035H589.132V110.079H584.061V115.035ZM589.655 122.324H590.375V121.621H589.655V122.324ZM574.965 66.5659H574.376V67.1414H574.965V66.5659ZM581.247 73.8234H577.321V77.66H581.247V73.8234ZM585.991 82.4557H581.312V87.0276H585.991V82.4557ZM585.729 95.8517H589.819V91.8553H585.729V95.8517ZM589.099 105.571H594.17V100.615H589.099V105.571ZM597.213 110.495H593.221V114.395H597.213V110.495ZM597.213 123.219H599.994V120.502H597.213V123.219ZM597.998 92.2709H595.021V95.1803H597.998V92.2709ZM597.998 105.219H602.578V100.743H597.998V105.219ZM604.999 93.7735H605.457V93.3259H604.999V93.7735ZM608.893 102.821V102.885H608.958V102.821H608.893Z" fill="#E2F0F9"/>
</svg>
