<svg width="74" height="70" viewBox="0 0 74 70" fill="none" xmlns="http://www.w3.org/2000/svg">
<path d="M4.08548 67.4262C4.08548 68.2752 3.39517 68.9628 2.54274 68.9628C1.69031 68.9628 1 68.2752 1 67.4262C1 66.5772 1.69031 65.8896 2.54274 65.8896C3.39517 65.8896 4.08548 66.5772 4.08548 67.4262Z" stroke="#F7C600" stroke-linecap="round" stroke-linejoin="round"/>
<path d="M12.4058 68.9628C13.2578 68.9628 13.9485 68.2748 13.9485 67.4262C13.9485 66.5776 13.2578 65.8896 12.4058 65.8896C11.5537 65.8896 10.863 66.5776 10.863 67.4262C10.863 68.2748 11.5537 68.9628 12.4058 68.9628Z" stroke="#F7C600" stroke-linecap="round" stroke-linejoin="round"/>
<path d="M22.2688 68.9628C23.1208 68.9628 23.8116 68.2748 23.8116 67.4262C23.8116 66.5776 23.1208 65.8896 22.2688 65.8896C21.4168 65.8896 20.7261 66.5776 20.7261 67.4262C20.7261 68.2748 21.4168 68.9628 22.2688 68.9628Z" stroke="#F7C600" stroke-linecap="round" stroke-linejoin="round"/>
<path d="M32.1321 68.9628C32.9841 68.9628 33.6748 68.2748 33.6748 67.4262C33.6748 66.5776 32.9841 65.8896 32.1321 65.8896C31.2801 65.8896 30.5894 66.5776 30.5894 67.4262C30.5894 68.2748 31.2801 68.9628 32.1321 68.9628Z" stroke="#F7C600" stroke-linecap="round" stroke-linejoin="round"/>
<path d="M41.9898 68.9628C42.8418 68.9628 43.5325 68.2748 43.5325 67.4262C43.5325 66.5776 42.8418 65.8896 41.9898 65.8896C41.1377 65.8896 40.447 66.5776 40.447 67.4262C40.447 68.2748 41.1377 68.9628 41.9898 68.9628Z" stroke="#F7C600" stroke-linecap="round" stroke-linejoin="round"/>
<path d="M51.853 68.9628C52.7051 68.9628 53.3958 68.2748 53.3958 67.4262C53.3958 66.5776 52.7051 65.8896 51.853 65.8896C51.001 65.8896 50.3103 66.5776 50.3103 67.4262C50.3103 68.2748 51.001 68.9628 51.853 68.9628Z" stroke="#F7C600" stroke-linecap="round" stroke-linejoin="round"/>
<path d="M61.7161 68.9628C62.5681 68.9628 63.2588 68.2748 63.2588 67.4262C63.2588 66.5776 62.5681 65.8896 61.7161 65.8896C60.864 65.8896 60.1733 66.5776 60.1733 67.4262C60.1733 68.2748 60.864 68.9628 61.7161 68.9628Z" stroke="#F7C600" stroke-linecap="round" stroke-linejoin="round"/>
<path d="M73.1167 67.4262C73.1167 68.2752 72.4264 68.9628 71.574 68.9628C70.7216 68.9628 70.0312 68.2752 70.0312 67.4262C70.0312 66.5772 70.7216 65.8896 71.574 65.8896C72.4264 65.8896 73.1167 66.5772 73.1167 67.4262Z" stroke="#F7C600" stroke-linecap="round" stroke-linejoin="round"/>
<path d="M4.08548 58.1552C4.08548 59.0042 3.39517 59.6918 2.54274 59.6918C1.69031 59.6918 1 59.0042 1 58.1552C1 57.3062 1.69031 56.6187 2.54274 56.6187C3.39517 56.6187 4.08548 57.3062 4.08548 58.1552Z" stroke="#F7C600" stroke-linecap="round" stroke-linejoin="round"/>
<path d="M12.4058 59.6918C13.2578 59.6918 13.9485 59.0038 13.9485 58.1552C13.9485 57.3066 13.2578 56.6187 12.4058 56.6187C11.5537 56.6187 10.863 57.3066 10.863 58.1552C10.863 59.0038 11.5537 59.6918 12.4058 59.6918Z" stroke="#F7C600" stroke-linecap="round" stroke-linejoin="round"/>
<path d="M22.2688 59.6918C23.1208 59.6918 23.8116 59.0038 23.8116 58.1552C23.8116 57.3066 23.1208 56.6187 22.2688 56.6187C21.4168 56.6187 20.7261 57.3066 20.7261 58.1552C20.7261 59.0038 21.4168 59.6918 22.2688 59.6918Z" stroke="#F7C600" stroke-linecap="round" stroke-linejoin="round"/>
<path d="M32.1321 59.6918C32.9841 59.6918 33.6748 59.0038 33.6748 58.1552C33.6748 57.3066 32.9841 56.6187 32.1321 56.6187C31.2801 56.6187 30.5894 57.3066 30.5894 58.1552C30.5894 59.0038 31.2801 59.6918 32.1321 59.6918Z" stroke="#F7C600" stroke-linecap="round" stroke-linejoin="round"/>
<path d="M41.9898 59.6918C42.8418 59.6918 43.5325 59.0038 43.5325 58.1552C43.5325 57.3066 42.8418 56.6187 41.9898 56.6187C41.1377 56.6187 40.447 57.3066 40.447 58.1552C40.447 59.0038 41.1377 59.6918 41.9898 59.6918Z" stroke="#F7C600" stroke-linecap="round" stroke-linejoin="round"/>
<path d="M51.853 59.6918C52.7051 59.6918 53.3958 59.0038 53.3958 58.1552C53.3958 57.3066 52.7051 56.6187 51.853 56.6187C51.001 56.6187 50.3103 57.3066 50.3103 58.1552C50.3103 59.0038 51.001 59.6918 51.853 59.6918Z" stroke="#F7C600" stroke-linecap="round" stroke-linejoin="round"/>
<path d="M61.7161 59.6918C62.5681 59.6918 63.2588 59.0038 63.2588 58.1552C63.2588 57.3066 62.5681 56.6187 61.7161 56.6187C60.864 56.6187 60.1733 57.3066 60.1733 58.1552C60.1733 59.0038 60.864 59.6918 61.7161 59.6918Z" stroke="#F7C600" stroke-linecap="round" stroke-linejoin="round"/>
<path d="M73.1167 58.1552C73.1167 59.0042 72.4264 59.6918 71.574 59.6918C70.7216 59.6918 70.0312 59.0042 70.0312 58.1552C70.0312 57.3062 70.7216 56.6187 71.574 56.6187C72.4264 56.6187 73.1167 57.3062 73.1167 58.1552Z" stroke="#F7C600" stroke-linecap="round" stroke-linejoin="round"/>
<path d="M4.08548 48.8832C4.08548 49.7323 3.39517 50.4198 2.54274 50.4198C1.69031 50.4198 1 49.7323 1 48.8832C1 48.0342 1.69031 47.3467 2.54274 47.3467C3.39517 47.3467 4.08548 48.0342 4.08548 48.8832Z" stroke="#F7C600" stroke-linecap="round" stroke-linejoin="round"/>
<path d="M12.4058 50.4198C13.2578 50.4198 13.9485 49.7319 13.9485 48.8832C13.9485 48.0346 13.2578 47.3467 12.4058 47.3467C11.5537 47.3467 10.863 48.0346 10.863 48.8832C10.863 49.7319 11.5537 50.4198 12.4058 50.4198Z" stroke="#F7C600" stroke-linecap="round" stroke-linejoin="round"/>
<path d="M22.2688 50.4198C23.1208 50.4198 23.8116 49.7319 23.8116 48.8832C23.8116 48.0346 23.1208 47.3467 22.2688 47.3467C21.4168 47.3467 20.7261 48.0346 20.7261 48.8832C20.7261 49.7319 21.4168 50.4198 22.2688 50.4198Z" stroke="#F7C600" stroke-linecap="round" stroke-linejoin="round"/>
<path d="M32.1321 50.4198C32.9841 50.4198 33.6748 49.7319 33.6748 48.8832C33.6748 48.0346 32.9841 47.3467 32.1321 47.3467C31.2801 47.3467 30.5894 48.0346 30.5894 48.8832C30.5894 49.7319 31.2801 50.4198 32.1321 50.4198Z" stroke="#F7C600" stroke-linecap="round" stroke-linejoin="round"/>
<path d="M41.9898 50.4198C42.8418 50.4198 43.5325 49.7319 43.5325 48.8832C43.5325 48.0346 42.8418 47.3467 41.9898 47.3467C41.1377 47.3467 40.447 48.0346 40.447 48.8832C40.447 49.7319 41.1377 50.4198 41.9898 50.4198Z" stroke="#F7C600" stroke-linecap="round" stroke-linejoin="round"/>
<path d="M51.853 50.4198C52.7051 50.4198 53.3958 49.7319 53.3958 48.8832C53.3958 48.0346 52.7051 47.3467 51.853 47.3467C51.001 47.3467 50.3103 48.0346 50.3103 48.8832C50.3103 49.7319 51.001 50.4198 51.853 50.4198Z" stroke="#F7C600" stroke-linecap="round" stroke-linejoin="round"/>
<path d="M61.7161 50.4198C62.5681 50.4198 63.2588 49.7319 63.2588 48.8832C63.2588 48.0346 62.5681 47.3467 61.7161 47.3467C60.864 47.3467 60.1733 48.0346 60.1733 48.8832C60.1733 49.7319 60.864 50.4198 61.7161 50.4198Z" stroke="#F7C600" stroke-linecap="round" stroke-linejoin="round"/>
<path d="M73.1167 48.8832C73.1167 49.7323 72.4264 50.4198 71.574 50.4198C70.7216 50.4198 70.0312 49.7323 70.0312 48.8832C70.0312 48.0342 70.7216 47.3467 71.574 47.3467C72.4264 47.3467 73.1167 48.0342 73.1167 48.8832Z" stroke="#F7C600" stroke-linecap="round" stroke-linejoin="round"/>
<path d="M4.08548 39.6171C4.08548 40.4662 3.39517 41.1537 2.54274 41.1537C1.69031 41.1537 1 40.4662 1 39.6171C1 38.7681 1.69031 38.0806 2.54274 38.0806C3.39517 38.0806 4.08548 38.7681 4.08548 39.6171Z" stroke="#F7C600" stroke-linecap="round" stroke-linejoin="round"/>
<path d="M13.9485 39.6171C13.9485 40.4662 13.2582 41.1537 12.4058 41.1537C11.5533 41.1537 10.863 40.4662 10.863 39.6171C10.863 38.7681 11.5533 38.0806 12.4058 38.0806C13.2582 38.0806 13.9485 38.7681 13.9485 39.6171Z" stroke="#F7C600" stroke-linecap="round" stroke-linejoin="round"/>
<path d="M23.8116 39.6171C23.8116 40.4662 23.1212 41.1537 22.2688 41.1537C21.4164 41.1537 20.7261 40.4662 20.7261 39.6171C20.7261 38.7681 21.4164 38.0806 22.2688 38.0806C23.1212 38.0806 23.8116 38.7681 23.8116 39.6171Z" stroke="#F7C600" stroke-linecap="round" stroke-linejoin="round"/>
<path d="M33.6695 39.6171C33.6695 40.4662 32.9792 41.1537 32.1267 41.1537C31.2743 41.1537 30.584 40.4662 30.584 39.6171C30.584 38.7681 31.2743 38.0806 32.1267 38.0806C32.9792 38.0806 33.6695 38.7681 33.6695 39.6171Z" stroke="#F7C600" stroke-linecap="round" stroke-linejoin="round"/>
<path d="M43.5325 39.6171C43.5325 40.4662 42.8422 41.1537 41.9898 41.1537C41.1373 41.1537 40.447 40.4662 40.447 39.6171C40.447 38.7681 41.1373 38.0806 41.9898 38.0806C42.8422 38.0806 43.5325 38.7681 43.5325 39.6171Z" stroke="#F7C600" stroke-linecap="round" stroke-linejoin="round"/>
<path d="M53.3958 39.6171C53.3958 40.4662 52.7055 41.1537 51.853 41.1537C51.0006 41.1537 50.3103 40.4662 50.3103 39.6171C50.3103 38.7681 51.0006 38.0806 51.853 38.0806C52.7055 38.0806 53.3958 38.7681 53.3958 39.6171Z" stroke="#F7C600" stroke-linecap="round" stroke-linejoin="round"/>
<path d="M63.2535 39.6171C63.2535 40.4662 62.5631 41.1537 61.7107 41.1537C60.8583 41.1537 60.168 40.4662 60.168 39.6171C60.168 38.7681 60.8583 38.0806 61.7107 38.0806C62.5631 38.0806 63.2535 38.7681 63.2535 39.6171Z" stroke="#F7C600" stroke-linecap="round" stroke-linejoin="round"/>
<path d="M73.1167 39.6171C73.1167 40.4662 72.4264 41.1537 71.574 41.1537C70.7216 41.1537 70.0312 40.4662 70.0312 39.6171C70.0312 38.7681 70.7216 38.0806 71.574 38.0806C72.4264 38.0806 73.1167 38.7681 73.1167 39.6171Z" stroke="#F7C600" stroke-linecap="round" stroke-linejoin="round"/>
<path d="M4.08548 30.3457C4.08548 31.1947 3.39517 31.8822 2.54274 31.8822C1.69031 31.8822 1 31.1947 1 30.3457C1 29.4966 1.69031 28.8091 2.54274 28.8091C3.39517 28.8091 4.08548 29.4966 4.08548 30.3457Z" stroke="#F7C600" stroke-linecap="round" stroke-linejoin="round"/>
<path d="M13.9485 30.3457C13.9485 31.1947 13.2582 31.8822 12.4058 31.8822C11.5533 31.8822 10.863 31.1947 10.863 30.3457C10.863 29.4966 11.5533 28.8091 12.4058 28.8091C13.2582 28.8091 13.9485 29.4966 13.9485 30.3457Z" stroke="#F7C600" stroke-linecap="round" stroke-linejoin="round"/>
<path d="M23.8116 30.3457C23.8116 31.1947 23.1212 31.8822 22.2688 31.8822C21.4164 31.8822 20.7261 31.1947 20.7261 30.3457C20.7261 29.4966 21.4164 28.8091 22.2688 28.8091C23.1212 28.8091 23.8116 29.4966 23.8116 30.3457Z" stroke="#F7C600" stroke-linecap="round" stroke-linejoin="round"/>
<path d="M33.6695 30.3457C33.6695 31.1947 32.9792 31.8822 32.1267 31.8822C31.2743 31.8822 30.584 31.1947 30.584 30.3457C30.584 29.4966 31.2743 28.8091 32.1267 28.8091C32.9792 28.8091 33.6695 29.4966 33.6695 30.3457Z" stroke="#F7C600" stroke-linecap="round" stroke-linejoin="round"/>
<path d="M43.5325 30.3457C43.5325 31.1947 42.8422 31.8822 41.9898 31.8822C41.1373 31.8822 40.447 31.1947 40.447 30.3457C40.447 29.4966 41.1373 28.8091 41.9898 28.8091C42.8422 28.8091 43.5325 29.4966 43.5325 30.3457Z" stroke="#F7C600" stroke-linecap="round" stroke-linejoin="round"/>
<path d="M53.3958 30.3457C53.3958 31.1947 52.7055 31.8822 51.853 31.8822C51.0006 31.8822 50.3103 31.1947 50.3103 30.3457C50.3103 29.4966 51.0006 28.8091 51.853 28.8091C52.7055 28.8091 53.3958 29.4966 53.3958 30.3457Z" stroke="#F7C600" stroke-linecap="round" stroke-linejoin="round"/>
<path d="M63.2535 30.3457C63.2535 31.1947 62.5631 31.8822 61.7107 31.8822C60.8583 31.8822 60.168 31.1947 60.168 30.3457C60.168 29.4966 60.8583 28.8091 61.7107 28.8091C62.5631 28.8091 63.2535 29.4966 63.2535 30.3457Z" stroke="#F7C600" stroke-linecap="round" stroke-linejoin="round"/>
<path d="M73.1167 30.3457C73.1167 31.1947 72.4264 31.8822 71.574 31.8822C70.7216 31.8822 70.0312 31.1947 70.0312 30.3457C70.0312 29.4966 70.7216 28.8091 71.574 28.8091C72.4264 28.8091 73.1167 29.4966 73.1167 30.3457Z" stroke="#F7C600" stroke-linecap="round" stroke-linejoin="round"/>
<path d="M4.08548 21.0742C4.08548 21.9232 3.39517 22.6107 2.54274 22.6107C1.69031 22.6107 1 21.9232 1 21.0742C1 20.2251 1.69031 19.5376 2.54274 19.5376C3.39517 19.5376 4.08548 20.2251 4.08548 21.0742Z" stroke="#F7C600" stroke-linecap="round" stroke-linejoin="round"/>
<path d="M13.9485 21.0742C13.9485 21.9232 13.2582 22.6107 12.4058 22.6107C11.5533 22.6107 10.863 21.9232 10.863 21.0742C10.863 20.2251 11.5533 19.5376 12.4058 19.5376C13.2582 19.5376 13.9485 20.2251 13.9485 21.0742Z" stroke="#F7C600" stroke-linecap="round" stroke-linejoin="round"/>
<path d="M23.8116 21.0742C23.8116 21.9232 23.1212 22.6107 22.2688 22.6107C21.4164 22.6107 20.7261 21.9232 20.7261 21.0742C20.7261 20.2251 21.4164 19.5376 22.2688 19.5376C23.1212 19.5376 23.8116 20.2251 23.8116 21.0742Z" stroke="#F7C600" stroke-linecap="round" stroke-linejoin="round"/>
<path d="M33.6695 21.0742C33.6695 21.9232 32.9792 22.6107 32.1267 22.6107C31.2743 22.6107 30.584 21.9232 30.584 21.0742C30.584 20.2251 31.2743 19.5376 32.1267 19.5376C32.9792 19.5376 33.6695 20.2251 33.6695 21.0742Z" stroke="#F7C600" stroke-linecap="round" stroke-linejoin="round"/>
<path d="M43.5325 21.0742C43.5325 21.9232 42.8422 22.6107 41.9898 22.6107C41.1373 22.6107 40.447 21.9232 40.447 21.0742C40.447 20.2251 41.1373 19.5376 41.9898 19.5376C42.8422 19.5376 43.5325 20.2251 43.5325 21.0742Z" stroke="#F7C600" stroke-linecap="round" stroke-linejoin="round"/>
<path d="M53.3958 21.0742C53.3958 21.9232 52.7055 22.6107 51.853 22.6107C51.0006 22.6107 50.3103 21.9232 50.3103 21.0742C50.3103 20.2251 51.0006 19.5376 51.853 19.5376C52.7055 19.5376 53.3958 20.2251 53.3958 21.0742Z" stroke="#F7C600" stroke-linecap="round" stroke-linejoin="round"/>
<path d="M63.2535 21.0742C63.2535 21.9232 62.5631 22.6107 61.7107 22.6107C60.8583 22.6107 60.168 21.9232 60.168 21.0742C60.168 20.2251 60.8583 19.5376 61.7107 19.5376C62.5631 19.5376 63.2535 20.2251 63.2535 21.0742Z" stroke="#F7C600" stroke-linecap="round" stroke-linejoin="round"/>
<path d="M73.1167 21.0742C73.1167 21.9232 72.4264 22.6107 71.574 22.6107C70.7216 22.6107 70.0312 21.9232 70.0312 21.0742C70.0312 20.2251 70.7216 19.5376 71.574 19.5376C72.4264 19.5376 73.1167 20.2251 73.1167 21.0742Z" stroke="#F7C600" stroke-linecap="round" stroke-linejoin="round"/>
<path d="M4.08548 11.8027C4.08548 12.6517 3.39517 13.3392 2.54274 13.3392C1.69031 13.3392 1 12.6517 1 11.8027C1 10.9537 1.69031 10.2661 2.54274 10.2661C3.39517 10.2661 4.08548 10.9537 4.08548 11.8027Z" stroke="#F7C600" stroke-linecap="round" stroke-linejoin="round"/>
<path d="M12.4058 13.3392C13.2578 13.3392 13.9485 12.6513 13.9485 11.8027C13.9485 10.9541 13.2578 10.2661 12.4058 10.2661C11.5537 10.2661 10.863 10.9541 10.863 11.8027C10.863 12.6513 11.5537 13.3392 12.4058 13.3392Z" stroke="#F7C600" stroke-linecap="round" stroke-linejoin="round"/>
<path d="M22.2688 13.3392C23.1208 13.3392 23.8116 12.6513 23.8116 11.8027C23.8116 10.9541 23.1208 10.2661 22.2688 10.2661C21.4168 10.2661 20.7261 10.9541 20.7261 11.8027C20.7261 12.6513 21.4168 13.3392 22.2688 13.3392Z" stroke="#F7C600" stroke-linecap="round" stroke-linejoin="round"/>
<path d="M32.1321 13.3392C32.9841 13.3392 33.6748 12.6513 33.6748 11.8027C33.6748 10.9541 32.9841 10.2661 32.1321 10.2661C31.2801 10.2661 30.5894 10.9541 30.5894 11.8027C30.5894 12.6513 31.2801 13.3392 32.1321 13.3392Z" stroke="#F7C600" stroke-linecap="round" stroke-linejoin="round"/>
<path d="M41.9898 13.3392C42.8418 13.3392 43.5325 12.6513 43.5325 11.8027C43.5325 10.9541 42.8418 10.2661 41.9898 10.2661C41.1377 10.2661 40.447 10.9541 40.447 11.8027C40.447 12.6513 41.1377 13.3392 41.9898 13.3392Z" stroke="#F7C600" stroke-linecap="round" stroke-linejoin="round"/>
<path d="M51.853 13.3392C52.7051 13.3392 53.3958 12.6513 53.3958 11.8027C53.3958 10.9541 52.7051 10.2661 51.853 10.2661C51.001 10.2661 50.3103 10.9541 50.3103 11.8027C50.3103 12.6513 51.001 13.3392 51.853 13.3392Z" stroke="#F7C600" stroke-linecap="round" stroke-linejoin="round"/>
<path d="M61.7161 13.3392C62.5681 13.3392 63.2588 12.6513 63.2588 11.8027C63.2588 10.9541 62.5681 10.2661 61.7161 10.2661C60.864 10.2661 60.1733 10.9541 60.1733 11.8027C60.1733 12.6513 60.864 13.3392 61.7161 13.3392Z" stroke="#F7C600" stroke-linecap="round" stroke-linejoin="round"/>
<path d="M73.1167 11.8027C73.1167 12.6517 72.4264 13.3392 71.574 13.3392C70.7216 13.3392 70.0312 12.6517 70.0312 11.8027C70.0312 10.9537 70.7216 10.2661 71.574 10.2661C72.4264 10.2661 73.1167 10.9537 73.1167 11.8027Z" stroke="#F7C600" stroke-linecap="round" stroke-linejoin="round"/>
<path d="M4.08538 2.53657C4.08538 3.38559 3.39507 4.07314 2.54264 4.07314C1.69021 4.07314 1.00513 3.38038 1.00513 2.53657C1.00513 1.69276 1.69544 1 2.54787 1C3.4003 1 4.09061 1.68755 4.09061 2.53657H4.08538Z" stroke="#F7C600" stroke-linecap="round" stroke-linejoin="round"/>
<path d="M12.4058 4.07314C13.2578 4.07314 13.9485 3.38519 13.9485 2.53657C13.9485 1.68794 13.2578 1 12.4058 1C11.5537 1 10.863 1.68794 10.863 2.53657C10.863 3.38519 11.5537 4.07314 12.4058 4.07314Z" stroke="#F7C600" stroke-linecap="round" stroke-linejoin="round"/>
<path d="M22.2688 4.07314C23.1208 4.07314 23.8116 3.38519 23.8116 2.53657C23.8116 1.68794 23.1208 1 22.2688 1C21.4168 1 20.7261 1.68794 20.7261 2.53657C20.7261 3.38519 21.4168 4.07314 22.2688 4.07314Z" stroke="#F7C600" stroke-linecap="round" stroke-linejoin="round"/>
<path d="M32.1319 4.07314C32.9839 4.07314 33.6746 3.38519 33.6746 2.53657C33.6746 1.68794 32.9839 1 32.1319 1C31.2798 1 30.5891 1.68794 30.5891 2.53657C30.5891 3.38519 31.2798 4.07314 32.1319 4.07314Z" stroke="#F7C600" stroke-linecap="round" stroke-linejoin="round"/>
<path d="M41.9898 4.07314C42.8418 4.07314 43.5325 3.38519 43.5325 2.53657C43.5325 1.68794 42.8418 1 41.9898 1C41.1377 1 40.447 1.68794 40.447 2.53657C40.447 3.38519 41.1377 4.07314 41.9898 4.07314Z" stroke="#F7C600" stroke-linecap="round" stroke-linejoin="round"/>
<path d="M51.8528 4.07314C52.7048 4.07314 53.3955 3.38519 53.3955 2.53657C53.3955 1.68794 52.7048 1 51.8528 1C51.0008 1 50.3101 1.68794 50.3101 2.53657C50.3101 3.38519 51.0008 4.07314 51.8528 4.07314Z" stroke="#F7C600" stroke-linecap="round" stroke-linejoin="round"/>
<path d="M61.7158 4.07314C62.5679 4.07314 63.2586 3.38519 63.2586 2.53657C63.2586 1.68794 62.5679 1 61.7158 1C60.8638 1 60.1731 1.68794 60.1731 2.53657C60.1731 3.38519 60.8638 4.07314 61.7158 4.07314Z" stroke="#F7C600" stroke-linecap="round" stroke-linejoin="round"/>
<path d="M73.1165 2.53657C73.1165 3.38559 72.4262 4.07314 71.5737 4.07314C70.7213 4.07314 70.031 3.38559 70.031 2.53657C70.031 1.68755 70.7213 1 71.5737 1C72.4262 1 73.1165 1.68755 73.1165 2.53657Z" stroke="#F7C600" stroke-linecap="round" stroke-linejoin="round"/>
</svg>
