<svg width="127" height="120" viewBox="0 0 127 120" fill="none" xmlns="http://www.w3.org/2000/svg">
<path d="M33.2091 35.7929C25.1625 45.3141 20.147 57.4295 19.5371 69.8817C18.9182 82.3248 22.7867 95.0137 30.9243 105.108C34.1557 107.511 37.4326 109.851 40.7459 112.135C43.1399 113.783 45.5703 115.403 48.2282 116.596C52.1332 118.343 56.4204 119.099 60.6895 119.345C75.8269 120.246 91.2466 114.775 102.479 104.562C114.877 90.8902 119.519 70.619 114.33 53.1149C117.999 51.1488 121.822 49.4739 125.754 48.0903C125.081 47.4076 124.125 47.0981 123.205 46.816C120.684 46.0514 118.154 45.3232 115.496 44.6678C116.442 41.664 117.398 38.6601 118.345 35.6563C117.971 35.3104 117.371 35.4743 116.888 35.6654C113.793 36.9034 110.762 38.3142 107.804 39.7888C103.207 34.5822 97.8732 30.0219 91.911 26.4719C95.8342 20.7464 99.7665 15.021 103.69 9.3046C101.086 9.82344 98.4739 10.3423 95.8706 10.8611C95.6522 10.9066 95.4155 10.943 95.2244 10.8338C95.0241 10.7155 94.9422 10.4788 94.8694 10.2513C93.9864 7.27474 93.5313 4.17079 93.5131 1.05774C92.5391 2.07722 91.8018 3.29695 91.0827 4.50758C88.4157 8.98601 85.7487 13.4644 83.0816 17.9338C82.8996 18.2432 82.7175 18.5527 82.5992 18.8895C82.226 19.9727 82.581 21.156 82.8905 22.221C69.8466 18.3252 55.1643 20.3186 43.5404 27.7554C40.9189 23.6865 38.3793 19.5631 35.9489 15.376C35.6576 15.5853 35.5393 15.9585 35.4392 16.3044C34.6473 19.0261 33.9919 21.7841 33.6733 24.7606C30.7696 23.9232 27.8022 23.3133 24.8075 22.931C25.3081 24.169 26.0636 25.2886 26.8191 26.3991C28.9855 29.6032 31.1519 32.7981 33.1909 35.7746L33.2091 35.7929Z" fill="white"/>
<path d="M86.7226 23.5772C86.6225 23.5772 86.5223 23.5044 86.495 23.4043L84.7565 16.4227C84.7292 16.2952 84.802 16.1769 84.9203 16.1405C85.0477 16.1132 85.1661 16.186 85.2025 16.3043L86.9411 23.286C86.9684 23.4134 86.8956 23.5317 86.7772 23.5681C86.759 23.5681 86.7408 23.5681 86.7226 23.5681V23.5772Z" fill="#000C24"/>
<path d="M88.6157 20.0728C88.5247 20.0728 88.4337 20.0182 88.3973 19.918L86.24 14.0196C86.1945 13.9013 86.2582 13.7647 86.3765 13.7192C86.4949 13.6737 86.6314 13.7374 86.6769 13.8558L88.8342 19.7542C88.8797 19.8725 88.816 20.0091 88.6977 20.0546C88.6703 20.0637 88.643 20.0728 88.6157 20.0728Z" fill="#000C24"/>
<path d="M90.5001 17.5333C90.409 17.5333 90.318 17.4787 90.2816 17.3877L87.8239 11.116C87.7784 10.9977 87.833 10.8612 87.9514 10.8157C88.0697 10.7701 88.2062 10.8248 88.2517 10.9431L90.7094 17.2147C90.7549 17.333 90.7003 17.4696 90.582 17.5151C90.5547 17.5242 90.5274 17.5333 90.5001 17.5333Z" fill="#000C24"/>
<path d="M92.1932 15.194C92.0931 15.194 92.002 15.1302 91.9747 15.0301C91.1828 12.4177 90.5092 10.0693 89.8447 7.80274L89.8174 7.70261C89.781 7.58428 89.8538 7.44774 89.9722 7.42043C90.0905 7.38402 90.2271 7.45684 90.2544 7.57517L90.2817 7.6753C90.9188 9.87811 91.5742 12.1537 92.3388 14.6842C95.2698 13.8741 98.2828 13.2824 101.296 12.9183C101.423 12.9001 101.541 12.9912 101.551 13.1186C101.569 13.246 101.478 13.3644 101.35 13.3735C98.2828 13.7467 95.2152 14.3565 92.2387 15.1849C92.2205 15.1849 92.1932 15.1849 92.175 15.1849L92.1932 15.194Z" fill="#000C24"/>
<path d="M91.2374 17.8791C91.1282 17.8791 91.028 17.7971 91.0098 17.6879C90.9825 17.5605 91.0735 17.4421 91.1919 17.4148C93.6586 16.9597 96.1709 16.5774 98.665 16.2861C98.7833 16.2679 98.9017 16.359 98.9199 16.4864C98.9381 16.6138 98.8471 16.7322 98.7196 16.7413C96.2346 17.0325 93.7315 17.4148 91.2738 17.87C91.2556 17.87 91.2465 17.87 91.2283 17.87L91.2374 17.8791Z" fill="#000C24"/>
<path d="M89.4805 20.6918C89.3713 20.6918 89.2712 20.6099 89.253 20.5007C89.2347 20.3733 89.3167 20.2549 89.4441 20.2367C91.8563 19.818 94.323 19.5449 96.7716 19.4266C96.9172 19.4175 97.0083 19.5176 97.0174 19.6451C97.0174 19.7725 96.9263 19.8817 96.7989 19.8908C94.3685 20.0092 91.92 20.2822 89.526 20.7009C89.5169 20.7009 89.4987 20.7009 89.4896 20.7009L89.4805 20.6918Z" fill="#000C24"/>
<path d="M87.6145 24.0597C87.5053 24.0597 87.4052 23.9869 87.387 23.8685C87.3597 23.7411 87.4416 23.6228 87.569 23.5954C89.8264 23.1676 92.1385 22.849 94.4414 22.667C94.5688 22.667 94.6781 22.7489 94.6872 22.8763C94.6963 23.0038 94.6052 23.113 94.4778 23.1221C92.2022 23.3042 89.9084 23.6228 87.66 24.0506C87.6418 24.0506 87.6327 24.0506 87.6145 24.0506V24.0597Z" fill="#000C24"/>
<path d="M54.6363 67.4057C54.5817 67.4057 54.527 67.3875 54.4815 67.3511C54.3905 67.2692 54.3814 67.1236 54.4633 67.0234C58.3046 62.6997 62.5918 58.7311 67.2068 55.2357C67.3069 55.1629 67.4526 55.1811 67.5345 55.2812C67.6073 55.3813 67.5891 55.527 67.489 55.6089C62.9013 59.0861 58.6323 63.0274 54.8092 67.3329C54.7637 67.3875 54.7 67.4148 54.6363 67.4148V67.4057Z" fill="#000C24"/>
<path d="M54.6454 72.3939C54.5908 72.3939 54.5362 72.3757 54.4907 72.3302C54.3996 72.2483 54.3905 72.1026 54.4724 72.0025C59.6336 66.2861 65.2953 60.943 71.303 56.1278C71.4031 56.0458 71.5487 56.064 71.6306 56.1642C71.7126 56.2643 71.6944 56.4099 71.5942 56.4919C65.6048 61.2889 59.9613 66.6138 54.8183 72.3211C54.7728 72.3757 54.7091 72.3939 54.6454 72.3939Z" fill="#000C24"/>
<path d="M55.8378 76.1716C55.7832 76.1716 55.7194 76.1533 55.6739 76.1078C55.5829 76.0168 55.5829 75.8712 55.6739 75.7801C61.5086 69.8726 67.58 64.0288 73.6969 58.4308C73.7879 58.3489 73.9335 58.3489 74.0245 58.449C74.1065 58.54 74.1065 58.6857 74.0063 58.7767C67.8895 64.3747 61.8363 70.2094 56.0016 76.1169C55.9561 76.1625 55.8924 76.1898 55.8378 76.1898V76.1716Z" fill="#000C24"/>
<path d="M58.7778 79.6304C58.7232 79.6304 58.6777 79.6122 58.6322 79.5758C58.5321 79.4939 58.5139 79.3482 58.5958 79.2481C60.6803 76.6266 62.9104 74.0779 65.2315 71.6748C65.3225 71.5838 65.4682 71.5838 65.5592 71.6748C65.6502 71.7659 65.6502 71.9115 65.5592 72.0025C63.2471 74.3965 61.0261 76.927 58.9599 79.5394C58.9144 79.594 58.8506 79.6304 58.7778 79.6304Z" fill="#000C24"/>
<path d="M68.8179 67.9154C68.7633 67.9154 68.6996 67.8972 68.6541 67.8517C68.5631 67.7607 68.5631 67.6151 68.6541 67.524L75.9088 60.1692C75.9998 60.0782 76.1454 60.0782 76.2365 60.1692C76.3275 60.2602 76.3275 60.4059 76.2365 60.4969L68.9818 67.8517C68.9363 67.8972 68.8816 67.9245 68.8179 67.9245V67.9154Z" fill="#000C24"/>
<path d="M62.519 81.5875C62.4644 81.5875 62.4098 81.5693 62.3643 81.5328C62.2642 81.4509 62.2642 81.3053 62.3461 81.2052C65.9416 77.1454 69.7737 73.2132 73.7606 69.5267C73.8516 69.4447 73.9973 69.4447 74.0883 69.5358C74.1793 69.6268 74.1702 69.7724 74.0792 69.8635C70.1105 73.5409 66.2784 77.4549 62.7011 81.5055C62.6556 81.5602 62.5919 81.5875 62.5281 81.5875H62.519Z" fill="#000C24"/>
<path d="M67.3069 82.0517C67.2523 82.0517 67.1976 82.0335 67.1521 81.988C67.0611 81.9061 67.052 81.7604 67.1339 81.6603C71.3029 77.0362 75.5719 72.3575 79.8228 67.7608C79.9047 67.6698 80.0413 67.6607 80.1323 67.7335C80.2233 67.8063 80.2506 67.9428 80.1778 68.043L79.9047 68.4435C79.8592 68.5072 79.7864 68.5436 79.7136 68.5436C75.6083 72.9856 71.494 77.4914 67.4707 81.9607C67.4252 82.0153 67.3615 82.0335 67.2978 82.0335L67.3069 82.0517Z" fill="#000C24"/>
<path d="M73.1234 81.1415C73.0688 81.1415 73.0051 81.1233 72.9596 81.0777C72.8685 80.9867 72.8685 80.8411 72.9596 80.7501L78.4757 75.0064C78.5667 74.9154 78.7123 74.9154 78.8034 75.0064C78.8944 75.0974 78.8944 75.243 78.8034 75.3341L73.2873 81.0777C73.2417 81.1233 73.178 81.1506 73.1234 81.1506V81.1415Z" fill="#000C24"/>
<g opacity="0.13">
<path d="M116.415 75.6709C116.451 74.5604 116.479 73.4499 116.488 72.3393C116.488 70.5644 116.415 68.7985 116.36 67.0326C116.315 67.2328 116.269 67.424 116.233 67.5969C115.213 71.3836 114.567 75.2886 113.156 78.966C112.364 81.542 108.869 87.8864 107.64 89.9072C104.727 94.9317 102.625 98.1449 98.401 101.686C95.561 103.961 93.5129 105.381 90.1541 107.548C88.7705 108.34 87.3597 109.068 85.9306 109.76C85.8942 109.778 85.8577 109.787 85.8213 109.805C82.4261 111.125 81.5159 111.48 78.3664 112.672C75.135 113.756 71.3757 114.502 69.7827 114.666C70.0012 114.639 70.2197 114.611 70.4381 114.575C67.5162 114.912 67.2523 114.839 65.2224 114.948C63.766 115.003 64.0027 115.066 61.5905 115.003C55.3371 114.347 53.2253 114.265 47.9277 113.191C45.6793 112.709 43.2399 112.363 42.0657 111.535C41.7562 111.353 41.4467 111.161 41.1372 110.97C39.79 110.606 38.4611 110.178 37.1685 109.669C36.8226 110.151 36.7771 110.852 37.2686 111.307C38.9344 112.636 40.6275 114.011 42.63 114.802C45.652 115.822 48.7742 116.577 51.8872 117.306C55.0731 117.961 60.0522 119.108 61.4631 119.317C64.3486 119.8 65.8596 119.8 67.1612 119.8C75.0622 119.545 82.4443 116.186 89.3349 112.572C92.4389 110.97 95.4154 109.141 98.0824 106.865C98.6103 106.401 99.1565 105.955 99.7026 105.509C99.202 106.146 98.7014 106.829 98.2189 107.575C97.9732 107.957 97.7365 108.349 97.4998 108.731C97.4998 108.74 97.4816 108.758 97.4725 108.768L97.4452 108.804H97.4543C97.3178 109.013 97.2359 109.259 97.245 109.523C97.245 109.678 97.2723 109.823 97.3178 109.969C97.9914 109.432 98.665 108.886 99.3294 108.331C102.479 105.673 105.419 102.733 107.767 99.3282C110.161 95.8511 111.873 92.0007 113.602 88.1686C113.784 87.4859 113.966 86.7941 114.139 86.1023C114.685 83.8631 115.213 81.6239 115.705 79.3665C115.86 78.6383 116.014 77.9101 116.16 77.1819C116.033 77.0362 115.978 76.8178 116.087 76.5629C116.205 76.2716 116.315 75.9621 116.415 75.6527V75.6709Z" fill="#000C24"/>
</g>
<g opacity="0.13">
<path d="M116.196 44.8043C115.605 44.8316 115.14 45.2776 114.585 45.4506C113.101 46.2425 111.59 46.9616 110.107 47.7444C108.268 48.9732 106.375 50.1019 104.336 50.9667C103.526 51.3399 103.471 51.3763 102.351 51.7495C102.006 51.8951 101.578 51.8769 101.286 52.1136C100.494 52.6688 101.15 53.9705 102.069 53.6883C102.188 53.6701 102.315 53.6428 102.433 53.6155C102.688 54.0524 103.216 54.3164 103.853 53.9796C105.929 53.0511 107.922 51.9497 109.888 50.821C111.536 50.0746 113.138 49.2554 114.694 48.336C115.395 47.9537 116.069 47.535 116.715 47.0617C116.952 46.8341 117.006 47.0435 117.334 46.2971C117.553 45.5689 116.952 44.7952 116.196 44.8043Z" fill="#000C24"/>
</g>
<g opacity="0.13">
<path d="M69.2002 71.4563C68.6722 70.7828 68.8361 71.1195 68.5448 70.8283C68.5448 70.801 68.5266 70.7737 68.5175 70.7463C68.5175 70.7008 68.5175 70.6553 68.5175 70.6098C68.5175 70.5734 68.5357 70.5461 68.5448 70.5097C68.6449 70.0819 68.8998 69.654 68.7997 69.208C68.6631 67.6788 66.3693 67.5423 65.9961 69.0169C65.632 69.9908 65.4409 71.1195 65.9779 72.0753C66.4421 72.8581 67.4798 73.6227 68.4174 73.4134C69.2366 73.204 69.6462 72.1936 69.2093 71.4654L69.2002 71.4563Z" fill="#000C24"/>
</g>
<g opacity="0.13">
<path d="M74.243 50.4296C74.0973 49.9563 73.7332 49.5649 73.2508 49.4375C73.2235 49.4375 73.1962 49.4193 73.178 49.4102C73.0869 49.3646 72.9504 49.3191 72.8321 49.2736H72.8139C72.7775 49.219 72.732 49.1826 72.6955 49.1462C72.6591 49.0825 72.5772 48.9368 72.5044 48.7912C72.2677 48.1995 72.113 47.5441 71.5122 47.2074C70.1195 46.3608 68.4538 48.0266 69.3003 49.4193C69.7008 50.4114 70.2379 51.4309 71.2391 51.9315C72.4862 52.6597 74.6344 52.2501 74.2521 50.4387L74.243 50.4296Z" fill="#000C24"/>
</g>
<g opacity="0.13">
<path d="M55.1915 53.8704C55.0277 52.1773 52.5336 52.0317 52.1058 53.661C51.6689 54.6714 52.0148 54.0524 51.4959 55.0082C51.414 55.0992 51.323 55.1902 51.2319 55.2722C51.0135 55.4178 50.349 55.8911 50.258 56.146C49.2749 57.8664 51.5323 59.614 52.9432 58.2214C53.8444 57.4841 54.4724 56.4828 54.8456 55.3814C54.9913 54.8898 55.319 54.3983 55.1915 53.8704Z" fill="#000C24"/>
</g>
<g opacity="0.13">
<path d="M95.1151 10.6973C92.8395 14.2473 90.6094 17.8336 88.4521 21.4564C87.7603 22.5942 87.0139 23.7047 86.3221 24.8517C86.1037 25.1975 85.9125 25.5981 86.0035 26.0168C85.7578 26.0532 85.5211 26.1806 85.3299 26.4082C85.1297 26.5902 85.0296 26.836 85.0023 27.0909C85.0023 27.1091 85.0023 27.1182 85.0023 27.1273C84.9658 27.6461 85.2571 28.1832 85.776 28.3652C85.7942 28.3652 85.8124 28.3834 85.8397 28.3925C85.8488 28.3925 85.8579 28.3925 85.867 28.4016C86.2948 28.5291 86.7863 28.4471 87.1231 28.1012C87.4781 27.6916 87.551 27.2729 87.4599 26.927C87.5783 26.8997 87.6875 26.8633 87.7967 26.7996C88.0971 26.6357 88.2518 26.3354 88.4157 26.0532C88.7525 25.4888 89.1439 24.9518 89.4989 24.3965C92.2478 20.1912 95.0241 15.9221 97.1905 11.4164C97.409 10.2331 95.6977 9.65049 95.1151 10.6973Z" fill="#000C24"/>
</g>
<path d="M108.022 40.699C107.813 40.699 107.604 40.5989 107.467 40.4259C106.056 38.5417 104.445 36.7212 102.67 35.0282C99.4843 31.9788 95.6249 29.148 91.4923 26.845C91.1555 26.663 91.0372 26.2352 91.2284 25.8984C91.4104 25.5616 91.8382 25.4432 92.175 25.6344C96.4077 27.9919 100.376 30.8956 103.644 34.0269C105.474 35.7746 107.13 37.6497 108.587 39.5976C108.814 39.9071 108.751 40.3349 108.45 40.5716C108.323 40.6626 108.177 40.7081 108.032 40.7081L108.022 40.699Z" fill="#000C24"/>
<path d="M64.1574 120C60.0886 120 56.1563 119.518 52.5335 118.534C37.5053 114.457 25.226 102.878 21.2573 89.0424C19.7008 83.6173 19.4004 78.0557 19.3185 73.8139C19.2184 68.935 19.4368 64.9845 20.0012 61.3981C21.5122 51.7222 25.936 42.7198 32.7993 35.365C33.0633 35.0828 33.5002 35.0737 33.7824 35.3286C34.0645 35.5925 34.0737 36.0295 33.8188 36.3116C27.1467 43.4662 22.8412 52.2228 21.3757 61.6166C20.8295 65.121 20.6202 68.9896 20.7112 73.7957C20.7931 77.9464 21.0844 83.3988 22.5954 88.6692C26.4367 102.041 38.3245 113.246 52.8976 117.205C74.3522 123.031 105.947 110.488 112.246 87.5405L112.392 87.0216C114.194 80.486 117.935 66.8869 113.875 53.1786C113.766 52.8145 113.975 52.4231 114.339 52.3138C114.704 52.2046 115.095 52.4139 115.204 52.778C119.373 66.8596 115.559 80.7227 113.73 87.3766L113.584 87.8955C110.58 98.8367 101.569 108.504 88.8616 114.402C80.9333 118.088 72.2677 120 64.1574 120Z" fill="#000C24"/>
<path d="M43.2946 28.2378C43.0579 28.2378 42.8304 28.1195 42.7029 27.9101C42.5027 27.5824 42.6028 27.1546 42.9305 26.9543C52.2242 21.2744 63.2382 18.7712 73.9518 19.8817C76.3913 19.7998 79.568 20.3823 83.0998 21.5748C83.4639 21.6931 83.6551 22.0936 83.5367 22.4486C83.4184 22.8036 83.0179 23.013 82.6629 22.8855C79.3041 21.7568 76.2183 21.1925 73.9518 21.2653C73.9154 21.2653 73.8881 21.2653 73.8517 21.2653C63.4202 20.1639 52.6975 22.6033 43.6496 28.1286C43.5404 28.2014 43.4129 28.2287 43.2855 28.2287L43.2946 28.2378Z" fill="#000C24"/>
<path d="M84.0191 29.321C83.8735 29.321 83.7278 29.2755 83.6095 29.1844C83.4638 29.0752 83.3637 28.9114 83.3364 28.7293C82.8631 25.6618 82.3533 22.5578 81.8072 19.4994C81.7799 19.3355 81.8072 19.1626 81.8982 19.0169C83.7096 15.9949 85.4937 13.0275 87.2505 10.1056C89.2439 6.8014 91.201 3.55181 93.1125 0.338625C93.2763 0.0655506 93.5949 -0.0618843 93.8953 0.0291406C94.1957 0.111063 94.405 0.39324 94.405 0.702725C94.3686 4.03424 94.6872 7.11088 95.3517 9.85073C97.4544 9.53214 99.5753 9.11343 101.623 8.71292C102.424 8.55818 103.225 8.39433 104.017 8.24869C104.29 8.19408 104.573 8.31241 104.727 8.54907C104.882 8.78574 104.882 9.08612 104.727 9.31368C100.932 14.9572 97.0084 20.801 92.6938 26.6903C92.621 26.7905 92.5208 26.8724 92.4025 26.9179C89.5352 28.1103 86.8318 28.8931 84.1465 29.3028C84.1101 29.3028 84.0737 29.3028 84.0373 29.3028L84.0191 29.321ZM83.209 19.5176C83.7005 22.2665 84.1647 25.061 84.5926 27.8282C86.8864 27.4185 89.2166 26.7268 91.6652 25.7164C95.5793 20.3823 99.1656 15.0847 102.625 9.93265C102.37 9.97817 102.124 10.0328 101.869 10.0783C99.6026 10.5243 97.2541 10.9885 94.9057 11.3162C94.5507 11.3617 94.2321 11.1433 94.1411 10.8065C93.5221 8.47625 93.158 5.90025 93.0397 3.14219C91.5287 5.67269 89.9812 8.23049 88.4247 10.8247C86.7134 13.6738 84.9749 16.5593 83.209 19.5085V19.5176Z" fill="#000C24"/>
<path d="M108.705 56.3736C108.632 56.3736 108.568 56.3645 108.496 56.3371C107.23 55.9366 105.792 55.5816 104.39 55.2357C102.124 54.6714 100.167 54.189 99.0837 53.5882C98.7651 53.4152 98.6376 53.0238 98.7924 52.6961C100.003 50.0109 100.667 47.6898 101.514 43.1476C101.55 42.9383 101.687 42.7653 101.869 42.6652C103.389 41.8551 104.918 41.0085 106.457 40.162C110.198 38.1049 114.066 35.984 118.099 34.0815C118.345 33.9632 118.636 34.0087 118.836 34.1817C119.045 34.3546 119.127 34.6368 119.055 34.8917C118.217 37.9865 117.352 41.1633 116.397 44.2672C120.156 44.9863 123.305 45.933 126.264 47.2255C126.509 47.3348 126.673 47.5805 126.682 47.8536C126.682 48.1267 126.528 48.3725 126.282 48.4908C124.006 49.5649 121.23 50.7573 118.545 51.9042C114.603 53.5882 110.871 55.1811 109.051 56.2825C108.942 56.3462 108.814 56.3827 108.696 56.3827L108.705 56.3736ZM100.331 52.6415C101.368 53.0602 103.007 53.4608 104.727 53.8886C106.038 54.2163 107.394 54.5531 108.623 54.9263C110.598 53.7976 114.212 52.2501 118.017 50.6208C120.147 49.7105 122.331 48.773 124.27 47.89C121.621 46.8615 118.763 46.0877 115.395 45.487C115.204 45.4506 115.031 45.3322 114.922 45.1684C114.822 44.9954 114.795 44.7952 114.849 44.604C115.732 41.7732 116.542 38.8513 117.325 35.9931C113.811 37.7043 110.416 39.5704 107.121 41.3817C105.674 42.1737 104.236 42.9656 102.807 43.7302C102.033 47.8445 101.396 50.1566 100.322 52.6415H100.331Z" fill="#000C24"/>
<path d="M91.6925 46.47C85.3754 39.4338 74.2157 35.3741 69.2913 35.4742C56.5842 35.7382 45.0604 40.4988 38.8343 51.5765C37.0776 54.7078 35.876 58.1212 34.984 61.6075C32.4899 71.3471 32.6355 82.4522 38.5886 90.5443C39.9448 92.3921 41.5651 94.0306 43.331 95.487C51.505 102.268 62.8558 105.035 73.2236 102.733C83.5913 100.43 92.7211 93.1021 97.1722 83.4626C102.707 71.4746 100.513 56.2825 91.6925 46.4609V46.47ZM79.2949 78.174C74.8711 84.2727 65.7322 86.43 59.142 82.7799C52.5518 79.1298 49.5571 70.0546 52.8613 63.2823C55.8014 57.2474 62.874 52.7963 69.4915 53.8795C71.2301 54.1616 74.5798 55.6727 77.1831 57.8846C82.8813 62.7271 83.6823 72.1209 79.2949 78.174Z" fill="#F7C600"/>
<path d="M42.4115 38.4963C42.4115 38.4963 42.3751 38.4963 42.366 38.4963C39.4259 38.296 35.9396 37.8864 33.9007 37.495C33.7277 37.4586 33.573 37.3676 33.4729 37.2219C29.759 32.1973 26.6915 27.6552 24.0973 23.3224C23.9516 23.0766 23.9698 22.7672 24.1428 22.5396C24.3248 22.312 24.6161 22.221 24.8892 22.3029C27.9567 23.2496 30.7148 23.732 33.3181 23.7866C33.5912 20.4005 34.2375 17.3421 35.2387 14.6933C35.3389 14.4384 35.5755 14.2563 35.8486 14.2472C36.1308 14.2381 36.3856 14.3838 36.504 14.6295C39.5442 20.7646 42.1111 25.0701 44.8328 28.5746C44.9602 28.7384 45.0057 28.9387 44.9602 29.1389C44.3685 32.079 43.7678 35.1283 43.076 37.9683C43.0032 38.2778 42.721 38.4963 42.4024 38.4963H42.4115ZM34.4195 36.1751C36.3037 36.5119 39.2438 36.8669 41.8745 37.0672C42.4752 34.5185 43.0214 31.8059 43.5493 29.1662C41.0643 25.9257 38.7068 22.0299 36.0124 16.7231C35.3025 19.0533 34.8473 21.6658 34.6562 24.5239C34.6289 24.888 34.3285 25.1702 33.9735 25.1702C31.5249 25.1884 28.9853 24.8425 26.2091 24.1143C28.5393 27.8828 31.2427 31.8514 34.4286 36.166L34.4195 36.1751Z" fill="#000C24"/>
<path d="M65.978 104.571C57.6766 104.571 49.2932 101.677 42.9123 96.3791C40.9917 94.7861 39.3532 93.0749 38.0607 91.309C30.7787 81.4055 32.6083 68.5618 34.3469 61.7896C35.3664 57.8027 36.6498 54.4712 38.2701 51.5948C44.0683 41.2726 55.1006 35.4288 69.3187 35.1466C74.5981 35.0556 85.8579 39.2609 92.2478 46.37C101.205 56.3372 103.499 71.866 97.8368 84.1271C93.3219 93.9123 83.9555 101.44 73.4057 103.779C70.9753 104.316 68.4812 104.58 65.9871 104.58L65.978 104.571ZM69.3369 36.5211C55.6285 36.8032 45.0241 42.3922 39.4716 52.2684C37.9151 55.0355 36.6771 58.2669 35.6849 62.1264C34.0101 68.662 32.2351 81.0414 39.1803 90.4806C40.4182 92.1555 41.9657 93.7849 43.8044 95.305C51.7873 101.922 63.0106 104.653 73.1053 102.414C83.2455 100.166 92.2387 92.9292 96.5715 83.5354C102.006 71.7659 99.8029 56.856 91.2101 47.2893C85.248 40.6445 74.4889 36.5211 69.5189 36.5211C69.4552 36.5211 69.4006 36.5211 69.346 36.5211H69.3369Z" fill="#000C24"/>
<path d="M66.3603 85.638C63.7479 85.638 61.1446 85.0282 58.8326 83.7447C51.9056 79.9034 48.8289 70.3731 52.2606 63.3369C55.5102 56.6739 62.9742 52.4685 69.6281 53.5608C71.5124 53.8703 74.9713 55.4359 77.6565 57.7207C83.5641 62.7452 84.5835 72.4576 79.8775 78.9477C76.7554 83.2532 71.5397 85.6471 66.3603 85.6471V85.638ZM67.5437 54.7715C62.0458 54.7715 56.1473 58.5217 53.5076 63.9377C50.3855 70.3458 53.189 79.0296 59.5062 82.525C65.7141 85.9657 74.5344 83.945 78.7579 78.1194C82.9724 72.3029 82.0439 63.2641 76.7554 58.7675C74.0975 56.51 70.857 55.1538 69.4006 54.9171C68.7907 54.817 68.1717 54.7715 67.5437 54.7715Z" fill="#000C24"/>
<path d="M71.8854 50.5389C71.7671 50.5389 71.6487 50.5116 71.5395 50.4479C71.2118 50.2567 71.1026 49.8289 71.2937 49.5012L97.8639 4.07066C98.0551 3.74297 98.4829 3.63374 98.8106 3.82489C99.1383 4.01605 99.2475 4.44386 99.0563 4.77155L72.4862 50.2021C72.3587 50.4206 72.1221 50.548 71.8854 50.548V50.5389Z" fill="#000C24"/>
<path d="M67.8349 71.0468C67.5891 71.0468 67.3433 70.9103 67.225 70.6736C67.043 70.3368 67.1795 69.9181 67.5163 69.7361C85.6394 60.2058 103.881 50.3023 121.74 40.2986C122.077 40.1075 122.495 40.2349 122.686 40.5626C122.878 40.8994 122.75 41.3181 122.423 41.5093C104.554 51.5129 86.3038 61.4255 68.1717 70.9649C68.0715 71.0195 67.9623 71.0468 67.8531 71.0468H67.8349Z" fill="#000C24"/>
<path d="M52.0876 56.3735C51.8327 56.3735 51.5961 56.237 51.4686 56.0003C45.4792 44.2854 38.6796 32.8345 31.252 21.9752C31.0335 21.6566 31.1155 21.2288 31.434 21.0104C31.7526 20.7919 32.1804 20.8738 32.3989 21.1924C39.863 32.0972 46.6898 43.6027 52.7066 55.3632C52.8795 55.7 52.743 56.1187 52.4062 56.2916C52.3061 56.3462 52.1968 56.3644 52.0876 56.3644V56.3735Z" fill="#000C24"/>
<path d="M16.9793 99.5558C16.7062 99.5558 16.4422 99.392 16.333 99.128C12.4917 89.6796 10.0523 79.7488 9.0692 69.5995C9.03279 69.2172 9.31497 68.8804 9.68817 68.844C10.0614 68.8076 10.4073 69.0898 10.4437 69.463C11.4085 79.4757 13.8207 89.2791 17.6164 98.6C17.7621 98.955 17.5891 99.3555 17.2341 99.5012C17.1522 99.5376 17.0612 99.5558 16.9702 99.5558H16.9793Z" fill="#439FD9"/>
<path d="M5.947 103.215C5.66482 103.215 5.39175 103.033 5.29162 102.751L0.0394837 87.759C-0.0879512 87.3949 0.103201 87.0035 0.467301 86.876C0.831401 86.7486 1.22281 86.9397 1.35024 87.3038L6.60238 102.296C6.72982 102.66 6.53866 103.051 6.17456 103.179C6.10174 103.206 6.01982 103.215 5.947 103.215Z" fill="#439FD9"/>
</svg>
