<svg width="110" height="100" viewBox="0 0 110 100" fill="none" xmlns="http://www.w3.org/2000/svg">
<path d="M106.486 33.704C106.158 33.704 105.85 33.7656 105.561 33.8773C104.686 31.2112 102.174 29.281 99.2155 29.281C96.2566 29.281 93.76 31.1958 92.8778 33.8504C92.585 33.754 92.2729 33.7001 91.9454 33.7001C90.3195 33.7001 88.998 35.0177 88.998 36.6475C88.998 38.2772 90.3157 39.5948 91.9454 39.5948C92.4694 39.5948 92.9587 39.46 93.3825 39.2211C94.5267 41.263 96.7074 42.6423 99.2117 42.6423C101.982 42.6423 104.359 40.9548 105.368 38.5546C105.704 38.7164 106.081 38.8127 106.478 38.8127C107.888 38.8127 109.032 37.6684 109.032 36.2583C109.032 34.8482 107.888 33.704 106.478 33.704H106.486Z" fill="#C9E3F4"/>
<path d="M99.0424 42.1452C99.0424 18.8669 80.1755 0 56.9011 0C33.6266 0 14.7559 18.8669 14.7559 42.1452C14.7559 62.7651 29.5697 79.9253 49.1339 83.57L54.574 98.1218C55.5102 100.626 58.2919 100.626 59.2281 98.1218L64.6682 83.57C84.2325 79.9253 99.0463 62.7651 99.0463 42.1452H99.0424Z" fill="#439FD9"/>
<path d="M45.0004 46.2329C41.4905 40.0493 31.4657 47.069 28.9614 41.7214C26.4532 36.3737 39.3214 21.3365 33.3073 15.9888C31.0149 13.9507 27.8287 14.0239 24.758 14.8947C18.8055 21.9105 15.1069 30.9028 14.7871 40.7466C16.6711 40.6464 18.4357 40.997 19.6069 42.2222C23.0012 45.7629 19.0983 47.7432 16.5286 54.2543C20.4391 67.3075 30.5063 77.6983 43.3591 82.0596C43.3475 80.4646 43.2974 78.4149 43.336 75.8105C43.5016 64.4487 48.5141 52.4166 45.0081 46.2368L45.0004 46.2329Z" fill="#ABE23E"/>
<path d="M99.0425 42.1452C99.0425 25.4628 89.349 11.0497 75.2903 4.21874C73.6105 5.13185 72.4547 6.30308 70.8943 6.13356C67.8853 5.79837 62.0368 1.2868 59.0317 5.79837C56.0227 10.3099 67.7196 8.47218 64.0441 11.4812C60.3686 14.4902 57.0244 19.6683 62.5415 21.0052C68.0548 22.3421 66.8874 12.1477 72.9016 12.8181C78.9157 13.4846 79.9213 22.5077 73.5681 25.0159C67.2188 27.524 62.5415 27.8554 61.0351 35.7111C59.5325 43.563 67.8853 48.5754 75.0707 47.9089C82.256 47.2424 83.4234 52.4205 80.4183 60.4419C77.6713 67.7698 77.4363 73.9766 88.4975 70.0314C95.0587 62.6033 99.0386 52.8443 99.0386 42.1529L99.0425 42.1452Z" fill="#ABE23E"/>
<g style="mix-blend-mode:multiply" opacity="0.46">
<path d="M24.5107 27.551C24.0523 27.551 23.6169 27.6396 23.2162 27.7975C22.5458 25.7517 21.1858 24.0218 19.4136 22.8699C16.7359 28.0672 15.1062 33.8926 14.8057 40.0685C18.4773 39.8798 21.5942 37.5797 22.9504 34.3549C23.4204 34.5822 23.9482 34.7171 24.5069 34.7171C26.4833 34.7171 28.0861 33.1143 28.0861 31.1379C28.0861 29.1614 26.4833 27.5587 24.5069 27.5587L24.5107 27.551Z" fill="#8C8D87"/>
</g>
<g style="mix-blend-mode:multiply" opacity="0.46">
<path d="M40.8273 56.0036C39.5906 56.4429 38.2999 56.9553 36.99 57.5139C34.7515 55.9497 31.6847 54.1081 28.1017 52.7442C20.5233 49.8585 22.0837 52.3281 22.7502 53.1796C23.0315 53.5417 24.0332 54.3855 25.4317 55.7147C24.3452 56.1308 23.6363 56.8435 24.43 57.4985C25.2237 58.1535 26.2755 57.957 27.2194 57.4715C27.4274 57.6873 27.6432 57.9069 27.8628 58.1381C26.7532 58.5542 26.0135 59.2746 26.8187 59.9373C27.5893 60.573 28.6025 60.4073 29.5195 59.9527C29.7391 60.2031 29.9587 60.4574 30.1822 60.7233C26.969 62.3568 23.9715 64.0212 21.71 65.3196C22.6963 66.8145 23.7712 68.24 24.9347 69.5923C27.6201 68.6561 30.71 67.558 33.8654 66.3907C33.9848 67.6736 34.058 68.8949 34.0888 70.0431C33.1064 70.3359 32.2511 70.9022 32.1201 71.8924C31.9814 72.9288 33.0139 72.9557 34.112 72.5011C34.1081 72.817 34.1004 73.1253 34.0927 73.4258C33.0717 73.707 32.1663 74.2811 32.0315 75.3021C31.8966 76.323 32.8983 76.3616 33.9771 75.9301C33.9424 76.4887 33.9039 76.9857 33.8692 77.4365C34.7207 77.9913 35.5953 78.5114 36.4852 79.0084C36.9091 78.3226 37.3945 77.4326 37.957 76.2922C40.5268 71.0872 41.4861 65.8821 41.8252 63.347C48.8372 60.5537 52.3933 58.6967 53.2177 56.9052C54.204 54.7515 50.7057 52.5054 40.8312 56.0075L40.8273 56.0036Z" fill="#8C8D87"/>
</g>
<path d="M24.5112 23.3708C24.0527 23.3708 23.6173 23.4594 23.2167 23.6173C21.9876 19.8763 18.4701 17.1755 14.3207 17.1755C10.1713 17.1755 6.67296 19.8609 5.43623 23.5827C5.02398 23.4478 4.58862 23.3708 4.13015 23.3708C1.84932 23.3708 0 25.2201 0 27.5009C0 29.7817 1.84932 31.631 4.13015 31.631C4.86217 31.631 5.55181 31.4384 6.14899 31.1032C7.75173 33.962 10.8108 35.8999 14.3207 35.8999C18.2042 35.8999 21.533 33.5343 22.9547 30.1709C23.4247 30.3982 23.9525 30.533 24.5112 30.533C26.4876 30.533 28.0904 28.9303 28.0904 26.9538C28.0904 24.9774 26.4876 23.3746 24.5112 23.3746V23.3708Z" fill="#C9E3F4"/>
<path d="M40.8271 51.3572C39.5904 51.7964 38.2997 52.3088 36.9898 52.8674C34.7513 51.3032 31.6845 49.4616 28.1015 48.0977C20.5231 45.212 22.0835 47.6816 22.75 48.5331C23.0312 48.8953 24.033 49.739 25.4315 51.0682C24.345 51.4843 23.6361 52.1971 24.4298 52.852C25.2235 53.507 26.2753 53.3105 27.2192 52.8251C27.4272 53.0408 27.643 53.2604 27.8626 53.4916C26.7491 53.9077 26.0133 54.6281 26.8185 55.2908C27.589 55.9265 28.6023 55.7609 29.5193 55.3062C29.7389 55.5567 29.9585 55.8109 30.1819 56.0768C23.3934 59.525 17.5796 63.1158 17.5796 63.1158L14.1699 60.6038L16.3236 67.8739C16.3236 67.8739 24.8305 65.0884 33.869 61.7442C33.9885 63.0271 34.0617 64.2485 34.0925 65.3966C33.11 65.6894 32.2547 66.2557 32.1237 67.2459C31.985 68.2823 33.0176 68.3093 34.1156 67.8546C34.1117 68.1706 34.104 68.4788 34.0963 68.7793C33.0754 69.0605 32.17 69.6346 32.0351 70.6556C31.9003 71.6766 32.902 71.7151 33.9808 71.2836C33.8575 73.21 33.7034 74.5083 33.738 74.9668C33.8266 76.0456 34.366 78.9159 37.9568 71.6457C40.5266 66.4407 41.4859 61.2356 41.8249 58.7005C48.837 55.9073 52.393 54.0502 53.2175 52.2587C54.2038 50.105 50.7055 47.8589 40.8309 51.361L40.8271 51.3572Z" fill="#F7C600"/>
<path d="M33.726 58.6659L33.8647 61.7442C33.9841 63.0272 34.0573 64.2485 34.0882 65.3967C33.1057 65.6895 32.2504 66.2558 32.1194 67.246C31.9807 68.2824 33.0132 68.3093 34.1113 67.8547C34.1074 68.1706 34.0997 68.4788 34.092 68.7794C33.071 69.0606 32.1656 69.6347 32.0308 70.6556C31.8959 71.6766 32.8977 71.7152 33.9764 71.2836C33.8531 73.21 33.699 74.5084 33.7337 74.9669C33.8223 76.0456 34.3617 78.9159 37.9525 71.6458C40.5222 66.4407 41.4816 61.2357 41.8206 58.7006C41.8014 57.1132 41.7513 55.5105 41.7513 55.5105L33.726 58.6659Z" fill="#F7C600"/>
</svg>
