<svg width="86" height="102" viewBox="0 0 86 102" fill="none" xmlns="http://www.w3.org/2000/svg">
<path d="M27.6108 100.5V86.7028C27.6108 80.7105 43.9861 68.9619 43.9861 68.9619C43.9861 68.9619 60.3613 80.6403 60.3613 86.7028V100.5H27.6108Z" stroke="#000C24" stroke-width="2" stroke-miterlimit="10"/>
<path d="M22.2312 59.6383V56.607C22.2312 55.3179 25.5688 52.7397 25.5688 52.7397C25.5688 52.7397 28.9064 55.3179 28.9064 56.607V59.6383" stroke="#000C24" stroke-width="2" stroke-miterlimit="10"/>
<path d="M48.6892 59.6383V56.607C48.6892 55.3179 52.0268 52.7397 52.0268 52.7397C52.0268 52.7397 55.3644 55.3179 55.3644 56.607V59.6383" stroke="#000C24" stroke-width="2" stroke-miterlimit="10"/>
<path d="M57.4065 59.6383V56.607C57.4065 55.3179 60.7441 52.7397 60.7441 52.7397C60.7441 52.7397 64.0817 55.3179 64.0817 56.607V59.6383" stroke="#000C24" stroke-width="2" stroke-miterlimit="10"/>
<path d="M30.7952 59.6383V56.607C30.7952 55.3179 34.1327 52.7397 34.1327 52.7397C34.1327 52.7397 37.4703 55.3179 37.4703 56.607V59.6383" stroke="#000C24" stroke-width="2" stroke-miterlimit="10"/>
<path d="M20.4124 74.4946V72.9758C20.4124 72.293 22.078 71.0039 22.078 71.0039C22.078 71.0039 23.7436 72.293 23.7436 72.9758V74.4946" stroke="#000C24" stroke-width="2" stroke-miterlimit="10"/>
<path d="M20.4124 84.0484V82.5295C20.4124 81.8467 22.078 80.5576 22.078 80.5576C22.078 80.5576 23.7436 81.8467 23.7436 82.5295V84.0484" stroke="#000C24" stroke-width="2" stroke-miterlimit="10"/>
<path d="M20.4124 93.5244V92.0056C20.4124 91.3228 22.078 90.0337 22.078 90.0337C22.078 90.0337 23.7436 91.3228 23.7436 92.0056V93.5244" stroke="#000C24" stroke-width="2" stroke-miterlimit="10"/>
<path d="M3.04785 100.5H83.035" stroke="#000C24" stroke-width="2" stroke-miterlimit="10"/>
<path d="M5.70264 100.5V64.1821" stroke="#000C24" stroke-width="2" stroke-miterlimit="10"/>
<path d="M16.4685 100.5L16.009 64.1821" stroke="#000C24" stroke-width="2" stroke-miterlimit="10"/>
<path d="M69.0083 100.5V64.1821" stroke="#000C24" stroke-width="2" stroke-miterlimit="10"/>
<path d="M79.7742 100.5L79.3147 64.1821" stroke="#000C24" stroke-width="2" stroke-miterlimit="10"/>
<path d="M16.5449 49.8555H69.1613" stroke="#000C24" stroke-width="2" stroke-miterlimit="10"/>
<path d="M18.7402 32.8738C18.7402 28.63 15.326 25.2158 11.0823 25.2158C6.83848 25.2158 3.42432 28.63 3.42432 32.8738H18.7402Z" stroke="#000C24" stroke-width="2" stroke-miterlimit="10"/>
<path d="M16.2387 13.0848C16.2387 10.1301 13.8903 7.70508 11.0824 7.70508C8.27446 7.70508 5.92603 10.1301 5.92603 13.0848H16.2387Z" stroke="#000C24" stroke-width="2" stroke-miterlimit="10"/>
<path d="M18.7403 64.182V55.5413C18.7403 50.838 14.9496 47.0474 10.2464 47.0474C5.54312 47.0474 1.75244 50.838 1.75244 55.5413L1.9056 64.182H84.2475V60.3913" stroke="#000C24" stroke-width="2" stroke-miterlimit="10"/>
<path d="M67.2661 64.182L67.113 55.5413C67.113 50.838 70.9036 47.0474 75.6069 47.0474C80.3101 47.0474 84.1008 50.838 84.1008 55.5413V60.3147H1.83545" stroke="#000C24" stroke-width="2" stroke-miterlimit="10"/>
<path d="M83.5647 32.8738C83.5647 28.63 80.1505 25.2158 75.9067 25.2158C71.6629 25.2158 68.2488 28.63 68.2488 32.8738H83.5647Z" stroke="#000C24" stroke-width="2" stroke-miterlimit="10"/>
<path d="M5.70264 38.7896V48.3364" stroke="#000C24" stroke-width="2" stroke-miterlimit="10"/>
<path d="M16.2388 34.4629V47.0474" stroke="#000C24" stroke-width="2" stroke-miterlimit="10"/>
<path d="M80.457 38.7896V48.5662" stroke="#000C24" stroke-width="2" stroke-miterlimit="10"/>
<path d="M70.6738 34.4629V47.0474" stroke="#000C24" stroke-width="2" stroke-miterlimit="10"/>
<path d="M7.82129 25.9753V13.0845" stroke="#000C24" stroke-width="2" stroke-miterlimit="10"/>
<path d="M14.2668 25.8988V13.0845" stroke="#000C24" stroke-width="2" stroke-miterlimit="10"/>
<path d="M42.9267 57.9662C44.3929 57.9662 45.5815 56.7777 45.5815 55.3115C45.5815 53.8453 44.3929 52.6567 42.9267 52.6567C41.4605 52.6567 40.272 53.8453 40.272 55.3115C40.272 56.7777 41.4605 57.9662 42.9267 57.9662Z" stroke="#000C24" stroke-width="2" stroke-miterlimit="10"/>
<path d="M18.7402 45.0054H68.2488" stroke="#000C24" stroke-width="2" stroke-miterlimit="10"/>
<path d="M16.2388 35.752H70.6739" stroke="#000C24" stroke-width="2" stroke-miterlimit="10"/>
<path d="M11.0823 7.62826V0.5" stroke="#000C24" stroke-width="2" stroke-miterlimit="10"/>
<path d="M81.0629 13.0848C81.0629 10.1301 78.7145 7.70508 75.9066 7.70508C73.0987 7.70508 70.7502 10.1301 70.7502 13.0848H81.0629Z" stroke="#000C24" stroke-width="2" stroke-miterlimit="10"/>
<path d="M72.6458 25.9753V13.0845" stroke="#000C24" stroke-width="2" stroke-miterlimit="10"/>
<path d="M79.0913 25.8988V13.0845" stroke="#000C24" stroke-width="2" stroke-miterlimit="10"/>
<path d="M75.9067 7.62826V0.5" stroke="#000C24" stroke-width="2" stroke-miterlimit="10"/>
<path d="M3.04785 38.7896H19.4231" stroke="#000C24" stroke-width="2" stroke-miterlimit="10"/>
<path d="M67.4128 38.7896H83.7881" stroke="#000C24" stroke-width="2" stroke-miterlimit="10"/>
<path d="M4.49023 34.9927V36.8944" stroke="#000C24" stroke-width="2" stroke-miterlimit="10"/>
<path d="M6.76196 34.9927V36.8944" stroke="#000C24" stroke-width="2" stroke-miterlimit="10"/>
<path d="M9.04028 34.9927V36.8944" stroke="#000C24" stroke-width="2" stroke-miterlimit="10"/>
<path d="M11.312 34.9927V36.8944" stroke="#000C24" stroke-width="2" stroke-miterlimit="10"/>
<path d="M13.584 34.9927V36.8944" stroke="#000C24" stroke-width="2" stroke-miterlimit="10"/>
<path d="M73.0989 34.9927V36.8944" stroke="#000C24" stroke-width="2" stroke-miterlimit="10"/>
<path d="M75.377 34.9927V36.8944" stroke="#000C24" stroke-width="2" stroke-miterlimit="10"/>
<path d="M77.6489 34.9927V36.8944" stroke="#000C24" stroke-width="2" stroke-miterlimit="10"/>
<path d="M79.8506 34.9927V36.8944" stroke="#000C24" stroke-width="2" stroke-miterlimit="10"/>
<path d="M82.1226 34.9927V36.8944" stroke="#000C24" stroke-width="2" stroke-miterlimit="10"/>
<path d="M63.0159 74.4946V72.9758C63.0159 72.293 64.6815 71.0039 64.6815 71.0039C64.6815 71.0039 66.3471 72.293 66.3471 72.9758V74.4946" stroke="#000C24" stroke-width="2" stroke-miterlimit="10"/>
<path d="M63.0159 84.0484V82.5295C63.0159 81.8467 64.6815 80.5576 64.6815 80.5576C64.6815 80.5576 66.3471 81.8467 66.3471 82.5295V84.0484" stroke="#000C24" stroke-width="2" stroke-miterlimit="10"/>
<path d="M63.0159 93.5244V92.0056C63.0159 91.3228 64.6815 90.0337 64.6815 90.0337C64.6815 90.0337 66.3471 91.3228 66.3471 92.0056V93.5244" stroke="#000C24" stroke-width="2" stroke-miterlimit="10"/>
</svg>
