<svg width="159" height="151" viewBox="0 0 159 151" fill="none" xmlns="http://www.w3.org/2000/svg">
<path d="M7.70526 146.205C7.70526 148.059 6.2051 149.56 4.35263 149.56C2.50016 149.56 1 148.059 1 146.205C1 144.351 2.50016 142.85 4.35263 142.85C6.2051 142.85 7.70526 144.351 7.70526 146.205Z" stroke="#439FD9" stroke-width="1.18" stroke-linecap="round" stroke-linejoin="round"/>
<path d="M25.7868 149.56C27.6384 149.56 29.1395 148.058 29.1395 146.205C29.1395 144.352 27.6384 142.85 25.7868 142.85C23.9352 142.85 22.4342 144.352 22.4342 146.205C22.4342 148.058 23.9352 149.56 25.7868 149.56Z" stroke="#439FD9" stroke-width="1.18" stroke-linecap="round" stroke-linejoin="round"/>
<path d="M47.2208 149.56C49.0724 149.56 50.5734 148.058 50.5734 146.205C50.5734 144.352 49.0724 142.85 47.2208 142.85C45.3692 142.85 43.8682 144.352 43.8682 146.205C43.8682 148.058 45.3692 149.56 47.2208 149.56Z" stroke="#439FD9" stroke-width="1.18" stroke-linecap="round" stroke-linejoin="round"/>
<path d="M68.655 149.56C70.5066 149.56 72.0076 148.058 72.0076 146.205C72.0076 144.352 70.5066 142.85 68.655 142.85C66.8034 142.85 65.3024 144.352 65.3024 146.205C65.3024 148.058 66.8034 149.56 68.655 149.56Z" stroke="#439FD9" stroke-width="1.18" stroke-linecap="round" stroke-linejoin="round"/>
<path d="M90.0776 149.56C91.9292 149.56 93.4302 148.058 93.4302 146.205C93.4302 144.352 91.9292 142.85 90.0776 142.85C88.226 142.85 86.725 144.352 86.725 146.205C86.725 148.058 88.226 149.56 90.0776 149.56Z" stroke="#439FD9" stroke-width="1.18" stroke-linecap="round" stroke-linejoin="round"/>
<path d="M111.512 149.56C113.363 149.56 114.864 148.058 114.864 146.205C114.864 144.352 113.363 142.85 111.512 142.85C109.66 142.85 108.159 144.352 108.159 146.205C108.159 148.058 109.66 149.56 111.512 149.56Z" stroke="#439FD9" stroke-width="1.18" stroke-linecap="round" stroke-linejoin="round"/>
<path d="M132.946 149.56C134.798 149.56 136.299 148.058 136.299 146.205C136.299 144.352 134.798 142.85 132.946 142.85C131.094 142.85 129.593 144.352 129.593 146.205C129.593 148.058 131.094 149.56 132.946 149.56Z" stroke="#439FD9" stroke-width="1.18" stroke-linecap="round" stroke-linejoin="round"/>
<path d="M157.721 146.205C157.721 148.059 156.221 149.56 154.369 149.56C152.516 149.56 151.016 148.059 151.016 146.205C151.016 144.351 152.516 142.85 154.369 142.85C156.221 142.85 157.721 144.351 157.721 146.205Z" stroke="#439FD9" stroke-width="1.18" stroke-linecap="round" stroke-linejoin="round"/>
<path d="M7.70526 125.961C7.70526 127.815 6.2051 129.316 4.35263 129.316C2.50016 129.316 1 127.815 1 125.961C1 124.107 2.50016 122.605 4.35263 122.605C6.2051 122.605 7.70526 124.107 7.70526 125.961Z" stroke="#439FD9" stroke-width="1.18" stroke-linecap="round" stroke-linejoin="round"/>
<path d="M25.7868 129.316C27.6384 129.316 29.1395 127.814 29.1395 125.961C29.1395 124.108 27.6384 122.605 25.7868 122.605C23.9352 122.605 22.4342 124.108 22.4342 125.961C22.4342 127.814 23.9352 129.316 25.7868 129.316Z" stroke="#439FD9" stroke-width="1.18" stroke-linecap="round" stroke-linejoin="round"/>
<path d="M47.2208 129.316C49.0724 129.316 50.5734 127.814 50.5734 125.961C50.5734 124.108 49.0724 122.605 47.2208 122.605C45.3692 122.605 43.8682 124.108 43.8682 125.961C43.8682 127.814 45.3692 129.316 47.2208 129.316Z" stroke="#439FD9" stroke-width="1.18" stroke-linecap="round" stroke-linejoin="round"/>
<path d="M68.655 129.316C70.5066 129.316 72.0076 127.814 72.0076 125.961C72.0076 124.108 70.5066 122.605 68.655 122.605C66.8034 122.605 65.3024 124.108 65.3024 125.961C65.3024 127.814 66.8034 129.316 68.655 129.316Z" stroke="#439FD9" stroke-width="1.18" stroke-linecap="round" stroke-linejoin="round"/>
<path d="M90.0776 129.316C91.9292 129.316 93.4302 127.814 93.4302 125.961C93.4302 124.108 91.9292 122.605 90.0776 122.605C88.226 122.605 86.725 124.108 86.725 125.961C86.725 127.814 88.226 129.316 90.0776 129.316Z" stroke="#439FD9" stroke-width="1.18" stroke-linecap="round" stroke-linejoin="round"/>
<path d="M111.512 129.316C113.363 129.316 114.864 127.814 114.864 125.961C114.864 124.108 113.363 122.605 111.512 122.605C109.66 122.605 108.159 124.108 108.159 125.961C108.159 127.814 109.66 129.316 111.512 129.316Z" stroke="#439FD9" stroke-width="1.18" stroke-linecap="round" stroke-linejoin="round"/>
<path d="M132.946 129.316C134.798 129.316 136.299 127.814 136.299 125.961C136.299 124.108 134.798 122.605 132.946 122.605C131.094 122.605 129.593 124.108 129.593 125.961C129.593 127.814 131.094 129.316 132.946 129.316Z" stroke="#439FD9" stroke-width="1.18" stroke-linecap="round" stroke-linejoin="round"/>
<path d="M157.721 125.961C157.721 127.815 156.221 129.316 154.369 129.316C152.516 129.316 151.016 127.815 151.016 125.961C151.016 124.107 152.516 122.605 154.369 122.605C156.221 122.605 157.721 124.107 157.721 125.961Z" stroke="#439FD9" stroke-width="1.18" stroke-linecap="round" stroke-linejoin="round"/>
<path d="M7.70526 105.716C7.70526 107.57 6.2051 109.071 4.35263 109.071C2.50016 109.071 1 107.57 1 105.716C1 103.862 2.50016 102.361 4.35263 102.361C6.2051 102.361 7.70526 103.862 7.70526 105.716Z" stroke="#439FD9" stroke-width="1.18" stroke-linecap="round" stroke-linejoin="round"/>
<path d="M25.7868 109.071C27.6384 109.071 29.1395 107.569 29.1395 105.716C29.1395 103.863 27.6384 102.361 25.7868 102.361C23.9352 102.361 22.4342 103.863 22.4342 105.716C22.4342 107.569 23.9352 109.071 25.7868 109.071Z" stroke="#439FD9" stroke-width="1.18" stroke-linecap="round" stroke-linejoin="round"/>
<path d="M47.2208 109.071C49.0724 109.071 50.5734 107.569 50.5734 105.716C50.5734 103.863 49.0724 102.361 47.2208 102.361C45.3692 102.361 43.8682 103.863 43.8682 105.716C43.8682 107.569 45.3692 109.071 47.2208 109.071Z" stroke="#439FD9" stroke-width="1.18" stroke-linecap="round" stroke-linejoin="round"/>
<path d="M68.655 109.071C70.5066 109.071 72.0076 107.569 72.0076 105.716C72.0076 103.863 70.5066 102.361 68.655 102.361C66.8034 102.361 65.3024 103.863 65.3024 105.716C65.3024 107.569 66.8034 109.071 68.655 109.071Z" stroke="#439FD9" stroke-width="1.18" stroke-linecap="round" stroke-linejoin="round"/>
<path d="M90.0776 109.071C91.9292 109.071 93.4302 107.569 93.4302 105.716C93.4302 103.863 91.9292 102.361 90.0776 102.361C88.226 102.361 86.725 103.863 86.725 105.716C86.725 107.569 88.226 109.071 90.0776 109.071Z" stroke="#439FD9" stroke-width="1.18" stroke-linecap="round" stroke-linejoin="round"/>
<path d="M111.512 109.071C113.363 109.071 114.864 107.569 114.864 105.716C114.864 103.863 113.363 102.361 111.512 102.361C109.66 102.361 108.159 103.863 108.159 105.716C108.159 107.569 109.66 109.071 111.512 109.071Z" stroke="#439FD9" stroke-width="1.18" stroke-linecap="round" stroke-linejoin="round"/>
<path d="M132.946 109.071C134.798 109.071 136.299 107.569 136.299 105.716C136.299 103.863 134.798 102.361 132.946 102.361C131.094 102.361 129.593 103.863 129.593 105.716C129.593 107.569 131.094 109.071 132.946 109.071Z" stroke="#439FD9" stroke-width="1.18" stroke-linecap="round" stroke-linejoin="round"/>
<path d="M157.721 105.716C157.721 107.57 156.221 109.071 154.369 109.071C152.516 109.071 151.016 107.57 151.016 105.716C151.016 103.862 152.516 102.361 154.369 102.361C156.221 102.361 157.721 103.862 157.721 105.716Z" stroke="#439FD9" stroke-width="1.18" stroke-linecap="round" stroke-linejoin="round"/>
<path d="M7.70526 85.4826C7.70526 87.3365 6.2051 88.8378 4.35263 88.8378C2.50016 88.8378 1 87.3365 1 85.4826C1 83.6288 2.50016 82.1274 4.35263 82.1274C6.2051 82.1274 7.70526 83.6288 7.70526 85.4826Z" stroke="#439FD9" stroke-width="1.18" stroke-linecap="round" stroke-linejoin="round"/>
<path d="M29.1395 85.4824C29.1395 87.3363 27.6393 88.8376 25.7868 88.8376C23.9344 88.8376 22.4342 87.3363 22.4342 85.4824C22.4342 83.6285 23.9344 82.1272 25.7868 82.1272C27.6393 82.1272 29.1395 83.6285 29.1395 85.4824Z" stroke="#439FD9" stroke-width="1.18" stroke-linecap="round" stroke-linejoin="round"/>
<path d="M50.5734 85.4824C50.5734 87.3363 49.0733 88.8376 47.2208 88.8376C45.3683 88.8376 43.8682 87.3363 43.8682 85.4824C43.8682 83.6285 45.3683 82.1272 47.2208 82.1272C49.0733 82.1272 50.5734 83.6285 50.5734 85.4824Z" stroke="#439FD9" stroke-width="1.18" stroke-linecap="round" stroke-linejoin="round"/>
<path d="M71.996 85.4824C71.996 87.3363 70.4959 88.8376 68.6434 88.8376C66.7909 88.8376 65.2908 87.3363 65.2908 85.4824C65.2908 83.6285 66.7909 82.1272 68.6434 82.1272C70.4959 82.1272 71.996 83.6285 71.996 85.4824Z" stroke="#439FD9" stroke-width="1.18" stroke-linecap="round" stroke-linejoin="round"/>
<path d="M93.4302 85.4824C93.4302 87.3363 91.9301 88.8376 90.0776 88.8376C88.2251 88.8376 86.725 87.3363 86.725 85.4824C86.725 83.6285 88.2251 82.1272 90.0776 82.1272C91.9301 82.1272 93.4302 83.6285 93.4302 85.4824Z" stroke="#439FD9" stroke-width="1.18" stroke-linecap="round" stroke-linejoin="round"/>
<path d="M114.864 85.4824C114.864 87.3363 113.364 88.8376 111.512 88.8376C109.659 88.8376 108.159 87.3363 108.159 85.4824C108.159 83.6285 109.659 82.1272 111.512 82.1272C113.364 82.1272 114.864 83.6285 114.864 85.4824Z" stroke="#439FD9" stroke-width="1.18" stroke-linecap="round" stroke-linejoin="round"/>
<path d="M136.287 85.4824C136.287 87.3363 134.787 88.8376 132.935 88.8376C131.082 88.8376 129.582 87.3363 129.582 85.4824C129.582 83.6285 131.082 82.1272 132.935 82.1272C134.787 82.1272 136.287 83.6285 136.287 85.4824Z" stroke="#439FD9" stroke-width="1.18" stroke-linecap="round" stroke-linejoin="round"/>
<path d="M157.721 85.4824C157.721 87.3363 156.221 88.8376 154.369 88.8376C152.516 88.8376 151.016 87.3363 151.016 85.4824C151.016 83.6285 152.516 82.1272 154.369 82.1272C156.221 82.1272 157.721 83.6285 157.721 85.4824Z" stroke="#439FD9" stroke-width="1.18" stroke-linecap="round" stroke-linejoin="round"/>
<path d="M7.70526 65.2378C7.70526 67.0916 6.2051 68.5929 4.35263 68.5929C2.50016 68.5929 1 67.0916 1 65.2378C1 63.3839 2.50016 61.8826 4.35263 61.8826C6.2051 61.8826 7.70526 63.3839 7.70526 65.2378Z" stroke="#439FD9" stroke-width="1.18" stroke-linecap="round" stroke-linejoin="round"/>
<path d="M29.1395 65.238C29.1395 67.0919 27.6393 68.5932 25.7868 68.5932C23.9344 68.5932 22.4342 67.0919 22.4342 65.238C22.4342 63.3841 23.9344 61.8828 25.7868 61.8828C27.6393 61.8828 29.1395 63.3841 29.1395 65.238Z" stroke="#439FD9" stroke-width="1.18" stroke-linecap="round" stroke-linejoin="round"/>
<path d="M50.5734 65.238C50.5734 67.0919 49.0733 68.5932 47.2208 68.5932C45.3683 68.5932 43.8682 67.0919 43.8682 65.238C43.8682 63.3841 45.3683 61.8828 47.2208 61.8828C49.0733 61.8828 50.5734 63.3841 50.5734 65.238Z" stroke="#439FD9" stroke-width="1.18" stroke-linecap="round" stroke-linejoin="round"/>
<path d="M71.996 65.238C71.996 67.0919 70.4959 68.5932 68.6434 68.5932C66.7909 68.5932 65.2908 67.0919 65.2908 65.238C65.2908 63.3841 66.7909 61.8828 68.6434 61.8828C70.4959 61.8828 71.996 63.3841 71.996 65.238Z" stroke="#439FD9" stroke-width="1.18" stroke-linecap="round" stroke-linejoin="round"/>
<path d="M93.4302 65.238C93.4302 67.0919 91.9301 68.5932 90.0776 68.5932C88.2251 68.5932 86.725 67.0919 86.725 65.238C86.725 63.3841 88.2251 61.8828 90.0776 61.8828C91.9301 61.8828 93.4302 63.3841 93.4302 65.238Z" stroke="#439FD9" stroke-width="1.18" stroke-linecap="round" stroke-linejoin="round"/>
<path d="M114.864 65.238C114.864 67.0919 113.364 68.5932 111.512 68.5932C109.659 68.5932 108.159 67.0919 108.159 65.238C108.159 63.3841 109.659 61.8828 111.512 61.8828C113.364 61.8828 114.864 63.3841 114.864 65.238Z" stroke="#439FD9" stroke-width="1.18" stroke-linecap="round" stroke-linejoin="round"/>
<path d="M136.287 65.238C136.287 67.0919 134.787 68.5932 132.935 68.5932C131.082 68.5932 129.582 67.0919 129.582 65.238C129.582 63.3841 131.082 61.8828 132.935 61.8828C134.787 61.8828 136.287 63.3841 136.287 65.238Z" stroke="#439FD9" stroke-width="1.18" stroke-linecap="round" stroke-linejoin="round"/>
<path d="M157.721 65.238C157.721 67.0919 156.221 68.5932 154.369 68.5932C152.516 68.5932 151.016 67.0919 151.016 65.238C151.016 63.3841 152.516 61.8828 154.369 61.8828C156.221 61.8828 157.721 63.3841 157.721 65.238Z" stroke="#439FD9" stroke-width="1.18" stroke-linecap="round" stroke-linejoin="round"/>
<path d="M7.70526 44.9929C7.70526 46.8468 6.2051 48.3481 4.35263 48.3481C2.50016 48.3481 1 46.8468 1 44.9929C1 43.139 2.50016 41.6377 4.35263 41.6377C6.2051 41.6377 7.70526 43.139 7.70526 44.9929Z" stroke="#439FD9" stroke-width="1.18" stroke-linecap="round" stroke-linejoin="round"/>
<path d="M29.1395 44.9929C29.1395 46.8468 27.6393 48.3481 25.7868 48.3481C23.9344 48.3481 22.4342 46.8468 22.4342 44.9929C22.4342 43.139 23.9344 41.6377 25.7868 41.6377C27.6393 41.6377 29.1395 43.139 29.1395 44.9929Z" stroke="#439FD9" stroke-width="1.18" stroke-linecap="round" stroke-linejoin="round"/>
<path d="M50.5734 44.9929C50.5734 46.8468 49.0733 48.3481 47.2208 48.3481C45.3683 48.3481 43.8682 46.8468 43.8682 44.9929C43.8682 43.139 45.3683 41.6377 47.2208 41.6377C49.0733 41.6377 50.5734 43.139 50.5734 44.9929Z" stroke="#439FD9" stroke-width="1.18" stroke-linecap="round" stroke-linejoin="round"/>
<path d="M71.996 44.9929C71.996 46.8468 70.4959 48.3481 68.6434 48.3481C66.7909 48.3481 65.2908 46.8468 65.2908 44.9929C65.2908 43.139 66.7909 41.6377 68.6434 41.6377C70.4959 41.6377 71.996 43.139 71.996 44.9929Z" stroke="#439FD9" stroke-width="1.18" stroke-linecap="round" stroke-linejoin="round"/>
<path d="M93.4302 44.9929C93.4302 46.8468 91.9301 48.3481 90.0776 48.3481C88.2251 48.3481 86.725 46.8468 86.725 44.9929C86.725 43.139 88.2251 41.6377 90.0776 41.6377C91.9301 41.6377 93.4302 43.139 93.4302 44.9929Z" stroke="#439FD9" stroke-width="1.18" stroke-linecap="round" stroke-linejoin="round"/>
<path d="M114.864 44.9929C114.864 46.8468 113.364 48.3481 111.512 48.3481C109.659 48.3481 108.159 46.8468 108.159 44.9929C108.159 43.139 109.659 41.6377 111.512 41.6377C113.364 41.6377 114.864 43.139 114.864 44.9929Z" stroke="#439FD9" stroke-width="1.18" stroke-linecap="round" stroke-linejoin="round"/>
<path d="M136.287 44.9929C136.287 46.8468 134.787 48.3481 132.935 48.3481C131.082 48.3481 129.582 46.8468 129.582 44.9929C129.582 43.139 131.082 41.6377 132.935 41.6377C134.787 41.6377 136.287 43.139 136.287 44.9929Z" stroke="#439FD9" stroke-width="1.18" stroke-linecap="round" stroke-linejoin="round"/>
<path d="M157.721 44.9929C157.721 46.8468 156.221 48.3481 154.369 48.3481C152.516 48.3481 151.016 46.8468 151.016 44.9929C151.016 43.139 152.516 41.6377 154.369 41.6377C156.221 41.6377 157.721 43.139 157.721 44.9929Z" stroke="#439FD9" stroke-width="1.18" stroke-linecap="round" stroke-linejoin="round"/>
<path d="M7.70526 24.7478C7.70526 26.6017 6.2051 28.103 4.35263 28.103C2.50016 28.103 1 26.6017 1 24.7478C1 22.8939 2.50016 21.3926 4.35263 21.3926C6.2051 21.3926 7.70526 22.8939 7.70526 24.7478Z" stroke="#439FD9" stroke-width="1.18" stroke-linecap="round" stroke-linejoin="round"/>
<path d="M25.7868 28.1027C27.6384 28.1027 29.1395 26.6005 29.1395 24.7475C29.1395 22.8945 27.6384 21.3923 25.7868 21.3923C23.9352 21.3923 22.4342 22.8945 22.4342 24.7475C22.4342 26.6005 23.9352 28.1027 25.7868 28.1027Z" stroke="#439FD9" stroke-width="1.18" stroke-linecap="round" stroke-linejoin="round"/>
<path d="M47.2208 28.1027C49.0724 28.1027 50.5734 26.6005 50.5734 24.7475C50.5734 22.8945 49.0724 21.3923 47.2208 21.3923C45.3692 21.3923 43.8682 22.8945 43.8682 24.7475C43.8682 26.6005 45.3692 28.1027 47.2208 28.1027Z" stroke="#439FD9" stroke-width="1.18" stroke-linecap="round" stroke-linejoin="round"/>
<path d="M68.655 28.1027C70.5066 28.1027 72.0076 26.6005 72.0076 24.7475C72.0076 22.8945 70.5066 21.3923 68.655 21.3923C66.8034 21.3923 65.3024 22.8945 65.3024 24.7475C65.3024 26.6005 66.8034 28.1027 68.655 28.1027Z" stroke="#439FD9" stroke-width="1.18" stroke-linecap="round" stroke-linejoin="round"/>
<path d="M90.0776 28.1027C91.9292 28.1027 93.4302 26.6005 93.4302 24.7475C93.4302 22.8945 91.9292 21.3923 90.0776 21.3923C88.226 21.3923 86.725 22.8945 86.725 24.7475C86.725 26.6005 88.226 28.1027 90.0776 28.1027Z" stroke="#439FD9" stroke-width="1.18" stroke-linecap="round" stroke-linejoin="round"/>
<path d="M111.512 28.1027C113.363 28.1027 114.864 26.6005 114.864 24.7475C114.864 22.8945 113.363 21.3923 111.512 21.3923C109.66 21.3923 108.159 22.8945 108.159 24.7475C108.159 26.6005 109.66 28.1027 111.512 28.1027Z" stroke="#439FD9" stroke-width="1.18" stroke-linecap="round" stroke-linejoin="round"/>
<path d="M132.946 28.1027C134.798 28.1027 136.299 26.6005 136.299 24.7475C136.299 22.8945 134.798 21.3923 132.946 21.3923C131.094 21.3923 129.593 22.8945 129.593 24.7475C129.593 26.6005 131.094 28.1027 132.946 28.1027Z" stroke="#439FD9" stroke-width="1.18" stroke-linecap="round" stroke-linejoin="round"/>
<path d="M157.721 24.7475C157.721 26.6014 156.221 28.1027 154.369 28.1027C152.516 28.1027 151.016 26.6014 151.016 24.7475C151.016 22.8936 152.516 21.3923 154.369 21.3923C156.221 21.3923 157.721 22.8936 157.721 24.7475Z" stroke="#439FD9" stroke-width="1.18" stroke-linecap="round" stroke-linejoin="round"/>
<path d="M7.70561 4.51437C7.70561 6.36825 6.20545 7.86956 4.35298 7.86956C2.50051 7.86956 1.01172 6.35688 1.01172 4.51437C1.01172 2.67186 2.51188 1.15918 4.36435 1.15918C6.21682 1.15918 7.71698 2.66048 7.71698 4.51437H7.70561Z" stroke="#439FD9" stroke-width="1.18" stroke-linecap="round" stroke-linejoin="round"/>
<path d="M25.7871 7.86956C27.6387 7.86956 29.1397 6.36739 29.1397 4.51437C29.1397 2.66135 27.6387 1.15918 25.7871 1.15918C23.9355 1.15918 22.4344 2.66135 22.4344 4.51437C22.4344 6.36739 23.9355 7.86956 25.7871 7.86956Z" stroke="#439FD9" stroke-width="1.18" stroke-linecap="round" stroke-linejoin="round"/>
<path d="M47.2213 7.86956C49.0729 7.86956 50.5739 6.36739 50.5739 4.51437C50.5739 2.66135 49.0729 1.15918 47.2213 1.15918C45.3697 1.15918 43.8687 2.66135 43.8687 4.51437C43.8687 6.36739 45.3697 7.86956 47.2213 7.86956Z" stroke="#439FD9" stroke-width="1.18" stroke-linecap="round" stroke-linejoin="round"/>
<path d="M68.6551 7.86956C70.5067 7.86956 72.0078 6.36739 72.0078 4.51437C72.0078 2.66135 70.5067 1.15918 68.6551 1.15918C66.8035 1.15918 65.3025 2.66135 65.3025 4.51437C65.3025 6.36739 66.8035 7.86956 68.6551 7.86956Z" stroke="#439FD9" stroke-width="1.18" stroke-linecap="round" stroke-linejoin="round"/>
<path d="M90.0778 7.86956C91.9295 7.86956 93.4305 6.36739 93.4305 4.51437C93.4305 2.66135 91.9295 1.15918 90.0778 1.15918C88.2262 1.15918 86.7252 2.66135 86.7252 4.51437C86.7252 6.36739 88.2262 7.86956 90.0778 7.86956Z" stroke="#439FD9" stroke-width="1.18" stroke-linecap="round" stroke-linejoin="round"/>
<path d="M111.512 7.86956C113.364 7.86956 114.865 6.36739 114.865 4.51437C114.865 2.66135 113.364 1.15918 111.512 1.15918C109.66 1.15918 108.159 2.66135 108.159 4.51437C108.159 6.36739 109.66 7.86956 111.512 7.86956Z" stroke="#439FD9" stroke-width="1.18" stroke-linecap="round" stroke-linejoin="round"/>
<path d="M132.946 7.86956C134.798 7.86956 136.299 6.36739 136.299 4.51437C136.299 2.66135 134.798 1.15918 132.946 1.15918C131.095 1.15918 129.594 2.66135 129.594 4.51437C129.594 6.36739 131.095 7.86956 132.946 7.86956Z" stroke="#439FD9" stroke-width="1.18" stroke-linecap="round" stroke-linejoin="round"/>
<path d="M157.722 4.51437C157.722 6.36825 156.221 7.86956 154.369 7.86956C152.517 7.86956 151.016 6.36825 151.016 4.51437C151.016 2.66048 152.517 1.15918 154.369 1.15918C156.221 1.15918 157.722 2.66048 157.722 4.51437Z" stroke="#439FD9" stroke-width="1.18" stroke-linecap="round" stroke-linejoin="round"/>
</svg>
