<svg width="159" height="150" viewBox="0 0 159 150" fill="none" xmlns="http://www.w3.org/2000/svg">
<path d="M151.295 146.046C151.295 147.9 152.795 149.401 154.647 149.401C156.5 149.401 158 147.9 158 146.046C158 144.192 156.5 142.691 154.647 142.691C152.795 142.691 151.295 144.192 151.295 146.046Z" stroke="#C9E3F4" stroke-width="1.18" stroke-linecap="round" stroke-linejoin="round"/>
<path d="M133.213 149.401C131.362 149.401 129.861 147.899 129.861 146.046C129.861 144.193 131.362 142.691 133.213 142.691C135.065 142.691 136.566 144.193 136.566 146.046C136.566 147.899 135.065 149.401 133.213 149.401Z" stroke="#C9E3F4" stroke-width="1.18" stroke-linecap="round" stroke-linejoin="round"/>
<path d="M111.779 149.401C109.928 149.401 108.427 147.899 108.427 146.046C108.427 144.193 109.928 142.691 111.779 142.691C113.631 142.691 115.132 144.193 115.132 146.046C115.132 147.899 113.631 149.401 111.779 149.401Z" stroke="#C9E3F4" stroke-width="1.18" stroke-linecap="round" stroke-linejoin="round"/>
<path d="M90.3451 149.401C88.4935 149.401 86.9924 147.899 86.9924 146.046C86.9924 144.193 88.4935 142.691 90.3451 142.691C92.1967 142.691 93.6977 144.193 93.6977 146.046C93.6977 147.899 92.1967 149.401 90.3451 149.401Z" stroke="#C9E3F4" stroke-width="1.18" stroke-linecap="round" stroke-linejoin="round"/>
<path d="M68.9224 149.401C67.0708 149.401 65.5698 147.899 65.5698 146.046C65.5698 144.193 67.0708 142.691 68.9224 142.691C70.774 142.691 72.275 144.193 72.275 146.046C72.275 147.899 70.774 149.401 68.9224 149.401Z" stroke="#C9E3F4" stroke-width="1.18" stroke-linecap="round" stroke-linejoin="round"/>
<path d="M47.4882 149.401C45.6366 149.401 44.1356 147.899 44.1356 146.046C44.1356 144.193 45.6366 142.691 47.4882 142.691C49.3398 142.691 50.8408 144.193 50.8408 146.046C50.8408 147.899 49.3398 149.401 47.4882 149.401Z" stroke="#C9E3F4" stroke-width="1.18" stroke-linecap="round" stroke-linejoin="round"/>
<path d="M26.054 149.401C24.2024 149.401 22.7014 147.899 22.7014 146.046C22.7014 144.193 24.2024 142.691 26.054 142.691C27.9056 142.691 29.4066 144.193 29.4066 146.046C29.4066 147.899 27.9056 149.401 26.054 149.401Z" stroke="#C9E3F4" stroke-width="1.18" stroke-linecap="round" stroke-linejoin="round"/>
<path d="M1.2787 146.046C1.2787 147.9 2.77885 149.401 4.63132 149.401C6.48379 149.401 7.98395 147.9 7.98395 146.046C7.98395 144.192 6.48379 142.691 4.63132 142.691C2.77885 142.691 1.2787 144.192 1.2787 146.046Z" stroke="#C9E3F4" stroke-width="1.18" stroke-linecap="round" stroke-linejoin="round"/>
<path d="M151.295 125.801C151.295 127.655 152.795 129.157 154.647 129.157C156.5 129.157 158 127.655 158 125.801C158 123.948 156.5 122.446 154.647 122.446C152.795 122.446 151.295 123.948 151.295 125.801Z" stroke="#C9E3F4" stroke-width="1.18" stroke-linecap="round" stroke-linejoin="round"/>
<path d="M133.213 129.157C131.362 129.157 129.861 127.654 129.861 125.801C129.861 123.948 131.362 122.446 133.213 122.446C135.065 122.446 136.566 123.948 136.566 125.801C136.566 127.654 135.065 129.157 133.213 129.157Z" stroke="#C9E3F4" stroke-width="1.18" stroke-linecap="round" stroke-linejoin="round"/>
<path d="M111.779 129.157C109.928 129.157 108.427 127.654 108.427 125.801C108.427 123.948 109.928 122.446 111.779 122.446C113.631 122.446 115.132 123.948 115.132 125.801C115.132 127.654 113.631 129.157 111.779 129.157Z" stroke="#C9E3F4" stroke-width="1.18" stroke-linecap="round" stroke-linejoin="round"/>
<path d="M90.3451 129.157C88.4935 129.157 86.9924 127.654 86.9924 125.801C86.9924 123.948 88.4935 122.446 90.3451 122.446C92.1967 122.446 93.6977 123.948 93.6977 125.801C93.6977 127.654 92.1967 129.157 90.3451 129.157Z" stroke="#C9E3F4" stroke-width="1.18" stroke-linecap="round" stroke-linejoin="round"/>
<path d="M68.9224 129.157C67.0708 129.157 65.5698 127.654 65.5698 125.801C65.5698 123.948 67.0708 122.446 68.9224 122.446C70.774 122.446 72.275 123.948 72.275 125.801C72.275 127.654 70.774 129.157 68.9224 129.157Z" stroke="#C9E3F4" stroke-width="1.18" stroke-linecap="round" stroke-linejoin="round"/>
<path d="M47.4882 129.157C45.6366 129.157 44.1356 127.654 44.1356 125.801C44.1356 123.948 45.6366 122.446 47.4882 122.446C49.3398 122.446 50.8408 123.948 50.8408 125.801C50.8408 127.654 49.3398 129.157 47.4882 129.157Z" stroke="#C9E3F4" stroke-width="1.18" stroke-linecap="round" stroke-linejoin="round"/>
<path d="M26.054 129.157C24.2024 129.157 22.7014 127.654 22.7014 125.801C22.7014 123.948 24.2024 122.446 26.054 122.446C27.9056 122.446 29.4066 123.948 29.4066 125.801C29.4066 127.654 27.9056 129.157 26.054 129.157Z" stroke="#C9E3F4" stroke-width="1.18" stroke-linecap="round" stroke-linejoin="round"/>
<path d="M1.2787 125.801C1.2787 127.655 2.77885 129.157 4.63132 129.157C6.48379 129.157 7.98395 127.655 7.98395 125.801C7.98395 123.947 6.48379 122.446 4.63132 122.446C2.77885 122.446 1.2787 123.947 1.2787 125.801Z" stroke="#C9E3F4" stroke-width="1.18" stroke-linecap="round" stroke-linejoin="round"/>
<path d="M151.295 105.557C151.295 107.41 152.795 108.912 154.647 108.912C156.5 108.912 158 107.41 158 105.557C158 103.703 156.5 102.201 154.647 102.201C152.795 102.201 151.295 103.703 151.295 105.557Z" stroke="#C9E3F4" stroke-width="1.18" stroke-linecap="round" stroke-linejoin="round"/>
<path d="M133.213 108.912C131.362 108.912 129.861 107.41 129.861 105.557C129.861 103.704 131.362 102.202 133.213 102.202C135.065 102.202 136.566 103.704 136.566 105.557C136.566 107.41 135.065 108.912 133.213 108.912Z" stroke="#C9E3F4" stroke-width="1.18" stroke-linecap="round" stroke-linejoin="round"/>
<path d="M111.779 108.912C109.928 108.912 108.427 107.41 108.427 105.557C108.427 103.704 109.928 102.202 111.779 102.202C113.631 102.202 115.132 103.704 115.132 105.557C115.132 107.41 113.631 108.912 111.779 108.912Z" stroke="#C9E3F4" stroke-width="1.18" stroke-linecap="round" stroke-linejoin="round"/>
<path d="M90.3451 108.912C88.4935 108.912 86.9924 107.41 86.9924 105.557C86.9924 103.704 88.4935 102.202 90.3451 102.202C92.1967 102.202 93.6977 103.704 93.6977 105.557C93.6977 107.41 92.1967 108.912 90.3451 108.912Z" stroke="#C9E3F4" stroke-width="1.18" stroke-linecap="round" stroke-linejoin="round"/>
<path d="M68.9224 108.912C67.0708 108.912 65.5698 107.41 65.5698 105.557C65.5698 103.704 67.0708 102.202 68.9224 102.202C70.774 102.202 72.275 103.704 72.275 105.557C72.275 107.41 70.774 108.912 68.9224 108.912Z" stroke="#C9E3F4" stroke-width="1.18" stroke-linecap="round" stroke-linejoin="round"/>
<path d="M47.4882 108.912C45.6366 108.912 44.1356 107.41 44.1356 105.557C44.1356 103.704 45.6366 102.202 47.4882 102.202C49.3398 102.202 50.8408 103.704 50.8408 105.557C50.8408 107.41 49.3398 108.912 47.4882 108.912Z" stroke="#C9E3F4" stroke-width="1.18" stroke-linecap="round" stroke-linejoin="round"/>
<path d="M26.054 108.912C24.2024 108.912 22.7014 107.41 22.7014 105.557C22.7014 103.704 24.2024 102.202 26.054 102.202C27.9056 102.202 29.4066 103.704 29.4066 105.557C29.4066 107.41 27.9056 108.912 26.054 108.912Z" stroke="#C9E3F4" stroke-width="1.18" stroke-linecap="round" stroke-linejoin="round"/>
<path d="M1.2787 105.557C1.2787 107.411 2.77885 108.912 4.63132 108.912C6.48379 108.912 7.98395 107.411 7.98395 105.557C7.98395 103.703 6.48379 102.202 4.63132 102.202C2.77885 102.202 1.2787 103.703 1.2787 105.557Z" stroke="#C9E3F4" stroke-width="1.18" stroke-linecap="round" stroke-linejoin="round"/>
<path d="M151.295 85.3233C151.295 87.1772 152.795 88.6785 154.647 88.6785C156.5 88.6785 158 87.1772 158 85.3233C158 83.4694 156.5 81.9681 154.647 81.9681C152.795 81.9681 151.295 83.4694 151.295 85.3233Z" stroke="#C9E3F4" stroke-width="1.18" stroke-linecap="round" stroke-linejoin="round"/>
<path d="M129.861 85.3232C129.861 87.1771 131.361 88.6784 133.213 88.6784C135.066 88.6784 136.566 87.1771 136.566 85.3232C136.566 83.4693 135.066 81.968 133.213 81.968C131.361 81.968 129.861 83.4693 129.861 85.3232Z" stroke="#C9E3F4" stroke-width="1.18" stroke-linecap="round" stroke-linejoin="round"/>
<path d="M108.427 85.3232C108.427 87.1771 109.927 88.6784 111.779 88.6784C113.632 88.6784 115.132 87.1771 115.132 85.3232C115.132 83.4693 113.632 81.968 111.779 81.968C109.927 81.968 108.427 83.4693 108.427 85.3232Z" stroke="#C9E3F4" stroke-width="1.18" stroke-linecap="round" stroke-linejoin="round"/>
<path d="M87.0039 85.3232C87.0039 87.1771 88.5041 88.6784 90.3565 88.6784C92.209 88.6784 93.7092 87.1771 93.7092 85.3232C93.7092 83.4693 92.209 81.968 90.3565 81.968C88.5041 81.968 87.0039 83.4693 87.0039 85.3232Z" stroke="#C9E3F4" stroke-width="1.18" stroke-linecap="round" stroke-linejoin="round"/>
<path d="M65.5698 85.3232C65.5698 87.1771 67.0699 88.6784 68.9224 88.6784C70.7749 88.6784 72.275 87.1771 72.275 85.3232C72.275 83.4693 70.7749 81.968 68.9224 81.968C67.0699 81.968 65.5698 83.4693 65.5698 85.3232Z" stroke="#C9E3F4" stroke-width="1.18" stroke-linecap="round" stroke-linejoin="round"/>
<path d="M44.1356 85.3232C44.1356 87.1771 45.6357 88.6784 47.4882 88.6784C49.3407 88.6784 50.8408 87.1771 50.8408 85.3232C50.8408 83.4693 49.3407 81.968 47.4882 81.968C45.6357 81.968 44.1356 83.4693 44.1356 85.3232Z" stroke="#C9E3F4" stroke-width="1.18" stroke-linecap="round" stroke-linejoin="round"/>
<path d="M22.7129 85.3232C22.7129 87.1771 24.2131 88.6784 26.0655 88.6784C27.918 88.6784 29.4182 87.1771 29.4182 85.3232C29.4182 83.4693 27.918 81.968 26.0655 81.968C24.2131 81.968 22.7129 83.4693 22.7129 85.3232Z" stroke="#C9E3F4" stroke-width="1.18" stroke-linecap="round" stroke-linejoin="round"/>
<path d="M1.2787 85.3232C1.2787 87.1771 2.77885 88.6784 4.63132 88.6784C6.48379 88.6784 7.98395 87.1771 7.98395 85.3232C7.98395 83.4693 6.48379 81.968 4.63132 81.968C2.77885 81.968 1.2787 83.4693 1.2787 85.3232Z" stroke="#C9E3F4" stroke-width="1.18" stroke-linecap="round" stroke-linejoin="round"/>
<path d="M151.295 65.0786C151.295 66.9325 152.795 68.4338 154.647 68.4338C156.5 68.4338 158 66.9325 158 65.0786C158 63.2247 156.5 61.7234 154.647 61.7234C152.795 61.7234 151.295 63.2247 151.295 65.0786Z" stroke="#C9E3F4" stroke-width="1.18" stroke-linecap="round" stroke-linejoin="round"/>
<path d="M129.861 65.0787C129.861 66.9326 131.361 68.4339 133.213 68.4339C135.066 68.4339 136.566 66.9326 136.566 65.0787C136.566 63.2248 135.066 61.7235 133.213 61.7235C131.361 61.7235 129.861 63.2248 129.861 65.0787Z" stroke="#C9E3F4" stroke-width="1.18" stroke-linecap="round" stroke-linejoin="round"/>
<path d="M108.427 65.0787C108.427 66.9326 109.927 68.4339 111.779 68.4339C113.632 68.4339 115.132 66.9326 115.132 65.0787C115.132 63.2248 113.632 61.7235 111.779 61.7235C109.927 61.7235 108.427 63.2248 108.427 65.0787Z" stroke="#C9E3F4" stroke-width="1.18" stroke-linecap="round" stroke-linejoin="round"/>
<path d="M87.0039 65.0787C87.0039 66.9326 88.5041 68.4339 90.3565 68.4339C92.209 68.4339 93.7092 66.9326 93.7092 65.0787C93.7092 63.2248 92.209 61.7235 90.3565 61.7235C88.5041 61.7235 87.0039 63.2248 87.0039 65.0787Z" stroke="#C9E3F4" stroke-width="1.18" stroke-linecap="round" stroke-linejoin="round"/>
<path d="M65.5698 65.0787C65.5698 66.9326 67.0699 68.4339 68.9224 68.4339C70.7749 68.4339 72.275 66.9326 72.275 65.0787C72.275 63.2248 70.7749 61.7235 68.9224 61.7235C67.0699 61.7235 65.5698 63.2248 65.5698 65.0787Z" stroke="#C9E3F4" stroke-width="1.18" stroke-linecap="round" stroke-linejoin="round"/>
<path d="M44.1356 65.0787C44.1356 66.9326 45.6357 68.4339 47.4882 68.4339C49.3407 68.4339 50.8408 66.9326 50.8408 65.0787C50.8408 63.2248 49.3407 61.7235 47.4882 61.7235C45.6357 61.7235 44.1356 63.2248 44.1356 65.0787Z" stroke="#C9E3F4" stroke-width="1.18" stroke-linecap="round" stroke-linejoin="round"/>
<path d="M22.7129 65.0787C22.7129 66.9326 24.2131 68.4339 26.0655 68.4339C27.918 68.4339 29.4182 66.9326 29.4182 65.0787C29.4182 63.2248 27.918 61.7235 26.0655 61.7235C24.2131 61.7235 22.7129 63.2248 22.7129 65.0787Z" stroke="#C9E3F4" stroke-width="1.18" stroke-linecap="round" stroke-linejoin="round"/>
<path d="M1.2787 65.0787C1.2787 66.9326 2.77885 68.4339 4.63132 68.4339C6.48379 68.4339 7.98395 66.9326 7.98395 65.0787C7.98395 63.2248 6.48379 61.7235 4.63132 61.7235C2.77885 61.7235 1.2787 63.2248 1.2787 65.0787Z" stroke="#C9E3F4" stroke-width="1.18" stroke-linecap="round" stroke-linejoin="round"/>
<path d="M151.295 44.8338C151.295 46.6877 152.795 48.189 154.647 48.189C156.5 48.189 158 46.6877 158 44.8338C158 42.9799 156.5 41.4786 154.647 41.4786C152.795 41.4786 151.295 42.9799 151.295 44.8338Z" stroke="#C9E3F4" stroke-width="1.18" stroke-linecap="round" stroke-linejoin="round"/>
<path d="M129.861 44.8338C129.861 46.6877 131.361 48.189 133.213 48.189C135.066 48.189 136.566 46.6877 136.566 44.8338C136.566 42.9799 135.066 41.4786 133.213 41.4786C131.361 41.4786 129.861 42.9799 129.861 44.8338Z" stroke="#C9E3F4" stroke-width="1.18" stroke-linecap="round" stroke-linejoin="round"/>
<path d="M108.427 44.8338C108.427 46.6877 109.927 48.189 111.779 48.189C113.632 48.189 115.132 46.6877 115.132 44.8338C115.132 42.9799 113.632 41.4786 111.779 41.4786C109.927 41.4786 108.427 42.9799 108.427 44.8338Z" stroke="#C9E3F4" stroke-width="1.18" stroke-linecap="round" stroke-linejoin="round"/>
<path d="M87.0039 44.8338C87.0039 46.6877 88.5041 48.189 90.3565 48.189C92.209 48.189 93.7092 46.6877 93.7092 44.8338C93.7092 42.9799 92.209 41.4786 90.3565 41.4786C88.5041 41.4786 87.0039 42.9799 87.0039 44.8338Z" stroke="#C9E3F4" stroke-width="1.18" stroke-linecap="round" stroke-linejoin="round"/>
<path d="M65.5698 44.8338C65.5698 46.6877 67.0699 48.189 68.9224 48.189C70.7749 48.189 72.275 46.6877 72.275 44.8338C72.275 42.9799 70.7749 41.4786 68.9224 41.4786C67.0699 41.4786 65.5698 42.9799 65.5698 44.8338Z" stroke="#C9E3F4" stroke-width="1.18" stroke-linecap="round" stroke-linejoin="round"/>
<path d="M44.1356 44.8338C44.1356 46.6877 45.6357 48.189 47.4882 48.189C49.3407 48.189 50.8408 46.6877 50.8408 44.8338C50.8408 42.9799 49.3407 41.4786 47.4882 41.4786C45.6357 41.4786 44.1356 42.9799 44.1356 44.8338Z" stroke="#C9E3F4" stroke-width="1.18" stroke-linecap="round" stroke-linejoin="round"/>
<path d="M22.7129 44.8338C22.7129 46.6877 24.2131 48.189 26.0655 48.189C27.918 48.189 29.4182 46.6877 29.4182 44.8338C29.4182 42.9799 27.918 41.4786 26.0655 41.4786C24.2131 41.4786 22.7129 42.9799 22.7129 44.8338Z" stroke="#C9E3F4" stroke-width="1.18" stroke-linecap="round" stroke-linejoin="round"/>
<path d="M1.2787 44.8338C1.2787 46.6877 2.77885 48.189 4.63132 48.189C6.48379 48.189 7.98395 46.6877 7.98395 44.8338C7.98395 42.9799 6.48379 41.4786 4.63132 41.4786C2.77885 41.4786 1.2787 42.9799 1.2787 44.8338Z" stroke="#C9E3F4" stroke-width="1.18" stroke-linecap="round" stroke-linejoin="round"/>
<path d="M151.295 24.5885C151.295 26.4424 152.795 27.9437 154.647 27.9437C156.5 27.9437 158 26.4424 158 24.5885C158 22.7346 156.5 21.2333 154.647 21.2333C152.795 21.2333 151.295 22.7346 151.295 24.5885Z" stroke="#C9E3F4" stroke-width="1.18" stroke-linecap="round" stroke-linejoin="round"/>
<path d="M133.213 27.9435C131.362 27.9435 129.861 26.4414 129.861 24.5883C129.861 22.7353 131.362 21.2332 133.213 21.2332C135.065 21.2332 136.566 22.7353 136.566 24.5883C136.566 26.4414 135.065 27.9435 133.213 27.9435Z" stroke="#C9E3F4" stroke-width="1.18" stroke-linecap="round" stroke-linejoin="round"/>
<path d="M111.779 27.9435C109.928 27.9435 108.427 26.4414 108.427 24.5883C108.427 22.7353 109.928 21.2332 111.779 21.2332C113.631 21.2332 115.132 22.7353 115.132 24.5883C115.132 26.4414 113.631 27.9435 111.779 27.9435Z" stroke="#C9E3F4" stroke-width="1.18" stroke-linecap="round" stroke-linejoin="round"/>
<path d="M90.3451 27.9435C88.4935 27.9435 86.9924 26.4414 86.9924 24.5883C86.9924 22.7353 88.4935 21.2332 90.3451 21.2332C92.1967 21.2332 93.6977 22.7353 93.6977 24.5883C93.6977 26.4414 92.1967 27.9435 90.3451 27.9435Z" stroke="#C9E3F4" stroke-width="1.18" stroke-linecap="round" stroke-linejoin="round"/>
<path d="M68.9224 27.9435C67.0708 27.9435 65.5698 26.4414 65.5698 24.5883C65.5698 22.7353 67.0708 21.2332 68.9224 21.2332C70.774 21.2332 72.275 22.7353 72.275 24.5883C72.275 26.4414 70.774 27.9435 68.9224 27.9435Z" stroke="#C9E3F4" stroke-width="1.18" stroke-linecap="round" stroke-linejoin="round"/>
<path d="M47.4882 27.9435C45.6366 27.9435 44.1356 26.4414 44.1356 24.5883C44.1356 22.7353 45.6366 21.2332 47.4882 21.2332C49.3398 21.2332 50.8408 22.7353 50.8408 24.5883C50.8408 26.4414 49.3398 27.9435 47.4882 27.9435Z" stroke="#C9E3F4" stroke-width="1.18" stroke-linecap="round" stroke-linejoin="round"/>
<path d="M26.054 27.9435C24.2024 27.9435 22.7014 26.4414 22.7014 24.5883C22.7014 22.7353 24.2024 21.2332 26.054 21.2332C27.9056 21.2332 29.4066 22.7353 29.4066 24.5883C29.4066 26.4414 27.9056 27.9435 26.054 27.9435Z" stroke="#C9E3F4" stroke-width="1.18" stroke-linecap="round" stroke-linejoin="round"/>
<path d="M1.2787 24.5883C1.2787 26.4422 2.77885 27.9435 4.63132 27.9435C6.48379 27.9435 7.98395 26.4422 7.98395 24.5883C7.98395 22.7345 6.48379 21.2332 4.63132 21.2332C2.77885 21.2332 1.2787 22.7345 1.2787 24.5883Z" stroke="#C9E3F4" stroke-width="1.18" stroke-linecap="round" stroke-linejoin="round"/>
<path d="M151.294 4.35519C151.294 6.20907 152.795 7.71038 154.647 7.71038C156.499 7.71038 157.988 6.1977 157.988 4.35519C157.988 2.51268 156.488 1 154.636 1C152.783 1 151.283 2.50131 151.283 4.35519H151.294Z" stroke="#C9E3F4" stroke-width="1.18" stroke-linecap="round" stroke-linejoin="round"/>
<path d="M133.213 7.71038C131.361 7.71038 129.86 6.20821 129.86 4.35519C129.86 2.50217 131.361 1 133.213 1C135.065 1 136.566 2.50217 136.566 4.35519C136.566 6.20821 135.065 7.71038 133.213 7.71038Z" stroke="#C9E3F4" stroke-width="1.18" stroke-linecap="round" stroke-linejoin="round"/>
<path d="M111.779 7.71038C109.927 7.71038 108.426 6.20821 108.426 4.35519C108.426 2.50217 109.927 1 111.779 1C113.63 1 115.131 2.50217 115.131 4.35519C115.131 6.20821 113.63 7.71038 111.779 7.71038Z" stroke="#C9E3F4" stroke-width="1.18" stroke-linecap="round" stroke-linejoin="round"/>
<path d="M90.3448 7.71038C88.4932 7.71038 86.9922 6.20821 86.9922 4.35519C86.9922 2.50217 88.4932 1 90.3448 1C92.1964 1 93.6974 2.50217 93.6974 4.35519C93.6974 6.20821 92.1964 7.71038 90.3448 7.71038Z" stroke="#C9E3F4" stroke-width="1.18" stroke-linecap="round" stroke-linejoin="round"/>
<path d="M68.9222 7.71038C67.0705 7.71038 65.5695 6.20821 65.5695 4.35519C65.5695 2.50217 67.0705 1 68.9222 1C70.7738 1 72.2748 2.50217 72.2748 4.35519C72.2748 6.20821 70.7738 7.71038 68.9222 7.71038Z" stroke="#C9E3F4" stroke-width="1.18" stroke-linecap="round" stroke-linejoin="round"/>
<path d="M47.488 7.71038C45.6363 7.71038 44.1353 6.20821 44.1353 4.35519C44.1353 2.50217 45.6363 1 47.488 1C49.3396 1 50.8406 2.50217 50.8406 4.35519C50.8406 6.20821 49.3396 7.71038 47.488 7.71038Z" stroke="#C9E3F4" stroke-width="1.18" stroke-linecap="round" stroke-linejoin="round"/>
<path d="M26.0537 7.71038C24.2021 7.71038 22.7011 6.20821 22.7011 4.35519C22.7011 2.50217 24.2021 1 26.0537 1C27.9054 1 29.4064 2.50217 29.4064 4.35519C29.4064 6.20821 27.9054 7.71038 26.0537 7.71038Z" stroke="#C9E3F4" stroke-width="1.18" stroke-linecap="round" stroke-linejoin="round"/>
<path d="M1.27845 4.35519C1.27845 6.20907 2.77861 7.71038 4.63108 7.71038C6.48355 7.71038 7.9837 6.20907 7.9837 4.35519C7.9837 2.50131 6.48355 1 4.63108 1C2.77861 1 1.27845 2.50131 1.27845 4.35519Z" stroke="#C9E3F4" stroke-width="1.18" stroke-linecap="round" stroke-linejoin="round"/>
</svg>
