<svg width="91" height="102" viewBox="0 0 91 102" fill="none" xmlns="http://www.w3.org/2000/svg">
<path d="M83.7695 49.0855V101" stroke="white" stroke-width="2" stroke-miterlimit="10"/>
<path d="M75.575 8.04581H18.9893V21.0643H75.575V8.04581Z" stroke="white" stroke-width="2" stroke-miterlimit="10"/>
<path d="M12.021 28.2562H82.3911" stroke="white" stroke-width="2" stroke-miterlimit="10"/>
<path d="M1 35.1475H90.4319" stroke="white" stroke-width="2" stroke-miterlimit="10"/>
<path d="M38.3643 100.388V60.8024C38.3643 55.9013 42.3464 51.9192 47.2475 51.9192C52.1485 51.9192 56.1307 55.9013 56.1307 60.8024V100.388" stroke="white" stroke-width="2" stroke-miterlimit="10"/>
<path d="M6.05371 101H88.0574" stroke="white" stroke-width="2" stroke-miterlimit="10"/>
<path d="M10.9487 49.6982V101" stroke="white" stroke-width="2" stroke-miterlimit="10"/>
<path d="M32.3911 56.514V100.388" stroke="white" stroke-width="2" stroke-miterlimit="10"/>
<path d="M62.71 56.514V100.388" stroke="white" stroke-width="2" stroke-miterlimit="10"/>
<path d="M66.998 56.514H79.5571" stroke="white" stroke-width="2" stroke-miterlimit="10"/>
<path d="M66.998 68.919H79.5571" stroke="white" stroke-width="2" stroke-miterlimit="10"/>
<path d="M10.9487 39.9723H82.3909" stroke="white" stroke-width="2" stroke-miterlimit="10"/>
<path d="M36.8325 14.5549H58.2684" stroke="white" stroke-width="2" stroke-miterlimit="10"/>
<path d="M29.3275 17.5417C30.6809 17.5417 31.778 16.4445 31.778 15.0911C31.778 13.7377 30.6809 12.6406 29.3275 12.6406C27.9741 12.6406 26.877 13.7377 26.877 15.0911C26.877 16.4445 27.9741 17.5417 29.3275 17.5417Z" stroke="white" stroke-width="2" stroke-miterlimit="10"/>
<path d="M21.7464 51.0766C23.0998 51.0766 24.197 49.9794 24.197 48.626C24.197 47.2726 23.0998 46.1755 21.7464 46.1755C20.393 46.1755 19.2959 47.2726 19.2959 48.626C19.2959 49.9794 20.393 51.0766 21.7464 51.0766Z" stroke="white" stroke-width="2" stroke-miterlimit="10"/>
<path d="M73.2777 51.0766C74.6311 51.0766 75.7282 49.9794 75.7282 48.626C75.7282 47.2726 74.6311 46.1755 73.2777 46.1755C71.9243 46.1755 70.8271 47.2726 70.8271 48.626C70.8271 49.9794 71.9243 51.0766 73.2777 51.0766Z" stroke="white" stroke-width="2" stroke-miterlimit="10"/>
<path d="M66.9984 17.5417C68.3518 17.5417 69.4489 16.4445 69.4489 15.0911C69.4489 13.7377 68.3518 12.6406 66.9984 12.6406C65.645 12.6406 64.5479 13.7377 64.5479 15.0911C64.5479 16.4445 65.645 17.5417 66.9984 17.5417Z" stroke="white" stroke-width="2" stroke-miterlimit="10"/>
<path d="M47.2476 51.8421V39.9723" stroke="white" stroke-width="2" stroke-miterlimit="10"/>
<path d="M15.4668 56.514H28.0258" stroke="white" stroke-width="2" stroke-miterlimit="10"/>
<path d="M15.4668 68.919H28.0258" stroke="white" stroke-width="2" stroke-miterlimit="10"/>
<path d="M1 35.1475L10.9489 39.972" stroke="white" stroke-width="2" stroke-miterlimit="10"/>
<path d="M82.3911 39.972L90.4319 35.1475" stroke="white" stroke-width="2" stroke-miterlimit="10"/>
<path d="M65.3137 8.0453L58.2684 1H36.8326L29.9404 7.89214" stroke="white" stroke-width="2" stroke-miterlimit="10"/>
<path d="M6.05371 49.6982H17.6108" stroke="white" stroke-width="2" stroke-miterlimit="10"/>
<path d="M78.0259 49.6982H89.5894" stroke="white" stroke-width="2" stroke-miterlimit="10"/>
<path d="M6.05371 44.1844H89.589" stroke="white" stroke-width="2" stroke-miterlimit="10"/>
</svg>
