<svg width="100" height="102" viewBox="0 0 100 102" fill="none" xmlns="http://www.w3.org/2000/svg">
<path d="M30.9899 100.5H69.0103" stroke="#000C24" stroke-width="2" stroke-miterlimit="10"/>
<path d="M41.0078 100.5V30.9765L47.2239 10.4575H54.7073L60.8026 30.9765V100.5" stroke="#000C24" stroke-width="2" stroke-miterlimit="10"/>
<path d="M41.0078 55.7202H60.8026" stroke="#000C24" stroke-width="2" stroke-miterlimit="10"/>
<path d="M41.0078 41.417H60.8026" stroke="#000C24" stroke-width="2" stroke-miterlimit="10"/>
<path d="M41.0078 82.1533H60.8026" stroke="#000C24" stroke-width="2" stroke-miterlimit="10"/>
<path d="M45.3531 100.5V92.594C45.3531 89.6972 47.7671 87.2832 50.6639 87.2832C53.5607 87.2832 55.9747 89.6972 55.9747 92.594V100.5" stroke="#000C24" stroke-width="2" stroke-miterlimit="10"/>
<path d="M46.1376 82.1535V77.0237C46.1376 74.4287 48.2498 72.3164 50.7845 72.3164C53.3796 72.3164 55.4315 74.4287 55.4315 77.0237V82.1535" stroke="#000C24" stroke-width="2" stroke-miterlimit="10"/>
<path d="M50.9053 39.3654C52.8717 39.3654 54.4659 37.7713 54.4659 35.8048C54.4659 33.8383 52.8717 32.2441 50.9053 32.2441C48.9388 32.2441 47.3446 33.8383 47.3446 35.8048C47.3446 37.7713 48.9388 39.3654 50.9053 39.3654Z" stroke="#000C24" stroke-width="2" stroke-miterlimit="10"/>
<path d="M41.0078 30.9768H45.353V28.08H47.4049L50.7242 19.0879L54.4659 27.899H56.5178V30.9165H60.8026" stroke="#000C24" stroke-width="2" stroke-miterlimit="10"/>
<path d="M50.9053 10.4577V0.5" stroke="#000C24" stroke-width="2" stroke-miterlimit="10"/>
<path d="M60.8026 69.0576H99.3662" stroke="#000C24" stroke-width="2" stroke-miterlimit="10"/>
<path d="M60.8026 75.9375H99.3662" stroke="#000C24" stroke-width="2" stroke-miterlimit="10"/>
<path d="M0.633789 69.0576H41.0079" stroke="#000C24" stroke-width="2" stroke-miterlimit="10"/>
<path d="M0.633789 75.9375H41.0079" stroke="#000C24" stroke-width="2" stroke-miterlimit="10"/>
<path d="M0.633789 84.9897H41.0079" stroke="#000C24" stroke-width="2" stroke-miterlimit="10"/>
<path d="M60.8026 84.9897H99.3662" stroke="#000C24" stroke-width="2" stroke-miterlimit="10"/>
<path d="M50.845 82.1535V72.3164" stroke="#000C24" stroke-width="2" stroke-miterlimit="10"/>
<path d="M17.8335 84.9897V81.6101C17.8335 79.9203 19.2215 78.5322 20.9113 78.5322C22.6011 78.5322 23.9892 79.9203 23.9892 81.6101V84.9897" stroke="#000C24" stroke-width="2" stroke-miterlimit="10"/>
<path d="M20.9114 84.9899V78.5928" stroke="#000C24" stroke-width="2" stroke-miterlimit="10"/>
<path d="M28.9379 84.9897V81.6101C28.9379 79.9203 30.3259 78.5322 32.0157 78.5322C33.7055 78.5322 35.0936 79.9203 35.0936 81.6101V84.9897" stroke="#000C24" stroke-width="2" stroke-miterlimit="10"/>
<path d="M32.0157 84.9899V78.5928" stroke="#000C24" stroke-width="2" stroke-miterlimit="10"/>
<path d="M66.0531 84.9897V81.6101C66.0531 79.9203 67.4411 78.5322 69.1309 78.5322C70.8207 78.5322 72.2088 79.9203 72.2088 81.6101V84.9897" stroke="#000C24" stroke-width="2" stroke-miterlimit="10"/>
<path d="M69.0706 84.9899V78.5928" stroke="#000C24" stroke-width="2" stroke-miterlimit="10"/>
<path d="M77.0972 84.9897V81.6101C77.0972 79.9203 78.4852 78.5322 80.175 78.5322C81.8648 78.5322 83.2529 79.9203 83.2529 81.6101V84.9897" stroke="#000C24" stroke-width="2" stroke-miterlimit="10"/>
<path d="M80.175 84.9899V78.5928" stroke="#000C24" stroke-width="2" stroke-miterlimit="10"/>
<path d="M45.8358 62.2378H55.9746" stroke="#000C24" stroke-width="2" stroke-miterlimit="10"/>
<path d="M45.8358 65.7383H55.9746" stroke="#000C24" stroke-width="2" stroke-miterlimit="10"/>
</svg>
