<svg width="609" height="720" viewBox="0 0 609 720" fill="none" xmlns="http://www.w3.org/2000/svg">
<path d="M233.729 298.319H238.8V304.554H233.729V298.319ZM241.843 304.554H246.914V298.319H241.843V304.554ZM241.286 307.812H236.215V314.047H241.286V307.812ZM227.153 310.427H232.224V304.192H227.153V310.427ZM232.224 292.446H227.153V298.681H232.224V292.446ZM236.248 295.061H241.319V288.826H236.248V295.061ZM255.06 298.319H249.989V304.554H255.06V298.319ZM246.881 316.3H251.952V310.065H246.881V316.3ZM243.806 317.346H238.735V323.581H243.806V317.346ZM233.762 317.346H228.691V323.581H233.762V317.346ZM225.648 310.105H220.577V316.34H225.648V310.105ZM222.54 298.359H217.469V304.594H222.54V298.359ZM225.648 286.613H220.577V292.848H225.648V286.613ZM228.691 285.567H233.762V279.332H228.691V285.567ZM243.806 279.332H238.735V285.567H243.806V279.332ZM246.881 292.808H251.952V286.573H246.881V292.808ZM258.103 304.554H263.174V298.319H258.103V304.554ZM256.009 316.742H261.08V310.507H256.009V316.742ZM255.126 320.604H250.055V326.839H255.126V320.604ZM246.358 326.839H241.286V333.074H246.358V326.839ZM236.281 328.126H231.21V334.362H236.281V328.126ZM226.629 324.265H221.558V330.5H226.629V324.265ZM219.104 315.938H214.033V322.173H219.104V315.938ZM214.982 304.554H209.911V310.789H214.982V304.554ZM214.982 292.084H209.911V298.319H214.982V292.084ZM214.033 286.935H219.104V280.7H214.033V286.935ZM226.629 272.373H221.558V278.608H226.629V272.373ZM231.21 274.746H236.281V268.511H231.21V274.746ZM241.286 276.034H246.358V269.799H241.286V276.034ZM250.055 282.269H255.126V276.034H250.055V282.269ZM256.009 292.365H261.08V286.13H256.009V292.365ZM271.288 298.319H266.217V304.554H271.288V298.319ZM264.646 316.903H269.717V310.668H264.646V316.903ZM265.104 321.811H260.033V328.046H265.104V321.811ZM252.836 336.896H257.907V330.661H252.836V336.896ZM248.844 336.333H243.773V342.568H248.844V336.333ZM238.8 338.304H233.729V344.539H238.8V338.304ZM228.756 336.333H223.685V342.568H228.756V336.333ZM219.693 330.661H214.622V336.896H219.693V330.661ZM212.496 321.811H207.425V328.046H212.496V321.811ZM207.883 310.668H202.812V316.903H207.883V310.668ZM206.279 298.319H201.208V304.554H206.279V298.319ZM207.883 285.97H202.812V292.205H207.883V285.97ZM212.496 274.827H207.425V281.062H212.496V274.827ZM219.693 265.977H214.622V272.212H219.693V265.977ZM223.685 266.54H228.756V260.305H223.685V266.54ZM233.729 264.569H238.8V258.334H233.729V264.569ZM243.773 266.54H248.844V260.305H243.773V266.54ZM252.836 272.212H257.907V265.977H252.836V272.212ZM265.104 274.827H260.033V281.062H265.104V274.827ZM264.646 292.205H269.717V285.97H264.646V292.205ZM274.363 304.554H279.434V298.319H274.363V304.554ZM278.158 310.749H273.087V316.984H278.158V310.749ZM274.396 322.374H269.325V328.609H274.396V322.374ZM268.409 332.511H263.338V338.746H268.409V332.511ZM255.486 346.711H260.557V340.476H255.486V346.711ZM251.331 345.826H246.259V352.061H251.331V345.826ZM241.319 348.159H236.248V354.394H241.319V348.159ZM231.144 347.355H226.073V353.59H231.144V347.355ZM221.46 343.493H216.389V349.728H221.46V343.493ZM212.856 336.775H207.784V343.01H212.856V336.775ZM205.887 327.644H200.816V333.879H205.887V327.644ZM195.908 322.897H200.979V316.662H195.908V322.897ZM198.427 304.554H193.356V310.789H198.427V304.554ZM198.427 292.044H193.356V298.279H198.427V292.044ZM195.908 286.13H200.979V279.895H195.908V286.13ZM205.887 268.954H200.816V275.189H205.887V268.954ZM207.784 266.058H212.856V259.823H207.784V266.058ZM216.389 259.34H221.46V253.105H216.389V259.34ZM226.073 255.478H231.144V249.243H226.073V255.478ZM236.248 254.674H241.319V248.439H236.248V254.674ZM246.259 257.007H251.331V250.772H246.259V257.007ZM255.486 262.317H260.557V256.081H255.486V262.317ZM263.338 270.281H268.409V264.046H263.338V270.281ZM269.325 280.418H274.396V274.183H269.325V280.418ZM273.087 292.044H278.158V285.809H273.087V292.044ZM282.477 304.474H287.548V298.238H282.477V304.474ZM286.468 310.709H281.397V316.944H286.468V310.709ZM278.257 328.851H283.328V322.616H278.257V328.851ZM278.257 333.477H273.185V339.712H278.257V333.477ZM271.451 342.769H266.38V349.004H271.451V342.769ZM263.207 350.13H258.136V356.365H263.207V350.13ZM253.882 355.239H248.811V361.474H253.882V355.239ZM243.904 357.854H238.833V364.089H243.904V357.854ZM233.729 357.854H228.658V364.089H233.729V357.854ZM218.712 361.474H223.783V355.239H218.712V361.474ZM214.459 350.17H209.388V356.405H214.459V350.17ZM206.214 342.809H201.143V349.044H206.214V342.809ZM199.409 333.517H194.338V339.752H199.409V333.517ZM189.267 328.891H194.338V322.656H189.267V328.891ZM191.197 310.749H186.126V316.984H191.197V310.749ZM190.117 298.279H185.046V304.514H190.117V298.279ZM191.197 285.809H186.126V292.044H191.197V285.809ZM194.338 273.902H189.267V280.137H194.338V273.902ZM194.338 269.276H199.409V263.041H194.338V269.276ZM201.143 259.983H206.214V253.748H201.143V259.983ZM209.388 252.622H214.459V246.387H209.388V252.622ZM218.712 247.513H223.783V241.278H218.712V247.513ZM228.691 244.899H233.762V238.664H228.691V244.899ZM238.865 244.899H243.937V238.664H238.865V244.899ZM248.844 247.513H253.915V241.278H248.844V247.513ZM258.136 252.622H263.207V246.387H258.136V252.622ZM266.38 259.983H271.451V253.748H266.38V259.983ZM273.185 269.276H278.257V263.041H273.185V269.276ZM278.289 280.137H283.36V273.902H278.289V280.137ZM281.43 292.044H286.501V285.809H281.43V292.044ZM290.623 304.514H295.695V298.279H290.623V304.514ZM294.778 310.789H289.707V317.024H294.778V310.789ZM292.063 322.857H286.992V329.092H292.063V322.857ZM287.646 334.16H282.575V340.395H287.646V334.16ZM281.659 344.297H276.588V350.532H281.659V344.297ZM274.298 352.946H269.227V359.181H274.298V352.946ZM265.791 359.865H260.72V366.1H265.791V359.865ZM256.434 364.773H251.363V371.008H256.434V364.773ZM246.488 367.548H241.417V373.783H246.488V367.548ZM236.314 368.111H231.242V374.346H236.314V368.111ZM226.204 366.422H221.133V372.657H226.204V366.422ZM211.449 368.795H216.52V362.56H211.449V368.795ZM207.523 356.647H202.452V362.882H207.523V356.647ZM199.54 348.843H194.469V355.078H199.54V348.843ZM192.833 339.39H187.762V345.625H192.833V339.39ZM187.598 328.649H182.527V334.884H187.598V328.649ZM184.032 316.903H178.961V323.138H184.032V316.903ZM182.2 304.554H177.129V310.789H182.2V304.554ZM182.2 292.003H177.129V298.238H182.2V292.003ZM184.032 279.654H178.961V285.889H184.032V279.654ZM187.598 267.908H182.527V274.143H187.598V267.908ZM192.833 257.168H187.762V263.403H192.833V257.168ZM194.469 253.95H199.54V247.714H194.469V253.95ZM202.452 246.146H207.523V239.911H202.452V246.146ZM211.416 240.192H216.487V233.957H211.416V240.192ZM221.1 236.33H226.171V230.095H221.1V236.33ZM231.21 234.641H236.281V228.406H231.21V234.641ZM241.385 235.204H246.456V228.969H241.385V235.204ZM251.331 237.98H256.402V231.745H251.331V237.98ZM260.72 242.887H265.791V236.652H260.72V242.887ZM269.227 249.806H274.298V243.571H269.227V249.806ZM276.588 258.455H281.659V252.22H276.588V258.455ZM282.575 268.592H287.646V262.357H282.575V268.592ZM286.992 279.895H292.063V273.66H286.992V279.895ZM289.707 291.963H294.778V285.728H289.707V291.963ZM303.808 298.238H298.737V304.474H303.808V298.238ZM303.023 310.749H297.952V316.984H303.023V310.749ZM300.635 322.937H295.564V329.172H300.635V322.937ZM296.741 334.522H291.67V340.758H296.741V334.522ZM291.409 345.223H286.338V351.458H291.409V345.223ZM284.8 354.756H279.729V360.991H284.8V354.756ZM277.046 362.882H271.975V369.117H277.046V362.882ZM268.343 369.439H263.272V375.674H268.343V369.439ZM258.921 374.226H253.85V380.461H258.921V374.226ZM249.008 377.162H243.937V383.397H249.008V377.162ZM238.833 378.128H233.762V384.363H238.833V378.128ZM228.658 377.162H223.587V383.397H228.658V377.162ZM218.745 374.226H213.673V380.461H218.745V374.226ZM209.322 369.439H204.251V375.674H209.322V369.439ZM200.619 362.882H195.548V369.117H200.619V362.882ZM192.866 354.756H187.794V360.991H192.866V354.756ZM181.186 351.458H186.257V345.223H181.186V351.458ZM180.924 334.522H175.853V340.758H180.924V334.522ZM177.031 322.937H171.96V329.172H177.031V322.937ZM174.642 310.749H169.571V316.984H174.642V310.749ZM173.857 298.238H168.786V304.474H173.857V298.238ZM169.604 291.963H174.675V285.728H169.604V291.963ZM177.063 273.54H171.992V279.775H177.063V273.54ZM180.957 261.954H175.886V268.19H180.957V261.954ZM186.29 251.254H181.218V257.489H186.29V251.254ZM187.86 247.956H192.931V241.721H187.86V247.956ZM195.614 239.83H200.685V233.595H195.614V239.83ZM204.316 233.273H209.388V227.038H204.316V233.273ZM213.739 228.486H218.81V222.251H213.739V228.486ZM223.652 225.55H228.723V219.315H223.652V225.55ZM233.827 224.584H238.898V218.349H233.827V224.584ZM244.002 225.55H249.073V219.315H244.002V225.55ZM253.915 228.486H258.986V222.251H253.915V228.486ZM263.338 233.273H268.409V227.038H263.338V233.273ZM272.04 239.83H277.111V233.595H272.04V239.83ZM279.794 247.956H284.865V241.721H279.794V247.956ZM286.403 257.489H291.474V251.254H286.403V257.489ZM291.736 268.19H296.807V261.954H291.736V268.19ZM295.629 279.775H300.7V273.54H295.629V279.775ZM298.017 291.963H303.089V285.728H298.017V291.963ZM306.949 304.474H312.02V298.238H306.949V304.474ZM311.3 310.749H306.229V316.984H311.3V310.749ZM304.103 329.253H309.174V323.018H304.103V329.253ZM305.673 334.804H300.602V341.039H305.673V334.804ZM300.897 345.866H295.825V352.101H300.897V345.866ZM294.909 356.003H289.838V362.238H294.909V356.003ZM287.81 365.014H282.739V371.249H287.81V365.014ZM279.761 372.737H274.69V378.972H279.761V372.737ZM270.928 379.013H265.857V385.248H270.928V379.013ZM261.473 383.719H256.402V389.954H261.473V383.719ZM251.592 386.736H246.521V392.971H251.592V386.736ZM241.45 388.063H236.379V394.299H241.45V388.063ZM231.242 387.621H226.171V393.856H231.242V387.621ZM221.198 385.449H216.127V391.684H221.198V385.449ZM211.514 381.587H206.443V387.822H211.514V381.587ZM202.353 376.076H197.282V382.311H202.353V376.076ZM193.913 369.077H188.841V375.312H193.913V369.077ZM186.322 360.669H181.251V366.904H186.322V360.669ZM174.708 357.29H179.779V351.055H174.708V357.29ZM174.381 340.436H169.309V346.671H174.381V340.436ZM170.226 328.971H165.154V335.206H170.226V328.971ZM167.412 316.903H162.341V323.138H167.412V316.903ZM166.005 304.474H160.934V310.709H166.005V304.474ZM160.934 298.158H166.005V291.923H160.934V298.158ZM167.412 279.493H162.341V285.728H167.412V279.493ZM170.226 267.425H165.154V273.66H170.226V267.425ZM174.381 255.961H169.309V262.196H174.381V255.961ZM179.779 245.341H174.708V251.576H179.779V245.341ZM186.322 235.727H181.251V241.962H186.322V235.727ZM188.841 233.555H193.913V227.32H188.841V233.555ZM197.282 226.555H202.353V220.32H197.282V226.555ZM206.443 221.045H211.514V214.809H206.443V221.045ZM216.127 217.183H221.198V210.948H216.127V217.183ZM226.171 215.011H231.242V208.776H226.171V215.011ZM236.379 214.568H241.45V208.333H236.379V214.568ZM246.521 215.896H251.592V209.661H246.521V215.896ZM256.402 218.913H261.473V212.677H256.402V218.913ZM265.857 223.619H270.928V217.384H265.857V223.619ZM274.69 229.894H279.761V223.659H274.69V229.894ZM282.739 237.618H287.81V231.383H282.739V237.618ZM289.838 246.628H294.909V240.393H289.838V246.628ZM295.825 256.765H300.897V250.53H295.825V256.765ZM300.602 267.828H305.673V261.592H300.602V267.828ZM304.103 279.614H309.174V273.379H304.103V279.614ZM306.229 291.883H311.3V285.648H306.229V291.883ZM320.134 298.158H315.063V304.393H320.134V298.158ZM314.441 316.903H319.512V310.668H314.441V316.903ZM312.544 329.213H317.615V322.978H312.544V329.213ZM309.403 341.16H314.474V334.925H309.403V341.16ZM310.123 346.268H305.052V352.504H310.123V346.268ZM304.659 356.848H299.588V363.083H304.659V356.848ZM298.148 366.502H293.077V372.737H298.148V366.502ZM290.722 375.07H285.65V381.305H290.722V375.07ZM282.477 382.432H277.406V388.667H282.477V382.432ZM273.545 388.466H268.474V394.701H273.545V388.466ZM264.057 393.092H258.986V399.327H264.057V393.092ZM254.177 396.229H249.106V402.464H254.177V396.229ZM244.067 397.798H238.996V404.033H244.067V397.798ZM233.86 397.798H228.789V404.033H233.86V397.798ZM223.75 396.229H218.679V402.464H223.75V396.229ZM213.87 393.092H208.799V399.327H213.87V393.092ZM204.382 388.466H199.311V394.701H204.382V388.466ZM195.45 382.432H190.379V388.667H195.45V382.432ZM187.206 375.07H182.134V381.305H187.206V375.07ZM179.779 366.502H174.708V372.737H179.779V366.502ZM168.197 363.083H173.268V356.848H168.197V363.083ZM167.805 346.268H162.733V352.504H167.805V346.268ZM163.453 334.925H158.382V341.16H163.453V334.925ZM160.312 322.978H155.241V329.213H160.312V322.978ZM158.415 310.668H153.344V316.903H158.415V310.668ZM157.76 298.158H152.689V304.393H157.76V298.158ZM158.415 285.648H153.344V291.883H158.415V285.648ZM160.312 273.339H155.241V279.574H160.312V273.339ZM163.453 261.391H158.382V267.626H163.453V261.391ZM167.805 250.048H162.733V256.283H167.805V250.048ZM173.268 239.468H168.197V245.703H173.268V239.468ZM179.779 229.814H174.708V236.049H179.779V229.814ZM182.134 227.44H187.206V221.205H182.134V227.44ZM190.379 220.079H195.45V213.844H190.379V220.079ZM199.311 214.045H204.382V207.81H199.311V214.045ZM208.799 209.419H213.87V203.184H208.799V209.419ZM218.679 206.282H223.75V200.046H218.679V206.282ZM228.789 204.713H233.86V198.478H228.789V204.713ZM238.996 204.713H244.067V198.478H238.996V204.713ZM249.106 206.282H254.177V200.046H249.106V206.282ZM258.986 209.419H264.057V203.184H258.986V209.419ZM268.474 214.045H273.545V207.81H268.474V214.045ZM277.406 220.079H282.477V213.844H277.406V220.079ZM285.65 227.44H290.722V221.205H285.65V227.44ZM293.077 236.009H298.148V229.774H293.077V236.009ZM299.588 245.663H304.659V239.428H299.588V245.663ZM305.052 256.242H310.123V250.007H305.052V256.242ZM309.403 267.586H314.474V261.351H309.403V267.586ZM312.544 279.533H317.615V273.298H312.544V279.533ZM314.441 291.843H319.512V285.607H314.441V291.843ZM328.28 298.118H323.209V304.353H328.28V298.118ZM327.692 310.628H322.62V316.863H327.692V310.628ZM325.958 322.978H320.886V329.213H325.958V322.978ZM323.078 335.005H318.007V341.24H323.078V335.005ZM319.12 346.55H314.049V352.785H319.12V346.55ZM314.114 357.492H309.043V363.727H314.114V357.492ZM308.127 367.629H303.056V373.864H308.127V367.629ZM301.224 376.881H296.153V383.116H301.224V376.881ZM293.503 385.087H288.431V391.322H293.503V385.087ZM285.094 392.167H280.023V398.402H285.094V392.167ZM276.064 398.04H270.993V404.275H276.064V398.04ZM266.544 402.585H261.473V408.82H266.544V402.585ZM256.663 405.763H251.592V411.998H256.663V405.763ZM246.554 407.533H241.483V413.768H246.554V407.533ZM236.346 407.895H231.275V414.13H236.346V407.895ZM226.171 406.809H221.1V413.044H226.171V406.809ZM216.16 404.315H211.089V410.55H216.16V404.315ZM206.443 400.453H201.372V406.688H206.443V400.453ZM197.151 395.224H192.08V401.459H197.151V395.224ZM188.416 388.747H183.345V394.982H188.416V388.747ZM180.335 381.104H175.264V387.339H180.335V381.104ZM173.007 372.375H167.935V378.61H173.007V372.375ZM161.49 368.876H166.561V362.641H161.49V368.876ZM161.032 352.101H155.961V358.336H161.032V352.101ZM156.517 340.838H151.446V347.073H156.517V340.838ZM153.082 329.011H148.011V335.247H153.082V329.011ZM150.759 316.783H145.688V323.018H150.759V316.783ZM149.581 304.313H144.51V310.548H149.581V304.313ZM144.51 297.997H149.581V291.762H144.51V297.997ZM150.726 279.292H145.655V285.527H150.726V279.292ZM153.049 267.063H147.978V273.298H153.049V267.063ZM156.485 255.237H151.413V261.472H156.485V255.237ZM160.999 243.973H155.928V250.208H160.999V243.973ZM166.529 233.434H161.457V239.669H166.529V233.434ZM172.974 223.74H167.903V229.975H172.974V223.74ZM175.231 221.205H180.302V214.97H175.231V221.205ZM183.312 213.562H188.383V207.327H183.312V213.562ZM192.048 207.086H197.119V200.851H192.048V207.086ZM201.339 201.857H206.41V195.622H201.339V201.857ZM211.056 197.995H216.127V191.76H211.056V197.995ZM221.067 195.501H226.139V189.266H221.067V195.501ZM231.242 194.415H236.314V188.18H231.242V194.415ZM241.45 194.777H246.521V188.542H241.45V194.777ZM251.56 196.547H256.631V190.312H251.56V196.547ZM261.44 199.725H266.511V193.49H261.44V199.725ZM270.961 204.27H276.032V198.035H270.961V204.27ZM279.99 210.143H285.062V203.908H279.99V210.143ZM288.399 217.223H293.47V210.988H288.399V217.223ZM296.12 225.429H301.191V219.194H296.12V225.429ZM303.023 234.681H308.094V228.446H303.023V234.681ZM309.01 244.818H314.081V238.583H309.01V244.818ZM314.016 255.76H319.087V249.525H314.016V255.76ZM317.975 267.305H323.046V261.07H317.975V267.305ZM320.854 279.332H325.925V273.097H320.854V279.332ZM322.588 291.682H327.659V285.447H322.588V291.682ZM336.362 297.997H331.29V304.232H336.362V297.997ZM335.838 310.507H330.767V316.742H335.838V310.507ZM334.235 322.897H329.164V329.132H334.235V322.897ZM331.585 335.005H326.514V341.24H331.585V335.005ZM327.921 346.711H322.849V352.946H327.921V346.711ZM323.275 357.894H318.204V364.129H323.275V357.894ZM317.713 368.433H312.642V374.668H317.713V368.433ZM311.3 378.168H306.229V384.403H311.3V378.168ZM304.07 387.058H298.999V393.293H304.07V387.058ZM296.153 394.942H291.081V401.177H296.153V394.942ZM287.581 401.781H282.51V408.016H287.581V401.781ZM278.486 407.493H273.414V413.728H278.486V407.493ZM268.965 411.998H263.894V418.233H268.965V411.998ZM259.117 415.256H254.046V421.491H259.117V415.256ZM249.04 417.227H243.969V423.462H249.04V417.227ZM238.865 417.871H233.794V424.106H238.865V417.871ZM228.691 417.227H223.619V423.462H228.691V417.227ZM218.614 415.256H213.543V421.491H218.614V415.256ZM208.766 411.998H203.695V418.233H208.766V411.998ZM199.245 407.493H194.174V413.728H199.245V407.493ZM190.15 401.781H185.079V408.016H190.15V401.781ZM181.578 394.942H176.507V401.177H181.578V394.942ZM173.661 387.058H168.59V393.293H173.661V387.058ZM166.43 378.168H161.359V384.403H166.43V378.168ZM154.947 374.628H160.018V368.393H154.947V374.628ZM154.456 357.894H149.385V364.129H154.456V357.894ZM149.81 346.711H144.739V352.946H149.81V346.711ZM146.146 335.005H141.075V341.24H146.146V335.005ZM143.496 322.897H138.425V329.132H143.496V322.897ZM141.893 310.507H136.822V316.742H141.893V310.507ZM141.369 297.997H136.298V304.232H141.369V297.997ZM141.893 285.487H136.822V291.722H141.893V285.487ZM143.496 273.097H138.425V279.332H143.496V273.097ZM146.146 260.989H141.075V267.224H146.146V260.989ZM149.81 249.283H144.739V255.518H149.81V249.283ZM154.456 238.1H149.385V244.335H154.456V238.1ZM160.018 227.561H154.947V233.796H160.018V227.561ZM166.43 217.826H161.359V224.061H166.43V217.826ZM168.59 215.171H173.661V208.936H168.59V215.171ZM181.578 201.052H176.507V207.287H181.578V201.052ZM185.079 200.449H190.15V194.214H185.079V200.449ZM194.174 194.737H199.245V188.502H194.174V194.737ZM203.695 190.231H208.766V183.996H203.695V190.231ZM213.543 186.973H218.614V180.738H213.543V186.973ZM223.619 185.002H228.691V178.767H223.619V185.002ZM233.794 184.358H238.865V178.123H233.794V184.358ZM243.969 185.002H249.04V178.767H243.969V185.002ZM254.046 186.973H259.117V180.738H254.046V186.973ZM263.894 190.231H268.965V183.996H263.894V190.231ZM273.414 194.737H278.486V188.502H273.414V194.737ZM282.51 200.449H287.581V194.214H282.51V200.449ZM291.081 207.287H296.153V201.052H291.081V207.287ZM298.999 215.171H304.07V208.936H298.999V215.171ZM306.229 224.061H311.3V217.826H306.229V224.061ZM312.642 233.796H317.713V227.561H312.642V233.796ZM318.204 244.335H323.275V238.1H318.204V244.335ZM322.849 255.518H327.921V249.283H322.849V255.518ZM326.514 267.224H331.585V260.989H326.514V267.224ZM329.164 279.332H334.235V273.097H329.164V279.332ZM335.838 285.487H330.767V291.722H335.838V285.487ZM344.508 297.997H339.437V304.232H344.508V297.997ZM338.946 316.742H344.017V310.507H338.946V316.742ZM342.545 322.937H337.474V329.172H342.545V322.937ZM340.091 335.126H335.02V341.361H340.091V335.126ZM336.689 346.952H331.618V353.187H336.689V346.952ZM332.403 358.336H327.332V364.571H332.403V358.336ZM327.234 369.157H322.162V375.392H327.234V369.157ZM321.246 379.294H316.175V385.529H321.246V379.294ZM314.474 388.667H309.403V394.902H314.474V388.667ZM307.015 397.195H301.943V403.43H307.015V397.195ZM298.901 404.797H293.83V411.033H298.901V404.797ZM290.231 411.435H285.16V417.67H290.231V411.435ZM281.07 416.986H275.999V423.221H281.07V416.986ZM271.517 421.451H266.446V427.686H271.517V421.451ZM261.669 424.75H256.598V430.985H261.669V424.75ZM251.625 426.882H246.554V433.117H251.625V426.882ZM241.45 427.807H236.379V434.042H241.45V427.807ZM231.242 427.485H226.171V433.72H231.242V427.485ZM221.1 425.956H216.029V432.192H221.1V425.956ZM211.154 423.261H206.083V429.496H211.154V423.261ZM201.437 419.4H196.366V425.635H201.437V419.4ZM192.08 414.371H187.009V420.606H192.08V414.371ZM183.149 408.257H178.078V414.492H183.149V408.257ZM174.74 401.137H169.669V407.372H174.74V401.137ZM166.954 393.051H161.883V399.287H166.954V393.051ZM159.822 384.081H154.751V390.316H159.822V384.081ZM148.371 380.541H153.442V374.306H148.371V380.541ZM147.847 363.807H142.776V370.042H147.847V363.807ZM143.103 352.705H138.032V358.94H143.103V352.705ZM139.243 341.079H134.172V347.314H139.243V341.079ZM136.331 329.052H131.26V335.287H136.331V329.052ZM134.368 316.742H129.297V322.978H134.368V316.742ZM133.386 304.272H128.315V310.507H133.386V304.272ZM128.315 297.957H133.386V291.722H128.315V297.957ZM134.368 279.252H129.297V285.487H134.368V279.252ZM136.331 266.943H131.26V273.178H136.331V266.943ZM139.243 254.915H134.172V261.15H139.243V254.915ZM138.032 249.525H143.103V243.29H138.032V249.525ZM147.847 232.187H142.776V238.422H147.847V232.187ZM153.442 221.688H148.371V227.923H153.442V221.688ZM159.822 211.913H154.751V218.148H159.822V211.913ZM161.883 209.178H166.954V202.943H161.883V209.178ZM174.74 194.857H169.669V201.092H174.74V194.857ZM178.078 193.972H183.149V187.737H178.078V193.972ZM187.009 187.858H192.08V181.623H187.009V187.858ZM196.366 182.83H201.437V176.595H196.366V182.83ZM206.083 178.968H211.154V172.733H206.083V178.968ZM216.062 176.273H221.133V170.038H216.062V176.273ZM226.204 174.744H231.275V168.509H226.204V174.744ZM236.412 174.422H241.483V168.187H236.412V174.422ZM246.587 175.348H251.658V169.113H246.587V175.348ZM256.631 177.48H261.702V171.245H256.631V177.48ZM266.478 180.778H271.55V174.543H266.478V180.778ZM276.032 185.243H281.103V179.008H276.032V185.243ZM285.192 190.794H290.264V184.559H285.192V190.794ZM293.862 197.432H298.934V191.197H293.862V197.432ZM301.976 205.035H307.047V198.799H301.976V205.035ZM309.436 213.562H314.507V207.327H309.436V213.562ZM316.208 222.935H321.279V216.7H316.208V222.935ZM322.195 233.072H327.266V226.837H322.195V233.072ZM327.364 243.893H332.436V237.658H327.364V243.893ZM331.65 255.277H336.721V249.042H331.65V255.277ZM335.053 267.103H340.124V260.868H335.053V267.103ZM337.507 279.292H342.578V273.057H337.507V279.292ZM344.05 285.487H338.979V291.722H344.05V285.487ZM352.655 298.037H347.583V304.272H352.655V298.037ZM352.196 310.588H347.125V316.823H352.196V310.588ZM350.822 323.018H345.751V329.253H350.822V323.018ZM348.565 335.247H343.494V341.482H348.565V335.247ZM345.424 347.194H340.353V353.429H345.424V347.194ZM341.4 358.739H336.329V364.974H341.4V358.739ZM336.558 369.801H331.487V376.036H336.558V369.801ZM330.931 380.26H325.859V386.495H330.931V380.26ZM324.583 390.075H319.512V396.31H324.583V390.075ZM317.517 399.126H312.446V405.361H317.517V399.126ZM309.828 407.372H304.757V413.607H309.828V407.372ZM301.584 414.733H296.512V420.968H301.584V414.733ZM292.815 421.17H287.744V427.405H292.815V421.17ZM283.622 426.6H278.551V432.835H283.622V426.6ZM274.069 431.025H268.998V437.26H274.069V431.025ZM264.221 434.364H259.15V440.599H264.221V434.364ZM254.177 436.616H249.106V442.851H254.177V436.616ZM244.002 437.743H238.931V443.978H244.002V437.743ZM233.794 437.743H228.723V443.978H233.794V437.743ZM223.619 436.616H218.548V442.851H223.619V436.616ZM213.575 434.364H208.504V440.599H213.575V434.364ZM203.728 431.025H198.656V437.26H203.728V431.025ZM194.174 426.6H189.103V432.835H194.174V426.6ZM184.981 421.17H179.91V427.405H184.981V421.17ZM176.213 414.733H171.142V420.968H176.213V414.733ZM167.968 407.372H162.897V413.607H167.968V407.372ZM160.28 399.126H155.209V405.361H160.28V399.126ZM153.213 390.075H148.142V396.31H153.213V390.075ZM141.795 386.495H146.866V380.26H141.795V386.495ZM141.238 369.801H136.167V376.036H141.238V369.801ZM136.396 358.739H131.325V364.974H136.396V358.739ZM132.372 347.194H127.301V353.429H132.372V347.194ZM129.231 335.247H124.16V341.482H129.231V335.247ZM126.974 323.018H121.903V329.253H126.974V323.018ZM125.6 310.588H120.529V316.823H125.6V310.588ZM120.071 304.272H125.142V298.037H120.071V304.272ZM125.6 285.527H120.529V291.762H125.6V285.527ZM126.974 273.097H121.903V279.332H126.974V273.097ZM129.231 260.868H124.16V267.103H129.231V260.868ZM127.334 255.156H132.405V248.921H127.334V255.156ZM136.396 237.376H131.325V243.611H136.396V237.376ZM136.167 232.549H141.238V226.314H136.167V232.549ZM146.866 215.855H141.795V222.09H146.866V215.855ZM148.174 212.275H153.246V206.04H148.174V212.275ZM155.241 196.989V203.224H160.312V196.989H155.241ZM168.001 188.743H162.93V194.978H168.001V188.743ZM171.207 187.576H176.278V181.341H171.207V187.576ZM179.975 181.14H185.046V174.905H179.975V181.14ZM189.169 175.71H194.24V169.475H189.169V175.71ZM198.722 171.285H203.793V165.05H198.722V171.285ZM208.57 167.946H213.641V161.711H208.57V167.946ZM218.614 165.693H223.685V159.458H218.614V165.693ZM228.789 164.567H233.86V158.332H228.789V164.567ZM238.996 164.567H244.067V158.332H238.996V164.567ZM249.171 165.693H254.242V159.458H249.171V165.693ZM259.215 167.946H264.286V161.711H259.215V167.946ZM269.063 171.285H274.134V165.05H269.063V171.285ZM278.616 175.71H283.687V169.475H278.616V175.71ZM287.81 181.14H292.881V174.905H287.81V181.14ZM296.578 187.576H301.649V181.341H296.578V187.576ZM304.823 194.938H309.894V188.703H304.823V194.938ZM312.511 203.184H317.582V196.949H312.511V203.184ZM319.578 212.235H324.649V206H319.578V212.235ZM325.925 222.05H330.996V215.815H325.925V222.05ZM331.552 232.509H336.623V226.274H331.552V232.509ZM336.394 243.571H341.465V237.336H336.394V243.571ZM340.418 255.116H345.49V248.881H340.418V255.116ZM348.63 260.828H343.559V267.063H348.63V260.828ZM350.888 273.057H345.817V279.292H350.888V273.057ZM347.191 291.722H352.262V285.487H347.191V291.722ZM360.834 298.037H355.763V304.272H360.834V298.037ZM360.408 310.588H355.337V316.823H360.408V310.588ZM359.132 323.018H354.061V329.253H359.132V323.018ZM357.006 335.287H351.935V341.522H357.006V335.287ZM354.061 347.314H348.99V353.549H354.061V347.314ZM350.299 358.98H345.228V365.215H350.299V358.98ZM345.751 370.203H340.68V376.438H345.751V370.203ZM340.451 380.943H335.38V387.178H340.451V380.943ZM334.464 391.08H329.393V397.315H334.464V391.08ZM327.79 400.574H322.719V406.809H327.79V400.574ZM320.494 409.343H315.423V415.578H320.494V409.343ZM312.642 417.348H307.571V423.583H312.642V417.348ZM304.266 424.508H299.195V430.743H304.266V424.508ZM295.433 430.784H290.362V437.019H295.433V430.784ZM286.207 436.134H281.136V442.369H286.207V436.134ZM276.653 440.518H271.582V446.753H276.653V440.518ZM266.838 443.897H261.767V450.132H266.838V443.897ZM256.827 446.23H251.756V452.466H256.827V446.23ZM246.685 447.558H241.614V453.793H246.685V447.558ZM236.477 447.839H231.406V454.075H236.477V447.839ZM226.302 447.035H221.231V453.27H226.302V447.035ZM216.193 445.185H211.122V451.42H216.193V445.185ZM206.247 442.328H201.176V448.564H206.247V442.328ZM196.53 438.467H191.459V444.702H196.53V438.467ZM187.107 433.599H182.036V439.834H187.107V433.599ZM178.078 427.807H173.007V434.042H178.078V427.807ZM169.473 421.089H164.402V427.324H169.473V421.089ZM161.359 413.486H156.288V419.721H161.359V413.486ZM153.769 405.079H148.698V411.314H153.769V405.079ZM146.768 395.948H141.697V402.183H146.768V395.948ZM135.349 392.327H140.421V386.092H135.349V392.327ZM134.761 375.634H129.689V381.869H134.761V375.634ZM129.853 364.652H124.782V370.887H129.853V364.652ZM125.698 353.187H120.627V359.422H125.698V353.187ZM122.328 341.321H117.257V347.556H122.328V341.321ZM119.776 329.172H114.705V335.407H119.776V329.172ZM118.075 316.783H113.004V323.018H118.075V316.783ZM117.224 304.272H112.153V310.507H117.224V304.272ZM112.153 297.957H117.224V291.722H112.153V297.957ZM113.004 285.447H118.075V279.212H113.004V285.447ZM114.705 273.057H119.776V266.822H114.705V273.057ZM117.257 260.909H122.328V254.674H117.257V260.909ZM120.627 249.042H125.698V242.807H120.627V249.042ZM129.853 231.342H124.782V237.577H129.853V231.342ZM134.761 220.361H129.689V226.596H134.761V220.361ZM135.349 216.137H140.421V209.902H135.349V216.137ZM141.697 206.322H146.768V200.087H141.697V206.322ZM148.698 197.19H153.769V190.955H148.698V197.19ZM161.359 182.548H156.288V188.783H161.359V182.548ZM169.473 174.945H164.402V181.18H169.473V174.945ZM173.039 174.463H178.11V168.228H173.039V174.463ZM182.069 168.63H187.14V162.395H182.069V168.63ZM191.491 163.762H196.563V157.527H191.491V163.762ZM201.208 159.901H206.279V153.666H201.208V159.901ZM211.154 157.045H216.225V150.81H211.154V157.045ZM221.264 155.194H226.335V148.959H221.264V155.194ZM231.439 154.39H236.51V148.155H231.439V154.39ZM241.646 154.671H246.717V148.436H241.646V154.671ZM251.789 155.999H256.86V149.764H251.789V155.999ZM261.8 158.332H266.871V152.097H261.8V158.332ZM271.615 161.711H276.686V155.476H271.615V161.711ZM286.239 159.861H281.168V166.096H286.239V159.861ZM295.466 165.211H290.394V171.446H295.466V165.211ZM304.299 171.486H299.228V177.721H304.299V171.486ZM312.675 178.646H307.603V184.881H312.675V178.646ZM315.455 192.886H320.527V186.651H315.455V192.886ZM322.751 201.656H327.822V195.42H322.751V201.656ZM329.426 211.149H334.497V204.914H329.426V211.149ZM335.413 221.286H340.484V215.051H335.413V221.286ZM340.713 232.026H345.784V225.791H340.713V232.026ZM345.26 243.249H350.332V237.014H345.26V243.249ZM349.023 254.915H354.094V248.68H349.023V254.915ZM351.967 266.943H357.039V260.708H351.967V266.943ZM354.094 279.212H359.165V272.976H354.094V279.212ZM355.37 291.641H360.441V285.406H355.37V291.641ZM368.98 297.957H363.909V304.192H368.98V297.957ZM368.588 310.507H363.516V316.742H368.588V310.507ZM362.339 329.213H367.41V322.978H362.339V329.213ZM365.414 335.287H360.343V341.522H365.414V335.287ZM362.633 347.355H357.562V353.59H362.633V347.355ZM359.1 359.141H354.029V365.376H359.1V359.141ZM354.814 370.525H349.743V376.76H354.814V370.525ZM349.841 381.466H344.77V387.701H349.841V381.466ZM344.181 391.885H339.11V398.12H344.181V391.885ZM337.866 401.74H332.795V407.975H337.866V401.74ZM330.931 410.952H325.859V417.187H330.931V410.952ZM323.438 419.48H318.367V425.715H323.438V419.48ZM315.423 427.244H310.352V433.479H315.423V427.244ZM306.949 434.203H301.878V440.438H306.949V434.203ZM298.05 440.317H292.979V446.552H298.05V440.317ZM288.791 445.587H283.72V451.822H288.791V445.587ZM279.205 449.931H274.134V456.166H279.205V449.931ZM269.39 453.35H264.319V459.586H269.39V453.35ZM259.379 455.804H254.308V462.039H259.379V455.804ZM249.237 457.293H244.166V463.528H249.237V457.293ZM239.029 457.775H233.958V464.01H239.029V457.775ZM228.821 457.293H223.75V463.528H228.821V457.293ZM218.679 455.804H213.608V462.039H218.679V455.804ZM208.668 453.35H203.597V459.586H208.668V453.35ZM198.853 449.931H193.782V456.166H198.853V449.931ZM189.267 445.587H184.196V451.822H189.267V445.587ZM180.008 440.317H174.937V446.552H180.008V440.317ZM171.109 434.203H166.038V440.438H171.109V434.203ZM162.635 427.244H157.564V433.479H162.635V427.244ZM154.62 419.48H149.549V425.715H154.62V419.48ZM147.128 410.952H142.056V417.187H147.128V410.952ZM140.192 401.74H135.12V407.975H140.192V401.74ZM133.877 391.885H128.806V398.12H133.877V391.885ZM128.217 381.466H123.146V387.701H128.217V381.466ZM123.244 370.525H118.173V376.76H123.244V370.525ZM118.958 359.141H113.887V365.376H118.958V359.141ZM115.425 347.355H110.354V353.59H115.425V347.355ZM112.644 335.287H107.573V341.522H112.644V335.287ZM110.648 322.978H105.577V329.213H110.648V322.978ZM109.438 310.507H104.367V316.742H109.438V310.507ZM103.974 304.192H109.045V297.957H103.974V304.192ZM104.367 291.641H109.438V285.406H104.367V291.641ZM105.577 279.171H110.648V272.936H105.577V279.171ZM107.573 266.862H112.644V260.627H107.573V266.862ZM110.354 254.794H115.425V248.559H110.354V254.794ZM113.887 243.008H118.958V236.773H113.887V243.008ZM118.173 231.624H123.244V225.389H118.173V231.624ZM128.217 214.447H123.146V220.682H128.217V214.447ZM133.877 204.029H128.806V210.264H133.877V204.029ZM135.12 200.409H140.192V194.173H135.12V200.409ZM142.056 191.197H147.128V184.962H142.056V191.197ZM154.62 176.434H149.549V182.669H154.62V176.434ZM162.635 168.67H157.564V174.905H162.635V168.67ZM166.038 167.946H171.109V161.711H166.038V167.946ZM174.937 161.832H180.008V155.597H174.937V161.832ZM184.196 156.562H189.267V150.327H184.196V156.562ZM193.782 152.218H198.853V145.983H193.782V152.218ZM203.597 148.798H208.668V142.563H203.597V148.798ZM213.608 146.345H218.679V140.11H213.608V146.345ZM223.75 144.856H228.821V138.621H223.75V144.856ZM233.958 144.373H239.029V138.138H233.958V144.373ZM244.166 144.856H249.237V138.621H244.166V144.856ZM254.308 146.345H259.379V140.11H254.308V146.345ZM264.319 148.798H269.39V142.563H264.319V148.798ZM274.134 152.218H279.205V145.983H274.134V152.218ZM288.759 150.327H283.687V156.562H288.759V150.327ZM297.854 155.757H293.11V161.59H297.854V155.757ZM306.916 161.711H301.845V167.946H306.916V161.711ZM315.39 168.67H310.319V174.905H315.39V168.67ZM323.406 176.434H318.335V182.669H323.406V176.434ZM330.898 184.962H325.827V191.197H330.898V184.962ZM332.763 200.409H337.834V194.173H332.763V200.409ZM339.077 210.264H344.148V204.029H339.077V210.264ZM344.737 220.682H349.808V214.447H344.737V220.682ZM349.71 231.624H354.781V225.389H349.71V231.624ZM353.996 243.008H359.067V236.773H353.996V243.008ZM357.529 254.794H362.6V248.559H357.529V254.794ZM360.31 266.862H365.381V260.627H360.31V266.862ZM362.306 279.171H367.377V272.936H362.306V279.171ZM363.516 291.641H368.588V285.406H363.516V291.641ZM377.094 297.957H372.023V304.192H377.094V297.957ZM376.701 310.507H371.63V316.742H376.701V310.507ZM375.589 322.978H370.518V329.213H375.589V322.978ZM373.724 335.327H368.653V341.562H373.724V335.327ZM371.107 347.475H366.036V353.71H371.107V347.475ZM367.77 359.342H362.699V365.577H367.77V359.342ZM363.746 370.847H358.674V377.082H363.746V370.847ZM359.034 381.989H353.963V388.224H359.034V381.989ZM353.669 392.649H348.598V398.884H353.669V392.649ZM347.682 402.786H342.61V409.021H347.682V402.786ZM341.073 412.36H336.002V418.595H341.073V412.36ZM333.908 421.33H328.837V427.565H333.908V421.33ZM326.252 429.617H321.181V435.852H326.252V429.617ZM318.106 437.18H313.034V443.415H318.106V437.18ZM309.534 443.978H304.463V450.213H309.534V443.978ZM300.569 449.971H295.498V456.206H300.569V449.971ZM291.278 455.161H286.207V461.396H291.278V455.161ZM281.692 459.465H276.621V465.7H281.692V459.465ZM271.877 462.884H266.806V469.119H271.877V462.884ZM261.865 465.418H256.794V471.653H261.865V465.418ZM251.756 467.027H246.685V473.262H251.756V467.027ZM241.581 467.711H236.51V473.946H241.581V467.711ZM231.373 467.47H226.302V473.705H231.373V467.47ZM221.198 466.303H216.127V472.538H221.198V466.303ZM211.122 464.212H206.05V470.447H211.122V464.212ZM201.208 461.235H196.137V467.47H201.208V461.235ZM191.491 457.373H186.42V463.608H191.491V457.373ZM182.036 452.626H176.965V458.861H182.036V452.626ZM172.908 447.035H167.837V453.27H172.908V447.035ZM164.14 440.639H159.069V446.874H164.14V440.639ZM155.765 433.439H150.694V439.674H155.765V433.439ZM147.847 425.514H142.776V431.749H147.847V425.514ZM140.421 416.906H135.349V423.141H140.421V416.906ZM133.55 407.613H128.479V413.848H133.55V407.613ZM127.236 397.758H122.165V403.993H127.236V397.758ZM121.543 387.339H116.472V393.574H121.543V387.339ZM116.505 376.438H111.433V382.673H116.505V376.438ZM112.121 365.094H107.049V371.329H112.121V365.094ZM108.424 353.389H103.352V359.624H108.424V353.389ZM105.446 341.401H100.375V347.636H105.446V341.401ZM103.189 329.172H98.1177V335.407H103.189V329.172ZM96.6127 322.978H101.684V316.742H96.6127V322.978ZM100.931 304.232H95.8603V310.467H100.931V304.232ZM95.8603 297.917H100.931V291.682H95.8603V297.917ZM101.684 279.171H96.6127V285.406H101.684V279.171ZM98.1177 272.976H103.189V266.741H98.1177V272.976ZM100.375 260.748H105.446V254.513H100.375V260.748ZM103.352 248.76H108.424V242.525H103.352V248.76ZM107.049 237.055H112.121V230.819H107.049V237.055ZM111.433 225.711H116.505V219.476H111.433V225.711ZM116.472 214.809H121.543V208.574H116.472V214.809ZM127.236 198.156H122.165V204.391H127.236V198.156ZM128.479 194.495H133.55V188.26H128.479V194.495ZM135.349 185.203H140.421V178.968H135.349V185.203ZM142.776 176.595H147.847V170.36H142.776V176.595ZM150.694 168.67H155.765V162.435H150.694V168.67ZM159.069 161.47H164.14V155.235H159.069V161.47ZM167.837 155.074H172.908V148.839H167.837V155.074ZM176.965 149.482H182.036V143.247H176.965V149.482ZM186.42 144.736H191.491V138.5H186.42V144.736ZM196.137 140.874H201.208V134.639H196.137V140.874ZM206.05 137.897H211.122V131.662H206.05V137.897ZM216.127 135.805H221.198V129.57H216.127V135.805ZM226.302 134.639H231.373V128.404H226.302V134.639ZM236.51 134.397H241.581V128.162H236.51V134.397ZM246.685 135.081H251.756V128.846H246.685V135.081ZM256.925 136.529H261.734V130.616H256.925V136.529ZM267.558 138.299H271.091V133.955H267.558V138.299ZM280.318 138.098H277.962V140.995H280.318V138.098ZM289.249 143.207H288.202V144.494H289.249V143.207ZM307.505 154.39H306.458V155.677H307.505V154.39ZM317.288 159.74H313.852V163.964H317.288V159.74ZM325.794 166.86H321.639V171.969H325.794V166.86ZM333.908 174.583H328.837V180.818H333.908V174.583ZM336.002 189.749H341.073V183.514H336.002V189.749ZM342.578 199.322H347.649V193.087H342.578V199.322ZM348.565 209.459H353.636V203.224H348.565V209.459ZM353.93 220.119H359.002V213.884H353.93V220.119ZM358.642 231.262H363.713V225.027H358.642V231.262ZM362.666 242.767H367.737V236.532H362.666V242.767ZM371.074 248.398H366.003V254.633H371.074V248.398ZM373.691 260.547H368.62V266.782H373.691V260.547ZM375.556 272.896H370.485V279.131H375.556V272.896ZM371.63 291.601H376.701V285.366H371.63V291.601ZM385.208 297.917H380.137V304.152H385.208V297.917ZM384.848 310.467H379.777V316.702H384.848V310.467ZM383.768 322.937H378.697V329.172H383.768V322.937ZM382.001 335.287H376.93V341.522H382.001V335.287ZM379.548 347.475H374.477V353.71H379.548V347.475ZM376.407 359.422H371.336V365.658H376.407V359.422ZM372.579 371.048H367.508V377.283H372.579V371.048ZM368.097 382.311H363.026V388.546H368.097V382.311ZM362.993 393.172H357.922V399.407H362.993V393.172ZM357.3 403.591H352.229V409.826H357.3V403.591ZM351.019 413.486H345.948V419.721H351.019V413.486ZM344.181 422.819H339.11V429.054H344.181V422.819ZM336.852 431.548H331.781V437.783H336.852V431.548ZM329.033 439.633H323.962V445.868H329.033V439.633ZM320.788 446.995H315.717V453.23H320.788V446.995ZM312.118 453.632H307.047V459.867H312.118V453.632ZM303.121 459.505H298.05V465.74H303.121V459.505ZM293.797 464.614H288.726V470.849H293.797V464.614ZM284.211 468.918H279.14V475.153H284.211V468.918ZM274.396 472.377H269.325V478.612H274.396V472.377ZM264.417 474.992H259.346V481.227H264.417V474.992ZM254.308 476.722H249.237V482.957H254.308V476.722ZM244.133 477.607H239.062V483.842H244.133V477.607ZM233.925 477.607H228.854V483.842H233.925V477.607ZM223.75 476.722H218.679V482.957H223.75V476.722ZM213.641 474.992H208.57V481.227H213.641V474.992ZM203.662 472.377H198.591V478.612H203.662V472.377ZM193.847 468.918H188.776V475.153H193.847V468.918ZM184.261 464.614H179.19V470.849H184.261V464.614ZM174.937 459.505H169.866V465.74H174.937V459.505ZM165.94 453.632H160.869V459.867H165.94V453.632ZM157.27 446.995H152.199V453.23H157.27V446.995ZM149.025 439.633H143.954V445.868H149.025V439.633ZM141.206 431.548H136.135V437.783H141.206V431.548ZM133.877 422.819H128.806V429.054H133.877V422.819ZM127.039 413.486H121.968V419.721H127.039V413.486ZM115.687 409.826H120.758V403.591H115.687V409.826ZM115.032 393.212H109.961V399.447H115.032V393.212ZM109.928 382.351H104.857V388.586H109.928V382.351ZM105.446 371.088H100.375V377.323H105.446V371.088ZM100.702 360.589H97.4634V364.571H100.702V360.589ZM94.1263 352.866H97.7251V348.441H94.1263V352.866ZM94.9115 336.695H91.9997V340.275H94.9115V336.695ZM93.7991 323.541H89.5786V328.73H93.7991V323.541ZM93.1775 310.548H88.1064V316.783H93.1775V310.548ZM92.8176 297.997H87.7465V304.232H92.8176V297.997ZM93.1775 285.447H88.1064V291.682H93.1775V285.447ZM94.2571 272.976H89.186V279.212H94.2571V272.976ZM96.0238 260.627H90.9527V266.862H96.0238V260.627ZM98.4776 248.439H93.4065V254.674H98.4776V248.439ZM96.58 242.726H101.651V236.491H96.58V242.726ZM100.408 231.101H105.479V224.866H100.408V231.101ZM104.89 219.838H109.961V213.603H104.89V219.838ZM109.994 208.977H115.065V202.742H109.994V208.977ZM115.687 198.558H120.758V192.323H115.687V198.558ZM121.968 188.662H127.039V182.427H121.968V188.662ZM128.806 179.33H133.877V173.095H128.806V179.33ZM136.135 170.601H141.206V164.366H136.135V170.601ZM149.025 156.321H143.954V162.556H149.025V156.321ZM152.231 155.154H157.302V148.919H152.231V155.154ZM160.901 148.517H165.972V142.282H160.901V148.517ZM169.898 142.644H174.969V136.409H169.898V142.644ZM179.223 137.535H184.294V131.3H179.223V137.535ZM188.809 133.231H193.88V126.996H188.809V133.231ZM198.624 129.771H203.695V123.536H198.624V129.771ZM208.602 127.157H213.673V120.922H208.602V127.157ZM218.712 125.427H223.783V119.192H218.712V125.427ZM228.887 124.542H233.958V118.307H228.887V124.542ZM239.094 124.542H244.166V118.307H239.094V124.542ZM249.269 125.427H254.34V119.192H249.269V125.427ZM260.033 126.352H263.763V121.766H260.033V126.352ZM336.198 165.251H332.501V169.796H336.198V165.251ZM344.214 173.135H339.142V179.37H344.214V173.135ZM345.98 188.703H351.051V182.468H345.98V188.703ZM352.262 198.598H357.333V192.363H352.262V198.598ZM357.955 209.017H363.026V202.782H357.955V209.017ZM363.058 219.878H368.13V213.643H363.058V219.878ZM367.541 231.141H372.612V224.906H367.541V231.141ZM371.369 242.767H376.44V236.532H371.369V242.767ZM374.509 254.714H379.58V248.479H374.509V254.714ZM376.963 266.902H382.034V260.667H376.963V266.902ZM378.73 279.252H383.801V273.017H378.73V279.252ZM379.809 291.722H384.881V285.487H379.809V291.722ZM393.354 298.037H388.283V304.272H393.354V298.037ZM393.027 310.588H387.956V316.823H393.027V310.588ZM392.013 323.058H386.942V329.293H392.013V323.058ZM390.344 335.448H385.273V341.683H390.344V335.448ZM387.989 347.676H382.918V353.911H387.989V347.676ZM384.979 359.664H379.908V365.899H384.979V359.664ZM381.347 371.41H376.276V377.645H381.347V371.41ZM372.023 389.029H377.094V382.794H372.023V389.029ZM367.344 399.85H372.056V394.057H367.344V399.85ZM362.175 410.148H366.363V404.999H362.175V410.148ZM356.286 420.164H360.278V415.256H356.286V420.164ZM349.579 430.06H353.93V424.709H349.579V430.06ZM343.756 437.662H345.686V435.289H343.756V437.662ZM335.445 447.156H338.979V442.811H335.445V447.156ZM327.201 455.402H331.356V450.293H327.201V455.402ZM319.283 462.08H322.522V458.097H319.283V462.08ZM314.638 463.568H309.73V469.602H314.638V463.568ZM305.673 469.24H300.602V475.475H305.673V469.24ZM296.316 474.268H291.245V480.503H296.316V474.268ZM286.73 478.532H281.659V484.767H286.73V478.532ZM276.915 482.032H271.844V488.267H276.915V482.032ZM266.936 484.727H261.865V490.962H266.936V484.727ZM256.86 486.577H251.789V492.812H256.86V486.577ZM246.685 487.623H241.614V493.858H246.685V487.623ZM236.477 487.824H231.406V494.059H236.477V487.824ZM226.269 487.221H221.198V493.456H226.269V487.221ZM216.127 485.773H211.056V492.008H216.127V485.773ZM206.083 483.52H201.012V489.755H206.083V483.52ZM196.203 480.423H191.132V486.658H196.203V480.423ZM186.486 476.561H181.415V482.796H186.486V476.561ZM176.998 471.895H171.927V478.13H176.998V471.895ZM167.805 466.464H162.733V472.699H167.805V466.464ZM158.906 460.31H153.834V466.545H158.906V460.31ZM150.366 453.431H145.295V459.666H150.366V453.431ZM142.22 445.868H137.149V452.104H142.22V445.868ZM134.499 437.662H129.428V443.897H134.499V437.662ZM127.236 428.853H122.165V435.088H127.236V428.853ZM120.463 419.48H115.392V425.715H120.463V419.48ZM114.182 409.584H109.111V415.82H114.182V409.584ZM103.385 405.441H108.456V399.206H103.385V405.441ZM103.287 388.385H98.2159V394.62H103.287V388.385ZM97.8233 378.288H94.5843V382.271H97.8233V378.288ZM83.8859 347.636H88.6626V341.763H83.8859V347.636ZM86.7977 329.293H81.7266V335.528H86.7977V329.293ZM85.4563 316.863H80.3852V323.098H85.4563V316.863ZM84.7693 304.353H79.6982V310.588H84.7693V304.353ZM84.7693 291.802H79.6982V298.037H84.7693V291.802ZM85.4563 279.292H80.3852V285.527H85.4563V279.292ZM86.7977 266.862H81.7266V273.097H86.7977V266.862ZM88.8261 254.553H83.755V260.788H88.8261V254.553ZM91.5089 242.445H86.4378V248.68H91.5089V242.445ZM94.8133 230.578H89.7422V236.813H94.8133V230.578ZM93.7009 225.228H98.7721V218.993H93.7009V225.228ZM98.2486 214.005H103.32V207.77H98.2486V214.005ZM103.385 203.184H108.456V196.949H103.385V203.184ZM109.111 192.806H114.182V186.571H109.111V192.806ZM120.431 176.675H115.359V182.91H120.431V176.675ZM122.165 173.537H127.236V167.302H122.165V173.537ZM129.428 164.728H134.499V158.493H129.428V164.728ZM137.149 156.522H142.22V150.287H137.149V156.522ZM145.295 148.959H150.366V142.724H145.295V148.959ZM153.834 142.081H158.906V135.846H153.834V142.081ZM162.733 135.926H167.805V129.691H162.733V135.926ZM171.927 130.495H176.998V124.26H171.927V130.495ZM181.415 125.829H186.486V119.594H181.415V125.829ZM191.132 121.968H196.203V115.732H191.132V121.968ZM201.012 118.87H206.083V112.635H201.012V118.87ZM211.056 116.617H216.127V110.382H211.056V116.617ZM221.198 115.169H226.269V108.934H221.198V115.169ZM231.406 114.566H236.477V108.331H231.406V114.566ZM241.614 114.767H246.685V108.532H241.614V114.767ZM251.789 115.813H256.86V109.578H251.789V115.813ZM262.749 116.577H266.053V112.514H262.749V116.577ZM346.602 163.561H342.807V168.228H346.602V163.561ZM354.258 171.888H349.219V178.083H354.258V171.888ZM360.801 181.542H355.763V187.737H360.801V181.542ZM366.821 191.679H361.75V197.914H366.821V191.679ZM367.181 208.534H372.252V202.299H367.181V208.534ZM372.023 219.556H377.094V213.321H372.023V219.556ZM376.276 230.98H381.347V224.745H376.276V230.98ZM384.979 236.491H379.908V242.726H384.979V236.491ZM387.989 248.479H382.918V254.714H387.989V248.479ZM390.344 260.708H385.273V266.943H390.344V260.708ZM392.013 273.097H386.942V279.332H392.013V273.097ZM387.956 291.802H393.027V285.567H387.956V291.802ZM401.468 298.118H396.397V304.353H401.468V298.118ZM401.141 310.668H396.07V316.903H401.141V310.668ZM400.192 323.179H395.121V329.414H400.192V323.179ZM398.589 335.568H393.518V341.803H398.589V335.568ZM396.364 347.797H391.293V354.032H396.364V347.797ZM388.447 366.06H393.518V359.825H388.447V366.06ZM384.979 377.846H390.05V371.611H384.979V377.846ZM381.02 389.27H385.927V383.236H381.02V389.27ZM378.533 397.838H379.155V397.074H378.533V397.838ZM312.838 478.612H316.666V473.906H312.838V478.612ZM303.383 484.767H307.931V479.176H303.383V484.767ZM295.269 488.186H297.298V485.692H295.269V488.186ZM289.184 488.106H284.178V494.26H289.184V488.106ZM279.402 491.565H274.33V497.8H279.402V491.565ZM269.456 494.301H264.385V500.536H269.456V494.301ZM254.308 502.507H259.379V496.272H254.308V502.507ZM249.204 497.479H244.133V503.714H249.204V497.479ZM238.996 497.881H233.925V504.116H238.996V497.881ZM228.789 497.479H223.718V503.714H228.789V497.479ZM218.614 496.312H213.543V502.547H218.614V496.312ZM208.537 494.341H203.466V500.576H208.537V494.341ZM198.591 491.606H193.52V497.841H198.591V491.606ZM188.776 488.106H183.705V494.341H188.776V488.106ZM179.157 483.842H174.086V490.077H179.157V483.842ZM169.8 478.854H164.729V485.089H169.8V478.854ZM160.705 473.142H155.634V479.377H160.705V473.142ZM151.904 466.746H146.833V472.981H151.904V466.746ZM143.463 459.706H138.392V465.941H143.463V459.706ZM135.415 452.023H130.344V458.258H135.415V452.023ZM127.759 443.736H122.688V449.971H127.759V443.736ZM120.529 434.846H115.458V441.081H120.529V434.846ZM113.789 425.434H108.718V431.669H113.789V425.434ZM102.469 421.733H107.54V415.498H102.469V421.733ZM96.9072 411.153H101.651V405.32H96.9072V411.153ZM93.1448 398.562H94.9769V396.31H93.1448V398.562ZM89.3496 386.374H89.5459V386.133H89.3496V386.374ZM76.6228 353.911H81.563V347.837H76.6228V353.911ZM79.4037 335.528H74.3326V341.763H79.4037V335.528ZM77.8006 323.138H72.7295V329.374H77.8006V323.138ZM76.8518 310.628H71.7807V316.863H76.8518V310.628ZM76.5246 298.078H71.4535V304.313H76.5246V298.078ZM71.7807 291.762H76.8518V285.527H71.7807V291.762ZM77.8006 273.057H72.7295V279.292H77.8006V273.057ZM79.4037 260.667H74.3326V266.902H79.4037V260.667ZM81.6284 248.439H76.5573V254.674H81.6284V248.439ZM84.4748 236.371H79.4037V242.606H84.4748V236.371ZM87.9428 224.584H82.8717V230.819H87.9428V224.584ZM86.9286 219.315H91.9997V213.08H86.9286V219.315ZM91.5744 208.132H96.6455V201.897H91.5744V208.132ZM96.7763 197.311H101.847V191.076H96.7763V197.311ZM107.573 180.698H102.502V186.933H107.573V180.698ZM113.822 170.802H108.751V177.037H113.822V170.802ZM120.561 161.389H115.49V167.624H120.561V161.389ZM122.721 158.734H127.792V152.499H122.721V158.734ZM135.448 144.213H130.376V150.448H135.448V144.213ZM143.496 136.529H138.425V142.764H143.496V136.529ZM146.866 135.685H151.937V129.45H146.866V135.685ZM155.667 129.289H160.738V123.054H155.667V129.289ZM164.762 123.577H169.833V117.342H164.762V123.577ZM174.119 118.589H179.19V112.353H174.119V118.589ZM183.738 114.325H188.809V108.09H183.738V114.325ZM193.553 110.825H198.624V104.59H193.553V110.825ZM203.499 108.09H208.57V101.854H203.499V108.09ZM213.575 106.118H218.646V99.8834H213.575V106.118ZM223.75 104.952H228.821V98.7168H223.75V104.952ZM233.958 104.55H239.029V98.3146H233.958V104.55ZM244.166 104.952H249.237V98.7168H244.166V104.952ZM254.34 106.118H259.412V99.8834H254.34V106.118ZM265.137 107.164H268.736V102.739H265.137V107.164ZM355.141 164.165H354.716V164.688H355.141V164.165ZM361.717 173.779H361.619V173.899H361.717V173.779ZM369.635 181.623H366.199V185.847H369.635V181.623ZM376.178 190.996H371.107V197.231H376.178V190.996ZM381.38 201.816H376.309V208.051H381.38V201.816ZM380.955 219.234H386.026V212.999H380.955V219.234ZM385.011 230.739H390.083V224.504H385.011V230.739ZM388.479 242.525H393.551V236.29H388.479V242.525ZM396.397 248.358H391.326V254.593H396.397V248.358ZM398.622 260.587H393.551V266.822H398.622V260.587ZM400.225 272.976H395.154V279.212H400.225V272.976ZM396.135 291.682H401.206V285.447H396.135V291.682ZM409.647 297.997H404.576V304.232H409.647V297.997ZM409.353 310.548H404.282V316.783H409.353V310.548ZM408.437 323.058H403.366V329.293H408.437V323.058ZM406.899 335.448H401.828V341.683H406.899V335.448ZM404.772 347.717H399.701V353.952H404.772V347.717ZM396.986 366.06H402.057V359.825H396.986V366.06ZM393.681 377.926H398.752V371.691H393.681V377.926ZM391.195 387.862H393.518V385.006H391.195V387.862ZM288.726 501.26H289.773V499.973H288.726V501.26ZM278.518 505.282H280.35V503.03H278.518V505.282ZM268.016 508.742H270.993V505.081H268.016V508.742ZM261.964 505.846H256.892V512.081H261.964V505.846ZM251.821 507.173H246.75V513.408H251.821V507.173ZM241.614 507.736H236.543V513.971H241.614V507.736ZM231.406 507.535H226.335V513.77H231.406V507.535ZM221.231 506.61H216.16V512.845H221.231V506.61ZM211.122 504.92H206.05V511.155H211.122V504.92ZM201.11 502.507H196.039V508.742H201.11V502.507ZM191.23 499.369H186.159V505.604H191.23V499.369ZM181.513 495.507H176.442V501.743H181.513V495.507ZM172.025 490.922H166.954V497.157H172.025V490.922ZM162.766 485.652H157.695V491.887H162.766V485.652ZM153.769 479.699H148.698V485.934H153.769V479.699ZM145.099 473.102H140.028V479.337H145.099V473.102ZM136.756 465.861H131.685V472.096H136.756V465.861ZM128.773 458.017H123.702V464.252H128.773V458.017ZM121.183 449.609H116.112V455.844H121.183V449.609ZM114.018 440.679H108.947V446.914H114.018V440.679ZM102.24 437.421H107.278V431.226H102.24V437.421ZM96.6455 426.721H100.408V422.095H96.6455V426.721ZM92.7194 414.13H92.8503V413.969H92.7194V414.13ZM69.9813 359.543H74.2344V354.314H69.9813V359.543ZM72.2387 341.602H67.1676V347.837H72.2387V341.602ZM70.4066 329.253H65.3355V335.488H70.4066V329.253ZM69.1961 316.783H64.1249V323.018H69.1961V316.783ZM68.5744 304.272H63.5033V310.507H68.5744V304.272ZM63.5033 297.957H68.5744V291.722H63.5033V297.957ZM69.1633 279.212H64.0922V285.447H69.1633V279.212ZM70.3739 266.741H65.3027V272.976H70.3739V266.741ZM72.206 254.392H67.1349V260.627H72.206V254.392ZM74.627 242.203H69.5559V248.439H74.627V242.203ZM77.637 230.216H72.5659V236.451H77.637V230.216ZM81.2358 218.47H76.1647V224.705H81.2358V218.47ZM80.3198 213.241H85.3909V207.006H80.3198V213.241ZM85.031 202.098H90.1021V195.863H85.031V202.098ZM90.2657 191.317H95.3368V185.082H90.2657V191.317ZM96.0238 180.939H101.095V174.704H96.0238V180.939ZM107.344 164.768H102.273V171.003H107.344V164.768ZM114.051 155.315H108.98V161.55H114.051V155.315ZM121.216 146.385H116.145V152.62H121.216V146.385ZM123.735 144.213H128.806V137.978H123.735V144.213ZM131.718 136.409H136.789V130.174H131.718V136.409ZM140.061 129.168H145.132V122.933H140.061V129.168ZM148.731 122.571H153.802V116.336H148.731V122.571ZM162.766 110.382H157.695V116.617H162.766V110.382ZM166.954 111.348H172.025V105.113H166.954V111.348ZM176.442 106.762H181.513V100.527H176.442V106.762ZM186.159 102.9H191.23V96.6653H186.159V102.9ZM196.039 99.7627H201.11V93.5276H196.039V99.7627ZM206.05 97.3491H211.122V91.1141H206.05V97.3491ZM216.16 95.6596H221.231V89.4246H216.16V95.6596ZM226.335 94.7344H231.406V88.4994H226.335V94.7344ZM236.543 94.5333H241.614V88.2982H236.543V94.5333ZM246.75 95.0965H251.821V88.8614H246.75V95.0965ZM256.892 96.4239H261.964V90.1889H256.892V96.4239ZM267.002 98.4352H272.008V92.2806H267.002V98.4352ZM279.5 98.1134H279.402V98.2341H279.5V98.1134ZM378.337 181.945H376.57V184.117H378.337V181.945ZM385.502 190.473H380.431V196.708H385.502V190.473ZM385.404 207.649H390.475V201.414H385.404V207.649ZM389.821 218.953H394.892V212.718H389.821V218.953ZM393.681 230.578H398.752V224.343H393.681V230.578ZM402.057 236.21H396.986V242.445H402.057V236.21ZM404.772 248.318H399.701V254.553H404.772V248.318ZM401.828 266.822H406.899V260.587H401.828V266.822ZM403.333 279.212H408.404V272.976H403.333V279.212ZM404.249 291.722H409.32V285.487H404.249V291.722ZM412.69 304.272H417.761V298.037H412.69V304.272ZM412.395 316.823H417.466V310.588H412.395V316.823ZM411.512 329.333H416.583V323.098H411.512V329.333ZM410.858 340.758H414.293V336.534H410.858V340.758ZM408.895 352.946H412.166V348.923H408.895V352.946ZM406.016 365.416H409.843V360.71H406.016V365.416ZM403.366 376.72H406.179V373.26H403.366V376.72ZM401.01 386.776H401.141V386.615H401.01V386.776ZM264.319 515.701H259.51V521.614H264.319V515.701ZM254.308 516.988H249.237V523.223H254.308V516.988ZM244.133 517.712H239.062V523.947H244.133V517.712ZM233.925 517.712H228.854V523.947H233.925V517.712ZM223.75 516.988H218.679V523.223H223.75V516.988ZM213.608 515.54H208.537V521.775H213.608V515.54ZM203.564 513.408H198.493V519.643H203.564V513.408ZM193.618 510.552H188.547V516.787H193.618V510.552ZM183.836 507.012H178.765V513.247H183.836V507.012ZM174.217 502.788H169.146V509.023H174.217V502.788ZM164.827 497.921H159.756V504.156H164.827V497.921ZM155.667 492.37H150.595V498.605H155.667V492.37ZM146.768 486.215H141.697V492.45H146.768V486.215ZM138.196 479.417H133.125V485.652H138.196V479.417ZM129.951 472.056H124.88V478.291H129.951V472.056ZM122.034 464.131H116.963V470.366H122.034V464.131ZM114.509 455.643H109.438V461.878H114.509V455.643ZM106.461 447.799H103.287V451.701H106.461V447.799ZM97.9868 440.518H98.3794V440.036H97.9868V440.518ZM63.7323 364.732H66.4151V361.434H63.7323V364.732ZM65.0083 347.837H59.9372V354.072H65.0083V347.837ZM62.9799 335.528H57.9088V341.763H62.9799V335.528ZM61.5403 323.098H56.4692V329.333H61.5403V323.098ZM60.657 310.588H55.5859V316.823H60.657V310.588ZM60.3625 298.037H55.2914V304.272H60.3625V298.037ZM55.5859 291.722H60.657V285.487H55.5859V291.722ZM61.5076 272.976H56.4365V279.212H61.5076V272.976ZM62.9471 260.547H57.876V266.782H62.9471V260.547ZM63.536 250.048H61.3767V252.702H63.536V250.048ZM67.233 236.532H62.849V241.922H67.233V236.532ZM70.7337 224.182H65.6626V230.417H70.7337V224.182ZM74.4307 212.476H69.3596V218.711H74.4307V212.476ZM73.6128 207.287H78.6839V201.052H73.6128V207.287ZM78.3895 196.185H83.4606V189.95H78.3895V196.185ZM83.6569 185.444H88.728V179.209H83.6569V185.444ZM89.415 175.066H94.4861V168.831H89.415V175.066ZM100.702 158.895H95.6312V165.13H100.702V158.895ZM107.377 149.402H102.305V155.637H107.377V149.402ZM109.438 146.626H114.509V140.391H109.438V146.626ZM122.034 131.903H116.963V138.138H122.034V131.903ZM124.88 130.174H129.951V123.939H124.88V130.174ZM133.125 122.812H138.196V116.577H133.125V122.812ZM141.697 116.014H146.768V109.779H141.697V116.014ZM150.595 109.859H155.667V103.624H150.595V109.859ZM159.756 104.308H164.827V98.0732H159.756V104.308ZM169.146 99.4409H174.217V93.2058H169.146V99.4409ZM178.765 95.2171H183.836V88.9821H178.765V95.2171ZM188.547 91.6772H193.618V85.4422H188.547V91.6772ZM198.493 88.8212H203.564V82.5862H198.493V88.8212ZM208.537 86.6892H213.608V80.4541H208.537V86.6892ZM218.679 85.2411H223.75V79.006H218.679V85.2411ZM228.854 84.517H233.925V78.282H228.854V84.517ZM239.062 84.517H244.133V78.282H239.062V84.517ZM254.308 79.006H249.237V85.2411H254.308V79.006ZM259.412 86.649H264.45V80.4541H259.412V86.649ZM269.816 88.3385H274.134V83.0286H269.816V88.3385ZM281.986 88.4189H281.855V88.5798H281.986V88.4189ZM386.942 182.065H386.68V182.387H386.942V182.065ZM394.107 190.513H390.083V195.461H394.107V190.513ZM399.407 200.972H394.336V207.207H399.407V200.972ZM398.589 218.631H403.66V212.396H398.589V218.631ZM402.286 230.337H407.357V224.102H402.286V230.337ZM410.498 236.049H405.427V242.284H410.498V236.049ZM413.082 248.197H408.011V254.432H413.082V248.197ZM415.111 260.506H410.04V266.741H415.111V260.506ZM416.55 272.936H411.479V279.171H416.55V272.936ZM417.434 285.447H412.363V291.682H417.434V285.447ZM420.771 304.232H425.842V297.997H420.771V304.232ZM420.509 316.783H425.58V310.548H420.509V316.783ZM419.659 329.293H424.73V323.058H419.659V329.293ZM420.182 339.39H421.425V337.861H420.182V339.39ZM262.422 530.746H266.478V525.758H262.422V530.746ZM256.86 526.683H251.789V532.918H256.86V526.683ZM246.685 527.528H241.614V533.763H246.685V527.528ZM236.477 527.688H231.406V533.923H236.477V527.688ZM226.269 527.165H221.198V533.4H226.269V527.165ZM216.095 525.959H211.023V532.194H216.095V525.959ZM206.018 524.068H200.947V530.303H206.018V524.068ZM196.039 521.534H190.968V527.769H196.039V521.534ZM186.191 518.316H181.12V524.551H186.191V518.316ZM176.474 514.454H171.403V520.689H176.474V514.454ZM166.954 509.949H161.883V516.184H166.954V509.949ZM157.662 504.8H152.591V511.035H157.662V504.8ZM148.6 499.007H143.529V505.242H148.6V499.007ZM139.799 492.651H134.728V498.886H139.799V492.651ZM131.293 485.692H126.221V491.927H131.293V485.692ZM123.113 478.17H118.042V484.405H123.113V478.17ZM115.294 470.125H110.223V476.36H115.294V470.125ZM106.264 463.487H104.334V465.861H106.264V463.487ZM57.8106 369.399H58.2686V368.835H57.8106V369.399ZM57.8106 353.911H52.7395V360.146H57.8106V353.911ZM55.5859 341.642H50.5148V347.878H55.5859V341.642ZM53.9173 329.253H48.8462V335.488H53.9173V329.253ZM52.8049 316.783H47.7338V323.018H52.8049V316.783ZM52.2487 304.272H47.1776V310.507H52.2487V304.272ZM47.2431 297.876H52.216V291.762H47.2431V297.876ZM52.8049 279.171H47.7338V285.406H52.8049V279.171ZM53.9173 266.701H48.8462V272.936H53.9173V266.701ZM55.5859 254.312H50.5148V260.547H55.5859V254.312ZM55.3568 245.261V245.06H55.1933V245.261H55.3568ZM58.6285 233.836V232.348H57.418V233.836H58.6285ZM63.7651 218.188H58.8248V224.263H63.7651V218.188ZM62.5873 212.677H67.6584V206.442H62.5873V212.677ZM66.9059 201.293H71.977V195.058H66.9059V201.293ZM71.7152 190.231H76.7864V183.996H71.7152V190.231ZM77.0154 179.491H82.0865V173.256H77.0154V179.491ZM87.8446 162.918H82.7735V169.153H87.8446V162.918ZM94.0608 152.982H88.9897V159.217H94.0608V152.982ZM100.702 143.448H95.6312V149.683H100.702V143.448ZM107.769 134.397H102.698V140.632H107.769V134.397ZM115.196 125.869H110.157V132.064H115.196V125.869ZM117.977 124.019H123.048V117.784H117.977V124.019ZM126.156 116.497H131.227V110.262H126.156V116.497ZM134.662 109.538H139.733V103.303H134.662V109.538ZM143.463 103.182H148.534V96.9469H143.463V103.182ZM157.597 91.1945H152.526V97.4296H157.597V91.1945ZM161.85 92.2806H166.921V86.0456H161.85V92.2806ZM171.371 87.7753H176.442V81.5403H171.371V87.7753ZM181.088 83.9136H186.159V77.6786H181.088V83.9136ZM190.968 80.6955H196.039V74.4605H190.968V80.6955ZM200.947 78.1613H206.018V71.9262H200.947V78.1613ZM211.023 76.2706H216.095V70.0356H211.023V76.2706ZM221.198 75.0638H226.269V68.8288H221.198V75.0638ZM231.406 74.5409H236.477V68.3059H231.406V74.5409ZM241.614 74.7018H246.685V68.4668H241.614V74.7018ZM251.919 75.3857H256.729V69.4724H251.919V75.3857ZM265.268 72.9319H263.599V74.9834H265.268V72.9319ZM403.366 189.909H398.949V195.34H403.366V189.909ZM403.202 206.965H408.273V200.73H403.202V206.965ZM407.259 218.47H412.33V212.235H407.259V218.47ZM410.792 230.216H415.863V223.981H410.792V230.216ZM413.802 242.203H418.873V235.968H413.802V242.203ZM421.36 248.157H416.289V254.392H421.36V248.157ZM423.29 260.466H418.219V266.701H423.29V260.466ZM424.664 272.896H419.593V279.131H424.664V272.896ZM425.515 285.406H420.444V291.641H425.515V285.406ZM428.852 304.192H433.923V297.957H428.852V304.192ZM428.59 316.742H433.661V310.507H428.59V316.742ZM428.132 328.81H432.484V323.46H428.132V328.81ZM428.95 338.626H429.048V338.505H428.95V338.626ZM265.235 539.917H268.67V535.693H265.235V539.917ZM259.379 536.337H254.308V542.572H259.379V536.337ZM249.204 537.302H244.133V543.537H249.204V537.302ZM238.996 537.624H233.925V543.859H238.996V537.624ZM228.789 537.302H223.718V543.537H228.789V537.302ZM218.614 536.337H213.543V542.572H218.614V536.337ZM208.504 534.688H203.433V540.923H208.504V534.688ZM198.46 532.395H193.389V538.63H198.46V532.395ZM188.547 529.458H183.476V535.693H188.547V529.458ZM178.765 525.878H173.694V532.113H178.765V525.878ZM169.146 521.695H164.075V527.93H169.146V521.695ZM159.723 516.908H154.652V523.143H159.723V516.908ZM150.497 511.517H145.426V517.753H150.497V511.517ZM141.533 505.524H136.462V511.759H141.533V505.524ZM132.83 498.967H127.759V505.202H132.83V498.967ZM124.422 491.847H119.351V498.082H124.422V491.847ZM116.308 484.244H111.303V490.399H116.308V484.244ZM105.217 480.221H106.919V478.13H105.217V480.221ZM47.4394 364.008H48.9443V362.158H47.4394V364.008ZM48.3227 347.757H43.2516V353.992H48.3227V347.757ZM46.4579 335.407H41.3868V341.642H46.4579V335.407ZM45.1165 322.978H40.0454V329.213H45.1165V322.978ZM44.3313 310.467H39.2602V316.702H44.3313V310.467ZM43.088 302.945V299.164H40.0127V302.945H43.088ZM44.3313 285.406H39.2602V291.641H44.3313V285.406ZM45.1165 272.896H40.0454V279.131H45.1165V272.896ZM46.4579 260.466H41.3868V266.701H46.4579V260.466ZM46.327 250.57H45.2473V251.898H46.327V250.57ZM56.8618 212.235H52.0852V218.108H56.8618V212.235ZM55.8476 206.684H60.9187V200.449H55.8476V206.684ZM60.2316 195.34H65.3027V189.105H60.2316V195.34ZM65.1065 184.318H70.1776V178.083H65.1065V184.318ZM75.5104 167.383H70.4393V173.618H75.5104V167.383ZM81.3013 157.045H76.2302V163.28H81.3013V157.045ZM85.5545 149.482H84.4094V150.89H85.5545V149.482ZM92.1633 139.989H91.0836V141.316H92.1633V139.989ZM99.8517 130.053H97.4307V133.03H99.8517V130.053ZM106.526 122.289H105.544V123.496H106.526V122.289ZM112.84 115.934H114.738V113.6H112.84V115.934ZM119.678 109.859H124.095V104.429H119.678V109.859ZM132.83 96.9066H127.759V103.142H132.83V96.9066ZM136.462 96.5848H141.533V90.3498H136.462V96.5848ZM145.426 90.5911H150.497V84.3561H145.426V90.5911ZM154.652 85.2008H159.723V78.9658H154.652V85.2008ZM164.075 80.4139H169.146V74.1789H164.075V80.4139ZM173.694 76.2304H178.765V69.9954H173.694V76.2304ZM183.476 72.6503H188.547V66.4152H183.476V72.6503ZM193.389 69.7138H198.46V63.4787H193.389V69.7138ZM203.433 67.4209H208.504V61.1858H203.433V67.4209ZM213.543 65.7716H218.614V59.5366H213.543V65.7716ZM223.718 64.8062H228.789V58.5711H223.718V64.8062ZM234.056 64.2832H238.833V58.4102H234.056V64.2832ZM245.769 62.7547H247.568V60.5422H245.769V62.7547ZM411.447 190.634H408.862V193.811H411.447V190.634ZM417.074 200.449H412.003V206.684H417.074V200.449ZM415.929 218.269H421V212.034H415.929V218.269ZM424.402 223.86H419.331V230.095H424.402V223.86ZM427.282 235.928H422.276V242.083H427.282V235.928ZM429.67 248.117H424.631V254.312H429.67V248.117ZM431.535 260.426H426.464V266.661H431.535V260.426ZM432.876 272.856H427.805V279.091H432.876V272.856ZM428.623 291.601H433.694V285.366H428.623V291.601ZM436.998 304.152H442.07V297.917H436.998V304.152ZM436.737 316.702H441.808V310.467H436.737V316.702ZM436.41 328.649H440.597V323.5H436.41V328.649ZM269.946 546.796H268.998V547.962H269.946V546.796ZM256.827 552.226H261.898V545.991H256.827V552.226ZM251.723 547.118H246.652V553.353H251.723V547.118ZM241.516 547.6H236.444V553.835H241.516V547.6ZM231.308 547.439H226.237V553.674H231.308V547.439ZM221.133 546.635H216.062V552.87H221.133V546.635ZM210.991 545.227H205.92V551.462H210.991V545.227ZM200.914 543.175H195.843V549.41H200.914V543.175ZM190.935 540.521H185.864V546.756H190.935V540.521ZM181.088 537.262H176.016V543.497H181.088V537.262ZM171.371 533.4H166.3V539.636H171.371V533.4ZM161.817 528.935H156.746V535.17H161.817V528.935ZM152.493 523.867H147.422V530.102H152.493V523.867ZM143.365 518.235H138.294V524.47H143.365V518.235ZM134.499 512.04H129.428V518.275H134.499V512.04ZM125.894 505.323H120.823V511.558H125.894V505.323ZM116.832 498.967H113.233V503.392H116.832V498.967ZM106.886 493.577H107.115V493.295H106.886V493.577ZM38.2132 357.572H38.475V357.25H38.2132V357.572ZM34.549 347.274H38.0497V342.97H34.549V347.274ZM37.2972 329.615H32.2261V335.85H37.2972V329.615ZM36.2829 317.145H31.2118V323.38H36.2829V317.145ZM34.9416 309.824V305.6H31.5063V309.824H34.9416ZM35.7595 292.044H30.6884V298.279H35.7595V292.044ZM31.2118 285.728H36.2829V279.493H31.2118V285.728ZM37.2972 267.023H32.2261V273.258H37.2972V267.023ZM38.2787 255.277H34.2872V260.185H38.2787V255.277ZM49.2715 207.247H45.5745V211.793H49.2715V207.247ZM48.9443 201.012H53.8846V194.938H48.9443V201.012ZM53.3284 189.789H58.3995V183.554H53.3284V189.789ZM58.2359 178.807H63.307V172.572H58.2359V178.807ZM68.6726 161.912H63.6015V168.147H68.6726V161.912ZM73.3184 152.982H70.5047V156.441H73.3184V152.982ZM122.165 95.2171H124.029V92.9243H122.165V95.2171ZM130.736 88.5396H132.667V86.1663H130.736V88.5396ZM138.065 84.2756H143.136V78.0406H138.065V84.2756ZM147.193 78.644H152.264V72.4089H147.193V78.644ZM156.55 73.5755H161.621V67.3404H156.55V73.5755ZM166.071 69.1104H171.142V62.8753H166.071V69.1104ZM175.787 65.2487H180.859V59.0136H175.787V65.2487ZM185.635 61.9904H190.706V55.7553H185.635V61.9904ZM195.614 59.3354H200.685V53.1004H195.614V59.3354ZM205.691 57.2839H210.762V51.0489H205.691V57.2839ZM215.833 55.876H220.904V49.6409H215.833V55.876ZM226.008 55.0715H231.079V48.8364H226.008V55.0715ZM238.309 52.3361H239.193V51.25H238.309V52.3361ZM417.172 190.231V194.375H420.542V190.231H417.172ZM420.542 206.845H425.613V200.61H420.542V206.845ZM424.304 218.51H429.375V212.275H424.304V218.51ZM432.647 224.182H427.576V230.417H432.647V224.182ZM433.759 238.342H432.058V240.434H433.759V238.342ZM436.933 249.484H433.465V253.748H436.933V249.484ZM439.387 261.029H434.577V266.943H439.387V261.029ZM440.695 273.459H435.821V279.453H440.695V273.459ZM436.508 292.084H441.579V285.849H436.508V292.084ZM446.126 303.106H448.744V299.888H446.126V303.106ZM444.85 316.903H449.496V311.191H444.85V316.903ZM445.145 328.167H447.73V324.989H445.145V328.167ZM271.19 558.22H272.4V556.732H271.19V558.22ZM259.15 562.404H264.221V556.169H259.15V562.404ZM254.046 557.375H248.975V563.61H254.046V557.375ZM243.838 557.979H238.767V564.214H243.838V557.979ZM233.631 557.979H228.56V564.214H233.631V557.979ZM223.423 557.375H218.352V563.61H223.423V557.375ZM213.281 556.169H208.21V562.404H213.281V556.169ZM203.171 554.358H198.1V560.593H203.171V554.358ZM193.16 551.945H188.089V558.18H193.16V551.945ZM183.247 548.928H178.176V555.163H183.247V548.928ZM173.465 545.348H168.393V551.583H173.465V545.348ZM163.846 541.164H158.775V547.399H163.846V541.164ZM154.391 536.417H149.32V542.653H154.391V536.417ZM145.132 531.148H140.061V537.383H145.132V531.148ZM136.102 525.315H131.031V531.55H136.102V525.315ZM127.105 519.201H122.459V524.913H127.105V519.201ZM115.523 516.103H116.995V514.293H115.523V516.103ZM27.0241 339.229H27.5148V338.626H27.0241V339.229ZM23.687 329.374H28.3655V323.621H23.687V329.374ZM27.8093 310.869H22.7709V317.064H27.8093V310.869ZM26.1407 302.744V300.089H23.9814V302.744H26.1407ZM27.842 285.768H22.7709V292.003H27.842V285.768ZM23.5234 279.493H28.5945V273.258H23.5234V279.493ZM24.7666 267.023H29.8377V260.788H24.7666V267.023ZM29.7396 250.651H28.3V252.421H29.7396V250.651ZM40.6343 203.425V203.546H40.7324V203.425H40.6343ZM46.0653 190.352H43.4152V193.61H46.0653V190.352ZM46.7196 183.835H51.7907V177.6H46.7196V183.835ZM51.6926 172.854H56.7637V166.619H51.6926V172.854ZM62.1292 155.959H57.0581V162.194H62.1292V155.959ZM66.2515 147.712H64.5503V149.804H66.2515V147.712ZM133.452 74.2191V74.6616H133.812V74.2191H133.452ZM144.15 66.7773H141.14V70.4781H144.15V66.7773ZM149.385 66.4555H154.456V60.2204H149.385V66.4555ZM158.84 61.7088H163.911V55.4737H158.84V61.7088ZM168.459 57.5253H173.53V51.2902H168.459V57.5253ZM178.241 53.9451H183.312V47.7101H178.241V53.9451ZM188.154 50.9282H193.225V44.6931H188.154V50.9282ZM203.237 42.2796H198.166V48.5146H203.237V42.2796ZM208.275 46.7044H213.346V40.4694H208.275V46.7044ZM218.417 45.4976H223.489V39.2626H218.417V45.4976ZM228.756 44.7334H233.533V38.8603H228.756V44.7334ZM419.528 168.228H417.074V171.245H419.528V168.228ZM421.262 183.151H425.286V178.204H421.262V183.151ZM425.253 195.058H430.324V188.823H425.253V195.058ZM432.189 203.868V203.063H431.535V203.868H432.189ZM433.89 217.143H437.064V213.241H433.89V217.143ZM440.859 224.383H436.442V229.814H440.859V224.383ZM443.215 251.858H443.836V251.093H443.215V251.858ZM445.309 263.885V263.765H445.21V263.885H445.309ZM446.355 276.114V276.476H446.65V276.114H446.355ZM445.865 290.475H448.613V287.096H445.865V290.475ZM455.32 313.927H455.385V313.846H455.32V313.927ZM454.567 326.477H454.698V326.316H454.567V326.477ZM274.134 567.15H274.592V566.587H274.134V567.15ZM266.806 565.662H261.734V571.897H266.806V565.662ZM256.663 566.989H251.592V573.224H256.663V566.989ZM246.488 567.713H241.417V573.948H246.488V567.713ZM236.281 567.874H231.21V574.109H236.281V567.874ZM226.073 567.432H221.002V573.667H226.073V567.432ZM215.898 566.426H210.827V572.661H215.898V566.426ZM205.789 564.817H200.718V571.052H205.789V564.817ZM195.745 562.645H190.674V568.88H195.745V562.645ZM185.799 559.909H180.728V566.145H185.799V559.909ZM175.951 556.611H170.88V562.846H175.951V556.611ZM166.234 552.749H161.163V558.984H166.234V552.749ZM156.681 548.324H151.61V554.559H156.681V548.324ZM147.324 543.336H142.253V549.571H147.324V543.336ZM138.163 537.825H133.092V544.06H138.163V537.825ZM125.796 536.015H127.563V533.843H125.796V536.015ZM16.1294 321.891H18.8449V318.553H16.1294V321.891ZM15.3442 309.743H18.6813V305.64H15.3442V309.743ZM15.6386 293.452V296.831H18.3868V293.452H15.6386ZM14.9516 285.728H20.0227V279.493H14.9516V285.728ZM15.9004 273.218H20.9715V266.983H15.9004V273.218ZM17.3399 260.748H22.3456V254.593H17.3399V260.748ZM36.1521 188.341H39.9145V183.715H36.1521V188.341ZM45.1492 171.687H40.0781V177.922H45.1492V171.687ZM49.9259 161.027H45.3128V166.699H49.9259V161.027ZM54.9315 150.89H51.1037V155.597H54.9315V150.89ZM58.9557 142.724H58.6612V143.086H58.9557V142.724ZM144.15 57.0425H145.263V55.6749H144.15V57.0425ZM151.544 54.5083H156.615V48.2732H151.544V54.5083ZM161.098 50.0834H166.169V43.8484H161.098V50.0834ZM170.814 46.2217H175.886V39.9867H170.814V46.2217ZM180.662 42.9232H185.733V36.6881H180.662V42.9232ZM190.608 40.1878H195.679V33.9527H190.608V40.1878ZM200.652 38.0156H205.723V31.7805H200.652V38.0156ZM210.762 36.4065H215.833V30.1715H210.762V36.4065ZM220.937 35.4009H226.008V29.1658H220.937V35.4009ZM232.878 32.8264H234.481V30.8553H232.878V32.8264ZM243.806 32.1023H243.969V31.9012H243.806V32.1023ZM416.649 148.074H416.583V148.155H416.649V148.074ZM424.01 156.401H420.444V160.786H424.01V156.401ZM424.893 172.492H429.964V166.257H424.893V172.492ZM429.67 183.554H434.741V177.319H429.67V183.554ZM439.092 188.662H434.021V194.898H439.092V188.662ZM441.383 202.259H439.616V204.431H441.383V202.259ZM443.869 215.292H444.163V214.93H443.869V215.292ZM446.683 227.561H447.435V226.636H446.683V227.561ZM264.254 581.632H269.292V575.437H264.254V581.632ZM259.15 576.845H254.079V583.08H259.15V576.845ZM248.975 577.69H243.904V583.924H248.975V577.69ZM238.767 577.971H233.696V584.206H238.767V577.971ZM228.56 577.69H223.489V583.924H228.56V577.69ZM218.385 576.845H213.314V583.08H218.385V576.845ZM208.243 575.437H203.171V581.672H208.243V575.437ZM198.166 573.466H193.095V579.701H198.166V573.466ZM188.154 570.931H183.083V577.167H188.154V570.931ZM178.274 567.874H173.203V574.109H178.274V567.874ZM168.492 564.254H163.42V570.489H168.492V564.254ZM158.873 560.111H153.802V566.346H158.873V560.111ZM149.385 555.444H144.314V561.679H149.385V555.444ZM140.028 550.336H135.088V556.41H140.028V550.336ZM128.119 548.123H128.806V547.279H128.119V548.123ZM8.31007 289.751H9.74961V287.981H8.31007V289.751ZM7.1977 279.453H12.2361V273.258H7.1977V279.453ZM8.63724 266.621H13.0867V261.15H8.63724V266.621ZM12.9886 250.852H11.9416V252.139H12.9886V250.852ZM31.6044 179.772H31.0483V180.456H31.6044V179.772ZM36.8718 167.825H35.0724V170.038H36.8718V167.825ZM145.328 46.1815H148.338V42.4405H145.328V46.1815ZM153.834 42.6818H158.775V36.6077H153.834V42.6818ZM163.453 38.5787H168.459V32.4241H163.453V38.5787ZM173.203 34.9986H178.274V28.7636H173.203V34.9986ZM183.116 31.9414H188.187V25.7064H183.116V31.9414ZM193.127 29.4072H198.198V23.1721H193.127V29.4072ZM203.204 27.4361H208.275V21.201H203.204V27.4361ZM213.346 26.0282H218.417V19.7931H213.346V26.0282ZM223.587 25.103H228.527V19.0289H223.587V25.103ZM233.827 24.7812H238.702V18.7875H233.827V24.7812ZM244.722 24.218H248.19V19.954H244.722V24.218ZM427.674 145.419H424.468V149.362H427.674V145.419ZM434.021 154.913H428.95V161.148H434.021V154.913ZM434.316 171.647H438.7V166.257H434.316V171.647ZM443.64 177.037H438.634V183.192H443.64V177.037ZM447.893 188.421H442.822V194.656H447.893V188.421ZM447.272 205.517H451.067V200.851H447.272V205.517ZM455.254 227.28H455.647V226.797H455.254V227.28ZM268.703 588.872H269.816V587.505H268.703V588.872ZM261.669 586.579H256.598V592.815H261.669V586.579ZM251.494 587.545H246.423V593.78H251.494V587.545ZM241.286 587.947H236.215V594.182H241.286V587.947ZM231.079 587.826H226.008V594.062H231.079V587.826ZM220.871 587.143H215.8V593.378H220.871V587.143ZM210.729 585.936H205.658V592.171H210.729V585.936ZM200.619 584.166H195.548V590.401H200.619V584.166ZM190.575 581.873H185.504V588.108H190.575V581.873ZM180.63 579.057H175.558V585.292H180.63V579.057ZM170.782 575.718H165.711V581.953H170.782V575.718ZM161.065 571.857H155.994V578.092H161.065V571.857ZM151.512 567.472H146.44V573.707H151.512V567.472ZM142.056 562.645H137.116V568.719H142.056V562.645ZM1.14509 282.671H1.21052V282.591H1.14509V282.671ZM0 272.695H4.15504V267.586H0V272.695ZM4.0896 256.846H2.68278V258.576H4.0896V256.846ZM157.564 29.2865H159.691V26.6718H157.564V29.2865ZM165.809 27.1947H170.88V20.9597H165.809V27.1947ZM175.657 23.856H180.728V17.6209H175.657V23.856ZM185.602 21.0402H190.674V14.8051H185.602V21.0402ZM195.647 18.7473H200.718V12.5122H195.647V18.7473ZM205.756 16.9773H210.827V10.7423H205.756V16.9773ZM215.898 15.7705H220.969V9.53547H215.898V15.7705ZM226.106 15.0867H231.177V8.85162H226.106V15.0867ZM236.314 14.966H241.385V8.73095H236.314V14.966ZM250.414 10.5814H247.699V13.9201H250.414V10.5814ZM437.326 144.534H433.629V149.08H437.326V144.534ZM440.99 157.246H440.499V157.849H440.99V157.246ZM452.441 176.957H447.762V182.709H452.441V176.957ZM456.727 188.22H451.656V194.455H456.727V188.22ZM455.582 205.879H460.162V200.248H455.582V205.879ZM463.532 212.034H458.755V217.907H463.532V212.034ZM462.648 228.647H465.298V225.389H462.648V228.647ZM260.164 601.463H263.403V597.481H260.164V601.463ZM254.144 597.4H249.073V603.635H254.144V597.4ZM243.937 597.923H238.865V604.158H243.937V597.923ZM233.729 597.923H228.658V604.158H233.729V597.923ZM223.521 597.4H218.45V603.635H223.521V597.4ZM213.346 596.354H208.275V602.589H213.346V596.354ZM203.204 594.786H198.133V601.021H203.204V594.786ZM193.127 592.694H188.056V598.929H193.127V592.694ZM183.149 590.079H178.078V596.314H183.149V590.079ZM173.268 586.941H168.197V593.177H173.268V586.941ZM163.486 583.321H158.415V589.556H163.486V583.321ZM153.834 579.178H148.763V585.413H153.834V579.178ZM144.281 574.632H139.308V580.747H144.281V574.632ZM132.241 572.862H132.699V572.299H132.241V572.862ZM149.32 23.0917H153.246V18.2645H149.32V23.0917ZM158.382 19.6725H163.453V13.4374H158.382V19.6725ZM168.164 16.0521H173.236V9.81706H168.164V16.0521ZM178.045 12.9145H183.116V6.67942H178.045V12.9145ZM188.024 10.2998H193.095V4.06472H188.024V10.2998ZM198.1 8.20801H203.171V1.97296H198.1V8.20801ZM208.243 6.63919H213.314V0.404144H208.243V6.63919ZM218.417 5.59331H223.489V-0.641739H218.417V5.59331ZM228.625 5.07037H233.696V-1.16468H228.625V5.07037ZM239.062 4.78879H243.675V-0.883102H239.062V4.78879ZM251.527 2.41545V2.53613H251.625V2.41545H251.527ZM460.914 177.158H456.858V182.146H460.914V177.158ZM465.364 188.099H460.293V194.334H465.364V188.099ZM468.93 199.845H463.859V206.08H468.93V199.845ZM472.071 211.793H467V218.028H472.071V211.793ZM470.435 229.291H474.165V224.705H470.435V229.291ZM256.598 607.296H251.658V613.37H256.598V607.296ZM246.456 607.859H241.385V614.094H246.456V607.859ZM236.248 607.98H231.177V614.215H236.248V607.98ZM226.04 607.618H220.969V613.853H226.04V607.618ZM215.866 606.733H210.794V612.968H215.866V606.733ZM205.723 605.325H200.652V611.56H205.723V605.325ZM195.647 603.434H190.575V609.669H195.647V603.434ZM185.635 601.021H180.564V607.256H185.635V601.021ZM175.689 598.124H170.618V604.359H175.689V598.124ZM165.874 594.745H160.803V600.98H165.874V594.745ZM156.157 590.884H151.086V597.119H156.157V590.884ZM146.31 586.861H141.795V592.412H146.31V586.861ZM134.564 584.89H134.695V584.729H134.564V584.89ZM142.056 15.8912H146.048V10.9836H142.056V15.8912ZM151.086 12.1904H156.157V5.95535H151.086V12.1904ZM160.803 8.32869H165.874V2.09364H160.803V8.32869ZM170.618 4.94969H175.689V-1.28535H170.618V4.94969ZM180.564 2.05341H185.635V-4.18164H180.564V2.05341ZM190.575 -0.360161H195.647V-6.59521H190.575V-0.360161ZM200.652 -2.25079H205.723V-8.48584H200.652V-2.25079ZM210.794 -3.6587H215.866V-9.89375H210.794V-3.6587ZM220.969 -4.54368H226.04V-10.7787H220.969V-4.54368ZM231.242 -4.98616H236.183V-11.0603H231.242V-4.98616ZM243.871 -7.92268V-7.84222H243.937V-7.92268H243.871ZM470.173 176.353H465.102V182.588H470.173V176.353ZM468.93 194.214H474.001V187.979H468.93V194.214ZM472.365 206.04H477.436V199.805H472.365V206.04ZM480.479 211.793H475.408V218.028H480.479V211.793ZM479.17 228.768H482.049V225.228H479.17V228.768ZM485.485 264.851H486.859V263.161H485.485V264.851ZM486.957 276.798H487.48V276.154H486.957V276.798ZM487.742 289.107H487.906V288.906H487.742V289.107ZM258.561 617.755H254.668V622.542H258.561V617.755ZM248.975 617.755H243.904V623.99H248.975V617.755ZM238.767 617.996H233.696V624.231H238.767V617.996ZM228.56 617.755H223.489V623.99H228.56V617.755ZM218.385 617.031H213.314V623.266H218.385V617.031ZM208.243 615.784H203.171V622.019H208.243V615.784ZM198.133 614.054H193.062V620.289H198.133V614.054ZM188.089 611.841H183.018V618.077H188.089V611.841ZM178.11 609.146H173.039V615.381H178.11V609.146ZM168.23 605.968H163.159V612.203H168.23V605.968ZM158.448 602.308H153.376V608.543H158.448V602.308ZM144.543 603.434H147.978V599.21H144.543V603.434ZM127.367 11.1043V11.2652H127.497V11.1043H127.367ZM139.177 3.17974H134.368V9.09299H139.177V3.17974ZM143.758 4.66811H148.829V-1.56695H143.758V4.66811ZM153.409 0.565041H158.48V-5.67001H153.409V0.565041ZM163.191 -3.09554H168.263V-9.33058H163.191V-3.09554ZM173.072 -6.2734H178.143V-12.5085H173.072V-6.2734ZM183.051 -8.96855H188.122V-15.2036H183.051V-8.96855ZM193.095 -11.181H198.166V-17.416H193.095V-11.181ZM203.204 -12.9107H208.275V-19.1458H203.204V-12.9107ZM213.346 -14.1577H218.417V-20.3928H213.346V-14.1577ZM223.521 -14.8818H228.592V-21.1168H223.521V-14.8818ZM234.22 -15.7265H238.342V-20.795H234.22V-15.7265ZM245.932 -17.3356H247.045V-18.7033H245.932V-17.3356ZM478.68 176.273H474.197V181.784H478.68V176.273ZM482.671 187.617H477.6V193.852H482.671V187.617ZM486.008 199.483H480.937V205.718H486.008V199.483ZM488.985 211.511H483.914V217.746H488.985V211.511ZM487.84 228.205H490.196V225.309H487.84V228.205ZM494.286 249.766H491.701V252.944H494.286V249.766ZM496.936 260.667H491.865V266.902H496.936V260.667ZM492.911 279.332H497.917V273.178H492.911V279.332ZM494.842 290.233H497.197V287.337H494.842V290.233ZM257.841 631.391H260.622V627.972H257.841V631.391ZM251.56 627.409H246.488V633.644H251.56V627.409ZM241.352 627.771H236.281V634.006H241.352V627.771ZM231.144 627.65H226.073V633.885H231.144V627.65ZM220.937 627.047H215.866V633.282H220.937V627.047ZM210.762 625.961H205.691V632.196H210.762V625.961ZM200.619 624.392H195.548V630.627H200.619V624.392ZM190.543 622.381H185.472V628.616H190.543V622.381ZM180.531 619.887H175.46V626.122H180.531V619.887ZM170.618 616.91H165.547V623.145H170.618V616.91ZM160.378 614.014H156.157V619.203H160.378V614.014ZM127.694 1.4098H131.456V-3.21622H127.694V1.4098ZM141.533 -8.80765H136.462V-2.5726H141.533V-8.80765ZM146.048 -6.91702H151.119V-13.1521H146.048V-6.91702ZM155.765 -10.7787H160.836V-17.0138H155.765V-10.7787ZM165.58 -14.198H170.651V-20.433H165.58V-14.198ZM175.493 -17.1747H180.564V-23.4097H175.493V-17.1747ZM185.504 -19.6687H190.575V-25.9038H185.504V-19.6687ZM195.581 -21.68H200.652V-27.9151H195.581V-21.68ZM205.723 -23.2488H210.794V-29.4839H205.723V-23.2488ZM215.898 -24.3349H220.969V-30.57H215.898V-24.3349ZM226.106 -24.9383H231.177V-31.1734H226.106V-24.9383ZM236.314 -25.059H241.352V-31.2538H236.314V-25.059ZM247.176 -25.5417H250.873V-30.0873H247.176V-25.5417ZM487.644 175.79H482.573V182.025H487.644V175.79ZM486.205 193.771H491.276V187.536H486.205V193.771ZM494.515 199.443H489.444V205.678H494.515V199.443ZM497.394 211.471H492.323V217.706H497.394V211.471ZM498.735 225.067H495.987V228.446H498.735V225.067ZM499.52 239.066V238.985H499.455V239.066H499.52ZM503.741 248.318H498.702V254.513H503.741V248.318ZM505.115 260.748H500.044V266.983H505.115V260.748ZM501.32 279.091H505.769V273.62H501.32V279.091ZM503.119 290.113H505.148V287.619H503.119V290.113ZM261.113 640.322H262.389V638.753H261.113V640.322ZM254.111 637.345H249.04V643.58H254.111V637.345ZM243.904 637.828H238.833V644.063H243.904V637.828ZM233.696 637.828H228.625V644.063H233.696V637.828ZM223.489 637.345H218.417V643.58H223.489V637.345ZM213.314 636.42H208.243V642.655H213.314V636.42ZM203.171 635.012H198.1V641.247H203.171V635.012ZM193.062 633.161H187.991V639.396H193.062V633.161ZM183.018 630.868H177.947V637.103H183.018V630.868ZM173.072 628.093H168.001V634.328H173.072V628.093ZM162.112 626.202H159.2V629.782H162.112V626.202ZM129.46 -10.0949H134.008V-15.6863H129.46V-10.0949ZM138.719 -14.3186H143.79V-20.5537H138.719V-14.3186ZM148.371 -18.4217H153.442V-24.6568H148.371V-18.4217ZM158.12 -22.0823H163.191V-28.3173H158.12V-22.0823ZM168.001 -25.3004H173.072V-31.5354H168.001V-25.3004ZM177.947 -28.076H183.018V-34.311H177.947V-28.076ZM187.991 -30.3689H193.062V-36.6039H187.991V-30.3689ZM198.1 -32.2193H203.171V-38.4543H198.1V-32.2193ZM208.243 -33.6272H213.314V-39.8622H208.243V-33.6272ZM218.417 -34.5524H223.489V-40.7874H218.417V-34.5524ZM228.625 -35.0351H233.696V-41.2701H228.625V-35.0351ZM238.833 -35.0351H243.904V-41.2701H238.833V-35.0351ZM249.139 -34.6731H254.013V-40.6667H249.139V-34.6731ZM261.571 -36.5235H261.964V-37.0062H261.571V-36.5235ZM485.779 155.597H485.681V155.717H485.779V155.597ZM489.836 166.981V167.222H490.032V166.981H489.836ZM496.314 175.589H491.243V181.824H496.314V175.589ZM499.815 187.375H494.744V193.61H499.815V187.375ZM502.956 199.322H497.884V205.557H502.956V199.322ZM505.736 211.39H500.665V217.625H505.736V211.39ZM507.143 224.866H504.133V228.567H507.143V224.866ZM509.761 236.491H505.671V241.52H509.761V236.491ZM511.953 248.278H506.882V254.513H511.953V248.278ZM508.256 266.862H513.196V260.788H508.256V266.862ZM512.574 275.189H510.742V277.442H512.574V275.189ZM511.658 289.55H512.803V288.142H511.658V289.55ZM518.267 304.192H522.782V298.641H518.267V304.192ZM518.627 316.059H522.062V311.835H518.627V316.059ZM519.739 326.517H519.837V326.397H519.739V326.517ZM264.057 649.453H264.417V649.01H264.057V649.453ZM251.854 652.993H256.271V647.562H251.854V652.993ZM246.292 647.844H241.45V653.797H246.292V647.844ZM236.183 647.844H231.112V654.079H236.183V647.844ZM225.975 647.522H220.904V653.757H225.975V647.522ZM215.8 646.718H210.729V652.953H215.8V646.718ZM205.658 645.471H200.587V651.706H205.658V645.471ZM195.548 643.781H190.477V650.016H195.548V643.781ZM185.504 641.649H180.433V647.884H185.504V641.649ZM175.526 639.075H170.455V645.31H175.526V639.075ZM161.817 640.724H164.369V637.586H161.817V640.724ZM124.128 -19.5078H124.913V-20.4732H124.128V-19.5078ZM131.456 -21.5996H136.527V-27.8346H131.456V-21.5996ZM141.042 -25.9038H146.113V-32.1388H141.042V-25.9038ZM150.759 -29.7655H155.83V-36.0005H150.759V-29.7655ZM160.574 -33.2249H165.645V-39.46H160.574V-33.2249ZM170.487 -36.2419H175.558V-42.4769H170.487V-36.2419ZM180.466 -38.8163H185.537V-45.0514H180.466V-38.8163ZM190.51 -40.9483H195.581V-47.1834H190.51V-40.9483ZM200.619 -42.6378H205.691V-48.8729H200.619V-42.6378ZM215.833 -50.1199H210.762V-43.8848H215.833V-50.1199ZM226.008 -50.9244H220.937V-44.6894H226.008V-50.9244ZM231.144 -45.0514H236.215V-51.2865H231.144V-45.0514ZM241.352 -44.9307H246.423V-51.1658H241.352V-44.9307ZM251.56 -44.3676H256.631V-50.6026H251.56V-44.3676ZM264.81 -47.1432H263.697V-45.7755H264.81V-47.1432ZM491.014 142.966H489.214V145.178H491.014V142.966ZM496.314 153.183H492.748V157.568H496.314V153.183ZM499.717 165.532H497.557V168.187H499.717V165.532ZM499.847 181.663H504.919V175.428H499.847V181.663ZM508.321 187.255H503.25V193.49H508.321V187.255ZM511.396 199.242H506.325V205.477H511.396V199.242ZM514.112 211.35H509.041V217.585H514.112V211.35ZM516.468 223.579H511.396V229.814H516.468V223.579ZM518.463 235.888H513.392V242.123H518.463V235.888ZM520.099 248.278H515.028V254.513H520.099V248.278ZM521.375 260.748H516.304V266.983H521.375V260.748ZM522.291 273.258H517.22V279.493H522.291V273.258ZM517.776 292.003H522.847V285.768H517.776V292.003ZM526.086 304.554H531.157V298.319H526.086V304.554ZM525.955 317.024H530.928V310.91H525.955V317.024ZM527.853 326.558H527.951V326.437H527.853V326.558ZM245.867 661.4H246.947V660.073H245.867V661.4ZM238.735 657.82H233.663V664.055H238.735V657.82ZM228.527 657.619H223.456V663.854H228.527V657.619ZM218.319 656.975H213.248V663.21H218.319V656.975ZM208.144 655.889H203.073V662.124H208.144V655.889ZM198.002 654.361H192.931V660.596H198.002V654.361ZM187.925 652.389H182.854V658.624H187.925V652.389ZM177.914 649.976H172.843V656.211H177.914V649.976ZM164.467 651.464H166.398V649.091H164.467V651.464ZM125.404 -30.3286H128.021V-33.5467H125.404V-30.3286ZM133.714 -33.3054H138.785V-39.5404H133.714V-33.3054ZM143.365 -37.4084H148.436V-43.6435H143.365V-37.4084ZM153.115 -41.069H158.186V-47.3041H153.115V-41.069ZM162.962 -44.3273H168.034V-50.5624H162.962V-44.3273ZM172.908 -47.1432H177.979V-53.3782H172.908V-47.1432ZM182.92 -49.5567H187.991V-55.7918H182.92V-49.5567ZM192.996 -51.5278H198.068V-57.7629H192.996V-51.5278ZM208.177 -59.2915H203.106V-53.0564H208.177V-59.2915ZM218.352 -60.3776H213.281V-54.1425H218.352V-60.3776ZM228.56 -61.0212H223.489V-54.7861H228.56V-61.0212ZM238.767 -61.2223H233.696V-54.9873H238.767V-61.2223ZM248.975 -61.0212H243.904V-54.7861H248.975V-61.0212ZM259.183 -60.3776H254.111V-54.1425H259.183V-60.3776ZM267.656 -57.1997H265.988V-55.1482H267.656V-57.1997ZM500.273 142.322H497.917V145.218H500.273V142.322ZM505.933 152.016H500.862V158.252H505.933V152.016ZM504.853 169.796H509.924V163.561H504.853V169.796ZM513.589 175.267H508.517V181.502H513.589V175.267ZM516.926 187.134H511.854V193.369H516.926V187.134ZM519.903 199.121H514.832V205.356H519.903V199.121ZM522.553 211.229H517.482V217.464H522.553V211.229ZM524.843 223.458H519.772V229.693H524.843V223.458ZM526.806 235.767H521.735V242.002H526.806V235.767ZM528.409 248.157H523.338V254.392H528.409V248.157ZM529.652 260.627H524.581V266.862H529.652V260.627ZM530.536 273.137H525.465V279.372H530.536V273.137ZM526.086 291.802H530.994V285.768H526.086V291.802ZM536.458 301.819H537.21V300.893H536.458V301.819ZM536.458 314.168H536.883V313.645H536.458V314.168ZM237.589 672.422H240.109V669.325H237.589V672.422ZM231.177 667.635H226.106V673.87H231.177V667.635ZM220.969 667.112H215.898V673.347H220.969V667.112ZM210.794 666.147H205.723V672.382H210.794V666.147ZM200.652 664.779H195.581V671.014H200.652V664.779ZM190.543 662.969H185.472V669.204H190.543V662.969ZM180.499 660.756H175.428V666.992H180.499V660.756ZM166.987 662.446H168.982V659.992H166.987V662.446ZM127.955 -42.5574H129.886V-44.9307H127.955V-42.5574ZM136.724 -45.8559H140.29V-50.2406H136.724V-45.8559ZM145.688 -48.8327H150.759V-55.0677H145.688V-48.8327ZM155.503 -52.2921H160.574V-58.5272H155.503V-52.2921ZM165.416 -55.3493H170.487V-61.5843H165.416V-55.3493ZM175.395 -58.0042H180.466V-64.2393H175.395V-58.0042ZM185.439 -60.2167H190.51V-66.4517H185.439V-60.2167ZM200.619 -68.2619H195.548V-62.0268H200.619V-68.2619ZM210.042 -68.7446H206.41V-64.2795H210.042V-68.7446ZM219.53 -68.8653H217.272V-66.0897H219.53V-68.8653ZM231.144 -71.1179H226.073V-64.8829H231.144V-71.1179ZM241.352 -71.2386H236.281V-65.0036H241.352V-71.2386ZM251.56 -70.9168H246.488V-64.6818H251.56V-70.9168ZM261.669 -70.0721H256.762V-64.0381H261.669V-70.0721ZM269.619 -66.1701H269.128V-65.5667H269.619V-66.1701ZM509.728 141.397H506.293V145.621H509.728V141.397ZM509.695 158.05H514.766V151.815H509.695V158.05ZM513.589 169.635H518.66V163.4H513.589V169.635ZM522.226 175.187H517.155V181.422H522.226V175.187ZM525.465 187.094H520.394V193.329H525.465V187.094ZM528.376 199.121H523.305V205.356H528.376V199.121ZM530.961 211.27H525.89V217.505H530.961V211.27ZM533.186 223.498H528.115V229.733H533.186V223.498ZM535.083 235.848H530.012V242.083H535.083V235.848ZM536.654 248.237H531.583V254.472H536.654V248.237ZM537.537 261.11H533.12V266.54H537.537V261.11ZM534.331 278.608H538.028V274.063H534.331V278.608ZM536.621 288.785V288.986H536.785V288.785H536.621ZM240.534 681.996H242.333V679.783H240.534V681.996ZM228.854 683.806H233.598V677.973H228.854V683.806ZM223.554 677.37H218.483V683.605H223.554V677.37ZM213.379 676.525H208.308V682.76H213.379V676.525ZM203.237 675.278H198.166V681.513H203.237V675.278ZM193.127 673.629H188.056V679.864H193.127V673.629ZM183.051 671.577H177.979V677.812H183.051V671.577ZM169.571 673.387H171.469V671.054H169.571V673.387ZM131.162 -55.3493H131.293V-55.5102H131.162V-55.3493ZM138.392 -56.4354H143.365V-62.5498H138.392V-56.4354ZM148.109 -60.0557H153.18V-66.2908H148.109V-60.0557ZM157.957 -63.3543H163.028V-69.5893H157.957V-63.3543ZM167.903 -66.2506H172.974V-72.4856H167.903V-66.2506ZM177.914 -68.7044H182.985V-74.9394H177.914V-68.7044ZM193.062 -76.991H187.991V-70.7559H193.062V-76.991ZM201.503 -76.5887H199.769V-74.4567H201.503V-76.5887ZM231.537 -78.4391H230.883V-77.6346H231.537V-78.4391ZM242.432 -79.2838H240.403V-76.7898H242.432V-79.2838ZM252.606 -78.8414H250.611V-76.3876H252.606V-78.8414ZM261.865 -76.8703H261.702V-76.6691H261.865V-76.8703ZM513.785 130.335H511.167V133.553H513.785V130.335ZM519.412 140.15H514.341V146.385H519.412V140.15ZM518.463 157.889H523.534V151.654H518.463V157.889ZM522.258 169.555H527.33V163.32H522.258V169.555ZM530.798 175.146H525.726V181.382H530.798V175.146ZM533.938 187.094H528.867V193.329H533.938V187.094ZM536.785 199.161H531.714V205.397H536.785V199.161ZM539.304 211.31H534.233V217.545H539.304V211.31ZM541.496 223.579H536.425V229.814H541.496V223.579ZM543.328 235.928H538.257V242.163H543.328V235.928ZM539.827 254.513H544.8V248.398H539.827V254.513ZM223.161 691.208H223.979V690.202H223.161V691.208ZM215.931 686.863H210.86V693.098H215.931V686.863ZM205.756 685.737H200.685V691.972H205.756V685.737ZM195.614 684.208H190.543V690.443H195.614V684.208ZM185.537 682.277H180.466V688.512H185.537V682.277ZM172.025 684.249H173.923V681.915H172.025V684.249ZM123.931 -62.7107V-62.7911H123.866V-62.7107H123.931ZM131.194 -64.199H135.775V-69.8307H131.194V-64.199ZM140.65 -67.7792H145.721V-74.0142H140.65V-67.7792ZM150.465 -71.2788H155.536V-77.5139H150.465V-71.2788ZM160.345 -74.3763H165.416V-80.6113H160.345V-74.3763ZM170.324 -77.0714H175.395V-83.3065H170.324V-77.0714ZM185.406 -85.5993H180.335V-79.3643H185.406V-85.5993ZM194.109 -85.8407H191.786V-82.9846H194.109V-85.8407ZM523.763 128.565H518.79V134.679H523.763V128.565ZM523.044 146.103H528.115V139.868H523.044V146.103ZM527.035 157.648H532.106V151.413H527.035V157.648ZM530.732 169.354H535.803V163.119H530.732V169.354ZM539.173 174.945H534.102V181.18H539.173V174.945ZM542.248 186.893H537.177V193.128H542.248V186.893ZM544.997 198.96H539.926V205.195H544.997V198.96ZM547.45 211.149H542.379V217.384H547.45V211.149ZM549.577 223.418H544.506V229.653H549.577V223.418ZM551.376 235.767H546.305V242.002H551.376V235.767ZM548.334 253.748H552.325V248.841H548.334V253.748ZM218.221 697.04H213.314V703.074H218.221V697.04ZM208.112 695.954H203.041V702.189H208.112V695.954ZM197.969 694.587H192.898V700.822H197.969V694.587ZM187.827 692.857H182.822V699.011H187.827V692.857ZM174.675 694.506H175.886V693.018H174.675V694.506ZM116.701 -70.0721H116.57V-69.9112H116.701V-70.0721ZM123.866 -71.5604H128.512V-77.2725H123.866V-71.5604ZM133.321 -75.3819H138.392V-81.617H133.321V-75.3819ZM143.071 -79.0827H148.142V-85.3178H143.071V-79.0827ZM152.918 -82.3813H157.989V-88.6163H152.918V-82.3813ZM167.903 -91.5528H162.832V-85.3178H167.903V-91.5528ZM177.914 -94.0871H172.843V-87.852H177.914V-94.0871ZM186.191 -94.0871H184.686V-92.2367H186.191V-94.0871ZM528.115 117.14H523.436V122.893H528.115V117.14ZM527.722 134.397H532.793V128.162H527.722V134.397ZM531.91 145.822H536.981V139.587H531.91V145.822ZM540.874 151.172H535.803V157.407H540.874V151.172ZM544.473 162.918H539.402V169.153H544.473V162.918ZM547.778 174.784H542.706V181.02H547.778V174.784ZM550.788 186.772H545.716V193.007H550.788V186.772ZM553.47 198.88H548.399V205.115H553.47V198.88ZM555.859 211.068H550.788V217.303H555.859V211.068ZM552.881 229.532H557.887V223.378H552.881V229.532ZM556.48 239.629H557.822V237.98H556.48V239.629ZM218.287 710.315H218.516V710.033H218.287V710.315ZM206.378 711.562H210.042V707.057H206.378V711.562ZM200.554 705.005H195.581V711.12H200.554V705.005ZM186.878 707.781H189.038V705.126H186.878V707.781ZM109.83 -77.715H108.98V-76.6691H109.83V-77.715ZM121.412 -84.9155H116.341V-78.6805H121.412V-84.9155ZM131.031 -89.1392H125.96V-82.9042H131.031V-89.1392ZM140.748 -93.001H135.677V-86.7659H140.748V-93.001ZM150.563 -96.5006H145.492V-90.2656H150.563V-96.5006ZM160.443 -99.6383H155.372V-93.4032H160.443V-99.6383ZM170.389 -102.414H165.318V-96.1788H170.389V-102.414ZM178.47 -102.414H177.292V-100.966H178.47V-102.414ZM537.21 116.658H532.204V122.812H537.21V116.658ZM536.556 134.156H541.627V127.921H536.556V134.156ZM540.645 145.661H545.716V139.426H540.645V145.661ZM544.473 157.286H549.544V151.051H544.473V157.286ZM553.078 162.837H548.007V169.072H553.078V162.837ZM556.317 174.744H551.246V180.979H556.317V174.744ZM559.261 186.772H554.19V193.007H559.261V186.772ZM561.846 198.92H556.84V205.075H561.846V198.92ZM561.388 214.568H561.977V213.844H561.388V214.568ZM563.612 226.636H563.809V226.395H563.612V226.636ZM200.063 719.245H201.11V717.958H200.063V719.245ZM112.906 -90.6276H110.288V-87.4095H112.906V-90.6276ZM123.571 -96.4202H118.729V-90.4667H123.571V-96.4202ZM133.354 -100.604H128.283V-94.3686H133.354V-100.604ZM143.103 -104.305H138.032V-98.0695H143.103V-104.305ZM152.951 -107.643H147.88V-101.408H152.951V-107.643ZM162.668 -110.379H158.022V-104.667H162.668V-110.379ZM171.305 -111.344H169.342V-108.931H171.305V-111.344ZM540.743 106.118H537.374V110.262H540.743V106.118ZM546.142 116.296H541.071V122.531H546.142V116.296ZM545.357 133.915H550.428V127.68H545.357V133.915ZM554.419 139.225H549.348V145.46H554.419V139.225ZM558.149 150.89H553.078V157.125H558.149V150.89ZM561.584 162.717H556.513V168.952H561.584V162.717ZM564.365 175.106H560.079V180.376H564.365V175.106ZM563.449 191.8H566.688V187.818H563.449V191.8ZM567.473 202.138H567.8V201.736H567.473V202.138ZM124.324 -106.034H122.623V-103.942H124.324V-106.034ZM133.452 -109.212H132.896V-108.528H133.452V-109.212ZM143.365 -112.913H142.58V-111.947H143.365V-112.913ZM153.213 -116.051H152.493V-115.166H153.213V-116.051V-116.051ZM544.081 95.7803H542.51V97.7112H544.081V95.7803ZM550.558 104.751H545.487V110.986H550.558V104.751ZM549.97 122.249H555.041V116.014H549.97V122.249ZM554.157 133.673H559.228V127.438H554.157V133.673ZM563.154 139.023H558.083V145.258H563.154V139.023ZM566.786 150.729H561.715V156.964H566.786V150.729ZM565.085 168.791H570.156V162.556H565.085V168.791ZM570.581 177.761H570.81V177.48H570.581V177.761ZM553.372 94.9758H551.278V97.5503H553.372V94.9758ZM559.49 104.348H554.419V110.584H559.49V104.348ZM558.803 121.927H563.874V115.692H558.803V121.927ZM562.925 133.432H567.997V127.197H562.925V133.432ZM571.824 138.822H566.753V145.057H571.824V138.822ZM570.319 156.803H575.391V150.568H570.319V156.803ZM575.489 166.377H576.797V164.768H575.489V166.377ZM561.617 95.6194H561.061V96.3033H561.617V95.6194ZM568.422 104.067H563.351V110.302H568.422V104.067ZM567.637 121.686H572.708V115.451H567.637V121.686ZM576.732 126.996H571.661V133.231H576.732V126.996ZM580.494 138.661H575.423V144.896H580.494V138.661ZM579.905 155.476H582.981V151.695H579.905V155.476ZM572.708 92.6829H567.931V98.5559H572.708V92.6829ZM577.288 103.785H572.217V110.02H577.288V103.785ZM581.443 115.29H576.47V121.404H581.443V115.29ZM585.435 126.795H580.364V133.03H585.435V126.795ZM584.061 144.736H589.132V138.5H584.061V144.736ZM589.655 153.907H590.375V153.022H589.655V153.907ZM574.965 83.7527H574.376V84.4768H574.965V83.7527ZM581.247 92.884H577.321V97.7112H581.247V92.884ZM585.991 103.745H581.312V109.497H585.991V103.745ZM585.729 120.6H589.819V115.572H585.729V120.6ZM589.099 132.829H594.17V126.594H589.099V132.829ZM597.213 139.023H593.221V143.931H597.213V139.023ZM597.213 155.033H599.994V151.614H597.213V155.033ZM597.998 116.095H595.021V119.755H597.998V116.095ZM597.998 132.386H602.578V126.754H597.998V132.386ZM604.999 117.985H605.457V117.422H604.999V117.985ZM608.893 129.369V129.45H608.958V129.369H608.893Z" fill="#E2F0F9"/>
</svg>
