<svg width="142" height="100" viewBox="0 0 142 100" fill="none" xmlns="http://www.w3.org/2000/svg">
<path d="M116.032 34.2456L92.1063 20.4232C91.3834 20.0065 90.9417 18.8818 91.1274 17.9178L94.29 1.14814C94.4707 0.184131 95.2037 -0.262725 95.9316 0.159027L119.857 13.9814C120.58 14.3982 121.022 15.5228 120.836 16.4869L117.673 33.2565C117.493 34.2205 116.76 34.6674 116.032 34.2456Z" fill="url(#paint0_linear_185_252)"/>
<path d="M119.756 13.9212L107.889 7.06775L104.169 26.7847L115.931 34.1904C116.709 34.6373 117.477 34.2758 117.648 33.377L120.856 16.3614C121.026 15.4626 120.534 14.3731 119.756 13.9212Z" fill="url(#paint1_linear_185_252)"/>
<path d="M96.0218 0.214242L107.889 7.06771L104.194 26.6591L92.2016 20.4784C91.4235 20.0316 90.9315 18.937 91.1022 18.0383L94.31 1.0226C94.4807 0.123867 95.2487 -0.237635 96.0268 0.209221L96.0218 0.214242Z" fill="url(#paint2_linear_185_252)"/>
<path d="M91.2529 19.3186C91.4487 19.8057 91.7851 20.2375 92.2017 20.4785L115.931 34.1854C116.353 34.4264 116.77 34.4314 117.091 34.2456L106.459 14.6543L91.2529 19.3186Z" fill="url(#paint3_linear_185_252)"/>
<path d="M120.705 15.081C120.51 14.594 120.173 14.1622 119.757 13.9212L96.0219 0.214236C95.6002 -0.0267654 95.1836 -0.0317863 94.8623 0.153985L105.495 19.7454L120.7 15.081H120.705Z" fill="url(#paint4_linear_185_252)"/>
<path d="M13.7125 97.7996L81.2519 58.7825C83.2951 57.6026 84.535 54.4395 84.018 51.7132L75.0924 4.3715C74.5803 1.64518 72.507 0.394986 70.4639 1.57489L2.92441 40.5869C0.88126 41.7668 -0.358687 44.93 0.158376 47.6563L9.08399 94.998C9.59603 97.7243 11.6693 98.9745 13.7125 97.7946V97.7996Z" fill="url(#paint5_linear_185_252)"/>
<path d="M3.20109 40.4313L36.6947 21.0809L47.1916 76.7371L13.9891 97.6389C11.7954 98.9092 9.62672 97.8799 9.14982 95.3444L0.0936884 47.3149C-0.383214 44.7794 1.00733 41.6966 3.20109 40.4263V40.4313Z" fill="url(#paint6_linear_185_252)"/>
<path d="M70.189 1.73058L36.6953 21.081L47.1269 76.3857L80.982 58.9432C83.1758 57.673 84.5663 54.5902 84.0894 52.0546L75.0283 4.03013C74.5514 1.4946 72.3827 0.465323 70.189 1.7356V1.73058Z" fill="url(#paint7_linear_185_252)"/>
<path d="M83.6617 55.6696C83.1145 57.0403 82.1658 58.2603 80.981 58.9432L13.9887 97.6389C12.804 98.3218 11.6293 98.3318 10.7207 97.8046L40.7355 42.4999L83.6617 55.6696Z" fill="url(#paint8_linear_185_252)"/>
<path d="M0.515625 43.7049C1.06281 42.3342 2.01159 41.1142 3.19632 40.4313L70.1886 1.73056C71.3733 1.04773 72.548 1.03768 73.4566 1.56487L43.4419 56.8696L0.515625 43.7049Z" fill="url(#paint9_linear_185_252)"/>
<path d="M97.9189 71.641L98.7573 86.2567C98.8175 87.296 99.9019 87.9487 100.851 87.5119L116.854 80.1463C116.854 80.1463 104.34 71.0084 104.259 71.3046C104.179 71.6008 97.924 71.641 97.924 71.641H97.9189Z" fill="#AF8D00"/>
<path d="M139.409 54.9567C129.936 56.0813 99.2484 60.098 87.6371 61.6244C86.1059 61.8252 85.6592 63.8335 86.9644 64.662L97.9181 71.641L98.7514 86.2115C98.7865 86.7989 99.1379 87.2609 99.6098 87.4868C99.9913 87.6675 103.48 76.8928 103.48 76.8928C103.48 76.8928 113.591 89.5504 118.39 95.5352C119.574 97.0114 121.889 96.7503 122.712 95.0482C126.914 86.3571 137.416 64.6319 141.005 57.201C141.547 56.0864 140.639 54.8111 139.409 54.9567Z" fill="#F7C600"/>
<path d="M99.6107 87.4868C99.9922 87.6676 103.481 76.8928 103.481 76.8928L129.279 62.9499C129.455 62.8545 129.344 62.5884 129.154 62.6436L97.9189 71.641L98.7523 86.2115C98.7874 86.799 99.1388 87.2609 99.6107 87.4868Z" fill="#D3AA00"/>
<path d="M21.0566 94.8775C35.2583 98.5879 56.242 95.5804 64.0934 81.2107C67.261 75.4116 67.6626 68.4075 63.9427 62.5833C59.244 55.2177 51.0413 58.642 50.6096 67.072C49.8967 80.9145 63.3404 94.8675 75.4788 98.2264C82.4918 100.169 89.9867 98.5427 94.339 92.3169" stroke="#9CCDEB" stroke-width="2" stroke-miterlimit="10" stroke-dasharray="4 4"/>
<defs>
<linearGradient id="paint0_linear_185_252" x1="-91.115" y1="-96.8639" x2="-64.6224" y2="-81.5648" gradientUnits="userSpaceOnUse">
<stop stop-color="#7BFFBC"/>
<stop offset="1" stop-color="#59EFAA"/>
</linearGradient>
<linearGradient id="paint1_linear_185_252" x1="-67.4788" y1="-62.3535" x2="-74.4909" y2="-87.3282" gradientUnits="userSpaceOnUse">
<stop offset="0.77" stop-color="#59EFAA"/>
<stop offset="0.85" stop-color="#54EBA7"/>
<stop offset="0.94" stop-color="#46DF9E"/>
<stop offset="1" stop-color="#3AD596"/>
</linearGradient>
<linearGradient id="paint2_linear_185_252" x1="-116.435" y1="-90.7167" x2="-91.3049" y2="-97.1177" gradientUnits="userSpaceOnUse">
<stop offset="0.77" stop-color="#59EFAA"/>
<stop offset="0.85" stop-color="#54EBA7"/>
<stop offset="0.94" stop-color="#46DF9E"/>
<stop offset="1" stop-color="#3AD596"/>
</linearGradient>
<linearGradient id="paint3_linear_185_252" x1="-92.3965" y1="-64.0618" x2="-78.0615" y2="-88.8768" gradientUnits="userSpaceOnUse">
<stop offset="0.77" stop-color="#3AD596"/>
<stop offset="0.86" stop-color="#3AD095"/>
<stop offset="0.95" stop-color="#3AC292"/>
<stop offset="1" stop-color="#3BBA91"/>
</linearGradient>
<linearGradient id="paint4_linear_185_252" x1="-79.8118" y1="-106.291" x2="-62.581" y2="-81.2186" gradientUnits="userSpaceOnUse">
<stop stop-color="#7BFFBC"/>
<stop offset="1" stop-color="#59EFAA"/>
</linearGradient>
<linearGradient id="paint5_linear_185_252" x1="256.584" y1="-74.4174" x2="181.801" y2="-31.2314" gradientUnits="userSpaceOnUse">
<stop stop-color="#7BDAFF"/>
<stop offset="1" stop-color="#59BDEF"/>
</linearGradient>
<linearGradient id="paint6_linear_185_252" x1="189.858" y1="22.9865" x2="209.657" y2="-47.5007" gradientUnits="userSpaceOnUse">
<stop offset="0.77" stop-color="#59BDEF"/>
<stop offset="0.85" stop-color="#54B8EB"/>
<stop offset="0.93" stop-color="#48AAE1"/>
<stop offset="1" stop-color="#3A9BD5"/>
</linearGradient>
<linearGradient id="paint7_linear_185_252" x1="309.636" y1="-46.3433" x2="238.697" y2="-64.4128" gradientUnits="userSpaceOnUse">
<stop offset="0.77" stop-color="#59BDEF"/>
<stop offset="0.85" stop-color="#54B8EB"/>
<stop offset="0.93" stop-color="#48AAE1"/>
<stop offset="1" stop-color="#3A9BD5"/>
</linearGradient>
<linearGradient id="paint8_linear_185_252" x1="260.19" y1="18.1721" x2="219.729" y2="-51.8687" gradientUnits="userSpaceOnUse">
<stop offset="0.77" stop-color="#3A9BD5"/>
<stop offset="0.84" stop-color="#3796D1"/>
<stop offset="0.92" stop-color="#3088C8"/>
<stop offset="1" stop-color="#2573BA"/>
</linearGradient>
<linearGradient id="paint9_linear_185_252" x1="224.664" y1="-101.035" x2="176.036" y2="-30.2571" gradientUnits="userSpaceOnUse">
<stop stop-color="#7BDAFF"/>
<stop offset="1" stop-color="#59BDEF"/>
</linearGradient>
</defs>
</svg>
