<svg width="24" height="24" viewBox="0 0 24 24" fill="none" xmlns="http://www.w3.org/2000/svg">
<mask id="mask0_356_1546" style="mask-type:alpha" maskUnits="userSpaceOnUse" x="0" y="0" width="24" height="24">
<rect width="24" height="24" fill="#D9D9D9"/>
</mask>
<g mask="url(#mask0_356_1546)">
<path d="M10.75 15.25H13.25V12.75H15.75V10.25H13.25V7.75005H10.75V10.25H8.25V12.75H10.75V15.25ZM12 21.475C9.83333 20.8917 8.04167 19.621 6.625 17.663C5.20833 15.7044 4.5 13.5167 4.5 11.1V5.35005L12 2.55005L19.5 5.35005V11.1C19.5 13.5167 18.7917 15.7044 17.375 17.663C15.9583 19.621 14.1667 20.8917 12 21.475ZM12 19.9C13.7333 19.35 15.1667 18.25 16.3 16.6C17.4333 14.95 18 13.1167 18 11.1V6.37505L12 4.12505L6 6.37505V11.1C6 13.1167 6.56667 14.95 7.7 16.6C8.83333 18.25 10.2667 19.35 12 19.9Z" fill="#1C1B1F"/>
</g>
</svg>
