<svg width="24" height="24" viewBox="0 0 24 24" fill="none" xmlns="http://www.w3.org/2000/svg">
<mask id="mask0_356_1497" style="mask-type:alpha" maskUnits="userSpaceOnUse" x="0" y="0" width="24" height="24">
<rect width="24" height="24" fill="#D9D9D9"/>
</mask>
<g mask="url(#mask0_356_1497)">
<path d="M15.2999 16.3499L11.2499 12.2999V7.2499H12.7499V11.6999L16.3499 15.2999L15.2999 16.3499ZM3.3999 16.0499C3.1499 15.5332 2.9539 14.9959 2.8119 14.4379C2.67057 13.8792 2.5749 13.3166 2.5249 12.7499H4.0499C4.08324 13.1832 4.15824 13.6166 4.2749 14.0499C4.39157 14.4832 4.54157 14.8999 4.7249 15.2999L3.3999 16.0499ZM2.5249 11.2499C2.5749 10.6832 2.67057 10.1166 2.8119 9.5499C2.9539 8.98324 3.15824 8.44157 3.4249 7.9249L4.7249 8.6749C4.54157 9.0749 4.39157 9.49157 4.2749 9.9249C4.15824 10.3582 4.08324 10.7999 4.0499 11.2499H2.5249ZM6.6249 19.8499C6.14157 19.4999 5.69157 19.1166 5.2749 18.6999C4.85824 18.2832 4.48324 17.8332 4.1499 17.3499L5.4499 16.5999C5.71657 16.9666 6.01257 17.3122 6.3379 17.6369C6.66257 17.9622 7.00824 18.2582 7.3749 18.5249L6.6249 19.8499ZM5.4749 7.3749L4.1499 6.6249C4.48324 6.14157 4.85824 5.69557 5.2749 5.2869C5.69157 4.8789 6.14157 4.4999 6.6249 4.1499L7.3749 5.4749C7.00824 5.74157 6.66657 6.03324 6.3499 6.3499C6.03324 6.66657 5.74157 7.00824 5.4749 7.3749ZM11.2499 21.4749C10.6832 21.4249 10.1166 21.3292 9.5499 21.1879C8.98324 21.0459 8.44157 20.8416 7.9249 20.5749L8.6749 19.2749C9.0749 19.4582 9.49157 19.6082 9.9249 19.7249C10.3582 19.8416 10.7999 19.9166 11.2499 19.9499V21.4749ZM8.6749 4.7249L7.9249 3.4249C8.44157 3.15824 8.98324 2.9539 9.5499 2.8119C10.1166 2.67057 10.6832 2.5749 11.2499 2.5249V4.0499C10.7999 4.08324 10.3582 4.15824 9.9249 4.2749C9.49157 4.39157 9.0749 4.54157 8.6749 4.7249ZM12.7499 21.4749V19.9499C13.1999 19.9166 13.6416 19.8416 14.0749 19.7249C14.5082 19.6082 14.9249 19.4582 15.3249 19.2749L16.0749 20.5749C15.5582 20.8416 15.0166 21.0459 14.4499 21.1879C13.8832 21.3292 13.3166 21.4249 12.7499 21.4749ZM15.3249 4.7249C14.9249 4.54157 14.5082 4.39157 14.0749 4.2749C13.6416 4.15824 13.1999 4.08324 12.7499 4.0499V2.5249C13.3166 2.5749 13.8832 2.67057 14.4499 2.8119C15.0166 2.9539 15.5582 3.15824 16.0749 3.4249L15.3249 4.7249ZM17.3749 19.8499L16.6249 18.5249C16.9916 18.2582 17.3332 17.9666 17.6499 17.6499C17.9666 17.3332 18.2582 16.9916 18.5249 16.6249L19.8499 17.3749C19.4999 17.8582 19.1209 18.3082 18.7129 18.7249C18.3042 19.1416 17.8582 19.5166 17.3749 19.8499ZM18.5249 7.3749C18.2582 7.00824 17.9666 6.66657 17.6499 6.3499C17.3332 6.03324 16.9916 5.74157 16.6249 5.4749L17.3749 4.1499C17.8582 4.48324 18.3042 4.8539 18.7129 5.2619C19.1209 5.67057 19.4916 6.11657 19.8249 6.5999L18.5249 7.3749ZM19.9499 11.2499C19.9166 10.7999 19.8416 10.3582 19.7249 9.9249C19.6082 9.49157 19.4499 9.0749 19.2499 8.6749L20.5749 7.8999C20.8249 8.43324 21.0249 8.9789 21.1749 9.5369C21.3249 10.0956 21.4249 10.6666 21.4749 11.2499H19.9499ZM20.5749 16.0749L19.2749 15.3249C19.4582 14.9249 19.6082 14.5082 19.7249 14.0749C19.8416 13.6416 19.9166 13.1999 19.9499 12.7499H21.4749C21.4249 13.3166 21.3292 13.8832 21.1879 14.4499C21.0459 15.0166 20.8416 15.5582 20.5749 16.0749Z" fill="#1C1B1F"/>
</g>
</svg>
