<svg width="16" height="16" viewBox="0 0 16 16" fill="none" xmlns="http://www.w3.org/2000/svg">
<path d="M13.3257 16H2.67433C1.20246 16 0 14.7975 0 13.3257V2.67433C0 1.20246 1.20246 0 2.67433 0H13.3257C14.7975 0 16 1.20246 16 2.67433V13.3257C16 14.8041 14.8041 16 13.3257 16Z" fill="#D9D9D9"/>
<path d="M8.00326 12.1101C6.90593 12.1101 5.87431 11.683 5.09895 10.9076C4.32359 10.1322 3.89648 9.10062 3.89648 8.00329C3.89648 6.90596 4.32359 5.87434 5.09895 5.09898C5.87431 4.32362 6.90593 3.89651 8.00326 3.89651C9.10059 3.89651 10.1322 4.32362 10.9076 5.09898C11.6829 5.87434 12.11 6.90596 12.11 8.00329C12.11 9.10062 11.6829 10.1322 10.9076 10.9076C10.1256 11.683 9.10059 12.1101 8.00326 12.1101ZM8.00326 4.77044C6.22256 4.77044 4.77041 6.21602 4.77041 8.00329C4.77041 9.78399 6.21599 11.2361 8.00326 11.2361C9.78396 11.2361 11.2361 9.79056 11.2361 8.00329C11.2295 6.22259 9.78396 4.77044 8.00326 4.77044Z" fill="white"/>
<path d="M12.9106 3.76155C13.3461 3.76155 13.6991 3.40852 13.6991 2.97303C13.6991 2.53754 13.3461 2.18451 12.9106 2.18451C12.4751 2.18451 12.1221 2.53754 12.1221 2.97303C12.1221 3.40852 12.4751 3.76155 12.9106 3.76155Z" fill="white"/>
</svg>
