<svg width="16" height="17" viewBox="0 0 16 17" fill="none" xmlns="http://www.w3.org/2000/svg">
<path fill-rule="evenodd" clip-rule="evenodd" d="M2.67433 16.5918H13.3257C14.8041 16.5918 16 15.3959 16 13.9175V3.26613C16 1.79426 14.7975 0.591797 13.3257 0.591797H2.67433C1.20246 0.591797 0 1.79426 0 3.26613V13.9175C0 15.3893 1.20246 16.5918 2.67433 16.5918ZM12.9106 4.35341C13.3461 4.35341 13.6991 4.00038 13.6991 3.56489C13.6991 3.1294 13.3461 2.77637 12.9106 2.77637C12.4751 2.77637 12.1221 3.1294 12.1221 3.56489C12.1221 4.00038 12.4751 4.35341 12.9106 4.35341ZM8.00326 12.7018C6.90593 12.7018 5.87431 12.2747 5.09895 11.4994C4.32359 10.724 3.89648 9.69239 3.89648 8.59506C3.89648 7.49773 4.32359 6.4661 5.09895 5.69075C5.87431 4.91539 6.90593 4.48828 8.00326 4.48828C9.10059 4.48828 10.1322 4.91539 10.9076 5.69075C11.6829 6.4661 12.11 7.49773 12.11 8.59506C12.11 9.69239 11.6829 10.724 10.9076 11.4994C10.1256 12.2747 9.10059 12.7018 8.00326 12.7018ZM8.00326 5.3622C6.22256 5.3622 4.77041 6.80779 4.77041 8.59506C4.77041 10.3758 6.21599 11.8279 8.00326 11.8279C9.78396 11.8279 11.2361 10.3823 11.2361 8.59506C11.2295 6.81436 9.78396 5.3622 8.00326 5.3622Z" fill="#22567F"/>
</svg>
