<svg width="40" height="40" viewBox="0 0 40 40" fill="none" xmlns="http://www.w3.org/2000/svg">
<mask id="mask0_293_141" style="mask-type:alpha" maskUnits="userSpaceOnUse" x="0" y="0" width="40" height="40">
<rect width="40" height="40" fill="#D9D9D9"/>
</mask>
<g mask="url(#mask0_293_141)">
<path d="M20 35.833C17.8053 35.833 15.7427 35.4163 13.812 34.583C11.882 33.7497 10.2017 32.618 8.77099 31.188C7.34033 29.7573 6.21533 28.0767 5.39599 26.146C4.57666 24.2153 4.16699 22.1527 4.16699 19.958C4.16699 17.764 4.57666 15.7087 5.39599 13.792C6.21533 11.8753 7.34033 10.2017 8.77099 8.77099C10.2017 7.34033 11.882 6.21533 13.812 5.39599C15.7427 4.57666 17.8053 4.16699 20 4.16699C22.1947 4.16699 24.2573 4.57666 26.188 5.39599C28.118 6.21533 29.7983 7.34033 31.229 8.77099C32.6597 10.2017 33.7847 11.8753 34.604 13.792C35.4233 15.7087 35.833 17.764 35.833 19.958C35.833 22.1527 35.4233 24.2153 34.604 26.146C33.7847 28.0767 32.6597 29.7573 31.229 31.188C29.7983 32.618 28.118 33.7497 26.188 34.583C24.2573 35.4163 22.1947 35.833 20 35.833ZM20 33.792C20.972 32.6527 21.7777 31.458 22.417 30.208C23.0557 28.958 23.5833 27.5277 24 25.917H16.042C16.4307 27.5277 16.9443 28.965 17.583 30.229C18.2223 31.493 19.028 32.6807 20 33.792ZM17.167 33.417C16.417 32.417 15.757 31.278 15.187 30C14.6177 28.722 14.1803 27.361 13.875 25.917H7.54199C8.56933 27.917 9.86799 29.528 11.438 30.75C13.0073 31.972 14.917 32.861 17.167 33.417ZM22.875 33.375C24.9583 32.9303 26.8333 32.0553 28.5 30.75C30.1667 29.4447 31.486 27.8337 32.458 25.917H26.167C25.7777 27.361 25.2983 28.722 24.729 30C24.1597 31.278 23.5417 32.403 22.875 33.375ZM6.79199 23.792H13.458C13.3473 23.0973 13.278 22.4373 13.25 21.812C13.222 21.1873 13.208 20.5693 13.208 19.958C13.208 19.3193 13.229 18.6943 13.271 18.083C13.3123 17.4723 13.3887 16.8337 13.5 16.167H6.79199C6.59733 16.7777 6.45833 17.3887 6.37499 18C6.29166 18.6113 6.24999 19.264 6.24999 19.958C6.24999 20.6527 6.29166 21.3127 6.37499 21.938C6.45833 22.5627 6.59733 23.1807 6.79199 23.792ZM15.583 23.792H24.417C24.5277 23.042 24.604 22.3683 24.646 21.771C24.6873 21.1737 24.708 20.5693 24.708 19.958C24.708 19.3473 24.6873 18.7573 24.646 18.188C24.604 17.618 24.5277 16.9443 24.417 16.167H15.583C15.4723 16.9443 15.396 17.618 15.354 18.188C15.3127 18.7573 15.292 19.3473 15.292 19.958C15.292 20.5693 15.3127 21.1737 15.354 21.771C15.396 22.3683 15.4723 23.042 15.583 23.792ZM26.5 23.792H33.208C33.4027 23.1807 33.5417 22.5627 33.625 21.938C33.7083 21.3127 33.75 20.6527 33.75 19.958C33.75 19.264 33.7083 18.6113 33.625 18C33.5417 17.3887 33.4027 16.7777 33.208 16.167H26.542C26.6527 17.0003 26.729 17.7087 26.771 18.292C26.8123 18.8753 26.833 19.4307 26.833 19.958C26.833 20.5693 26.8053 21.1737 26.75 21.771C26.6947 22.3683 26.6113 23.042 26.5 23.792ZM26.125 14.083H32.458C31.486 12.083 30.1807 10.4373 28.542 9.14599C26.9027 7.85399 24.9997 6.99966 22.833 6.58299C23.583 7.61099 24.229 8.74999 24.771 9.99999C25.3123 11.25 25.7637 12.611 26.125 14.083ZM16.042 14.083H24C23.6387 12.583 23.118 11.1733 22.438 9.85399C21.7573 8.53466 20.9447 7.33333 20 6.24999C19.1113 7.16666 18.3473 8.24999 17.708 9.49999C17.0693 10.75 16.514 12.2777 16.042 14.083ZM7.54199 14.083H13.875C14.2083 12.639 14.646 11.299 15.188 10.063C15.7293 8.82633 16.375 7.66633 17.125 6.58299C14.9583 7.02766 13.0627 7.88899 11.438 9.16699C9.81266 10.4443 8.51399 12.083 7.54199 14.083Z" fill="#439FD9"/>
</g>
</svg>
