<svg width="16" height="17" viewBox="0 0 16 17" fill="none" xmlns="http://www.w3.org/2000/svg">
<path d="M3.61282 5.85303H0.269531V16.5146H3.61282V5.85303Z" fill="#22567F"/>
<path d="M12.6564 5.62203C12.5331 5.60663 12.4022 5.59892 12.2712 5.59122C10.3993 5.51418 9.34391 6.62348 8.97415 7.10109C8.874 7.23205 8.82778 7.30908 8.82778 7.30908V5.88395H5.63086V16.5455H8.82778H8.97415C8.97415 15.4593 8.97415 14.3808 8.97415 13.2946C8.97415 12.7092 8.97415 12.1237 8.97415 11.5383C8.97415 10.8141 8.92022 10.0438 9.28228 9.3813C9.59042 8.82666 10.1451 8.54933 10.769 8.54933C12.6179 8.54933 12.6564 10.221 12.6564 10.375C12.6564 10.3827 12.6564 10.3905 12.6564 10.3905V16.5917H15.9997V9.63552C15.9997 7.25516 14.7902 5.85314 12.6564 5.62203Z" fill="#22567F"/>
<path d="M1.94126 4.47432C3.01339 4.47432 3.88253 3.60519 3.88253 2.53306C3.88253 1.46093 3.01339 0.591797 1.94126 0.591797C0.869129 0.591797 0 1.46093 0 2.53306C0 3.60519 0.869129 4.47432 1.94126 4.47432Z" fill="#22567F"/>
</svg>
