<svg width="16" height="17" viewBox="0 0 16 17" fill="none" xmlns="http://www.w3.org/2000/svg">
<path d="M3.61282 5.85303H0.269531V16.5146H3.61282V5.85303Z" fill="#22567F"/>
<path d="M12.6569 5.62203C12.5336 5.60663 12.4027 5.59892 12.2717 5.59122C10.3998 5.51418 9.3444 6.62348 8.97464 7.10109C8.87449 7.23205 8.82827 7.30908 8.82827 7.30908V5.88395H5.63135V16.5455H8.82827H8.97464C8.97464 15.4593 8.97464 14.3808 8.97464 13.2946C8.97464 12.7092 8.97464 12.1237 8.97464 11.5383C8.97464 10.8141 8.92071 10.0438 9.28277 9.3813C9.59091 8.82666 10.1456 8.54933 10.7695 8.54933C12.6184 8.54933 12.6569 10.221 12.6569 10.375C12.6569 10.3827 12.6569 10.3905 12.6569 10.3905V16.5917H16.0002V9.63552C16.0002 7.25516 14.7907 5.85314 12.6569 5.62203Z" fill="#22567F"/>
<path d="M1.94126 4.47432C3.01339 4.47432 3.88253 3.60519 3.88253 2.53306C3.88253 1.46093 3.01339 0.591797 1.94126 0.591797C0.869129 0.591797 0 1.46093 0 2.53306C0 3.60519 0.869129 4.47432 1.94126 4.47432Z" fill="#22567F"/>
</svg>
