<svg width="16" height="17" viewBox="0 0 16 17" fill="none" xmlns="http://www.w3.org/2000/svg">
<path d="M3.61282 5.85303H0.269531V16.5146H3.61282V5.85303Z" fill="#22567F"/>
<path d="M12.6567 5.62203C12.5335 5.60663 12.4025 5.59892 12.2716 5.59122C10.3996 5.51418 9.34428 6.62348 8.97451 7.10109C8.87437 7.23205 8.82815 7.30908 8.82815 7.30908V5.88395H5.63123V16.5455H8.82815H8.97451C8.97451 15.4593 8.97451 14.3808 8.97451 13.2946C8.97451 12.7092 8.97451 12.1237 8.97451 11.5383C8.97451 10.8141 8.92059 10.0438 9.28265 9.3813C9.59079 8.82666 10.1454 8.54933 10.7694 8.54933C12.6182 8.54933 12.6567 10.221 12.6567 10.375C12.6567 10.3827 12.6567 10.3905 12.6567 10.3905V16.5917H16V9.63552C16 7.25516 14.7906 5.85314 12.6567 5.62203Z" fill="#22567F"/>
<path d="M1.94126 4.47432C3.01339 4.47432 3.88253 3.60519 3.88253 2.53306C3.88253 1.46093 3.01339 0.591797 1.94126 0.591797C0.869129 0.591797 0 1.46093 0 2.53306C0 3.60519 0.869129 4.47432 1.94126 4.47432Z" fill="#22567F"/>
</svg>
