<svg width="16" height="17" viewBox="0 0 16 17" fill="none" xmlns="http://www.w3.org/2000/svg">
<path d="M3.61282 5.85352H0.269531V16.5151H3.61282V5.85352Z" fill="#22567F"/>
<path d="M12.6567 5.62252C12.5335 5.60711 12.4025 5.59941 12.2716 5.59171C10.3996 5.51467 9.34428 6.62397 8.97451 7.10158C8.87437 7.23254 8.82815 7.30957 8.82815 7.30957V5.88444H5.63123V16.546H8.82815H8.97451C8.97451 15.4598 8.97451 14.3813 8.97451 13.2951C8.97451 12.7097 8.97451 12.1242 8.97451 11.5388C8.97451 10.8146 8.92059 10.0443 9.28265 9.38179C9.59079 8.82715 10.1454 8.54982 10.7694 8.54982C12.6182 8.54982 12.6567 10.2215 12.6567 10.3755C12.6567 10.3832 12.6567 10.3909 12.6567 10.3909V16.5922H16V9.636C16 7.25565 14.7906 5.85362 12.6567 5.62252Z" fill="#22567F"/>
<path d="M1.94126 4.47432C3.01339 4.47432 3.88253 3.60519 3.88253 2.53306C3.88253 1.46093 3.01339 0.591797 1.94126 0.591797C0.869129 0.591797 0 1.46093 0 2.53306C0 3.60519 0.869129 4.47432 1.94126 4.47432Z" fill="#22567F"/>
</svg>
