<svg width="16" height="16" viewBox="0 0 16 16" fill="none" xmlns="http://www.w3.org/2000/svg">
<path d="M3.61282 5.26144H0.269531V15.923H3.61282V5.26144Z" fill="#D9D9D9"/>
<path d="M12.6569 5.03033C12.5336 5.01492 12.4027 5.00722 12.2717 4.99951C10.3998 4.92248 9.3444 6.03177 8.97464 6.50938C8.87449 6.64034 8.82827 6.71738 8.82827 6.71738V5.29224H5.63135V15.9538H8.82827H8.97464C8.97464 14.8676 8.97464 13.7891 8.97464 12.7029C8.97464 12.1175 8.97464 11.532 8.97464 10.9466C8.97464 10.2224 8.92071 9.45209 9.28277 8.7896C9.59091 8.23495 10.1456 7.95763 10.7695 7.95763C12.6184 7.95763 12.6569 9.62927 12.6569 9.78334C12.6569 9.79104 12.6569 9.79875 12.6569 9.79875V16H16.0002V9.04381C16.0002 6.66345 14.7907 5.26143 12.6569 5.03033Z" fill="#D9D9D9"/>
<path d="M1.94126 3.88253C3.01339 3.88253 3.88253 3.01339 3.88253 1.94126C3.88253 0.869133 3.01339 0 1.94126 0C0.869129 0 0 0.869133 0 1.94126C0 3.01339 0.869129 3.88253 1.94126 3.88253Z" fill="#D9D9D9"/>
</svg>
