<svg width="48" height="48" viewBox="0 0 48 48" fill="none" xmlns="http://www.w3.org/2000/svg">
<mask id="mask0_293_444" style="mask-type:alpha" maskUnits="userSpaceOnUse" x="0" y="0" width="48" height="48">
<rect width="48" height="48" fill="#D9D9D9"/>
</mask>
<g mask="url(#mask0_293_444)">
<path d="M11.1 39.1C9.56662 39.1 8.25828 38.5583 7.17495 37.475C6.09162 36.3917 5.54995 35.0833 5.54995 33.55H2.69995V11.9C2.69995 11.1 2.98328 10.4167 3.54995 9.85C4.11662 9.28333 4.79995 9 5.59995 9H33.5V16.85H38.25L45.2999 26.3V33.55H42.0499C42.0499 35.0833 41.5083 36.3917 40.4249 37.475C39.3416 38.5583 38.0166 39.1 36.45 39.1C34.9166 39.1 33.6166 38.5583 32.5499 37.475C31.4833 36.3917 30.95 35.0833 30.95 33.55H16.65C16.65 35.0833 16.1083 36.3917 15.025 37.475C13.9416 38.5583 12.6333 39.1 11.1 39.1ZM11.1 36.8C12.0333 36.8 12.8166 36.4833 13.45 35.85C14.0833 35.2167 14.4 34.45 14.4 33.55C14.4 32.65 14.0833 31.875 13.45 31.225C12.8166 30.575 12.0333 30.25 11.1 30.25C10.2 30.25 9.43328 30.575 8.79995 31.225C8.16662 31.875 7.84995 32.65 7.84995 33.55C7.84995 34.45 8.16662 35.2167 8.79995 35.85C9.43328 36.4833 10.2 36.8 11.1 36.8ZM4.94995 31.25H6.04995C6.48328 30.3167 7.14995 29.5333 8.04995 28.9C8.94995 28.2667 9.96662 27.95 11.1 27.95C12.1666 27.95 13.1666 28.2667 14.1 28.9C15.0333 29.5333 15.7166 30.3167 16.15 31.25H31.25V11.25H5.59995C5.43328 11.25 5.28328 11.3167 5.14995 11.45C5.01662 11.5833 4.94995 11.7333 4.94995 11.9V31.25ZM36.5 36.8C37.4 36.8 38.1666 36.4833 38.7999 35.85C39.4333 35.2167 39.75 34.45 39.75 33.55C39.75 32.65 39.4333 31.875 38.7999 31.225C38.1666 30.575 37.4 30.25 36.5 30.25C35.5666 30.25 34.7833 30.575 34.15 31.225C33.5166 31.875 33.2 32.65 33.2 33.55C33.2 34.45 33.5166 35.2167 34.15 35.85C34.7833 36.4833 35.5666 36.8 36.5 36.8ZM33.5 27.05H43.0499L37.0999 19.15H33.5V27.05Z" fill="#439FD9"/>
</g>
</svg>
