<svg width="40" height="40" viewBox="0 0 40 40" fill="none" xmlns="http://www.w3.org/2000/svg">
<mask id="mask0_293_151" style="mask-type:alpha" maskUnits="userSpaceOnUse" x="0" y="0" width="40" height="40">
<rect width="40" height="40" fill="#D9D9D9"/>
</mask>
<g mask="url(#mask0_293_151)">
<path d="M9.417 32.583C8.139 32.583 7.04867 32.1317 6.146 31.229C5.24333 30.3263 4.792 29.2223 4.792 27.917H2.25V10.125C2.25 9.403 2.507 8.785 3.021 8.271C3.535 7.757 4.139 7.5 4.833 7.5H27.917V14H32.042L37.75 21.625V27.917H34.917C34.917 29.2223 34.4653 30.3263 33.562 31.229C32.6593 32.1317 31.5693 32.583 30.292 32.583C28.986 32.583 27.8887 32.1317 27 31.229C26.1113 30.3263 25.667 29.2223 25.667 27.917H14.042C14.042 29.2223 13.5907 30.3263 12.688 31.229C11.7847 32.1317 10.6943 32.583 9.417 32.583ZM9.417 30.5C10.139 30.5 10.743 30.25 11.229 29.75C11.715 29.25 11.958 28.6527 11.958 27.958C11.958 27.236 11.715 26.625 11.229 26.125C10.743 25.625 10.139 25.375 9.417 25.375C8.72233 25.375 8.125 25.625 7.625 26.125C7.125 26.625 6.875 27.236 6.875 27.958C6.875 28.6527 7.125 29.25 7.625 29.75C8.125 30.25 8.72233 30.5 9.417 30.5ZM4.333 25.833H5.333C5.69433 25.111 6.236 24.507 6.958 24.021C7.68067 23.535 8.50033 23.292 9.417 23.292C10.2777 23.292 11.083 23.535 11.833 24.021C12.583 24.507 13.1247 25.111 13.458 25.833H25.833V9.583H4.833C4.72233 9.583 4.61133 9.63867 4.5 9.75C4.38867 9.86133 4.333 9.98633 4.333 10.125V25.833ZM30.292 30.5C30.986 30.5 31.583 30.25 32.083 29.75C32.583 29.25 32.833 28.6527 32.833 27.958C32.833 27.236 32.583 26.625 32.083 26.125C31.583 25.625 30.986 25.375 30.292 25.375C29.5693 25.375 28.965 25.625 28.479 26.125C27.993 26.625 27.75 27.236 27.75 27.958C27.75 28.6527 27.993 29.25 28.479 29.75C28.965 30.25 29.5693 30.5 30.292 30.5ZM27.917 22.375H35.708L30.958 16.083H27.917V22.375Z" fill="#000C24"/>
</g>
</svg>
