<svg width="64" height="64" viewBox="0 0 64 64" fill="none" xmlns="http://www.w3.org/2000/svg">
<mask id="mask0_293_872" style="mask-type:alpha" maskUnits="userSpaceOnUse" x="0" y="0" width="64" height="64">
<rect width="64" height="64" fill="#D9D9D9"/>
</mask>
<g mask="url(#mask0_293_872)">
<path d="M31.9999 31.3333C33.2888 31.3333 34.3893 30.8782 35.3013 29.968C36.2115 29.056 36.6666 27.9556 36.6666 26.6667C36.6666 25.3778 36.2115 24.2773 35.3013 23.3653C34.3893 22.4551 33.2888 22 31.9999 22C30.711 22 29.6106 22.4551 28.6986 23.3653C27.7884 24.2773 27.3333 25.3778 27.3333 26.6667C27.3333 27.9556 27.7884 29.056 28.6986 29.968C29.6106 30.8782 30.711 31.3333 31.9999 31.3333ZM31.9999 52.8C37.511 47.9111 41.6666 43.2329 44.4666 38.7653C47.2666 34.2996 48.6666 30.4444 48.6666 27.2C48.6666 22.1333 47.0559 18 43.8346 14.8C40.6115 11.6 36.6666 10 31.9999 10C27.3333 10 23.3884 11.6 20.1653 14.8C16.9439 18 15.3333 22.1333 15.3333 27.2C15.3333 30.4444 16.7333 34.2996 19.5333 38.7653C22.3333 43.2329 26.4888 47.9111 31.9999 52.8ZM31.9999 58.1333C25.0666 52.0889 19.8888 46.4889 16.4666 41.3333C13.0444 36.1778 11.3333 31.4667 11.3333 27.2C11.3333 20.7556 13.4115 15.6107 17.5679 11.7653C21.7226 7.92178 26.5333 6 31.9999 6C37.4666 6 42.2781 7.92178 46.4346 11.7653C50.5893 15.6107 52.6666 20.7556 52.6666 27.2C52.6666 31.4667 50.9555 36.1778 47.5333 41.3333C44.111 46.4889 38.9333 52.0889 31.9999 58.1333Z" fill="white"/>
</g>
</svg>
