<svg width="40" height="40" viewBox="0 0 40 40" fill="none" xmlns="http://www.w3.org/2000/svg">
<mask id="mask0_293_136" style="mask-type:alpha" maskUnits="userSpaceOnUse" x="0" y="0" width="40" height="40">
<rect width="40" height="40" fill="#D9D9D9"/>
</mask>
<g mask="url(#mask0_293_136)">
<path d="M7.5 34.167V18.208L4.125 20.792L2.875 19.125L20 6.04199L37.125 19.125L35.875 20.75L32.5 18.208V34.167H7.5ZM9.583 32.083H30.417V16.625L20 8.66699L9.583 16.625V32.083ZM13.333 24.792C12.9163 24.792 12.5693 24.653 12.292 24.375C12.014 24.097 11.875 23.7497 11.875 23.333C11.875 22.9163 12.014 22.5693 12.292 22.292C12.5693 22.014 12.9163 21.875 13.333 21.875C13.7497 21.875 14.097 22.014 14.375 22.292C14.653 22.5693 14.792 22.9163 14.792 23.333C14.792 23.7497 14.653 24.097 14.375 24.375C14.097 24.653 13.7497 24.792 13.333 24.792ZM20 24.792C19.5833 24.792 19.236 24.653 18.958 24.375C18.6807 24.097 18.542 23.7497 18.542 23.333C18.542 22.9163 18.6807 22.5693 18.958 22.292C19.236 22.014 19.5833 21.875 20 21.875C20.4167 21.875 20.764 22.014 21.042 22.292C21.3193 22.5693 21.458 22.9163 21.458 23.333C21.458 23.7497 21.3193 24.097 21.042 24.375C20.764 24.653 20.4167 24.792 20 24.792ZM26.667 24.792C26.2503 24.792 25.903 24.653 25.625 24.375C25.347 24.097 25.208 23.7497 25.208 23.333C25.208 22.9163 25.347 22.5693 25.625 22.292C25.903 22.014 26.2503 21.875 26.667 21.875C27.0837 21.875 27.4307 22.014 27.708 22.292C27.986 22.5693 28.125 22.9163 28.125 23.333C28.125 23.7497 27.986 24.097 27.708 24.375C27.4307 24.653 27.0837 24.792 26.667 24.792Z" fill="#000C24"/>
</g>
</svg>
