<svg width="48" height="48" viewBox="0 0 48 48" fill="none" xmlns="http://www.w3.org/2000/svg">
<mask id="mask0_293_456" style="mask-type:alpha" maskUnits="userSpaceOnUse" x="0" y="0" width="48" height="48">
<rect width="48" height="48" fill="#D9D9D9"/>
</mask>
<g mask="url(#mask0_293_456)">
<path d="M19.25 20.9L24 18.5L28.75 20.9V9.25H19.25V20.9ZM14 33.5V30.5H24V33.5H14ZM9.9 41C9.1 41 8.41667 40.7167 7.85 40.15C7.28333 39.5833 7 38.9 7 38.1V9.9C7 9.1 7.28333 8.41667 7.85 7.85C8.41667 7.28333 9.1 7 9.9 7H38.1C38.9 7 39.5833 7.28333 40.15 7.85C40.7167 8.41667 41 9.1 41 9.9V38.1C41 38.9 40.7167 39.5833 40.15 40.15C39.5833 40.7167 38.9 41 38.1 41H9.9ZM9.9 38.75H38.1C38.2667 38.75 38.4167 38.6833 38.55 38.55C38.6833 38.4167 38.75 38.2667 38.75 38.1V9.9C38.75 9.73333 38.6833 9.58333 38.55 9.45C38.4167 9.31667 38.2667 9.25 38.1 9.25H31V24.55L24 21.05L17 24.55V9.25H9.9C9.73333 9.25 9.58333 9.31667 9.45 9.45C9.31667 9.58333 9.25 9.73333 9.25 9.9V38.1C9.25 38.2667 9.31667 38.4167 9.45 38.55C9.58333 38.6833 9.73333 38.75 9.9 38.75Z" fill="#439FD9"/>
</g>
</svg>
