<svg width="48" height="48" viewBox="0 0 48 48" fill="none" xmlns="http://www.w3.org/2000/svg">
<mask id="mask0_293_438" style="mask-type:alpha" maskUnits="userSpaceOnUse" x="0" y="0" width="48" height="48">
<rect width="48" height="48" fill="#D9D9D9"/>
</mask>
<g mask="url(#mask0_293_438)">
<path d="M24.0001 33.7C27.5668 30.8333 30.2668 28.0833 32.1001 25.45C33.9334 22.8167 34.8501 20.3167 34.8501 17.95C34.8501 15.9167 34.4834 14.1917 33.7501 12.775C33.0168 11.3583 32.1001 10.2 31.0001 9.3C29.9001 8.4 28.7168 7.75 27.4501 7.35C26.1834 6.95 25.0334 6.75 24.0001 6.75C22.9668 6.75 21.8168 6.95 20.5501 7.35C19.2834 7.75 18.1001 8.4 17.0001 9.3C15.9001 10.2 14.9834 11.3583 14.2501 12.775C13.5168 14.1917 13.1501 15.9167 13.1501 17.95C13.1501 20.3167 14.0668 22.8167 15.9001 25.45C17.7334 28.0833 20.4334 30.8333 24.0001 33.7ZM24.0001 36.55C19.5668 33.2167 16.2668 30.0167 14.1001 26.95C11.9334 23.8833 10.8501 20.8833 10.8501 17.95C10.8501 15.7167 11.2501 13.7667 12.0501 12.1C12.8501 10.4333 13.8751 9.03333 15.1251 7.9C16.3751 6.76667 17.7834 5.91667 19.3501 5.35C20.9168 4.78333 22.4668 4.5 24.0001 4.5C25.5334 4.5 27.0834 4.78333 28.6501 5.35C30.2168 5.91667 31.6251 6.76667 32.8751 7.9C34.1251 9.03333 35.1501 10.4333 35.9501 12.1C36.7501 13.7667 37.1501 15.7167 37.1501 17.95C37.1501 20.8833 36.0668 23.8833 33.9001 26.95C31.7334 30.0167 28.4334 33.2167 24.0001 36.55ZM24.0001 20.75C24.8668 20.75 25.6084 20.4417 26.2251 19.825C26.8418 19.2083 27.1501 18.4667 27.1501 17.6C27.1501 16.7333 26.8418 16 26.2251 15.4C25.6084 14.8 24.8668 14.5 24.0001 14.5C23.1334 14.5 22.3918 14.8083 21.7751 15.425C21.1584 16.0417 20.8501 16.7833 20.8501 17.65C20.8501 18.5167 21.1584 19.25 21.7751 19.85C22.3918 20.45 23.1334 20.75 24.0001 20.75ZM10.8501 43.5V41.25H37.1501V43.5H10.8501Z" fill="#439FD9"/>
</g>
</svg>
