<svg width="24" height="24" viewBox="0 0 24 24" fill="none" xmlns="http://www.w3.org/2000/svg">
<mask id="mask0_356_1509" style="mask-type:alpha" maskUnits="userSpaceOnUse" x="0" y="0" width="24" height="24">
<rect width="24" height="24" fill="#D9D9D9"/>
</mask>
<g mask="url(#mask0_356_1509)">
<path d="M13.75 14.775C14 14.775 14.2167 14.6833 14.4 14.5C14.5833 14.3167 14.675 14.1 14.675 13.85C14.675 13.6 14.5833 13.3873 14.4 13.212C14.2167 13.0373 14 12.95 13.75 12.95C13.5 12.95 13.2833 13.0373 13.1 13.212C12.9167 13.3873 12.825 13.6 12.825 13.85C12.825 14.1 12.9167 14.3167 13.1 14.5C13.2833 14.6833 13.5 14.775 13.75 14.775ZM13.15 11.75H14.35C14.3667 11.3 14.425 10.9667 14.525 10.75C14.625 10.5333 14.8667 10.2417 15.25 9.875C15.7167 9.425 16.0333 9.05 16.2 8.75C16.3667 8.45 16.45 8.09167 16.45 7.675C16.45 6.975 16.2 6.39167 15.7 5.925C15.2 5.45833 14.55 5.225 13.75 5.225C13.1333 5.225 12.5877 5.39567 12.113 5.737C11.6377 6.079 11.3 6.54167 11.1 7.125L12.175 7.575C12.3417 7.175 12.5583 6.87067 12.825 6.662C13.0917 6.454 13.4 6.35 13.75 6.35C14.1833 6.35 14.5417 6.479 14.825 6.737C15.1083 6.99567 15.25 7.33333 15.25 7.75C15.25 8 15.1793 8.23733 15.038 8.462C14.896 8.68733 14.65 8.95833 14.3 9.275C13.8167 9.69167 13.5043 10.0457 13.363 10.337C13.221 10.629 13.15 11.1 13.15 11.75ZM8.05 17.5C7.55 17.5 7.125 17.325 6.775 16.975C6.425 16.625 6.25 16.2 6.25 15.7V4.3C6.25 3.8 6.425 3.375 6.775 3.025C7.125 2.675 7.55 2.5 8.05 2.5H19.45C19.95 2.5 20.375 2.675 20.725 3.025C21.075 3.375 21.25 3.8 21.25 4.3V15.7C21.25 16.2 21.075 16.625 20.725 16.975C20.375 17.325 19.95 17.5 19.45 17.5H8.05ZM8.05 16H19.45C19.5167 16 19.5833 15.9667 19.65 15.9C19.7167 15.8333 19.75 15.7667 19.75 15.7V4.3C19.75 4.23333 19.7167 4.16667 19.65 4.1C19.5833 4.03333 19.5167 4 19.45 4H8.05C7.98333 4 7.91667 4.03333 7.85 4.1C7.78333 4.16667 7.75 4.23333 7.75 4.3V15.7C7.75 15.7667 7.78333 15.8333 7.85 15.9C7.91667 15.9667 7.98333 16 8.05 16ZM4.55 21C4.05 21 3.625 20.825 3.275 20.475C2.925 20.125 2.75 19.7 2.75 19.2V6.3H4.25V19.2C4.25 19.2667 4.28333 19.3333 4.35 19.4C4.41667 19.4667 4.48333 19.5 4.55 19.5H17.45V21H4.55Z" fill="#1C1B1F"/>
</g>
</svg>
