<svg width="48" height="48" viewBox="0 0 48 48" fill="none" xmlns="http://www.w3.org/2000/svg">
<mask id="mask0_293_462" style="mask-type:alpha" maskUnits="userSpaceOnUse" x="0" y="0" width="48" height="48">
<rect width="48" height="48" fill="#D9D9D9"/>
</mask>
<g mask="url(#mask0_293_462)">
<path d="M31.05 21.15C31.6833 21.15 32.2333 20.9167 32.7 20.45C33.1667 19.9833 33.4 19.4167 33.4 18.75C33.4 18.0833 33.1667 17.5167 32.7 17.05C32.2333 16.5833 31.6833 16.35 31.05 16.35C30.3833 16.35 29.8167 16.5833 29.35 17.05C28.8833 17.5167 28.65 18.0833 28.65 18.75C28.65 19.4167 28.8833 19.9833 29.35 20.45C29.8167 20.9167 30.3833 21.15 31.05 21.15ZM16.95 21.15C17.6167 21.15 18.1833 20.9167 18.65 20.45C19.1167 19.9833 19.35 19.4167 19.35 18.75C19.35 18.0833 19.1167 17.5167 18.65 17.05C18.1833 16.5833 17.6167 16.35 16.95 16.35C16.3167 16.35 15.7667 16.5833 15.3 17.05C14.8333 17.5167 14.6 18.0833 14.6 18.75C14.6 19.4167 14.8333 19.9833 15.3 20.45C15.7667 20.9167 16.3167 21.15 16.95 21.15ZM24 34.35C26.0333 34.35 27.9167 33.8 29.65 32.7C31.3833 31.6 32.65 30.1167 33.45 28.25H31.35C30.5833 29.55 29.55 30.5583 28.25 31.275C26.95 31.9917 25.5333 32.35 24 32.35C22.5 32.35 21.0917 32 19.775 31.3C18.4583 30.6 17.4333 29.5833 16.7 28.25H14.55C15.3833 30.1167 16.6583 31.6 18.375 32.7C20.0917 33.8 21.9667 34.35 24 34.35ZM24 43C21.3667 43 18.8917 42.5 16.575 41.5C14.2583 40.5 12.25 39.15 10.55 37.45C8.85 35.75 7.5 33.7417 6.5 31.425C5.5 29.1083 5 26.6333 5 24C5 21.3667 5.5 18.8917 6.5 16.575C7.5 14.2583 8.85 12.25 10.55 10.55C12.25 8.85 14.2583 7.5 16.575 6.5C18.8917 5.5 21.3667 5 24 5C26.6333 5 29.1083 5.5 31.425 6.5C33.7417 7.5 35.75 8.85 37.45 10.55C39.15 12.25 40.5 14.2583 41.5 16.575C42.5 18.8917 43 21.3667 43 24C43 26.6333 42.5 29.1083 41.5 31.425C40.5 33.7417 39.15 35.75 37.45 37.45C35.75 39.15 33.7417 40.5 31.425 41.5C29.1083 42.5 26.6333 43 24 43ZM24 40.75C28.6667 40.75 32.625 39.125 35.875 35.875C39.125 32.625 40.75 28.6667 40.75 24C40.75 19.3333 39.125 15.375 35.875 12.125C32.625 8.875 28.6667 7.25 24 7.25C19.3333 7.25 15.375 8.875 12.125 12.125C8.875 15.375 7.25 19.3333 7.25 24C7.25 28.6667 8.875 32.625 12.125 35.875C15.375 39.125 19.3333 40.75 24 40.75Z" fill="#439FD9"/>
</g>
</svg>
