<svg width="48" height="48" viewBox="0 0 48 48" fill="none" xmlns="http://www.w3.org/2000/svg">
<mask id="mask0_293_450" style="mask-type:alpha" maskUnits="userSpaceOnUse" x="0" y="0" width="48" height="48">
<rect width="48" height="48" fill="#D9D9D9"/>
</mask>
<g mask="url(#mask0_293_450)">
<path d="M20.8 31.25C21.5 31.9167 22.475 32.225 23.725 32.175C24.975 32.125 25.8833 31.6667 26.45 30.8L37 14.95L21.3 25.6C20.4333 26.1667 19.9667 27.0751 19.9 28.3251C19.8333 29.5751 20.1333 30.55 20.8 31.25ZM23.9 9.05005C25.7667 9.05005 27.625 9.32505 29.475 9.87505C31.325 10.425 33.1333 11.35 34.9 12.65L32.95 14.05C31.5167 13.1167 29.9917 12.425 28.375 11.975C26.7583 11.525 25.2667 11.3 23.9 11.3C19.3 11.3 15.375 12.9417 12.125 16.225C8.875 19.5084 7.25 23.4834 7.25 28.15C7.25 29.6167 7.45833 31.0917 7.875 32.5751C8.29167 34.0584 8.86667 35.45 9.6 36.75H38.2C38.9333 35.5167 39.5083 34.1334 39.925 32.6C40.3417 31.0667 40.55 29.5334 40.55 28C40.55 26.6667 40.35 25.2084 39.95 23.625C39.55 22.0417 38.8667 20.5834 37.9 19.25L39.4 17.35C40.5667 19.15 41.4167 20.9084 41.95 22.625C42.4833 24.3417 42.7833 26.0667 42.85 27.8C42.8833 29.7 42.6833 31.4667 42.25 33.1C41.8167 34.7334 41.1667 36.2834 40.3 37.75C40 38.3167 39.6833 38.6667 39.35 38.8C39.0167 38.9334 38.5833 39 38.05 39H9.75C9.31667 39 8.89167 38.8834 8.475 38.6501C8.05833 38.4167 7.75 38.1001 7.55 37.7001C6.78333 36.3001 6.16667 34.8251 5.7 33.2751C5.23333 31.7251 5 30.0167 5 28.15C5 25.5167 5.49167 23.0417 6.475 20.725C7.45833 18.4084 8.80833 16.3917 10.525 14.675C12.2417 12.9584 14.25 11.5917 16.55 10.575C18.85 9.55838 21.3 9.05005 23.9 9.05005Z" fill="#439FD9"/>
</g>
</svg>
