<svg width="59" height="48" viewBox="0 0 59 48" fill="none" xmlns="http://www.w3.org/2000/svg">
<path d="M5.71429 45.8182H36.9524V30.2338H56V4.67532C56 3.94805 55.7143 3.35065 55.1429 2.88312C54.5714 2.41558 53.8413 2.18182 52.9524 2.18182H5.71429C4.8254 2.18182 4.09524 2.41558 3.52381 2.88312C2.95238 3.35065 2.66667 3.94805 2.66667 4.67532V43.3247C2.66667 44.0519 2.95238 44.6493 3.52381 45.1169C4.09524 45.5844 4.8254 45.8182 5.71429 45.8182ZM5.71429 48C4.12698 48 2.77841 47.5449 1.66857 46.6348C0.556189 45.7267 0 44.6234 0 43.3247V4.67532C0 3.37662 0.556189 2.27221 1.66857 1.36208C2.77841 0.454025 4.12698 0 5.71429 0H52.9524C54.5397 0 55.8895 0.454025 57.0019 1.36208C58.1117 2.27221 58.6667 3.37662 58.6667 4.67532V30.4675L37.2381 48H5.71429ZM14.6667 28.0519V25.8701H29.3333V28.0519H14.6667ZM14.6667 15.7403V13.5584H44V15.7403H14.6667Z" fill="#439FD9"/>
</svg>
