<svg width="18" height="17" viewBox="0 0 18 17" fill="none" xmlns="http://www.w3.org/2000/svg">
<path d="M0 14.2985C1.93756 14.4096 3.63187 13.9482 5.28425 12.7265C3.6151 12.436 2.4576 11.6585 1.82852 10.0523C2.31501 9.98399 2.74278 10.1121 3.24605 9.9071C1.60206 9.17234 0.536815 8.07021 0.494876 6.16498C1.01491 6.2077 1.40914 6.55799 2.02983 6.50673C0.520043 5.00305 0.0587139 3.36267 1.00652 1.372C2.58341 3.21742 4.42871 4.47334 6.685 5.06285C6.81082 5.09703 6.92824 5.1312 7.05405 5.15683C7.6328 5.29353 8.3206 5.58401 8.67288 5.5413C9.2768 5.4644 8.67289 4.75528 8.82387 3.83257C9.30196 0.961902 12.4054 -0.345276 14.7036 1.33782C15.3747 1.83335 15.9031 1.82481 16.5657 1.52578C16.9096 1.372 17.2619 1.21821 17.6729 1.03879C17.5806 1.85898 16.9599 2.3118 16.4651 2.9184C17.027 3.04655 17.48 2.88422 18 2.71335C17.8239 3.30286 17.3877 3.63606 16.9935 3.96072C16.5825 4.29392 16.4231 4.64421 16.4063 5.19101C16.1547 13.4698 6.91986 19.869 0.60392 14.777C-0.00838157 14.2814 0.587139 14.777 0 14.2985Z" fill="#22567F"/>
</svg>
