<svg width="1919" height="415" viewBox="0 0 1919 415" fill="none" xmlns="http://www.w3.org/2000/svg">
<path d="M-1.37984e-05 338.371H27.2779C25.1796 337.008 23.7807 334.983 23.7807 332.685C23.7807 328.596 28.0939 325.247 33.4174 325.247H33.495C27.6276 320.846 -0.699427 297.09 26.7339 267.61C47.0951 245.723 68.6221 232.794 81.6394 226.68C79.7742 225.901 78.4919 224.032 78.4919 221.89C78.4919 219.008 80.8234 216.671 83.6988 216.671H89.1777L91.3148 168.342C91.3148 167.329 92.1309 166.473 93.18 166.473C94.2292 166.473 95.0451 167.329 95.0451 168.342L97.1823 216.671H102.622C105.498 216.671 107.829 219.008 107.829 221.89C107.829 224.032 106.547 225.862 104.682 226.68C117.699 232.833 139.226 245.723 159.587 267.61C187.021 297.129 158.655 320.846 152.826 325.247H152.943C158.266 325.247 162.579 328.596 162.579 332.685C162.579 334.983 161.219 337.008 159.082 338.371H193.626C196.968 338.371 199.649 340.63 199.649 343.395V372.096H207.965V318.432C207.965 314.031 211.151 310.487 215.076 310.487H235.864V249.112C235.864 248.488 235.942 247.904 236.059 247.32C229.686 246.152 224.984 242.257 224.984 237.662C224.984 232.132 231.745 227.615 240.061 227.615H253.039C245.112 221.656 206.954 189.644 243.908 149.883C271.38 120.324 300.406 102.916 317.931 94.6601C315.444 93.5696 313.696 91.1162 313.696 88.1954C313.696 84.301 316.843 81.1855 320.69 81.1855H328.034L330.948 15.9934C330.948 14.6304 332.075 13.501 333.435 13.501C334.795 13.501 335.922 14.6304 335.922 15.9934L338.836 81.1855H346.18C350.027 81.1855 353.175 84.3399 353.175 88.1954C353.175 91.0772 351.426 93.5696 348.939 94.6601C366.464 102.916 395.49 120.324 423.001 149.883C459.955 189.644 421.797 221.656 413.87 227.615H426.848C435.164 227.615 441.925 232.132 441.925 237.662C441.925 242.257 437.223 246.152 430.851 247.32C430.928 247.904 431.006 248.488 431.006 249.112V310.487H451.795C455.719 310.487 458.906 314.07 458.906 318.432V372.096H499.9V292.962H494.538V287.978H499.9V209.545H494.538V204.56H499.9V116.43H494.538V111.445H499.9V93.9201H497.646C497.646 87.1049 502.581 81.497 509.032 80.3677V73.903H513.772V80.3677C520.223 81.497 525.157 87.1049 525.157 93.9201H522.904V111.445H528.266V116.43H522.904V204.599H528.266V209.584H522.904V288.017H528.266V293.001H522.904V372.135H532.618V183.764H538.214V165.499H535.843C535.843 158.411 540.972 152.531 547.733 151.362V144.625H552.668V151.362C559.43 152.531 564.559 158.411 564.559 165.499H562.188V183.764H567.745V188.826H605.981C604.582 187.463 603.727 185.789 603.727 183.881C603.727 179.363 608.468 175.702 614.335 175.702H614.452C608.001 170.873 576.799 144.703 606.991 112.263C629.412 88.1564 653.115 73.9419 667.414 67.2046C665.394 66.3479 663.956 64.2838 663.956 61.9472C663.956 58.7927 666.521 56.2224 669.668 56.2224H675.691L678.061 3.02508C678.061 1.89571 678.994 1 680.121 1C681.247 1 682.141 1.93465 682.141 3.02508L684.512 56.2224H690.496C693.643 56.2224 696.208 58.7927 696.208 61.9472C696.208 64.3228 694.77 66.3479 692.749 67.2046C707.088 73.9419 730.791 88.1564 753.211 112.263C783.403 144.742 752.201 170.873 745.751 175.702H745.867C751.735 175.702 756.475 179.363 756.475 183.881C756.475 185.75 755.621 187.424 754.222 188.826H792.457V183.764H798.014V165.499H795.683C795.683 158.411 800.812 152.531 807.573 151.362V144.625H812.508V151.362C819.23 152.531 824.398 158.411 824.398 165.499H822.028V183.764H827.623V372.135H842.389V313.525H837.027V308.54H842.389V230.107H837.027V225.122H842.389V136.953H837.027V132.007H842.389V114.483H840.135C840.135 107.667 845.07 102.059 851.521 100.93V94.4653H856.261V100.93C862.711 102.059 867.646 107.667 867.646 114.483H865.393V132.007H870.755V136.953H865.393V225.122H870.755V230.107H865.393V308.54H870.755V313.525H865.393V372.135H918.899V283.694H912.643V277.852H918.899V185.867H912.643V180.025H918.899V76.629H912.643V70.7875H918.899V50.264H916.257C916.257 42.2805 922.047 35.699 929.624 34.3749V26.8198H935.18V34.3749C942.758 35.699 948.547 42.2805 948.547 50.264H945.905V70.7875H952.161V76.629H945.905V180.025H952.161V185.867H945.905V277.852H952.161V283.694H945.905V372.135H988.182V296.584H982.586V291.405H988.182V209.584H982.586V204.404H988.182V112.38H982.586V107.2H988.182V88.9353H985.812C985.812 81.8475 990.941 75.967 997.702 74.7987V68.0614H1002.64V74.7987C1009.4 75.967 1014.53 81.8475 1014.53 88.9353H1012.16V107.2H1017.75V112.38H1012.16V204.365H1017.75V209.545H1012.16V291.366H1017.75V296.545H1012.16V301.608H1038.42C1036.02 292.846 1037.41 282.097 1048.29 270.375C1067.14 250.085 1087.07 238.129 1099.12 232.444C1097.41 231.704 1096.21 229.99 1096.21 228.004C1096.21 225.356 1098.38 223.175 1101.02 223.175H1106.08L1108.06 178.428C1108.06 177.494 1108.83 176.715 1109.77 176.715C1110.7 176.715 1111.48 177.494 1111.48 178.428L1113.46 223.175H1118.51C1121.15 223.175 1123.33 225.317 1123.33 228.004C1123.33 229.99 1122.12 231.704 1120.41 232.444C1132.46 238.129 1152.39 250.046 1171.24 270.375C1172.29 271.504 1173.26 272.634 1174.15 273.763V271.855H1177.73V222.123H1174.15V218.969H1177.73V163.084H1174.15V159.93H1177.73V148.831H1176.21C1176.21 144.508 1179.52 140.964 1183.79 140.224V136.135H1186.94V140.224C1191.25 140.925 1194.51 144.508 1194.51 148.831H1193V159.93H1196.57V163.084H1193V216.282C1194.13 210.44 1197.23 204.131 1203.37 197.472C1222.22 177.182 1242.15 165.226 1254.2 159.58C1252.49 158.84 1251.29 157.126 1251.29 155.14C1251.29 152.492 1253.42 150.311 1256.1 150.311H1260.42L1260.77 148.831H1261.19L1263.1 105.564C1263.1 104.63 1263.87 103.851 1264.81 103.851C1265.74 103.851 1266.52 104.63 1266.52 105.564L1268.46 148.87L1268.81 150.311H1273.55C1276.19 150.311 1278.37 152.453 1278.37 155.14C1278.37 157.126 1277.16 158.84 1275.45 159.58C1287.5 165.265 1307.43 177.221 1326.28 197.472C1332.26 203.898 1335.37 210.051 1336.58 215.698V163.046H1333V159.891H1336.58V148.792H1335.06C1335.06 144.469 1338.33 140.925 1342.64 140.185V136.096H1345.79V140.185C1350.1 140.886 1353.36 144.469 1353.36 148.792H1351.85V159.891H1355.38V163.046H1351.85V218.93H1355.38V222.084H1351.85V271.816H1355.38V274.97H1351.85V293.001C1352.16 286.147 1355.15 278.475 1362.69 270.375C1381.54 250.085 1401.47 238.129 1413.51 232.444C1411.8 231.704 1410.6 229.99 1410.6 228.004C1410.6 225.356 1412.74 223.175 1415.42 223.175H1420.47L1422.45 178.428C1422.45 177.494 1423.23 176.715 1424.16 176.715C1425.09 176.715 1425.87 177.494 1425.87 178.428L1427.89 223.175H1432.94C1435.59 223.175 1437.76 225.317 1437.76 228.004C1437.76 229.99 1436.56 231.704 1434.85 232.444C1446.89 238.129 1466.83 250.046 1485.67 270.375C1496.59 282.097 1497.95 292.846 1495.54 301.608H1512.17V296.545H1506.58V291.366H1512.17V209.545H1506.58V204.365H1512.17V112.38H1506.58V107.2H1512.17V88.9353H1509.8C1509.8 81.8475 1514.93 75.967 1521.69 74.7987V68.0614H1526.63V74.7987C1533.39 75.967 1538.52 81.8475 1538.52 88.9353H1536.15V107.2H1541.71V112.38H1536.15V204.365H1541.71V209.545H1536.15V291.366H1541.71V296.545H1536.15V372.096H1552.86V244.321H1651.67V133.253H1646.54C1646.54 126.166 1651.67 120.285 1658.43 119.117V112.38H1663.37V119.117C1670.09 120.285 1675.26 126.166 1675.26 133.253H1670.01V159.424H1780.13V133.253H1775.08C1775.08 126.166 1780.21 120.285 1786.97 119.117V112.38H1791.91V119.117C1798.67 120.285 1803.8 126.166 1803.8 133.253H1798.51V244.321H1897.72V372.096H1918V414H0.466256V399.747H-1.37984e-05V338.371ZM50.5924 357.376C50.4369 351.729 46.3957 347.172 41.4609 347.172C36.526 347.172 32.4459 351.729 32.3293 357.376V372.096H50.6311V357.376H50.5924ZM102.312 357.376C102.156 351.729 98.1538 347.172 93.18 347.172C88.2063 347.172 84.1651 351.729 84.0485 357.376V372.096H102.35V357.376H102.312ZM154.031 357.376C153.875 351.729 149.834 347.172 144.899 347.172C139.964 347.172 135.884 351.729 135.768 357.376V372.096H154.069V357.376H154.031ZM244.529 341.448V372.096H274.333V341.448C274.1 333.386 267.533 326.96 259.451 326.96C251.368 326.96 244.801 333.425 244.568 341.448H244.529ZM291.158 269.869C290.925 260.873 284.514 253.629 276.626 253.629C268.738 253.629 262.326 260.873 262.093 269.869V306.048H291.197V269.869H291.158ZM308.761 326.96C300.678 326.96 294.111 333.425 293.878 341.448V372.096H323.682V341.448C323.449 333.386 316.882 326.96 308.8 326.96H308.761ZM348.007 269.869C347.773 260.873 341.362 253.629 333.474 253.629C325.586 253.629 319.175 260.873 318.941 269.869V306.048H348.046V269.869H348.007ZM373.031 341.448C372.798 333.386 366.231 326.96 358.148 326.96C350.066 326.96 343.499 333.425 343.266 341.448V372.096H373.07V341.448H373.031ZM404.855 269.869C404.622 260.873 398.21 253.629 390.322 253.629C382.434 253.629 376.023 260.873 375.79 269.869V306.048H404.894V269.869H404.855ZM422.418 341.448C422.185 333.386 415.618 326.96 407.536 326.96C399.454 326.96 392.887 333.425 392.654 341.448V372.096H422.457V341.448H422.418ZM1073.47 322.91V323.066H1095.97V322.91H1073.47ZM1095.97 352.391C1094.07 347.328 1084.7 343.551 1084.7 343.551C1084.7 343.551 1075.38 347.328 1073.47 352.391C1072.23 355.623 1072.58 365.437 1073.01 372.096H1096.48C1096.87 365.437 1097.22 355.623 1096.01 352.391H1095.97ZM1123.44 322.91V323.066H1145.94C1145.94 323.066 1145.94 322.988 1145.94 322.91H1123.41H1123.44ZM1145.94 352.391C1144.04 347.328 1134.71 343.551 1134.71 343.551C1134.71 343.551 1125.39 347.328 1123.44 352.391C1122.2 355.623 1122.55 365.437 1122.98 372.096H1146.41C1146.8 365.437 1147.15 355.623 1145.94 352.391ZM1177.84 275.048H1175.24C1176.21 276.372 1177.07 277.696 1177.84 278.982V275.048ZM1193.15 226.524V244.049H1199.53C1199.53 242.881 1199.53 241.751 1199.6 240.622C1196.73 236.727 1194.16 231.976 1193.12 226.524H1193.15ZM1307.74 291.833C1300.44 275.126 1265 262.586 1265 262.586C1265 262.586 1229.56 275.126 1222.26 291.833C1216.31 305.463 1220.04 354.377 1221.64 372.096H1308.37C1309.96 354.377 1313.69 305.463 1307.74 291.833ZM1336.81 227.03C1335.72 232.327 1333.16 237 1330.36 240.778C1330.4 241.868 1330.44 242.958 1330.44 244.088H1336.81V227.03ZM1352.12 295.416V301.686H1353.05V301.569C1352.55 299.622 1352.2 297.558 1352.12 295.416ZM1388.1 322.949V323.105H1410.48C1410.48 323.105 1410.48 323.027 1410.48 322.949H1388.1ZM1410.48 352.43C1408.58 347.367 1399.29 343.589 1399.29 343.589C1399.29 343.589 1390.01 347.367 1388.1 352.43C1386.86 355.662 1387.21 365.476 1387.64 372.135H1410.95C1411.34 365.476 1411.69 355.662 1410.48 352.43ZM1437.8 322.949V323.105H1460.18V322.949H1437.8ZM1460.18 352.43C1458.28 347.367 1448.99 343.589 1448.99 343.589C1448.99 343.589 1439.7 347.367 1437.8 352.43C1436.56 355.662 1436.91 365.476 1437.33 372.135H1460.65C1461.04 365.476 1461.39 355.662 1460.18 352.43ZM1775.08 296.156C1775.08 296.156 1758.41 262.041 1725.38 259.704C1692.36 262.041 1675.69 296.156 1675.69 296.156V372.135H1775.12V296.156H1775.08ZM729.703 296.156C729.703 296.156 713.033 262.041 680.004 259.704C646.975 262.041 630.305 296.156 630.305 296.156V372.135H729.742V296.156H729.703Z" stroke="url(#paint0_linear_293_62)" stroke-opacity="0.5" stroke-miterlimit="10" stroke-linejoin="round"/>
<defs>
<linearGradient id="paint0_linear_293_62" x1="959" y1="1" x2="959" y2="414" gradientUnits="userSpaceOnUse">
<stop stop-color="#439FD9"/>
<stop offset="1" stop-color="#439FD9" stop-opacity="0"/>
</linearGradient>
</defs>
</svg>
