<svg width="18" height="17" viewBox="0 0 18 17" fill="none" xmlns="http://www.w3.org/2000/svg">
<path d="M16.413 5.19508C16.0065 4.29672 15.4229 3.49016 14.6819 2.79508C13.9409 2.10655 13.0819 1.56229 12.1245 1.18196C11.1343 0.788518 10.0852 0.591797 9.00319 0.591797C7.92122 0.591797 6.87204 0.788518 5.88187 1.18196C4.92449 1.56229 4.06548 2.09999 3.32449 2.79508C2.58351 3.49016 1.99991 4.29672 1.59335 5.19508C1.17368 6.12622 0.957275 7.12294 0.957275 8.1459C0.957275 9.93606 1.62612 11.6541 2.85235 13.018L2.19661 16.5918L5.68515 15.0377C6.72777 15.4836 7.83597 15.7066 8.99663 15.7066C10.0786 15.7066 11.1278 15.5098 12.1179 15.1164C13.0753 14.7361 13.9343 14.1984 14.6753 13.5033C15.4163 12.8082 15.9999 12.0016 16.4065 11.1033C16.8261 10.1721 17.0425 9.1754 17.0425 8.15245C17.0491 7.12294 16.8327 6.13278 16.413 5.19508Z" fill="#D9D9D9"/>
<path d="M12.2687 9.65376C11.9277 9.48327 11.6786 9.37835 11.5015 9.31278C11.39 9.27343 11.1277 9.1554 11.0359 9.22753C10.7474 9.4636 10.4392 10.1324 10.1113 10.257C9.29822 10.0997 8.54413 9.54228 7.95397 8.97179C7.69167 8.72261 7.20643 8.01441 7.10151 7.82425C7.08184 7.62753 7.43592 7.36523 7.51461 7.21441C7.92117 6.7554 7.61298 6.46687 7.56053 6.27671C7.46872 6.07999 7.31135 5.72589 7.17365 5.43737C7.05561 5.2472 7.02936 4.96523 6.81952 4.86032C5.92772 4.4013 5.41627 5.31933 5.20643 5.79802C3.94086 8.8472 11.5474 14.6505 13.0949 10.6505C13.1736 10.3029 13.1408 10.1718 13.0228 10.0144C12.7867 9.85048 12.5113 9.77835 12.2687 9.65376Z" fill="white"/>
</svg>
