<svg width="18" height="16" viewBox="0 0 18 16" fill="none" xmlns="http://www.w3.org/2000/svg">
<path d="M16.4128 4.60328C16.0062 3.70492 15.4226 2.89836 14.6816 2.20328C13.9407 1.51475 13.0816 0.970492 12.1243 0.590164C11.1341 0.196721 10.0849 0 9.00294 0C7.92098 0 6.87179 0.196721 5.88163 0.590164C4.92425 0.970492 4.06523 1.5082 3.32425 2.20328C2.58327 2.89836 1.99967 3.70492 1.59311 4.60328C1.17344 5.53443 0.957031 6.53115 0.957031 7.5541C0.957031 9.34426 1.62588 11.0623 2.85211 12.4262L2.19637 16L5.68491 14.4459C6.72753 14.8918 7.83573 15.1148 8.99638 15.1148C10.0783 15.1148 11.1275 14.918 12.1177 14.5246C13.0751 14.1443 13.9341 13.6066 14.6751 12.9115C15.4161 12.2164 15.9997 11.4098 16.4062 10.5115C16.8259 9.58033 17.0423 8.58361 17.0423 7.56066C17.0489 6.53115 16.8325 5.54098 16.4128 4.60328Z" fill="#D9D9D9"/>
<path d="M12.2681 9.06227C11.9271 8.89178 11.678 8.78686 11.5009 8.72128C11.3894 8.68194 11.1271 8.56391 11.0353 8.63604C10.7468 8.8721 10.4386 9.54096 10.1107 9.66555C9.29761 9.50817 8.54352 8.95079 7.95336 8.3803C7.69106 8.13112 7.20582 7.42292 7.1009 7.23276C7.08123 7.03604 7.43531 6.77374 7.514 6.62292C7.92056 6.16391 7.61237 5.87538 7.55992 5.68522C7.46811 5.4885 7.31074 5.1344 7.17304 4.84587C7.055 4.65571 7.02875 4.37374 6.81891 4.26882C5.92711 3.80981 5.41566 4.72784 5.20582 5.20653C3.94025 8.25571 11.5468 14.059 13.0943 10.059C13.173 9.71145 13.1402 9.5803 13.0222 9.42292C12.7861 9.25899 12.5107 9.18686 12.2681 9.06227Z" fill="white"/>
</svg>
