<svg width="18" height="16" viewBox="0 0 18 16" fill="none" xmlns="http://www.w3.org/2000/svg">
<path d="M16.4133 4.60328C16.0067 3.70492 15.4231 2.89836 14.6821 2.20328C13.9411 1.51475 13.0821 0.970492 12.1248 0.590164C11.1346 0.196721 10.0854 0 9.00343 0C7.92147 0 6.87228 0.196721 5.88212 0.590164C4.92474 0.970492 4.06572 1.5082 3.32474 2.20328C2.58376 2.89836 2.00016 3.70492 1.5936 4.60328C1.17393 5.53443 0.95752 6.53115 0.95752 7.5541C0.95752 9.34426 1.62637 11.0623 2.85259 12.4262L2.19686 16L5.68539 14.4459C6.72802 14.8918 7.83621 15.1148 8.99687 15.1148C10.0788 15.1148 11.128 14.918 12.1182 14.5246C13.0756 14.1443 13.9346 13.6066 14.6756 12.9115C15.4165 12.2164 16.0001 11.4098 16.4067 10.5115C16.8264 9.58033 17.0428 8.58361 17.0428 7.56066C17.0493 6.53115 16.8329 5.54098 16.4133 4.60328Z" fill="#D9D9D9"/>
<path d="M12.2691 9.06227C11.9281 8.89178 11.6789 8.78686 11.5019 8.72128C11.3904 8.68194 11.1281 8.56391 11.0363 8.63604C10.7478 8.8721 10.4396 9.54096 10.1117 9.66555C9.29859 9.50817 8.5445 8.95079 7.95433 8.3803C7.69204 8.13112 7.20679 7.42292 7.10188 7.23276C7.0822 7.03604 7.43629 6.77374 7.51498 6.62292C7.92154 6.16391 7.61335 5.87538 7.56089 5.68522C7.46909 5.4885 7.31172 5.1344 7.17401 4.84587C7.05598 4.65571 7.02973 4.37374 6.81989 4.26882C5.92809 3.80981 5.41664 4.72784 5.2068 5.20653C3.94123 8.25571 11.5478 14.059 13.0953 10.059C13.174 9.71145 13.1412 9.5803 13.0232 9.42292C12.7871 9.25899 12.5117 9.18686 12.2691 9.06227Z" fill="white"/>
</svg>
