<svg width="18" height="17" viewBox="0 0 18 17" fill="none" xmlns="http://www.w3.org/2000/svg">
<path d="M16.4133 5.19508C16.0067 4.29672 15.4231 3.49016 14.6821 2.79508C13.9411 2.10655 13.0821 1.56229 12.1248 1.18196C11.1346 0.788518 10.0854 0.591797 9.00343 0.591797C7.92147 0.591797 6.87228 0.788518 5.88212 1.18196C4.92474 1.56229 4.06572 2.09999 3.32474 2.79508C2.58376 3.49016 2.00016 4.29672 1.5936 5.19508C1.17393 6.12622 0.95752 7.12294 0.95752 8.1459C0.95752 9.93606 1.62637 11.6541 2.85259 13.018L2.19686 16.5918L5.68539 15.0377C6.72802 15.4836 7.83621 15.7066 8.99687 15.7066C10.0788 15.7066 11.128 15.5098 12.1182 15.1164C13.0756 14.7361 13.9346 14.1984 14.6756 13.5033C15.4165 12.8082 16.0001 12.0016 16.4067 11.1033C16.8264 10.1721 17.0428 9.1754 17.0428 8.15245C17.0493 7.12294 16.8329 6.13278 16.4133 5.19508Z" fill="#D9D9D9"/>
<path d="M12.2691 9.65425C11.9281 9.48376 11.6789 9.37884 11.5019 9.31326C11.3904 9.27392 11.1281 9.15589 11.0363 9.22802C10.7478 9.46408 10.4396 10.1329 10.1117 10.2575C9.29859 10.1001 8.5445 9.54277 7.95433 8.97228C7.69204 8.7231 7.20679 8.0149 7.10188 7.82474C7.0822 7.62802 7.43629 7.36572 7.51498 7.2149C7.92154 6.75589 7.61335 6.46736 7.56089 6.2772C7.46909 6.08048 7.31172 5.72638 7.17401 5.43785C7.05598 5.24769 7.02973 4.96572 6.81989 4.8608C5.92809 4.40179 5.41664 5.31982 5.2068 5.79851C3.94123 8.84769 11.5478 14.651 13.0953 10.651C13.174 10.3034 13.1412 10.1723 13.0232 10.0149C12.7871 9.85097 12.5117 9.77884 12.2691 9.65425Z" fill="white"/>
</svg>
