<svg width="18" height="17" viewBox="0 0 18 17" fill="none" xmlns="http://www.w3.org/2000/svg">
<path d="M16.413 5.19508C16.0065 4.29672 15.4229 3.49016 14.6819 2.79508C13.9409 2.10655 13.0819 1.56229 12.1245 1.18196C11.1343 0.788518 10.0852 0.591797 9.00319 0.591797C7.92122 0.591797 6.87204 0.788518 5.88187 1.18196C4.92449 1.56229 4.06548 2.09999 3.32449 2.79508C2.58351 3.49016 1.99991 4.29672 1.59335 5.19508C1.17368 6.12622 0.957275 7.12294 0.957275 8.1459C0.957275 9.93606 1.62612 11.6541 2.85235 13.018L2.19661 16.5918L5.68515 15.0377C6.72777 15.4836 7.83597 15.7066 8.99662 15.7066C10.0786 15.7066 11.1278 15.5098 12.1179 15.1164C13.0753 14.7361 13.9343 14.1984 14.6753 13.5033C15.4163 12.8082 15.9999 12.0016 16.4065 11.1033C16.8261 10.1721 17.0425 9.1754 17.0425 8.15245C17.0491 7.12294 16.8327 6.13278 16.413 5.19508Z" fill="#D9D9D9"/>
<path d="M12.2687 9.65425C11.9277 9.48376 11.6786 9.37884 11.5015 9.31326C11.39 9.27392 11.1277 9.15589 11.0359 9.22802C10.7474 9.46408 10.4392 10.1329 10.1113 10.2575C9.29822 10.1001 8.54413 9.54277 7.95397 8.97228C7.69167 8.7231 7.20643 8.0149 7.10151 7.82474C7.08184 7.62802 7.43592 7.36572 7.51461 7.2149C7.92117 6.75589 7.61298 6.46736 7.56053 6.2772C7.46872 6.08048 7.31135 5.72638 7.17365 5.43785C7.05561 5.24769 7.02936 4.96572 6.81952 4.8608C5.92772 4.40179 5.41627 5.31982 5.20643 5.79851C3.94086 8.84769 11.5474 14.651 13.0949 10.651C13.1736 10.3034 13.1408 10.1723 13.0228 10.0149C12.7867 9.85097 12.5113 9.77884 12.2687 9.65425Z" fill="white"/>
</svg>
