<svg width="18" height="17" viewBox="0 0 18 17" fill="none" xmlns="http://www.w3.org/2000/svg">
<path d="M16.4128 5.19508C16.0062 4.29672 15.4226 3.49016 14.6816 2.79508C13.9407 2.10655 13.0816 1.56229 12.1243 1.18196C11.1341 0.788518 10.0849 0.591797 9.00294 0.591797C7.92098 0.591797 6.87179 0.788518 5.88163 1.18196C4.92425 1.56229 4.06523 2.09999 3.32425 2.79508C2.58327 3.49016 1.99967 4.29672 1.59311 5.19508C1.17344 6.12622 0.957031 7.12294 0.957031 8.1459C0.957031 9.93606 1.62588 11.6541 2.85211 13.018L2.19637 16.5918L5.68491 15.0377C6.72753 15.4836 7.83573 15.7066 8.99638 15.7066C10.0783 15.7066 11.1275 15.5098 12.1177 15.1164C13.0751 14.7361 13.9341 14.1984 14.6751 13.5033C15.4161 12.8082 15.9997 12.0016 16.4062 11.1033C16.8259 10.1721 17.0423 9.1754 17.0423 8.15245C17.0489 7.12294 16.8325 6.13278 16.4128 5.19508Z" fill="#D9D9D9"/>
<path d="M12.2681 9.65425C11.9271 9.48376 11.678 9.37884 11.5009 9.31326C11.3894 9.27392 11.1271 9.15589 11.0353 9.22802C10.7468 9.46408 10.4386 10.1329 10.1107 10.2575C9.29761 10.1001 8.54352 9.54277 7.95336 8.97228C7.69106 8.7231 7.20582 8.0149 7.1009 7.82474C7.08123 7.62802 7.43531 7.36572 7.514 7.2149C7.92056 6.75589 7.61237 6.46736 7.55992 6.2772C7.46811 6.08048 7.31074 5.72638 7.17304 5.43785C7.055 5.24769 7.02875 4.96572 6.81891 4.8608C5.92711 4.40179 5.41566 5.31982 5.20582 5.79851C3.94025 8.84769 11.5468 14.651 13.0943 10.651C13.173 10.3034 13.1402 10.1723 13.0222 10.0149C12.7861 9.85097 12.5107 9.77884 12.2681 9.65425Z" fill="white"/>
</svg>
